<?xml version="1.0" encoding="UTF-8" standalone="no"?><svg xmlns="http://www.w3.org/2000/svg" xmlns:xlink="http://www.w3.org/1999/xlink" contentScriptType="application/ecmascript" contentStyleType="text/css" height="596px" preserveAspectRatio="none" style="width:668px;height:596px;" version="1.1" viewBox="0 0 668 596" width="668px" zoomAndPan="magnify"><defs><filter height="300%" id="f1gfgllnzh519d" width="300%" x="-1" y="-1"><feGaussianBlur result="blurOut" stdDeviation="2.0"/><feColorMatrix in="blurOut" result="blurOut2" type="matrix" values="0 0 0 0 0 0 0 0 0 0 0 0 0 0 0 0 0 0 .4 0"/><feOffset dx="4.0" dy="4.0" in="blurOut2" result="blurOut3"/><feBlend in="SourceGraphic" in2="blurOut3" mode="normal"/></filter></defs><g><!--cluster Main--><polygon fill="#FFFFFF" filter="url(#f1gfgllnzh519d)" points="22,60,62,60,69,83.6094,646,83.6094,646,584,22,584,22,60" style="stroke: #000000; stroke-width: 1.5;"/><line style="stroke: #000000; stroke-width: 1.5;" x1="22" x2="69" y1="83.6094" y2="83.6094"/><text fill="#000000" font-family="sans-serif" font-size="14" font-weight="bold" lengthAdjust="spacingAndGlyphs" textLength="34" x="26" y="76.5332">Main</text><!--cluster UILayer--><rect fill="#FFFFFF" filter="url(#f1gfgllnzh519d)" height="100" style="stroke: #000000; stroke-width: 1.5;" width="150" x="472" y="104"/><text fill="#000000" font-family="sans-serif" font-size="14" font-weight="bold" lengthAdjust="spacingAndGlyphs" textLength="52" x="521" y="120.5332">UILayer</text><!--cluster AppLayer--><rect fill="#FFFFFF" filter="url(#f1gfgllnzh519d)" height="100" style="stroke: #000000; stroke-width: 1.5;" width="275" x="173" y="104"/><text fill="#000000" font-family="sans-serif" font-size="14" font-weight="bold" lengthAdjust="spacingAndGlyphs" textLength="65" x="278" y="120.5332">AppLayer</text><!--cluster DomainLayer--><rect fill="#FFFFFF" filter="url(#f1gfgllnzh519d)" height="208" style="stroke: #000000; stroke-width: 1.5;" width="299" x="212" y="228"/><text fill="#000000" font-family="sans-serif" font-size="14" font-weight="bold" lengthAdjust="spacingAndGlyphs" textLength="90" x="316.5" y="244.5332">DomainLayer</text><!--cluster InfrastructureLayer--><rect fill="#FFFFFF" filter="url(#f1gfgllnzh519d)" height="100" style="stroke: #000000; stroke-width: 1.5;" width="337" x="262" y="460"/><text fill="#000000" font-family="sans-serif" font-size="14" font-weight="bold" lengthAdjust="spacingAndGlyphs" textLength="135" x="363" y="476.5332">InfrastructureLayer</text><!--class MainAppConfig--><rect fill="#FEFECE" filter="url(#f1gfgllnzh519d)" height="48" id="MainAppConfig" style="stroke: #A80036; stroke-width: 1.5;" width="115" x="38.5" y="140"/><ellipse cx="53.5" cy="156" fill="#ADD1B2" rx="11" ry="11" style="stroke: #A80036; stroke-width: 1.0;"/><path d="M56.2031,161.4375 Q55.2813,162.3594 53.0156,162.3594 Q51.75,162.3594 50.8281,161.4375 Q49.1719,159.7813 49.1719,156.25 Q49.1719,152.1406 50.9531,150.3438 Q51.8906,149.4219 53.0781,149.4219 Q55.3438,149.4219 56.0781,150.1406 Q57.4688,151.5469 57.4063,153.9375 L54.9375,153.9375 Q54.875,151.8125 54.1406,151.0781 Q53.75,150.6719 53.0781,150.6719 Q53.0781,150.6719 53.0156,151.1406 Q51.6875,152.4688 51.6875,156.125 Q51.6875,159.3125 52.8281,160.4375 Q53.3594,160.9688 53.3594,160.9688 Q53.6094,160.9688 54.1406,160.4375 Q54.8125,159.7813 54.875,157.3906 L57.4688,157.3906 Q57.2656,160.375 56.2031,161.4375 Z "/><text fill="#000000" font-family="sans-serif" font-size="12" lengthAdjust="spacingAndGlyphs" textLength="83" x="67.5" y="160.9102">MainAppConfig</text><line style="stroke: #A80036; stroke-width: 1.5;" x1="39.5" x2="152.5" y1="172" y2="172"/><line style="stroke: #A80036; stroke-width: 1.5;" x1="39.5" x2="152.5" y1="180" y2="180"/><!--class MainViewModel--><rect fill="#FEFECE" filter="url(#f1gfgllnzh519d)" height="48" id="MainViewModel" style="stroke: #A80036; stroke-width: 1.5;" width="117" x="488.5" y="140"/><ellipse cx="503.5" cy="156" fill="#ADD1B2" rx="11" ry="11" style="stroke: #A80036; stroke-width: 1.0;"/><path d="M506.2031,161.4375 Q505.2813,162.3594 503.0156,162.3594 Q501.75,162.3594 500.8281,161.4375 Q499.1719,159.7813 499.1719,156.25 Q499.1719,152.1406 500.9531,150.3438 Q501.8906,149.4219 503.0781,149.4219 Q505.3438,149.4219 506.0781,150.1406 Q507.4688,151.5469 507.4063,153.9375 L504.9375,153.9375 Q504.875,151.8125 504.1406,151.0781 Q503.75,150.6719 503.0781,150.6719 Q503.0781,150.6719 503.0156,151.1406 Q501.6875,152.4688 501.6875,156.125 Q501.6875,159.3125 502.8281,160.4375 Q503.3594,160.9688 503.3594,160.9688 Q503.6094,160.9688 504.1406,160.4375 Q504.8125,159.7813 504.875,157.3906 L507.4688,157.3906 Q507.2656,160.375 506.2031,161.4375 Z "/><text fill="#000000" font-family="sans-serif" font-size="12" lengthAdjust="spacingAndGlyphs" textLength="85" x="517.5" y="160.9102">MainViewModel</text><line style="stroke: #A80036; stroke-width: 1.5;" x1="489.5" x2="604.5" y1="172" y2="172"/><line style="stroke: #A80036; stroke-width: 1.5;" x1="489.5" x2="604.5" y1="180" y2="180"/><!--class MainController--><rect fill="#FEFECE" filter="url(#f1gfgllnzh519d)" height="48" id="MainController" style="stroke: #A80036; stroke-width: 1.5;" width="112" x="189" y="140"/><ellipse cx="204" cy="156" fill="#ADD1B2" rx="11" ry="11" style="stroke: #A80036; stroke-width: 1.0;"/><path d="M206.7031,161.4375 Q205.7813,162.3594 203.5156,162.3594 Q202.25,162.3594 201.3281,161.4375 Q199.6719,159.7813 199.6719,156.25 Q199.6719,152.1406 201.4531,150.3438 Q202.3906,149.4219 203.5781,149.4219 Q205.8438,149.4219 206.5781,150.1406 Q207.9688,151.5469 207.9063,153.9375 L205.4375,153.9375 Q205.375,151.8125 204.6406,151.0781 Q204.25,150.6719 203.5781,150.6719 Q203.5781,150.6719 203.5156,151.1406 Q202.1875,152.4688 202.1875,156.125 Q202.1875,159.3125 203.3281,160.4375 Q203.8594,160.9688 203.8594,160.9688 Q204.1094,160.9688 204.6406,160.4375 Q205.3125,159.7813 205.375,157.3906 L207.9688,157.3906 Q207.7656,160.375 206.7031,161.4375 Z "/><text fill="#000000" font-family="sans-serif" font-size="12" lengthAdjust="spacingAndGlyphs" textLength="80" x="218" y="160.9102">MainController</text><line style="stroke: #A80036; stroke-width: 1.5;" x1="190" x2="300" y1="172" y2="172"/><line style="stroke: #A80036; stroke-width: 1.5;" x1="190" x2="300" y1="180" y2="180"/><!--class MainHelper--><rect fill="#FEFECE" filter="url(#f1gfgllnzh519d)" height="48" id="MainHelper" style="stroke: #A80036; stroke-width: 1.5;" width="95" x="336.5" y="140"/><ellipse cx="351.5" cy="156" fill="#ADD1B2" rx="11" ry="11" style="stroke: #A80036; stroke-width: 1.0;"/><path d="M354.2031,161.4375 Q353.2813,162.3594 351.0156,162.3594 Q349.75,162.3594 348.8281,161.4375 Q347.1719,159.7813 347.1719,156.25 Q347.1719,152.1406 348.9531,150.3438 Q349.8906,149.4219 351.0781,149.4219 Q353.3438,149.4219 354.0781,150.1406 Q355.4688,151.5469 355.4063,153.9375 L352.9375,153.9375 Q352.875,151.8125 352.1406,151.0781 Q351.75,150.6719 351.0781,150.6719 Q351.0781,150.6719 351.0156,151.1406 Q349.6875,152.4688 349.6875,156.125 Q349.6875,159.3125 350.8281,160.4375 Q351.3594,160.9688 351.3594,160.9688 Q351.6094,160.9688 352.1406,160.4375 Q352.8125,159.7813 352.875,157.3906 L355.4688,157.3906 Q355.2656,160.375 354.2031,161.4375 Z "/><text fill="#000000" font-family="sans-serif" font-size="12" lengthAdjust="spacingAndGlyphs" textLength="63" x="365.5" y="160.9102">MainHelper</text><line style="stroke: #A80036; stroke-width: 1.5;" x1="337.5" x2="430.5" y1="172" y2="172"/><line style="stroke: #A80036; stroke-width: 1.5;" x1="337.5" x2="430.5" y1="180" y2="180"/><!--class MainServiceIF--><rect fill="#FEFECE" filter="url(#f1gfgllnzh519d)" height="48" id="MainServiceIF" style="stroke: #A80036; stroke-width: 1.5;" width="110" x="228" y="264"/><ellipse cx="243" cy="280" fill="#B4A7E5" rx="11" ry="11" style="stroke: #A80036; stroke-width: 1.0;"/><path d="M243.9844,284.9063 L244.7188,284.9063 L244.7188,286.3594 L240.7188,286.3594 L240.7188,284.9063 L241.4531,284.9063 L241.4531,274.875 L240.7188,274.875 L240.7188,273.4219 L244.7188,273.4219 L244.7188,274.875 L243.9844,274.875 L243.9844,284.9063 Z "/><text fill="#000000" font-family="sans-serif" font-size="12" font-style="italic" lengthAdjust="spacingAndGlyphs" textLength="78" x="257" y="284.9102">MainServiceIF</text><line style="stroke: #A80036; stroke-width: 1.5;" x1="229" x2="337" y1="296" y2="296"/><line style="stroke: #A80036; stroke-width: 1.5;" x1="229" x2="337" y1="304" y2="304"/><!--class MainServiceImpl--><rect fill="#FEFECE" filter="url(#f1gfgllnzh519d)" height="48" id="MainServiceImpl" style="stroke: #A80036; stroke-width: 1.5;" width="122" x="373" y="264"/><ellipse cx="388" cy="280" fill="#ADD1B2" rx="11" ry="11" style="stroke: #A80036; stroke-width: 1.0;"/><path d="M390.7031,285.4375 Q389.7813,286.3594 387.5156,286.3594 Q386.25,286.3594 385.3281,285.4375 Q383.6719,283.7813 383.6719,280.25 Q383.6719,276.1406 385.4531,274.3438 Q386.3906,273.4219 387.5781,273.4219 Q389.8438,273.4219 390.5781,274.1406 Q391.9688,275.5469 391.9063,277.9375 L389.4375,277.9375 Q389.375,275.8125 388.6406,275.0781 Q388.25,274.6719 387.5781,274.6719 Q387.5781,274.6719 387.5156,275.1406 Q386.1875,276.4688 386.1875,280.125 Q386.1875,283.3125 387.3281,284.4375 Q387.8594,284.9688 387.8594,284.9688 Q388.1094,284.9688 388.6406,284.4375 Q389.3125,283.7813 389.375,281.3906 L391.9688,281.3906 Q391.7656,284.375 390.7031,285.4375 Z "/><text fill="#000000" font-family="sans-serif" font-size="12" lengthAdjust="spacingAndGlyphs" textLength="90" x="402" y="284.9102">MainServiceImpl</text><line style="stroke: #A80036; stroke-width: 1.5;" x1="374" x2="494" y1="296" y2="296"/><line style="stroke: #A80036; stroke-width: 1.5;" x1="374" x2="494" y1="304" y2="304"/><!--class MainDomain--><rect fill="#FEFECE" filter="url(#f1gfgllnzh519d)" height="48" id="MainDomain" style="stroke: #A80036; stroke-width: 1.5;" width="102" x="248" y="372"/><ellipse cx="263" cy="388" fill="#ADD1B2" rx="11" ry="11" style="stroke: #A80036; stroke-width: 1.0;"/><path d="M265.7031,393.4375 Q264.7813,394.3594 262.5156,394.3594 Q261.25,394.3594 260.3281,393.4375 Q258.6719,391.7813 258.6719,388.25 Q258.6719,384.1406 260.4531,382.3438 Q261.3906,381.4219 262.5781,381.4219 Q264.8438,381.4219 265.5781,382.1406 Q266.9688,383.5469 266.9063,385.9375 L264.4375,385.9375 Q264.375,383.8125 263.6406,383.0781 Q263.25,382.6719 262.5781,382.6719 Q262.5781,382.6719 262.5156,383.1406 Q261.1875,384.4688 261.1875,388.125 Q261.1875,391.3125 262.3281,392.4375 Q262.8594,392.9688 262.8594,392.9688 Q263.1094,392.9688 263.6406,392.4375 Q264.3125,391.7813 264.375,389.3906 L266.9688,389.3906 Q266.7656,392.375 265.7031,393.4375 Z "/><text fill="#000000" font-family="sans-serif" font-size="12" lengthAdjust="spacingAndGlyphs" textLength="70" x="277" y="392.9102">MainDomain</text><line style="stroke: #A80036; stroke-width: 1.5;" x1="249" x2="349" y1="404" y2="404"/><line style="stroke: #A80036; stroke-width: 1.5;" x1="249" x2="349" y1="412" y2="412"/><!--class MainRepositoryIF--><rect fill="#FEFECE" filter="url(#f1gfgllnzh519d)" height="48" id="MainRepositoryIF" style="stroke: #A80036; stroke-width: 1.5;" width="128" x="278" y="496"/><ellipse cx="293" cy="512" fill="#B4A7E5" rx="11" ry="11" style="stroke: #A80036; stroke-width: 1.0;"/><path d="M293.9844,516.9063 L294.7188,516.9063 L294.7188,518.3594 L290.7188,518.3594 L290.7188,516.9063 L291.4531,516.9063 L291.4531,506.875 L290.7188,506.875 L290.7188,505.4219 L294.7188,505.4219 L294.7188,506.875 L293.9844,506.875 L293.9844,516.9063 Z "/><text fill="#000000" font-family="sans-serif" font-size="12" font-style="italic" lengthAdjust="spacingAndGlyphs" textLength="96" x="307" y="516.9102">MainRepositoryIF</text><line style="stroke: #A80036; stroke-width: 1.5;" x1="279" x2="405" y1="528" y2="528"/><line style="stroke: #A80036; stroke-width: 1.5;" x1="279" x2="405" y1="536" y2="536"/><!--class MainRepositoryImpl--><rect fill="#FEFECE" filter="url(#f1gfgllnzh519d)" height="48" id="MainRepositoryImpl" style="stroke: #A80036; stroke-width: 1.5;" width="141" x="441.5" y="496"/><ellipse cx="456.5" cy="512" fill="#ADD1B2" rx="11" ry="11" style="stroke: #A80036; stroke-width: 1.0;"/><path d="M459.2031,517.4375 Q458.2813,518.3594 456.0156,518.3594 Q454.75,518.3594 453.8281,517.4375 Q452.1719,515.7813 452.1719,512.25 Q452.1719,508.1406 453.9531,506.3438 Q454.8906,505.4219 456.0781,505.4219 Q458.3438,505.4219 459.0781,506.1406 Q460.4688,507.5469 460.4063,509.9375 L457.9375,509.9375 Q457.875,507.8125 457.1406,507.0781 Q456.75,506.6719 456.0781,506.6719 Q456.0781,506.6719 456.0156,507.1406 Q454.6875,508.4688 454.6875,512.125 Q454.6875,515.3125 455.8281,516.4375 Q456.3594,516.9688 456.3594,516.9688 Q456.6094,516.9688 457.1406,516.4375 Q457.8125,515.7813 457.875,513.3906 L460.4688,513.3906 Q460.2656,516.375 459.2031,517.4375 Z "/><text fill="#000000" font-family="sans-serif" font-size="12" lengthAdjust="spacingAndGlyphs" textLength="109" x="470.5" y="516.9102">MainRepositoryImpl</text><line style="stroke: #A80036; stroke-width: 1.5;" x1="442.5" x2="581.5" y1="528" y2="528"/><line style="stroke: #A80036; stroke-width: 1.5;" x1="442.5" x2="581.5" y1="536" y2="536"/><!--link MainViewModel to MainController--><path d="M535.725,139.813 C518.497,106.108 482.097,46.409 430.5,22 C392.735,4.135 373.18,2 336.5,22 C292.693,45.886 266.7,100.741 254.191,134.852 " fill="none" id="MainViewModel-MainController" style="stroke: #A80036; stroke-width: 1.0;"/><polygon fill="#A80036" points="252.443,139.728,259.2451,132.6054,254.13,135.0212,251.7142,129.9061,252.443,139.728" style="stroke: #A80036; stroke-width: 1.0;"/><!--link MainController to MainHelper--><path d="M301.197,164 C311.205,164 321.212,164 331.22,164 " fill="none" id="MainController-MainHelper" style="stroke: #A80036; stroke-width: 1.0;"/><polygon fill="#A80036" points="336.453,164,327.453,160,331.453,164,327.453,168,336.453,164" style="stroke: #A80036; stroke-width: 1.0;"/><!--link MainHelper to MainServiceIF--><path d="M364.765,188.234 C347.846,208.671 323.209,238.431 305.405,259.937 " fill="none" id="MainHelper-MainServiceIF" style="stroke: #A80036; stroke-width: 1.0;"/><polygon fill="#A80036" points="302.163,263.852,310.9835,259.4703,305.3515,260.0006,304.8213,254.3687,302.163,263.852" style="stroke: #A80036; stroke-width: 1.0;"/><!--link MainController to MainServiceIF--><path d="M252.237,188.234 C258.497,208.332 267.565,237.446 274.235,258.859 " fill="none" id="MainController-MainServiceIF" style="stroke: #A80036; stroke-width: 1.0;"/><polygon fill="#A80036" points="275.79,263.852,276.9324,254.0696,274.303,259.0782,269.2944,256.4488,275.79,263.852" style="stroke: #A80036; stroke-width: 1.0;"/><!--link MainServiceIF to MainDomain--><path d="M286.472,312 C289.137,329.658 292.802,353.941 295.48,371.678 " fill="none" id="MainServiceIF-MainDomain" style="stroke: #A80036; stroke-width: 1.0; stroke-dasharray: 7.0,7.0;"/><!--link MainServiceIF to MainServiceImpl--><path d="M358.281,288 C363.178,288 368.074,288 372.971,288 " fill="none" id="MainServiceIF-MainServiceImpl" style="stroke: #A80036; stroke-width: 1.0;"/><polygon fill="none" points="358.15,295,338.15,288,358.15,281,358.15,295" style="stroke: #A80036; stroke-width: 1.0;"/><!--link MainDomain to MainRepositoryIF--><path d="M307.189,420.234 C314.841,441.943 326.2,474.172 333.841,495.852 " fill="none" id="MainDomain-MainRepositoryIF" style="stroke: #A80036; stroke-width: 1.0; stroke-dasharray: 7.0,7.0;"/><!--link MainServiceImpl to MainRepositoryIF--><path d="M424.672,312.319 C407.615,354.963 371.467,445.332 353.146,491.136 " fill="none" id="MainServiceImpl-MainRepositoryIF" style="stroke: #A80036; stroke-width: 1.0;"/><polygon fill="#A80036" points="351.216,495.961,358.2713,489.0891,353.0722,491.3183,350.843,486.1192,351.216,495.961" style="stroke: #A80036; stroke-width: 1.0;"/><!--link MainRepositoryIF to MainRepositoryImpl--><path d="M426.139,520 C431.176,520 436.213,520 441.25,520 " fill="none" id="MainRepositoryIF-MainRepositoryImpl" style="stroke: #A80036; stroke-width: 1.0;"/><polygon fill="none" points="426.082,526.9999,406.082,520,426.082,512.9999,426.082,526.9999" style="stroke: #A80036; stroke-width: 1.0;"/><!--
@startuml
Package Main {
    package UILayer <<Rectangle>>{
        class MainViewModel
    }
    package AppLayer <<Rectangle>>{
        class MainController
        class MainHelper
        MainController <-right- MainViewModel
        MainController -right-> MainHelper
    }
    package DomainLayer <<Rectangle>>{
        interface MainServiceIF
        class MainServiceImpl
        class MainDomain
        MainHelper -down-> MainServiceIF
        MainController -down-> MainServiceIF
        MainServiceIF .down. MainDomain
        MainServiceIF <|-right- MainServiceImpl
    }
	class MainAppConfig
	
    package InfrastructureLayer <<Rectangle>>{
        interface MainRepositoryIF
        class MainRepositoryImpl
        MainDomain .down. MainRepositoryIF
        MainServiceImpl -down-> MainRepositoryIF
        MainRepositoryIF <|-right- MainRepositoryImpl
    }
}
@enduml

PlantUML version 1.2019.06(Sat May 25 02:10:25 JST 2019)
(GPL source distribution)
Java Runtime: Java(TM) SE Runtime Environment
JVM: Java HotSpot(TM) 64-Bit Server VM
Java Version: 1.8.0_231-b11
Operating System: Windows 10
OS Version: 10.0
Default Encoding: MS932
Language: ja
Country: JP
--></g></svg>