<?xml version="1.0" encoding="UTF-8" standalone="no"?><svg xmlns="http://www.w3.org/2000/svg" xmlns:xlink="http://www.w3.org/1999/xlink" contentScriptType="application/ecmascript" contentStyleType="text/css" height="175px" preserveAspectRatio="none" style="width:452px;height:175px;" version="1.1" viewBox="0 0 452 175" width="452px" zoomAndPan="magnify"><defs><filter height="300%" id="fj4c0skifupg4" width="300%" x="-1" y="-1"><feGaussianBlur result="blurOut" stdDeviation="2.0"/><feColorMatrix in="blurOut" result="blurOut2" type="matrix" values="0 0 0 0 0 0 0 0 0 0 0 0 0 0 0 0 0 0 .4 0"/><feOffset dx="4.0" dy="4.0" in="blurOut2" result="blurOut3"/><feBlend in="SourceGraphic" in2="blurOut3" mode="normal"/></filter></defs><g><!--class apps--><rect fill="#FEFECE" filter="url(#fj4c0skifupg4)" height="48" id="apps" style="stroke: #A80036; stroke-width: 1.5;" width="60" x="15" y="8"/><ellipse cx="30" cy="24" fill="#ADD1B2" rx="11" ry="11" style="stroke: #A80036; stroke-width: 1.0;"/><path d="M33.6875,25.2031 Q33.4375,28.6875 32.2969,29.8438 Q31.2656,30.8594 29.8594,30.8594 Q28.4531,30.8594 27.4219,29.8438 Q25.6719,28.0781 25.6719,24.4063 Q25.6719,20.1563 27.5469,18.25 Q28.5938,17.2344 29.9219,17.2344 Q31.3281,17.2344 32.1719,18.0469 Q33.6563,19.5625 33.5781,22.4375 L31.4531,22.4375 Q31.375,20.1094 30.7344,19.4688 Q30.4531,19.1719 29.9219,19.1719 Q29.4688,19.1719 29.1094,19.5469 Q27.875,20.7656 27.875,24.2813 Q27.875,27.3281 28.9219,28.3438 Q29.3438,28.7813 29.8594,28.7813 Q30.3125,28.7813 30.75,28.3438 Q31.3125,27.7969 31.3906,25.2031 L33.6875,25.2031 Z "/><text fill="#000000" font-family="sans-serif" font-size="12" lengthAdjust="spacingAndGlyphs" textLength="28" x="44" y="28.9102">apps</text><line style="stroke: #A80036; stroke-width: 1.5;" x1="16" x2="74" y1="40" y2="40"/><line style="stroke: #A80036; stroke-width: 1.5;" x1="16" x2="74" y1="48" y2="48"/><!--class userapp--><rect fill="#FEFECE" filter="url(#fj4c0skifupg4)" height="48" id="userapp" style="stroke: #A80036; stroke-width: 1.5;" width="78" x="6" y="116"/><ellipse cx="21" cy="132" fill="#ADD1B2" rx="11" ry="11" style="stroke: #A80036; stroke-width: 1.0;"/><path d="M24.6875,133.2031 Q24.4375,136.6875 23.2969,137.8438 Q22.2656,138.8594 20.8594,138.8594 Q19.4531,138.8594 18.4219,137.8438 Q16.6719,136.0781 16.6719,132.4063 Q16.6719,128.1563 18.5469,126.25 Q19.5938,125.2344 20.9219,125.2344 Q22.3281,125.2344 23.1719,126.0469 Q24.6563,127.5625 24.5781,130.4375 L22.4531,130.4375 Q22.375,128.1094 21.7344,127.4688 Q21.4531,127.1719 20.9219,127.1719 Q20.4688,127.1719 20.1094,127.5469 Q18.875,128.7656 18.875,132.2813 Q18.875,135.3281 19.9219,136.3438 Q20.3438,136.7813 20.8594,136.7813 Q21.3125,136.7813 21.75,136.3438 Q22.3125,135.7969 22.3906,133.2031 L24.6875,133.2031 Z "/><text fill="#000000" font-family="sans-serif" font-size="12" lengthAdjust="spacingAndGlyphs" textLength="46" x="35" y="136.9102">userapp</text><line style="stroke: #A80036; stroke-width: 1.5;" x1="7" x2="83" y1="148" y2="148"/><line style="stroke: #A80036; stroke-width: 1.5;" x1="7" x2="83" y1="156" y2="156"/><!--class users--><rect fill="#FEFECE" filter="url(#fj4c0skifupg4)" height="48" id="users" style="stroke: #A80036; stroke-width: 1.5;" width="64" x="233" y="8"/><ellipse cx="248" cy="24" fill="#ADD1B2" rx="11" ry="11" style="stroke: #A80036; stroke-width: 1.0;"/><path d="M251.6875,25.2031 Q251.4375,28.6875 250.2969,29.8438 Q249.2656,30.8594 247.8594,30.8594 Q246.4531,30.8594 245.4219,29.8438 Q243.6719,28.0781 243.6719,24.4063 Q243.6719,20.1563 245.5469,18.25 Q246.5938,17.2344 247.9219,17.2344 Q249.3281,17.2344 250.1719,18.0469 Q251.6563,19.5625 251.5781,22.4375 L249.4531,22.4375 Q249.375,20.1094 248.7344,19.4688 Q248.4531,19.1719 247.9219,19.1719 Q247.4688,19.1719 247.1094,19.5469 Q245.875,20.7656 245.875,24.2813 Q245.875,27.3281 246.9219,28.3438 Q247.3438,28.7813 247.8594,28.7813 Q248.3125,28.7813 248.75,28.3438 Q249.3125,27.7969 249.3906,25.2031 L251.6875,25.2031 Z "/><text fill="#000000" font-family="sans-serif" font-size="12" lengthAdjust="spacingAndGlyphs" textLength="32" x="262" y="28.9102">users</text><line style="stroke: #A80036; stroke-width: 1.5;" x1="234" x2="296" y1="40" y2="40"/><line style="stroke: #A80036; stroke-width: 1.5;" x1="234" x2="296" y1="48" y2="48"/><!--class tags--><rect fill="#FEFECE" filter="url(#fj4c0skifupg4)" height="48" id="tags" style="stroke: #A80036; stroke-width: 1.5;" width="56" x="128" y="8"/><ellipse cx="143" cy="24" fill="#ADD1B2" rx="11" ry="11" style="stroke: #A80036; stroke-width: 1.0;"/><path d="M146.6875,25.2031 Q146.4375,28.6875 145.2969,29.8438 Q144.2656,30.8594 142.8594,30.8594 Q141.4531,30.8594 140.4219,29.8438 Q138.6719,28.0781 138.6719,24.4063 Q138.6719,20.1563 140.5469,18.25 Q141.5938,17.2344 142.9219,17.2344 Q144.3281,17.2344 145.1719,18.0469 Q146.6563,19.5625 146.5781,22.4375 L144.4531,22.4375 Q144.375,20.1094 143.7344,19.4688 Q143.4531,19.1719 142.9219,19.1719 Q142.4688,19.1719 142.1094,19.5469 Q140.875,20.7656 140.875,24.2813 Q140.875,27.3281 141.9219,28.3438 Q142.3438,28.7813 142.8594,28.7813 Q143.3125,28.7813 143.75,28.3438 Q144.3125,27.7969 144.3906,25.2031 L146.6875,25.2031 Z "/><text fill="#000000" font-family="sans-serif" font-size="12" lengthAdjust="spacingAndGlyphs" textLength="24" x="157" y="28.9102">tags</text><line style="stroke: #A80036; stroke-width: 1.5;" x1="129" x2="183" y1="40" y2="40"/><line style="stroke: #A80036; stroke-width: 1.5;" x1="129" x2="183" y1="48" y2="48"/><!--class usertag--><rect fill="#FEFECE" filter="url(#fj4c0skifupg4)" height="48" id="usertag" style="stroke: #A80036; stroke-width: 1.5;" width="74" x="119" y="116"/><ellipse cx="134" cy="132" fill="#ADD1B2" rx="11" ry="11" style="stroke: #A80036; stroke-width: 1.0;"/><path d="M137.6875,133.2031 Q137.4375,136.6875 136.2969,137.8438 Q135.2656,138.8594 133.8594,138.8594 Q132.4531,138.8594 131.4219,137.8438 Q129.6719,136.0781 129.6719,132.4063 Q129.6719,128.1563 131.5469,126.25 Q132.5938,125.2344 133.9219,125.2344 Q135.3281,125.2344 136.1719,126.0469 Q137.6563,127.5625 137.5781,130.4375 L135.4531,130.4375 Q135.375,128.1094 134.7344,127.4688 Q134.4531,127.1719 133.9219,127.1719 Q133.4688,127.1719 133.1094,127.5469 Q131.875,128.7656 131.875,132.2813 Q131.875,135.3281 132.9219,136.3438 Q133.3438,136.7813 133.8594,136.7813 Q134.3125,136.7813 134.75,136.3438 Q135.3125,135.7969 135.3906,133.2031 L137.6875,133.2031 Z "/><text fill="#000000" font-family="sans-serif" font-size="12" lengthAdjust="spacingAndGlyphs" textLength="42" x="148" y="136.9102">usertag</text><line style="stroke: #A80036; stroke-width: 1.5;" x1="120" x2="192" y1="148" y2="148"/><line style="stroke: #A80036; stroke-width: 1.5;" x1="120" x2="192" y1="156" y2="156"/><!--class nortifications--><rect fill="#FEFECE" filter="url(#fj4c0skifupg4)" height="48" id="nortifications" style="stroke: #A80036; stroke-width: 1.5;" width="102" x="228" y="116"/><ellipse cx="243" cy="132" fill="#ADD1B2" rx="11" ry="11" style="stroke: #A80036; stroke-width: 1.0;"/><path d="M246.6875,133.2031 Q246.4375,136.6875 245.2969,137.8438 Q244.2656,138.8594 242.8594,138.8594 Q241.4531,138.8594 240.4219,137.8438 Q238.6719,136.0781 238.6719,132.4063 Q238.6719,128.1563 240.5469,126.25 Q241.5938,125.2344 242.9219,125.2344 Q244.3281,125.2344 245.1719,126.0469 Q246.6563,127.5625 246.5781,130.4375 L244.4531,130.4375 Q244.375,128.1094 243.7344,127.4688 Q243.4531,127.1719 242.9219,127.1719 Q242.4688,127.1719 242.1094,127.5469 Q240.875,128.7656 240.875,132.2813 Q240.875,135.3281 241.9219,136.3438 Q242.3438,136.7813 242.8594,136.7813 Q243.3125,136.7813 243.75,136.3438 Q244.3125,135.7969 244.3906,133.2031 L246.6875,133.2031 Z "/><text fill="#000000" font-family="sans-serif" font-size="12" lengthAdjust="spacingAndGlyphs" textLength="70" x="257" y="136.9102">nortifications</text><line style="stroke: #A80036; stroke-width: 1.5;" x1="229" x2="329" y1="148" y2="148"/><line style="stroke: #A80036; stroke-width: 1.5;" x1="229" x2="329" y1="156" y2="156"/><!--class settings--><rect fill="#FEFECE" filter="url(#fj4c0skifupg4)" height="48" id="settings" style="stroke: #A80036; stroke-width: 1.5;" width="76" x="365" y="116"/><ellipse cx="380" cy="132" fill="#ADD1B2" rx="11" ry="11" style="stroke: #A80036; stroke-width: 1.0;"/><path d="M383.6875,133.2031 Q383.4375,136.6875 382.2969,137.8438 Q381.2656,138.8594 379.8594,138.8594 Q378.4531,138.8594 377.4219,137.8438 Q375.6719,136.0781 375.6719,132.4063 Q375.6719,128.1563 377.5469,126.25 Q378.5938,125.2344 379.9219,125.2344 Q381.3281,125.2344 382.1719,126.0469 Q383.6563,127.5625 383.5781,130.4375 L381.4531,130.4375 Q381.375,128.1094 380.7344,127.4688 Q380.4531,127.1719 379.9219,127.1719 Q379.4688,127.1719 379.1094,127.5469 Q377.875,128.7656 377.875,132.2813 Q377.875,135.3281 378.9219,136.3438 Q379.3438,136.7813 379.8594,136.7813 Q380.3125,136.7813 380.75,136.3438 Q381.3125,135.7969 381.3906,133.2031 L383.6875,133.2031 Z "/><text fill="#000000" font-family="sans-serif" font-size="12" lengthAdjust="spacingAndGlyphs" textLength="44" x="394" y="136.9102">settings</text><line style="stroke: #A80036; stroke-width: 1.5;" x1="366" x2="440" y1="148" y2="148"/><line style="stroke: #A80036; stroke-width: 1.5;" x1="366" x2="440" y1="156" y2="156"/><!--link apps to userapp--><path d="M45,64.2585 C45,77.8932 45,93.8501 45,107.5107 " fill="none" id="apps-userapp" style="stroke: #A80036; stroke-width: 1.0;"/><line style="stroke: #A80036; stroke-width: 1.0;" x1="45" x2="51" y1="107.6784" y2="115.6784"/><line style="stroke: #A80036; stroke-width: 1.0;" x1="45" x2="39" y1="107.6784" y2="115.6784"/><line style="stroke: #A80036; stroke-width: 1.0;" x1="45" x2="45" y1="107.6784" y2="115.6784"/><ellipse cx="45" cy="101.6784" fill="none" rx="4" ry="4" style="stroke: #A80036; stroke-width: 1.0;"/><line style="stroke: #A80036; stroke-width: 1.0;" x1="41" x2="49" y1="60" y2="60"/><line style="stroke: #A80036; stroke-width: 1.0;" x1="41" x2="49" y1="63" y2="63"/><line style="stroke: #A80036; stroke-width: 1.0;" x1="45" x2="45" y1="64" y2="56"/><!--link users to userapp--><path d="M224.838,52.351 C187.374,70.4016 131.48,97.3323 91.9661,116.3709 " fill="none" id="users-userapp" style="stroke: #A80036; stroke-width: 1.0;"/><line style="stroke: #A80036; stroke-width: 1.0;" x1="91.4989" x2="86.8963" y1="116.5959" y2="125.4737"/><line style="stroke: #A80036; stroke-width: 1.0;" x1="91.4989" x2="81.6875" y1="116.5959" y2="114.6631"/><line style="stroke: #A80036; stroke-width: 1.0;" x1="91.4989" x2="84.2919" y1="116.5959" y2="120.0684"/><ellipse cx="96.9042" cy="113.9915" fill="none" rx="4" ry="4" style="stroke: #A80036; stroke-width: 1.0;"/><line style="stroke: #A80036; stroke-width: 1.0;" x1="227.1982" x2="230.6709" y1="46.7739" y2="53.9808"/><line style="stroke: #A80036; stroke-width: 1.0;" x1="224.4956" x2="227.9683" y1="48.0762" y2="55.2831"/><line style="stroke: #A80036; stroke-width: 1.0;" x1="225.3311" x2="232.538" y1="52.1138" y2="48.641"/><!--link tags to usertag--><path d="M156,64.2585 C156,77.8932 156,93.8501 156,107.5107 " fill="none" id="tags-usertag" style="stroke: #A80036; stroke-width: 1.0;"/><line style="stroke: #A80036; stroke-width: 1.0;" x1="156" x2="162" y1="107.6784" y2="115.6784"/><line style="stroke: #A80036; stroke-width: 1.0;" x1="156" x2="150" y1="107.6784" y2="115.6784"/><line style="stroke: #A80036; stroke-width: 1.0;" x1="156" x2="156" y1="107.6784" y2="115.6784"/><ellipse cx="156" cy="101.6784" fill="none" rx="4" ry="4" style="stroke: #A80036; stroke-width: 1.0;"/><line style="stroke: #A80036; stroke-width: 1.0;" x1="152" x2="160" y1="60" y2="60"/><line style="stroke: #A80036; stroke-width: 1.0;" x1="152" x2="160" y1="63" y2="63"/><line style="stroke: #A80036; stroke-width: 1.0;" x1="156" x2="156" y1="64" y2="56"/><!--link users to usertag--><path d="M235.164,62.015 C219.843,76.9141 201.227,95.018 185.897,109.9257 " fill="none" id="users-usertag" style="stroke: #A80036; stroke-width: 1.0;"/><line style="stroke: #A80036; stroke-width: 1.0;" x1="185.7174" x2="184.1649" y1="110.1012" y2="119.9799"/><line style="stroke: #A80036; stroke-width: 1.0;" x1="185.7174" x2="175.7991" y1="110.1012" y2="111.3769"/><line style="stroke: #A80036; stroke-width: 1.0;" x1="185.7174" x2="179.982" y1="110.1012" y2="115.6784"/><ellipse cx="190.0189" cy="105.9182" fill="none" rx="4" ry="4" style="stroke: #A80036; stroke-width: 1.0;"/><line style="stroke: #A80036; stroke-width: 1.0;" x1="235.6927" x2="241.2697" y1="55.9207" y2="61.6563"/><line style="stroke: #A80036; stroke-width: 1.0;" x1="233.5419" x2="239.1189" y1="58.0121" y2="63.7477"/><line style="stroke: #A80036; stroke-width: 1.0;" x1="235.6134" x2="241.349" y1="61.577" y2="56"/><!--link users to nortifications--><path d="M269.128,64.2585 C270.929,77.8932 273.037,93.8501 274.841,107.5107 " fill="none" id="users-nortifications" style="stroke: #A80036; stroke-width: 1.0;"/><line style="stroke: #A80036; stroke-width: 1.0;" x1="274.8723" x2="281.8683" y1="107.7473" y2="114.8926"/><line style="stroke: #A80036; stroke-width: 1.0;" x1="274.8723" x2="269.9717" y1="107.7473" y2="116.4642"/><line style="stroke: #A80036; stroke-width: 1.0;" x1="274.8723" x2="275.92" y1="107.7473" y2="115.6784"/><ellipse cx="274.0866" cy="101.799" fill="none" rx="4" ry="4" style="stroke: #A80036; stroke-width: 1.0;"/><line style="stroke: #A80036; stroke-width: 1.0;" x1="264.5961" x2="272.5273" y1="60.4893" y2="59.4419"/><line style="stroke: #A80036; stroke-width: 1.0;" x1="264.9889" x2="272.92" y1="63.4634" y2="62.4161"/><line style="stroke: #A80036; stroke-width: 1.0;" x1="269.0854" x2="268.038" y1="63.9311" y2="56"/><!--link users to settings--><path d="M301.337,60.911 C321.376,76.303 346.193,95.3654 366.291,110.8029 " fill="none" id="users-settings" style="stroke: #A80036; stroke-width: 1.0;"/><line style="stroke: #A80036; stroke-width: 1.0;" x1="366.2934" x2="376.2927" y1="110.8054" y2="110.9199"/><line style="stroke: #A80036; stroke-width: 1.0;" x1="366.2934" x2="368.9833" y1="110.8054" y2="120.4369"/><line style="stroke: #A80036; stroke-width: 1.0;" x1="366.2934" x2="372.638" y1="110.8054" y2="115.6784"/><ellipse cx="361.5349" cy="107.1507" fill="none" rx="4" ry="4" style="stroke: #A80036; stroke-width: 1.0;"/><line style="stroke: #A80036; stroke-width: 1.0;" x1="295.6797" x2="300.5528" y1="61.6088" y2="55.2643"/><line style="stroke: #A80036; stroke-width: 1.0;" x1="298.059" x2="302.932" y1="63.4362" y2="57.0917"/><line style="stroke: #A80036; stroke-width: 1.0;" x1="301.2885" x2="294.944" y1="60.8731" y2="56"/><!--
@startuml
apps ||- -o{ userapp
users ||- -o{ userapp
tags  ||- -o{ usertag
users  ||- -o{ usertag
users  ||- -o{ nortifications
users  ||- -o{ settings
@enduml

PlantUML version 1.2019.06(Sat May 25 02:10:25 JST 2019)
(GPL source distribution)
Java Runtime: OpenJDK Runtime Environment
JVM: OpenJDK 64-Bit Server VM
Java Version: 14.0.1+7
Operating System: Windows 10
OS Version: 10.0
Default Encoding: MS932
Language: ja
Country: JP
--></g></svg>