<?xml version="1.0" encoding="UTF-8" standalone="no"?><svg xmlns="http://www.w3.org/2000/svg" xmlns:xlink="http://www.w3.org/1999/xlink" contentScriptType="application/ecmascript" contentStyleType="text/css" height="524px" preserveAspectRatio="none" style="width:1148px;height:524px;" version="1.1" viewBox="0 0 1148 524" width="1148px" zoomAndPan="magnify"><defs><filter height="300%" id="f1sc4651iht2qa" width="300%" x="-1" y="-1"><feGaussianBlur result="blurOut" stdDeviation="2.0"/><feColorMatrix in="blurOut" result="blurOut2" type="matrix" values="0 0 0 0 0 0 0 0 0 0 0 0 0 0 0 0 0 0 .4 0"/><feOffset dx="4.0" dy="4.0" in="blurOut2" result="blurOut3"/><feBlend in="SourceGraphic" in2="blurOut3" mode="normal"/></filter></defs><g><!--cluster 共通--><polygon fill="#FFFFFF" filter="url(#f1sc4651iht2qa)" points="22,24,56,24,63,47.6094,1010,47.6094,1010,512,22,512,22,24" style="stroke: #000000; stroke-width: 1.5;"/><line style="stroke: #000000; stroke-width: 1.5;" x1="22" x2="63" y1="47.6094" y2="47.6094"/><text fill="#000000" font-family="sans-serif" font-size="14" font-weight="bold" lengthAdjust="spacingAndGlyphs" textLength="28" x="26" y="40.5332">共通</text><!--entity ヘッダー--><rect fill="#FEFECE" filter="url(#f1sc4651iht2qa)" height="37.6094" style="stroke: #A80036; stroke-width: 1.5;" width="76" x="65" y="60"/><text fill="#000000" font-family="sans-serif" font-size="14" lengthAdjust="spacingAndGlyphs" textLength="56" x="75" y="84.5332">ヘッダー</text><!--entity フッター--><rect fill="#FEFECE" filter="url(#f1sc4651iht2qa)" height="37.6094" style="stroke: #A80036; stroke-width: 1.5;" width="76" x="176" y="60"/><text fill="#000000" font-family="sans-serif" font-size="14" lengthAdjust="spacingAndGlyphs" textLength="56" x="186" y="84.5332">フッター</text><!--entity ユーザー詳細(マイページ)--><rect fill="#FEFECE" filter="url(#f1sc4651iht2qa)" height="37.6094" style="stroke: #A80036; stroke-width: 1.5;" width="184" x="287" y="60"/><text fill="#000000" font-family="sans-serif" font-size="14" lengthAdjust="spacingAndGlyphs" textLength="164" x="297" y="84.5332">ユーザー詳細(マイページ)</text><!--entity 通知詳細--><rect fill="#FEFECE" filter="url(#f1sc4651iht2qa)" height="37.6094" style="stroke: #A80036; stroke-width: 1.5;" width="76" x="506" y="60"/><text fill="#000000" font-family="sans-serif" font-size="14" lengthAdjust="spacingAndGlyphs" textLength="56" x="516" y="84.5332">通知詳細</text><!--entity 設定一覧--><rect fill="#FEFECE" filter="url(#f1sc4651iht2qa)" height="37.6094" style="stroke: #A80036; stroke-width: 1.5;" width="76" x="617" y="60"/><text fill="#000000" font-family="sans-serif" font-size="14" lengthAdjust="spacingAndGlyphs" textLength="56" x="627" y="84.5332">設定一覧</text><!--entity About--><rect fill="#FEFECE" filter="url(#f1sc4651iht2qa)" height="37.6094" style="stroke: #A80036; stroke-width: 1.5;" width="57" x="74.5" y="168"/><text fill="#000000" font-family="sans-serif" font-size="14" lengthAdjust="spacingAndGlyphs" textLength="37" x="84.5" y="192.5332">About</text><!--entity ヘルプ--><rect fill="#FEFECE" filter="url(#f1sc4651iht2qa)" height="37.6094" style="stroke: #A80036; stroke-width: 1.5;" width="62" x="167" y="168"/><text fill="#000000" font-family="sans-serif" font-size="14" lengthAdjust="spacingAndGlyphs" textLength="42" x="177" y="192.5332">ヘルプ</text><!--entity 利用規約--><rect fill="#FEFECE" filter="url(#f1sc4651iht2qa)" height="37.6094" style="stroke: #A80036; stroke-width: 1.5;" width="76" x="264" y="168"/><text fill="#000000" font-family="sans-serif" font-size="14" lengthAdjust="spacingAndGlyphs" textLength="56" x="274" y="192.5332">利用規約</text><!--entity プライバシー--><rect fill="#FEFECE" filter="url(#f1sc4651iht2qa)" height="37.6094" style="stroke: #A80036; stroke-width: 1.5;" width="104" x="375" y="168"/><text fill="#000000" font-family="sans-serif" font-size="14" lengthAdjust="spacingAndGlyphs" textLength="84" x="385" y="192.5332">プライバシー</text><!--entity 意見ページ--><rect fill="#FEFECE" filter="url(#f1sc4651iht2qa)" height="37.6094" style="stroke: #A80036; stroke-width: 1.5;" width="90" x="514" y="168"/><text fill="#000000" font-family="sans-serif" font-size="14" lengthAdjust="spacingAndGlyphs" textLength="70" x="524" y="192.5332">意見ページ</text><!--entity ヘッダー" - -> "About--><ellipse cx="103" cy="276" fill="#FEFECE" filter="url(#f1sc4651iht2qa)" rx="8" ry="8" style="stroke: #A80036; stroke-width: 2.0;"/><path d="M103,284 L103,311 M90,292 L116,292 M103,311 L90,326 M103,311 L116,326 " fill="none" filter="url(#f1sc4651iht2qa)" style="stroke: #A80036; stroke-width: 2.0;"/><text fill="#000000" font-family="sans-serif" font-size="14" lengthAdjust="spacingAndGlyphs" textLength="129" x="38.5" y="347.5332">ヘッダー" --&gt; "About</text><!--entity ヘッダー" - -> "ユーザー詳細(マイページ)--><ellipse cx="331" cy="276" fill="#FEFECE" filter="url(#f1sc4651iht2qa)" rx="8" ry="8" style="stroke: #A80036; stroke-width: 2.0;"/><path d="M331,284 L331,311 M318,292 L344,292 M331,311 L318,326 M331,311 L344,326 " fill="none" filter="url(#f1sc4651iht2qa)" style="stroke: #A80036; stroke-width: 2.0;"/><text fill="#000000" font-family="sans-serif" font-size="14" lengthAdjust="spacingAndGlyphs" textLength="256" x="203" y="347.5332">ヘッダー" --&gt; "ユーザー詳細(マイページ)</text><!--entity ヘッダー" - -> "通知詳細--><ellipse cx="568" cy="276" fill="#FEFECE" filter="url(#f1sc4651iht2qa)" rx="8" ry="8" style="stroke: #A80036; stroke-width: 2.0;"/><path d="M568,284 L568,311 M555,292 L581,292 M568,311 L555,326 M568,311 L581,326 " fill="none" filter="url(#f1sc4651iht2qa)" style="stroke: #A80036; stroke-width: 2.0;"/><text fill="#000000" font-family="sans-serif" font-size="14" lengthAdjust="spacingAndGlyphs" textLength="148" x="494" y="347.5332">ヘッダー" --&gt; "通知詳細</text><!--entity ヘッダー" - -> "設定一覧--><ellipse cx="751" cy="276" fill="#FEFECE" filter="url(#f1sc4651iht2qa)" rx="8" ry="8" style="stroke: #A80036; stroke-width: 2.0;"/><path d="M751,284 L751,311 M738,292 L764,292 M751,311 L738,326 M751,311 L764,326 " fill="none" filter="url(#f1sc4651iht2qa)" style="stroke: #A80036; stroke-width: 2.0;"/><text fill="#000000" font-family="sans-serif" font-size="14" lengthAdjust="spacingAndGlyphs" textLength="148" x="677" y="347.5332">ヘッダー" --&gt; "設定一覧</text><!--entity ヘッダー" - -> "ヘルプ--><ellipse cx="927" cy="276" fill="#FEFECE" filter="url(#f1sc4651iht2qa)" rx="8" ry="8" style="stroke: #A80036; stroke-width: 2.0;"/><path d="M927,284 L927,311 M914,292 L940,292 M927,311 L914,326 M927,311 L940,326 " fill="none" filter="url(#f1sc4651iht2qa)" style="stroke: #A80036; stroke-width: 2.0;"/><text fill="#000000" font-family="sans-serif" font-size="14" lengthAdjust="spacingAndGlyphs" textLength="134" x="860" y="347.5332">ヘッダー" --&gt; "ヘルプ</text><!--entity フッター" - -> "ヘルプ--><ellipse cx="105" cy="421" fill="#FEFECE" filter="url(#f1sc4651iht2qa)" rx="8" ry="8" style="stroke: #A80036; stroke-width: 2.0;"/><path d="M105,429 L105,456 M92,437 L118,437 M105,456 L92,471 M105,456 L118,471 " fill="none" filter="url(#f1sc4651iht2qa)" style="stroke: #A80036; stroke-width: 2.0;"/><text fill="#000000" font-family="sans-serif" font-size="14" lengthAdjust="spacingAndGlyphs" textLength="134" x="38" y="492.5332">フッター" --&gt; "ヘルプ</text><!--entity フッター" - -> "利用規約--><ellipse cx="281" cy="421" fill="#FEFECE" filter="url(#f1sc4651iht2qa)" rx="8" ry="8" style="stroke: #A80036; stroke-width: 2.0;"/><path d="M281,429 L281,456 M268,437 L294,437 M281,456 L268,471 M281,456 L294,471 " fill="none" filter="url(#f1sc4651iht2qa)" style="stroke: #A80036; stroke-width: 2.0;"/><text fill="#000000" font-family="sans-serif" font-size="14" lengthAdjust="spacingAndGlyphs" textLength="148" x="207" y="492.5332">フッター" --&gt; "利用規約</text><!--entity フッター" - -> "プライバシー--><ellipse cx="478" cy="421" fill="#FEFECE" filter="url(#f1sc4651iht2qa)" rx="8" ry="8" style="stroke: #A80036; stroke-width: 2.0;"/><path d="M478,429 L478,456 M465,437 L491,437 M478,456 L465,471 M478,456 L491,471 " fill="none" filter="url(#f1sc4651iht2qa)" style="stroke: #A80036; stroke-width: 2.0;"/><text fill="#000000" font-family="sans-serif" font-size="14" lengthAdjust="spacingAndGlyphs" textLength="176" x="390" y="492.5332">フッター" --&gt; "プライバシー</text><!--entity フッター" - -> "意見ページ--><ellipse cx="682" cy="421" fill="#FEFECE" filter="url(#f1sc4651iht2qa)" rx="8" ry="8" style="stroke: #A80036; stroke-width: 2.0;"/><path d="M682,429 L682,456 M669,437 L695,437 M682,456 L669,471 M682,456 L695,471 " fill="none" filter="url(#f1sc4651iht2qa)" style="stroke: #A80036; stroke-width: 2.0;"/><text fill="#000000" font-family="sans-serif" font-size="14" lengthAdjust="spacingAndGlyphs" textLength="162" x="601" y="492.5332">フッター" --&gt; "意見ページ</text><!--entity content--><polygon fill="#FFFFFF" filter="url(#f1sc4651iht2qa)" points="1026,50,1079,50,1086,73.6094,1126,73.6094,1126,108.2188,1026,108.2188,1026,50" style="stroke: #000000; stroke-width: 1.5;"/><line style="stroke: #000000; stroke-width: 1.5;" x1="1026" x2="1086" y1="73.6094" y2="73.6094"/><text fill="#000000" font-family="sans-serif" font-size="14" lengthAdjust="spacingAndGlyphs" textLength="47" x="1030" y="67.5332">content</text><text fill="#000000" font-family="sans-serif" font-size="14" lengthAdjust="spacingAndGlyphs" textLength="70" x="1036" y="95.1426">コンテンツ</text><!--link ヘッダー to フッター--><!--link フッター to ユーザー詳細(マイページ)--><!--link ユーザー詳細(マイページ) to 通知詳細--><!--link 通知詳細 to 設定一覧--><!--link ヘッダー to About--><!--link About to ヘルプ--><!--link ヘルプ to 利用規約--><!--link 利用規約 to プライバシー--><!--link プライバシー to 意見ページ--><!--link About to ヘッダー" - -> "About--><!--link ヘッダー" - -> "About to ヘッダー" - -> "ユーザー詳細(マイページ)--><!--link ヘッダー" - -> "ユーザー詳細(マイページ) to ヘッダー" - -> "通知詳細--><!--link ヘッダー" - -> "通知詳細 to ヘッダー" - -> "設定一覧--><!--link ヘッダー" - -> "設定一覧 to ヘッダー" - -> "ヘルプ--><!--link ヘッダー" - -> "About to フッター" - -> "ヘルプ--><!--link フッター" - -> "ヘルプ to フッター" - -> "利用規約--><!--link フッター" - -> "利用規約 to フッター" - -> "プライバシー--><!--link フッター" - -> "プライバシー to フッター" - -> "意見ページ--><!--
@startuml
	package "共通" {
		agent "ヘッダー"
		agent "フッター"
		agent "ユーザー詳細(マイページ)"
		agent "通知詳細"
		agent "設定一覧"
		agent "About"
		agent "ヘルプ"
		agent "利用規約"
		agent "プライバシー"
		agent "意見ページ"
		
		"ヘッダー" - -> "About"
		"ヘッダー" - -> "ユーザー詳細(マイページ)"
		"ヘッダー" - -> "通知詳細"
		"ヘッダー" - -> "設定一覧"
		"ヘッダー" - -> "ヘルプ"
		"フッター" - -> "ヘルプ"
		"フッター" - -> "利用規約"
		"フッター" - -> "プライバシー"
		"フッター" - -> "意見ページ"
	}
	package "コンテンツ" as content {
	
	}
@enduml

PlantUML version 1.2019.06(Sat May 25 02:10:25 JST 2019)
(GPL source distribution)
Java Runtime: OpenJDK Runtime Environment
JVM: OpenJDK 64-Bit Server VM
Java Version: 14.0.2+12-46
Operating System: Windows 10
OS Version: 10.0
Default Encoding: MS932
Language: ja
Country: JP
--></g></svg>