<?xml version="1.0" encoding="UTF-8" standalone="no"?><svg xmlns="http://www.w3.org/2000/svg" xmlns:xlink="http://www.w3.org/1999/xlink" contentScriptType="application/ecmascript" contentStyleType="text/css" height="313px" preserveAspectRatio="none" style="width:737px;height:313px;" version="1.1" viewBox="0 0 737 313" width="737px" zoomAndPan="magnify"><defs><filter height="300%" id="frmsf9457gz01" width="300%" x="-1" y="-1"><feGaussianBlur result="blurOut" stdDeviation="2.0"/><feColorMatrix in="blurOut" result="blurOut2" type="matrix" values="0 0 0 0 0 0 0 0 0 0 0 0 0 0 0 0 0 0 .4 0"/><feOffset dx="4.0" dy="4.0" in="blurOut2" result="blurOut3"/><feBlend in="SourceGraphic" in2="blurOut3" mode="normal"/></filter></defs><g><text fill="#000000" font-family="sans-serif" font-size="18" lengthAdjust="spacingAndGlyphs" text-decoration="underline" textLength="90" x="334" y="18.6855">新規登録時</text><!--cluster userDetail--><polygon fill="#FFFFFF" filter="url(#frmsf9457gz01)" points="291.5,97.6406,357.5,97.6406,364.5,121.25,715.5,121.25,715.5,301.6406,291.5,301.6406,291.5,97.6406" style="stroke: #000000; stroke-width: 1.5;"/><line style="stroke: #000000; stroke-width: 1.5;" x1="291.5" x2="364.5" y1="121.25" y2="121.25"/><text fill="#000000" font-family="sans-serif" font-size="14" font-weight="bold" lengthAdjust="spacingAndGlyphs" textLength="60" x="295.5" y="114.1738">ユーザー</text><!--entity user--><rect fill="#FEFECE" filter="url(#frmsf9457gz01)" height="37.6094" style="stroke: #A80036; stroke-width: 1.5;" width="104" x="401.5" y="141.6406"/><text fill="#000000" font-family="sans-serif" font-size="14" lengthAdjust="spacingAndGlyphs" textLength="84" x="411.5" y="166.1738">ユーザー詳細</text><!--entity follow--><rect fill="#FEFECE" filter="url(#frmsf9457gz01)" height="37.6094" style="stroke: #A80036; stroke-width: 1.5;" width="104" x="323.5" y="239.6406"/><text fill="#000000" font-family="sans-serif" font-size="14" lengthAdjust="spacingAndGlyphs" textLength="84" x="333.5" y="264.1738">フォロー一覧</text><!--entity follower--><rect fill="#FEFECE" filter="url(#frmsf9457gz01)" height="37.6094" style="stroke: #A80036; stroke-width: 1.5;" width="118" x="462.5" y="239.6406"/><text fill="#000000" font-family="sans-serif" font-size="14" lengthAdjust="spacingAndGlyphs" textLength="98" x="472.5" y="264.1738">フォロワー一覧</text><!--entity tag--><rect fill="#FEFECE" filter="url(#frmsf9457gz01)" height="37.6094" style="stroke: #A80036; stroke-width: 1.5;" width="76" x="615.5" y="239.6406"/><text fill="#000000" font-family="sans-serif" font-size="14" lengthAdjust="spacingAndGlyphs" textLength="56" x="625.5" y="264.1738">タグ一覧</text><!--entity top--><rect fill="#FEFECE" filter="url(#frmsf9457gz01)" height="37.6094" style="stroke: #A80036; stroke-width: 1.5;" width="91" x="6" y="141.6406"/><text fill="#000000" font-family="sans-serif" font-size="14" lengthAdjust="spacingAndGlyphs" textLength="71" x="16" y="166.1738">TOPページ</text><!--entity profile--><rect fill="#FEFECE" filter="url(#frmsf9457gz01)" height="37.6094" style="stroke: #A80036; stroke-width: 1.5;" width="132" x="132.5" y="141.6406"/><text fill="#000000" font-family="sans-serif" font-size="14" lengthAdjust="spacingAndGlyphs" textLength="112" x="142.5" y="166.1738">プロフィール設定</text><!--link top to userDetail--><!--link user to follow--><path d="M438.829,179.6976 C424.972,196.7526 404.293,222.2036 390.371,239.3383 " fill="none" id="user-follow" style="stroke: #A80036; stroke-width: 1.0;"/><!--link user to follower--><path d="M466.29,179.6976 C478.371,196.7526 496.399,222.2036 508.536,239.3383 " fill="none" id="user-follower" style="stroke: #A80036; stroke-width: 1.0;"/><!--link user to tag--><path d="M491.118,179.6976 C526.762,196.8066 580.011,222.3656 615.711,239.5018 " fill="none" id="user-tag" style="stroke: #A80036; stroke-width: 1.0;"/><!--link follow to follower--><path d="M427.684,258.6406 C439.288,258.6406 450.893,258.6406 462.498,258.6406 " fill="none" id="follow-follower" style="stroke: #A80036; stroke-width: 1.0;"/><!--link top to profile--><path d="M97.1504,160.6406 C107.152,160.6406 117.153,160.6406 127.155,160.6406 " fill="none" id="top-profile" style="stroke: #A80036; stroke-width: 1.0;"/><polygon fill="#A80036" points="132.385,160.6406,123.385,156.6406,127.385,160.6406,123.385,164.6406,132.385,160.6406" style="stroke: #A80036; stroke-width: 1.0;"/><!--link profile to user--><path d="M209.428,141.5606 C225.583,115.5186 258.559,69.9896 301,51.6406 C333.228,37.7076 349,35.1546 380,51.6406 C413.578,69.4976 434.584,110.2876 445.158,136.5916 " fill="none" id="profile-user" style="stroke: #A80036; stroke-width: 1.0;"/><polygon fill="#A80036" points="447.012,141.3256,447.4528,131.4866,445.1878,136.6703,440.0042,134.4053,447.012,141.3256" style="stroke: #A80036; stroke-width: 1.0;"/><!--
@startuml
	agent "TOPページ" as top
	agent "プロフィール設定" as profile
	top -[hidden]right-> userDetail
	package "ユーザー" as userDetail {
		agent "ユーザー詳細" as user
		agent "フォロー一覧" as follow
		agent "フォロワー一覧" as follower
		agent "タグ一覧" as tag
		user - - follow
		user - - follower
		user - - tag
		follow -right- follower
	}
	title __新規登録時__
	top -right-> profile
	profile -right-> user
@enduml

PlantUML version 1.2019.06(Sat May 25 02:10:25 JST 2019)
(GPL source distribution)
Java Runtime: Java(TM) SE Runtime Environment
JVM: Java HotSpot(TM) 64-Bit Server VM
Java Version: 1.8.0_231-b11
Operating System: Windows 10
OS Version: 10.0
Default Encoding: MS932
Language: ja
Country: JP
--></g></svg>