<?xml version="1.0" encoding="UTF-8" standalone="no"?><svg xmlns="http://www.w3.org/2000/svg" xmlns:xlink="http://www.w3.org/1999/xlink" contentScriptType="application/ecmascript" contentStyleType="text/css" height="629px" preserveAspectRatio="none" style="width:577px;height:629px;" version="1.1" viewBox="0 0 577 629" width="577px" zoomAndPan="magnify"><defs><filter height="300%" id="f1utqgttgwnjuv" width="300%" x="-1" y="-1"><feGaussianBlur result="blurOut" stdDeviation="2.0"/><feColorMatrix in="blurOut" result="blurOut2" type="matrix" values="0 0 0 0 0 0 0 0 0 0 0 0 0 0 0 0 0 0 .4 0"/><feOffset dx="4.0" dy="4.0" in="blurOut2" result="blurOut3"/><feBlend in="SourceGraphic" in2="blurOut3" mode="normal"/></filter></defs><g><!--cluster UList--><polygon fill="#FFFFFF" filter="url(#f1utqgttgwnjuv)" points="22,61,63,61,70,84.6094,555,84.6094,555,617,22,617,22,61" style="stroke: #000000; stroke-width: 1.5;"/><line style="stroke: #000000; stroke-width: 1.5;" x1="22" x2="70" y1="84.6094" y2="84.6094"/><text fill="#000000" font-family="sans-serif" font-size="14" font-weight="bold" lengthAdjust="spacingAndGlyphs" textLength="35" x="26" y="77.5332">UList</text><!--cluster UILayer--><rect fill="#FFFFFF" filter="url(#f1utqgttgwnjuv)" height="100" style="stroke: #000000; stroke-width: 1.5;" width="152" x="375" y="105"/><text fill="#000000" font-family="sans-serif" font-size="14" font-weight="bold" lengthAdjust="spacingAndGlyphs" textLength="52" x="425" y="121.5332">UILayer</text><!--cluster AppLayer--><rect fill="#FFFFFF" filter="url(#f1utqgttgwnjuv)" height="100" style="stroke: #000000; stroke-width: 1.5;" width="281" x="70" y="105"/><text fill="#000000" font-family="sans-serif" font-size="14" font-weight="bold" lengthAdjust="spacingAndGlyphs" textLength="65" x="178" y="121.5332">AppLayer</text><!--cluster DomainLayer--><rect fill="#FFFFFF" filter="url(#f1utqgttgwnjuv)" height="224" style="stroke: #000000; stroke-width: 1.5;" width="340" x="183" y="237"/><text fill="#000000" font-family="sans-serif" font-size="14" font-weight="bold" lengthAdjust="spacingAndGlyphs" textLength="90" x="308" y="253.5332">DomainLayer</text><!--cluster InfrastructureLayer--><rect fill="#FFFFFF" filter="url(#f1utqgttgwnjuv)" height="100" style="stroke: #000000; stroke-width: 1.5;" width="341" x="190" y="493"/><text fill="#000000" font-family="sans-serif" font-size="14" font-weight="bold" lengthAdjust="spacingAndGlyphs" textLength="135" x="293" y="509.5332">InfrastructureLayer</text><!--class UListAppConfig--><rect fill="#FEFECE" filter="url(#f1utqgttgwnjuv)" height="48" id="UListAppConfig" style="stroke: #A80036; stroke-width: 1.5;" width="118" x="38" y="281"/><ellipse cx="53" cy="297" fill="#ADD1B2" rx="11" ry="11" style="stroke: #A80036; stroke-width: 1.0;"/><path d="M55.7031,302.4375 Q54.7813,303.3594 52.5156,303.3594 Q51.25,303.3594 50.3281,302.4375 Q48.6719,300.7813 48.6719,297.25 Q48.6719,293.1406 50.4531,291.3438 Q51.3906,290.4219 52.5781,290.4219 Q54.8438,290.4219 55.5781,291.1406 Q56.9688,292.5469 56.9063,294.9375 L54.4375,294.9375 Q54.375,292.8125 53.6406,292.0781 Q53.25,291.6719 52.5781,291.6719 Q52.5781,291.6719 52.5156,292.1406 Q51.1875,293.4688 51.1875,297.125 Q51.1875,300.3125 52.3281,301.4375 Q52.8594,301.9688 52.8594,301.9688 Q53.1094,301.9688 53.6406,301.4375 Q54.3125,300.7813 54.375,298.3906 L56.9688,298.3906 Q56.7656,301.375 55.7031,302.4375 Z "/><text fill="#000000" font-family="sans-serif" font-size="12" lengthAdjust="spacingAndGlyphs" textLength="86" x="67" y="301.9102">UListAppConfig</text><line style="stroke: #A80036; stroke-width: 1.5;" x1="39" x2="155" y1="313" y2="313"/><line style="stroke: #A80036; stroke-width: 1.5;" x1="39" x2="155" y1="321" y2="321"/><!--class UListViewModel--><rect fill="#FEFECE" filter="url(#f1utqgttgwnjuv)" height="48" id="UListViewModel" style="stroke: #A80036; stroke-width: 1.5;" width="120" x="391" y="141"/><ellipse cx="406" cy="157" fill="#ADD1B2" rx="11" ry="11" style="stroke: #A80036; stroke-width: 1.0;"/><path d="M408.7031,162.4375 Q407.7813,163.3594 405.5156,163.3594 Q404.25,163.3594 403.3281,162.4375 Q401.6719,160.7813 401.6719,157.25 Q401.6719,153.1406 403.4531,151.3438 Q404.3906,150.4219 405.5781,150.4219 Q407.8438,150.4219 408.5781,151.1406 Q409.9688,152.5469 409.9063,154.9375 L407.4375,154.9375 Q407.375,152.8125 406.6406,152.0781 Q406.25,151.6719 405.5781,151.6719 Q405.5781,151.6719 405.5156,152.1406 Q404.1875,153.4688 404.1875,157.125 Q404.1875,160.3125 405.3281,161.4375 Q405.8594,161.9688 405.8594,161.9688 Q406.1094,161.9688 406.6406,161.4375 Q407.3125,160.7813 407.375,158.3906 L409.9688,158.3906 Q409.7656,161.375 408.7031,162.4375 Z "/><text fill="#000000" font-family="sans-serif" font-size="12" lengthAdjust="spacingAndGlyphs" textLength="88" x="420" y="161.9102">UListViewModel</text><line style="stroke: #A80036; stroke-width: 1.5;" x1="392" x2="510" y1="173" y2="173"/><line style="stroke: #A80036; stroke-width: 1.5;" x1="392" x2="510" y1="181" y2="181"/><!--class UListController--><rect fill="#FEFECE" filter="url(#f1utqgttgwnjuv)" height="48" id="UListController" style="stroke: #A80036; stroke-width: 1.5;" width="115" x="86.5" y="141"/><ellipse cx="101.5" cy="157" fill="#ADD1B2" rx="11" ry="11" style="stroke: #A80036; stroke-width: 1.0;"/><path d="M104.2031,162.4375 Q103.2813,163.3594 101.0156,163.3594 Q99.75,163.3594 98.8281,162.4375 Q97.1719,160.7813 97.1719,157.25 Q97.1719,153.1406 98.9531,151.3438 Q99.8906,150.4219 101.0781,150.4219 Q103.3438,150.4219 104.0781,151.1406 Q105.4688,152.5469 105.4063,154.9375 L102.9375,154.9375 Q102.875,152.8125 102.1406,152.0781 Q101.75,151.6719 101.0781,151.6719 Q101.0781,151.6719 101.0156,152.1406 Q99.6875,153.4688 99.6875,157.125 Q99.6875,160.3125 100.8281,161.4375 Q101.3594,161.9688 101.3594,161.9688 Q101.6094,161.9688 102.1406,161.4375 Q102.8125,160.7813 102.875,158.3906 L105.4688,158.3906 Q105.2656,161.375 104.2031,162.4375 Z "/><text fill="#000000" font-family="sans-serif" font-size="12" lengthAdjust="spacingAndGlyphs" textLength="83" x="115.5" y="161.9102">UListController</text><line style="stroke: #A80036; stroke-width: 1.5;" x1="87.5" x2="200.5" y1="173" y2="173"/><line style="stroke: #A80036; stroke-width: 1.5;" x1="87.5" x2="200.5" y1="181" y2="181"/><!--class UListHelper--><rect fill="#FEFECE" filter="url(#f1utqgttgwnjuv)" height="48" id="UListHelper" style="stroke: #A80036; stroke-width: 1.5;" width="98" x="237" y="141"/><ellipse cx="252" cy="157" fill="#ADD1B2" rx="11" ry="11" style="stroke: #A80036; stroke-width: 1.0;"/><path d="M254.7031,162.4375 Q253.7813,163.3594 251.5156,163.3594 Q250.25,163.3594 249.3281,162.4375 Q247.6719,160.7813 247.6719,157.25 Q247.6719,153.1406 249.4531,151.3438 Q250.3906,150.4219 251.5781,150.4219 Q253.8438,150.4219 254.5781,151.1406 Q255.9688,152.5469 255.9063,154.9375 L253.4375,154.9375 Q253.375,152.8125 252.6406,152.0781 Q252.25,151.6719 251.5781,151.6719 Q251.5781,151.6719 251.5156,152.1406 Q250.1875,153.4688 250.1875,157.125 Q250.1875,160.3125 251.3281,161.4375 Q251.8594,161.9688 251.8594,161.9688 Q252.1094,161.9688 252.6406,161.4375 Q253.3125,160.7813 253.375,158.3906 L255.9688,158.3906 Q255.7656,161.375 254.7031,162.4375 Z "/><text fill="#000000" font-family="sans-serif" font-size="12" lengthAdjust="spacingAndGlyphs" textLength="66" x="266" y="161.9102">UListHelper</text><line style="stroke: #A80036; stroke-width: 1.5;" x1="238" x2="334" y1="173" y2="173"/><line style="stroke: #A80036; stroke-width: 1.5;" x1="238" x2="334" y1="181" y2="181"/><!--class UListServiceIF--><rect fill="#FEFECE" filter="url(#f1utqgttgwnjuv)" height="48" id="UListServiceIF" style="stroke: #A80036; stroke-width: 1.5;" width="112" x="226" y="281"/><ellipse cx="241" cy="297" fill="#B4A7E5" rx="11" ry="11" style="stroke: #A80036; stroke-width: 1.0;"/><path d="M241.9844,301.9063 L242.7188,301.9063 L242.7188,303.3594 L238.7188,303.3594 L238.7188,301.9063 L239.4531,301.9063 L239.4531,291.875 L238.7188,291.875 L238.7188,290.4219 L242.7188,290.4219 L242.7188,291.875 L241.9844,291.875 L241.9844,301.9063 Z "/><text fill="#000000" font-family="sans-serif" font-size="12" font-style="italic" lengthAdjust="spacingAndGlyphs" textLength="80" x="255" y="301.9102">UListServiceIF</text><line style="stroke: #A80036; stroke-width: 1.5;" x1="227" x2="337" y1="313" y2="313"/><line style="stroke: #A80036; stroke-width: 1.5;" x1="227" x2="337" y1="321" y2="321"/><!--class UListServiceImpl--><rect fill="#FEFECE" filter="url(#f1utqgttgwnjuv)" height="48" id="UListServiceImpl" style="stroke: #A80036; stroke-width: 1.5;" width="125" x="373.5" y="281"/><ellipse cx="388.5" cy="297" fill="#ADD1B2" rx="11" ry="11" style="stroke: #A80036; stroke-width: 1.0;"/><path d="M391.2031,302.4375 Q390.2813,303.3594 388.0156,303.3594 Q386.75,303.3594 385.8281,302.4375 Q384.1719,300.7813 384.1719,297.25 Q384.1719,293.1406 385.9531,291.3438 Q386.8906,290.4219 388.0781,290.4219 Q390.3438,290.4219 391.0781,291.1406 Q392.4688,292.5469 392.4063,294.9375 L389.9375,294.9375 Q389.875,292.8125 389.1406,292.0781 Q388.75,291.6719 388.0781,291.6719 Q388.0781,291.6719 388.0156,292.1406 Q386.6875,293.4688 386.6875,297.125 Q386.6875,300.3125 387.8281,301.4375 Q388.3594,301.9688 388.3594,301.9688 Q388.6094,301.9688 389.1406,301.4375 Q389.8125,300.7813 389.875,298.3906 L392.4688,298.3906 Q392.2656,301.375 391.2031,302.4375 Z "/><text fill="#000000" font-family="sans-serif" font-size="12" lengthAdjust="spacingAndGlyphs" textLength="93" x="402.5" y="301.9102">UListServiceImpl</text><line style="stroke: #A80036; stroke-width: 1.5;" x1="374.5" x2="497.5" y1="313" y2="313"/><line style="stroke: #A80036; stroke-width: 1.5;" x1="374.5" x2="497.5" y1="321" y2="321"/><!--class UListDomain--><rect fill="#FEFECE" filter="url(#f1utqgttgwnjuv)" height="48" id="UListDomain" style="stroke: #A80036; stroke-width: 1.5;" width="105" x="227.5" y="389"/><ellipse cx="242.5" cy="405" fill="#ADD1B2" rx="11" ry="11" style="stroke: #A80036; stroke-width: 1.0;"/><path d="M245.2031,410.4375 Q244.2813,411.3594 242.0156,411.3594 Q240.75,411.3594 239.8281,410.4375 Q238.1719,408.7813 238.1719,405.25 Q238.1719,401.1406 239.9531,399.3438 Q240.8906,398.4219 242.0781,398.4219 Q244.3438,398.4219 245.0781,399.1406 Q246.4688,400.5469 246.4063,402.9375 L243.9375,402.9375 Q243.875,400.8125 243.1406,400.0781 Q242.75,399.6719 242.0781,399.6719 Q242.0781,399.6719 242.0156,400.1406 Q240.6875,401.4688 240.6875,405.125 Q240.6875,408.3125 241.8281,409.4375 Q242.3594,409.9688 242.3594,409.9688 Q242.6094,409.9688 243.1406,409.4375 Q243.8125,408.7813 243.875,406.3906 L246.4688,406.3906 Q246.2656,409.375 245.2031,410.4375 Z "/><text fill="#000000" font-family="sans-serif" font-size="12" lengthAdjust="spacingAndGlyphs" textLength="73" x="256.5" y="409.9102">UListDomain</text><line style="stroke: #A80036; stroke-width: 1.5;" x1="228.5" x2="331.5" y1="421" y2="421"/><line style="stroke: #A80036; stroke-width: 1.5;" x1="228.5" x2="331.5" y1="429" y2="429"/><!--class UListRepositoryIF--><rect fill="#FEFECE" filter="url(#f1utqgttgwnjuv)" height="48" id="UListRepositoryIF" style="stroke: #A80036; stroke-width: 1.5;" width="130" x="206" y="529"/><ellipse cx="221" cy="545" fill="#B4A7E5" rx="11" ry="11" style="stroke: #A80036; stroke-width: 1.0;"/><path d="M221.9844,549.9063 L222.7188,549.9063 L222.7188,551.3594 L218.7188,551.3594 L218.7188,549.9063 L219.4531,549.9063 L219.4531,539.875 L218.7188,539.875 L218.7188,538.4219 L222.7188,538.4219 L222.7188,539.875 L221.9844,539.875 L221.9844,549.9063 Z "/><text fill="#000000" font-family="sans-serif" font-size="12" font-style="italic" lengthAdjust="spacingAndGlyphs" textLength="98" x="235" y="549.9102">UListRepositoryIF</text><line style="stroke: #A80036; stroke-width: 1.5;" x1="207" x2="335" y1="561" y2="561"/><line style="stroke: #A80036; stroke-width: 1.5;" x1="207" x2="335" y1="569" y2="569"/><!--class UListRepositoryImpl--><rect fill="#FEFECE" filter="url(#f1utqgttgwnjuv)" height="48" id="UListRepositoryImpl" style="stroke: #A80036; stroke-width: 1.5;" width="144" x="371" y="529"/><ellipse cx="386" cy="545" fill="#ADD1B2" rx="11" ry="11" style="stroke: #A80036; stroke-width: 1.0;"/><path d="M388.7031,550.4375 Q387.7813,551.3594 385.5156,551.3594 Q384.25,551.3594 383.3281,550.4375 Q381.6719,548.7813 381.6719,545.25 Q381.6719,541.1406 383.4531,539.3438 Q384.3906,538.4219 385.5781,538.4219 Q387.8438,538.4219 388.5781,539.1406 Q389.9688,540.5469 389.9063,542.9375 L387.4375,542.9375 Q387.375,540.8125 386.6406,540.0781 Q386.25,539.6719 385.5781,539.6719 Q385.5781,539.6719 385.5156,540.1406 Q384.1875,541.4688 384.1875,545.125 Q384.1875,548.3125 385.3281,549.4375 Q385.8594,549.9688 385.8594,549.9688 Q386.1094,549.9688 386.6406,549.4375 Q387.3125,548.7813 387.375,546.3906 L389.9688,546.3906 Q389.7656,549.375 388.7031,550.4375 Z "/><text fill="#000000" font-family="sans-serif" font-size="12" lengthAdjust="spacingAndGlyphs" textLength="112" x="400" y="549.9102">UListRepositoryImpl</text><line style="stroke: #A80036; stroke-width: 1.5;" x1="372" x2="514" y1="561" y2="561"/><line style="stroke: #A80036; stroke-width: 1.5;" x1="372" x2="514" y1="569" y2="569"/><!--link UListViewModel to UListController--><path d="M439.571,140.806 C422.124,107.093 385.327,47.384 333.5,23 C294.491,4.646 274.401,2.456 236.5,23 C192.37,46.921 165.976,102.027 153.279,136.127 " fill="none" id="UListViewModel-UListController" style="stroke: #A80036; stroke-width: 1.0;"/><polygon fill="#A80036" points="151.505,141,158.3418,133.9107,153.215,136.3015,150.8242,131.1747,151.505,141" style="stroke: #A80036; stroke-width: 1.0;"/><!--link UListController to UListHelper--><path d="M201.688,165 C211.691,165 221.694,165 231.697,165 " fill="none" id="UListController-UListHelper" style="stroke: #A80036; stroke-width: 1.0;"/><polygon fill="#A80036" points="236.927,165,227.927,161,231.927,165,227.927,169,236.927,165" style="stroke: #A80036; stroke-width: 1.0;"/><!--link UListHelper to UListServiceIF--><path d="M285.33,189.098 C284.641,212.88 283.566,249.978 282.825,275.553 " fill="none" id="UListHelper-UListServiceIF" style="stroke: #A80036; stroke-width: 1.0;"/><polygon fill="#A80036" points="282.672,280.827,286.93,271.9462,282.8163,275.8291,278.9333,271.7153,282.672,280.827" style="stroke: #A80036; stroke-width: 1.0;"/><!--link UListController to UListServiceIF--><path d="M182.066,189.135 C195.445,198.194 210.097,209.236 222,221 C238.905,237.707 254.514,259.596 265.573,276.701 " fill="none" id="UListController-UListServiceIF" style="stroke: #A80036; stroke-width: 1.0;"/><polygon fill="#A80036" points="268.284,280.94,266.8033,271.2031,265.5895,276.7282,260.0644,275.5143,268.284,280.94" style="stroke: #A80036; stroke-width: 1.0;"/><!--link UListServiceIF to UListDomain--><path d="M281.566,329 C281.233,346.658 280.775,370.941 280.44,388.678 " fill="none" id="UListServiceIF-UListDomain" style="stroke: #A80036; stroke-width: 1.0; stroke-dasharray: 7.0,7.0;"/><!--link UListServiceIF to UListServiceImpl--><path d="M358.281,305 C363.313,305 368.345,305 373.376,305 " fill="none" id="UListServiceIF-UListServiceImpl" style="stroke: #A80036; stroke-width: 1.0;"/><polygon fill="none" points="358.246,312,338.246,305,358.246,298,358.246,312" style="stroke: #A80036; stroke-width: 1.0;"/><!--link DomainLayer to UListAppConfig--><!--link UListDomain to UListRepositoryIF--><path d="M278.494,437.098 C276.832,462.572 274.175,503.322 272.511,528.827 " fill="none" id="UListDomain-UListRepositoryIF" style="stroke: #A80036; stroke-width: 1.0; stroke-dasharray: 7.0,7.0;"/><!--link UListServiceImpl to UListRepositoryIF--><path d="M427.302,329.281 C413.844,363.584 385.757,428.842 350,477 C336.801,494.777 319.151,511.981 303.883,525.417 " fill="none" id="UListServiceImpl-UListRepositoryIF" style="stroke: #A80036; stroke-width: 1.0;"/><polygon fill="#A80036" points="300.056,528.75,309.4701,525.856,303.8267,525.4664,304.2163,519.823,300.056,528.75" style="stroke: #A80036; stroke-width: 1.0;"/><!--link UListRepositoryIF to UListRepositoryImpl--><path d="M356.196,553 C361.066,553 365.937,553 370.808,553 " fill="none" id="UListRepositoryIF-UListRepositoryImpl" style="stroke: #A80036; stroke-width: 1.0;"/><polygon fill="none" points="356.172,559.9999,336.172,553,356.172,545.9999,356.172,559.9999" style="stroke: #A80036; stroke-width: 1.0;"/><!--
@startuml
Package UList {
    package UILayer <<Rectangle>>{
        class UListViewModel
    }
    package AppLayer <<Rectangle>>{
        class UListController
        class UListHelper
        UListController <-right- UListViewModel
        UListController -right-> UListHelper
    }
    package DomainLayer <<Rectangle>>{
        interface UListServiceIF
        class UListServiceImpl
        class UListDomain
        UListHelper -down-> UListServiceIF
        UListController -down-> UListServiceIF
        UListServiceIF .down. UListDomain
        UListServiceIF <|-right- UListServiceImpl
    }
	class UListAppConfig
	DomainLayer -[hidden]> UListAppConfig
    package InfrastructureLayer <<Rectangle>>{
        interface UListRepositoryIF
        class UListRepositoryImpl
        UListDomain .down. UListRepositoryIF
        UListServiceImpl -down-> UListRepositoryIF
        UListRepositoryIF <|-right- UListRepositoryImpl
    }
}
@enduml

PlantUML version 1.2019.06(Sat May 25 02:10:25 JST 2019)
(GPL source distribution)
Java Runtime: Java(TM) SE Runtime Environment
JVM: Java HotSpot(TM) 64-Bit Server VM
Java Version: 1.8.0_231-b11
Operating System: Windows 10
OS Version: 10.0
Default Encoding: MS932
Language: ja
Country: JP
--></g></svg>