<?xml version="1.0" encoding="UTF-8" standalone="no"?><svg xmlns="http://www.w3.org/2000/svg" xmlns:xlink="http://www.w3.org/1999/xlink" contentScriptType="application/ecmascript" contentStyleType="text/css" height="214px" preserveAspectRatio="none" style="width:444px;height:214px;" version="1.1" viewBox="0 0 444 214" width="444px" zoomAndPan="magnify"><defs><filter height="300%" id="f176dt5zsppo6e" width="300%" x="-1" y="-1"><feGaussianBlur result="blurOut" stdDeviation="2.0"/><feColorMatrix in="blurOut" result="blurOut2" type="matrix" values="0 0 0 0 0 0 0 0 0 0 0 0 0 0 0 0 0 0 .4 0"/><feOffset dx="4.0" dy="4.0" in="blurOut2" result="blurOut3"/><feBlend in="SourceGraphic" in2="blurOut3" mode="normal"/></filter></defs><g><rect fill="#FEFECE" filter="url(#f176dt5zsppo6e)" height="195.6094" rx="12.5" ry="12.5" style="stroke: #A80036; stroke-width: 1.5;" width="426" x="6" y="8"/><rect fill="#FFFFFF" height="162" rx="12.5" ry="12.5" style="stroke: #FFFFFF; stroke-width: 1.0;" width="420" x="9" y="38.6094"/><line style="stroke: #A80036; stroke-width: 1.5;" x1="6" x2="432" y1="35.6094" y2="35.6094"/><text fill="#000000" font-family="sans-serif" font-size="14" lengthAdjust="spacingAndGlyphs" textLength="56" x="191" y="27.5332">フッター</text><rect fill="#FEFECE" filter="url(#f176dt5zsppo6e)" height="50" rx="12.5" ry="12.5" style="stroke: #A80036; stroke-width: 1.5;" width="62" x="17" y="138.6094"/><line style="stroke: #A80036; stroke-width: 1.5;" x1="17" x2="79" y1="166.2188" y2="166.2188"/><text fill="#000000" font-family="sans-serif" font-size="14" lengthAdjust="spacingAndGlyphs" textLength="42" x="27" y="158.1426">ヘルプ</text><rect fill="#FEFECE" filter="url(#f176dt5zsppo6e)" height="50" rx="12.5" ry="12.5" style="stroke: #A80036; stroke-width: 1.5;" width="76" x="97" y="138.6094"/><line style="stroke: #A80036; stroke-width: 1.5;" x1="97" x2="173" y1="166.2188" y2="166.2188"/><text fill="#000000" font-family="sans-serif" font-size="14" lengthAdjust="spacingAndGlyphs" textLength="56" x="107" y="158.1426">利用規約</text><rect fill="#FEFECE" filter="url(#f176dt5zsppo6e)" height="50" rx="12.5" ry="12.5" style="stroke: #A80036; stroke-width: 1.5;" width="104" x="191" y="138.6094"/><line style="stroke: #A80036; stroke-width: 1.5;" x1="191" x2="295" y1="166.2188" y2="166.2188"/><text fill="#000000" font-family="sans-serif" font-size="14" lengthAdjust="spacingAndGlyphs" textLength="84" x="201" y="158.1426">プライバシー</text><rect fill="#FEFECE" filter="url(#f176dt5zsppo6e)" height="50" rx="12.5" ry="12.5" style="stroke: #A80036; stroke-width: 1.5;" width="62" x="320" y="138.6094"/><line style="stroke: #A80036; stroke-width: 1.5;" x1="320" x2="382" y1="166.2188" y2="166.2188"/><text fill="#000000" font-family="sans-serif" font-size="14" lengthAdjust="spacingAndGlyphs" textLength="42" x="330" y="158.1426">ご意見</text><ellipse cx="185" cy="58.6094" fill="#000000" filter="url(#f176dt5zsppo6e)" rx="10" ry="10" style="stroke: none; stroke-width: 1.0;"/><!--link *start*footer1 to sc9--><path d="M174.973,59.2244 C154.084,58.9744 105.4828,61.3434 77,86.6094 C63.6166,98.4814 56.3774,117.2139 52.4787,133.1101 " fill="none" id="*start*footer1-sc9" style="stroke: #A80036; stroke-width: 1.0;"/><polygon fill="#A80036" points="51.2805,138.3782,57.177,130.4895,52.3895,133.5027,49.3763,128.7152,51.2805,138.3782" style="stroke: #A80036; stroke-width: 1.0;"/><text fill="#000000" font-family="sans-serif" font-size="13" lengthAdjust="spacingAndGlyphs" textLength="52" x="78" y="101.1045">ヘルプを</text><text fill="#000000" font-family="sans-serif" font-size="13" lengthAdjust="spacingAndGlyphs" textLength="26" x="91" y="117.4561">押下</text><!--link *start*footer1 to sc10--><path d="M175.928,63.2694 C166.776,67.4684 153.024,75.2674 146,86.6094 C137.498,100.3381 134.578,118.0893 133.863,132.9832 " fill="none" id="*start*footer1-sc10" style="stroke: #A80036; stroke-width: 1.0;"/><polygon fill="#A80036" points="133.692,138.3283,137.9766,129.4602,133.8513,133.3308,129.9807,129.2054,133.692,138.3283" style="stroke: #A80036; stroke-width: 1.0;"/><text fill="#000000" font-family="sans-serif" font-size="13" lengthAdjust="spacingAndGlyphs" textLength="65" x="147" y="101.1045">利用規約を</text><text fill="#000000" font-family="sans-serif" font-size="13" lengthAdjust="spacingAndGlyphs" textLength="39" x="160" y="117.4561">押下　</text><!--link *start*footer1 to sc11--><path d="M192.778,65.5364 C198.952,70.5774 207.441,78.3034 213,86.6094 C222.569,100.908 229.805,118.7176 234.77,133.5016 " fill="none" id="*start*footer1-sc11" style="stroke: #A80036; stroke-width: 1.0;"/><polygon fill="#A80036" points="236.367,138.3899,237.3741,128.5926,234.8142,133.6371,229.7697,131.0772,236.367,138.3899" style="stroke: #A80036; stroke-width: 1.0;"/><text fill="#000000" font-family="sans-serif" font-size="13" lengthAdjust="spacingAndGlyphs" textLength="91" x="231" y="101.1045">プライバシーを</text><text fill="#000000" font-family="sans-serif" font-size="13" lengthAdjust="spacingAndGlyphs" textLength="26" x="263.5" y="117.4561">押下</text><!--link *start*footer1 to sc12--><path d="M195.199,60.2164 C224.368,62.1514 307.302,69.1084 327,86.6094 C340.196,98.3341 346.2,117.2477 348.903,133.2731 " fill="none" id="*start*footer1-sc12" style="stroke: #A80036; stroke-width: 1.0;"/><polygon fill="#A80036" points="349.699,138.5825,352.321,129.0891,348.958,133.6377,344.4094,130.2747,349.699,138.5825" style="stroke: #A80036; stroke-width: 1.0;"/><text fill="#000000" font-family="sans-serif" font-size="13" lengthAdjust="spacingAndGlyphs" textLength="52" x="346" y="101.1045">ご意見を</text><text fill="#000000" font-family="sans-serif" font-size="13" lengthAdjust="spacingAndGlyphs" textLength="26" x="359" y="117.4561">押下</text><!--
@startuml
	state "フッター" as footer1 {
		state "ヘルプ" as sc9
		state "利用規約" as sc10
		state "プライバシー" as sc11
		state "ご意見" as sc12
		[*] - -> sc9 : ヘルプを\n押下
		[*] - -> sc10 : 利用規約を\n押下　 
		[*] - -> sc11 : プライバシーを\n押下
		[*] - -> sc12 : ご意見を\n押下
	}
@enduml

PlantUML version 1.2019.06(Sat May 25 02:10:25 JST 2019)
(GPL source distribution)
Java Runtime: OpenJDK Runtime Environment
JVM: OpenJDK 64-Bit Server VM
Java Version: 14.0.2+12-46
Operating System: Windows 10
OS Version: 10.0
Default Encoding: MS932
Language: ja
Country: JP
--></g></svg>