<?xml version="1.0" encoding="UTF-8" standalone="no"?><svg xmlns="http://www.w3.org/2000/svg" xmlns:xlink="http://www.w3.org/1999/xlink" contentScriptType="application/ecmascript" contentStyleType="text/css" height="470px" preserveAspectRatio="none" style="width:572px;height:470px;" version="1.1" viewBox="0 0 572 470" width="572px" zoomAndPan="magnify"><defs><filter height="300%" id="frdndip0pq1wm" width="300%" x="-1" y="-1"><feGaussianBlur result="blurOut" stdDeviation="2.0"/><feColorMatrix in="blurOut" result="blurOut2" type="matrix" values="0 0 0 0 0 0 0 0 0 0 0 0 0 0 0 0 0 0 .4 0"/><feOffset dx="4.0" dy="4.0" in="blurOut2" result="blurOut3"/><feBlend in="SourceGraphic" in2="blurOut3" mode="normal"/></filter></defs><g><!--class apps--><rect fill="#FEFECE" filter="url(#frdndip0pq1wm)" height="141.1797" id="apps" style="stroke: #A80036; stroke-width: 1.5;" width="122" x="6" y="41"/><ellipse cx="48.9" cy="57" fill="#ADD1B2" rx="11" ry="11" style="stroke: #A80036; stroke-width: 1.0;"/><path d="M47.6188,55.6719 L52.1344,55.6719 L52.1344,57.625 L47.6188,57.625 L47.6188,61.9219 L52.8531,61.9219 L52.8531,63.8594 L45.4,63.8594 L45.4,50.2344 L52.525,50.2344 L52.525,52.1719 L47.6188,52.1719 L47.6188,55.6719 Z "/><text fill="#000000" font-family="sans-serif" font-size="12" lengthAdjust="spacingAndGlyphs" textLength="28" x="69.1" y="61.9102">apps</text><line style="stroke: #A80036; stroke-width: 1.5;" x1="7" x2="127" y1="73" y2="73"/><text fill="#000000" font-family="sans-serif" font-size="11" lengthAdjust="spacingAndGlyphs" textLength="28" x="12" y="88.4189">int aid</text><line style="stroke: #A80036; stroke-width: 1.0;" x1="7" x2="127" y1="94.8359" y2="94.8359"/><text fill="#000000" font-family="sans-serif" font-size="11" lengthAdjust="spacingAndGlyphs" textLength="74" x="12" y="110.2549">bit(1) adisabled</text><line style="stroke: #A80036; stroke-width: 1.0;" x1="7" x2="127" y1="116.6719" y2="116.6719"/><text fill="#000000" font-family="sans-serif" font-size="11" lengthAdjust="spacingAndGlyphs" textLength="110" x="12" y="132.0908">varchar(255) aimgpath</text><line style="stroke: #A80036; stroke-width: 1.0;" x1="7" x2="127" y1="138.5078" y2="138.5078"/><text fill="#000000" font-family="sans-serif" font-size="11" lengthAdjust="spacingAndGlyphs" textLength="99" x="12" y="153.9268">varchar(255) aname</text><line style="stroke: #A80036; stroke-width: 1.0;" x1="7" x2="127" y1="160.3438" y2="160.3438"/><text fill="#000000" font-family="sans-serif" font-size="11" lengthAdjust="spacingAndGlyphs" textLength="85" x="12" y="175.7627">varchar(255) aurl</text><!--class users--><rect fill="#FEFECE" filter="url(#frdndip0pq1wm)" height="206.6875" id="users" style="stroke: #A80036; stroke-width: 1.5;" width="122" x="235" y="8"/><ellipse cx="276.1" cy="24" fill="#ADD1B2" rx="11" ry="11" style="stroke: #A80036; stroke-width: 1.0;"/><path d="M274.8188,22.6719 L279.3344,22.6719 L279.3344,24.625 L274.8188,24.625 L274.8188,28.9219 L280.0531,28.9219 L280.0531,30.8594 L272.6,30.8594 L272.6,17.2344 L279.725,17.2344 L279.725,19.1719 L274.8188,19.1719 L274.8188,22.6719 Z "/><text fill="#000000" font-family="sans-serif" font-size="12" lengthAdjust="spacingAndGlyphs" textLength="32" x="295.9" y="28.9102">users</text><line style="stroke: #A80036; stroke-width: 1.5;" x1="236" x2="356" y1="40" y2="40"/><text fill="#000000" font-family="sans-serif" font-size="11" lengthAdjust="spacingAndGlyphs" textLength="28" x="241" y="55.4189">int uid</text><line style="stroke: #A80036; stroke-width: 1.0;" x1="236" x2="356" y1="61.8359" y2="61.8359"/><text fill="#000000" font-family="sans-serif" font-size="11" lengthAdjust="spacingAndGlyphs" textLength="97" x="241" y="77.2549">varchar(255) udesc</text><line style="stroke: #A80036; stroke-width: 1.0;" x1="236" x2="356" y1="83.6719" y2="83.6719"/><text fill="#000000" font-family="sans-serif" font-size="11" lengthAdjust="spacingAndGlyphs" textLength="74" x="241" y="99.0908">bit(1) udisabled</text><line style="stroke: #A80036; stroke-width: 1.0;" x1="236" x2="356" y1="105.5078" y2="105.5078"/><text fill="#000000" font-family="sans-serif" font-size="11" lengthAdjust="spacingAndGlyphs" textLength="110" x="241" y="120.9268">varchar(255) uimgpath</text><line style="stroke: #A80036; stroke-width: 1.0;" x1="236" x2="356" y1="127.3438" y2="127.3438"/><text fill="#000000" font-family="sans-serif" font-size="11" lengthAdjust="spacingAndGlyphs" textLength="91" x="241" y="142.7627">varchar(255) umail</text><line style="stroke: #A80036; stroke-width: 1.0;" x1="236" x2="356" y1="149.1797" y2="149.1797"/><text fill="#000000" font-family="sans-serif" font-size="11" lengthAdjust="spacingAndGlyphs" textLength="99" x="241" y="164.5986">varchar(255) uname</text><line style="stroke: #A80036; stroke-width: 1.0;" x1="236" x2="356" y1="171.0156" y2="171.0156"/><text fill="#000000" font-family="sans-serif" font-size="11" lengthAdjust="spacingAndGlyphs" textLength="97" x="241" y="186.4346">varchar(255) userid</text><line style="stroke: #A80036; stroke-width: 1.0;" x1="236" x2="356" y1="192.8516" y2="192.8516"/><text fill="#000000" font-family="sans-serif" font-size="11" lengthAdjust="spacingAndGlyphs" textLength="0" x="244" y="208.2705"/><!--class tags--><rect fill="#FEFECE" filter="url(#frdndip0pq1wm)" height="75.6719" id="tags" style="stroke: #A80036; stroke-width: 1.5;" width="67" x="490.5" y="73.5"/><ellipse cx="510.45" cy="89.5" fill="#ADD1B2" rx="11" ry="11" style="stroke: #A80036; stroke-width: 1.0;"/><path d="M509.1688,88.1719 L513.6844,88.1719 L513.6844,90.125 L509.1688,90.125 L509.1688,94.4219 L514.4031,94.4219 L514.4031,96.3594 L506.95,96.3594 L506.95,82.7344 L514.075,82.7344 L514.075,84.6719 L509.1688,84.6719 L509.1688,88.1719 Z "/><text fill="#000000" font-family="sans-serif" font-size="12" lengthAdjust="spacingAndGlyphs" textLength="24" x="525.55" y="94.4102">tags</text><line style="stroke: #A80036; stroke-width: 1.5;" x1="491.5" x2="556.5" y1="105.5" y2="105.5"/><text fill="#000000" font-family="sans-serif" font-size="11" lengthAdjust="spacingAndGlyphs" textLength="25" x="496.5" y="120.9189">int tid</text><line style="stroke: #A80036; stroke-width: 1.0;" x1="491.5" x2="556.5" y1="127.3359" y2="127.3359"/><text fill="#000000" font-family="sans-serif" font-size="11" lengthAdjust="spacingAndGlyphs" textLength="55" x="496.5" y="142.7549">int tname</text><!--class nortifications--><rect fill="#FEFECE" filter="url(#frdndip0pq1wm)" height="163.0156" id="nortifications" style="stroke: #A80036; stroke-width: 1.5;" width="110" x="141" y="286"/><ellipse cx="159.6" cy="302" fill="#ADD1B2" rx="11" ry="11" style="stroke: #A80036; stroke-width: 1.0;"/><path d="M158.3188,300.6719 L162.8344,300.6719 L162.8344,302.625 L158.3188,302.625 L158.3188,306.9219 L163.5531,306.9219 L163.5531,308.8594 L156.1,308.8594 L156.1,295.2344 L163.225,295.2344 L163.225,297.1719 L158.3188,297.1719 L158.3188,300.6719 Z "/><text fill="#000000" font-family="sans-serif" font-size="12" lengthAdjust="spacingAndGlyphs" textLength="70" x="174.4" y="306.9102">nortifications</text><line style="stroke: #A80036; stroke-width: 1.5;" x1="142" x2="250" y1="318" y2="318"/><text fill="#000000" font-family="sans-serif" font-size="11" lengthAdjust="spacingAndGlyphs" textLength="28" x="147" y="333.4189">int nid</text><line style="stroke: #A80036; stroke-width: 1.0;" x1="142" x2="250" y1="339.8359" y2="339.8359"/><text fill="#000000" font-family="sans-serif" font-size="11" lengthAdjust="spacingAndGlyphs" textLength="70" x="147" y="355.2549">datetime ndate</text><line style="stroke: #A80036; stroke-width: 1.0;" x1="142" x2="250" y1="361.6719" y2="361.6719"/><text fill="#000000" font-family="sans-serif" font-size="11" lengthAdjust="spacingAndGlyphs" textLength="98" x="147" y="377.0908">varchar(255) ndetail</text><line style="stroke: #A80036; stroke-width: 1.0;" x1="142" x2="250" y1="383.5078" y2="383.5078"/><text fill="#000000" font-family="sans-serif" font-size="11" lengthAdjust="spacingAndGlyphs" textLength="89" x="147" y="398.9268">varchar(255) ntitle</text><line style="stroke: #A80036; stroke-width: 1.0;" x1="142" x2="250" y1="405.3438" y2="405.3438"/><text fill="#000000" font-family="sans-serif" font-size="11" lengthAdjust="spacingAndGlyphs" textLength="94" x="147" y="420.7627">varchar(255) ntype</text><line style="stroke: #A80036; stroke-width: 1.0;" x1="142" x2="250" y1="427.1797" y2="427.1797"/><text fill="#000000" font-family="sans-serif" font-size="11" lengthAdjust="spacingAndGlyphs" textLength="28" x="147" y="442.5986">int uid</text><!--class settings--><rect fill="#FEFECE" filter="url(#frdndip0pq1wm)" height="184.8516" id="settings" style="stroke: #A80036; stroke-width: 1.5;" width="166" x="286" y="275"/><ellipse cx="342.75" cy="291" fill="#ADD1B2" rx="11" ry="11" style="stroke: #A80036; stroke-width: 1.0;"/><path d="M341.4688,289.6719 L345.9844,289.6719 L345.9844,291.625 L341.4688,291.625 L341.4688,295.9219 L346.7031,295.9219 L346.7031,297.8594 L339.25,297.8594 L339.25,284.2344 L346.375,284.2344 L346.375,286.1719 L341.4688,286.1719 L341.4688,289.6719 Z "/><text fill="#000000" font-family="sans-serif" font-size="12" lengthAdjust="spacingAndGlyphs" textLength="44" x="363.25" y="295.9102">settings</text><line style="stroke: #A80036; stroke-width: 1.5;" x1="287" x2="451" y1="307" y2="307"/><text fill="#000000" font-family="sans-serif" font-size="11" lengthAdjust="spacingAndGlyphs" textLength="28" x="292" y="322.4189">int sid</text><line style="stroke: #A80036; stroke-width: 1.0;" x1="287" x2="451" y1="328.8359" y2="328.8359"/><text fill="#000000" font-family="sans-serif" font-size="11" lengthAdjust="spacingAndGlyphs" textLength="138" x="292" y="344.2549">varchar(255) accountsetting</text><line style="stroke: #A80036; stroke-width: 1.0;" x1="287" x2="451" y1="350.6719" y2="350.6719"/><text fill="#000000" font-family="sans-serif" font-size="11" lengthAdjust="spacingAndGlyphs" textLength="154" x="292" y="366.0908">varchar(255) customizesetting1</text><line style="stroke: #A80036; stroke-width: 1.0;" x1="287" x2="451" y1="372.5078" y2="372.5078"/><text fill="#000000" font-family="sans-serif" font-size="11" lengthAdjust="spacingAndGlyphs" textLength="121" x="292" y="387.9268">varchar(255) norsetting1</text><line style="stroke: #A80036; stroke-width: 1.0;" x1="287" x2="451" y1="394.3438" y2="394.3438"/><text fill="#000000" font-family="sans-serif" font-size="11" lengthAdjust="spacingAndGlyphs" textLength="135" x="292" y="409.7627">varchar(255) profilesetting1</text><line style="stroke: #A80036; stroke-width: 1.0;" x1="287" x2="451" y1="416.1797" y2="416.1797"/><text fill="#000000" font-family="sans-serif" font-size="11" lengthAdjust="spacingAndGlyphs" textLength="28" x="292" y="431.5986">int uid</text><line style="stroke: #A80036; stroke-width: 1.0;" x1="287" x2="451" y1="438.0156" y2="438.0156"/><text fill="#000000" font-family="sans-serif" font-size="11" lengthAdjust="spacingAndGlyphs" textLength="86" x="292" y="453.4346">bit(1) uservisibled</text><!--class userapp--><rect fill="#FEFECE" filter="url(#frdndip0pq1wm)" height="75.6719" id="userapp" style="stroke: #A80036; stroke-width: 1.5;" width="78" x="28" y="329.5"/><ellipse cx="43" cy="345.5" fill="#ADD1B2" rx="11" ry="11" style="stroke: #A80036; stroke-width: 1.0;"/><path d="M41.7188,344.1719 L46.2344,344.1719 L46.2344,346.125 L41.7188,346.125 L41.7188,350.4219 L46.9531,350.4219 L46.9531,352.3594 L39.5,352.3594 L39.5,338.7344 L46.625,338.7344 L46.625,340.6719 L41.7188,340.6719 L41.7188,344.1719 Z "/><text fill="#000000" font-family="sans-serif" font-size="12" lengthAdjust="spacingAndGlyphs" textLength="46" x="57" y="350.4102">userapp</text><line style="stroke: #A80036; stroke-width: 1.5;" x1="29" x2="105" y1="361.5" y2="361.5"/><text fill="#000000" font-family="sans-serif" font-size="11" lengthAdjust="spacingAndGlyphs" textLength="28" x="34" y="376.9189">int uid</text><line style="stroke: #A80036; stroke-width: 1.0;" x1="29" x2="105" y1="383.3359" y2="383.3359"/><text fill="#000000" font-family="sans-serif" font-size="11" lengthAdjust="spacingAndGlyphs" textLength="28" x="34" y="398.7549">int aid</text><!--class usertag--><rect fill="#FEFECE" filter="url(#frdndip0pq1wm)" height="75.6719" id="usertag" style="stroke: #A80036; stroke-width: 1.5;" width="74" x="487" y="329.5"/><ellipse cx="502" cy="345.5" fill="#ADD1B2" rx="11" ry="11" style="stroke: #A80036; stroke-width: 1.0;"/><path d="M500.7188,344.1719 L505.2344,344.1719 L505.2344,346.125 L500.7188,346.125 L500.7188,350.4219 L505.9531,350.4219 L505.9531,352.3594 L498.5,352.3594 L498.5,338.7344 L505.625,338.7344 L505.625,340.6719 L500.7188,340.6719 L500.7188,344.1719 Z "/><text fill="#000000" font-family="sans-serif" font-size="12" lengthAdjust="spacingAndGlyphs" textLength="42" x="516" y="350.4102">usertag</text><line style="stroke: #A80036; stroke-width: 1.5;" x1="488" x2="560" y1="361.5" y2="361.5"/><text fill="#000000" font-family="sans-serif" font-size="11" lengthAdjust="spacingAndGlyphs" textLength="28" x="493" y="376.9189">int uid</text><line style="stroke: #A80036; stroke-width: 1.0;" x1="488" x2="560" y1="383.3359" y2="383.3359"/><text fill="#000000" font-family="sans-serif" font-size="11" lengthAdjust="spacingAndGlyphs" textLength="25" x="493" y="398.7549">int tid</text><!--link apps to userapp--><path d="M67,190.452 C67,233.249 67,284.827 67,321.057 " fill="none" id="apps-userapp" style="stroke: #A80036; stroke-width: 1.0;"/><line style="stroke: #A80036; stroke-width: 1.0;" x1="67" x2="73" y1="321.462" y2="329.462"/><line style="stroke: #A80036; stroke-width: 1.0;" x1="67" x2="61" y1="321.462" y2="329.462"/><line style="stroke: #A80036; stroke-width: 1.0;" x1="67" x2="67" y1="321.462" y2="329.462"/><ellipse cx="67" cy="315.462" fill="none" rx="4" ry="4" style="stroke: #A80036; stroke-width: 1.0;"/><line style="stroke: #A80036; stroke-width: 1.0;" x1="63" x2="71" y1="186.243" y2="186.243"/><line style="stroke: #A80036; stroke-width: 1.0;" x1="63" x2="71" y1="189.243" y2="189.243"/><line style="stroke: #A80036; stroke-width: 1.0;" x1="67" x2="67" y1="190.243" y2="182.243"/><!--link users to userapp--><path d="M228.638,168.163 C194.816,197.923 154.458,236.332 123,275 C111.177,289.533 99.9985,306.773 90.784,322.348 " fill="none" id="users-userapp" style="stroke: #A80036; stroke-width: 1.0;"/><line style="stroke: #A80036; stroke-width: 1.0;" x1="90.7201" x2="91.8776" y1="322.4594" y2="332.3922"/><line style="stroke: #A80036; stroke-width: 1.0;" x1="90.7201" x2="81.5088" y1="322.4594" y2="326.3518"/><line style="stroke: #A80036; stroke-width: 1.0;" x1="90.7201" x2="86.6932" y1="322.4594" y2="329.372"/><ellipse cx="93.7403" cy="317.275" fill="none" rx="4" ry="4" style="stroke: #A80036; stroke-width: 1.0;"/><line style="stroke: #A80036; stroke-width: 1.0;" x1="229.2297" x2="234.4969" y1="162.3309" y2="168.3523"/><line style="stroke: #A80036; stroke-width: 1.0;" x1="226.9717" x2="232.2388" y1="164.306" y2="170.3274"/><line style="stroke: #A80036; stroke-width: 1.0;" x1="228.8526" x2="234.874" y1="167.9751" y2="162.708"/><!--link tags to usertag--><path d="M524,157.9 C524,204.028 524,275.068 524,321.171 " fill="none" id="tags-usertag" style="stroke: #A80036; stroke-width: 1.0;"/><line style="stroke: #A80036; stroke-width: 1.0;" x1="524" x2="530" y1="321.195" y2="329.195"/><line style="stroke: #A80036; stroke-width: 1.0;" x1="524" x2="518" y1="321.195" y2="329.195"/><line style="stroke: #A80036; stroke-width: 1.0;" x1="524" x2="524" y1="321.195" y2="329.195"/><ellipse cx="524" cy="315.195" fill="none" rx="4" ry="4" style="stroke: #A80036; stroke-width: 1.0;"/><line style="stroke: #A80036; stroke-width: 1.0;" x1="520" x2="528" y1="153.706" y2="153.706"/><line style="stroke: #A80036; stroke-width: 1.0;" x1="520" x2="528" y1="156.706" y2="156.706"/><line style="stroke: #A80036; stroke-width: 1.0;" x1="524" x2="524" y1="157.706" y2="149.706"/><!--link users to usertag--><path d="M363.491,168.058 C397.347,197.791 437.696,236.207 469,275 C480.708,289.51 491.707,306.744 500.747,322.322 " fill="none" id="users-usertag" style="stroke: #A80036; stroke-width: 1.0;"/><line style="stroke: #A80036; stroke-width: 1.0;" x1="500.792" x2="509.9688" y1="322.3993" y2="326.3725"/><line style="stroke: #A80036; stroke-width: 1.0;" x1="500.792" x2="499.5472" y1="322.3993" y2="332.3215"/><line style="stroke: #A80036; stroke-width: 1.0;" x1="500.792" x2="504.758" y1="322.3993" y2="329.347"/><ellipse cx="497.8174" cy="317.1885" fill="none" rx="4" ry="4" style="stroke: #A80036; stroke-width: 1.0;"/><line style="stroke: #A80036; stroke-width: 1.0;" x1="357.6318" x2="362.8929" y1="168.2529" y2="162.2262"/><line style="stroke: #A80036; stroke-width: 1.0;" x1="359.8918" x2="365.1529" y1="170.2258" y2="164.1991"/><line style="stroke: #A80036; stroke-width: 1.0;" x1="363.2757" x2="357.249" y1="167.8701" y2="162.609"/><!--link users to nortifications--><path d="M252.668,222.564 C245.349,241.154 237.835,260.238 230.771,278.183 " fill="none" id="users-nortifications" style="stroke: #A80036; stroke-width: 1.0;"/><line style="stroke: #A80036; stroke-width: 1.0;" x1="230.7032" x2="233.3547" y1="278.3553" y2="287.9974"/><line style="stroke: #A80036; stroke-width: 1.0;" x1="230.7032" x2="222.1893" y1="278.3553" y2="283.6006"/><line style="stroke: #A80036; stroke-width: 1.0;" x1="230.7032" x2="227.772" y1="278.3553" y2="285.799"/><ellipse cx="232.9016" cy="272.7726" fill="none" rx="4" ry="4" style="stroke: #A80036; stroke-width: 1.0;"/><line style="stroke: #A80036; stroke-width: 1.0;" x1="250.4269" x2="257.8711" y1="217.3361" y2="220.2661"/><line style="stroke: #A80036; stroke-width: 1.0;" x1="249.3282" x2="256.7724" y1="220.1277" y2="223.0576"/><line style="stroke: #A80036; stroke-width: 1.0;" x1="252.6841" x2="255.614" y1="222.5232" y2="215.079"/><!--link users to settings--><path d="M327.747,222.963 C331.926,237.501 336.188,252.334 340.312,266.681 " fill="none" id="users-settings" style="stroke: #A80036; stroke-width: 1.0;"/><line style="stroke: #A80036; stroke-width: 1.0;" x1="340.3783" x2="348.3538" y1="266.9079" y2="272.9405"/><line style="stroke: #A80036; stroke-width: 1.0;" x1="340.3783" x2="336.8202" y1="266.9079" y2="276.2535"/><line style="stroke: #A80036; stroke-width: 1.0;" x1="340.3783" x2="342.587" y1="266.9079" y2="274.597"/><ellipse cx="338.7218" cy="261.1412" fill="none" rx="4" ry="4" style="stroke: #A80036; stroke-width: 1.0;"/><line style="stroke: #A80036; stroke-width: 1.0;" x1="322.7417" x2="330.4304" y1="220.0284" y2="217.8183"/><line style="stroke: #A80036; stroke-width: 1.0;" x1="323.5704" x2="331.2591" y1="222.9116" y2="220.7016"/><line style="stroke: #A80036; stroke-width: 1.0;" x1="327.691" x2="325.481" y1="222.7677" y2="215.079"/><!--
@startuml
entity apps {
	int aid
	- - -
	bit(1) adisabled
	- - -
	varchar(255) aimgpath
	- - -
	varchar(255) aname
	- - -
	varchar(255) aurl
}
entity users{
	int uid
	- - -
	varchar(255) udesc
	- - -
	bit(1) udisabled
	- - -
	varchar(255) uimgpath
	- - -
	varchar(255) umail
	- - -
	varchar(255) uname
	- - -
	varchar(255) userid
	- - -
	
}
entity tags{
	int tid
	- - -
	int tname
}
entity nortifications{
	int nid
	- - -
	datetime ndate
	- - -
	varchar(255) ndetail
	- - -
	varchar(255) ntitle
	- - -
	varchar(255) ntype
	- - -
	int uid
}
entity settings{
	int sid
	- - -
	varchar(255) accountsetting
	- - -
	varchar(255) customizesetting1
	- - -
	varchar(255) norsetting1
	- - -
	varchar(255) profilesetting1
	- - -
	int uid
	- - -
	bit(1) uservisibled
}
entity userapp{
	int uid
	- - -
	int aid
}
entity usertag{
	int uid
	- - -
	int tid
}
apps ||- -o{ userapp
users ||- -o{ userapp
tags  ||- -o{ usertag
users  ||- -o{ usertag
users  ||- -o{ nortifications
users  ||- -o{ settings
@enduml

PlantUML version 1.2019.06(Sat May 25 02:10:25 JST 2019)
(GPL source distribution)
Java Runtime: OpenJDK Runtime Environment
JVM: OpenJDK 64-Bit Server VM
Java Version: 14.0.1+7
Operating System: Windows 10
OS Version: 10.0
Default Encoding: MS932
Language: ja
Country: JP
--></g></svg>