<?xml version="1.0" encoding="UTF-8" standalone="no"?><svg xmlns="http://www.w3.org/2000/svg" xmlns:xlink="http://www.w3.org/1999/xlink" contentScriptType="application/ecmascript" contentStyleType="text/css" height="592px" preserveAspectRatio="none" style="width:554px;height:592px;" version="1.1" viewBox="0 0 554 592" width="554px" zoomAndPan="magnify"><defs><filter height="300%" id="f1mfgjw86nv8j0" width="300%" x="-1" y="-1"><feGaussianBlur result="blurOut" stdDeviation="2.0"/><feColorMatrix in="blurOut" result="blurOut2" type="matrix" values="0 0 0 0 0 0 0 0 0 0 0 0 0 0 0 0 0 0 .4 0"/><feOffset dx="4.0" dy="4.0" in="blurOut2" result="blurOut3"/><feBlend in="SourceGraphic" in2="blurOut3" mode="normal"/></filter></defs><g><!--cluster Edit--><polygon fill="#FFFFFF" filter="url(#f1mfgjw86nv8j0)" points="22,24,55,24,62,47.6094,532,47.6094,532,580,22,580,22,24" style="stroke: #000000; stroke-width: 1.5;"/><line style="stroke: #000000; stroke-width: 1.5;" x1="22" x2="62" y1="47.6094" y2="47.6094"/><text fill="#000000" font-family="sans-serif" font-size="14" font-weight="bold" lengthAdjust="spacingAndGlyphs" textLength="27" x="26" y="40.5332">Edit</text><!--cluster UILayer--><rect fill="#FFFFFF" filter="url(#f1mfgjw86nv8j0)" height="100" style="stroke: #000000; stroke-width: 1.5;" width="144" x="46" y="68"/><text fill="#000000" font-family="sans-serif" font-size="14" font-weight="bold" lengthAdjust="spacingAndGlyphs" textLength="52" x="92" y="84.5332">UILayer</text><!--cluster AppLayer--><rect fill="#FFFFFF" filter="url(#f1mfgjw86nv8j0)" height="100" style="stroke: #000000; stroke-width: 1.5;" width="265" x="214" y="68"/><text fill="#000000" font-family="sans-serif" font-size="14" font-weight="bold" lengthAdjust="spacingAndGlyphs" textLength="65" x="314" y="84.5332">AppLayer</text><!--cluster DomainLayer--><rect fill="#FFFFFF" filter="url(#f1mfgjw86nv8j0)" height="224" style="stroke: #000000; stroke-width: 1.5;" width="325" x="175" y="200"/><text fill="#000000" font-family="sans-serif" font-size="14" font-weight="bold" lengthAdjust="spacingAndGlyphs" textLength="90" x="292.5" y="216.5332">DomainLayer</text><!--cluster InfrastructureLayer--><rect fill="#FFFFFF" filter="url(#f1mfgjw86nv8j0)" height="100" style="stroke: #000000; stroke-width: 1.5;" width="327" x="181" y="456"/><text fill="#000000" font-family="sans-serif" font-size="14" font-weight="bold" lengthAdjust="spacingAndGlyphs" textLength="135" x="277" y="472.5332">InfrastructureLayer</text><!--class EditAppConfig--><rect fill="#FEFECE" filter="url(#f1mfgjw86nv8j0)" height="48" id="EditAppConfig" style="stroke: #A80036; stroke-width: 1.5;" width="110" x="38" y="244"/><ellipse cx="53" cy="260" fill="#ADD1B2" rx="11" ry="11" style="stroke: #A80036; stroke-width: 1.0;"/><path d="M55.7031,265.4375 Q54.7813,266.3594 52.5156,266.3594 Q51.25,266.3594 50.3281,265.4375 Q48.6719,263.7813 48.6719,260.25 Q48.6719,256.1406 50.4531,254.3438 Q51.3906,253.4219 52.5781,253.4219 Q54.8438,253.4219 55.5781,254.1406 Q56.9688,255.5469 56.9063,257.9375 L54.4375,257.9375 Q54.375,255.8125 53.6406,255.0781 Q53.25,254.6719 52.5781,254.6719 Q52.5781,254.6719 52.5156,255.1406 Q51.1875,256.4688 51.1875,260.125 Q51.1875,263.3125 52.3281,264.4375 Q52.8594,264.9688 52.8594,264.9688 Q53.1094,264.9688 53.6406,264.4375 Q54.3125,263.7813 54.375,261.3906 L56.9688,261.3906 Q56.7656,264.375 55.7031,265.4375 Z "/><text fill="#000000" font-family="sans-serif" font-size="12" lengthAdjust="spacingAndGlyphs" textLength="78" x="67" y="264.9102">EditAppConfig</text><line style="stroke: #A80036; stroke-width: 1.5;" x1="39" x2="147" y1="276" y2="276"/><line style="stroke: #A80036; stroke-width: 1.5;" x1="39" x2="147" y1="284" y2="284"/><!--class EditViewModel--><rect fill="#FEFECE" filter="url(#f1mfgjw86nv8j0)" height="48" id="EditViewModel" style="stroke: #A80036; stroke-width: 1.5;" width="112" x="62" y="104"/><ellipse cx="77" cy="120" fill="#ADD1B2" rx="11" ry="11" style="stroke: #A80036; stroke-width: 1.0;"/><path d="M79.7031,125.4375 Q78.7813,126.3594 76.5156,126.3594 Q75.25,126.3594 74.3281,125.4375 Q72.6719,123.7813 72.6719,120.25 Q72.6719,116.1406 74.4531,114.3438 Q75.3906,113.4219 76.5781,113.4219 Q78.8438,113.4219 79.5781,114.1406 Q80.9688,115.5469 80.9063,117.9375 L78.4375,117.9375 Q78.375,115.8125 77.6406,115.0781 Q77.25,114.6719 76.5781,114.6719 Q76.5781,114.6719 76.5156,115.1406 Q75.1875,116.4688 75.1875,120.125 Q75.1875,123.3125 76.3281,124.4375 Q76.8594,124.9688 76.8594,124.9688 Q77.1094,124.9688 77.6406,124.4375 Q78.3125,123.7813 78.375,121.3906 L80.9688,121.3906 Q80.7656,124.375 79.7031,125.4375 Z "/><text fill="#000000" font-family="sans-serif" font-size="12" lengthAdjust="spacingAndGlyphs" textLength="80" x="91" y="124.9102">EditViewModel</text><line style="stroke: #A80036; stroke-width: 1.5;" x1="63" x2="173" y1="136" y2="136"/><line style="stroke: #A80036; stroke-width: 1.5;" x1="63" x2="173" y1="144" y2="144"/><!--class EditController--><rect fill="#FEFECE" filter="url(#f1mfgjw86nv8j0)" height="48" id="EditController" style="stroke: #A80036; stroke-width: 1.5;" width="107" x="230.5" y="104"/><ellipse cx="245.5" cy="120" fill="#ADD1B2" rx="11" ry="11" style="stroke: #A80036; stroke-width: 1.0;"/><path d="M248.2031,125.4375 Q247.2813,126.3594 245.0156,126.3594 Q243.75,126.3594 242.8281,125.4375 Q241.1719,123.7813 241.1719,120.25 Q241.1719,116.1406 242.9531,114.3438 Q243.8906,113.4219 245.0781,113.4219 Q247.3438,113.4219 248.0781,114.1406 Q249.4688,115.5469 249.4063,117.9375 L246.9375,117.9375 Q246.875,115.8125 246.1406,115.0781 Q245.75,114.6719 245.0781,114.6719 Q245.0781,114.6719 245.0156,115.1406 Q243.6875,116.4688 243.6875,120.125 Q243.6875,123.3125 244.8281,124.4375 Q245.3594,124.9688 245.3594,124.9688 Q245.6094,124.9688 246.1406,124.4375 Q246.8125,123.7813 246.875,121.3906 L249.4688,121.3906 Q249.2656,124.375 248.2031,125.4375 Z "/><text fill="#000000" font-family="sans-serif" font-size="12" lengthAdjust="spacingAndGlyphs" textLength="75" x="259.5" y="124.9102">EditController</text><line style="stroke: #A80036; stroke-width: 1.5;" x1="231.5" x2="336.5" y1="136" y2="136"/><line style="stroke: #A80036; stroke-width: 1.5;" x1="231.5" x2="336.5" y1="144" y2="144"/><!--class EditHelper--><rect fill="#FEFECE" filter="url(#f1mfgjw86nv8j0)" height="48" id="EditHelper" style="stroke: #A80036; stroke-width: 1.5;" width="90" x="373" y="104"/><ellipse cx="388" cy="120" fill="#ADD1B2" rx="11" ry="11" style="stroke: #A80036; stroke-width: 1.0;"/><path d="M390.7031,125.4375 Q389.7813,126.3594 387.5156,126.3594 Q386.25,126.3594 385.3281,125.4375 Q383.6719,123.7813 383.6719,120.25 Q383.6719,116.1406 385.4531,114.3438 Q386.3906,113.4219 387.5781,113.4219 Q389.8438,113.4219 390.5781,114.1406 Q391.9688,115.5469 391.9063,117.9375 L389.4375,117.9375 Q389.375,115.8125 388.6406,115.0781 Q388.25,114.6719 387.5781,114.6719 Q387.5781,114.6719 387.5156,115.1406 Q386.1875,116.4688 386.1875,120.125 Q386.1875,123.3125 387.3281,124.4375 Q387.8594,124.9688 387.8594,124.9688 Q388.1094,124.9688 388.6406,124.4375 Q389.3125,123.7813 389.375,121.3906 L391.9688,121.3906 Q391.7656,124.375 390.7031,125.4375 Z "/><text fill="#000000" font-family="sans-serif" font-size="12" lengthAdjust="spacingAndGlyphs" textLength="58" x="402" y="124.9102">EditHelper</text><line style="stroke: #A80036; stroke-width: 1.5;" x1="374" x2="462" y1="136" y2="136"/><line style="stroke: #A80036; stroke-width: 1.5;" x1="374" x2="462" y1="144" y2="144"/><!--class EditServiceIF--><rect fill="#FEFECE" filter="url(#f1mfgjw86nv8j0)" height="48" id="EditServiceIF" style="stroke: #A80036; stroke-width: 1.5;" width="105" x="218.5" y="244"/><ellipse cx="233.5" cy="260" fill="#B4A7E5" rx="11" ry="11" style="stroke: #A80036; stroke-width: 1.0;"/><path d="M234.4844,264.9063 L235.2188,264.9063 L235.2188,266.3594 L231.2188,266.3594 L231.2188,264.9063 L231.9531,264.9063 L231.9531,254.875 L231.2188,254.875 L231.2188,253.4219 L235.2188,253.4219 L235.2188,254.875 L234.4844,254.875 L234.4844,264.9063 Z "/><text fill="#000000" font-family="sans-serif" font-size="12" font-style="italic" lengthAdjust="spacingAndGlyphs" textLength="73" x="247.5" y="264.9102">EditServiceIF</text><line style="stroke: #A80036; stroke-width: 1.5;" x1="219.5" x2="322.5" y1="276" y2="276"/><line style="stroke: #A80036; stroke-width: 1.5;" x1="219.5" x2="322.5" y1="284" y2="284"/><!--class EditServiceImpl--><rect fill="#FEFECE" filter="url(#f1mfgjw86nv8j0)" height="48" id="EditServiceImpl" style="stroke: #A80036; stroke-width: 1.5;" width="117" x="358.5" y="244"/><ellipse cx="373.5" cy="260" fill="#ADD1B2" rx="11" ry="11" style="stroke: #A80036; stroke-width: 1.0;"/><path d="M376.2031,265.4375 Q375.2813,266.3594 373.0156,266.3594 Q371.75,266.3594 370.8281,265.4375 Q369.1719,263.7813 369.1719,260.25 Q369.1719,256.1406 370.9531,254.3438 Q371.8906,253.4219 373.0781,253.4219 Q375.3438,253.4219 376.0781,254.1406 Q377.4688,255.5469 377.4063,257.9375 L374.9375,257.9375 Q374.875,255.8125 374.1406,255.0781 Q373.75,254.6719 373.0781,254.6719 Q373.0781,254.6719 373.0156,255.1406 Q371.6875,256.4688 371.6875,260.125 Q371.6875,263.3125 372.8281,264.4375 Q373.3594,264.9688 373.3594,264.9688 Q373.6094,264.9688 374.1406,264.4375 Q374.8125,263.7813 374.875,261.3906 L377.4688,261.3906 Q377.2656,264.375 376.2031,265.4375 Z "/><text fill="#000000" font-family="sans-serif" font-size="12" lengthAdjust="spacingAndGlyphs" textLength="85" x="387.5" y="264.9102">EditServiceImpl</text><line style="stroke: #A80036; stroke-width: 1.5;" x1="359.5" x2="474.5" y1="276" y2="276"/><line style="stroke: #A80036; stroke-width: 1.5;" x1="359.5" x2="474.5" y1="284" y2="284"/><!--class EditDomain--><rect fill="#FEFECE" filter="url(#f1mfgjw86nv8j0)" height="48" id="EditDomain" style="stroke: #A80036; stroke-width: 1.5;" width="97" x="220.5" y="352"/><ellipse cx="235.5" cy="368" fill="#ADD1B2" rx="11" ry="11" style="stroke: #A80036; stroke-width: 1.0;"/><path d="M238.2031,373.4375 Q237.2813,374.3594 235.0156,374.3594 Q233.75,374.3594 232.8281,373.4375 Q231.1719,371.7813 231.1719,368.25 Q231.1719,364.1406 232.9531,362.3438 Q233.8906,361.4219 235.0781,361.4219 Q237.3438,361.4219 238.0781,362.1406 Q239.4688,363.5469 239.4063,365.9375 L236.9375,365.9375 Q236.875,363.8125 236.1406,363.0781 Q235.75,362.6719 235.0781,362.6719 Q235.0781,362.6719 235.0156,363.1406 Q233.6875,364.4688 233.6875,368.125 Q233.6875,371.3125 234.8281,372.4375 Q235.3594,372.9688 235.3594,372.9688 Q235.6094,372.9688 236.1406,372.4375 Q236.8125,371.7813 236.875,369.3906 L239.4688,369.3906 Q239.2656,372.375 238.2031,373.4375 Z "/><text fill="#000000" font-family="sans-serif" font-size="12" lengthAdjust="spacingAndGlyphs" textLength="65" x="249.5" y="372.9102">EditDomain</text><line style="stroke: #A80036; stroke-width: 1.5;" x1="221.5" x2="316.5" y1="384" y2="384"/><line style="stroke: #A80036; stroke-width: 1.5;" x1="221.5" x2="316.5" y1="392" y2="392"/><!--class EditRepositoryIF--><rect fill="#FEFECE" filter="url(#f1mfgjw86nv8j0)" height="48" id="EditRepositoryIF" style="stroke: #A80036; stroke-width: 1.5;" width="123" x="197.5" y="492"/><ellipse cx="212.5" cy="508" fill="#B4A7E5" rx="11" ry="11" style="stroke: #A80036; stroke-width: 1.0;"/><path d="M213.4844,512.9063 L214.2188,512.9063 L214.2188,514.3594 L210.2188,514.3594 L210.2188,512.9063 L210.9531,512.9063 L210.9531,502.875 L210.2188,502.875 L210.2188,501.4219 L214.2188,501.4219 L214.2188,502.875 L213.4844,502.875 L213.4844,512.9063 Z "/><text fill="#000000" font-family="sans-serif" font-size="12" font-style="italic" lengthAdjust="spacingAndGlyphs" textLength="91" x="226.5" y="512.9102">EditRepositoryIF</text><line style="stroke: #A80036; stroke-width: 1.5;" x1="198.5" x2="319.5" y1="524" y2="524"/><line style="stroke: #A80036; stroke-width: 1.5;" x1="198.5" x2="319.5" y1="532" y2="532"/><!--class EditRepositoryImpl--><rect fill="#FEFECE" filter="url(#f1mfgjw86nv8j0)" height="48" id="EditRepositoryImpl" style="stroke: #A80036; stroke-width: 1.5;" width="136" x="356" y="492"/><ellipse cx="371" cy="508" fill="#ADD1B2" rx="11" ry="11" style="stroke: #A80036; stroke-width: 1.0;"/><path d="M373.7031,513.4375 Q372.7813,514.3594 370.5156,514.3594 Q369.25,514.3594 368.3281,513.4375 Q366.6719,511.7813 366.6719,508.25 Q366.6719,504.1406 368.4531,502.3438 Q369.3906,501.4219 370.5781,501.4219 Q372.8438,501.4219 373.5781,502.1406 Q374.9688,503.5469 374.9063,505.9375 L372.4375,505.9375 Q372.375,503.8125 371.6406,503.0781 Q371.25,502.6719 370.5781,502.6719 Q370.5781,502.6719 370.5156,503.1406 Q369.1875,504.4688 369.1875,508.125 Q369.1875,511.3125 370.3281,512.4375 Q370.8594,512.9688 370.8594,512.9688 Q371.1094,512.9688 371.6406,512.4375 Q372.3125,511.7813 372.375,509.3906 L374.9688,509.3906 Q374.7656,512.375 373.7031,513.4375 Z "/><text fill="#000000" font-family="sans-serif" font-size="12" lengthAdjust="spacingAndGlyphs" textLength="104" x="385" y="512.9102">EditRepositoryImpl</text><line style="stroke: #A80036; stroke-width: 1.5;" x1="357" x2="491" y1="524" y2="524"/><line style="stroke: #A80036; stroke-width: 1.5;" x1="357" x2="491" y1="532" y2="532"/><!--link EditViewModel to EditController--><path d="M174.09,128 C191.08,128 208.07,128 225.06,128 " fill="none" id="EditViewModel-EditController" style="stroke: #A80036; stroke-width: 1.0;"/><polygon fill="#A80036" points="230.333,128,221.333,124,225.333,128,221.333,132,230.333,128" style="stroke: #A80036; stroke-width: 1.0;"/><!--link EditController to EditHelper--><path d="M337.652,128 C347.63,128 357.608,128 367.587,128 " fill="none" id="EditController-EditHelper" style="stroke: #A80036; stroke-width: 1.0;"/><polygon fill="#A80036" points="372.804,128,363.804,124,367.804,128,363.804,132,372.804,128" style="stroke: #A80036; stroke-width: 1.0;"/><!--link EditHelper to EditServiceIF--><path d="M388.411,152.235 C378.04,160.065 366.186,168.671 355,176 C349.006,179.928 346.506,179.413 341,184 C321.508,200.241 303.163,222.347 290.146,239.662 " fill="none" id="EditHelper-EditServiceIF" style="stroke: #A80036; stroke-width: 1.0;"/><polygon fill="#A80036" points="286.954,243.954,295.5342,239.1186,289.9375,239.9417,289.1145,234.345,286.954,243.954" style="stroke: #A80036; stroke-width: 1.0;"/><!--link EditController to EditServiceIF--><path d="M281.824,152.098 C279.584,175.88 276.089,212.978 273.68,238.553 " fill="none" id="EditController-EditServiceIF" style="stroke: #A80036; stroke-width: 1.0;"/><polygon fill="#A80036" points="273.183,243.827,278.0114,235.2429,273.6531,238.8491,270.0468,234.4908,273.183,243.827" style="stroke: #A80036; stroke-width: 1.0;"/><!--link EditServiceIF to EditDomain--><path d="M270.566,292 C270.233,309.658 269.775,333.941 269.44,351.678 " fill="none" id="EditServiceIF-EditDomain" style="stroke: #A80036; stroke-width: 1.0; stroke-dasharray: 7.0,7.0;"/><!--link EditServiceIF to EditServiceImpl--><path d="M343.759,268 C348.625,268 353.491,268 358.357,268 " fill="none" id="EditServiceIF-EditServiceImpl" style="stroke: #A80036; stroke-width: 1.0;"/><polygon fill="none" points="343.754,275,323.754,268,343.754,261,343.754,275" style="stroke: #A80036; stroke-width: 1.0;"/><!--link DomainLayer to EditAppConfig--><!--link EditDomain to EditRepositoryIF--><path d="M267.326,400.098 C265.48,425.572 262.527,466.322 260.679,491.827 " fill="none" id="EditDomain-EditRepositoryIF" style="stroke: #A80036; stroke-width: 1.0; stroke-dasharray: 7.0,7.0;"/><!--link EditServiceImpl to EditRepositoryIF--><path d="M408.815,292.223 C396.12,326.452 369.51,391.618 335,440 C322.405,457.657 305.448,474.841 290.747,488.295 " fill="none" id="EditServiceImpl-EditRepositoryIF" style="stroke: #A80036; stroke-width: 1.0;"/><polygon fill="#A80036" points="286.666,491.988,296.0227,488.9137,290.3729,488.6325,290.654,482.9827,286.666,491.988" style="stroke: #A80036; stroke-width: 1.0;"/><!--link EditRepositoryIF to EditRepositoryImpl--><path d="M340.603,516 C345.638,516 350.673,516 355.709,516 " fill="none" id="EditRepositoryIF-EditRepositoryImpl" style="stroke: #A80036; stroke-width: 1.0;"/><polygon fill="none" points="340.553,522.9999,320.553,516,340.553,508.9999,340.553,522.9999" style="stroke: #A80036; stroke-width: 1.0;"/><!--
@startuml
Package Edit {
    package UILayer <<Rectangle>>{
        class EditViewModel
    }
    package AppLayer <<Rectangle>>{
        class EditController
        class EditHelper
        EditController <-right- EditViewModel
        EditController -right-> EditHelper
    }
    package DomainLayer <<Rectangle>>{
        interface EditServiceIF
        class EditServiceImpl
        class EditDomain
        EditHelper -down-> EditServiceIF
        EditController -down-> EditServiceIF
        EditServiceIF .down. EditDomain
        EditServiceIF <|-right- EditServiceImpl
    }
	class EditAppConfig
	DomainLayer -[hidden]> EditAppConfig
    package InfrastructureLayer <<Rectangle>>{
        interface EditRepositoryIF
        class EditRepositoryImpl
        EditDomain .down. EditRepositoryIF
        EditServiceImpl -down-> EditRepositoryIF
        EditRepositoryIF <|-right- EditRepositoryImpl
    }
}
@enduml

PlantUML version 1.2019.06(Sat May 25 02:10:25 JST 2019)
(GPL source distribution)
Java Runtime: Java(TM) SE Runtime Environment
JVM: Java HotSpot(TM) 64-Bit Server VM
Java Version: 1.8.0_231-b11
Operating System: Windows 10
OS Version: 10.0
Default Encoding: MS932
Language: ja
Country: JP
--></g></svg>