<?xml version="1.0" encoding="UTF-8" standalone="no"?><svg xmlns="http://www.w3.org/2000/svg" xmlns:xlink="http://www.w3.org/1999/xlink" contentScriptType="application/ecmascript" contentStyleType="text/css" height="244px" preserveAspectRatio="none" style="width:768px;height:244px;" version="1.1" viewBox="0 0 768 244" width="768px" zoomAndPan="magnify"><defs><filter height="300%" id="f6duhuphigb0r" width="300%" x="-1" y="-1"><feGaussianBlur result="blurOut" stdDeviation="2.0"/><feColorMatrix in="blurOut" result="blurOut2" type="matrix" values="0 0 0 0 0 0 0 0 0 0 0 0 0 0 0 0 0 0 .4 0"/><feOffset dx="4.0" dy="4.0" in="blurOut2" result="blurOut3"/><feBlend in="SourceGraphic" in2="blurOut3" mode="normal"/></filter></defs><g><!--cluster 共通--><polygon fill="#FFFFFF" filter="url(#f6duhuphigb0r)" points="22,24,56,24,63,47.6094,650,47.6094,650,232,22,232,22,24" style="stroke: #000000; stroke-width: 1.5;"/><line style="stroke: #000000; stroke-width: 1.5;" x1="22" x2="63" y1="47.6094" y2="47.6094"/><text fill="#000000" font-family="sans-serif" font-size="14" font-weight="bold" lengthAdjust="spacingAndGlyphs" textLength="28" x="26" y="40.5332">共通</text><!--cluster sc2	--><polygon fill="#FFFFFF" filter="url(#f6duhuphigb0r)" points="674,132,712,132,719,155.6094,746,155.6094,746,232,674,232,674,132" style="stroke: #000000; stroke-width: 1.5;"/><line style="stroke: #000000; stroke-width: 1.5;" x1="674" x2="719" y1="155.6094" y2="155.6094"/><text fill="#000000" font-family="sans-serif" font-size="14" font-weight="bold" lengthAdjust="spacingAndGlyphs" textLength="24" x="678" y="148.5332">sc2</text><!--class header--><rect fill="#FEFECE" filter="url(#f6duhuphigb0r)" height="48" id="header" style="stroke: #A80036; stroke-width: 1.5;" width="71" x="485.5" y="60"/><ellipse cx="500.5" cy="76" fill="#ADD1B2" rx="11" ry="11" style="stroke: #A80036; stroke-width: 1.0;"/><path d="M504.1875,77.2031 Q503.9375,80.6875 502.7969,81.8438 Q501.7656,82.8594 500.3594,82.8594 Q498.9531,82.8594 497.9219,81.8438 Q496.1719,80.0781 496.1719,76.4063 Q496.1719,72.1563 498.0469,70.25 Q499.0938,69.2344 500.4219,69.2344 Q501.8281,69.2344 502.6719,70.0469 Q504.1563,71.5625 504.0781,74.4375 L501.9531,74.4375 Q501.875,72.1094 501.2344,71.4688 Q500.9531,71.1719 500.4219,71.1719 Q499.9688,71.1719 499.6094,71.5469 Q498.375,72.7656 498.375,76.2813 Q498.375,79.3281 499.4219,80.3438 Q499.8438,80.7813 500.3594,80.7813 Q500.8125,80.7813 501.25,80.3438 Q501.8125,79.7969 501.8906,77.2031 L504.1875,77.2031 Z "/><text fill="#000000" font-family="sans-serif" font-size="12" lengthAdjust="spacingAndGlyphs" textLength="39" x="514.5" y="80.9102">header</text><line style="stroke: #A80036; stroke-width: 1.5;" x1="486.5" x2="555.5" y1="92" y2="92"/><line style="stroke: #A80036; stroke-width: 1.5;" x1="486.5" x2="555.5" y1="100" y2="100"/><!--class sc1--><rect fill="#FEFECE" filter="url(#f6duhuphigb0r)" height="48" id="sc1" style="stroke: #A80036; stroke-width: 1.5;" width="52" x="582" y="168"/><ellipse cx="597" cy="184" fill="#ADD1B2" rx="11" ry="11" style="stroke: #A80036; stroke-width: 1.0;"/><path d="M600.6875,185.2031 Q600.4375,188.6875 599.2969,189.8438 Q598.2656,190.8594 596.8594,190.8594 Q595.4531,190.8594 594.4219,189.8438 Q592.6719,188.0781 592.6719,184.4063 Q592.6719,180.1563 594.5469,178.25 Q595.5938,177.2344 596.9219,177.2344 Q598.3281,177.2344 599.1719,178.0469 Q600.6563,179.5625 600.5781,182.4375 L598.4531,182.4375 Q598.375,180.1094 597.7344,179.4688 Q597.4531,179.1719 596.9219,179.1719 Q596.4688,179.1719 596.1094,179.5469 Q594.875,180.7656 594.875,184.2813 Q594.875,187.3281 595.9219,188.3438 Q596.3438,188.7813 596.8594,188.7813 Q597.3125,188.7813 597.75,188.3438 Q598.3125,187.7969 598.3906,185.2031 L600.6875,185.2031 Z "/><text fill="#000000" font-family="sans-serif" font-size="12" lengthAdjust="spacingAndGlyphs" textLength="20" x="611" y="188.9102">sc1</text><line style="stroke: #A80036; stroke-width: 1.5;" x1="583" x2="633" y1="200" y2="200"/><line style="stroke: #A80036; stroke-width: 1.5;" x1="583" x2="633" y1="208" y2="208"/><!--class sc7--><rect fill="#FEFECE" filter="url(#f6duhuphigb0r)" height="48" id="sc7" style="stroke: #A80036; stroke-width: 1.5;" width="52" x="408" y="168"/><ellipse cx="423" cy="184" fill="#ADD1B2" rx="11" ry="11" style="stroke: #A80036; stroke-width: 1.0;"/><path d="M426.6875,185.2031 Q426.4375,188.6875 425.2969,189.8438 Q424.2656,190.8594 422.8594,190.8594 Q421.4531,190.8594 420.4219,189.8438 Q418.6719,188.0781 418.6719,184.4063 Q418.6719,180.1563 420.5469,178.25 Q421.5938,177.2344 422.9219,177.2344 Q424.3281,177.2344 425.1719,178.0469 Q426.6563,179.5625 426.5781,182.4375 L424.4531,182.4375 Q424.375,180.1094 423.7344,179.4688 Q423.4531,179.1719 422.9219,179.1719 Q422.4688,179.1719 422.1094,179.5469 Q420.875,180.7656 420.875,184.2813 Q420.875,187.3281 421.9219,188.3438 Q422.3438,188.7813 422.8594,188.7813 Q423.3125,188.7813 423.75,188.3438 Q424.3125,187.7969 424.3906,185.2031 L426.6875,185.2031 Z "/><text fill="#000000" font-family="sans-serif" font-size="12" lengthAdjust="spacingAndGlyphs" textLength="20" x="437" y="188.9102">sc7</text><line style="stroke: #A80036; stroke-width: 1.5;" x1="409" x2="459" y1="200" y2="200"/><line style="stroke: #A80036; stroke-width: 1.5;" x1="409" x2="459" y1="208" y2="208"/><!--class sc8--><rect fill="#FEFECE" filter="url(#f6duhuphigb0r)" height="48" id="sc8" style="stroke: #A80036; stroke-width: 1.5;" width="52" x="495" y="168"/><ellipse cx="510" cy="184" fill="#ADD1B2" rx="11" ry="11" style="stroke: #A80036; stroke-width: 1.0;"/><path d="M513.6875,185.2031 Q513.4375,188.6875 512.2969,189.8438 Q511.2656,190.8594 509.8594,190.8594 Q508.4531,190.8594 507.4219,189.8438 Q505.6719,188.0781 505.6719,184.4063 Q505.6719,180.1563 507.5469,178.25 Q508.5938,177.2344 509.9219,177.2344 Q511.3281,177.2344 512.1719,178.0469 Q513.6563,179.5625 513.5781,182.4375 L511.4531,182.4375 Q511.375,180.1094 510.7344,179.4688 Q510.4531,179.1719 509.9219,179.1719 Q509.4688,179.1719 509.1094,179.5469 Q507.875,180.7656 507.875,184.2813 Q507.875,187.3281 508.9219,188.3438 Q509.3438,188.7813 509.8594,188.7813 Q510.3125,188.7813 510.75,188.3438 Q511.3125,187.7969 511.3906,185.2031 L513.6875,185.2031 Z "/><text fill="#000000" font-family="sans-serif" font-size="12" lengthAdjust="spacingAndGlyphs" textLength="20" x="524" y="188.9102">sc8</text><line style="stroke: #A80036; stroke-width: 1.5;" x1="496" x2="546" y1="200" y2="200"/><line style="stroke: #A80036; stroke-width: 1.5;" x1="496" x2="546" y1="208" y2="208"/><!--class sc9--><rect fill="#FEFECE" filter="url(#f6duhuphigb0r)" height="48" id="sc9" style="stroke: #A80036; stroke-width: 1.5;" width="52" x="321" y="168"/><ellipse cx="336" cy="184" fill="#ADD1B2" rx="11" ry="11" style="stroke: #A80036; stroke-width: 1.0;"/><path d="M339.6875,185.2031 Q339.4375,188.6875 338.2969,189.8438 Q337.2656,190.8594 335.8594,190.8594 Q334.4531,190.8594 333.4219,189.8438 Q331.6719,188.0781 331.6719,184.4063 Q331.6719,180.1563 333.5469,178.25 Q334.5938,177.2344 335.9219,177.2344 Q337.3281,177.2344 338.1719,178.0469 Q339.6563,179.5625 339.5781,182.4375 L337.4531,182.4375 Q337.375,180.1094 336.7344,179.4688 Q336.4531,179.1719 335.9219,179.1719 Q335.4688,179.1719 335.1094,179.5469 Q333.875,180.7656 333.875,184.2813 Q333.875,187.3281 334.9219,188.3438 Q335.3438,188.7813 335.8594,188.7813 Q336.3125,188.7813 336.75,188.3438 Q337.3125,187.7969 337.3906,185.2031 L339.6875,185.2031 Z "/><text fill="#000000" font-family="sans-serif" font-size="12" lengthAdjust="spacingAndGlyphs" textLength="20" x="350" y="188.9102">sc9</text><line style="stroke: #A80036; stroke-width: 1.5;" x1="322" x2="372" y1="200" y2="200"/><line style="stroke: #A80036; stroke-width: 1.5;" x1="322" x2="372" y1="208" y2="208"/><!--class footer--><rect fill="#FEFECE" filter="url(#f6duhuphigb0r)" height="48" id="footer" style="stroke: #A80036; stroke-width: 1.5;" width="63" x="177.5" y="60"/><ellipse cx="192.5" cy="76" fill="#ADD1B2" rx="11" ry="11" style="stroke: #A80036; stroke-width: 1.0;"/><path d="M196.1875,77.2031 Q195.9375,80.6875 194.7969,81.8438 Q193.7656,82.8594 192.3594,82.8594 Q190.9531,82.8594 189.9219,81.8438 Q188.1719,80.0781 188.1719,76.4063 Q188.1719,72.1563 190.0469,70.25 Q191.0938,69.2344 192.4219,69.2344 Q193.8281,69.2344 194.6719,70.0469 Q196.1563,71.5625 196.0781,74.4375 L193.9531,74.4375 Q193.875,72.1094 193.2344,71.4688 Q192.9531,71.1719 192.4219,71.1719 Q191.9688,71.1719 191.6094,71.5469 Q190.375,72.7656 190.375,76.2813 Q190.375,79.3281 191.4219,80.3438 Q191.8438,80.7813 192.3594,80.7813 Q192.8125,80.7813 193.25,80.3438 Q193.8125,79.7969 193.8906,77.2031 L196.1875,77.2031 Z "/><text fill="#000000" font-family="sans-serif" font-size="12" lengthAdjust="spacingAndGlyphs" textLength="31" x="206.5" y="80.9102">footer</text><line style="stroke: #A80036; stroke-width: 1.5;" x1="178.5" x2="239.5" y1="92" y2="92"/><line style="stroke: #A80036; stroke-width: 1.5;" x1="178.5" x2="239.5" y1="100" y2="100"/><!--class sc12--><rect fill="#FEFECE" filter="url(#f6duhuphigb0r)" height="48" id="sc12" style="stroke: #A80036; stroke-width: 1.5;" width="59" x="38.5" y="168"/><ellipse cx="53.5" cy="184" fill="#ADD1B2" rx="11" ry="11" style="stroke: #A80036; stroke-width: 1.0;"/><path d="M57.1875,185.2031 Q56.9375,188.6875 55.7969,189.8438 Q54.7656,190.8594 53.3594,190.8594 Q51.9531,190.8594 50.9219,189.8438 Q49.1719,188.0781 49.1719,184.4063 Q49.1719,180.1563 51.0469,178.25 Q52.0938,177.2344 53.4219,177.2344 Q54.8281,177.2344 55.6719,178.0469 Q57.1563,179.5625 57.0781,182.4375 L54.9531,182.4375 Q54.875,180.1094 54.2344,179.4688 Q53.9531,179.1719 53.4219,179.1719 Q52.9688,179.1719 52.6094,179.5469 Q51.375,180.7656 51.375,184.2813 Q51.375,187.3281 52.4219,188.3438 Q52.8438,188.7813 53.3594,188.7813 Q53.8125,188.7813 54.25,188.3438 Q54.8125,187.7969 54.8906,185.2031 L57.1875,185.2031 Z "/><text fill="#000000" font-family="sans-serif" font-size="12" lengthAdjust="spacingAndGlyphs" textLength="27" x="67.5" y="188.9102">sc12</text><line style="stroke: #A80036; stroke-width: 1.5;" x1="39.5" x2="96.5" y1="200" y2="200"/><line style="stroke: #A80036; stroke-width: 1.5;" x1="39.5" x2="96.5" y1="208" y2="208"/><!--class sc10--><rect fill="#FEFECE" filter="url(#f6duhuphigb0r)" height="48" id="sc10" style="stroke: #A80036; stroke-width: 1.5;" width="59" x="132.5" y="168"/><ellipse cx="147.5" cy="184" fill="#ADD1B2" rx="11" ry="11" style="stroke: #A80036; stroke-width: 1.0;"/><path d="M151.1875,185.2031 Q150.9375,188.6875 149.7969,189.8438 Q148.7656,190.8594 147.3594,190.8594 Q145.9531,190.8594 144.9219,189.8438 Q143.1719,188.0781 143.1719,184.4063 Q143.1719,180.1563 145.0469,178.25 Q146.0938,177.2344 147.4219,177.2344 Q148.8281,177.2344 149.6719,178.0469 Q151.1563,179.5625 151.0781,182.4375 L148.9531,182.4375 Q148.875,180.1094 148.2344,179.4688 Q147.9531,179.1719 147.4219,179.1719 Q146.9688,179.1719 146.6094,179.5469 Q145.375,180.7656 145.375,184.2813 Q145.375,187.3281 146.4219,188.3438 Q146.8438,188.7813 147.3594,188.7813 Q147.8125,188.7813 148.25,188.3438 Q148.8125,187.7969 148.8906,185.2031 L151.1875,185.2031 Z "/><text fill="#000000" font-family="sans-serif" font-size="12" lengthAdjust="spacingAndGlyphs" textLength="27" x="161.5" y="188.9102">sc10</text><line style="stroke: #A80036; stroke-width: 1.5;" x1="133.5" x2="190.5" y1="200" y2="200"/><line style="stroke: #A80036; stroke-width: 1.5;" x1="133.5" x2="190.5" y1="208" y2="208"/><!--class sc11--><rect fill="#FEFECE" filter="url(#f6duhuphigb0r)" height="48" id="sc11" style="stroke: #A80036; stroke-width: 1.5;" width="59" x="226.5" y="168"/><ellipse cx="241.5" cy="184" fill="#ADD1B2" rx="11" ry="11" style="stroke: #A80036; stroke-width: 1.0;"/><path d="M245.1875,185.2031 Q244.9375,188.6875 243.7969,189.8438 Q242.7656,190.8594 241.3594,190.8594 Q239.9531,190.8594 238.9219,189.8438 Q237.1719,188.0781 237.1719,184.4063 Q237.1719,180.1563 239.0469,178.25 Q240.0938,177.2344 241.4219,177.2344 Q242.8281,177.2344 243.6719,178.0469 Q245.1563,179.5625 245.0781,182.4375 L242.9531,182.4375 Q242.875,180.1094 242.2344,179.4688 Q241.9531,179.1719 241.4219,179.1719 Q240.9688,179.1719 240.6094,179.5469 Q239.375,180.7656 239.375,184.2813 Q239.375,187.3281 240.4219,188.3438 Q240.8438,188.7813 241.3594,188.7813 Q241.8125,188.7813 242.25,188.3438 Q242.8125,187.7969 242.8906,185.2031 L245.1875,185.2031 Z "/><text fill="#000000" font-family="sans-serif" font-size="12" lengthAdjust="spacingAndGlyphs" textLength="27" x="255.5" y="188.9102">sc11</text><line style="stroke: #A80036; stroke-width: 1.5;" x1="227.5" x2="284.5" y1="200" y2="200"/><line style="stroke: #A80036; stroke-width: 1.5;" x1="227.5" x2="284.5" y1="208" y2="208"/><!--class sc2	.1--><rect fill="#FEFECE" filter="url(#f6duhuphigb0r)" height="48" id="sc2&#9;.1" style="stroke: #A80036; stroke-width: 1.5;" width="39" x="690.5" y="168"/><ellipse cx="705.5" cy="184" fill="#ADD1B2" rx="11" ry="11" style="stroke: #A80036; stroke-width: 1.0;"/><path d="M709.1875,185.2031 Q708.9375,188.6875 707.7969,189.8438 Q706.7656,190.8594 705.3594,190.8594 Q703.9531,190.8594 702.9219,189.8438 Q701.1719,188.0781 701.1719,184.4063 Q701.1719,180.1563 703.0469,178.25 Q704.0938,177.2344 705.4219,177.2344 Q706.8281,177.2344 707.6719,178.0469 Q709.1563,179.5625 709.0781,182.4375 L706.9531,182.4375 Q706.875,180.1094 706.2344,179.4688 Q705.9531,179.1719 705.4219,179.1719 Q704.9688,179.1719 704.6094,179.5469 Q703.375,180.7656 703.375,184.2813 Q703.375,187.3281 704.4219,188.3438 Q704.8438,188.7813 705.3594,188.7813 Q705.8125,188.7813 706.25,188.3438 Q706.8125,187.7969 706.8906,185.2031 L709.1875,185.2031 Z "/><text fill="#000000" font-family="sans-serif" font-size="12" lengthAdjust="spacingAndGlyphs" textLength="7" x="719.5" y="188.9102">1</text><line style="stroke: #A80036; stroke-width: 1.5;" x1="691.5" x2="728.5" y1="200" y2="200"/><line style="stroke: #A80036; stroke-width: 1.5;" x1="691.5" x2="728.5" y1="208" y2="208"/><!--link header to sc1--><path d="M549.57,108.251 C554.957,113.197 560.353,118.572 565,124 C575.328,136.062 585.046,150.7925 592.622,163.3663 " fill="none" id="header-sc1" style="stroke: #A80036; stroke-width: 1.0;"/><polygon fill="#A80036" points="595.314,167.8922,594.1516,158.1122,592.7582,163.5947,587.2757,162.2014,595.314,167.8922" style="stroke: #A80036; stroke-width: 1.0;"/><!--link header to sc2	.1--><path d="M556.586,90.361 C583.799,95.686 621.384,105.778 650,124 C666.114,134.261 680.529,150.0166 691.19,163.6717 " fill="none" id="header-sc2&#9;.1" style="stroke: #A80036; stroke-width: 1.0;"/><polygon fill="#A80036" points="694.375,167.8336,692.0806,158.2557,691.3358,163.8633,685.7282,163.1185,694.375,167.8336" style="stroke: #A80036; stroke-width: 1.0;"/><!--link header to sc7--><path d="M493.149,108.356 C487.879,113.294 482.586,118.639 478,124 C467.607,136.15 457.681,150.8887 449.895,163.4459 " fill="none" id="header-sc7" style="stroke: #A80036; stroke-width: 1.0;"/><polygon fill="#A80036" points="447.127,167.9646,455.2399,162.3806,449.7394,163.7013,448.4187,158.2008,447.127,167.9646" style="stroke: #A80036; stroke-width: 1.0;"/><!--link header to sc8--><path d="M521,108 C521,124.003 521,145.446 521,162.528 " fill="none" id="header-sc8" style="stroke: #A80036; stroke-width: 1.0;"/><polygon fill="#A80036" points="521,167.6784,525,158.6784,521,162.6784,517,158.6784,521,167.6784" style="stroke: #A80036; stroke-width: 1.0;"/><!--link header to sc9--><path d="M485.47,88.931 C457.513,93.512 418.771,103.298 391,124 C377.468,134.088 366.881,149.6563 359.487,163.2478 " fill="none" id="header-sc9" style="stroke: #A80036; stroke-width: 1.0;"/><polygon fill="#A80036" points="357.102,167.7705,364.8382,161.6753,359.4342,163.3478,357.7618,157.9438,357.102,167.7705" style="stroke: #A80036; stroke-width: 1.0;"/><!--link footer to sc9--><path d="M240.712,92.98 C260.234,99.074 284.899,109.015 303,124 C315.905,134.684 326.403,150.1364 333.904,163.5099 " fill="none" id="footer-sc9" style="stroke: #A80036; stroke-width: 1.0;"/><polygon fill="#A80036" points="336.332,167.9557,335.5291,158.1396,333.9356,163.5674,328.5078,161.9739,336.332,167.9557" style="stroke: #A80036; stroke-width: 1.0;"/><!--link footer to sc12--><path d="M177.446,93.173 C157.984,99.342 133.328,109.294 115,124 C101.658,134.705 90.4703,150.1591 82.3615,163.528 " fill="none" id="footer-sc12" style="stroke: #A80036; stroke-width: 1.0;"/><polygon fill="#A80036" points="79.7309,167.972,87.7576,162.2648,82.2779,163.6693,80.8733,158.1896,79.7309,167.972" style="stroke: #A80036; stroke-width: 1.0;"/><!--link footer to sc10--><path d="M198.802,108 C191.645,124.141 182.034,145.816 174.429,162.9688 " fill="none" id="footer-sc10" style="stroke: #A80036; stroke-width: 1.0;"/><polygon fill="#A80036" points="172.341,167.6784,179.6462,161.0728,174.368,163.1077,172.3331,157.8295,172.341,167.6784" style="stroke: #A80036; stroke-width: 1.0;"/><!--link footer to sc11--><path d="M219.198,108 C226.355,124.141 235.966,145.816 243.571,162.9688 " fill="none" id="footer-sc11" style="stroke: #A80036; stroke-width: 1.0;"/><polygon fill="#A80036" points="245.659,167.6784,245.6669,157.8295,243.632,163.1077,238.3538,161.0728,245.659,167.6784" style="stroke: #A80036; stroke-width: 1.0;"/><!--
@startuml
	package "共通" {
		header - -> sc1
		header - -> "sc2	.1"
		header - -> sc7
		header - -> sc8
		header - -> sc9
		footer - -> sc9
		footer - -> sc12
		footer - -> sc10
		footer - -> sc11
	}
@enduml

PlantUML version 1.2019.06(Sat May 25 02:10:25 JST 2019)
(GPL source distribution)
Java Runtime: OpenJDK Runtime Environment
JVM: OpenJDK 64-Bit Server VM
Java Version: 14.0.2+12-46
Operating System: Windows 10
OS Version: 10.0
Default Encoding: MS932
Language: ja
Country: JP
--></g></svg>