<?xml version="1.0" encoding="UTF-8" standalone="no"?><svg xmlns="http://www.w3.org/2000/svg" xmlns:xlink="http://www.w3.org/1999/xlink" contentScriptType="application/ecmascript" contentStyleType="text/css" height="335px" preserveAspectRatio="none" style="width:677px;height:335px;" version="1.1" viewBox="0 0 677 335" width="677px" zoomAndPan="magnify"><defs><filter height="300%" id="f1j53075ai16s6" width="300%" x="-1" y="-1"><feGaussianBlur result="blurOut" stdDeviation="2.0"/><feColorMatrix in="blurOut" result="blurOut2" type="matrix" values="0 0 0 0 0 0 0 0 0 0 0 0 0 0 0 0 0 0 .4 0"/><feOffset dx="4.0" dy="4.0" in="blurOut2" result="blurOut3"/><feBlend in="SourceGraphic" in2="blurOut3" mode="normal"/></filter></defs><g><rect fill="#FEFECE" filter="url(#f1j53075ai16s6)" height="316.6094" rx="12.5" ry="12.5" style="stroke: #A80036; stroke-width: 1.5;" width="659" x="6" y="8"/><rect fill="#FFFFFF" height="283" rx="12.5" ry="12.5" style="stroke: #FFFFFF; stroke-width: 1.0;" width="653" x="9" y="38.6094"/><line style="stroke: #A80036; stroke-width: 1.5;" x1="6" x2="665" y1="35.6094" y2="35.6094"/><text fill="#000000" font-family="sans-serif" font-size="14" lengthAdjust="spacingAndGlyphs" textLength="70" x="300.5" y="27.5332">コンテンツ</text><rect fill="#FEFECE" filter="url(#f1j53075ai16s6)" height="50" rx="12.5" ry="12.5" style="stroke: #A80036; stroke-width: 1.5;" width="99" x="17" y="69.6094"/><line style="stroke: #A80036; stroke-width: 1.5;" x1="17" x2="116" y1="97.2188" y2="97.2188"/><text fill="#000000" font-family="sans-serif" font-size="14" lengthAdjust="spacingAndGlyphs" textLength="79" x="27" y="89.1426">Aboutページ</text><rect fill="#FEFECE" filter="url(#f1j53075ai16s6)" height="52.7031" rx="12.5" ry="12.5" style="stroke: #A80036; stroke-width: 1.5;" width="104" x="292.5" y="68.1094"/><line style="stroke: #A80036; stroke-width: 1.5;" x1="292.5" x2="396.5" y1="95.7188" y2="95.7188"/><text fill="#000000" font-family="sans-serif" font-size="14" lengthAdjust="spacingAndGlyphs" textLength="84" x="302.5" y="87.6426">ユーザー詳細</text><text fill="#000000" font-family="sans-serif" font-size="12" lengthAdjust="spacingAndGlyphs" textLength="84" x="297.5" y="113.1758">任意のユーザー</text><rect fill="#FEFECE" filter="url(#f1j53075ai16s6)" height="50" rx="12.5" ry="12.5" style="stroke: #A80036; stroke-width: 1.5;" width="104" x="85.5" y="240.1094"/><line style="stroke: #A80036; stroke-width: 1.5;" x1="85.5" x2="189.5" y1="267.7188" y2="267.7188"/><text fill="#000000" font-family="sans-serif" font-size="14" lengthAdjust="spacingAndGlyphs" textLength="84" x="95.5" y="259.6426">フォロー一覧</text><rect fill="#FEFECE" filter="url(#f1j53075ai16s6)" height="50" rx="12.5" ry="12.5" style="stroke: #A80036; stroke-width: 1.5;" width="118" x="268.5" y="240.1094"/><line style="stroke: #A80036; stroke-width: 1.5;" x1="268.5" x2="386.5" y1="267.7188" y2="267.7188"/><text fill="#000000" font-family="sans-serif" font-size="14" lengthAdjust="spacingAndGlyphs" textLength="98" x="278.5" y="259.6426">フォロワー一覧</text><rect fill="#FEFECE" filter="url(#f1j53075ai16s6)" height="50" rx="12.5" ry="12.5" style="stroke: #A80036; stroke-width: 1.5;" width="90" x="485.5" y="240.1094"/><line style="stroke: #A80036; stroke-width: 1.5;" x1="485.5" x2="575.5" y1="267.7188" y2="267.7188"/><text fill="#000000" font-family="sans-serif" font-size="14" lengthAdjust="spacingAndGlyphs" textLength="70" x="495.5" y="259.6426">アプリ詳細</text><ellipse cx="197.5" cy="94.6094" fill="#000000" filter="url(#f1j53075ai16s6)" rx="10" ry="10" style="stroke: none; stroke-width: 1.0;"/><!--link sc1 to *start*content--><path d="M121.294,94.6094 C146.157,94.6094 173.135,94.6094 187.372,94.6094 " fill="none" id="sc1-*start*content" style="stroke: #A80036; stroke-width: 1.0;"/><polygon fill="#A80036" points="116.0255,94.6094,125.0255,98.6094,121.0255,94.6094,125.0255,90.6094,116.0255,94.6094" style="stroke: #A80036; stroke-width: 1.0;"/><text fill="#000000" font-family="sans-serif" font-size="13" lengthAdjust="spacingAndGlyphs" textLength="27" x="138.25" y="72.1045">"/"に</text><text fill="#000000" font-family="sans-serif" font-size="13" lengthAdjust="spacingAndGlyphs" textLength="52" x="125.75" y="88.4561">アクセス</text><!--link *start*content to sc2.1--><path d="M207.604,94.6094 C223.976,94.6094 257.474,94.6094 287.235,94.6094 " fill="none" id="*start*content-sc2.1" style="stroke: #A80036; stroke-width: 1.0;"/><polygon fill="#A80036" points="292.358,94.6094,283.358,90.6094,287.358,94.6094,283.358,98.6094,292.358,94.6094" style="stroke: #A80036; stroke-width: 1.0;"/><text fill="#000000" font-family="sans-serif" font-size="13" lengthAdjust="spacingAndGlyphs" textLength="65" x="217.5" y="55.1045">ユーザーの</text><text fill="#000000" font-family="sans-serif" font-size="13" lengthAdjust="spacingAndGlyphs" textLength="38" x="231" y="71.4561">URLに</text><text fill="#000000" font-family="sans-serif" font-size="13" lengthAdjust="spacingAndGlyphs" textLength="52" x="224" y="87.8076">アクセス</text><!--link sc2.1 to sc3--><path d="M292.241,106.3104 C269.064,110.9814 241.446,116.4454 216.5,121.1094 C193.66,125.3794 128.449,121.3214 113.5,139.1094 C89.7668,167.3494 104.0318,186.4564 113.5,222.1094 C114.6714,226.5204 116.427,230.9513 118.466,235.1949 " fill="none" id="sc2.1-sc3" style="stroke: #A80036; stroke-width: 1.0;"/><polygon fill="#A80036" points="120.775,239.7163,120.2427,229.8818,118.5003,235.2637,113.1185,233.5213,120.775,239.7163" style="stroke: #A80036; stroke-width: 1.0;"/><text fill="#000000" font-family="sans-serif" font-size="13" lengthAdjust="spacingAndGlyphs" textLength="65" x="114.5" y="178.1045">フォローを</text><text fill="#000000" font-family="sans-serif" font-size="13" lengthAdjust="spacingAndGlyphs" textLength="26" x="134" y="194.4561">押下</text><!--link sc3 to sc2.1--><path d="M165.803,239.9312 C171.156,234.4508 176.366,228.3836 180.5,222.1094 C202.251,189.0954 183.859,166.3624 212.5,139.1094 C232.739,119.8514 261.671,109.1154 287.293,103.1314 " fill="none" id="sc3-sc2.1" style="stroke: #A80036; stroke-width: 1.0;"/><polygon fill="#A80036" points="292.37,101.9974,282.7145,100.0555,287.4902,103.0873,284.4584,107.8631,292.37,101.9974" style="stroke: #A80036; stroke-width: 1.0;"/><text fill="#000000" font-family="sans-serif" font-size="13" lengthAdjust="spacingAndGlyphs" textLength="52" x="220" y="161.6045">アプリか</text><text fill="#000000" font-family="sans-serif" font-size="13" lengthAdjust="spacingAndGlyphs" textLength="39" x="226.5" y="177.9561">任意の</text><text fill="#000000" font-family="sans-serif" font-size="13" lengthAdjust="spacingAndGlyphs" textLength="65" x="213.5" y="194.3076">ユーザーを</text><text fill="#000000" font-family="sans-serif" font-size="13" lengthAdjust="spacingAndGlyphs" textLength="26" x="233" y="210.6592">押下</text><!--link sc2.1 to sc4--><path d="M306.483,121.1514 C301.22,126.4374 296.572,132.4524 293.5,139.1094 C278.045,172.6044 281.189,187.3354 293.5,222.1094 C295.191,226.8849 297.681,231.5146 300.558,235.8473 " fill="none" id="sc2.1-sc4" style="stroke: #A80036; stroke-width: 1.0;"/><polygon fill="#A80036" points="303.549,240.0756,301.6164,230.4182,300.6612,235.9938,295.0856,235.0387,303.549,240.0756" style="stroke: #A80036; stroke-width: 1.0;"/><text fill="#000000" font-family="sans-serif" font-size="13" lengthAdjust="spacingAndGlyphs" textLength="78" x="294.5" y="178.1045">フォロワーを</text><text fill="#000000" font-family="sans-serif" font-size="13" lengthAdjust="spacingAndGlyphs" textLength="26" x="320.5" y="194.4561">押下</text><!--link sc4 to sc2.1--><path d="M361.144,239.8364 C366.167,234.5945 370.62,228.6397 373.5,222.1094 C388.387,188.3574 384.19,174.4154 373.5,139.1094 C372.148,134.6434 370.169,130.2174 367.871,125.9944 " fill="none" id="sc4-sc2.1" style="stroke: #A80036; stroke-width: 1.0;"/><polygon fill="#A80036" points="365.265,121.5004,366.3198,131.2926,367.7733,125.8257,373.2402,127.2793,365.265,121.5004" style="stroke: #A80036; stroke-width: 1.0;"/><text fill="#000000" font-family="sans-serif" font-size="13" lengthAdjust="spacingAndGlyphs" textLength="39" x="397.5" y="169.6045">任意の</text><text fill="#000000" font-family="sans-serif" font-size="13" lengthAdjust="spacingAndGlyphs" textLength="65" x="384.5" y="185.9561">ユーザーを</text><text fill="#000000" font-family="sans-serif" font-size="13" lengthAdjust="spacingAndGlyphs" textLength="26" x="404" y="202.3076">押下</text><!--link sc2.1 to sc6.1--><path d="M396.628,106.6234 C416.867,113.1564 438.885,123.3594 454.5,139.1094 C482.335,167.1854 464.559,189.2204 486.5,222.1094 C489.797,227.0509 493.769,231.8486 497.961,236.3271 " fill="none" id="sc2.1-sc6.1" style="stroke: #A80036; stroke-width: 1.0;"/><polygon fill="#A80036" points="501.523,240.0101,498.1412,230.76,498.0469,236.4161,492.3908,236.3218,501.523,240.0101" style="stroke: #A80036; stroke-width: 1.0;"/><text fill="#000000" font-family="sans-serif" font-size="13" lengthAdjust="spacingAndGlyphs" textLength="39" x="500.5" y="153.6045">任意の</text><text fill="#000000" font-family="sans-serif" font-size="13" lengthAdjust="spacingAndGlyphs" textLength="39" x="500.5" y="169.9561">アプリ</text><text fill="#000000" font-family="sans-serif" font-size="13" lengthAdjust="spacingAndGlyphs" textLength="65" x="487.5" y="186.3076">アイコンか</text><text fill="#000000" font-family="sans-serif" font-size="13" lengthAdjust="spacingAndGlyphs" textLength="65" x="487.5" y="202.6592">アプリ名を</text><text fill="#000000" font-family="sans-serif" font-size="13" lengthAdjust="spacingAndGlyphs" textLength="26" x="507" y="219.0107">押下</text><!--link sc6.1 to sc2.1--><path d="M545.337,239.6559 C559.879,212.1813 576.751,167.6974 553.5,139.1094 C534.697,115.9894 457.045,104.7514 401.899,99.5904 " fill="none" id="sc6.1-sc2.1" style="stroke: #A80036; stroke-width: 1.0;"/><polygon fill="#A80036" points="396.635,99.1094,405.233,103.9129,401.6142,99.565,405.9621,95.9462,396.635,99.1094" style="stroke: #A80036; stroke-width: 1.0;"/><text fill="#000000" font-family="sans-serif" font-size="13" lengthAdjust="spacingAndGlyphs" textLength="39" x="578.5" y="169.6045">任意の</text><text fill="#000000" font-family="sans-serif" font-size="13" lengthAdjust="spacingAndGlyphs" textLength="65" x="565.5" y="185.9561">ユーザーを</text><text fill="#000000" font-family="sans-serif" font-size="13" lengthAdjust="spacingAndGlyphs" textLength="26" x="585" y="202.3076">押下</text><!--
@startuml
	state "コンテンツ" as content {
		state "Aboutページ" as sc1
		state "ユーザー詳細" as sc2.1 : 任意のユーザー
		state "フォロー一覧" as sc3
		state "フォロワー一覧" as sc4
		state "アプリ詳細" as sc6.1
		[*] -left-> sc1 : "/"に\nアクセス
		[*] -right-> sc2.1 : ユーザーの\nURLに\nアクセス
		sc2.1 - -> sc3 : フォローを\n押下
		sc3 - -> sc2.1 : アプリか\n任意の\nユーザーを\n押下
		sc2.1 - -> sc4 : フォロワーを\n押下
		sc4 - -> sc2.1 : 任意の\nユーザーを\n押下
		sc2.1 - -> sc6.1 : 任意の\nアプリ\nアイコンか\nアプリ名を\n押下
		sc6.1 - -> sc2.1 : 任意の\nユーザーを\n押下
	}
@enduml

PlantUML version 1.2019.06(Sat May 25 02:10:25 JST 2019)
(GPL source distribution)
Java Runtime: OpenJDK Runtime Environment
JVM: OpenJDK 64-Bit Server VM
Java Version: 14.0.2+12-46
Operating System: Windows 10
OS Version: 10.0
Default Encoding: MS932
Language: ja
Country: JP
--></g></svg>