<?xml version="1.0" encoding="UTF-8" standalone="no"?><svg xmlns="http://www.w3.org/2000/svg" xmlns:xlink="http://www.w3.org/1999/xlink" contentScriptType="application/ecmascript" contentStyleType="text/css" height="560px" preserveAspectRatio="none" style="width:525px;height:560px;" version="1.1" viewBox="0 0 525 560" width="525px" zoomAndPan="magnify"><defs><filter height="300%" id="f1voig99ygcgui" width="300%" x="-1" y="-1"><feGaussianBlur result="blurOut" stdDeviation="2.0"/><feColorMatrix in="blurOut" result="blurOut2" type="matrix" values="0 0 0 0 0 0 0 0 0 0 0 0 0 0 0 0 0 0 .4 0"/><feOffset dx="4.0" dy="4.0" in="blurOut2" result="blurOut3"/><feBlend in="SourceGraphic" in2="blurOut3" mode="normal"/></filter></defs><g><!--cluster Edit--><polygon fill="#FFFFFF" filter="url(#f1voig99ygcgui)" points="22,24,55,24,62,47.6094,503,47.6094,503,548,22,548,22,24" style="stroke: #000000; stroke-width: 1.5;"/><line style="stroke: #000000; stroke-width: 1.5;" x1="22" x2="62" y1="47.6094" y2="47.6094"/><text fill="#000000" font-family="sans-serif" font-size="14" font-weight="bold" lengthAdjust="spacingAndGlyphs" textLength="27" x="26" y="40.5332">Edit</text><!--cluster UILayer--><rect fill="#FFFFFF" filter="url(#f1voig99ygcgui)" height="100" style="stroke: #000000; stroke-width: 1.5;" width="144" x="46" y="68"/><text fill="#000000" font-family="sans-serif" font-size="14" font-weight="bold" lengthAdjust="spacingAndGlyphs" textLength="52" x="92" y="84.5332">UILayer</text><!--cluster AppLayer--><rect fill="#FFFFFF" filter="url(#f1voig99ygcgui)" height="100" style="stroke: #000000; stroke-width: 1.5;" width="265" x="214" y="68"/><text fill="#000000" font-family="sans-serif" font-size="14" font-weight="bold" lengthAdjust="spacingAndGlyphs" textLength="65" x="314" y="84.5332">AppLayer</text><!--cluster DomainLayer--><rect fill="#FFFFFF" filter="url(#f1voig99ygcgui)" height="208" style="stroke: #000000; stroke-width: 1.5;" width="290" x="176" y="192"/><text fill="#000000" font-family="sans-serif" font-size="14" font-weight="bold" lengthAdjust="spacingAndGlyphs" textLength="90" x="276" y="208.5332">DomainLayer</text><!--cluster InfrastructureLayer--><rect fill="#FFFFFF" filter="url(#f1voig99ygcgui)" height="100" style="stroke: #000000; stroke-width: 1.5;" width="327" x="152" y="424"/><text fill="#000000" font-family="sans-serif" font-size="14" font-weight="bold" lengthAdjust="spacingAndGlyphs" textLength="135" x="248" y="440.5332">InfrastructureLayer</text><!--class EditViewModel--><rect fill="#FEFECE" filter="url(#f1voig99ygcgui)" height="48" id="EditViewModel" style="stroke: #A80036; stroke-width: 1.5;" width="112" x="62" y="104"/><ellipse cx="77" cy="120" fill="#ADD1B2" rx="11" ry="11" style="stroke: #A80036; stroke-width: 1.0;"/><path d="M79.7031,125.4375 Q78.7813,126.3594 76.5156,126.3594 Q75.25,126.3594 74.3281,125.4375 Q72.6719,123.7813 72.6719,120.25 Q72.6719,116.1406 74.4531,114.3438 Q75.3906,113.4219 76.5781,113.4219 Q78.8438,113.4219 79.5781,114.1406 Q80.9688,115.5469 80.9063,117.9375 L78.4375,117.9375 Q78.375,115.8125 77.6406,115.0781 Q77.25,114.6719 76.5781,114.6719 Q76.5781,114.6719 76.5156,115.1406 Q75.1875,116.4688 75.1875,120.125 Q75.1875,123.3125 76.3281,124.4375 Q76.8594,124.9688 76.8594,124.9688 Q77.1094,124.9688 77.6406,124.4375 Q78.3125,123.7813 78.375,121.3906 L80.9688,121.3906 Q80.7656,124.375 79.7031,125.4375 Z "/><text fill="#000000" font-family="sans-serif" font-size="12" lengthAdjust="spacingAndGlyphs" textLength="80" x="91" y="124.9102">EditViewModel</text><line style="stroke: #A80036; stroke-width: 1.5;" x1="63" x2="173" y1="136" y2="136"/><line style="stroke: #A80036; stroke-width: 1.5;" x1="63" x2="173" y1="144" y2="144"/><!--class EditController--><rect fill="#FEFECE" filter="url(#f1voig99ygcgui)" height="48" id="EditController" style="stroke: #A80036; stroke-width: 1.5;" width="107" x="230.5" y="104"/><ellipse cx="245.5" cy="120" fill="#ADD1B2" rx="11" ry="11" style="stroke: #A80036; stroke-width: 1.0;"/><path d="M248.2031,125.4375 Q247.2813,126.3594 245.0156,126.3594 Q243.75,126.3594 242.8281,125.4375 Q241.1719,123.7813 241.1719,120.25 Q241.1719,116.1406 242.9531,114.3438 Q243.8906,113.4219 245.0781,113.4219 Q247.3438,113.4219 248.0781,114.1406 Q249.4688,115.5469 249.4063,117.9375 L246.9375,117.9375 Q246.875,115.8125 246.1406,115.0781 Q245.75,114.6719 245.0781,114.6719 Q245.0781,114.6719 245.0156,115.1406 Q243.6875,116.4688 243.6875,120.125 Q243.6875,123.3125 244.8281,124.4375 Q245.3594,124.9688 245.3594,124.9688 Q245.6094,124.9688 246.1406,124.4375 Q246.8125,123.7813 246.875,121.3906 L249.4688,121.3906 Q249.2656,124.375 248.2031,125.4375 Z "/><text fill="#000000" font-family="sans-serif" font-size="12" lengthAdjust="spacingAndGlyphs" textLength="75" x="259.5" y="124.9102">EditController</text><line style="stroke: #A80036; stroke-width: 1.5;" x1="231.5" x2="336.5" y1="136" y2="136"/><line style="stroke: #A80036; stroke-width: 1.5;" x1="231.5" x2="336.5" y1="144" y2="144"/><!--class EditHelper--><rect fill="#FEFECE" filter="url(#f1voig99ygcgui)" height="48" id="EditHelper" style="stroke: #A80036; stroke-width: 1.5;" width="90" x="373" y="104"/><ellipse cx="388" cy="120" fill="#ADD1B2" rx="11" ry="11" style="stroke: #A80036; stroke-width: 1.0;"/><path d="M390.7031,125.4375 Q389.7813,126.3594 387.5156,126.3594 Q386.25,126.3594 385.3281,125.4375 Q383.6719,123.7813 383.6719,120.25 Q383.6719,116.1406 385.4531,114.3438 Q386.3906,113.4219 387.5781,113.4219 Q389.8438,113.4219 390.5781,114.1406 Q391.9688,115.5469 391.9063,117.9375 L389.4375,117.9375 Q389.375,115.8125 388.6406,115.0781 Q388.25,114.6719 387.5781,114.6719 Q387.5781,114.6719 387.5156,115.1406 Q386.1875,116.4688 386.1875,120.125 Q386.1875,123.3125 387.3281,124.4375 Q387.8594,124.9688 387.8594,124.9688 Q388.1094,124.9688 388.6406,124.4375 Q389.3125,123.7813 389.375,121.3906 L391.9688,121.3906 Q391.7656,124.375 390.7031,125.4375 Z "/><text fill="#000000" font-family="sans-serif" font-size="12" lengthAdjust="spacingAndGlyphs" textLength="58" x="402" y="124.9102">EditHelper</text><line style="stroke: #A80036; stroke-width: 1.5;" x1="374" x2="462" y1="136" y2="136"/><line style="stroke: #A80036; stroke-width: 1.5;" x1="374" x2="462" y1="144" y2="144"/><!--class EditServiceIF--><rect fill="#FEFECE" filter="url(#f1voig99ygcgui)" height="48" id="EditServiceIF" style="stroke: #A80036; stroke-width: 1.5;" width="105" x="192.5" y="228"/><ellipse cx="207.5" cy="244" fill="#B4A7E5" rx="11" ry="11" style="stroke: #A80036; stroke-width: 1.0;"/><path d="M208.4844,248.9063 L209.2188,248.9063 L209.2188,250.3594 L205.2188,250.3594 L205.2188,248.9063 L205.9531,248.9063 L205.9531,238.875 L205.2188,238.875 L205.2188,237.4219 L209.2188,237.4219 L209.2188,238.875 L208.4844,238.875 L208.4844,248.9063 Z "/><text fill="#000000" font-family="sans-serif" font-size="12" font-style="italic" lengthAdjust="spacingAndGlyphs" textLength="73" x="221.5" y="248.9102">EditServiceIF</text><line style="stroke: #A80036; stroke-width: 1.5;" x1="193.5" x2="296.5" y1="260" y2="260"/><line style="stroke: #A80036; stroke-width: 1.5;" x1="193.5" x2="296.5" y1="268" y2="268"/><!--class EditServiceImpl--><rect fill="#FEFECE" filter="url(#f1voig99ygcgui)" height="48" id="EditServiceImpl" style="stroke: #A80036; stroke-width: 1.5;" width="117" x="332.5" y="228"/><ellipse cx="347.5" cy="244" fill="#ADD1B2" rx="11" ry="11" style="stroke: #A80036; stroke-width: 1.0;"/><path d="M350.2031,249.4375 Q349.2813,250.3594 347.0156,250.3594 Q345.75,250.3594 344.8281,249.4375 Q343.1719,247.7813 343.1719,244.25 Q343.1719,240.1406 344.9531,238.3438 Q345.8906,237.4219 347.0781,237.4219 Q349.3438,237.4219 350.0781,238.1406 Q351.4688,239.5469 351.4063,241.9375 L348.9375,241.9375 Q348.875,239.8125 348.1406,239.0781 Q347.75,238.6719 347.0781,238.6719 Q347.0781,238.6719 347.0156,239.1406 Q345.6875,240.4688 345.6875,244.125 Q345.6875,247.3125 346.8281,248.4375 Q347.3594,248.9688 347.3594,248.9688 Q347.6094,248.9688 348.1406,248.4375 Q348.8125,247.7813 348.875,245.3906 L351.4688,245.3906 Q351.2656,248.375 350.2031,249.4375 Z "/><text fill="#000000" font-family="sans-serif" font-size="12" lengthAdjust="spacingAndGlyphs" textLength="85" x="361.5" y="248.9102">EditServiceImpl</text><line style="stroke: #A80036; stroke-width: 1.5;" x1="333.5" x2="448.5" y1="260" y2="260"/><line style="stroke: #A80036; stroke-width: 1.5;" x1="333.5" x2="448.5" y1="268" y2="268"/><!--class EditDomain--><rect fill="#FEFECE" filter="url(#f1voig99ygcgui)" height="48" id="EditDomain" style="stroke: #A80036; stroke-width: 1.5;" width="97" x="194.5" y="336"/><ellipse cx="209.5" cy="352" fill="#ADD1B2" rx="11" ry="11" style="stroke: #A80036; stroke-width: 1.0;"/><path d="M212.2031,357.4375 Q211.2813,358.3594 209.0156,358.3594 Q207.75,358.3594 206.8281,357.4375 Q205.1719,355.7813 205.1719,352.25 Q205.1719,348.1406 206.9531,346.3438 Q207.8906,345.4219 209.0781,345.4219 Q211.3438,345.4219 212.0781,346.1406 Q213.4688,347.5469 213.4063,349.9375 L210.9375,349.9375 Q210.875,347.8125 210.1406,347.0781 Q209.75,346.6719 209.0781,346.6719 Q209.0781,346.6719 209.0156,347.1406 Q207.6875,348.4688 207.6875,352.125 Q207.6875,355.3125 208.8281,356.4375 Q209.3594,356.9688 209.3594,356.9688 Q209.6094,356.9688 210.1406,356.4375 Q210.8125,355.7813 210.875,353.3906 L213.4688,353.3906 Q213.2656,356.375 212.2031,357.4375 Z "/><text fill="#000000" font-family="sans-serif" font-size="12" lengthAdjust="spacingAndGlyphs" textLength="65" x="223.5" y="356.9102">EditDomain</text><line style="stroke: #A80036; stroke-width: 1.5;" x1="195.5" x2="290.5" y1="368" y2="368"/><line style="stroke: #A80036; stroke-width: 1.5;" x1="195.5" x2="290.5" y1="376" y2="376"/><!--class EditRepositoryIF--><rect fill="#FEFECE" filter="url(#f1voig99ygcgui)" height="48" id="EditRepositoryIF" style="stroke: #A80036; stroke-width: 1.5;" width="123" x="168.5" y="460"/><ellipse cx="183.5" cy="476" fill="#B4A7E5" rx="11" ry="11" style="stroke: #A80036; stroke-width: 1.0;"/><path d="M184.4844,480.9063 L185.2188,480.9063 L185.2188,482.3594 L181.2188,482.3594 L181.2188,480.9063 L181.9531,480.9063 L181.9531,470.875 L181.2188,470.875 L181.2188,469.4219 L185.2188,469.4219 L185.2188,470.875 L184.4844,470.875 L184.4844,480.9063 Z "/><text fill="#000000" font-family="sans-serif" font-size="12" font-style="italic" lengthAdjust="spacingAndGlyphs" textLength="91" x="197.5" y="480.9102">EditRepositoryIF</text><line style="stroke: #A80036; stroke-width: 1.5;" x1="169.5" x2="290.5" y1="492" y2="492"/><line style="stroke: #A80036; stroke-width: 1.5;" x1="169.5" x2="290.5" y1="500" y2="500"/><!--class EditRepositoryImpl--><rect fill="#FEFECE" filter="url(#f1voig99ygcgui)" height="48" id="EditRepositoryImpl" style="stroke: #A80036; stroke-width: 1.5;" width="136" x="327" y="460"/><ellipse cx="342" cy="476" fill="#ADD1B2" rx="11" ry="11" style="stroke: #A80036; stroke-width: 1.0;"/><path d="M344.7031,481.4375 Q343.7813,482.3594 341.5156,482.3594 Q340.25,482.3594 339.3281,481.4375 Q337.6719,479.7813 337.6719,476.25 Q337.6719,472.1406 339.4531,470.3438 Q340.3906,469.4219 341.5781,469.4219 Q343.8438,469.4219 344.5781,470.1406 Q345.9688,471.5469 345.9063,473.9375 L343.4375,473.9375 Q343.375,471.8125 342.6406,471.0781 Q342.25,470.6719 341.5781,470.6719 Q341.5781,470.6719 341.5156,471.1406 Q340.1875,472.4688 340.1875,476.125 Q340.1875,479.3125 341.3281,480.4375 Q341.8594,480.9688 341.8594,480.9688 Q342.1094,480.9688 342.6406,480.4375 Q343.3125,479.7813 343.375,477.3906 L345.9688,477.3906 Q345.7656,480.375 344.7031,481.4375 Z "/><text fill="#000000" font-family="sans-serif" font-size="12" lengthAdjust="spacingAndGlyphs" textLength="104" x="356" y="480.9102">EditRepositoryImpl</text><line style="stroke: #A80036; stroke-width: 1.5;" x1="328" x2="462" y1="492" y2="492"/><line style="stroke: #A80036; stroke-width: 1.5;" x1="328" x2="462" y1="500" y2="500"/><!--link EditViewModel to EditController--><path d="M174.09,128 C191.08,128 208.07,128 225.06,128 " fill="none" id="EditViewModel-EditController" style="stroke: #A80036; stroke-width: 1.0;"/><polygon fill="#A80036" points="230.333,128,221.333,124,225.333,128,221.333,132,230.333,128" style="stroke: #A80036; stroke-width: 1.0;"/><!--link EditController to EditHelper--><path d="M337.652,128 C347.63,128 357.608,128 367.587,128 " fill="none" id="EditController-EditHelper" style="stroke: #A80036; stroke-width: 1.0;"/><polygon fill="#A80036" points="372.804,128,363.804,124,367.804,128,363.804,132,372.804,128" style="stroke: #A80036; stroke-width: 1.0;"/><!--link EditHelper to EditServiceIF--><path d="M392.372,152.192 C381.531,160.871 368.337,170.057 355,176 C338.44,183.379 331.077,175.621 315,184 C296.319,193.736 279.164,209.979 266.513,224.033 " fill="none" id="EditHelper-EditServiceIF" style="stroke: #A80036; stroke-width: 1.0;"/><polygon fill="#A80036" points="263.066,227.932,272.0239,223.8385,266.3777,224.186,266.0302,218.5398,263.066,227.932" style="stroke: #A80036; stroke-width: 1.0;"/><!--link EditController to EditServiceIF--><path d="M276.573,152.234 C270.148,172.332 260.841,201.446 253.996,222.859 " fill="none" id="EditController-EditServiceIF" style="stroke: #A80036; stroke-width: 1.0;"/><polygon fill="#A80036" points="252.4,227.852,258.9489,220.4959,253.9214,223.0891,251.3283,218.0616,252.4,227.852" style="stroke: #A80036; stroke-width: 1.0;"/><!--link EditServiceIF to EditDomain--><path d="M244.566,276 C244.233,293.658 243.775,317.941 243.44,335.678 " fill="none" id="EditServiceIF-EditDomain" style="stroke: #A80036; stroke-width: 1.0; stroke-dasharray: 7.0,7.0;"/><!--link EditServiceIF to EditServiceImpl--><path d="M317.759,252 C322.625,252 327.491,252 332.357,252 " fill="none" id="EditServiceIF-EditServiceImpl" style="stroke: #A80036; stroke-width: 1.0;"/><polygon fill="none" points="317.754,259,297.754,252,317.754,245,317.754,259" style="stroke: #A80036; stroke-width: 1.0;"/><!--link EditDomain to EditRepositoryIF--><path d="M240.524,384.234 C238.211,405.943 234.777,438.172 232.467,459.852 " fill="none" id="EditDomain-EditRepositoryIF" style="stroke: #A80036; stroke-width: 1.0; stroke-dasharray: 7.0,7.0;"/><!--link EditServiceImpl to EditRepositoryIF--><path d="M381.583,276.175 C368.148,307.733 341.475,365.191 309,408 C295.513,425.779 277.675,443.103 262.362,456.613 " fill="none" id="EditServiceImpl-EditRepositoryIF" style="stroke: #A80036; stroke-width: 1.0;"/><polygon fill="#A80036" points="258.527,459.964,267.9364,457.0548,262.2924,456.6743,262.6729,451.0303,258.527,459.964" style="stroke: #A80036; stroke-width: 1.0;"/><!--link EditRepositoryIF to EditRepositoryImpl--><path d="M311.603,484 C316.638,484 321.673,484 326.709,484 " fill="none" id="EditRepositoryIF-EditRepositoryImpl" style="stroke: #A80036; stroke-width: 1.0;"/><polygon fill="none" points="311.553,490.9999,291.553,484,311.553,476.9999,311.553,490.9999" style="stroke: #A80036; stroke-width: 1.0;"/><!--
@startuml
Package Edit {
    package UILayer <<Rectangle>>{
        class EditViewModel
    }
    package AppLayer <<Rectangle>>{
        class EditController
        class EditHelper
        EditController <-right- EditViewModel
        EditController -right-> EditHelper
    }
    package DomainLayer <<Rectangle>>{
        interface EditServiceIF
        class EditServiceImpl
        class EditDomain
        EditHelper -down-> EditServiceIF
        EditController -down-> EditServiceIF
        EditServiceIF .down. EditDomain
        EditServiceIF <|-right- EditServiceImpl
    }
    package InfrastructureLayer <<Rectangle>>{
        interface EditRepositoryIF
        class EditRepositoryImpl
        EditDomain .down. EditRepositoryIF
        EditServiceImpl -down-> EditRepositoryIF
        EditRepositoryIF <|-right- EditRepositoryImpl
    }
}
@enduml

PlantUML version 1.2019.06(Sat May 25 02:10:25 JST 2019)
(GPL source distribution)
Java Runtime: Java(TM) SE Runtime Environment
JVM: Java HotSpot(TM) 64-Bit Server VM
Java Version: 1.8.0_231-b11
Operating System: Windows 10
OS Version: 10.0
Default Encoding: MS932
Language: ja
Country: JP
--></g></svg>