<?xml version="1.0" encoding="UTF-8" standalone="no"?><svg xmlns="http://www.w3.org/2000/svg" xmlns:xlink="http://www.w3.org/1999/xlink" contentScriptType="application/ecmascript" contentStyleType="text/css" height="256px" preserveAspectRatio="none" style="width:696px;height:256px;" version="1.1" viewBox="0 0 696 256" width="696px" zoomAndPan="magnify"><defs><filter height="300%" id="f1a0ia5jrr6eg0" width="300%" x="-1" y="-1"><feGaussianBlur result="blurOut" stdDeviation="2.0"/><feColorMatrix in="blurOut" result="blurOut2" type="matrix" values="0 0 0 0 0 0 0 0 0 0 0 0 0 0 0 0 0 0 .4 0"/><feOffset dx="4.0" dy="4.0" in="blurOut2" result="blurOut3"/><feBlend in="SourceGraphic" in2="blurOut3" mode="normal"/></filter></defs><g><text fill="#888888" font-family="sans-serif" font-size="10" lengthAdjust="spacingAndGlyphs" textLength="48" x="636" y="10.3809">--&gt; "sc2.1"</text><!--cluster 共通--><polygon fill="#FFFFFF" filter="url(#f1a0ia5jrr6eg0)" points="22,36.5781,56,36.5781,63,60.1875,650,60.1875,650,244.5781,22,244.5781,22,36.5781" style="stroke: #000000; stroke-width: 1.5;"/><line style="stroke: #000000; stroke-width: 1.5;" x1="22" x2="63" y1="60.1875" y2="60.1875"/><text fill="#000000" font-family="sans-serif" font-size="14" font-weight="bold" lengthAdjust="spacingAndGlyphs" textLength="28" x="26" y="53.1113">共通</text><!--class header--><rect fill="#FEFECE" filter="url(#f1a0ia5jrr6eg0)" height="48" id="header" style="stroke: #A80036; stroke-width: 1.5;" width="71" x="441.5" y="72.5781"/><ellipse cx="456.5" cy="88.5781" fill="#ADD1B2" rx="11" ry="11" style="stroke: #A80036; stroke-width: 1.0;"/><path d="M460.1875,89.7813 Q459.9375,93.2656 458.7969,94.4219 Q457.7656,95.4375 456.3594,95.4375 Q454.9531,95.4375 453.9219,94.4219 Q452.1719,92.6563 452.1719,88.9844 Q452.1719,84.7344 454.0469,82.8281 Q455.0938,81.8125 456.4219,81.8125 Q457.8281,81.8125 458.6719,82.625 Q460.1563,84.1406 460.0781,87.0156 L457.9531,87.0156 Q457.875,84.6875 457.2344,84.0469 Q456.9531,83.75 456.4219,83.75 Q455.9688,83.75 455.6094,84.125 Q454.375,85.3438 454.375,88.8594 Q454.375,91.9063 455.4219,92.9219 Q455.8438,93.3594 456.3594,93.3594 Q456.8125,93.3594 457.25,92.9219 Q457.8125,92.375 457.8906,89.7813 L460.1875,89.7813 Z "/><text fill="#000000" font-family="sans-serif" font-size="12" lengthAdjust="spacingAndGlyphs" textLength="39" x="470.5" y="93.4883">header</text><line style="stroke: #A80036; stroke-width: 1.5;" x1="442.5" x2="511.5" y1="104.5781" y2="104.5781"/><line style="stroke: #A80036; stroke-width: 1.5;" x1="442.5" x2="511.5" y1="112.5781" y2="112.5781"/><!--class sc1--><rect fill="#FEFECE" filter="url(#f1a0ia5jrr6eg0)" height="48" id="sc1" style="stroke: #A80036; stroke-width: 1.5;" width="52" x="582" y="180.5781"/><ellipse cx="597" cy="196.5781" fill="#ADD1B2" rx="11" ry="11" style="stroke: #A80036; stroke-width: 1.0;"/><path d="M600.6875,197.7813 Q600.4375,201.2656 599.2969,202.4219 Q598.2656,203.4375 596.8594,203.4375 Q595.4531,203.4375 594.4219,202.4219 Q592.6719,200.6563 592.6719,196.9844 Q592.6719,192.7344 594.5469,190.8281 Q595.5938,189.8125 596.9219,189.8125 Q598.3281,189.8125 599.1719,190.625 Q600.6563,192.1406 600.5781,195.0156 L598.4531,195.0156 Q598.375,192.6875 597.7344,192.0469 Q597.4531,191.75 596.9219,191.75 Q596.4688,191.75 596.1094,192.125 Q594.875,193.3438 594.875,196.8594 Q594.875,199.9063 595.9219,200.9219 Q596.3438,201.3594 596.8594,201.3594 Q597.3125,201.3594 597.75,200.9219 Q598.3125,200.375 598.3906,197.7813 L600.6875,197.7813 Z "/><text fill="#000000" font-family="sans-serif" font-size="12" lengthAdjust="spacingAndGlyphs" textLength="20" x="611" y="201.4883">sc1</text><line style="stroke: #A80036; stroke-width: 1.5;" x1="583" x2="633" y1="212.5781" y2="212.5781"/><line style="stroke: #A80036; stroke-width: 1.5;" x1="583" x2="633" y1="220.5781" y2="220.5781"/><!--class sc7--><rect fill="#FEFECE" filter="url(#f1a0ia5jrr6eg0)" height="48" id="sc7" style="stroke: #A80036; stroke-width: 1.5;" width="52" x="408" y="180.5781"/><ellipse cx="423" cy="196.5781" fill="#ADD1B2" rx="11" ry="11" style="stroke: #A80036; stroke-width: 1.0;"/><path d="M426.6875,197.7813 Q426.4375,201.2656 425.2969,202.4219 Q424.2656,203.4375 422.8594,203.4375 Q421.4531,203.4375 420.4219,202.4219 Q418.6719,200.6563 418.6719,196.9844 Q418.6719,192.7344 420.5469,190.8281 Q421.5938,189.8125 422.9219,189.8125 Q424.3281,189.8125 425.1719,190.625 Q426.6563,192.1406 426.5781,195.0156 L424.4531,195.0156 Q424.375,192.6875 423.7344,192.0469 Q423.4531,191.75 422.9219,191.75 Q422.4688,191.75 422.1094,192.125 Q420.875,193.3438 420.875,196.8594 Q420.875,199.9063 421.9219,200.9219 Q422.3438,201.3594 422.8594,201.3594 Q423.3125,201.3594 423.75,200.9219 Q424.3125,200.375 424.3906,197.7813 L426.6875,197.7813 Z "/><text fill="#000000" font-family="sans-serif" font-size="12" lengthAdjust="spacingAndGlyphs" textLength="20" x="437" y="201.4883">sc7</text><line style="stroke: #A80036; stroke-width: 1.5;" x1="409" x2="459" y1="212.5781" y2="212.5781"/><line style="stroke: #A80036; stroke-width: 1.5;" x1="409" x2="459" y1="220.5781" y2="220.5781"/><!--class sc8--><rect fill="#FEFECE" filter="url(#f1a0ia5jrr6eg0)" height="48" id="sc8" style="stroke: #A80036; stroke-width: 1.5;" width="52" x="495" y="180.5781"/><ellipse cx="510" cy="196.5781" fill="#ADD1B2" rx="11" ry="11" style="stroke: #A80036; stroke-width: 1.0;"/><path d="M513.6875,197.7813 Q513.4375,201.2656 512.2969,202.4219 Q511.2656,203.4375 509.8594,203.4375 Q508.4531,203.4375 507.4219,202.4219 Q505.6719,200.6563 505.6719,196.9844 Q505.6719,192.7344 507.5469,190.8281 Q508.5938,189.8125 509.9219,189.8125 Q511.3281,189.8125 512.1719,190.625 Q513.6563,192.1406 513.5781,195.0156 L511.4531,195.0156 Q511.375,192.6875 510.7344,192.0469 Q510.4531,191.75 509.9219,191.75 Q509.4688,191.75 509.1094,192.125 Q507.875,193.3438 507.875,196.8594 Q507.875,199.9063 508.9219,200.9219 Q509.3438,201.3594 509.8594,201.3594 Q510.3125,201.3594 510.75,200.9219 Q511.3125,200.375 511.3906,197.7813 L513.6875,197.7813 Z "/><text fill="#000000" font-family="sans-serif" font-size="12" lengthAdjust="spacingAndGlyphs" textLength="20" x="524" y="201.4883">sc8</text><line style="stroke: #A80036; stroke-width: 1.5;" x1="496" x2="546" y1="212.5781" y2="212.5781"/><line style="stroke: #A80036; stroke-width: 1.5;" x1="496" x2="546" y1="220.5781" y2="220.5781"/><!--class sc9--><rect fill="#FEFECE" filter="url(#f1a0ia5jrr6eg0)" height="48" id="sc9" style="stroke: #A80036; stroke-width: 1.5;" width="52" x="321" y="180.5781"/><ellipse cx="336" cy="196.5781" fill="#ADD1B2" rx="11" ry="11" style="stroke: #A80036; stroke-width: 1.0;"/><path d="M339.6875,197.7813 Q339.4375,201.2656 338.2969,202.4219 Q337.2656,203.4375 335.8594,203.4375 Q334.4531,203.4375 333.4219,202.4219 Q331.6719,200.6563 331.6719,196.9844 Q331.6719,192.7344 333.5469,190.8281 Q334.5938,189.8125 335.9219,189.8125 Q337.3281,189.8125 338.1719,190.625 Q339.6563,192.1406 339.5781,195.0156 L337.4531,195.0156 Q337.375,192.6875 336.7344,192.0469 Q336.4531,191.75 335.9219,191.75 Q335.4688,191.75 335.1094,192.125 Q333.875,193.3438 333.875,196.8594 Q333.875,199.9063 334.9219,200.9219 Q335.3438,201.3594 335.8594,201.3594 Q336.3125,201.3594 336.75,200.9219 Q337.3125,200.375 337.3906,197.7813 L339.6875,197.7813 Z "/><text fill="#000000" font-family="sans-serif" font-size="12" lengthAdjust="spacingAndGlyphs" textLength="20" x="350" y="201.4883">sc9</text><line style="stroke: #A80036; stroke-width: 1.5;" x1="322" x2="372" y1="212.5781" y2="212.5781"/><line style="stroke: #A80036; stroke-width: 1.5;" x1="322" x2="372" y1="220.5781" y2="220.5781"/><!--class footer--><rect fill="#FEFECE" filter="url(#f1a0ia5jrr6eg0)" height="48" id="footer" style="stroke: #A80036; stroke-width: 1.5;" width="63" x="177.5" y="72.5781"/><ellipse cx="192.5" cy="88.5781" fill="#ADD1B2" rx="11" ry="11" style="stroke: #A80036; stroke-width: 1.0;"/><path d="M196.1875,89.7813 Q195.9375,93.2656 194.7969,94.4219 Q193.7656,95.4375 192.3594,95.4375 Q190.9531,95.4375 189.9219,94.4219 Q188.1719,92.6563 188.1719,88.9844 Q188.1719,84.7344 190.0469,82.8281 Q191.0938,81.8125 192.4219,81.8125 Q193.8281,81.8125 194.6719,82.625 Q196.1563,84.1406 196.0781,87.0156 L193.9531,87.0156 Q193.875,84.6875 193.2344,84.0469 Q192.9531,83.75 192.4219,83.75 Q191.9688,83.75 191.6094,84.125 Q190.375,85.3438 190.375,88.8594 Q190.375,91.9063 191.4219,92.9219 Q191.8438,93.3594 192.3594,93.3594 Q192.8125,93.3594 193.25,92.9219 Q193.8125,92.375 193.8906,89.7813 L196.1875,89.7813 Z "/><text fill="#000000" font-family="sans-serif" font-size="12" lengthAdjust="spacingAndGlyphs" textLength="31" x="206.5" y="93.4883">footer</text><line style="stroke: #A80036; stroke-width: 1.5;" x1="178.5" x2="239.5" y1="104.5781" y2="104.5781"/><line style="stroke: #A80036; stroke-width: 1.5;" x1="178.5" x2="239.5" y1="112.5781" y2="112.5781"/><!--class sc12--><rect fill="#FEFECE" filter="url(#f1a0ia5jrr6eg0)" height="48" id="sc12" style="stroke: #A80036; stroke-width: 1.5;" width="59" x="38.5" y="180.5781"/><ellipse cx="53.5" cy="196.5781" fill="#ADD1B2" rx="11" ry="11" style="stroke: #A80036; stroke-width: 1.0;"/><path d="M57.1875,197.7813 Q56.9375,201.2656 55.7969,202.4219 Q54.7656,203.4375 53.3594,203.4375 Q51.9531,203.4375 50.9219,202.4219 Q49.1719,200.6563 49.1719,196.9844 Q49.1719,192.7344 51.0469,190.8281 Q52.0938,189.8125 53.4219,189.8125 Q54.8281,189.8125 55.6719,190.625 Q57.1563,192.1406 57.0781,195.0156 L54.9531,195.0156 Q54.875,192.6875 54.2344,192.0469 Q53.9531,191.75 53.4219,191.75 Q52.9688,191.75 52.6094,192.125 Q51.375,193.3438 51.375,196.8594 Q51.375,199.9063 52.4219,200.9219 Q52.8438,201.3594 53.3594,201.3594 Q53.8125,201.3594 54.25,200.9219 Q54.8125,200.375 54.8906,197.7813 L57.1875,197.7813 Z "/><text fill="#000000" font-family="sans-serif" font-size="12" lengthAdjust="spacingAndGlyphs" textLength="27" x="67.5" y="201.4883">sc12</text><line style="stroke: #A80036; stroke-width: 1.5;" x1="39.5" x2="96.5" y1="212.5781" y2="212.5781"/><line style="stroke: #A80036; stroke-width: 1.5;" x1="39.5" x2="96.5" y1="220.5781" y2="220.5781"/><!--class sc10--><rect fill="#FEFECE" filter="url(#f1a0ia5jrr6eg0)" height="48" id="sc10" style="stroke: #A80036; stroke-width: 1.5;" width="59" x="132.5" y="180.5781"/><ellipse cx="147.5" cy="196.5781" fill="#ADD1B2" rx="11" ry="11" style="stroke: #A80036; stroke-width: 1.0;"/><path d="M151.1875,197.7813 Q150.9375,201.2656 149.7969,202.4219 Q148.7656,203.4375 147.3594,203.4375 Q145.9531,203.4375 144.9219,202.4219 Q143.1719,200.6563 143.1719,196.9844 Q143.1719,192.7344 145.0469,190.8281 Q146.0938,189.8125 147.4219,189.8125 Q148.8281,189.8125 149.6719,190.625 Q151.1563,192.1406 151.0781,195.0156 L148.9531,195.0156 Q148.875,192.6875 148.2344,192.0469 Q147.9531,191.75 147.4219,191.75 Q146.9688,191.75 146.6094,192.125 Q145.375,193.3438 145.375,196.8594 Q145.375,199.9063 146.4219,200.9219 Q146.8438,201.3594 147.3594,201.3594 Q147.8125,201.3594 148.25,200.9219 Q148.8125,200.375 148.8906,197.7813 L151.1875,197.7813 Z "/><text fill="#000000" font-family="sans-serif" font-size="12" lengthAdjust="spacingAndGlyphs" textLength="27" x="161.5" y="201.4883">sc10</text><line style="stroke: #A80036; stroke-width: 1.5;" x1="133.5" x2="190.5" y1="212.5781" y2="212.5781"/><line style="stroke: #A80036; stroke-width: 1.5;" x1="133.5" x2="190.5" y1="220.5781" y2="220.5781"/><!--class sc11--><rect fill="#FEFECE" filter="url(#f1a0ia5jrr6eg0)" height="48" id="sc11" style="stroke: #A80036; stroke-width: 1.5;" width="59" x="226.5" y="180.5781"/><ellipse cx="241.5" cy="196.5781" fill="#ADD1B2" rx="11" ry="11" style="stroke: #A80036; stroke-width: 1.0;"/><path d="M245.1875,197.7813 Q244.9375,201.2656 243.7969,202.4219 Q242.7656,203.4375 241.3594,203.4375 Q239.9531,203.4375 238.9219,202.4219 Q237.1719,200.6563 237.1719,196.9844 Q237.1719,192.7344 239.0469,190.8281 Q240.0938,189.8125 241.4219,189.8125 Q242.8281,189.8125 243.6719,190.625 Q245.1563,192.1406 245.0781,195.0156 L242.9531,195.0156 Q242.875,192.6875 242.2344,192.0469 Q241.9531,191.75 241.4219,191.75 Q240.9688,191.75 240.6094,192.125 Q239.375,193.3438 239.375,196.8594 Q239.375,199.9063 240.4219,200.9219 Q240.8438,201.3594 241.3594,201.3594 Q241.8125,201.3594 242.25,200.9219 Q242.8125,200.375 242.8906,197.7813 L245.1875,197.7813 Z "/><text fill="#000000" font-family="sans-serif" font-size="12" lengthAdjust="spacingAndGlyphs" textLength="27" x="255.5" y="201.4883">sc11</text><line style="stroke: #A80036; stroke-width: 1.5;" x1="227.5" x2="284.5" y1="212.5781" y2="212.5781"/><line style="stroke: #A80036; stroke-width: 1.5;" x1="227.5" x2="284.5" y1="220.5781" y2="220.5781"/><!--link header to sc1--><path d="M505.425,120.5781 C526.819,137.8901 556.081,161.5677 577.877,179.204 " fill="none" id="header-sc1" style="stroke: #A80036; stroke-width: 1.0;"/><polygon fill="#A80036" points="581.857,182.4239,577.3756,173.6537,577.9697,179.2793,572.3441,179.8734,581.857,182.4239" style="stroke: #A80036; stroke-width: 1.0;"/><!--link header to sc7--><path d="M467.67,120.5781 C461.122,136.7191 452.329,158.3941 445.371,175.5469 " fill="none" id="header-sc7" style="stroke: #A80036; stroke-width: 1.0;"/><polygon fill="#A80036" points="443.461,180.2565,450.5511,173.4205,445.3407,175.6233,443.1379,170.413,443.461,180.2565" style="stroke: #A80036; stroke-width: 1.0;"/><!--link header to sc8--><path d="M486.547,120.5781 C493.247,136.7191 502.244,158.3941 509.364,175.5469 " fill="none" id="header-sc8" style="stroke: #A80036; stroke-width: 1.0;"/><polygon fill="#A80036" points="511.319,180.2565,511.5632,170.4107,509.4022,175.6385,504.1744,173.4775,511.319,180.2565" style="stroke: #A80036; stroke-width: 1.0;"/><!--link header to sc9--><path d="M448.792,120.5781 C427.702,137.7751 398.906,161.2543 377.323,178.8528 " fill="none" id="header-sc9" style="stroke: #A80036; stroke-width: 1.0;"/><polygon fill="#A80036" points="373.381,182.0676,382.8838,179.4799,377.256,178.9078,377.828,173.2799,373.381,182.0676" style="stroke: #A80036; stroke-width: 1.0;"/><!--link footer to sc9--><path d="M238.944,120.5781 C261.929,138.2341 293.535,162.511 316.627,180.2479 " fill="none" id="footer-sc9" style="stroke: #A80036; stroke-width: 1.0;"/><polygon fill="#A80036" points="320.835,183.4806,316.134,174.8261,316.8697,180.4349,311.2609,181.1706,320.835,183.4806" style="stroke: #A80036; stroke-width: 1.0;"/><!--link footer to sc12--><path d="M178.405,120.5781 C155.835,137.5461 125.13,160.6293 101.8298,178.1458 " fill="none" id="footer-sc12" style="stroke: #A80036; stroke-width: 1.0;"/><polygon fill="#A80036" points="97.569,181.349,107.1665,179.1381,101.5656,178.3445,102.3592,172.7435,97.569,181.349" style="stroke: #A80036; stroke-width: 1.0;"/><!--link footer to sc10--><path d="M198.802,120.5781 C191.645,136.7191 182.034,158.3941 174.429,175.5469 " fill="none" id="footer-sc10" style="stroke: #A80036; stroke-width: 1.0;"/><polygon fill="#A80036" points="172.341,180.2565,179.6462,173.6509,174.368,175.6858,172.3331,170.4077,172.341,180.2565" style="stroke: #A80036; stroke-width: 1.0;"/><!--link footer to sc11--><path d="M219.198,120.5781 C226.355,136.7191 235.966,158.3941 243.571,175.5469 " fill="none" id="footer-sc11" style="stroke: #A80036; stroke-width: 1.0;"/><polygon fill="#A80036" points="245.659,180.2565,245.6669,170.4077,243.632,175.6858,238.3538,173.6509,245.659,180.2565" style="stroke: #A80036; stroke-width: 1.0;"/><!--
@startuml
	package "共通" {
		header - -> sc1
		header - -> ~"sc2.1"
		header - -> sc7
		header - -> sc8
		header - -> sc9
		footer - -> sc9
		footer - -> sc12
		footer - -> sc10
		footer - -> sc11
	}
@enduml

PlantUML version 1.2019.06(Sat May 25 02:10:25 JST 2019)
(GPL source distribution)
Java Runtime: OpenJDK Runtime Environment
JVM: OpenJDK 64-Bit Server VM
Java Version: 14.0.2+12-46
Operating System: Windows 10
OS Version: 10.0
Default Encoding: MS932
Language: ja
Country: JP
--></g></svg>