<?xml version="1.0" encoding="UTF-8" standalone="no"?><svg xmlns="http://www.w3.org/2000/svg" xmlns:xlink="http://www.w3.org/1999/xlink" contentScriptType="application/ecmascript" contentStyleType="text/css" height="210px" preserveAspectRatio="none" style="width:551px;height:210px;" version="1.1" viewBox="0 0 551 210" width="551px" zoomAndPan="magnify"><defs><filter height="300%" id="f1qi52f4yvlbt0" width="300%" x="-1" y="-1"><feGaussianBlur result="blurOut" stdDeviation="2.0"/><feColorMatrix in="blurOut" result="blurOut2" type="matrix" values="0 0 0 0 0 0 0 0 0 0 0 0 0 0 0 0 0 0 .4 0"/><feOffset dx="4.0" dy="4.0" in="blurOut2" result="blurOut3"/><feBlend in="SourceGraphic" in2="blurOut3" mode="normal"/></filter></defs><g><text fill="#000000" font-family="sans-serif" font-size="18" lengthAdjust="spacingAndGlyphs" text-decoration="underline" textLength="90" x="241" y="18.6855">新規登録時</text><!--cluster userDetail--><polygon fill="#FFFFFF" filter="url(#f1qi52f4yvlbt0)" points="94.5,92.6406,160.5,92.6406,167.5,116.25,529.5,116.25,529.5,198.6406,94.5,198.6406,94.5,92.6406" style="stroke: #000000; stroke-width: 1.5;"/><line style="stroke: #000000; stroke-width: 1.5;" x1="94.5" x2="167.5" y1="116.25" y2="116.25"/><text fill="#000000" font-family="sans-serif" font-size="14" font-weight="bold" lengthAdjust="spacingAndGlyphs" textLength="60" x="98.5" y="109.1738">ユーザー</text><!--entity follow--><rect fill="#FEFECE" filter="url(#f1qi52f4yvlbt0)" height="37.6094" style="stroke: #A80036; stroke-width: 1.5;" width="104" x="248.5" y="136.6406"/><text fill="#000000" font-family="sans-serif" font-size="14" lengthAdjust="spacingAndGlyphs" textLength="84" x="258.5" y="161.1738">フォロー一覧</text><!--entity follower--><rect fill="#FEFECE" filter="url(#f1qi52f4yvlbt0)" height="37.6094" style="stroke: #A80036; stroke-width: 1.5;" width="118" x="387.5" y="136.6406"/><text fill="#000000" font-family="sans-serif" font-size="14" lengthAdjust="spacingAndGlyphs" textLength="98" x="397.5" y="161.1738">フォロワー一覧</text><!--entity tag--><rect fill="#FEFECE" filter="url(#f1qi52f4yvlbt0)" height="37.6094" style="stroke: #A80036; stroke-width: 1.5;" width="76" x="137.5" y="136.6406"/><text fill="#000000" font-family="sans-serif" font-size="14" lengthAdjust="spacingAndGlyphs" textLength="56" x="147.5" y="161.1738">タグ一覧</text><!--entity top--><rect fill="#FEFECE" filter="url(#f1qi52f4yvlbt0)" height="37.6094" style="stroke: #A80036; stroke-width: 1.5;" width="91" x="6" y="30.6406"/><text fill="#000000" font-family="sans-serif" font-size="14" lengthAdjust="spacingAndGlyphs" textLength="71" x="16" y="55.1738">TOPページ</text><!--entity user--><rect fill="#FEFECE" filter="url(#f1qi52f4yvlbt0)" height="37.6094" style="stroke: #A80036; stroke-width: 1.5;" width="104" x="299.5" y="30.6406"/><text fill="#000000" font-family="sans-serif" font-size="14" lengthAdjust="spacingAndGlyphs" textLength="84" x="309.5" y="55.1738">ユーザー詳細</text><!--entity profile--><rect fill="#FEFECE" filter="url(#f1qi52f4yvlbt0)" height="37.6094" style="stroke: #A80036; stroke-width: 1.5;" width="132" x="132.5" y="30.6406"/><text fill="#000000" font-family="sans-serif" font-size="14" lengthAdjust="spacingAndGlyphs" textLength="112" x="142.5" y="55.1738">プロフィール設定</text><!--link top to userDetail--><!--link user to follow--><path d="M342.616,68.7556 C333.313,87.7286 318.782,117.3586 309.453,136.3838 " fill="none" id="user-follow" style="stroke: #A80036; stroke-width: 1.0;"/><!--link user to follower--><path d="M368.048,68.7556 C385.378,87.7286 412.445,117.3586 429.823,136.3838 " fill="none" id="user-follower" style="stroke: #A80036; stroke-width: 1.0;"/><!--link user to tag--><path d="M299.261,64.6586 C293.29,66.0866 287.276,67.4476 281.5,68.6406 C259.03,73.2806 249.986,64.5286 230.5,76.6406 C207.702,90.8106 191.733,118.2816 183.079,136.5457 " fill="none" id="user-tag" style="stroke: #A80036; stroke-width: 1.0;"/><!--link follow to follower--><path d="M352.684,155.6406 C364.288,155.6406 375.893,155.6406 387.498,155.6406 " fill="none" id="follow-follower" style="stroke: #A80036; stroke-width: 1.0;"/><!--link top to profile--><path d="M97.1504,49.6406 C107.152,49.6406 117.153,49.6406 127.155,49.6406 " fill="none" id="top-profile" style="stroke: #A80036; stroke-width: 1.0;"/><polygon fill="#A80036" points="132.385,49.6406,123.385,45.6406,127.385,49.6406,123.385,53.6406,132.385,49.6406" style="stroke: #A80036; stroke-width: 1.0;"/><!--link profile to user--><path d="M264.541,49.6406 C274.376,49.6406 284.211,49.6406 294.046,49.6406 " fill="none" id="profile-user" style="stroke: #A80036; stroke-width: 1.0;"/><polygon fill="#A80036" points="299.189,49.6406,290.189,45.6406,294.189,49.6406,290.189,53.6406,299.189,49.6406" style="stroke: #A80036; stroke-width: 1.0;"/><!--
@startuml
	agent "TOPページ" as top
	agent "ユーザー詳細" as user
	agent "プロフィール設定" as profile
	top -[hidden]right-> userDetail
	package "ユーザー" as userDetail {
		agent "ユーザー詳細" as user
		agent "フォロー一覧" as follow
		agent "フォロワー一覧" as follower
		agent "タグ一覧" as tag
		user - - follow
		user - - follower
		user - - tag
		follow -right- follower
	}
	title __新規登録時__
	top -right-> profile
	profile -right-> user
@enduml

PlantUML version 1.2019.06(Sat May 25 02:10:25 JST 2019)
(GPL source distribution)
Java Runtime: Java(TM) SE Runtime Environment
JVM: Java HotSpot(TM) 64-Bit Server VM
Java Version: 1.8.0_231-b11
Operating System: Windows 10
OS Version: 10.0
Default Encoding: MS932
Language: ja
Country: JP
--></g></svg>