<?xml version="1.0" encoding="UTF-8" standalone="no"?><svg xmlns="http://www.w3.org/2000/svg" xmlns:xlink="http://www.w3.org/1999/xlink" contentScriptType="application/ecmascript" contentStyleType="text/css" height="865px" preserveAspectRatio="none" style="width:556px;height:865px;" version="1.1" viewBox="0 0 556 865" width="556px" zoomAndPan="magnify"><defs><filter height="300%" id="fz06i9k629vif" width="300%" x="-1" y="-1"><feGaussianBlur result="blurOut" stdDeviation="2.0"/><feColorMatrix in="blurOut" result="blurOut2" type="matrix" values="0 0 0 0 0 0 0 0 0 0 0 0 0 0 0 0 0 0 .4 0"/><feOffset dx="4.0" dy="4.0" in="blurOut2" result="blurOut3"/><feBlend in="SourceGraphic" in2="blurOut3" mode="normal"/></filter></defs><g><!--cluster User--><polygon fill="#FFFFFF" filter="url(#fz06i9k629vif)" points="22,24,61,24,68,47.6094,534,47.6094,534,853,22,853,22,24" style="stroke: #000000; stroke-width: 1.5;"/><line style="stroke: #000000; stroke-width: 1.5;" x1="22" x2="68" y1="47.6094" y2="47.6094"/><text fill="#000000" font-family="sans-serif" font-size="14" font-weight="bold" lengthAdjust="spacingAndGlyphs" textLength="33" x="26" y="40.5332">User</text><!--cluster AppLayer--><rect fill="#FFFFFF" filter="url(#fz06i9k629vif)" height="100" style="stroke: #000000; stroke-width: 1.5;" width="128" x="382" y="68"/><text fill="#000000" font-family="sans-serif" font-size="14" font-weight="bold" lengthAdjust="spacingAndGlyphs" textLength="65" x="413.5" y="84.5332">AppLayer</text><!--cluster DomainLayer--><rect fill="#FFFFFF" filter="url(#fz06i9k629vif)" height="499" style="stroke: #000000; stroke-width: 1.5;" width="411" x="99" y="192"/><text fill="#000000" font-family="sans-serif" font-size="14" font-weight="bold" lengthAdjust="spacingAndGlyphs" textLength="90" x="259.5" y="208.5332">DomainLayer</text><!--cluster InfrastructureLayer--><rect fill="#FFFFFF" filter="url(#fz06i9k629vif)" height="114" style="stroke: #000000; stroke-width: 1.5;" width="362" x="137" y="715"/><text fill="#000000" font-family="sans-serif" font-size="14" font-weight="bold" lengthAdjust="spacingAndGlyphs" textLength="135" x="250.5" y="731.5332">InfrastructureLayer</text><!--class UserAppConfig--><rect fill="#FEFECE" filter="url(#fz06i9k629vif)" height="48" id="UserAppConfig" style="stroke: #A80036; stroke-width: 1.5;" width="116" x="38" y="104"/><ellipse cx="53" cy="120" fill="#ADD1B2" rx="11" ry="11" style="stroke: #A80036; stroke-width: 1.0;"/><path d="M55.7031,125.4375 Q54.7813,126.3594 52.5156,126.3594 Q51.25,126.3594 50.3281,125.4375 Q48.6719,123.7813 48.6719,120.25 Q48.6719,116.1406 50.4531,114.3438 Q51.3906,113.4219 52.5781,113.4219 Q54.8438,113.4219 55.5781,114.1406 Q56.9688,115.5469 56.9063,117.9375 L54.4375,117.9375 Q54.375,115.8125 53.6406,115.0781 Q53.25,114.6719 52.5781,114.6719 Q52.5781,114.6719 52.5156,115.1406 Q51.1875,116.4688 51.1875,120.125 Q51.1875,123.3125 52.3281,124.4375 Q52.8594,124.9688 52.8594,124.9688 Q53.1094,124.9688 53.6406,124.4375 Q54.3125,123.7813 54.375,121.3906 L56.9688,121.3906 Q56.7656,124.375 55.7031,125.4375 Z "/><text fill="#000000" font-family="sans-serif" font-size="12" lengthAdjust="spacingAndGlyphs" textLength="84" x="67" y="124.9102">UserAppConfig</text><line style="stroke: #A80036; stroke-width: 1.5;" x1="39" x2="153" y1="136" y2="136"/><line style="stroke: #A80036; stroke-width: 1.5;" x1="39" x2="153" y1="144" y2="144"/><!--class UserController--><rect fill="#FEFECE" filter="url(#fz06i9k629vif)" height="75.6719" id="UserController" style="stroke: #A80036; stroke-width: 1.5;" width="173" x="189.5" y="90"/><ellipse cx="231.5" cy="106" fill="#ADD1B2" rx="11" ry="11" style="stroke: #A80036; stroke-width: 1.0;"/><path d="M234.2031,111.4375 Q233.2813,112.3594 231.0156,112.3594 Q229.75,112.3594 228.8281,111.4375 Q227.1719,109.7813 227.1719,106.25 Q227.1719,102.1406 228.9531,100.3438 Q229.8906,99.4219 231.0781,99.4219 Q233.3438,99.4219 234.0781,100.1406 Q235.4688,101.5469 235.4063,103.9375 L232.9375,103.9375 Q232.875,101.8125 232.1406,101.0781 Q231.75,100.6719 231.0781,100.6719 Q231.0781,100.6719 231.0156,101.1406 Q229.6875,102.4688 229.6875,106.125 Q229.6875,109.3125 230.8281,110.4375 Q231.3594,110.9688 231.3594,110.9688 Q231.6094,110.9688 232.1406,110.4375 Q232.8125,109.7813 232.875,107.3906 L235.4688,107.3906 Q235.2656,110.375 234.2031,111.4375 Z "/><text fill="#000000" font-family="sans-serif" font-size="12" lengthAdjust="spacingAndGlyphs" textLength="81" x="251.5" y="110.9102">UserController</text><line style="stroke: #A80036; stroke-width: 1.5;" x1="190.5" x2="361.5" y1="122" y2="122"/><rect fill="none" height="6" style="stroke: #C82930; stroke-width: 1.0;" width="6" x="197.5" y="131.418"/><text fill="#000000" font-family="sans-serif" font-size="11" lengthAdjust="spacingAndGlyphs" textLength="129" x="209.5" y="137.4189">UserServiceIF userservice</text><line style="stroke: #A80036; stroke-width: 1.5;" x1="190.5" x2="361.5" y1="143.8359" y2="143.8359"/><ellipse cx="200.5" cy="156.2539" fill="#84BE84" rx="3" ry="3" style="stroke: #038048; stroke-width: 1.0;"/><text fill="#000000" font-family="sans-serif" font-size="11" lengthAdjust="spacingAndGlyphs" textLength="147" x="209.5" y="159.2549">ModelAndView getUserPage()</text><!--class UserHelper--><rect fill="#FEFECE" filter="url(#fz06i9k629vif)" height="48" id="UserHelper" style="stroke: #A80036; stroke-width: 1.5;" width="96" x="398" y="104"/><ellipse cx="413" cy="120" fill="#ADD1B2" rx="11" ry="11" style="stroke: #A80036; stroke-width: 1.0;"/><path d="M415.7031,125.4375 Q414.7813,126.3594 412.5156,126.3594 Q411.25,126.3594 410.3281,125.4375 Q408.6719,123.7813 408.6719,120.25 Q408.6719,116.1406 410.4531,114.3438 Q411.3906,113.4219 412.5781,113.4219 Q414.8438,113.4219 415.5781,114.1406 Q416.9688,115.5469 416.9063,117.9375 L414.4375,117.9375 Q414.375,115.8125 413.6406,115.0781 Q413.25,114.6719 412.5781,114.6719 Q412.5781,114.6719 412.5156,115.1406 Q411.1875,116.4688 411.1875,120.125 Q411.1875,123.3125 412.3281,124.4375 Q412.8594,124.9688 412.8594,124.9688 Q413.1094,124.9688 413.6406,124.4375 Q414.3125,123.7813 414.375,121.3906 L416.9688,121.3906 Q416.7656,124.375 415.7031,125.4375 Z "/><text fill="#000000" font-family="sans-serif" font-size="12" lengthAdjust="spacingAndGlyphs" textLength="64" x="427" y="124.9102">UserHelper</text><line style="stroke: #A80036; stroke-width: 1.5;" x1="399" x2="493" y1="136" y2="136"/><line style="stroke: #A80036; stroke-width: 1.5;" x1="399" x2="493" y1="144" y2="144"/><!--class UserServiceIF--><rect fill="#FEFECE" filter="url(#fz06i9k629vif)" height="144.8516" id="UserServiceIF" style="stroke: #A80036; stroke-width: 1.5;" width="157" x="115.5" y="242"/><ellipse cx="151.65" cy="258" fill="#B4A7E5" rx="11" ry="11" style="stroke: #A80036; stroke-width: 1.0;"/><path d="M152.6344,262.9063 L153.3688,262.9063 L153.3688,264.3594 L149.3688,264.3594 L149.3688,262.9063 L150.1031,262.9063 L150.1031,252.875 L149.3688,252.875 L149.3688,251.4219 L153.3688,251.4219 L153.3688,252.875 L152.6344,252.875 L152.6344,262.9063 Z "/><text fill="#000000" font-family="sans-serif" font-size="12" font-style="italic" lengthAdjust="spacingAndGlyphs" textLength="78" x="170.35" y="262.9102">UserServiceIF</text><line style="stroke: #A80036; stroke-width: 1.5;" x1="116.5" x2="271.5" y1="274" y2="274"/><line style="stroke: #A80036; stroke-width: 1.5;" x1="116.5" x2="271.5" y1="282" y2="282"/><ellipse cx="126.5" cy="294.418" fill="#84BE84" rx="3" ry="3" style="stroke: #038048; stroke-width: 1.0;"/><text fill="#000000" font-family="sans-serif" font-size="11" lengthAdjust="spacingAndGlyphs" textLength="69" x="135.5" y="297.4189">void getUser()</text><ellipse cx="126.5" cy="308.2539" fill="#84BE84" rx="3" ry="3" style="stroke: #038048; stroke-width: 1.0;"/><text fill="#000000" font-family="sans-serif" font-size="11" lengthAdjust="spacingAndGlyphs" textLength="104" x="135.5" y="311.2549">String getUserName()</text><ellipse cx="126.5" cy="322.0898" fill="#84BE84" rx="3" ry="3" style="stroke: #038048; stroke-width: 1.0;"/><text fill="#000000" font-family="sans-serif" font-size="11" lengthAdjust="spacingAndGlyphs" textLength="125" x="135.5" y="325.0908">boolean getUserEnabled()</text><ellipse cx="126.5" cy="335.9258" fill="#84BE84" rx="3" ry="3" style="stroke: #038048; stroke-width: 1.0;"/><text fill="#000000" font-family="sans-serif" font-size="11" lengthAdjust="spacingAndGlyphs" textLength="131" x="135.5" y="338.9268">String getUserMailAddres()</text><ellipse cx="126.5" cy="349.7617" fill="#84BE84" rx="3" ry="3" style="stroke: #038048; stroke-width: 1.0;"/><text fill="#000000" font-family="sans-serif" font-size="11" lengthAdjust="spacingAndGlyphs" textLength="131" x="135.5" y="352.7627">String getUserDescription()</text><ellipse cx="126.5" cy="363.5977" fill="#84BE84" rx="3" ry="3" style="stroke: #038048; stroke-width: 1.0;"/><text fill="#000000" font-family="sans-serif" font-size="11" lengthAdjust="spacingAndGlyphs" textLength="105" x="135.5" y="366.5986">String getUserImage()</text><ellipse cx="126.5" cy="377.4336" fill="#84BE84" rx="3" ry="3" style="stroke: #038048; stroke-width: 1.0;"/><text fill="#000000" font-family="sans-serif" font-size="11" lengthAdjust="spacingAndGlyphs" textLength="96" x="135.5" y="380.4346">boolean getVisible()</text><!--class UserServiceImpl--><rect fill="#FEFECE" filter="url(#fz06i9k629vif)" height="172.5234" id="UserServiceImpl" style="stroke: #A80036; stroke-width: 1.5;" width="186" x="308" y="228"/><ellipse cx="351.35" cy="244" fill="#ADD1B2" rx="11" ry="11" style="stroke: #A80036; stroke-width: 1.0;"/><path d="M354.0531,249.4375 Q353.1313,250.3594 350.8656,250.3594 Q349.6,250.3594 348.6781,249.4375 Q347.0219,247.7813 347.0219,244.25 Q347.0219,240.1406 348.8031,238.3438 Q349.7406,237.4219 350.9281,237.4219 Q353.1938,237.4219 353.9281,238.1406 Q355.3188,239.5469 355.2563,241.9375 L352.7875,241.9375 Q352.725,239.8125 351.9906,239.0781 Q351.6,238.6719 350.9281,238.6719 Q350.9281,238.6719 350.8656,239.1406 Q349.5375,240.4688 349.5375,244.125 Q349.5375,247.3125 350.6781,248.4375 Q351.2094,248.9688 351.2094,248.9688 Q351.4594,248.9688 351.9906,248.4375 Q352.6625,247.7813 352.725,245.3906 L355.3188,245.3906 Q355.1156,248.375 354.0531,249.4375 Z "/><text fill="#000000" font-family="sans-serif" font-size="12" lengthAdjust="spacingAndGlyphs" textLength="91" x="371.65" y="248.9102">UserServiceImpl</text><line style="stroke: #A80036; stroke-width: 1.5;" x1="309" x2="493" y1="260" y2="260"/><rect fill="none" height="6" style="stroke: #C82930; stroke-width: 1.0;" width="6" x="316" y="269.418"/><text fill="#000000" font-family="sans-serif" font-size="11" lengthAdjust="spacingAndGlyphs" textLength="83" x="328" y="275.4189">UserDomain user</text><rect fill="none" height="6" style="stroke: #C82930; stroke-width: 1.0;" width="6" x="316" y="283.2539"/><text fill="#000000" font-family="sans-serif" font-size="11" lengthAdjust="spacingAndGlyphs" textLength="160" x="328" y="289.2549">UserRepositoryIF userRepository</text><line style="stroke: #A80036; stroke-width: 1.5;" x1="309" x2="493" y1="295.6719" y2="295.6719"/><ellipse cx="319" cy="308.0898" fill="#84BE84" rx="3" ry="3" style="stroke: #038048; stroke-width: 1.0;"/><text fill="#000000" font-family="sans-serif" font-size="11" lengthAdjust="spacingAndGlyphs" textLength="69" x="328" y="311.0908">void getUser()</text><ellipse cx="319" cy="321.9258" fill="#84BE84" rx="3" ry="3" style="stroke: #038048; stroke-width: 1.0;"/><text fill="#000000" font-family="sans-serif" font-size="11" lengthAdjust="spacingAndGlyphs" textLength="104" x="328" y="324.9268">String getUserName()</text><ellipse cx="319" cy="335.7617" fill="#84BE84" rx="3" ry="3" style="stroke: #038048; stroke-width: 1.0;"/><text fill="#000000" font-family="sans-serif" font-size="11" lengthAdjust="spacingAndGlyphs" textLength="125" x="328" y="338.7627">boolean getUserEnabled()</text><ellipse cx="319" cy="349.5977" fill="#84BE84" rx="3" ry="3" style="stroke: #038048; stroke-width: 1.0;"/><text fill="#000000" font-family="sans-serif" font-size="11" lengthAdjust="spacingAndGlyphs" textLength="131" x="328" y="352.5986">String getUserMailAddres()</text><ellipse cx="319" cy="363.4336" fill="#84BE84" rx="3" ry="3" style="stroke: #038048; stroke-width: 1.0;"/><text fill="#000000" font-family="sans-serif" font-size="11" lengthAdjust="spacingAndGlyphs" textLength="131" x="328" y="366.4346">String getUserDescription()</text><ellipse cx="319" cy="377.2695" fill="#84BE84" rx="3" ry="3" style="stroke: #038048; stroke-width: 1.0;"/><text fill="#000000" font-family="sans-serif" font-size="11" lengthAdjust="spacingAndGlyphs" textLength="105" x="328" y="380.2705">String getUserImage()</text><ellipse cx="319" cy="391.1055" fill="#84BE84" rx="3" ry="3" style="stroke: #038048; stroke-width: 1.0;"/><text fill="#000000" font-family="sans-serif" font-size="11" lengthAdjust="spacingAndGlyphs" textLength="96" x="328" y="394.1064">boolean getVisible()</text><!--class UserDomain--><rect fill="#FEFECE" filter="url(#fz06i9k629vif)" height="214.0313" id="UserDomain" style="stroke: #A80036; stroke-width: 1.5;" width="133" x="138.5" y="461"/><ellipse cx="167" cy="477" fill="#ADD1B2" rx="11" ry="11" style="stroke: #A80036; stroke-width: 1.0;"/><path d="M169.7031,482.4375 Q168.7813,483.3594 166.5156,483.3594 Q165.25,483.3594 164.3281,482.4375 Q162.6719,480.7813 162.6719,477.25 Q162.6719,473.1406 164.4531,471.3438 Q165.3906,470.4219 166.5781,470.4219 Q168.8438,470.4219 169.5781,471.1406 Q170.9688,472.5469 170.9063,474.9375 L168.4375,474.9375 Q168.375,472.8125 167.6406,472.0781 Q167.25,471.6719 166.5781,471.6719 Q166.5781,471.6719 166.5156,472.1406 Q165.1875,473.4688 165.1875,477.125 Q165.1875,480.3125 166.3281,481.4375 Q166.8594,481.9688 166.8594,481.9688 Q167.1094,481.9688 167.6406,481.4375 Q168.3125,480.7813 168.375,478.3906 L170.9688,478.3906 Q170.7656,481.375 169.7031,482.4375 Z "/><text fill="#000000" font-family="sans-serif" font-size="12" lengthAdjust="spacingAndGlyphs" textLength="71" x="184" y="481.9102">UserDomain</text><line style="stroke: #A80036; stroke-width: 1.5;" x1="139.5" x2="270.5" y1="493" y2="493"/><rect fill="none" height="6" style="stroke: #C82930; stroke-width: 1.0;" width="6" x="146.5" y="502.418"/><text fill="#000000" font-family="sans-serif" font-size="11" lengthAdjust="spacingAndGlyphs" textLength="28" x="158.5" y="508.4189">int uId</text><rect fill="none" height="6" style="stroke: #C82930; stroke-width: 1.0;" width="6" x="146.5" y="516.2539"/><text fill="#000000" font-family="sans-serif" font-size="11" lengthAdjust="spacingAndGlyphs" textLength="101" x="158.5" y="522.2549">boolean userEnabled</text><rect fill="none" height="6" style="stroke: #C82930; stroke-width: 1.0;" width="6" x="146.5" y="530.0898"/><text fill="#000000" font-family="sans-serif" font-size="11" lengthAdjust="spacingAndGlyphs" textLength="61" x="158.5" y="536.0908">String userId</text><rect fill="none" height="6" style="stroke: #C82930; stroke-width: 1.0;" width="6" x="146.5" y="543.9258"/><text fill="#000000" font-family="sans-serif" font-size="11" lengthAdjust="spacingAndGlyphs" textLength="80" x="158.5" y="549.9268">String userName</text><rect fill="none" height="6" style="stroke: #C82930; stroke-width: 1.0;" width="6" x="146.5" y="557.7617"/><text fill="#000000" font-family="sans-serif" font-size="11" lengthAdjust="spacingAndGlyphs" textLength="107" x="158.5" y="563.7627">String userMailAddres</text><rect fill="none" height="6" style="stroke: #C82930; stroke-width: 1.0;" width="6" x="146.5" y="571.5977"/><text fill="#000000" font-family="sans-serif" font-size="11" lengthAdjust="spacingAndGlyphs" textLength="107" x="158.5" y="577.5986">String userDescription</text><rect fill="none" height="6" style="stroke: #C82930; stroke-width: 1.0;" width="6" x="146.5" y="585.4336"/><text fill="#000000" font-family="sans-serif" font-size="11" lengthAdjust="spacingAndGlyphs" textLength="81" x="158.5" y="591.4346">String userImage</text><rect fill="none" height="6" style="stroke: #C82930; stroke-width: 1.0;" width="6" x="146.5" y="599.2695"/><text fill="#000000" font-family="sans-serif" font-size="11" lengthAdjust="spacingAndGlyphs" textLength="52" x="158.5" y="605.2705">int[] tagList</text><rect fill="none" height="6" style="stroke: #C82930; stroke-width: 1.0;" width="6" x="146.5" y="613.1055"/><text fill="#000000" font-family="sans-serif" font-size="11" lengthAdjust="spacingAndGlyphs" textLength="67" x="158.5" y="619.1064">int[] followList</text><rect fill="none" height="6" style="stroke: #C82930; stroke-width: 1.0;" width="6" x="146.5" y="626.9414"/><text fill="#000000" font-family="sans-serif" font-size="11" lengthAdjust="spacingAndGlyphs" textLength="77" x="158.5" y="632.9424">int[] followerList</text><rect fill="none" height="6" style="stroke: #C82930; stroke-width: 1.0;" width="6" x="146.5" y="640.7773"/><text fill="#000000" font-family="sans-serif" font-size="11" lengthAdjust="spacingAndGlyphs" textLength="71" x="158.5" y="646.7783">boolean visible</text><rect fill="none" height="6" style="stroke: #C82930; stroke-width: 1.0;" width="6" x="146.5" y="654.6133"/><text fill="#000000" font-family="sans-serif" font-size="11" lengthAdjust="spacingAndGlyphs" textLength="102" x="158.5" y="660.6143">String designSettings</text><line style="stroke: #A80036; stroke-width: 1.5;" x1="139.5" x2="270.5" y1="667.0313" y2="667.0313"/><!--class UserRepositoryIF--><rect fill="#FEFECE" filter="url(#fz06i9k629vif)" height="61.8359" id="UserRepositoryIF" style="stroke: #A80036; stroke-width: 1.5;" width="147" x="153.5" y="751"/><ellipse cx="177.05" cy="767" fill="#B4A7E5" rx="11" ry="11" style="stroke: #A80036; stroke-width: 1.0;"/><path d="M178.0344,771.9063 L178.7688,771.9063 L178.7688,773.3594 L174.7688,773.3594 L174.7688,771.9063 L175.5031,771.9063 L175.5031,761.875 L174.7688,761.875 L174.7688,760.4219 L178.7688,760.4219 L178.7688,761.875 L178.0344,761.875 L178.0344,771.9063 Z "/><text fill="#000000" font-family="sans-serif" font-size="12" font-style="italic" lengthAdjust="spacingAndGlyphs" textLength="96" x="192.95" y="771.9102">UserRepositoryIF</text><line style="stroke: #A80036; stroke-width: 1.5;" x1="154.5" x2="299.5" y1="783" y2="783"/><line style="stroke: #A80036; stroke-width: 1.5;" x1="154.5" x2="299.5" y1="791" y2="791"/><ellipse cx="164.5" cy="803.418" fill="#84BE84" rx="3" ry="3" style="stroke: #038048; stroke-width: 1.0;"/><text fill="#000000" font-family="sans-serif" font-size="11" lengthAdjust="spacingAndGlyphs" textLength="121" x="173.5" y="806.4189">UserDomain selectUser()</text><!--class UserRepositoryImpl--><rect fill="#FEFECE" filter="url(#fz06i9k629vif)" height="61.8359" id="UserRepositoryImpl" style="stroke: #A80036; stroke-width: 1.5;" width="147" x="335.5" y="751"/><ellipse cx="352.75" cy="767" fill="#ADD1B2" rx="11" ry="11" style="stroke: #A80036; stroke-width: 1.0;"/><path d="M355.4531,772.4375 Q354.5313,773.3594 352.2656,773.3594 Q351,773.3594 350.0781,772.4375 Q348.4219,770.7813 348.4219,767.25 Q348.4219,763.1406 350.2031,761.3438 Q351.1406,760.4219 352.3281,760.4219 Q354.5938,760.4219 355.3281,761.1406 Q356.7188,762.5469 356.6563,764.9375 L354.1875,764.9375 Q354.125,762.8125 353.3906,762.0781 Q353,761.6719 352.3281,761.6719 Q352.3281,761.6719 352.2656,762.1406 Q350.9375,763.4688 350.9375,767.125 Q350.9375,770.3125 352.0781,771.4375 Q352.6094,771.9688 352.6094,771.9688 Q352.8594,771.9688 353.3906,771.4375 Q354.0625,770.7813 354.125,768.3906 L356.7188,768.3906 Q356.5156,771.375 355.4531,772.4375 Z "/><text fill="#000000" font-family="sans-serif" font-size="12" lengthAdjust="spacingAndGlyphs" textLength="110" x="367.25" y="771.9102">UserRepositoryImpl</text><line style="stroke: #A80036; stroke-width: 1.5;" x1="336.5" x2="481.5" y1="783" y2="783"/><line style="stroke: #A80036; stroke-width: 1.5;" x1="336.5" x2="481.5" y1="791" y2="791"/><ellipse cx="346.5" cy="803.418" fill="#84BE84" rx="3" ry="3" style="stroke: #038048; stroke-width: 1.0;"/><text fill="#000000" font-family="sans-serif" font-size="11" lengthAdjust="spacingAndGlyphs" textLength="121" x="355.5" y="806.4189">UserDomain selectUser()</text><!--link UserAppConfig to UserController--><!--link UserController to UserHelper--><path d="M362.66,128 C372.64,128 382.62,128 392.6,128 " fill="none" id="UserController-UserHelper" style="stroke: #A80036; stroke-width: 1.0;"/><polygon fill="#A80036" points="397.819,128,388.819,124,392.819,128,388.819,132,397.819,128" style="stroke: #A80036; stroke-width: 1.0;"/><!--link UserHelper to UserServiceIF--><path d="M426.55,152.263 C417.626,161.289 406.296,170.711 394,176 C372.911,185.072 311.117,172.939 291,184 C268.27,196.498 249.316,216.829 234.373,237.717 " fill="none" id="UserHelper-UserServiceIF" style="stroke: #A80036; stroke-width: 1.0;"/><polygon fill="#A80036" points="231.438,241.9,239.8814,236.8297,234.3096,237.8069,233.3324,232.2351,231.438,241.9" style="stroke: #A80036; stroke-width: 1.0;"/><!--link UserController to UserServiceIF--><path d="M259.406,166.336 C250.368,186.672 238.843,212.604 227.992,237.018 " fill="none" id="UserController-UserServiceIF" style="stroke: #A80036; stroke-width: 1.0;"/><polygon fill="#A80036" points="225.832,241.879,233.1412,235.2778,227.8618,237.3095,225.83,232.0301,225.832,241.879" style="stroke: #A80036; stroke-width: 1.0;"/><!--link UserServiceIF to UserDomain--><path d="M197.137,387.233 C198.141,410.173 199.274,436.074 200.36,460.924 " fill="none" id="UserServiceIF-UserDomain" style="stroke: #A80036; stroke-width: 1.0; stroke-dasharray: 7.0,7.0;"/><!--link UserServiceIF to UserServiceImpl--><path d="M293.098,314.5 C298.026,314.5 302.954,314.5 307.882,314.5 " fill="none" id="UserServiceIF-UserServiceImpl" style="stroke: #A80036; stroke-width: 1.0;"/><polygon fill="none" points="292.838,321.5,272.838,314.5,292.838,307.5,292.838,321.5" style="stroke: #A80036; stroke-width: 1.0;"/><!--link UserDomain to UserRepositoryIF--><path d="M216.032,675.311 C218.905,702.998 221.776,730.658 223.859,750.733 " fill="none" id="UserDomain-UserRepositoryIF" style="stroke: #A80036; stroke-width: 1.0; stroke-dasharray: 7.0,7.0;"/><!--link UserServiceImpl to UserRepositoryIF--><path d="M385.327,401.08 C368.555,481.063 337.595,602.323 289,699 C280.501,715.908 268.406,732.877 257.153,746.956 " fill="none" id="UserServiceImpl-UserRepositoryIF" style="stroke: #A80036; stroke-width: 1.0;"/><polygon fill="#A80036" points="254.004,750.848,262.7733,746.3647,257.1478,746.96,256.5525,741.3346,254.004,750.848" style="stroke: #A80036; stroke-width: 1.0;"/><!--link UserRepositoryIF to UserRepositoryImpl--><path d="M320.659,782 C325.543,782 330.426,782 335.31,782 " fill="none" id="UserRepositoryIF-UserRepositoryImpl" style="stroke: #A80036; stroke-width: 1.0;"/><polygon fill="none" points="320.582,788.9999,300.582,782,320.582,774.9999,320.582,788.9999" style="stroke: #A80036; stroke-width: 1.0;"/><!--
@startuml
Package User {
	class UserAppConfig
	UserAppConfig -[hidden]right> UserController

    package AppLayer <<Rectangle>>{
        class UserController {
        	-UserServiceIF userservice
        	+ModelAndView getUserPage()
        }
        class UserHelper
        UserController -right-> UserHelper
    }
    package DomainLayer <<Rectangle>>{
        interface UserServiceIF{
        	+void getUser()
        	+String getUserName()
        	+boolean getUserEnabled()
        	+String getUserMailAddres()
        	+String getUserDescription()
        	+String getUserImage()
        	+boolean getVisible()
        }
        class UserServiceImpl{
        	-UserDomain user
        	-UserRepositoryIF userRepository
        	+void getUser()
        	+String getUserName()
        	+boolean getUserEnabled()
        	+String getUserMailAddres()
        	+String getUserDescription()
        	+String getUserImage()
        	+boolean getVisible()
        }
        class UserDomain{
        	-int uId
        	-boolean userEnabled
        	-String userId
        	-String userName
        	-String userMailAddres
        	-String userDescription
        	-String userImage
        	-int[] tagList
        	-int[] followList
        	-int[] followerList
        	-boolean visible
        	-String designSettings
        }
        UserHelper -down-> UserServiceIF
        UserController -down-> UserServiceIF
        UserServiceIF .down. UserDomain
        UserServiceIF <|-right- UserServiceImpl
    }
	
    package InfrastructureLayer <<Rectangle>>{
        interface UserRepositoryIF{
        	+UserDomain selectUser()
        }
        class UserRepositoryImpl{
        	+UserDomain selectUser()
        }
        UserDomain .down. UserRepositoryIF
        UserServiceImpl -down-> UserRepositoryIF
        UserRepositoryIF <|-right- UserRepositoryImpl
    }
}
@enduml

PlantUML version 1.2019.06(Sat May 25 02:10:25 JST 2019)
(GPL source distribution)
Java Runtime: Java(TM) SE Runtime Environment
JVM: Java HotSpot(TM) 64-Bit Server VM
Java Version: 1.8.0_231-b11
Operating System: Windows 10
OS Version: 10.0
Default Encoding: MS932
Language: ja
Country: JP
--></g></svg>