<?xml version="1.0" encoding="UTF-8" standalone="no"?><svg xmlns="http://www.w3.org/2000/svg" xmlns:xlink="http://www.w3.org/1999/xlink" contentScriptType="application/ecmascript" contentStyleType="text/css" height="597px" preserveAspectRatio="none" style="width:686px;height:597px;" version="1.1" viewBox="0 0 686 597" width="686px" zoomAndPan="magnify"><defs><filter height="300%" id="fovy9zbrifhi1" width="300%" x="-1" y="-1"><feGaussianBlur result="blurOut" stdDeviation="2.0"/><feColorMatrix in="blurOut" result="blurOut2" type="matrix" values="0 0 0 0 0 0 0 0 0 0 0 0 0 0 0 0 0 0 .4 0"/><feOffset dx="4.0" dy="4.0" in="blurOut2" result="blurOut3"/><feBlend in="SourceGraphic" in2="blurOut3" mode="normal"/></filter></defs><g><!--cluster Login--><polygon fill="#FFFFFF" filter="url(#fovy9zbrifhi1)" points="22,61,67,61,74,84.6094,664,84.6094,664,585,22,585,22,61" style="stroke: #000000; stroke-width: 1.5;"/><line style="stroke: #000000; stroke-width: 1.5;" x1="22" x2="74" y1="84.6094" y2="84.6094"/><text fill="#000000" font-family="sans-serif" font-size="14" font-weight="bold" lengthAdjust="spacingAndGlyphs" textLength="39" x="26" y="77.5332">Login</text><!--cluster UILayer--><rect fill="#FFFFFF" filter="url(#fovy9zbrifhi1)" height="100" style="stroke: #000000; stroke-width: 1.5;" width="154" x="486" y="105"/><text fill="#000000" font-family="sans-serif" font-size="14" font-weight="bold" lengthAdjust="spacingAndGlyphs" textLength="52" x="537" y="121.5332">UILayer</text><!--cluster AppLayer--><rect fill="#FFFFFF" filter="url(#fovy9zbrifhi1)" height="100" style="stroke: #000000; stroke-width: 1.5;" width="285" x="177" y="105"/><text fill="#000000" font-family="sans-serif" font-size="14" font-weight="bold" lengthAdjust="spacingAndGlyphs" textLength="65" x="287" y="121.5332">AppLayer</text><!--cluster DomainLayer--><rect fill="#FFFFFF" filter="url(#fovy9zbrifhi1)" height="208" style="stroke: #000000; stroke-width: 1.5;" width="310" x="217" y="229"/><text fill="#000000" font-family="sans-serif" font-size="14" font-weight="bold" lengthAdjust="spacingAndGlyphs" textLength="90" x="327" y="245.5332">DomainLayer</text><!--cluster InfrastructureLayer--><rect fill="#FFFFFF" filter="url(#fovy9zbrifhi1)" height="100" style="stroke: #000000; stroke-width: 1.5;" width="347" x="269" y="461"/><text fill="#000000" font-family="sans-serif" font-size="14" font-weight="bold" lengthAdjust="spacingAndGlyphs" textLength="135" x="375" y="477.5332">InfrastructureLayer</text><!--class LoginAppConfig--><rect fill="#FEFECE" filter="url(#fovy9zbrifhi1)" height="48" id="LoginAppConfig" style="stroke: #A80036; stroke-width: 1.5;" width="120" x="38" y="141"/><ellipse cx="53" cy="157" fill="#ADD1B2" rx="11" ry="11" style="stroke: #A80036; stroke-width: 1.0;"/><path d="M55.7031,162.4375 Q54.7813,163.3594 52.5156,163.3594 Q51.25,163.3594 50.3281,162.4375 Q48.6719,160.7813 48.6719,157.25 Q48.6719,153.1406 50.4531,151.3438 Q51.3906,150.4219 52.5781,150.4219 Q54.8438,150.4219 55.5781,151.1406 Q56.9688,152.5469 56.9063,154.9375 L54.4375,154.9375 Q54.375,152.8125 53.6406,152.0781 Q53.25,151.6719 52.5781,151.6719 Q52.5781,151.6719 52.5156,152.1406 Q51.1875,153.4688 51.1875,157.125 Q51.1875,160.3125 52.3281,161.4375 Q52.8594,161.9688 52.8594,161.9688 Q53.1094,161.9688 53.6406,161.4375 Q54.3125,160.7813 54.375,158.3906 L56.9688,158.3906 Q56.7656,161.375 55.7031,162.4375 Z "/><text fill="#000000" font-family="sans-serif" font-size="12" lengthAdjust="spacingAndGlyphs" textLength="88" x="67" y="161.9102">LoginAppConfig</text><line style="stroke: #A80036; stroke-width: 1.5;" x1="39" x2="157" y1="173" y2="173"/><line style="stroke: #A80036; stroke-width: 1.5;" x1="39" x2="157" y1="181" y2="181"/><!--class LoginViewModel--><rect fill="#FEFECE" filter="url(#fovy9zbrifhi1)" height="48" id="LoginViewModel" style="stroke: #A80036; stroke-width: 1.5;" width="122" x="502" y="141"/><ellipse cx="517" cy="157" fill="#ADD1B2" rx="11" ry="11" style="stroke: #A80036; stroke-width: 1.0;"/><path d="M519.7031,162.4375 Q518.7813,163.3594 516.5156,163.3594 Q515.25,163.3594 514.3281,162.4375 Q512.6719,160.7813 512.6719,157.25 Q512.6719,153.1406 514.4531,151.3438 Q515.3906,150.4219 516.5781,150.4219 Q518.8438,150.4219 519.5781,151.1406 Q520.9688,152.5469 520.9063,154.9375 L518.4375,154.9375 Q518.375,152.8125 517.6406,152.0781 Q517.25,151.6719 516.5781,151.6719 Q516.5781,151.6719 516.5156,152.1406 Q515.1875,153.4688 515.1875,157.125 Q515.1875,160.3125 516.3281,161.4375 Q516.8594,161.9688 516.8594,161.9688 Q517.1094,161.9688 517.6406,161.4375 Q518.3125,160.7813 518.375,158.3906 L520.9688,158.3906 Q520.7656,161.375 519.7031,162.4375 Z "/><text fill="#000000" font-family="sans-serif" font-size="12" lengthAdjust="spacingAndGlyphs" textLength="90" x="531" y="161.9102">LoginViewModel</text><line style="stroke: #A80036; stroke-width: 1.5;" x1="503" x2="623" y1="173" y2="173"/><line style="stroke: #A80036; stroke-width: 1.5;" x1="503" x2="623" y1="181" y2="181"/><!--class LoginController--><rect fill="#FEFECE" filter="url(#fovy9zbrifhi1)" height="48" id="LoginController" style="stroke: #A80036; stroke-width: 1.5;" width="117" x="193.5" y="141"/><ellipse cx="208.5" cy="157" fill="#ADD1B2" rx="11" ry="11" style="stroke: #A80036; stroke-width: 1.0;"/><path d="M211.2031,162.4375 Q210.2813,163.3594 208.0156,163.3594 Q206.75,163.3594 205.8281,162.4375 Q204.1719,160.7813 204.1719,157.25 Q204.1719,153.1406 205.9531,151.3438 Q206.8906,150.4219 208.0781,150.4219 Q210.3438,150.4219 211.0781,151.1406 Q212.4688,152.5469 212.4063,154.9375 L209.9375,154.9375 Q209.875,152.8125 209.1406,152.0781 Q208.75,151.6719 208.0781,151.6719 Q208.0781,151.6719 208.0156,152.1406 Q206.6875,153.4688 206.6875,157.125 Q206.6875,160.3125 207.8281,161.4375 Q208.3594,161.9688 208.3594,161.9688 Q208.6094,161.9688 209.1406,161.4375 Q209.8125,160.7813 209.875,158.3906 L212.4688,158.3906 Q212.2656,161.375 211.2031,162.4375 Z "/><text fill="#000000" font-family="sans-serif" font-size="12" lengthAdjust="spacingAndGlyphs" textLength="85" x="222.5" y="161.9102">LoginController</text><line style="stroke: #A80036; stroke-width: 1.5;" x1="194.5" x2="309.5" y1="173" y2="173"/><line style="stroke: #A80036; stroke-width: 1.5;" x1="194.5" x2="309.5" y1="181" y2="181"/><!--class LoginHelper--><rect fill="#FEFECE" filter="url(#fovy9zbrifhi1)" height="48" id="LoginHelper" style="stroke: #A80036; stroke-width: 1.5;" width="100" x="346" y="141"/><ellipse cx="361" cy="157" fill="#ADD1B2" rx="11" ry="11" style="stroke: #A80036; stroke-width: 1.0;"/><path d="M363.7031,162.4375 Q362.7813,163.3594 360.5156,163.3594 Q359.25,163.3594 358.3281,162.4375 Q356.6719,160.7813 356.6719,157.25 Q356.6719,153.1406 358.4531,151.3438 Q359.3906,150.4219 360.5781,150.4219 Q362.8438,150.4219 363.5781,151.1406 Q364.9688,152.5469 364.9063,154.9375 L362.4375,154.9375 Q362.375,152.8125 361.6406,152.0781 Q361.25,151.6719 360.5781,151.6719 Q360.5781,151.6719 360.5156,152.1406 Q359.1875,153.4688 359.1875,157.125 Q359.1875,160.3125 360.3281,161.4375 Q360.8594,161.9688 360.8594,161.9688 Q361.1094,161.9688 361.6406,161.4375 Q362.3125,160.7813 362.375,158.3906 L364.9688,158.3906 Q364.7656,161.375 363.7031,162.4375 Z "/><text fill="#000000" font-family="sans-serif" font-size="12" lengthAdjust="spacingAndGlyphs" textLength="68" x="375" y="161.9102">LoginHelper</text><line style="stroke: #A80036; stroke-width: 1.5;" x1="347" x2="445" y1="173" y2="173"/><line style="stroke: #A80036; stroke-width: 1.5;" x1="347" x2="445" y1="181" y2="181"/><!--class LoginServiceIF--><rect fill="#FEFECE" filter="url(#fovy9zbrifhi1)" height="48" id="LoginServiceIF" style="stroke: #A80036; stroke-width: 1.5;" width="115" x="233.5" y="265"/><ellipse cx="248.5" cy="281" fill="#B4A7E5" rx="11" ry="11" style="stroke: #A80036; stroke-width: 1.0;"/><path d="M249.4844,285.9063 L250.2188,285.9063 L250.2188,287.3594 L246.2188,287.3594 L246.2188,285.9063 L246.9531,285.9063 L246.9531,275.875 L246.2188,275.875 L246.2188,274.4219 L250.2188,274.4219 L250.2188,275.875 L249.4844,275.875 L249.4844,285.9063 Z "/><text fill="#000000" font-family="sans-serif" font-size="12" font-style="italic" lengthAdjust="spacingAndGlyphs" textLength="83" x="262.5" y="285.9102">LoginServiceIF</text><line style="stroke: #A80036; stroke-width: 1.5;" x1="234.5" x2="347.5" y1="297" y2="297"/><line style="stroke: #A80036; stroke-width: 1.5;" x1="234.5" x2="347.5" y1="305" y2="305"/><!--class LoginServiceImpl--><rect fill="#FEFECE" filter="url(#fovy9zbrifhi1)" height="48" id="LoginServiceImpl" style="stroke: #A80036; stroke-width: 1.5;" width="127" x="383.5" y="265"/><ellipse cx="398.5" cy="281" fill="#ADD1B2" rx="11" ry="11" style="stroke: #A80036; stroke-width: 1.0;"/><path d="M401.2031,286.4375 Q400.2813,287.3594 398.0156,287.3594 Q396.75,287.3594 395.8281,286.4375 Q394.1719,284.7813 394.1719,281.25 Q394.1719,277.1406 395.9531,275.3438 Q396.8906,274.4219 398.0781,274.4219 Q400.3438,274.4219 401.0781,275.1406 Q402.4688,276.5469 402.4063,278.9375 L399.9375,278.9375 Q399.875,276.8125 399.1406,276.0781 Q398.75,275.6719 398.0781,275.6719 Q398.0781,275.6719 398.0156,276.1406 Q396.6875,277.4688 396.6875,281.125 Q396.6875,284.3125 397.8281,285.4375 Q398.3594,285.9688 398.3594,285.9688 Q398.6094,285.9688 399.1406,285.4375 Q399.8125,284.7813 399.875,282.3906 L402.4688,282.3906 Q402.2656,285.375 401.2031,286.4375 Z "/><text fill="#000000" font-family="sans-serif" font-size="12" lengthAdjust="spacingAndGlyphs" textLength="95" x="412.5" y="285.9102">LoginServiceImpl</text><line style="stroke: #A80036; stroke-width: 1.5;" x1="384.5" x2="509.5" y1="297" y2="297"/><line style="stroke: #A80036; stroke-width: 1.5;" x1="384.5" x2="509.5" y1="305" y2="305"/><!--class LoginDomain--><rect fill="#FEFECE" filter="url(#fovy9zbrifhi1)" height="48" id="LoginDomain" style="stroke: #A80036; stroke-width: 1.5;" width="107" x="253.5" y="373"/><ellipse cx="268.5" cy="389" fill="#ADD1B2" rx="11" ry="11" style="stroke: #A80036; stroke-width: 1.0;"/><path d="M271.2031,394.4375 Q270.2813,395.3594 268.0156,395.3594 Q266.75,395.3594 265.8281,394.4375 Q264.1719,392.7813 264.1719,389.25 Q264.1719,385.1406 265.9531,383.3438 Q266.8906,382.4219 268.0781,382.4219 Q270.3438,382.4219 271.0781,383.1406 Q272.4688,384.5469 272.4063,386.9375 L269.9375,386.9375 Q269.875,384.8125 269.1406,384.0781 Q268.75,383.6719 268.0781,383.6719 Q268.0781,383.6719 268.0156,384.1406 Q266.6875,385.4688 266.6875,389.125 Q266.6875,392.3125 267.8281,393.4375 Q268.3594,393.9688 268.3594,393.9688 Q268.6094,393.9688 269.1406,393.4375 Q269.8125,392.7813 269.875,390.3906 L272.4688,390.3906 Q272.2656,393.375 271.2031,394.4375 Z "/><text fill="#000000" font-family="sans-serif" font-size="12" lengthAdjust="spacingAndGlyphs" textLength="75" x="282.5" y="393.9102">LoginDomain</text><line style="stroke: #A80036; stroke-width: 1.5;" x1="254.5" x2="359.5" y1="405" y2="405"/><line style="stroke: #A80036; stroke-width: 1.5;" x1="254.5" x2="359.5" y1="413" y2="413"/><!--class LoginRepositoryIF--><rect fill="#FEFECE" filter="url(#fovy9zbrifhi1)" height="48" id="LoginRepositoryIF" style="stroke: #A80036; stroke-width: 1.5;" width="133" x="285.5" y="497"/><ellipse cx="300.5" cy="513" fill="#B4A7E5" rx="11" ry="11" style="stroke: #A80036; stroke-width: 1.0;"/><path d="M301.4844,517.9063 L302.2188,517.9063 L302.2188,519.3594 L298.2188,519.3594 L298.2188,517.9063 L298.9531,517.9063 L298.9531,507.875 L298.2188,507.875 L298.2188,506.4219 L302.2188,506.4219 L302.2188,507.875 L301.4844,507.875 L301.4844,517.9063 Z "/><text fill="#000000" font-family="sans-serif" font-size="12" font-style="italic" lengthAdjust="spacingAndGlyphs" textLength="101" x="314.5" y="517.9102">LoginRepositoryIF</text><line style="stroke: #A80036; stroke-width: 1.5;" x1="286.5" x2="417.5" y1="529" y2="529"/><line style="stroke: #A80036; stroke-width: 1.5;" x1="286.5" x2="417.5" y1="537" y2="537"/><!--class LoginRepositoryImpl--><rect fill="#FEFECE" filter="url(#fovy9zbrifhi1)" height="48" id="LoginRepositoryImpl" style="stroke: #A80036; stroke-width: 1.5;" width="146" x="454" y="497"/><ellipse cx="469" cy="513" fill="#ADD1B2" rx="11" ry="11" style="stroke: #A80036; stroke-width: 1.0;"/><path d="M471.7031,518.4375 Q470.7813,519.3594 468.5156,519.3594 Q467.25,519.3594 466.3281,518.4375 Q464.6719,516.7813 464.6719,513.25 Q464.6719,509.1406 466.4531,507.3438 Q467.3906,506.4219 468.5781,506.4219 Q470.8438,506.4219 471.5781,507.1406 Q472.9688,508.5469 472.9063,510.9375 L470.4375,510.9375 Q470.375,508.8125 469.6406,508.0781 Q469.25,507.6719 468.5781,507.6719 Q468.5781,507.6719 468.5156,508.1406 Q467.1875,509.4688 467.1875,513.125 Q467.1875,516.3125 468.3281,517.4375 Q468.8594,517.9688 468.8594,517.9688 Q469.1094,517.9688 469.6406,517.4375 Q470.3125,516.7813 470.375,514.3906 L472.9688,514.3906 Q472.7656,517.375 471.7031,518.4375 Z "/><text fill="#000000" font-family="sans-serif" font-size="12" lengthAdjust="spacingAndGlyphs" textLength="114" x="483" y="517.9102">LoginRepositoryImpl</text><line style="stroke: #A80036; stroke-width: 1.5;" x1="455" x2="599" y1="529" y2="529"/><line style="stroke: #A80036; stroke-width: 1.5;" x1="455" x2="599" y1="537" y2="537"/><!--link LoginViewModel to LoginController--><path d="M551.416,140.8 C533.751,107.079 496.558,47.361 444.5,23 C405.05,4.539 384.893,2.432 346.5,23 C301.965,46.858 274.819,101.984 261.663,136.106 " fill="none" id="LoginViewModel-LoginController" style="stroke: #A80036; stroke-width: 1.0;"/><polygon fill="#A80036" points="259.824,140.982,266.743,133.9729,261.5887,136.3038,259.2579,131.1494,259.824,140.982" style="stroke: #A80036; stroke-width: 1.0;"/><!--link LoginController to LoginHelper--><path d="M310.5,165 C320.549,165 330.598,165 340.647,165 " fill="none" id="LoginController-LoginHelper" style="stroke: #A80036; stroke-width: 1.0;"/><polygon fill="#A80036" points="345.902,165,336.902,161,340.902,165,336.902,169,345.902,165" style="stroke: #A80036; stroke-width: 1.0;"/><!--link LoginHelper to LoginServiceIF--><path d="M376.003,189.234 C358.414,209.671 332.801,239.431 314.292,260.937 " fill="none" id="LoginHelper-LoginServiceIF" style="stroke: #A80036; stroke-width: 1.0;"/><polygon fill="#A80036" points="310.922,264.852,319.8252,260.6409,314.1841,261.0627,313.7623,255.4216,310.922,264.852" style="stroke: #A80036; stroke-width: 1.0;"/><!--link LoginController to LoginServiceIF--><path d="M259.427,189.234 C265.852,209.332 275.159,238.446 282.004,259.859 " fill="none" id="LoginController-LoginServiceIF" style="stroke: #A80036; stroke-width: 1.0;"/><polygon fill="#A80036" points="283.6,264.852,284.6717,255.0616,282.0786,260.0891,277.0511,257.4959,283.6,264.852" style="stroke: #A80036; stroke-width: 1.0;"/><!--link LoginServiceIF to LoginDomain--><path d="M294.472,313 C297.137,330.658 300.802,354.941 303.48,372.678 " fill="none" id="LoginServiceIF-LoginDomain" style="stroke: #A80036; stroke-width: 1.0; stroke-dasharray: 7.0,7.0;"/><!--link LoginServiceIF to LoginServiceImpl--><path d="M368.588,289 C373.454,289 378.319,289 383.185,289 " fill="none" id="LoginServiceIF-LoginServiceImpl" style="stroke: #A80036; stroke-width: 1.0;"/><polygon fill="none" points="368.586,296,348.586,289,368.586,282,368.586,296" style="stroke: #A80036; stroke-width: 1.0;"/><!--link LoginDomain to LoginRepositoryIF--><path d="M315.57,421.234 C323.577,442.943 335.465,475.172 343.462,496.852 " fill="none" id="LoginDomain-LoginRepositoryIF" style="stroke: #A80036; stroke-width: 1.0; stroke-dasharray: 7.0,7.0;"/><!--link LoginServiceImpl to LoginRepositoryIF--><path d="M437.368,313.319 C419.755,355.963 382.428,446.332 363.509,492.136 " fill="none" id="LoginServiceImpl-LoginRepositoryIF" style="stroke: #A80036; stroke-width: 1.0;"/><polygon fill="#A80036" points="361.516,496.961,368.6511,490.172,363.4263,492.3403,361.258,487.1155,361.516,496.961" style="stroke: #A80036; stroke-width: 1.0;"/><!--link LoginRepositoryIF to LoginRepositoryImpl--><path d="M438.685,521 C443.716,521 448.748,521 453.779,521 " fill="none" id="LoginRepositoryIF-LoginRepositoryImpl" style="stroke: #A80036; stroke-width: 1.0;"/><polygon fill="none" points="438.65,527.9999,418.65,521,438.65,513.9999,438.65,527.9999" style="stroke: #A80036; stroke-width: 1.0;"/><!--
@startuml
Package Login {
    package UILayer <<Rectangle>>{
        class LoginViewModel
    }
    package AppLayer <<Rectangle>>{
        class LoginController
        class LoginHelper
        LoginController <-right- LoginViewModel
        LoginController -right-> LoginHelper
    }
    package DomainLayer <<Rectangle>>{
        interface LoginServiceIF
        class LoginServiceImpl
        class LoginDomain
        LoginHelper -down-> LoginServiceIF
        LoginController -down-> LoginServiceIF
        LoginServiceIF .down. LoginDomain
        LoginServiceIF <|-right- LoginServiceImpl
    }
	class LoginAppConfig
	
    package InfrastructureLayer <<Rectangle>>{
        interface LoginRepositoryIF
        class LoginRepositoryImpl
        LoginDomain .down. LoginRepositoryIF
        LoginServiceImpl -down-> LoginRepositoryIF
        LoginRepositoryIF <|-right- LoginRepositoryImpl
    }
}
@enduml

PlantUML version 1.2019.06(Sat May 25 02:10:25 JST 2019)
(GPL source distribution)
Java Runtime: Java(TM) SE Runtime Environment
JVM: Java HotSpot(TM) 64-Bit Server VM
Java Version: 1.8.0_231-b11
Operating System: Windows 10
OS Version: 10.0
Default Encoding: MS932
Language: ja
Country: JP
--></g></svg>