<?xml version="1.0" encoding="UTF-8" standalone="no"?><svg xmlns="http://www.w3.org/2000/svg" xmlns:xlink="http://www.w3.org/1999/xlink" contentScriptType="application/ecmascript" contentStyleType="text/css" height="596px" preserveAspectRatio="none" style="width:541px;height:596px;" version="1.1" viewBox="0 0 541 596" width="541px" zoomAndPan="magnify"><defs><filter height="300%" id="fjf9f100yvdpp" width="300%" x="-1" y="-1"><feGaussianBlur result="blurOut" stdDeviation="2.0"/><feColorMatrix in="blurOut" result="blurOut2" type="matrix" values="0 0 0 0 0 0 0 0 0 0 0 0 0 0 0 0 0 0 .4 0"/><feOffset dx="4.0" dy="4.0" in="blurOut2" result="blurOut3"/><feBlend in="SourceGraphic" in2="blurOut3" mode="normal"/></filter></defs><g><!--cluster Main--><polygon fill="#FFFFFF" filter="url(#fjf9f100yvdpp)" points="22,60,62,60,69,83.6094,519,83.6094,519,584,22,584,22,60" style="stroke: #000000; stroke-width: 1.5;"/><line style="stroke: #000000; stroke-width: 1.5;" x1="22" x2="69" y1="83.6094" y2="83.6094"/><text fill="#000000" font-family="sans-serif" font-size="14" font-weight="bold" lengthAdjust="spacingAndGlyphs" textLength="34" x="26" y="76.5332">Main</text><!--cluster UILayer--><rect fill="#FFFFFF" filter="url(#fjf9f100yvdpp)" height="100" style="stroke: #000000; stroke-width: 1.5;" width="150" x="345" y="104"/><text fill="#000000" font-family="sans-serif" font-size="14" font-weight="bold" lengthAdjust="spacingAndGlyphs" textLength="52" x="394" y="120.5332">UILayer</text><!--cluster AppLayer--><rect fill="#FFFFFF" filter="url(#fjf9f100yvdpp)" height="100" style="stroke: #000000; stroke-width: 1.5;" width="275" x="46" y="104"/><text fill="#000000" font-family="sans-serif" font-size="14" font-weight="bold" lengthAdjust="spacingAndGlyphs" textLength="65" x="151" y="120.5332">AppLayer</text><!--cluster DomainLayer--><rect fill="#FFFFFF" filter="url(#fjf9f100yvdpp)" height="208" style="stroke: #000000; stroke-width: 1.5;" width="299" x="51" y="228"/><text fill="#000000" font-family="sans-serif" font-size="14" font-weight="bold" lengthAdjust="spacingAndGlyphs" textLength="90" x="155.5" y="244.5332">DomainLayer</text><!--cluster InfrastructureLayer--><rect fill="#FFFFFF" filter="url(#fjf9f100yvdpp)" height="100" style="stroke: #000000; stroke-width: 1.5;" width="337" x="102" y="460"/><text fill="#000000" font-family="sans-serif" font-size="14" font-weight="bold" lengthAdjust="spacingAndGlyphs" textLength="135" x="203" y="476.5332">InfrastructureLayer</text><!--class MainViewModel--><rect fill="#FEFECE" filter="url(#fjf9f100yvdpp)" height="48" id="MainViewModel" style="stroke: #A80036; stroke-width: 1.5;" width="117" x="361.5" y="140"/><ellipse cx="376.5" cy="156" fill="#ADD1B2" rx="11" ry="11" style="stroke: #A80036; stroke-width: 1.0;"/><path d="M379.2031,161.4375 Q378.2813,162.3594 376.0156,162.3594 Q374.75,162.3594 373.8281,161.4375 Q372.1719,159.7813 372.1719,156.25 Q372.1719,152.1406 373.9531,150.3438 Q374.8906,149.4219 376.0781,149.4219 Q378.3438,149.4219 379.0781,150.1406 Q380.4688,151.5469 380.4063,153.9375 L377.9375,153.9375 Q377.875,151.8125 377.1406,151.0781 Q376.75,150.6719 376.0781,150.6719 Q376.0781,150.6719 376.0156,151.1406 Q374.6875,152.4688 374.6875,156.125 Q374.6875,159.3125 375.8281,160.4375 Q376.3594,160.9688 376.3594,160.9688 Q376.6094,160.9688 377.1406,160.4375 Q377.8125,159.7813 377.875,157.3906 L380.4688,157.3906 Q380.2656,160.375 379.2031,161.4375 Z "/><text fill="#000000" font-family="sans-serif" font-size="12" lengthAdjust="spacingAndGlyphs" textLength="85" x="390.5" y="160.9102">MainViewModel</text><line style="stroke: #A80036; stroke-width: 1.5;" x1="362.5" x2="477.5" y1="172" y2="172"/><line style="stroke: #A80036; stroke-width: 1.5;" x1="362.5" x2="477.5" y1="180" y2="180"/><!--class MainController--><rect fill="#FEFECE" filter="url(#fjf9f100yvdpp)" height="48" id="MainController" style="stroke: #A80036; stroke-width: 1.5;" width="112" x="62" y="140"/><ellipse cx="77" cy="156" fill="#ADD1B2" rx="11" ry="11" style="stroke: #A80036; stroke-width: 1.0;"/><path d="M79.7031,161.4375 Q78.7813,162.3594 76.5156,162.3594 Q75.25,162.3594 74.3281,161.4375 Q72.6719,159.7813 72.6719,156.25 Q72.6719,152.1406 74.4531,150.3438 Q75.3906,149.4219 76.5781,149.4219 Q78.8438,149.4219 79.5781,150.1406 Q80.9688,151.5469 80.9063,153.9375 L78.4375,153.9375 Q78.375,151.8125 77.6406,151.0781 Q77.25,150.6719 76.5781,150.6719 Q76.5781,150.6719 76.5156,151.1406 Q75.1875,152.4688 75.1875,156.125 Q75.1875,159.3125 76.3281,160.4375 Q76.8594,160.9688 76.8594,160.9688 Q77.1094,160.9688 77.6406,160.4375 Q78.3125,159.7813 78.375,157.3906 L80.9688,157.3906 Q80.7656,160.375 79.7031,161.4375 Z "/><text fill="#000000" font-family="sans-serif" font-size="12" lengthAdjust="spacingAndGlyphs" textLength="80" x="91" y="160.9102">MainController</text><line style="stroke: #A80036; stroke-width: 1.5;" x1="63" x2="173" y1="172" y2="172"/><line style="stroke: #A80036; stroke-width: 1.5;" x1="63" x2="173" y1="180" y2="180"/><!--class MainHelper--><rect fill="#FEFECE" filter="url(#fjf9f100yvdpp)" height="48" id="MainHelper" style="stroke: #A80036; stroke-width: 1.5;" width="95" x="209.5" y="140"/><ellipse cx="224.5" cy="156" fill="#ADD1B2" rx="11" ry="11" style="stroke: #A80036; stroke-width: 1.0;"/><path d="M227.2031,161.4375 Q226.2813,162.3594 224.0156,162.3594 Q222.75,162.3594 221.8281,161.4375 Q220.1719,159.7813 220.1719,156.25 Q220.1719,152.1406 221.9531,150.3438 Q222.8906,149.4219 224.0781,149.4219 Q226.3438,149.4219 227.0781,150.1406 Q228.4688,151.5469 228.4063,153.9375 L225.9375,153.9375 Q225.875,151.8125 225.1406,151.0781 Q224.75,150.6719 224.0781,150.6719 Q224.0781,150.6719 224.0156,151.1406 Q222.6875,152.4688 222.6875,156.125 Q222.6875,159.3125 223.8281,160.4375 Q224.3594,160.9688 224.3594,160.9688 Q224.6094,160.9688 225.1406,160.4375 Q225.8125,159.7813 225.875,157.3906 L228.4688,157.3906 Q228.2656,160.375 227.2031,161.4375 Z "/><text fill="#000000" font-family="sans-serif" font-size="12" lengthAdjust="spacingAndGlyphs" textLength="63" x="238.5" y="160.9102">MainHelper</text><line style="stroke: #A80036; stroke-width: 1.5;" x1="210.5" x2="303.5" y1="172" y2="172"/><line style="stroke: #A80036; stroke-width: 1.5;" x1="210.5" x2="303.5" y1="180" y2="180"/><!--class MainServiceIF--><rect fill="#FEFECE" filter="url(#fjf9f100yvdpp)" height="48" id="MainServiceIF" style="stroke: #A80036; stroke-width: 1.5;" width="110" x="67" y="264"/><ellipse cx="82" cy="280" fill="#B4A7E5" rx="11" ry="11" style="stroke: #A80036; stroke-width: 1.0;"/><path d="M82.9844,284.9063 L83.7188,284.9063 L83.7188,286.3594 L79.7188,286.3594 L79.7188,284.9063 L80.4531,284.9063 L80.4531,274.875 L79.7188,274.875 L79.7188,273.4219 L83.7188,273.4219 L83.7188,274.875 L82.9844,274.875 L82.9844,284.9063 Z "/><text fill="#000000" font-family="sans-serif" font-size="12" font-style="italic" lengthAdjust="spacingAndGlyphs" textLength="78" x="96" y="284.9102">MainServiceIF</text><line style="stroke: #A80036; stroke-width: 1.5;" x1="68" x2="176" y1="296" y2="296"/><line style="stroke: #A80036; stroke-width: 1.5;" x1="68" x2="176" y1="304" y2="304"/><!--class MainServiceImpl--><rect fill="#FEFECE" filter="url(#fjf9f100yvdpp)" height="48" id="MainServiceImpl" style="stroke: #A80036; stroke-width: 1.5;" width="122" x="212" y="264"/><ellipse cx="227" cy="280" fill="#ADD1B2" rx="11" ry="11" style="stroke: #A80036; stroke-width: 1.0;"/><path d="M229.7031,285.4375 Q228.7813,286.3594 226.5156,286.3594 Q225.25,286.3594 224.3281,285.4375 Q222.6719,283.7813 222.6719,280.25 Q222.6719,276.1406 224.4531,274.3438 Q225.3906,273.4219 226.5781,273.4219 Q228.8438,273.4219 229.5781,274.1406 Q230.9688,275.5469 230.9063,277.9375 L228.4375,277.9375 Q228.375,275.8125 227.6406,275.0781 Q227.25,274.6719 226.5781,274.6719 Q226.5781,274.6719 226.5156,275.1406 Q225.1875,276.4688 225.1875,280.125 Q225.1875,283.3125 226.3281,284.4375 Q226.8594,284.9688 226.8594,284.9688 Q227.1094,284.9688 227.6406,284.4375 Q228.3125,283.7813 228.375,281.3906 L230.9688,281.3906 Q230.7656,284.375 229.7031,285.4375 Z "/><text fill="#000000" font-family="sans-serif" font-size="12" lengthAdjust="spacingAndGlyphs" textLength="90" x="241" y="284.9102">MainServiceImpl</text><line style="stroke: #A80036; stroke-width: 1.5;" x1="213" x2="333" y1="296" y2="296"/><line style="stroke: #A80036; stroke-width: 1.5;" x1="213" x2="333" y1="304" y2="304"/><!--class MainDomain--><rect fill="#FEFECE" filter="url(#fjf9f100yvdpp)" height="48" id="MainDomain" style="stroke: #A80036; stroke-width: 1.5;" width="102" x="73" y="372"/><ellipse cx="88" cy="388" fill="#ADD1B2" rx="11" ry="11" style="stroke: #A80036; stroke-width: 1.0;"/><path d="M90.7031,393.4375 Q89.7813,394.3594 87.5156,394.3594 Q86.25,394.3594 85.3281,393.4375 Q83.6719,391.7813 83.6719,388.25 Q83.6719,384.1406 85.4531,382.3438 Q86.3906,381.4219 87.5781,381.4219 Q89.8438,381.4219 90.5781,382.1406 Q91.9688,383.5469 91.9063,385.9375 L89.4375,385.9375 Q89.375,383.8125 88.6406,383.0781 Q88.25,382.6719 87.5781,382.6719 Q87.5781,382.6719 87.5156,383.1406 Q86.1875,384.4688 86.1875,388.125 Q86.1875,391.3125 87.3281,392.4375 Q87.8594,392.9688 87.8594,392.9688 Q88.1094,392.9688 88.6406,392.4375 Q89.3125,391.7813 89.375,389.3906 L91.9688,389.3906 Q91.7656,392.375 90.7031,393.4375 Z "/><text fill="#000000" font-family="sans-serif" font-size="12" lengthAdjust="spacingAndGlyphs" textLength="70" x="102" y="392.9102">MainDomain</text><line style="stroke: #A80036; stroke-width: 1.5;" x1="74" x2="174" y1="404" y2="404"/><line style="stroke: #A80036; stroke-width: 1.5;" x1="74" x2="174" y1="412" y2="412"/><!--class MainRepositoryIF--><rect fill="#FEFECE" filter="url(#fjf9f100yvdpp)" height="48" id="MainRepositoryIF" style="stroke: #A80036; stroke-width: 1.5;" width="128" x="118" y="496"/><ellipse cx="133" cy="512" fill="#B4A7E5" rx="11" ry="11" style="stroke: #A80036; stroke-width: 1.0;"/><path d="M133.9844,516.9063 L134.7188,516.9063 L134.7188,518.3594 L130.7188,518.3594 L130.7188,516.9063 L131.4531,516.9063 L131.4531,506.875 L130.7188,506.875 L130.7188,505.4219 L134.7188,505.4219 L134.7188,506.875 L133.9844,506.875 L133.9844,516.9063 Z "/><text fill="#000000" font-family="sans-serif" font-size="12" font-style="italic" lengthAdjust="spacingAndGlyphs" textLength="96" x="147" y="516.9102">MainRepositoryIF</text><line style="stroke: #A80036; stroke-width: 1.5;" x1="119" x2="245" y1="528" y2="528"/><line style="stroke: #A80036; stroke-width: 1.5;" x1="119" x2="245" y1="536" y2="536"/><!--class MainRepositoryImpl--><rect fill="#FEFECE" filter="url(#fjf9f100yvdpp)" height="48" id="MainRepositoryImpl" style="stroke: #A80036; stroke-width: 1.5;" width="141" x="281.5" y="496"/><ellipse cx="296.5" cy="512" fill="#ADD1B2" rx="11" ry="11" style="stroke: #A80036; stroke-width: 1.0;"/><path d="M299.2031,517.4375 Q298.2813,518.3594 296.0156,518.3594 Q294.75,518.3594 293.8281,517.4375 Q292.1719,515.7813 292.1719,512.25 Q292.1719,508.1406 293.9531,506.3438 Q294.8906,505.4219 296.0781,505.4219 Q298.3438,505.4219 299.0781,506.1406 Q300.4688,507.5469 300.4063,509.9375 L297.9375,509.9375 Q297.875,507.8125 297.1406,507.0781 Q296.75,506.6719 296.0781,506.6719 Q296.0781,506.6719 296.0156,507.1406 Q294.6875,508.4688 294.6875,512.125 Q294.6875,515.3125 295.8281,516.4375 Q296.3594,516.9688 296.3594,516.9688 Q296.6094,516.9688 297.1406,516.4375 Q297.8125,515.7813 297.875,513.3906 L300.4688,513.3906 Q300.2656,516.375 299.2031,517.4375 Z "/><text fill="#000000" font-family="sans-serif" font-size="12" lengthAdjust="spacingAndGlyphs" textLength="109" x="310.5" y="516.9102">MainRepositoryImpl</text><line style="stroke: #A80036; stroke-width: 1.5;" x1="282.5" x2="421.5" y1="528" y2="528"/><line style="stroke: #A80036; stroke-width: 1.5;" x1="282.5" x2="421.5" y1="536" y2="536"/><!--link MainViewModel to MainController--><path d="M408.725,139.813 C391.497,106.108 355.097,46.409 303.5,22 C265.735,4.135 246.18,2 209.5,22 C165.693,45.886 139.7,100.741 127.191,134.852 " fill="none" id="MainViewModel-MainController" style="stroke: #A80036; stroke-width: 1.0;"/><polygon fill="#A80036" points="125.443,139.728,132.2451,132.6054,127.13,135.0212,124.7142,129.9061,125.443,139.728" style="stroke: #A80036; stroke-width: 1.0;"/><!--link MainController to MainHelper--><path d="M174.197,164 C184.205,164 194.212,164 204.22,164 " fill="none" id="MainController-MainHelper" style="stroke: #A80036; stroke-width: 1.0;"/><polygon fill="#A80036" points="209.453,164,200.453,160,204.453,164,200.453,168,209.453,164" style="stroke: #A80036; stroke-width: 1.0;"/><!--link MainHelper to MainServiceIF--><path d="M230.166,188.097 C218.921,197.86 205.755,209.404 194,220 C179.393,233.167 163.356,248.047 150.132,260.434 " fill="none" id="MainHelper-MainServiceIF" style="stroke: #A80036; stroke-width: 1.0;"/><polygon fill="#A80036" points="146.481,263.859,155.7822,260.6206,150.1283,260.4389,150.31,254.7849,146.481,263.859" style="stroke: #A80036; stroke-width: 1.0;"/><!--link MainController to MainServiceIF--><path d="M118.762,188.234 C119.418,208.247 120.367,237.2 121.068,258.588 " fill="none" id="MainController-MainServiceIF" style="stroke: #A80036; stroke-width: 1.0;"/><polygon fill="#A80036" points="121.241,263.852,124.9431,254.7254,121.0767,258.8547,116.9474,254.9883,121.241,263.852" style="stroke: #A80036; stroke-width: 1.0;"/><!--link MainServiceIF to MainDomain--><path d="M122.434,312 C122.767,329.658 123.225,353.941 123.56,371.678 " fill="none" id="MainServiceIF-MainDomain" style="stroke: #A80036; stroke-width: 1.0; stroke-dasharray: 7.0,7.0;"/><!--link MainServiceIF to MainServiceImpl--><path d="M197.281,288 C202.178,288 207.074,288 211.971,288 " fill="none" id="MainServiceIF-MainServiceImpl" style="stroke: #A80036; stroke-width: 1.0;"/><polygon fill="none" points="197.15,295,177.15,288,197.15,281,197.15,295" style="stroke: #A80036; stroke-width: 1.0;"/><!--link MainDomain to MainRepositoryIF--><path d="M135.046,420.234 C145.366,441.943 160.688,474.172 170.995,495.852 " fill="none" id="MainDomain-MainRepositoryIF" style="stroke: #A80036; stroke-width: 1.0; stroke-dasharray: 7.0,7.0;"/><!--link MainServiceImpl to MainRepositoryIF--><path d="M263.774,312.319 C246.902,354.963 211.147,445.332 193.024,491.136 " fill="none" id="MainServiceImpl-MainRepositoryIF" style="stroke: #A80036; stroke-width: 1.0;"/><polygon fill="#A80036" points="191.115,495.961,198.1448,489.063,192.954,491.3115,190.7055,486.1207,191.115,495.961" style="stroke: #A80036; stroke-width: 1.0;"/><!--link MainRepositoryIF to MainRepositoryImpl--><path d="M266.139,520 C271.176,520 276.213,520 281.25,520 " fill="none" id="MainRepositoryIF-MainRepositoryImpl" style="stroke: #A80036; stroke-width: 1.0;"/><polygon fill="none" points="266.082,526.9999,246.082,520,266.082,512.9999,266.082,526.9999" style="stroke: #A80036; stroke-width: 1.0;"/><!--
@startuml
Package Main {
    package UILayer <<Rectangle>>{
        class MainViewModel
    }
    package AppLayer <<Rectangle>>{
        class MainController
        class MainHelper
        MainController <-right- MainViewModel
        MainController -right-> MainHelper
    }
    package DomainLayer <<Rectangle>>{
        interface MainServiceIF
        class MainServiceImpl
        class MainDomain
        MainHelper -down-> MainServiceIF
        MainController -down-> MainServiceIF
        MainServiceIF .down. MainDomain
        MainServiceIF <|-right- MainServiceImpl
    }
    package InfrastructureLayer <<Rectangle>>{
        interface MainRepositoryIF
        class MainRepositoryImpl
        MainDomain .down. MainRepositoryIF
        MainServiceImpl -down-> MainRepositoryIF
        MainRepositoryIF <|-right- MainRepositoryImpl
    }
}
@enduml

PlantUML version 1.2019.06(Sat May 25 02:10:25 JST 2019)
(GPL source distribution)
Java Runtime: Java(TM) SE Runtime Environment
JVM: Java HotSpot(TM) 64-Bit Server VM
Java Version: 1.8.0_231-b11
Operating System: Windows 10
OS Version: 10.0
Default Encoding: MS932
Language: ja
Country: JP
--></g></svg>