<?xml version="1.0" encoding="UTF-8" standalone="no"?><svg xmlns="http://www.w3.org/2000/svg" xmlns:xlink="http://www.w3.org/1999/xlink" contentScriptType="application/ecmascript" contentStyleType="text/css" height="390px" preserveAspectRatio="none" style="width:951px;height:390px;" version="1.1" viewBox="0 0 951 390" width="951px" zoomAndPan="magnify"><defs><filter height="300%" id="f1t4h99tqbgsh9" width="300%" x="-1" y="-1"><feGaussianBlur result="blurOut" stdDeviation="2.0"/><feColorMatrix in="blurOut" result="blurOut2" type="matrix" values="0 0 0 0 0 0 0 0 0 0 0 0 0 0 0 0 0 0 .4 0"/><feOffset dx="4.0" dy="4.0" in="blurOut2" result="blurOut3"/><feBlend in="SourceGraphic" in2="blurOut3" mode="normal"/></filter></defs><g><!--cluster userDetail--><polygon fill="#FFFFFF" filter="url(#f1t4h99tqbgsh9)" points="30,32,96,32,103,55.6094,454,55.6094,454,280,30,280,30,32" style="stroke: #000000; stroke-width: 1.5;"/><line style="stroke: #000000; stroke-width: 1.5;" x1="30" x2="103" y1="55.6094" y2="55.6094"/><text fill="#000000" font-family="sans-serif" font-size="14" font-weight="bold" lengthAdjust="spacingAndGlyphs" textLength="60" x="34" y="48.5332">ユーザー</text><text fill="#000000" font-family="sans-serif" font-size="14" font-style="italic" lengthAdjust="spacingAndGlyphs" textLength="45" x="223.5" y="72.1426">«Rect»</text><!--cluster nav--><polygon fill="#FFFFFF" filter="url(#f1t4h99tqbgsh9)" points="494,156,605,156,612,179.6094,929,179.6094,929,378,494,378,494,156" style="stroke: #000000; stroke-width: 1.5;"/><line style="stroke: #000000; stroke-width: 1.5;" x1="494" x2="612" y1="179.6094" y2="179.6094"/><text fill="#000000" font-family="sans-serif" font-size="14" font-weight="bold" lengthAdjust="spacingAndGlyphs" textLength="105" x="498" y="172.5332">ナビゲーション</text><text fill="#000000" font-family="sans-serif" font-size="14" font-style="italic" lengthAdjust="spacingAndGlyphs" textLength="45" x="693" y="196.1426">«Rect»</text><!--entity user--><rect fill="#FEFECE" filter="url(#f1t4h99tqbgsh9)" height="37.6094" style="stroke: #A80036; stroke-width: 1.5;" width="104" x="200" y="94"/><text fill="#000000" font-family="sans-serif" font-size="14" lengthAdjust="spacingAndGlyphs" textLength="84" x="210" y="118.5332">ユーザー詳細</text><!--entity follow--><rect fill="#FEFECE" filter="url(#f1t4h99tqbgsh9)" height="37.6094" style="stroke: #A80036; stroke-width: 1.5;" width="104" x="54" y="218"/><text fill="#000000" font-family="sans-serif" font-size="14" lengthAdjust="spacingAndGlyphs" textLength="84" x="64" y="242.5332">フォロー一覧</text><!--entity follower--><rect fill="#FEFECE" filter="url(#f1t4h99tqbgsh9)" height="37.6094" style="stroke: #A80036; stroke-width: 1.5;" width="118" x="193" y="218"/><text fill="#000000" font-family="sans-serif" font-size="14" lengthAdjust="spacingAndGlyphs" textLength="98" x="203" y="242.5332">フォロワー一覧</text><!--entity tag--><rect fill="#FEFECE" filter="url(#f1t4h99tqbgsh9)" height="37.6094" style="stroke: #A80036; stroke-width: 1.5;" width="76" x="346" y="218"/><text fill="#000000" font-family="sans-serif" font-size="14" lengthAdjust="spacingAndGlyphs" textLength="56" x="356" y="242.5332">タグ一覧</text><!--entity norti--><rect fill="#FEFECE" filter="url(#f1t4h99tqbgsh9)" height="37.6094" style="stroke: #A80036; stroke-width: 1.5;" width="48" x="537" y="218"/><text fill="#000000" font-family="sans-serif" font-size="14" lengthAdjust="spacingAndGlyphs" textLength="28" x="547" y="242.5332">通知</text><!--entity profile--><rect fill="#FEFECE" filter="url(#f1t4h99tqbgsh9)" height="37.6094" style="stroke: #A80036; stroke-width: 1.5;" width="132" x="620" y="218"/><text fill="#000000" font-family="sans-serif" font-size="14" lengthAdjust="spacingAndGlyphs" textLength="112" x="630" y="242.5332">プロフィール設定</text><!--entity account--><rect fill="#FEFECE" filter="url(#f1t4h99tqbgsh9)" height="37.6094" style="stroke: #A80036; stroke-width: 1.5;" width="118" x="787" y="218"/><text fill="#000000" font-family="sans-serif" font-size="14" lengthAdjust="spacingAndGlyphs" textLength="98" x="797" y="242.5332">アカウント設定</text><!--entity display--><rect fill="#FEFECE" filter="url(#f1t4h99tqbgsh9)" height="37.6094" style="stroke: #A80036; stroke-width: 1.5;" width="76" x="537" y="316"/><text fill="#000000" font-family="sans-serif" font-size="14" lengthAdjust="spacingAndGlyphs" textLength="56" x="547" y="340.5332">表示設定</text><!--entity nortiset--><rect fill="#FEFECE" filter="url(#f1t4h99tqbgsh9)" height="37.6094" style="stroke: #A80036; stroke-width: 1.5;" width="76" x="648" y="316"/><text fill="#000000" font-family="sans-serif" font-size="14" lengthAdjust="spacingAndGlyphs" textLength="56" x="658" y="340.5332">通知設定</text><!--link user to follow--><path d="M199.687,126.718 C190.968,130.188 182.375,134.548 175,140 C146.943,160.743 125.721,196.271 114.63,217.8 " fill="none" id="user-follow" style="stroke: #A80036; stroke-width: 1.0;"/><!--link user to follower--><path d="M252,132.002 C252,155.068 252,194.823 252,217.925 " fill="none" id="user-follower" style="stroke: #A80036; stroke-width: 1.0;"/><!--link user to tag--><path d="M304.081,131.089 C316.595,135.34 326.759,138.984 328,140 C353.378,160.782 369.746,196.297 377.879,217.813 " fill="none" id="user-tag" style="stroke: #A80036; stroke-width: 1.0;"/><!--link follow to follower--><path d="M158.184,237 C169.788,237 181.393,237 192.998,237 " fill="none" id="follow-follower" style="stroke: #A80036; stroke-width: 1.0;"/><!--link userDetail to nav--><path d="M454.0644,131.5681 C454.1415,131.7361 454.219,131.9049 454.2969,132.0747 C454.6086,132.7538 454.9269,133.4472 455.2514,134.1542 C460.4437,145.4662 467.2274,160.2452 474.0104,175.0224 C480.7933,189.7996 487.5755,204.575 492.7646,215.8798 C493.089,216.5864 493.4071,217.2794 493.7186,217.958 C493.7964,218.1276 493.8739,218.2964 493.9509,218.4642 " fill="none" id="userDetail-nav" style="stroke: #A80036; stroke-width: 1.0;"/><!--link norti to profile--><!--link profile to account--><!--link norti to display--><!--link display to nortiset--><!--
@startuml
	package "ユーザー" as userDetail <<Rect>> {
		agent "ユーザー詳細" as user
		agent "フォロー一覧" as follow
		agent "フォロワー一覧" as follower
		agent "タグ一覧" as tag
		user - - follow
		user - - follower
		user - - tag
		follow -right- follower
	}
	package "ナビゲーション" as nav <<Rect>> {
		agent "通知" as norti
		agent "プロフィール設定" as profile
		agent "アカウント設定" as account
		agent "表示設定" as display
		agent "通知設定" as nortiset
		userDetail - - nav
	}
@enduml

PlantUML version 1.2019.06(Sat May 25 02:10:25 JST 2019)
(GPL source distribution)
Java Runtime: Java(TM) SE Runtime Environment
JVM: Java HotSpot(TM) 64-Bit Server VM
Java Version: 1.8.0_231-b11
Operating System: Windows 10
OS Version: 10.0
Default Encoding: MS932
Language: ja
Country: JP
--></g></svg>