<?xml version="1.0" encoding="UTF-8" standalone="no"?><svg xmlns="http://www.w3.org/2000/svg" xmlns:xlink="http://www.w3.org/1999/xlink" contentScriptType="application/ecmascript" contentStyleType="text/css" height="491px" preserveAspectRatio="none" style="width:567px;height:491px;" version="1.1" viewBox="0 0 567 491" width="567px" zoomAndPan="magnify"><defs><filter height="300%" id="f1g4sg9431jbwj" width="300%" x="-1" y="-1"><feGaussianBlur result="blurOut" stdDeviation="2.0"/><feColorMatrix in="blurOut" result="blurOut2" type="matrix" values="0 0 0 0 0 0 0 0 0 0 0 0 0 0 0 0 0 0 .4 0"/><feOffset dx="4.0" dy="4.0" in="blurOut2" result="blurOut3"/><feBlend in="SourceGraphic" in2="blurOut3" mode="normal"/></filter></defs><g><!--cluster UILayer--><rect fill="#FFFFFF" filter="url(#f1g4sg9431jbwj)" height="100" style="stroke: #000000; stroke-width: 1.5;" width="124" x="22" y="24"/><text fill="#000000" font-family="sans-serif" font-size="14" font-weight="bold" lengthAdjust="spacingAndGlyphs" textLength="52" x="58" y="40.5332">UILayer</text><!--cluster AppLayer--><rect fill="#FFFFFF" filter="url(#f1g4sg9431jbwj)" height="100" style="stroke: #000000; stroke-width: 1.5;" width="223" x="170" y="24"/><text fill="#000000" font-family="sans-serif" font-size="14" font-weight="bold" lengthAdjust="spacingAndGlyphs" textLength="65" x="249" y="40.5332">AppLayer</text><!--cluster DomainLayer--><rect fill="#FFFFFF" filter="url(#f1g4sg9431jbwj)" height="208" style="stroke: #000000; stroke-width: 1.5;" width="247" x="227" y="148"/><text fill="#000000" font-family="sans-serif" font-size="14" font-weight="bold" lengthAdjust="spacingAndGlyphs" textLength="90" x="305.5" y="164.5332">DomainLayer</text><!--cluster InfrastructureLayer--><rect fill="#FFFFFF" filter="url(#f1g4sg9431jbwj)" height="100" style="stroke: #000000; stroke-width: 1.5;" width="285" x="271" y="380"/><text fill="#000000" font-family="sans-serif" font-size="14" font-weight="bold" lengthAdjust="spacingAndGlyphs" textLength="135" x="346" y="396.5332">InfrastructureLayer</text><!--class ViewModel--><rect fill="#FEFECE" filter="url(#f1g4sg9431jbwj)" height="48" id="ViewModel" style="stroke: #A80036; stroke-width: 1.5;" width="91" x="38.5" y="60"/><ellipse cx="53.5" cy="76" fill="#ADD1B2" rx="11" ry="11" style="stroke: #A80036; stroke-width: 1.0;"/><path d="M56.2031,81.4375 Q55.2813,82.3594 53.0156,82.3594 Q51.75,82.3594 50.8281,81.4375 Q49.1719,79.7813 49.1719,76.25 Q49.1719,72.1406 50.9531,70.3438 Q51.8906,69.4219 53.0781,69.4219 Q55.3438,69.4219 56.0781,70.1406 Q57.4688,71.5469 57.4063,73.9375 L54.9375,73.9375 Q54.875,71.8125 54.1406,71.0781 Q53.75,70.6719 53.0781,70.6719 Q53.0781,70.6719 53.0156,71.1406 Q51.6875,72.4688 51.6875,76.125 Q51.6875,79.3125 52.8281,80.4375 Q53.3594,80.9688 53.3594,80.9688 Q53.6094,80.9688 54.1406,80.4375 Q54.8125,79.7813 54.875,77.3906 L57.4688,77.3906 Q57.2656,80.375 56.2031,81.4375 Z "/><text fill="#000000" font-family="sans-serif" font-size="12" lengthAdjust="spacingAndGlyphs" textLength="59" x="67.5" y="80.9102">ViewModel</text><line style="stroke: #A80036; stroke-width: 1.5;" x1="39.5" x2="128.5" y1="92" y2="92"/><line style="stroke: #A80036; stroke-width: 1.5;" x1="39.5" x2="128.5" y1="100" y2="100"/><!--class Controller--><rect fill="#FEFECE" filter="url(#f1g4sg9431jbwj)" height="48" id="Controller" style="stroke: #A80036; stroke-width: 1.5;" width="86" x="186" y="60"/><ellipse cx="201" cy="76" fill="#ADD1B2" rx="11" ry="11" style="stroke: #A80036; stroke-width: 1.0;"/><path d="M203.7031,81.4375 Q202.7813,82.3594 200.5156,82.3594 Q199.25,82.3594 198.3281,81.4375 Q196.6719,79.7813 196.6719,76.25 Q196.6719,72.1406 198.4531,70.3438 Q199.3906,69.4219 200.5781,69.4219 Q202.8438,69.4219 203.5781,70.1406 Q204.9688,71.5469 204.9063,73.9375 L202.4375,73.9375 Q202.375,71.8125 201.6406,71.0781 Q201.25,70.6719 200.5781,70.6719 Q200.5781,70.6719 200.5156,71.1406 Q199.1875,72.4688 199.1875,76.125 Q199.1875,79.3125 200.3281,80.4375 Q200.8594,80.9688 200.8594,80.9688 Q201.1094,80.9688 201.6406,80.4375 Q202.3125,79.7813 202.375,77.3906 L204.9688,77.3906 Q204.7656,80.375 203.7031,81.4375 Z "/><text fill="#000000" font-family="sans-serif" font-size="12" lengthAdjust="spacingAndGlyphs" textLength="54" x="215" y="80.9102">Controller</text><line style="stroke: #A80036; stroke-width: 1.5;" x1="187" x2="271" y1="92" y2="92"/><line style="stroke: #A80036; stroke-width: 1.5;" x1="187" x2="271" y1="100" y2="100"/><!--class Helper--><rect fill="#FEFECE" filter="url(#f1g4sg9431jbwj)" height="48" id="Helper" style="stroke: #A80036; stroke-width: 1.5;" width="69" x="307.5" y="60"/><ellipse cx="322.5" cy="76" fill="#ADD1B2" rx="11" ry="11" style="stroke: #A80036; stroke-width: 1.0;"/><path d="M325.2031,81.4375 Q324.2813,82.3594 322.0156,82.3594 Q320.75,82.3594 319.8281,81.4375 Q318.1719,79.7813 318.1719,76.25 Q318.1719,72.1406 319.9531,70.3438 Q320.8906,69.4219 322.0781,69.4219 Q324.3438,69.4219 325.0781,70.1406 Q326.4688,71.5469 326.4063,73.9375 L323.9375,73.9375 Q323.875,71.8125 323.1406,71.0781 Q322.75,70.6719 322.0781,70.6719 Q322.0781,70.6719 322.0156,71.1406 Q320.6875,72.4688 320.6875,76.125 Q320.6875,79.3125 321.8281,80.4375 Q322.3594,80.9688 322.3594,80.9688 Q322.6094,80.9688 323.1406,80.4375 Q323.8125,79.7813 323.875,77.3906 L326.4688,77.3906 Q326.2656,80.375 325.2031,81.4375 Z "/><text fill="#000000" font-family="sans-serif" font-size="12" lengthAdjust="spacingAndGlyphs" textLength="37" x="336.5" y="80.9102">Helper</text><line style="stroke: #A80036; stroke-width: 1.5;" x1="308.5" x2="375.5" y1="92" y2="92"/><line style="stroke: #A80036; stroke-width: 1.5;" x1="308.5" x2="375.5" y1="100" y2="100"/><!--class ServiceIF--><rect fill="#FEFECE" filter="url(#f1g4sg9431jbwj)" height="48" id="ServiceIF" style="stroke: #A80036; stroke-width: 1.5;" width="84" x="243" y="184"/><ellipse cx="258" cy="200" fill="#B4A7E5" rx="11" ry="11" style="stroke: #A80036; stroke-width: 1.0;"/><path d="M258.9844,204.9063 L259.7188,204.9063 L259.7188,206.3594 L255.7188,206.3594 L255.7188,204.9063 L256.4531,204.9063 L256.4531,194.875 L255.7188,194.875 L255.7188,193.4219 L259.7188,193.4219 L259.7188,194.875 L258.9844,194.875 L258.9844,204.9063 Z "/><text fill="#000000" font-family="sans-serif" font-size="12" font-style="italic" lengthAdjust="spacingAndGlyphs" textLength="52" x="272" y="204.9102">ServiceIF</text><line style="stroke: #A80036; stroke-width: 1.5;" x1="244" x2="326" y1="216" y2="216"/><line style="stroke: #A80036; stroke-width: 1.5;" x1="244" x2="326" y1="224" y2="224"/><!--class ServiceImpl--><rect fill="#FEFECE" filter="url(#f1g4sg9431jbwj)" height="48" id="ServiceImpl" style="stroke: #A80036; stroke-width: 1.5;" width="96" x="362" y="184"/><ellipse cx="377" cy="200" fill="#ADD1B2" rx="11" ry="11" style="stroke: #A80036; stroke-width: 1.0;"/><path d="M379.7031,205.4375 Q378.7813,206.3594 376.5156,206.3594 Q375.25,206.3594 374.3281,205.4375 Q372.6719,203.7813 372.6719,200.25 Q372.6719,196.1406 374.4531,194.3438 Q375.3906,193.4219 376.5781,193.4219 Q378.8438,193.4219 379.5781,194.1406 Q380.9688,195.5469 380.9063,197.9375 L378.4375,197.9375 Q378.375,195.8125 377.6406,195.0781 Q377.25,194.6719 376.5781,194.6719 Q376.5781,194.6719 376.5156,195.1406 Q375.1875,196.4688 375.1875,200.125 Q375.1875,203.3125 376.3281,204.4375 Q376.8594,204.9688 376.8594,204.9688 Q377.1094,204.9688 377.6406,204.4375 Q378.3125,203.7813 378.375,201.3906 L380.9688,201.3906 Q380.7656,204.375 379.7031,205.4375 Z "/><text fill="#000000" font-family="sans-serif" font-size="12" lengthAdjust="spacingAndGlyphs" textLength="64" x="391" y="204.9102">ServiceImpl</text><line style="stroke: #A80036; stroke-width: 1.5;" x1="363" x2="457" y1="216" y2="216"/><line style="stroke: #A80036; stroke-width: 1.5;" x1="363" x2="457" y1="224" y2="224"/><!--class Domain--><rect fill="#FEFECE" filter="url(#f1g4sg9431jbwj)" height="48" id="Domain" style="stroke: #A80036; stroke-width: 1.5;" width="76" x="255" y="292"/><ellipse cx="270" cy="308" fill="#ADD1B2" rx="11" ry="11" style="stroke: #A80036; stroke-width: 1.0;"/><path d="M272.7031,313.4375 Q271.7813,314.3594 269.5156,314.3594 Q268.25,314.3594 267.3281,313.4375 Q265.6719,311.7813 265.6719,308.25 Q265.6719,304.1406 267.4531,302.3438 Q268.3906,301.4219 269.5781,301.4219 Q271.8438,301.4219 272.5781,302.1406 Q273.9688,303.5469 273.9063,305.9375 L271.4375,305.9375 Q271.375,303.8125 270.6406,303.0781 Q270.25,302.6719 269.5781,302.6719 Q269.5781,302.6719 269.5156,303.1406 Q268.1875,304.4688 268.1875,308.125 Q268.1875,311.3125 269.3281,312.4375 Q269.8594,312.9688 269.8594,312.9688 Q270.1094,312.9688 270.6406,312.4375 Q271.3125,311.7813 271.375,309.3906 L273.9688,309.3906 Q273.7656,312.375 272.7031,313.4375 Z "/><text fill="#000000" font-family="sans-serif" font-size="12" lengthAdjust="spacingAndGlyphs" textLength="44" x="284" y="312.9102">Domain</text><line style="stroke: #A80036; stroke-width: 1.5;" x1="256" x2="330" y1="324" y2="324"/><line style="stroke: #A80036; stroke-width: 1.5;" x1="256" x2="330" y1="332" y2="332"/><!--class RepositoryIF--><rect fill="#FEFECE" filter="url(#f1g4sg9431jbwj)" height="48" id="RepositoryIF" style="stroke: #A80036; stroke-width: 1.5;" width="102" x="287" y="416"/><ellipse cx="302" cy="432" fill="#B4A7E5" rx="11" ry="11" style="stroke: #A80036; stroke-width: 1.0;"/><path d="M302.9844,436.9063 L303.7188,436.9063 L303.7188,438.3594 L299.7188,438.3594 L299.7188,436.9063 L300.4531,436.9063 L300.4531,426.875 L299.7188,426.875 L299.7188,425.4219 L303.7188,425.4219 L303.7188,426.875 L302.9844,426.875 L302.9844,436.9063 Z "/><text fill="#000000" font-family="sans-serif" font-size="12" font-style="italic" lengthAdjust="spacingAndGlyphs" textLength="70" x="316" y="436.9102">RepositoryIF</text><line style="stroke: #A80036; stroke-width: 1.5;" x1="288" x2="388" y1="448" y2="448"/><line style="stroke: #A80036; stroke-width: 1.5;" x1="288" x2="388" y1="456" y2="456"/><!--class RepositoryImpl--><rect fill="#FEFECE" filter="url(#f1g4sg9431jbwj)" height="48" id="RepositoryImpl" style="stroke: #A80036; stroke-width: 1.5;" width="115" x="424.5" y="416"/><ellipse cx="439.5" cy="432" fill="#ADD1B2" rx="11" ry="11" style="stroke: #A80036; stroke-width: 1.0;"/><path d="M442.2031,437.4375 Q441.2813,438.3594 439.0156,438.3594 Q437.75,438.3594 436.8281,437.4375 Q435.1719,435.7813 435.1719,432.25 Q435.1719,428.1406 436.9531,426.3438 Q437.8906,425.4219 439.0781,425.4219 Q441.3438,425.4219 442.0781,426.1406 Q443.4688,427.5469 443.4063,429.9375 L440.9375,429.9375 Q440.875,427.8125 440.1406,427.0781 Q439.75,426.6719 439.0781,426.6719 Q439.0781,426.6719 439.0156,427.1406 Q437.6875,428.4688 437.6875,432.125 Q437.6875,435.3125 438.8281,436.4375 Q439.3594,436.9688 439.3594,436.9688 Q439.6094,436.9688 440.1406,436.4375 Q440.8125,435.7813 440.875,433.3906 L443.4688,433.3906 Q443.2656,436.375 442.2031,437.4375 Z "/><text fill="#000000" font-family="sans-serif" font-size="12" lengthAdjust="spacingAndGlyphs" textLength="83" x="453.5" y="436.9102">RepositoryImpl</text><line style="stroke: #A80036; stroke-width: 1.5;" x1="425.5" x2="538.5" y1="448" y2="448"/><line style="stroke: #A80036; stroke-width: 1.5;" x1="425.5" x2="538.5" y1="456" y2="456"/><!--link ViewModel to Controller--><path d="M129.596,84 C146.604,84 163.612,84 180.62,84 " fill="none" id="ViewModel-Controller" style="stroke: #A80036; stroke-width: 1.0;"/><polygon fill="#A80036" points="185.899,84,176.899,80,180.899,84,176.899,88,185.899,84" style="stroke: #A80036; stroke-width: 1.0;"/><!--link Controller to Helper--><path d="M272.258,84 C282.233,84 292.209,84 302.185,84 " fill="none" id="Controller-Helper" style="stroke: #A80036; stroke-width: 1.0;"/><polygon fill="#A80036" points="307.401,84,298.401,80,302.401,84,298.401,88,307.401,84" style="stroke: #A80036; stroke-width: 1.0;"/><!--link Helper to ServiceIF--><path d="M331.145,108.234 C321.715,128.416 308.038,157.691 298.021,179.13 " fill="none" id="Helper-ServiceIF" style="stroke: #A80036; stroke-width: 1.0;"/><polygon fill="#A80036" points="295.815,183.852,303.2494,177.3921,297.932,179.3223,296.0018,174.0049,295.815,183.852" style="stroke: #A80036; stroke-width: 1.0;"/><!--link Controller to ServiceIF--><path d="M239.665,108.234 C248.929,128.416 262.367,157.691 272.207,179.13 " fill="none" id="Controller-ServiceIF" style="stroke: #A80036; stroke-width: 1.0;"/><polygon fill="#A80036" points="274.375,183.852,274.2561,174.0039,272.2893,179.3078,266.9854,177.341,274.375,183.852" style="stroke: #A80036; stroke-width: 1.0;"/><!--link ServiceIF to Domain--><path d="M286.736,232 C288.069,249.658 289.901,273.941 291.24,291.678 " fill="none" id="ServiceIF-Domain" style="stroke: #A80036; stroke-width: 1.0; stroke-dasharray: 7.0,7.0;"/><!--link ServiceIF to ServiceImpl--><path d="M347.69,208 C352.45,208 357.211,208 361.971,208 " fill="none" id="ServiceIF-ServiceImpl" style="stroke: #A80036; stroke-width: 1.0;"/><polygon fill="none" points="347.481,215,327.48,208,347.48,201,347.481,215" style="stroke: #A80036; stroke-width: 1.0;"/><!--link Domain to RepositoryIF--><path d="M301.57,340.234 C309.577,361.943 321.465,394.172 329.462,415.8521 " fill="none" id="Domain-RepositoryIF" style="stroke: #A80036; stroke-width: 1.0; stroke-dasharray: 7.0,7.0;"/><!--link ServiceImpl to RepositoryIF--><path d="M402.7,232.319 C389.351,274.963 361.061,365.332 346.723,411.136 " fill="none" id="ServiceImpl-RepositoryIF" style="stroke: #A80036; stroke-width: 1.0;"/><polygon fill="#A80036" points="345.212,415.9609,351.7181,408.567,346.7058,411.1893,344.0835,406.1769,345.212,415.9609" style="stroke: #A80036; stroke-width: 1.0;"/><!--link RepositoryIF to RepositoryImpl--><path d="M409.244,440 C414.281,440 419.318,440 424.355,440 " fill="none" id="RepositoryIF-RepositoryImpl" style="stroke: #A80036; stroke-width: 1.0;"/><polygon fill="none" points="409.188,446.9999,389.188,440,409.187,432.9999,409.188,446.9999" style="stroke: #A80036; stroke-width: 1.0;"/><!--
@startuml

package UILayer <<Rectangle>>{
	class ViewModel
}
package AppLayer <<Rectangle>>{
	class Controller
	class Helper
	Controller <-right- ViewModel
	Controller -right-> Helper
}
package DomainLayer <<Rectangle>>{
	interface ServiceIF
	class ServiceImpl
	class Domain
	Helper -down-> ServiceIF
	Controller -down-> ServiceIF
	ServiceIF .down. Domain
	ServiceIF <|-right- ServiceImpl
}
package InfrastructureLayer <<Rectangle>>{
	interface RepositoryIF
	class RepositoryImpl
	Domain .down. RepositoryIF
	ServiceImpl -down-> RepositoryIF
	RepositoryIF <|-right- RepositoryImpl
}

@enduml

PlantUML version 1.2019.06(Sat May 25 02:10:25 JST 2019)
(GPL source distribution)
Java Runtime: Java(TM) SE Runtime Environment
JVM: Java HotSpot(TM) 64-Bit Server VM
Java Version: 1.8.0_231-b11
Operating System: Windows 10
OS Version: 10.0
Default Encoding: MS932
Language: ja
Country: JP
--></g></svg>