<?xml version="1.0" encoding="UTF-8" standalone="no"?><svg xmlns="http://www.w3.org/2000/svg" xmlns:xlink="http://www.w3.org/1999/xlink" contentScriptType="application/ecmascript" contentStyleType="text/css" height="354px" preserveAspectRatio="none" style="width:951px;height:354px;" version="1.1" viewBox="0 0 951 354" width="951px" zoomAndPan="magnify"><defs><filter height="300%" id="f1ihqnv46k1hej" width="300%" x="-1" y="-1"><feGaussianBlur result="blurOut" stdDeviation="2.0"/><feColorMatrix in="blurOut" result="blurOut2" type="matrix" values="0 0 0 0 0 0 0 0 0 0 0 0 0 0 0 0 0 0 .4 0"/><feOffset dx="4.0" dy="4.0" in="blurOut2" result="blurOut3"/><feBlend in="SourceGraphic" in2="blurOut3" mode="normal"/></filter></defs><g><!--cluster userDetail--><polygon fill="#FFFFFF" filter="url(#f1ihqnv46k1hej)" points="30,32,96,32,103,55.6094,454,55.6094,454,244,30,244,30,32" style="stroke: #000000; stroke-width: 1.5;"/><line style="stroke: #000000; stroke-width: 1.5;" x1="30" x2="103" y1="55.6094" y2="55.6094"/><text fill="#000000" font-family="sans-serif" font-size="14" font-weight="bold" lengthAdjust="spacingAndGlyphs" textLength="60" x="34" y="48.5332">ユーザー</text><!--cluster nav--><polygon fill="#FFFFFF" filter="url(#f1ihqnv46k1hej)" points="494,138,605,138,612,161.6094,929,161.6094,929,342,494,342,494,138" style="stroke: #000000; stroke-width: 1.5;"/><line style="stroke: #000000; stroke-width: 1.5;" x1="494" x2="612" y1="161.6094" y2="161.6094"/><text fill="#000000" font-family="sans-serif" font-size="14" font-weight="bold" lengthAdjust="spacingAndGlyphs" textLength="105" x="498" y="154.5332">ナビゲーション</text><!--entity user--><rect fill="#FEFECE" filter="url(#f1ihqnv46k1hej)" height="37.6094" style="stroke: #A80036; stroke-width: 1.5;" width="104" x="200" y="76"/><text fill="#000000" font-family="sans-serif" font-size="14" lengthAdjust="spacingAndGlyphs" textLength="84" x="210" y="100.5332">ユーザー詳細</text><!--entity follow--><rect fill="#FEFECE" filter="url(#f1ihqnv46k1hej)" height="37.6094" style="stroke: #A80036; stroke-width: 1.5;" width="104" x="54" y="182"/><text fill="#000000" font-family="sans-serif" font-size="14" lengthAdjust="spacingAndGlyphs" textLength="84" x="64" y="206.5332">フォロー一覧</text><!--entity follower--><rect fill="#FEFECE" filter="url(#f1ihqnv46k1hej)" height="37.6094" style="stroke: #A80036; stroke-width: 1.5;" width="118" x="193" y="182"/><text fill="#000000" font-family="sans-serif" font-size="14" lengthAdjust="spacingAndGlyphs" textLength="98" x="203" y="206.5332">フォロワー一覧</text><!--entity tag--><rect fill="#FEFECE" filter="url(#f1ihqnv46k1hej)" height="37.6094" style="stroke: #A80036; stroke-width: 1.5;" width="76" x="346" y="182"/><text fill="#000000" font-family="sans-serif" font-size="14" lengthAdjust="spacingAndGlyphs" textLength="56" x="356" y="206.5332">タグ一覧</text><!--entity norti--><rect fill="#FEFECE" filter="url(#f1ihqnv46k1hej)" height="37.6094" style="stroke: #A80036; stroke-width: 1.5;" width="48" x="537" y="182"/><text fill="#000000" font-family="sans-serif" font-size="14" lengthAdjust="spacingAndGlyphs" textLength="28" x="547" y="206.5332">通知</text><!--entity profile--><rect fill="#FEFECE" filter="url(#f1ihqnv46k1hej)" height="37.6094" style="stroke: #A80036; stroke-width: 1.5;" width="132" x="620" y="182"/><text fill="#000000" font-family="sans-serif" font-size="14" lengthAdjust="spacingAndGlyphs" textLength="112" x="630" y="206.5332">プロフィール設定</text><!--entity account--><rect fill="#FEFECE" filter="url(#f1ihqnv46k1hej)" height="37.6094" style="stroke: #A80036; stroke-width: 1.5;" width="118" x="787" y="182"/><text fill="#000000" font-family="sans-serif" font-size="14" lengthAdjust="spacingAndGlyphs" textLength="98" x="797" y="206.5332">アカウント設定</text><!--entity display--><rect fill="#FEFECE" filter="url(#f1ihqnv46k1hej)" height="37.6094" style="stroke: #A80036; stroke-width: 1.5;" width="76" x="537" y="280"/><text fill="#000000" font-family="sans-serif" font-size="14" lengthAdjust="spacingAndGlyphs" textLength="56" x="547" y="304.5332">表示設定</text><!--entity nortiset--><rect fill="#FEFECE" filter="url(#f1ihqnv46k1hej)" height="37.6094" style="stroke: #A80036; stroke-width: 1.5;" width="76" x="648" y="280"/><text fill="#000000" font-family="sans-serif" font-size="14" lengthAdjust="spacingAndGlyphs" textLength="56" x="658" y="304.5332">通知設定</text><!--link user to follow--><path d="M199.726,109.509 C191.097,112.883 182.523,117.005 175,122 C151.051,137.9 130.234,164.138 117.897,181.739 " fill="none" id="user-follow" style="stroke: #A80036; stroke-width: 1.0;"/><!--link user to follower--><path d="M252,114.115 C252,133.088 252,162.718 252,181.743 " fill="none" id="user-follower" style="stroke: #A80036; stroke-width: 1.0;"/><!--link user to tag--><path d="M304.024,113.162 C316.535,117.417 326.713,121.044 328,122 C349.278,137.805 365.727,164.066 375.138,181.698 " fill="none" id="user-tag" style="stroke: #A80036; stroke-width: 1.0;"/><!--link follow to follower--><path d="M158.184,201 C169.788,201 181.393,201 192.998,201 " fill="none" id="follow-follower" style="stroke: #A80036; stroke-width: 1.0;"/><!--link userDetail to nav--><path d="M454.0644,110.9759 C454.1415,111.1191 454.219,111.2631 454.2969,111.4078 C454.6086,111.9867 454.9269,112.5778 455.2514,113.1805 C460.4437,122.8235 467.2274,135.422 474.0104,148.019 C480.7933,160.616 487.5755,173.2115 492.7646,182.8485 C493.089,183.4508 493.4071,184.0416 493.7186,184.62 C493.7964,184.7647 493.8739,184.9085 493.9509,185.0516 " fill="none" id="userDetail-nav" style="stroke: #A80036; stroke-width: 1.0;"/><!--link norti to profile--><!--link profile to account--><!--link norti to display--><!--link display to nortiset--><!--
@startuml
	package "ユーザー" as userDetail{
		agent "ユーザー詳細" as user
		agent "フォロー一覧" as follow
		agent "フォロワー一覧" as follower
		agent "タグ一覧" as tag
		user - - follow
		user - - follower
		user - - tag
		follow -right- follower
	}
	package "ナビゲーション" as nav{
		agent "通知" as norti
		agent "プロフィール設定" as profile
		agent "アカウント設定" as account
		agent "表示設定" as display
		agent "通知設定" as nortiset
		userDetail - - nav
	}
@enduml

PlantUML version 1.2019.06(Sat May 25 02:10:25 JST 2019)
(GPL source distribution)
Java Runtime: Java(TM) SE Runtime Environment
JVM: Java HotSpot(TM) 64-Bit Server VM
Java Version: 1.8.0_231-b11
Operating System: Windows 10
OS Version: 10.0
Default Encoding: MS932
Language: ja
Country: JP
--></g></svg>