<?xml version="1.0" encoding="UTF-8" standalone="no"?><svg xmlns="http://www.w3.org/2000/svg" xmlns:xlink="http://www.w3.org/1999/xlink" contentScriptType="application/ecmascript" contentStyleType="text/css" height="790px" preserveAspectRatio="none" style="width:869px;height:790px;" version="1.1" viewBox="0 0 869 790" width="869px" zoomAndPan="magnify"><defs><filter height="300%" id="fgu8hwvv24e3p" width="300%" x="-1" y="-1"><feGaussianBlur result="blurOut" stdDeviation="2.0"/><feColorMatrix in="blurOut" result="blurOut2" type="matrix" values="0 0 0 0 0 0 0 0 0 0 0 0 0 0 0 0 0 0 .4 0"/><feOffset dx="4.0" dy="4.0" in="blurOut2" result="blurOut3"/><feBlend in="SourceGraphic" in2="blurOut3" mode="normal"/></filter></defs><g><rect fill="#FEFECE" filter="url(#fgu8hwvv24e3p)" height="771.6094" rx="12.5" ry="12.5" style="stroke: #A80036; stroke-width: 1.5;" width="851" x="6" y="8"/><rect fill="#FFFFFF" height="738" rx="12.5" ry="12.5" style="stroke: #FFFFFF; stroke-width: 1.0;" width="845" x="9" y="38.6094"/><line style="stroke: #A80036; stroke-width: 1.5;" x1="6" x2="857" y1="35.6094" y2="35.6094"/><text fill="#000000" font-family="sans-serif" font-size="14" lengthAdjust="spacingAndGlyphs" textLength="70" x="396.5" y="27.5332">コンテンツ</text><polygon fill="#FEFECE" filter="url(#fgu8hwvv24e3p)" points="363,275.6094,375,287.6094,363,299.6094,351,287.6094,363,275.6094" style="stroke: #A80036; stroke-width: 1.5;"/><rect fill="#FEFECE" filter="url(#fgu8hwvv24e3p)" height="50" rx="12.5" ry="12.5" style="stroke: #A80036; stroke-width: 1.5;" width="99" x="313.5" y="138.6094"/><line style="stroke: #A80036; stroke-width: 1.5;" x1="313.5" x2="412.5" y1="166.2188" y2="166.2188"/><text fill="#000000" font-family="sans-serif" font-size="14" lengthAdjust="spacingAndGlyphs" textLength="79" x="323.5" y="158.1426">Aboutページ</text><rect fill="#FEFECE" filter="url(#fgu8hwvv24e3p)" height="52.7031" rx="12.5" ry="12.5" style="stroke: #A80036; stroke-width: 1.5;" width="104" x="368" y="386.6094"/><line style="stroke: #A80036; stroke-width: 1.5;" x1="368" x2="472" y1="414.2188" y2="414.2188"/><text fill="#000000" font-family="sans-serif" font-size="14" lengthAdjust="spacingAndGlyphs" textLength="84" x="378" y="406.1426">ユーザー詳細</text><text fill="#000000" font-family="sans-serif" font-size="12" lengthAdjust="spacingAndGlyphs" textLength="60" x="373" y="431.6758">マイページ</text><rect fill="#FEFECE" filter="url(#fgu8hwvv24e3p)" height="52.7031" rx="12.5" ry="12.5" style="stroke: #A80036; stroke-width: 1.5;" width="104" x="379" y="711.6094"/><line style="stroke: #A80036; stroke-width: 1.5;" x1="379" x2="483" y1="739.2188" y2="739.2188"/><text fill="#000000" font-family="sans-serif" font-size="14" lengthAdjust="spacingAndGlyphs" textLength="84" x="389" y="731.1426">ユーザー詳細</text><text fill="#000000" font-family="sans-serif" font-size="12" lengthAdjust="spacingAndGlyphs" textLength="84" x="384" y="756.6758">任意のユーザー</text><rect fill="#FEFECE" filter="url(#fgu8hwvv24e3p)" height="52.7031" rx="12.5" ry="12.5" style="stroke: #A80036; stroke-width: 1.5;" width="104" x="140" y="386.6094"/><line style="stroke: #A80036; stroke-width: 1.5;" x1="140" x2="244" y1="414.2188" y2="414.2188"/><text fill="#000000" font-family="sans-serif" font-size="14" lengthAdjust="spacingAndGlyphs" textLength="84" x="150" y="406.1426">ユーザー編集</text><text fill="#000000" font-family="sans-serif" font-size="12" lengthAdjust="spacingAndGlyphs" textLength="60" x="145" y="431.6758">マイページ</text><rect fill="#FEFECE" filter="url(#fgu8hwvv24e3p)" height="52.7031" rx="12.5" ry="12.5" style="stroke: #A80036; stroke-width: 1.5;" width="146" x="583" y="386.6094"/><line style="stroke: #A80036; stroke-width: 1.5;" x1="583" x2="729" y1="414.2188" y2="414.2188"/><text fill="#000000" font-family="sans-serif" font-size="14" lengthAdjust="spacingAndGlyphs" textLength="126" x="593" y="406.1426">ユーザーアプリ編集</text><text fill="#000000" font-family="sans-serif" font-size="12" lengthAdjust="spacingAndGlyphs" textLength="60" x="588" y="431.6758">マイページ</text><rect fill="#FEFECE" filter="url(#fgu8hwvv24e3p)" height="50" rx="12.5" ry="12.5" style="stroke: #A80036; stroke-width: 1.5;" width="104" x="231" y="558.6094"/><line style="stroke: #A80036; stroke-width: 1.5;" x1="231" x2="335" y1="586.2188" y2="586.2188"/><text fill="#000000" font-family="sans-serif" font-size="14" lengthAdjust="spacingAndGlyphs" textLength="84" x="241" y="578.1426">フォロー一覧</text><rect fill="#FEFECE" filter="url(#fgu8hwvv24e3p)" height="50" rx="12.5" ry="12.5" style="stroke: #A80036; stroke-width: 1.5;" width="118" x="412" y="558.6094"/><line style="stroke: #A80036; stroke-width: 1.5;" x1="412" x2="530" y1="586.2188" y2="586.2188"/><text fill="#000000" font-family="sans-serif" font-size="14" lengthAdjust="spacingAndGlyphs" textLength="98" x="422" y="578.1426">フォロワー一覧</text><rect fill="#FEFECE" filter="url(#fgu8hwvv24e3p)" height="50" rx="12.5" ry="12.5" style="stroke: #A80036; stroke-width: 1.5;" width="76" x="581" y="558.6094"/><line style="stroke: #A80036; stroke-width: 1.5;" x1="581" x2="657" y1="586.2188" y2="586.2188"/><text fill="#000000" font-family="sans-serif" font-size="14" lengthAdjust="spacingAndGlyphs" textLength="56" x="591" y="578.1426">タグ詳細</text><rect fill="#FEFECE" filter="url(#fgu8hwvv24e3p)" height="50" rx="12.5" ry="12.5" style="stroke: #A80036; stroke-width: 1.5;" width="90" x="73" y="558.6094"/><line style="stroke: #A80036; stroke-width: 1.5;" x1="73" x2="163" y1="586.2188" y2="586.2188"/><text fill="#000000" font-family="sans-serif" font-size="14" lengthAdjust="spacingAndGlyphs" textLength="70" x="83" y="578.1426">アプリ詳細</text><rect fill="#FEFECE" filter="url(#fgu8hwvv24e3p)" height="50" rx="12.5" ry="12.5" style="stroke: #A80036; stroke-width: 1.5;" width="90" x="17" y="388.1094"/><line style="stroke: #A80036; stroke-width: 1.5;" x1="17" x2="107" y1="415.7188" y2="415.7188"/><text fill="#000000" font-family="sans-serif" font-size="14" lengthAdjust="spacingAndGlyphs" textLength="70" x="27" y="407.6426">アプリ編集</text><ellipse cx="471" cy="58.6094" fill="#000000" filter="url(#fgu8hwvv24e3p)" rx="10" ry="10" style="stroke: none; stroke-width: 1.0;"/><!--link *start*content to sc1--><path d="M461.048,60.6004 C436.866,63.2334 376.111,71.2724 364,86.6094 C353.788,99.5424 353.301,117.9434 355.481,133.3994 " fill="none" id="*start*content-sc1" style="stroke: #A80036; stroke-width: 1.0;"/><polygon fill="#A80036" points="356.313,138.5164,358.8188,128.9916,355.5116,133.581,350.9222,130.2738,356.313,138.5164" style="stroke: #A80036; stroke-width: 1.0;"/><text fill="#000000" font-family="sans-serif" font-size="13" lengthAdjust="spacingAndGlyphs" textLength="91" x="365" y="101.1045">非ログイン時、</text><text fill="#000000" font-family="sans-serif" font-size="13" lengthAdjust="spacingAndGlyphs" textLength="79" x="371" y="117.4561">"/"にアクセス</text><!--link *start*content to sc2.1--><path d="M472.636,68.6434 C479.128,106.7714 500.671,257.6804 457,368.6094 C455.148,373.3144 452.565,377.8714 449.616,382.1514 " fill="none" id="*start*content-sc2.1" style="stroke: #A80036; stroke-width: 1.0;"/><polygon fill="#A80036" points="446.559,386.3364,455.0985,381.4296,449.5089,382.2993,448.6392,376.7097,446.559,386.3364" style="stroke: #A80036; stroke-width: 1.0;"/><text fill="#000000" font-family="sans-serif" font-size="13" lengthAdjust="spacingAndGlyphs" textLength="78" x="485.5" y="229.6045">ログイン時、</text><text fill="#000000" font-family="sans-serif" font-size="13" lengthAdjust="spacingAndGlyphs" textLength="79" x="485" y="245.9561">"/"にアクセス</text><!--link *start*content to sc2.1.2--><path d="M480.845,60.9224 C531.135,67.9004 757,102.5784 757,162.6094 C757,162.6094 757,162.6094 757,584.6094 C757,633.9444 771.724,659.5834 736,693.6094 C701.418,726.5482 566.667,734.7 488.326,736.618 " fill="none" id="*start*content-sc2.1.2" style="stroke: #A80036; stroke-width: 1.0;"/><polygon fill="#A80036" points="483.249,736.7355,492.3392,740.5261,488.2477,736.6198,492.154,732.5283,483.249,736.7355" style="stroke: #A80036; stroke-width: 1.0;"/><text fill="#000000" font-family="sans-serif" font-size="13" lengthAdjust="spacingAndGlyphs" textLength="65" x="758" y="332.1045">ユーザーの</text><text fill="#000000" font-family="sans-serif" font-size="13" lengthAdjust="spacingAndGlyphs" textLength="38" x="771.5" y="348.4561">URLに</text><text fill="#000000" font-family="sans-serif" font-size="13" lengthAdjust="spacingAndGlyphs" textLength="52" x="764.5" y="364.8076">アクセス</text><!--link sc1 to choice--><path d="M363,188.7124 C363,212.8084 363,249.2084 363,270.1674 " fill="none" id="sc1-choice" style="stroke: #A80036; stroke-width: 1.0;"/><polygon fill="#A80036" points="363,275.3964,367,266.3964,363,270.3964,359,266.3964,363,275.3964" style="stroke: #A80036; stroke-width: 1.0;"/><text fill="#000000" font-family="sans-serif" font-size="13" lengthAdjust="spacingAndGlyphs" textLength="52" x="364" y="221.1045">ログイン</text><text fill="#000000" font-family="sans-serif" font-size="13" lengthAdjust="spacingAndGlyphs" textLength="52" x="364" y="237.4561">ボタンを</text><text fill="#000000" font-family="sans-serif" font-size="13" lengthAdjust="spacingAndGlyphs" textLength="26" x="377" y="253.8076">押下</text><!--link choice to sc2.1--><path d="M366.566,296.3344 C374.284,313.0574 392.896,353.3844 405.974,381.7194 " fill="none" id="choice-sc2.1" style="stroke: #A80036; stroke-width: 1.0;"/><polygon fill="#A80036" points="408.185,386.5094,408.0447,376.6615,406.0894,381.9697,400.7813,380.0144,408.185,386.5094" style="stroke: #A80036; stroke-width: 1.0;"/><text fill="#000000" font-family="sans-serif" font-size="13" lengthAdjust="spacingAndGlyphs" textLength="26" x="413" y="340.6045">既存</text><text fill="#000000" font-family="sans-serif" font-size="13" lengthAdjust="spacingAndGlyphs" textLength="52" x="400" y="356.9561">ユーザー</text><!--link choice to sc2.2--><path d="M356.059,293.0104 C347.319,298.5924 331.887,308.5794 319,317.6094 C288.469,339.0044 254.634,364.2594 229.57,383.2764 " fill="none" id="choice-sc2.2" style="stroke: #A80036; stroke-width: 1.0;"/><polygon fill="#A80036" points="225.31,386.5124,234.8959,384.2515,229.2909,383.4871,230.0554,377.8821,225.31,386.5124" style="stroke: #A80036; stroke-width: 1.0;"/><text fill="#000000" font-family="sans-serif" font-size="13" lengthAdjust="spacingAndGlyphs" textLength="26" x="333" y="340.6045">新規</text><text fill="#000000" font-family="sans-serif" font-size="13" lengthAdjust="spacingAndGlyphs" textLength="52" x="320" y="356.9561">ユーザー</text><!--link sc2.2 to sc2.1--><path d="M232.991,441.9994 C239.435,445.3324 246.216,448.2124 253,450.1094 C275.686,456.4514 336.314,456.4514 359,450.1094 C367.35,447.7754 375.695,443.9504 383.412,439.6264 " fill="none" id="sc2.2-sc2.1" style="stroke: #A80036; stroke-width: 1.0;"/><polygon fill="#A80036" points="228.588,439.6264,234.6128,447.4175,232.9894,441.9986,238.4084,440.3752,228.588,439.6264" style="stroke: #A80036; stroke-width: 1.0;"/><text fill="#000000" font-family="sans-serif" font-size="13" lengthAdjust="spacingAndGlyphs" textLength="104" x="254" y="430.6045">ユーザーの編集を</text><text fill="#000000" font-family="sans-serif" font-size="13" lengthAdjust="spacingAndGlyphs" textLength="26" x="293" y="446.9561">押下</text><!--link sc2.2 to sc2.1--><path d="M244.022,413.1094 C279.348,413.1094 326.081,413.1094 362.51,413.1094 " fill="none" id="sc2.2-sc2.1-1" style="stroke: #A80036; stroke-width: 1.0;"/><polygon fill="#A80036" points="367.807,413.1094,358.807,409.1094,362.807,413.1094,358.807,417.1094,367.807,413.1094" style="stroke: #A80036; stroke-width: 1.0;"/><text fill="#000000" font-family="sans-serif" font-size="13" lengthAdjust="spacingAndGlyphs" textLength="104" x="254" y="390.6045">ユーザーの更新を</text><text fill="#000000" font-family="sans-serif" font-size="13" lengthAdjust="spacingAndGlyphs" textLength="26" x="293" y="406.9561">押下</text><!--link sc2.1 to sc2.3--><path d="M456.588,439.6264 C464.305,443.9504 472.65,447.7754 481,450.1094 C500.903,455.6734 553.796,454.4564 574,450.1094 C583.018,448.1694 592.24,445.1544 601.091,441.6644 " fill="none" id="sc2.1-sc2.3" style="stroke: #A80036; stroke-width: 1.0;"/><polygon fill="#A80036" points="605.967,439.6814,596.1231,439.368,601.3356,441.5656,599.1379,446.7781,605.967,439.6814" style="stroke: #A80036; stroke-width: 1.0;"/><text fill="#000000" font-family="sans-serif" font-size="13" lengthAdjust="spacingAndGlyphs" textLength="91" x="482" y="430.6045">アプリの編集を</text><text fill="#000000" font-family="sans-serif" font-size="13" lengthAdjust="spacingAndGlyphs" textLength="26" x="514.5" y="446.9561">押下</text><!--link sc2.1 to sc2.3--><path d="M477.099,413.1094 C508.798,413.1094 548.574,413.1094 582.566,413.1094 " fill="none" id="sc2.1-sc2.3-1" style="stroke: #A80036; stroke-width: 1.0;"/><polygon fill="#A80036" points="472.083,413.1094,481.083,417.1094,477.083,413.1094,481.083,409.1094,472.083,413.1094" style="stroke: #A80036; stroke-width: 1.0;"/><text fill="#000000" font-family="sans-serif" font-size="13" lengthAdjust="spacingAndGlyphs" textLength="91" x="482" y="390.6045">アプリの更新を</text><text fill="#000000" font-family="sans-serif" font-size="13" lengthAdjust="spacingAndGlyphs" textLength="26" x="514.5" y="406.9561">押下</text><!--link sc2.1 to sc3--><path d="M369.576,439.6204 C362.611,444.8224 356.107,450.8194 351,457.6094 C327.917,488.2974 346.909,507.7734 327,540.6094 C324.066,545.4494 320.431,550.1034 316.519,554.4374 " fill="none" id="sc2.1-sc3" style="stroke: #A80036; stroke-width: 1.0;"/><polygon fill="#A80036" points="312.86,558.3234,321.941,554.5109,316.2868,554.6823,316.1154,549.0281,312.86,558.3234" style="stroke: #A80036; stroke-width: 1.0;"/><text fill="#000000" font-family="sans-serif" font-size="13" lengthAdjust="spacingAndGlyphs" textLength="65" x="352" y="496.6045">フォローを</text><text fill="#000000" font-family="sans-serif" font-size="13" lengthAdjust="spacingAndGlyphs" textLength="26" x="371.5" y="512.9561">押下</text><!--link sc2.1 to sc3--><path d="M362.71,423.3034 C324.998,430.6584 280.54,442.2764 269,457.6094 C247.071,486.7474 259.71,531.0634 271.149,558.3554 " fill="none" id="sc2.1-sc3-1" style="stroke: #A80036; stroke-width: 1.0;"/><polygon fill="#A80036" points="367.745,422.3384,358.1528,420.1047,362.8344,423.2799,359.6592,427.9616,367.745,422.3384" style="stroke: #A80036; stroke-width: 1.0;"/><text fill="#000000" font-family="sans-serif" font-size="13" lengthAdjust="spacingAndGlyphs" textLength="52" x="270" y="496.6045">アプリを</text><text fill="#000000" font-family="sans-serif" font-size="13" lengthAdjust="spacingAndGlyphs" textLength="26" x="283" y="512.9561">押下</text><!--link sc2.1 to sc4--><path d="M420.509,439.7984 C421.833,466.0664 426.181,507.5864 440,540.6094 C441.942,545.2494 444.498,549.8514 447.312,554.2144 " fill="none" id="sc2.1-sc4" style="stroke: #A80036; stroke-width: 1.0;"/><polygon fill="#A80036" points="450.199,558.4894,448.478,548.792,447.4011,554.3455,441.8477,553.2686,450.199,558.4894" style="stroke: #A80036; stroke-width: 1.0;"/><text fill="#000000" font-family="sans-serif" font-size="13" lengthAdjust="spacingAndGlyphs" textLength="78" x="441" y="496.6045">フォロワーを</text><text fill="#000000" font-family="sans-serif" font-size="13" lengthAdjust="spacingAndGlyphs" textLength="26" x="467" y="512.9561">押下</text><!--link sc2.1 to sc4--><path d="M476.935,426.1294 C493.648,432.5914 510.086,442.4854 520,457.6094 C540.223,488.4604 535.414,507.0954 520,540.6094 C517.004,547.1244 512.443,553.0064 507.287,558.1654 " fill="none" id="sc2.1-sc4-1" style="stroke: #A80036; stroke-width: 1.0;"/><polygon fill="#A80036" points="472.219,424.3974,479.2854,431.2578,476.9118,426.1231,482.0465,423.7494,472.219,424.3974" style="stroke: #A80036; stroke-width: 1.0;"/><text fill="#000000" font-family="sans-serif" font-size="13" lengthAdjust="spacingAndGlyphs" textLength="52" x="535" y="496.6045">アプリを</text><text fill="#000000" font-family="sans-serif" font-size="13" lengthAdjust="spacingAndGlyphs" textLength="26" x="548" y="512.9561">押下</text><!--link sc2.1 to sc5--><path d="M472.311,421.1984 C516.629,428.2724 575.525,440.5484 592,457.6094 C616.536,483.0194 621.003,525.1244 620.87,553.3604 " fill="none" id="sc2.1-sc5" style="stroke: #A80036; stroke-width: 1.0;"/><polygon fill="#A80036" points="620.795,558.4634,624.9283,549.5238,620.8693,553.4639,616.9291,549.4049,620.795,558.4634" style="stroke: #A80036; stroke-width: 1.0;"/><text fill="#000000" font-family="sans-serif" font-size="13" lengthAdjust="spacingAndGlyphs" textLength="39" x="622" y="488.1045">任意の</text><text fill="#000000" font-family="sans-serif" font-size="13" lengthAdjust="spacingAndGlyphs" textLength="39" x="622" y="504.4561">タグを</text><text fill="#000000" font-family="sans-serif" font-size="13" lengthAdjust="spacingAndGlyphs" textLength="26" x="628.5" y="520.8076">押下</text><!--link sc5 to sc2.1.2--><path d="M642.951,608.6434 C647.07,614.1344 650.746,620.2424 653,626.6094 C662.938,654.6804 671.924,670.6179 653,693.6094 C632.528,718.4825 547.13,729.3405 488.424,733.9316 " fill="none" id="sc5-sc2.1.2" style="stroke: #A80036; stroke-width: 1.0;"/><polygon fill="#A80036" points="483.185,734.3304,492.463,737.6348,488.1705,733.9504,491.855,729.6579,483.185,734.3304" style="stroke: #A80036; stroke-width: 1.0;"/><text fill="#000000" font-family="sans-serif" font-size="13" lengthAdjust="spacingAndGlyphs" textLength="39" x="679" y="649.1045">任意の</text><text fill="#000000" font-family="sans-serif" font-size="13" lengthAdjust="spacingAndGlyphs" textLength="65" x="666" y="665.4561">ユーザーを</text><text fill="#000000" font-family="sans-serif" font-size="13" lengthAdjust="spacingAndGlyphs" textLength="26" x="685.5" y="681.8076">押下</text><!--link sc2.1 to sc6.1--><path d="M367.72,422.4314 C300.852,433.2794 192.801,451.5774 186,457.6094 C157.079,483.2584 180.023,507.5424 160,540.6094 C156.995,545.5714 153.284,550.3804 149.32,554.8644 " fill="none" id="sc2.1-sc6.1" style="stroke: #A80036; stroke-width: 1.0;"/><polygon fill="#A80036" points="145.942,558.5504,154.9721,554.6189,149.3206,554.8646,149.0749,549.2131,145.942,558.5504" style="stroke: #A80036; stroke-width: 1.0;"/><text fill="#000000" font-family="sans-serif" font-size="13" lengthAdjust="spacingAndGlyphs" textLength="39" x="200" y="472.1045">任意の</text><text fill="#000000" font-family="sans-serif" font-size="13" lengthAdjust="spacingAndGlyphs" textLength="39" x="200" y="488.4561">アプリ</text><text fill="#000000" font-family="sans-serif" font-size="13" lengthAdjust="spacingAndGlyphs" textLength="65" x="187" y="504.8076">アイコンか</text><text fill="#000000" font-family="sans-serif" font-size="13" lengthAdjust="spacingAndGlyphs" textLength="65" x="187" y="521.1592">アプリ名を</text><text fill="#000000" font-family="sans-serif" font-size="13" lengthAdjust="spacingAndGlyphs" textLength="26" x="206.5" y="537.5107">押下</text><!--link sc3 to sc2.1.2--><path d="M305.891,609.0434 C310.531,614.5984 315.159,620.6304 319,626.6094 C336.733,654.2154 327.499,669.7291 350,693.6094 C356.961,700.9974 365.462,707.3992 374.309,712.8489 " fill="none" id="sc3-sc2.1.2" style="stroke: #A80036; stroke-width: 1.0;"/><polygon fill="#A80036" points="378.674,715.4478,372.9882,707.4059,374.3781,712.8894,368.8947,714.2793,378.674,715.4478" style="stroke: #A80036; stroke-width: 1.0;"/><text fill="#000000" font-family="sans-serif" font-size="13" lengthAdjust="spacingAndGlyphs" textLength="52" x="357.5" y="641.1045">アプリか</text><text fill="#000000" font-family="sans-serif" font-size="13" lengthAdjust="spacingAndGlyphs" textLength="39" x="364" y="657.4561">任意の</text><text fill="#000000" font-family="sans-serif" font-size="13" lengthAdjust="spacingAndGlyphs" textLength="65" x="351" y="673.8076">ユーザーを</text><text fill="#000000" font-family="sans-serif" font-size="13" lengthAdjust="spacingAndGlyphs" textLength="26" x="370.5" y="690.1592">押下</text><!--link sc4 to sc2.1.2--><path d="M490.484,608.6984 C493.988,614.2744 497.121,620.4024 499,626.6094 C507.629,655.1094 513.298,667.489 499,693.6094 C495.89,699.2911 491.686,704.3392 486.885,708.7972 " fill="none" id="sc4-sc2.1.2" style="stroke: #A80036; stroke-width: 1.0;"/><polygon fill="#A80036" points="483.106,712.0919,492.5185,709.1929,486.8749,708.8062,487.2615,703.1626,483.106,712.0919" style="stroke: #A80036; stroke-width: 1.0;"/><text fill="#000000" font-family="sans-serif" font-size="13" lengthAdjust="spacingAndGlyphs" textLength="52" x="515.5" y="641.1045">アプリか</text><text fill="#000000" font-family="sans-serif" font-size="13" lengthAdjust="spacingAndGlyphs" textLength="39" x="522" y="657.4561">任意の</text><text fill="#000000" font-family="sans-serif" font-size="13" lengthAdjust="spacingAndGlyphs" textLength="65" x="509" y="673.8076">ユーザーを</text><text fill="#000000" font-family="sans-serif" font-size="13" lengthAdjust="spacingAndGlyphs" textLength="26" x="528.5" y="690.1592">押下</text><!--link sc3 to sc2.1.2--><path d="M265.674,613.4324 C253.847,637.2444 243.242,670.7355 261,693.6094 C275.432,712.199 334.363,724.1945 378.825,730.7842 " fill="none" id="sc3-sc2.1.2-1" style="stroke: #A80036; stroke-width: 1.0;"/><polygon fill="#A80036" points="268.048,608.8044,260.3802,614.9854,265.7652,613.2528,267.4977,618.6378,268.048,608.8044" style="stroke: #A80036; stroke-width: 1.0;"/><text fill="#000000" font-family="sans-serif" font-size="13" lengthAdjust="spacingAndGlyphs" textLength="52" x="262" y="657.6045">フォロー</text><text fill="#000000" font-family="sans-serif" font-size="13" lengthAdjust="spacingAndGlyphs" textLength="39" x="268.5" y="673.9561">を押下</text><!--link sc4 to sc2.1.2--><path d="M436.626,612.5724 C433.138,616.8944 430.109,621.6024 428,626.6094 C416.53,653.8474 419.945,688.3018 424.488,711.434 " fill="none" id="sc4-sc2.1.2-1" style="stroke: #A80036; stroke-width: 1.0;"/><polygon fill="#A80036" points="439.946,608.7124,431.0445,612.9271,436.6855,612.503,437.1095,618.1439,439.946,608.7124" style="stroke: #A80036; stroke-width: 1.0;"/><text fill="#000000" font-family="sans-serif" font-size="13" lengthAdjust="spacingAndGlyphs" textLength="65" x="429" y="657.6045">フォロワー</text><text fill="#000000" font-family="sans-serif" font-size="13" lengthAdjust="spacingAndGlyphs" textLength="39" x="442" y="673.9561">を押下</text><!--link sc5 to sc2.1.2--><path d="M611.454,613.9284 C603.609,642.2764 590.844,682.5205 579,693.6094 C553.096,717.8617 514.359,728.6622 483.013,733.4387 " fill="none" id="sc5-sc2.1.2-1" style="stroke: #A80036; stroke-width: 1.0;"/><polygon fill="#A80036" points="612.86,608.7834,606.6281,616.4099,611.5414,613.6064,614.3449,618.5197,612.86,608.7834" style="stroke: #A80036; stroke-width: 1.0;"/><text fill="#000000" font-family="sans-serif" font-size="13" lengthAdjust="spacingAndGlyphs" textLength="39" x="608" y="649.1045">任意の</text><text fill="#000000" font-family="sans-serif" font-size="13" lengthAdjust="spacingAndGlyphs" textLength="39" x="608" y="665.4561">タグを</text><text fill="#000000" font-family="sans-serif" font-size="13" lengthAdjust="spacingAndGlyphs" textLength="26" x="614.5" y="681.8076">押下</text><!--link sc6.1 to sc2.1.2--><path d="M152.986,612.6744 C157.348,617.0604 161.498,621.7564 165,626.6094 C183.985,652.9234 168.606,673.4113 194,693.6094 C221.952,715.8415 318.052,727.7686 378.957,733.2467 " fill="none" id="sc6.1-sc2.1.2" style="stroke: #A80036; stroke-width: 1.0;"/><polygon fill="#A80036" points="149.282,609.0684,152.9398,618.2128,152.8644,612.5565,158.5207,612.481,149.282,609.0684" style="stroke: #A80036; stroke-width: 1.0;"/><text fill="#000000" font-family="sans-serif" font-size="13" lengthAdjust="spacingAndGlyphs" textLength="39" x="201.5" y="649.1045">任意の</text><text fill="#000000" font-family="sans-serif" font-size="13" lengthAdjust="spacingAndGlyphs" textLength="52" x="195" y="665.4561">アプリを</text><text fill="#000000" font-family="sans-serif" font-size="13" lengthAdjust="spacingAndGlyphs" textLength="26" x="208" y="681.8076">押下</text><!--link sc6.1 to sc2.1.2--><path d="M102.0277,608.8214 C88.2041,633.1084 73.4009,670.1804 94,693.6094 C112.1352,714.2359 282.224,727.8726 373.59,733.7736 " fill="none" id="sc6.1-sc2.1.2-1" style="stroke: #A80036; stroke-width: 1.0;"/><polygon fill="#A80036" points="378.686,734.1,369.9605,729.5322,373.6963,733.78,369.4484,737.5158,378.686,734.1" style="stroke: #A80036; stroke-width: 1.0;"/><text fill="#000000" font-family="sans-serif" font-size="13" lengthAdjust="spacingAndGlyphs" textLength="39" x="108" y="649.1045">任意の</text><text fill="#000000" font-family="sans-serif" font-size="13" lengthAdjust="spacingAndGlyphs" textLength="65" x="95" y="665.4561">ユーザーを</text><text fill="#000000" font-family="sans-serif" font-size="13" lengthAdjust="spacingAndGlyphs" textLength="26" x="114.5" y="681.8076">押下</text><!--link sc6.2 to sc6.1--><path d="M87.466,442.7624 C90.7381,447.4874 93.7318,452.5144 96,457.6094 C110.6964,490.6234 115.5919,532.6384 117.212,558.5724 " fill="none" id="sc6.2-sc6.1" style="stroke: #A80036; stroke-width: 1.0;"/><polygon fill="#A80036" points="84.3955,438.5134,86.425,448.1509,87.3241,442.5659,92.9091,443.465,84.3955,438.5134" style="stroke: #A80036; stroke-width: 1.0;"/><text fill="#000000" font-family="sans-serif" font-size="13" lengthAdjust="spacingAndGlyphs" textLength="39" x="117" y="496.6045">編集を</text><text fill="#000000" font-family="sans-serif" font-size="13" lengthAdjust="spacingAndGlyphs" textLength="26" x="123.5" y="512.9561">押下</text><!--link sc6.2 to sc6.1--><path d="M52.3075,438.1484 C43.167,464.9064 33.2818,508.5904 51,540.6094 C55.1835,548.1694 61.3596,554.5504 68.2957,559.8764 " fill="none" id="sc6.2-sc6.1-1" style="stroke: #A80036; stroke-width: 1.0;"/><polygon fill="#A80036" points="72.7015,563.0564,67.7467,554.5446,68.6479,560.1292,63.0633,561.0304,72.7015,563.0564" style="stroke: #A80036; stroke-width: 1.0;"/><text fill="#000000" font-family="sans-serif" font-size="13" lengthAdjust="spacingAndGlyphs" textLength="39" x="52" y="496.6045">更新を</text><text fill="#000000" font-family="sans-serif" font-size="13" lengthAdjust="spacingAndGlyphs" textLength="26" x="58.5" y="512.9561">押下</text><!--
@startuml
	state "コンテンツ" as content {
		state choice <<choice>>
		state "Aboutページ" as sc1
		state "ユーザー詳細" as sc2.1 : マイページ
		state "ユーザー詳細" as sc2.1.2 : 任意のユーザー
		state "ユーザー編集" as sc2.2 : マイページ
		state "ユーザーアプリ編集" as sc2.3 : マイページ
		state "フォロー一覧" as sc3
		state "フォロワー一覧" as sc4
		state "タグ詳細" as sc5
		state "アプリ詳細" as sc6.1
		state "アプリ編集" as sc6.2
		[*] -down-> sc1 : 非ログイン時、\n"/"にアクセス
		[*] -down-> sc2.1 : ログイン時、\n"/"にアクセス
		[*] -down-> sc2.1.2 : ユーザーの\nURLに\nアクセス
		sc1 -down-> choice : ログイン\nボタンを\n押下
		choice -down-> sc2.1 : 既存\nユーザー
		choice -down-> sc2.2 : 新規\nユーザー
		sc2.1 -left-> sc2.2 : ユーザーの編集を\n押下
		sc2.2 -right-> sc2.1 : ユーザーの更新を\n押下
		sc2.1 -right-> sc2.3 : アプリの編集を\n押下
		sc2.3 -left-> sc2.1 : アプリの更新を\n押下
		sc2.1 -down-> sc3 : フォローを\n押下
		sc3 -up-> sc2.1 : アプリを\n押下
		sc2.1 -down-> sc4 : フォロワーを\n押下
		sc4 -up-> sc2.1 : アプリを\n押下
		sc2.1 -down-> sc5 : 任意の\nタグを\n押下
		sc5 -down-> sc2.1.2 : 任意の\nユーザーを\n押下
		sc2.1 -down-> sc6.1 : 任意の\nアプリ\nアイコンか\nアプリ名を\n押下
		sc3 -down-> sc2.1.2 : アプリか\n任意の\nユーザーを\n押下
		sc4 -down-> sc2.1.2 : アプリか\n任意の\nユーザーを\n押下
		sc2.1.2 -up-> sc3 : フォロー\nを押下
		sc2.1.2 -up-> sc4 : フォロワー\nを押下
		sc2.1.2 -up-> sc5 : 任意の\nタグを\n押下
		sc2.1.2 -up-> sc6.1 : 任意の\nアプリを\n押下
		sc6.1 -down-> sc2.1.2 : 任意の\nユーザーを\n押下
		sc6.1 -up-> sc6.2 : 編集を\n押下
		sc6.2 -down-> sc6.1 : 更新を\n押下
	}
@enduml

PlantUML version 1.2019.06(Sat May 25 02:10:25 JST 2019)
(GPL source distribution)
Java Runtime: OpenJDK Runtime Environment
JVM: OpenJDK 64-Bit Server VM
Java Version: 14.0.2+12-46
Operating System: Windows 10
OS Version: 10.0
Default Encoding: MS932
Language: ja
Country: JP
--></g></svg>