<?xml version="1.0" encoding="UTF-8" standalone="no"?><svg xmlns="http://www.w3.org/2000/svg" xmlns:xlink="http://www.w3.org/1999/xlink" contentScriptType="application/ecmascript" contentStyleType="text/css" height="368px" preserveAspectRatio="none" style="width:819px;height:368px;" version="1.1" viewBox="0 0 819 368" width="819px" zoomAndPan="magnify"><defs><filter height="300%" id="f1vivngd48b11d" width="300%" x="-1" y="-1"><feGaussianBlur result="blurOut" stdDeviation="2.0"/><feColorMatrix in="blurOut" result="blurOut2" type="matrix" values="0 0 0 0 0 0 0 0 0 0 0 0 0 0 0 0 0 0 .4 0"/><feOffset dx="4.0" dy="4.0" in="blurOut2" result="blurOut3"/><feBlend in="SourceGraphic" in2="blurOut3" mode="normal"/></filter></defs><g><!--class apps--><rect fill="#FEFECE" filter="url(#f1vivngd48b11d)" height="117.1797" id="apps" style="stroke: #A80036; stroke-width: 1.5;" width="142" x="6" y="22"/><ellipse cx="58.75" cy="38" fill="#ADD1B2" rx="11" ry="11" style="stroke: #A80036; stroke-width: 1.0;"/><path d="M57.4688,36.6719 L61.9844,36.6719 L61.9844,38.625 L57.4688,38.625 L57.4688,42.9219 L62.7031,42.9219 L62.7031,44.8594 L55.25,44.8594 L55.25,31.2344 L62.375,31.2344 L62.375,33.1719 L57.4688,33.1719 L57.4688,36.6719 Z "/><text fill="#000000" font-family="sans-serif" font-size="12" lengthAdjust="spacingAndGlyphs" textLength="28" x="79.25" y="42.9102">apps</text><line style="stroke: #A80036; stroke-width: 1.5;" x1="7" x2="147" y1="54" y2="54"/><ellipse cx="17" cy="66.418" fill="#000000" rx="3" ry="3" style="stroke: #000000; stroke-width: 1.0;"/><text fill="#000000" font-family="sans-serif" font-size="11" font-weight="bold" lengthAdjust="spacingAndGlyphs" textLength="39" x="26" y="69.4189">aid : int</text><line style="stroke: #A80036; stroke-width: 1.0;" x1="7" x2="147" y1="75.8359" y2="75.8359"/><text fill="#000000" font-family="sans-serif" font-size="11" lengthAdjust="spacingAndGlyphs" textLength="80" x="26" y="91.2549">adisabled : bit(1)</text><text fill="#000000" font-family="sans-serif" font-size="11" lengthAdjust="spacingAndGlyphs" textLength="116" x="26" y="105.0908">aimgpath : varchar(255)</text><ellipse cx="17" cy="115.9258" fill="#000000" rx="3" ry="3" style="stroke: #000000; stroke-width: 1.0;"/><text fill="#000000" font-family="sans-serif" font-size="11" lengthAdjust="spacingAndGlyphs" textLength="105" x="26" y="118.9268">aname : varchar(255)</text><ellipse cx="17" cy="129.7617" fill="#000000" rx="3" ry="3" style="stroke: #000000; stroke-width: 1.0;"/><text fill="#000000" font-family="sans-serif" font-size="11" lengthAdjust="spacingAndGlyphs" textLength="91" x="26" y="132.7627">aurl : varchar(255)</text><!--class users--><rect fill="#FEFECE" filter="url(#f1vivngd48b11d)" height="144.8516" id="users" style="stroke: #A80036; stroke-width: 1.5;" width="142" x="346" y="8"/><ellipse cx="396.75" cy="24" fill="#ADD1B2" rx="11" ry="11" style="stroke: #A80036; stroke-width: 1.0;"/><path d="M395.4688,22.6719 L399.9844,22.6719 L399.9844,24.625 L395.4688,24.625 L395.4688,28.9219 L400.7031,28.9219 L400.7031,30.8594 L393.25,30.8594 L393.25,17.2344 L400.375,17.2344 L400.375,19.1719 L395.4688,19.1719 L395.4688,22.6719 Z "/><text fill="#000000" font-family="sans-serif" font-size="12" lengthAdjust="spacingAndGlyphs" textLength="32" x="417.25" y="28.9102">users</text><line style="stroke: #A80036; stroke-width: 1.5;" x1="347" x2="487" y1="40" y2="40"/><ellipse cx="357" cy="52.418" fill="#000000" rx="3" ry="3" style="stroke: #000000; stroke-width: 1.0;"/><text fill="#000000" font-family="sans-serif" font-size="11" font-weight="bold" lengthAdjust="spacingAndGlyphs" textLength="40" x="366" y="55.4189">uid : int</text><line style="stroke: #A80036; stroke-width: 1.0;" x1="347" x2="487" y1="61.8359" y2="61.8359"/><text fill="#000000" font-family="sans-serif" font-size="11" lengthAdjust="spacingAndGlyphs" textLength="103" x="366" y="77.2549">udesc : varchar(255)</text><text fill="#000000" font-family="sans-serif" font-size="11" lengthAdjust="spacingAndGlyphs" textLength="80" x="366" y="91.0908">udisabled : bit(1)</text><text fill="#000000" font-family="sans-serif" font-size="11" lengthAdjust="spacingAndGlyphs" textLength="116" x="366" y="104.9268">uimgpath : varchar(255)</text><text fill="#000000" font-family="sans-serif" font-size="11" lengthAdjust="spacingAndGlyphs" textLength="97" x="366" y="118.7627">umail : varchar(255)</text><ellipse cx="357" cy="129.5977" fill="#000000" rx="3" ry="3" style="stroke: #000000; stroke-width: 1.0;"/><text fill="#000000" font-family="sans-serif" font-size="11" lengthAdjust="spacingAndGlyphs" textLength="105" x="366" y="132.5986">uname : varchar(255)</text><ellipse cx="357" cy="143.4336" fill="#000000" rx="3" ry="3" style="stroke: #000000; stroke-width: 1.0;"/><text fill="#000000" font-family="sans-serif" font-size="11" lengthAdjust="spacingAndGlyphs" textLength="103" x="366" y="146.4346">userid : varchar(255)</text><!--class tags--><rect fill="#FEFECE" filter="url(#f1vivngd48b11d)" height="75.6719" id="tags" style="stroke: #A80036; stroke-width: 1.5;" width="73" x="724.5" y="42.5"/><ellipse cx="747.15" cy="58.5" fill="#ADD1B2" rx="11" ry="11" style="stroke: #A80036; stroke-width: 1.0;"/><path d="M745.8688,57.1719 L750.3844,57.1719 L750.3844,59.125 L745.8688,59.125 L745.8688,63.4219 L751.1031,63.4219 L751.1031,65.3594 L743.65,65.3594 L743.65,51.7344 L750.775,51.7344 L750.775,53.6719 L745.8688,53.6719 L745.8688,57.1719 Z "/><text fill="#000000" font-family="sans-serif" font-size="12" lengthAdjust="spacingAndGlyphs" textLength="24" x="762.85" y="63.4102">tags</text><line style="stroke: #A80036; stroke-width: 1.5;" x1="725.5" x2="796.5" y1="74.5" y2="74.5"/><ellipse cx="735.5" cy="86.918" fill="#000000" rx="3" ry="3" style="stroke: #000000; stroke-width: 1.0;"/><text fill="#000000" font-family="sans-serif" font-size="11" font-weight="bold" lengthAdjust="spacingAndGlyphs" textLength="37" x="744.5" y="89.9189">tid : int</text><line style="stroke: #A80036; stroke-width: 1.0;" x1="725.5" x2="796.5" y1="96.3359" y2="96.3359"/><text fill="#000000" font-family="sans-serif" font-size="11" lengthAdjust="spacingAndGlyphs" textLength="61" x="730.5" y="111.7549">tname : int</text><!--class nortifications--><rect fill="#FEFECE" filter="url(#f1vivngd48b11d)" height="131.0156" id="nortifications" style="stroke: #A80036; stroke-width: 1.5;" width="130" x="159" y="220"/><ellipse cx="186.6" cy="236" fill="#ADD1B2" rx="11" ry="11" style="stroke: #A80036; stroke-width: 1.0;"/><path d="M185.3188,234.6719 L189.8344,234.6719 L189.8344,236.625 L185.3188,236.625 L185.3188,240.9219 L190.5531,240.9219 L190.5531,242.8594 L183.1,242.8594 L183.1,229.2344 L190.225,229.2344 L190.225,231.1719 L185.3188,231.1719 L185.3188,234.6719 Z "/><text fill="#000000" font-family="sans-serif" font-size="12" lengthAdjust="spacingAndGlyphs" textLength="70" x="203.4" y="240.9102">nortifications</text><line style="stroke: #A80036; stroke-width: 1.5;" x1="160" x2="288" y1="252" y2="252"/><ellipse cx="170" cy="264.418" fill="#000000" rx="3" ry="3" style="stroke: #000000; stroke-width: 1.0;"/><text fill="#000000" font-family="sans-serif" font-size="11" font-weight="bold" lengthAdjust="spacingAndGlyphs" textLength="40" x="179" y="267.4189">nid : int</text><line style="stroke: #A80036; stroke-width: 1.0;" x1="160" x2="288" y1="273.8359" y2="273.8359"/><text fill="#000000" font-family="sans-serif" font-size="11" lengthAdjust="spacingAndGlyphs" textLength="76" x="179" y="289.2549">ndate : datetime</text><text fill="#000000" font-family="sans-serif" font-size="11" lengthAdjust="spacingAndGlyphs" textLength="104" x="179" y="303.0908">ndetail : varchar(255)</text><text fill="#000000" font-family="sans-serif" font-size="11" lengthAdjust="spacingAndGlyphs" textLength="95" x="179" y="316.9268">ntitle : varchar(255)</text><text fill="#000000" font-family="sans-serif" font-size="11" lengthAdjust="spacingAndGlyphs" textLength="100" x="179" y="330.7627">ntype : varchar(255)</text><ellipse cx="170" cy="341.5977" fill="#000000" rx="3" ry="3" style="stroke: #000000; stroke-width: 1.0;"/><text fill="#000000" font-family="sans-serif" font-size="11" font-weight="bold" lengthAdjust="spacingAndGlyphs" textLength="68" x="179" y="344.5986">uid : int «FK»</text><!--class settings--><rect fill="#FEFECE" filter="url(#f1vivngd48b11d)" height="144.8516" id="settings" style="stroke: #A80036; stroke-width: 1.5;" width="186" x="324" y="213"/><ellipse cx="390.75" cy="229" fill="#ADD1B2" rx="11" ry="11" style="stroke: #A80036; stroke-width: 1.0;"/><path d="M389.4688,227.6719 L393.9844,227.6719 L393.9844,229.625 L389.4688,229.625 L389.4688,233.9219 L394.7031,233.9219 L394.7031,235.8594 L387.25,235.8594 L387.25,222.2344 L394.375,222.2344 L394.375,224.1719 L389.4688,224.1719 L389.4688,227.6719 Z "/><text fill="#000000" font-family="sans-serif" font-size="12" lengthAdjust="spacingAndGlyphs" textLength="44" x="411.25" y="233.9102">settings</text><line style="stroke: #A80036; stroke-width: 1.5;" x1="325" x2="509" y1="245" y2="245"/><ellipse cx="335" cy="257.418" fill="#000000" rx="3" ry="3" style="stroke: #000000; stroke-width: 1.0;"/><text fill="#000000" font-family="sans-serif" font-size="11" font-weight="bold" lengthAdjust="spacingAndGlyphs" textLength="40" x="344" y="260.4189">sid : int</text><line style="stroke: #A80036; stroke-width: 1.0;" x1="325" x2="509" y1="266.8359" y2="266.8359"/><text fill="#000000" font-family="sans-serif" font-size="11" lengthAdjust="spacingAndGlyphs" textLength="144" x="344" y="282.2549">accountsetting : varchar(255)</text><text fill="#000000" font-family="sans-serif" font-size="11" lengthAdjust="spacingAndGlyphs" textLength="160" x="344" y="296.0908">customizesetting1 : varchar(255)</text><text fill="#000000" font-family="sans-serif" font-size="11" lengthAdjust="spacingAndGlyphs" textLength="127" x="344" y="309.9268">norsetting1 : varchar(255)</text><text fill="#000000" font-family="sans-serif" font-size="11" lengthAdjust="spacingAndGlyphs" textLength="141" x="344" y="323.7627">profilesetting1 : varchar(255)</text><text fill="#000000" font-family="sans-serif" font-size="11" lengthAdjust="spacingAndGlyphs" textLength="92" x="344" y="337.5986">uservisibled : bit(1)</text><ellipse cx="335" cy="348.4336" fill="#000000" rx="3" ry="3" style="stroke: #000000; stroke-width: 1.0;"/><text fill="#000000" font-family="sans-serif" font-size="11" font-weight="bold" lengthAdjust="spacingAndGlyphs" textLength="68" x="344" y="351.4346">uid : int «FK»</text><!--class userapp--><rect fill="#FEFECE" filter="url(#f1vivngd48b11d)" height="75.6719" id="userapp" style="stroke: #A80036; stroke-width: 1.5;" width="94" x="30" y="247.5"/><ellipse cx="52.2" cy="263.5" fill="#ADD1B2" rx="11" ry="11" style="stroke: #A80036; stroke-width: 1.0;"/><path d="M50.9188,262.1719 L55.4344,262.1719 L55.4344,264.125 L50.9188,264.125 L50.9188,268.4219 L56.1531,268.4219 L56.1531,270.3594 L48.7,270.3594 L48.7,256.7344 L55.825,256.7344 L55.825,258.6719 L50.9188,258.6719 L50.9188,262.1719 Z "/><text fill="#000000" font-family="sans-serif" font-size="12" lengthAdjust="spacingAndGlyphs" textLength="46" x="67.8" y="268.4102">userapp</text><line style="stroke: #A80036; stroke-width: 1.5;" x1="31" x2="123" y1="279.5" y2="279.5"/><ellipse cx="41" cy="291.918" fill="#000000" rx="3" ry="3" style="stroke: #000000; stroke-width: 1.0;"/><text fill="#000000" font-family="sans-serif" font-size="11" font-weight="bold" lengthAdjust="spacingAndGlyphs" textLength="68" x="50" y="294.9189">uid : int «FK»</text><ellipse cx="41" cy="305.7539" fill="#000000" rx="3" ry="3" style="stroke: #000000; stroke-width: 1.0;"/><text fill="#000000" font-family="sans-serif" font-size="11" font-weight="bold" lengthAdjust="spacingAndGlyphs" textLength="67" x="50" y="308.7549">aid : int «FK»</text><line style="stroke: #A80036; stroke-width: 1.5;" x1="31" x2="123" y1="315.1719" y2="315.1719"/><!--class usertag--><rect fill="#FEFECE" filter="url(#f1vivngd48b11d)" height="75.6719" id="usertag" style="stroke: #A80036; stroke-width: 1.5;" width="94" x="714" y="247.5"/><ellipse cx="738" cy="263.5" fill="#ADD1B2" rx="11" ry="11" style="stroke: #A80036; stroke-width: 1.0;"/><path d="M736.7188,262.1719 L741.2344,262.1719 L741.2344,264.125 L736.7188,264.125 L736.7188,268.4219 L741.9531,268.4219 L741.9531,270.3594 L734.5,270.3594 L734.5,256.7344 L741.625,256.7344 L741.625,258.6719 L736.7188,258.6719 L736.7188,262.1719 Z "/><text fill="#000000" font-family="sans-serif" font-size="12" lengthAdjust="spacingAndGlyphs" textLength="42" x="754" y="268.4102">usertag</text><line style="stroke: #A80036; stroke-width: 1.5;" x1="715" x2="807" y1="279.5" y2="279.5"/><ellipse cx="725" cy="291.918" fill="#000000" rx="3" ry="3" style="stroke: #000000; stroke-width: 1.0;"/><text fill="#000000" font-family="sans-serif" font-size="11" font-weight="bold" lengthAdjust="spacingAndGlyphs" textLength="68" x="734" y="294.9189">uid : int «FK»</text><ellipse cx="725" cy="305.7539" fill="#000000" rx="3" ry="3" style="stroke: #000000; stroke-width: 1.0;"/><text fill="#000000" font-family="sans-serif" font-size="11" font-weight="bold" lengthAdjust="spacingAndGlyphs" textLength="65" x="734" y="308.7549">tid : int «FK»</text><line style="stroke: #A80036; stroke-width: 1.5;" x1="715" x2="807" y1="315.1719" y2="315.1719"/><!--class follow--><rect fill="#FEFECE" filter="url(#f1vivngd48b11d)" height="75.6719" id="follow" style="stroke: #A80036; stroke-width: 1.5;" width="133" x="545.5" y="247.5"/><ellipse cx="591.75" cy="263.5" fill="#ADD1B2" rx="11" ry="11" style="stroke: #A80036; stroke-width: 1.0;"/><path d="M590.4688,262.1719 L594.9844,262.1719 L594.9844,264.125 L590.4688,264.125 L590.4688,268.4219 L595.7031,268.4219 L595.7031,270.3594 L588.25,270.3594 L588.25,256.7344 L595.375,256.7344 L595.375,258.6719 L590.4688,258.6719 L590.4688,262.1719 Z "/><text fill="#000000" font-family="sans-serif" font-size="12" lengthAdjust="spacingAndGlyphs" textLength="32" x="612.25" y="268.4102">follow</text><line style="stroke: #A80036; stroke-width: 1.5;" x1="546.5" x2="677.5" y1="279.5" y2="279.5"/><ellipse cx="556.5" cy="291.918" fill="#000000" rx="3" ry="3" style="stroke: #000000; stroke-width: 1.0;"/><text fill="#000000" font-family="sans-serif" font-size="11" font-weight="bold" lengthAdjust="spacingAndGlyphs" textLength="95" x="565.5" y="294.9189">followid : int «FK»</text><ellipse cx="556.5" cy="305.7539" fill="#000000" rx="3" ry="3" style="stroke: #000000; stroke-width: 1.0;"/><text fill="#000000" font-family="sans-serif" font-size="11" font-weight="bold" lengthAdjust="spacingAndGlyphs" textLength="107" x="565.5" y="308.7549">followerid : int «FK»</text><line style="stroke: #A80036; stroke-width: 1.5;" x1="546.5" x2="677.5" y1="315.1719" y2="315.1719"/><!--link apps to userapp--><path d="M77,147.406 C77,177.389 77,212.118 77,239.119 " fill="none" id="apps-userapp" style="stroke: #A80036; stroke-width: 1.0;"/><line style="stroke: #A80036; stroke-width: 1.0;" x1="77" x2="83" y1="239.237" y2="247.237"/><line style="stroke: #A80036; stroke-width: 1.0;" x1="77" x2="71" y1="239.237" y2="247.237"/><line style="stroke: #A80036; stroke-width: 1.0;" x1="77" x2="77" y1="239.237" y2="247.237"/><ellipse cx="77" cy="233.237" fill="none" rx="4" ry="4" style="stroke: #A80036; stroke-width: 1.0;"/><line style="stroke: #A80036; stroke-width: 1.0;" x1="73" x2="81" y1="143.129" y2="143.129"/><line style="stroke: #A80036; stroke-width: 1.0;" x1="73" x2="81" y1="146.129" y2="146.129"/><line style="stroke: #A80036; stroke-width: 1.0;" x1="77" x2="77" y1="147.129" y2="139.129"/><!--link users to userapp--><path d="M338.172,109.347 C280.314,132.011 201.588,167.639 141,213 C130.287,221.02 119.996,231.047 110.917,241.032 " fill="none" id="users-userapp" style="stroke: #A80036; stroke-width: 1.0;"/><line style="stroke: #A80036; stroke-width: 1.0;" x1="110.7346" x2="109.9167" y1="241.239" y2="251.2055"/><line style="stroke: #A80036; stroke-width: 1.0;" x1="110.7346" x2="100.9377" y1="241.239" y2="243.2445"/><line style="stroke: #A80036; stroke-width: 1.0;" x1="110.7346" x2="105.4272" y1="241.239" y2="247.225"/><ellipse cx="114.7151" cy="236.7496" fill="none" rx="4" ry="4" style="stroke: #A80036; stroke-width: 1.0;"/><line style="stroke: #A80036; stroke-width: 1.0;" x1="340.6599" x2="343.554" y1="104.092" y2="111.5501"/><line style="stroke: #A80036; stroke-width: 1.0;" x1="337.8631" x2="340.7572" y1="105.1773" y2="112.6354"/><line style="stroke: #A80036; stroke-width: 1.0;" x1="338.3778" x2="345.836" y1="109.2681" y2="106.374"/><!--link tags to usertag--><path d="M761,127.159 C761,160.533 761,205.6 761,238.948 " fill="none" id="tags-usertag" style="stroke: #A80036; stroke-width: 1.0;"/><line style="stroke: #A80036; stroke-width: 1.0;" x1="761" x2="767" y1="239.16" y2="247.16"/><line style="stroke: #A80036; stroke-width: 1.0;" x1="761" x2="755" y1="239.16" y2="247.16"/><line style="stroke: #A80036; stroke-width: 1.0;" x1="761" x2="761" y1="239.16" y2="247.16"/><ellipse cx="761" cy="233.16" fill="none" rx="4" ry="4" style="stroke: #A80036; stroke-width: 1.0;"/><line style="stroke: #A80036; stroke-width: 1.0;" x1="757" x2="765" y1="122.733" y2="122.733"/><line style="stroke: #A80036; stroke-width: 1.0;" x1="757" x2="765" y1="125.733" y2="125.733"/><line style="stroke: #A80036; stroke-width: 1.0;" x1="761" x2="761" y1="126.733" y2="118.733"/><!--link users to usertag--><path d="M496.009,109.098 C554.505,131.738 634.398,167.448 696,213 C706.835,221.012 717.271,231.036 726.49,241.02 " fill="none" id="users-usertag" style="stroke: #A80036; stroke-width: 1.0;"/><line style="stroke: #A80036; stroke-width: 1.0;" x1="726.7133" x2="736.5251" y1="241.2675" y2="243.1985"/><line style="stroke: #A80036; stroke-width: 1.0;" x1="726.7133" x2="727.6069" y1="241.2675" y2="251.2275"/><line style="stroke: #A80036; stroke-width: 1.0;" x1="726.7133" x2="732.066" y1="241.2675" y2="247.213"/><ellipse cx="722.6988" cy="236.8084" fill="none" rx="4" ry="4" style="stroke: #A80036; stroke-width: 1.0;"/><line style="stroke: #A80036; stroke-width: 1.0;" x1="490.5658" x2="493.4299" y1="111.2939" y2="103.8242"/><line style="stroke: #A80036; stroke-width: 1.0;" x1="493.3669" x2="496.2311" y1="112.368" y2="104.8983"/><line style="stroke: #A80036; stroke-width: 1.0;" x1="495.7327" x2="488.263" y1="108.9912" y2="106.127"/><!--link users to nortifications--><path d="M343.355,158.961 C326.242,176.961 308.111,196.031 291.288,213.725 " fill="none" id="users-nortifications" style="stroke: #A80036; stroke-width: 1.0;"/><line style="stroke: #A80036; stroke-width: 1.0;" x1="291.1475" x2="289.985" y1="213.8714" y2="223.8036"/><line style="stroke: #A80036; stroke-width: 1.0;" x1="291.1475" x2="281.287" y1="213.8714" y2="215.5364"/><line style="stroke: #A80036; stroke-width: 1.0;" x1="291.1475" x2="285.636" y1="213.8714" y2="219.67"/><ellipse cx="295.2811" cy="209.5224" fill="none" rx="4" ry="4" style="stroke: #A80036; stroke-width: 1.0;"/><line style="stroke: #A80036; stroke-width: 1.0;" x1="343.3" x2="349.0979" y1="153.2129" y2="158.725"/><line style="stroke: #A80036; stroke-width: 1.0;" x1="341.2329" x2="347.0308" y1="155.3871" y2="160.8993"/><line style="stroke: #A80036; stroke-width: 1.0;" x1="343.4428" x2="348.955" y1="158.8679" y2="153.07"/><!--link users to settings--><path d="M417,161.343 C417,175.562 417,190.376 417,204.596 " fill="none" id="users-settings" style="stroke: #A80036; stroke-width: 1.0;"/><line style="stroke: #A80036; stroke-width: 1.0;" x1="417" x2="423" y1="204.892" y2="212.892"/><line style="stroke: #A80036; stroke-width: 1.0;" x1="417" x2="411" y1="204.892" y2="212.892"/><line style="stroke: #A80036; stroke-width: 1.0;" x1="417" x2="417" y1="204.892" y2="212.892"/><ellipse cx="417" cy="198.892" fill="none" rx="4" ry="4" style="stroke: #A80036; stroke-width: 1.0;"/><line style="stroke: #A80036; stroke-width: 1.0;" x1="413" x2="421" y1="157.07" y2="157.07"/><line style="stroke: #A80036; stroke-width: 1.0;" x1="413" x2="421" y1="160.07" y2="160.07"/><line style="stroke: #A80036; stroke-width: 1.0;" x1="417" x2="417" y1="161.07" y2="153.07"/><!--link users to follow--><path d="M491.531,159.089 C518.373,187.032 547.678,217.539 570.664,241.468 " fill="none" id="users-follow" style="stroke: #A80036; stroke-width: 1.0;"/><line style="stroke: #A80036; stroke-width: 1.0;" x1="570.8239" x2="580.693" y1="241.6347" y2="243.2474"/><line style="stroke: #A80036; stroke-width: 1.0;" x1="570.8239" x2="572.039" y1="241.6347" y2="251.5606"/><line style="stroke: #A80036; stroke-width: 1.0;" x1="570.8239" x2="576.366" y1="241.6347" y2="247.404"/><ellipse cx="566.6673" cy="237.3077" fill="none" rx="4" ry="4" style="stroke: #A80036; stroke-width: 1.0;"/><line style="stroke: #A80036; stroke-width: 1.0;" x1="485.6357" x2="491.4057" y1="158.7257" y2="153.1843"/><line style="stroke: #A80036; stroke-width: 1.0;" x1="487.7137" x2="493.4837" y1="160.8894" y2="155.348"/><line style="stroke: #A80036; stroke-width: 1.0;" x1="491.2914" x2="485.75" y1="158.84" y2="153.07"/><!--
@startuml
entity apps {
	* **aid : int**
	- - -
	adisabled : bit(1)
	aimgpath : varchar(255) 
	* aname : varchar(255)
	* aurl : varchar(255)
}
entity users{
	* **uid : int**
	- - -
	udesc : varchar(255)
	udisabled : bit(1)
	uimgpath : varchar(255)
	umail : varchar(255)
	* uname : varchar(255)
	* userid : varchar(255)
}
entity tags{
	* **tid : int**
	- - -
	tname : int
}
entity nortifications{
	* **nid : int**
	- - -
	ndate : datetime
	ndetail : varchar(255)
	ntitle : varchar(255)
	ntype : varchar(255)
	* **uid : int <<FK>>**
}
entity settings{
	* **sid : int**
	- - -
	accountsetting : varchar(255)
	customizesetting1 : varchar(255)
	norsetting1 : varchar(255)
	profilesetting1 : varchar(255)
	uservisibled : bit(1)
	* **uid : int <<FK>>**
}
entity userapp{
	* **uid : int <<FK>>**
	* **aid : int <<FK>>**
}
entity usertag{
	* **uid : int <<FK>>**
	* **tid : int <<FK>>**
}
entity follow{
	* **followid : int <<FK>>**
	* **followerid : int <<FK>>**
}
apps ||- -o{ userapp
users ||- -o{ userapp
tags  ||- -o{ usertag
users  ||- -o{ usertag
users  ||- -o{ nortifications
users  ||- -o{ settings
users ||- -o{ follow
@enduml

PlantUML version 1.2019.06(Sat May 25 02:10:25 JST 2019)
(GPL source distribution)
Java Runtime: OpenJDK Runtime Environment
JVM: OpenJDK 64-Bit Server VM
Java Version: 14.0.1+7
Operating System: Windows 10
OS Version: 10.0
Default Encoding: MS932
Language: ja
Country: JP
--></g></svg>