<?xml version="1.0" encoding="UTF-8" standalone="no"?><svg xmlns="http://www.w3.org/2000/svg" xmlns:xlink="http://www.w3.org/1999/xlink" contentScriptType="application/ecmascript" contentStyleType="text/css" height="961px" preserveAspectRatio="none" style="width:681px;height:961px;" version="1.1" viewBox="0 0 681 961" width="681px" zoomAndPan="magnify"><defs><filter height="300%" id="f60y9l96wqvgo" width="300%" x="-1" y="-1"><feGaussianBlur result="blurOut" stdDeviation="2.0"/><feColorMatrix in="blurOut" result="blurOut2" type="matrix" values="0 0 0 0 0 0 0 0 0 0 0 0 0 0 0 0 0 0 .4 0"/><feOffset dx="4.0" dy="4.0" in="blurOut2" result="blurOut3"/><feBlend in="SourceGraphic" in2="blurOut3" mode="normal"/></filter></defs><g><!--cluster User--><polygon fill="#FFFFFF" filter="url(#f60y9l96wqvgo)" points="22,60,61,60,68,83.6094,659,83.6094,659,949,22,949,22,60" style="stroke: #000000; stroke-width: 1.5;"/><line style="stroke: #000000; stroke-width: 1.5;" x1="22" x2="68" y1="83.6094" y2="83.6094"/><text fill="#000000" font-family="sans-serif" font-size="14" font-weight="bold" lengthAdjust="spacingAndGlyphs" textLength="33" x="26" y="76.5332">User</text><!--cluster UILayer--><rect fill="#FFFFFF" filter="url(#f60y9l96wqvgo)" height="100" style="stroke: #000000; stroke-width: 1.5;" width="150" x="446" y="118"/><text fill="#000000" font-family="sans-serif" font-size="14" font-weight="bold" lengthAdjust="spacingAndGlyphs" textLength="52" x="495" y="134.5332">UILayer</text><!--cluster AppLayer--><rect fill="#FFFFFF" filter="url(#f60y9l96wqvgo)" height="128" style="stroke: #000000; stroke-width: 1.5;" width="337" x="85" y="104"/><text fill="#000000" font-family="sans-serif" font-size="14" font-weight="bold" lengthAdjust="spacingAndGlyphs" textLength="65" x="221" y="120.5332">AppLayer</text><!--cluster DomainLayer--><rect fill="#FFFFFF" filter="url(#f60y9l96wqvgo)" height="515" style="stroke: #000000; stroke-width: 1.5;" width="446" x="181" y="264"/><text fill="#000000" font-family="sans-serif" font-size="14" font-weight="bold" lengthAdjust="spacingAndGlyphs" textLength="90" x="359" y="280.5332">DomainLayer</text><!--cluster InfrastructureLayer--><rect fill="#FFFFFF" filter="url(#f60y9l96wqvgo)" height="114" style="stroke: #000000; stroke-width: 1.5;" width="362" x="256" y="811"/><text fill="#000000" font-family="sans-serif" font-size="14" font-weight="bold" lengthAdjust="spacingAndGlyphs" textLength="135" x="369.5" y="827.5332">InfrastructureLayer</text><!--class UserAppConfig--><rect fill="#FEFECE" filter="url(#f60y9l96wqvgo)" height="48" id="UserAppConfig" style="stroke: #A80036; stroke-width: 1.5;" width="116" x="38" y="370.5"/><ellipse cx="53" cy="386.5" fill="#ADD1B2" rx="11" ry="11" style="stroke: #A80036; stroke-width: 1.0;"/><path d="M55.7031,391.9375 Q54.7813,392.8594 52.5156,392.8594 Q51.25,392.8594 50.3281,391.9375 Q48.6719,390.2813 48.6719,386.75 Q48.6719,382.6406 50.4531,380.8438 Q51.3906,379.9219 52.5781,379.9219 Q54.8438,379.9219 55.5781,380.6406 Q56.9688,382.0469 56.9063,384.4375 L54.4375,384.4375 Q54.375,382.3125 53.6406,381.5781 Q53.25,381.1719 52.5781,381.1719 Q52.5781,381.1719 52.5156,381.6406 Q51.1875,382.9688 51.1875,386.625 Q51.1875,389.8125 52.3281,390.9375 Q52.8594,391.4688 52.8594,391.4688 Q53.1094,391.4688 53.6406,390.9375 Q54.3125,390.2813 54.375,387.8906 L56.9688,387.8906 Q56.7656,390.875 55.7031,391.9375 Z "/><text fill="#000000" font-family="sans-serif" font-size="12" lengthAdjust="spacingAndGlyphs" textLength="84" x="67" y="391.4102">UserAppConfig</text><line style="stroke: #A80036; stroke-width: 1.5;" x1="39" x2="153" y1="402.5" y2="402.5"/><line style="stroke: #A80036; stroke-width: 1.5;" x1="39" x2="153" y1="410.5" y2="410.5"/><!--class UserViewModel--><rect fill="#FEFECE" filter="url(#f60y9l96wqvgo)" height="48" id="UserViewModel" style="stroke: #A80036; stroke-width: 1.5;" width="118" x="462" y="154"/><ellipse cx="477" cy="170" fill="#ADD1B2" rx="11" ry="11" style="stroke: #A80036; stroke-width: 1.0;"/><path d="M479.7031,175.4375 Q478.7813,176.3594 476.5156,176.3594 Q475.25,176.3594 474.3281,175.4375 Q472.6719,173.7813 472.6719,170.25 Q472.6719,166.1406 474.4531,164.3438 Q475.3906,163.4219 476.5781,163.4219 Q478.8438,163.4219 479.5781,164.1406 Q480.9688,165.5469 480.9063,167.9375 L478.4375,167.9375 Q478.375,165.8125 477.6406,165.0781 Q477.25,164.6719 476.5781,164.6719 Q476.5781,164.6719 476.5156,165.1406 Q475.1875,166.4688 475.1875,170.125 Q475.1875,173.3125 476.3281,174.4375 Q476.8594,174.9688 476.8594,174.9688 Q477.1094,174.9688 477.6406,174.4375 Q478.3125,173.7813 478.375,171.3906 L480.9688,171.3906 Q480.7656,174.375 479.7031,175.4375 Z "/><text fill="#000000" font-family="sans-serif" font-size="12" lengthAdjust="spacingAndGlyphs" textLength="86" x="491" y="174.9102">UserViewModel</text><line style="stroke: #A80036; stroke-width: 1.5;" x1="463" x2="579" y1="186" y2="186"/><line style="stroke: #A80036; stroke-width: 1.5;" x1="463" x2="579" y1="194" y2="194"/><!--class UserController--><rect fill="#FEFECE" filter="url(#f60y9l96wqvgo)" height="75.6719" id="UserController" style="stroke: #A80036; stroke-width: 1.5;" width="173" x="101.5" y="140"/><ellipse cx="143.5" cy="156" fill="#ADD1B2" rx="11" ry="11" style="stroke: #A80036; stroke-width: 1.0;"/><path d="M146.2031,161.4375 Q145.2813,162.3594 143.0156,162.3594 Q141.75,162.3594 140.8281,161.4375 Q139.1719,159.7813 139.1719,156.25 Q139.1719,152.1406 140.9531,150.3438 Q141.8906,149.4219 143.0781,149.4219 Q145.3438,149.4219 146.0781,150.1406 Q147.4688,151.5469 147.4063,153.9375 L144.9375,153.9375 Q144.875,151.8125 144.1406,151.0781 Q143.75,150.6719 143.0781,150.6719 Q143.0781,150.6719 143.0156,151.1406 Q141.6875,152.4688 141.6875,156.125 Q141.6875,159.3125 142.8281,160.4375 Q143.3594,160.9688 143.3594,160.9688 Q143.6094,160.9688 144.1406,160.4375 Q144.8125,159.7813 144.875,157.3906 L147.4688,157.3906 Q147.2656,160.375 146.2031,161.4375 Z "/><text fill="#000000" font-family="sans-serif" font-size="12" lengthAdjust="spacingAndGlyphs" textLength="81" x="163.5" y="160.9102">UserController</text><line style="stroke: #A80036; stroke-width: 1.5;" x1="102.5" x2="273.5" y1="172" y2="172"/><rect fill="none" height="6" style="stroke: #C82930; stroke-width: 1.0;" width="6" x="109.5" y="181.418"/><text fill="#000000" font-family="sans-serif" font-size="11" lengthAdjust="spacingAndGlyphs" textLength="129" x="121.5" y="187.4189">UserServiceIF userservice</text><line style="stroke: #A80036; stroke-width: 1.5;" x1="102.5" x2="273.5" y1="193.8359" y2="193.8359"/><ellipse cx="112.5" cy="206.2539" fill="#84BE84" rx="3" ry="3" style="stroke: #038048; stroke-width: 1.0;"/><text fill="#000000" font-family="sans-serif" font-size="11" lengthAdjust="spacingAndGlyphs" textLength="147" x="121.5" y="209.2549">ModelAndView getUserPage()</text><!--class UserHelper--><rect fill="#FEFECE" filter="url(#f60y9l96wqvgo)" height="48" id="UserHelper" style="stroke: #A80036; stroke-width: 1.5;" width="96" x="310" y="154"/><ellipse cx="325" cy="170" fill="#ADD1B2" rx="11" ry="11" style="stroke: #A80036; stroke-width: 1.0;"/><path d="M327.7031,175.4375 Q326.7813,176.3594 324.5156,176.3594 Q323.25,176.3594 322.3281,175.4375 Q320.6719,173.7813 320.6719,170.25 Q320.6719,166.1406 322.4531,164.3438 Q323.3906,163.4219 324.5781,163.4219 Q326.8438,163.4219 327.5781,164.1406 Q328.9688,165.5469 328.9063,167.9375 L326.4375,167.9375 Q326.375,165.8125 325.6406,165.0781 Q325.25,164.6719 324.5781,164.6719 Q324.5781,164.6719 324.5156,165.1406 Q323.1875,166.4688 323.1875,170.125 Q323.1875,173.3125 324.3281,174.4375 Q324.8594,174.9688 324.8594,174.9688 Q325.1094,174.9688 325.6406,174.4375 Q326.3125,173.7813 326.375,171.3906 L328.9688,171.3906 Q328.7656,174.375 327.7031,175.4375 Z "/><text fill="#000000" font-family="sans-serif" font-size="12" lengthAdjust="spacingAndGlyphs" textLength="64" x="339" y="174.9102">UserHelper</text><line style="stroke: #A80036; stroke-width: 1.5;" x1="311" x2="405" y1="186" y2="186"/><line style="stroke: #A80036; stroke-width: 1.5;" x1="311" x2="405" y1="194" y2="194"/><!--class UserServiceIF--><rect fill="#FEFECE" filter="url(#f60y9l96wqvgo)" height="144.8516" id="UserServiceIF" style="stroke: #A80036; stroke-width: 1.5;" width="157" x="224.5" y="322"/><ellipse cx="260.65" cy="338" fill="#B4A7E5" rx="11" ry="11" style="stroke: #A80036; stroke-width: 1.0;"/><path d="M261.6344,342.9063 L262.3688,342.9063 L262.3688,344.3594 L258.3688,344.3594 L258.3688,342.9063 L259.1031,342.9063 L259.1031,332.875 L258.3688,332.875 L258.3688,331.4219 L262.3688,331.4219 L262.3688,332.875 L261.6344,332.875 L261.6344,342.9063 Z "/><text fill="#000000" font-family="sans-serif" font-size="12" font-style="italic" lengthAdjust="spacingAndGlyphs" textLength="78" x="279.35" y="342.9102">UserServiceIF</text><line style="stroke: #A80036; stroke-width: 1.5;" x1="225.5" x2="380.5" y1="354" y2="354"/><line style="stroke: #A80036; stroke-width: 1.5;" x1="225.5" x2="380.5" y1="362" y2="362"/><ellipse cx="235.5" cy="374.418" fill="#84BE84" rx="3" ry="3" style="stroke: #038048; stroke-width: 1.0;"/><text fill="#000000" font-family="sans-serif" font-size="11" lengthAdjust="spacingAndGlyphs" textLength="69" x="244.5" y="377.4189">void getUser()</text><ellipse cx="235.5" cy="388.2539" fill="#84BE84" rx="3" ry="3" style="stroke: #038048; stroke-width: 1.0;"/><text fill="#000000" font-family="sans-serif" font-size="11" lengthAdjust="spacingAndGlyphs" textLength="104" x="244.5" y="391.2549">String getUserName()</text><ellipse cx="235.5" cy="402.0898" fill="#84BE84" rx="3" ry="3" style="stroke: #038048; stroke-width: 1.0;"/><text fill="#000000" font-family="sans-serif" font-size="11" lengthAdjust="spacingAndGlyphs" textLength="125" x="244.5" y="405.0908">boolean getUserEnabled()</text><ellipse cx="235.5" cy="415.9258" fill="#84BE84" rx="3" ry="3" style="stroke: #038048; stroke-width: 1.0;"/><text fill="#000000" font-family="sans-serif" font-size="11" lengthAdjust="spacingAndGlyphs" textLength="131" x="244.5" y="418.9268">String getUserMailAddres()</text><ellipse cx="235.5" cy="429.7617" fill="#84BE84" rx="3" ry="3" style="stroke: #038048; stroke-width: 1.0;"/><text fill="#000000" font-family="sans-serif" font-size="11" lengthAdjust="spacingAndGlyphs" textLength="131" x="244.5" y="432.7627">String getUserDescription()</text><ellipse cx="235.5" cy="443.5977" fill="#84BE84" rx="3" ry="3" style="stroke: #038048; stroke-width: 1.0;"/><text fill="#000000" font-family="sans-serif" font-size="11" lengthAdjust="spacingAndGlyphs" textLength="105" x="244.5" y="446.5986">String getUserImage()</text><ellipse cx="235.5" cy="457.4336" fill="#84BE84" rx="3" ry="3" style="stroke: #038048; stroke-width: 1.0;"/><text fill="#000000" font-family="sans-serif" font-size="11" lengthAdjust="spacingAndGlyphs" textLength="96" x="244.5" y="460.4346">boolean getVisible()</text><!--class UserServiceImpl--><rect fill="#FEFECE" filter="url(#f60y9l96wqvgo)" height="172.5234" id="UserServiceImpl" style="stroke: #A80036; stroke-width: 1.5;" width="186" x="417" y="308"/><ellipse cx="460.35" cy="324" fill="#ADD1B2" rx="11" ry="11" style="stroke: #A80036; stroke-width: 1.0;"/><path d="M463.0531,329.4375 Q462.1313,330.3594 459.8656,330.3594 Q458.6,330.3594 457.6781,329.4375 Q456.0219,327.7813 456.0219,324.25 Q456.0219,320.1406 457.8031,318.3438 Q458.7406,317.4219 459.9281,317.4219 Q462.1938,317.4219 462.9281,318.1406 Q464.3188,319.5469 464.2563,321.9375 L461.7875,321.9375 Q461.725,319.8125 460.9906,319.0781 Q460.6,318.6719 459.9281,318.6719 Q459.9281,318.6719 459.8656,319.1406 Q458.5375,320.4688 458.5375,324.125 Q458.5375,327.3125 459.6781,328.4375 Q460.2094,328.9688 460.2094,328.9688 Q460.4594,328.9688 460.9906,328.4375 Q461.6625,327.7813 461.725,325.3906 L464.3188,325.3906 Q464.1156,328.375 463.0531,329.4375 Z "/><text fill="#000000" font-family="sans-serif" font-size="12" lengthAdjust="spacingAndGlyphs" textLength="91" x="480.65" y="328.9102">UserServiceImpl</text><line style="stroke: #A80036; stroke-width: 1.5;" x1="418" x2="602" y1="340" y2="340"/><rect fill="none" height="6" style="stroke: #C82930; stroke-width: 1.0;" width="6" x="425" y="349.418"/><text fill="#000000" font-family="sans-serif" font-size="11" lengthAdjust="spacingAndGlyphs" textLength="83" x="437" y="355.4189">UserDomain user</text><rect fill="none" height="6" style="stroke: #C82930; stroke-width: 1.0;" width="6" x="425" y="363.2539"/><text fill="#000000" font-family="sans-serif" font-size="11" lengthAdjust="spacingAndGlyphs" textLength="160" x="437" y="369.2549">UserRepositoryIF userRepository</text><line style="stroke: #A80036; stroke-width: 1.5;" x1="418" x2="602" y1="375.6719" y2="375.6719"/><ellipse cx="428" cy="388.0898" fill="#84BE84" rx="3" ry="3" style="stroke: #038048; stroke-width: 1.0;"/><text fill="#000000" font-family="sans-serif" font-size="11" lengthAdjust="spacingAndGlyphs" textLength="69" x="437" y="391.0908">void getUser()</text><ellipse cx="428" cy="401.9258" fill="#84BE84" rx="3" ry="3" style="stroke: #038048; stroke-width: 1.0;"/><text fill="#000000" font-family="sans-serif" font-size="11" lengthAdjust="spacingAndGlyphs" textLength="104" x="437" y="404.9268">String getUserName()</text><ellipse cx="428" cy="415.7617" fill="#84BE84" rx="3" ry="3" style="stroke: #038048; stroke-width: 1.0;"/><text fill="#000000" font-family="sans-serif" font-size="11" lengthAdjust="spacingAndGlyphs" textLength="125" x="437" y="418.7627">boolean getUserEnabled()</text><ellipse cx="428" cy="429.5977" fill="#84BE84" rx="3" ry="3" style="stroke: #038048; stroke-width: 1.0;"/><text fill="#000000" font-family="sans-serif" font-size="11" lengthAdjust="spacingAndGlyphs" textLength="131" x="437" y="432.5986">String getUserMailAddres()</text><ellipse cx="428" cy="443.4336" fill="#84BE84" rx="3" ry="3" style="stroke: #038048; stroke-width: 1.0;"/><text fill="#000000" font-family="sans-serif" font-size="11" lengthAdjust="spacingAndGlyphs" textLength="131" x="437" y="446.4346">String getUserDescription()</text><ellipse cx="428" cy="457.2695" fill="#84BE84" rx="3" ry="3" style="stroke: #038048; stroke-width: 1.0;"/><text fill="#000000" font-family="sans-serif" font-size="11" lengthAdjust="spacingAndGlyphs" textLength="105" x="437" y="460.2705">String getUserImage()</text><ellipse cx="428" cy="471.1055" fill="#84BE84" rx="3" ry="3" style="stroke: #038048; stroke-width: 1.0;"/><text fill="#000000" font-family="sans-serif" font-size="11" lengthAdjust="spacingAndGlyphs" textLength="96" x="437" y="474.1064">boolean getVisible()</text><!--class UserDomain--><rect fill="#FEFECE" filter="url(#f60y9l96wqvgo)" height="214.0313" id="UserDomain" style="stroke: #A80036; stroke-width: 1.5;" width="133" x="262.5" y="541"/><ellipse cx="291" cy="557" fill="#ADD1B2" rx="11" ry="11" style="stroke: #A80036; stroke-width: 1.0;"/><path d="M293.7031,562.4375 Q292.7813,563.3594 290.5156,563.3594 Q289.25,563.3594 288.3281,562.4375 Q286.6719,560.7813 286.6719,557.25 Q286.6719,553.1406 288.4531,551.3438 Q289.3906,550.4219 290.5781,550.4219 Q292.8438,550.4219 293.5781,551.1406 Q294.9688,552.5469 294.9063,554.9375 L292.4375,554.9375 Q292.375,552.8125 291.6406,552.0781 Q291.25,551.6719 290.5781,551.6719 Q290.5781,551.6719 290.5156,552.1406 Q289.1875,553.4688 289.1875,557.125 Q289.1875,560.3125 290.3281,561.4375 Q290.8594,561.9688 290.8594,561.9688 Q291.1094,561.9688 291.6406,561.4375 Q292.3125,560.7813 292.375,558.3906 L294.9688,558.3906 Q294.7656,561.375 293.7031,562.4375 Z "/><text fill="#000000" font-family="sans-serif" font-size="12" lengthAdjust="spacingAndGlyphs" textLength="71" x="308" y="561.9102">UserDomain</text><line style="stroke: #A80036; stroke-width: 1.5;" x1="263.5" x2="394.5" y1="573" y2="573"/><rect fill="none" height="6" style="stroke: #C82930; stroke-width: 1.0;" width="6" x="270.5" y="582.418"/><text fill="#000000" font-family="sans-serif" font-size="11" lengthAdjust="spacingAndGlyphs" textLength="28" x="282.5" y="588.4189">int uId</text><rect fill="none" height="6" style="stroke: #C82930; stroke-width: 1.0;" width="6" x="270.5" y="596.2539"/><text fill="#000000" font-family="sans-serif" font-size="11" lengthAdjust="spacingAndGlyphs" textLength="101" x="282.5" y="602.2549">boolean userEnabled</text><rect fill="none" height="6" style="stroke: #C82930; stroke-width: 1.0;" width="6" x="270.5" y="610.0898"/><text fill="#000000" font-family="sans-serif" font-size="11" lengthAdjust="spacingAndGlyphs" textLength="61" x="282.5" y="616.0908">String userId</text><rect fill="none" height="6" style="stroke: #C82930; stroke-width: 1.0;" width="6" x="270.5" y="623.9258"/><text fill="#000000" font-family="sans-serif" font-size="11" lengthAdjust="spacingAndGlyphs" textLength="80" x="282.5" y="629.9268">String userName</text><rect fill="none" height="6" style="stroke: #C82930; stroke-width: 1.0;" width="6" x="270.5" y="637.7617"/><text fill="#000000" font-family="sans-serif" font-size="11" lengthAdjust="spacingAndGlyphs" textLength="107" x="282.5" y="643.7627">String userMailAddres</text><rect fill="none" height="6" style="stroke: #C82930; stroke-width: 1.0;" width="6" x="270.5" y="651.5977"/><text fill="#000000" font-family="sans-serif" font-size="11" lengthAdjust="spacingAndGlyphs" textLength="107" x="282.5" y="657.5986">String userDescription</text><rect fill="none" height="6" style="stroke: #C82930; stroke-width: 1.0;" width="6" x="270.5" y="665.4336"/><text fill="#000000" font-family="sans-serif" font-size="11" lengthAdjust="spacingAndGlyphs" textLength="81" x="282.5" y="671.4346">String userImage</text><rect fill="none" height="6" style="stroke: #C82930; stroke-width: 1.0;" width="6" x="270.5" y="679.2695"/><text fill="#000000" font-family="sans-serif" font-size="11" lengthAdjust="spacingAndGlyphs" textLength="52" x="282.5" y="685.2705">int[] tagList</text><rect fill="none" height="6" style="stroke: #C82930; stroke-width: 1.0;" width="6" x="270.5" y="693.1055"/><text fill="#000000" font-family="sans-serif" font-size="11" lengthAdjust="spacingAndGlyphs" textLength="67" x="282.5" y="699.1064">int[] followList</text><rect fill="none" height="6" style="stroke: #C82930; stroke-width: 1.0;" width="6" x="270.5" y="706.9414"/><text fill="#000000" font-family="sans-serif" font-size="11" lengthAdjust="spacingAndGlyphs" textLength="77" x="282.5" y="712.9424">int[] followerList</text><rect fill="none" height="6" style="stroke: #C82930; stroke-width: 1.0;" width="6" x="270.5" y="720.7773"/><text fill="#000000" font-family="sans-serif" font-size="11" lengthAdjust="spacingAndGlyphs" textLength="71" x="282.5" y="726.7783">boolean visible</text><rect fill="none" height="6" style="stroke: #C82930; stroke-width: 1.0;" width="6" x="270.5" y="734.6133"/><text fill="#000000" font-family="sans-serif" font-size="11" lengthAdjust="spacingAndGlyphs" textLength="102" x="282.5" y="740.6143">String designSettings</text><line style="stroke: #A80036; stroke-width: 1.5;" x1="263.5" x2="394.5" y1="747.0313" y2="747.0313"/><!--class UserRepositoryIF--><rect fill="#FEFECE" filter="url(#f60y9l96wqvgo)" height="61.8359" id="UserRepositoryIF" style="stroke: #A80036; stroke-width: 1.5;" width="147" x="272.5" y="847"/><ellipse cx="296.05" cy="863" fill="#B4A7E5" rx="11" ry="11" style="stroke: #A80036; stroke-width: 1.0;"/><path d="M297.0344,867.9063 L297.7688,867.9063 L297.7688,869.3594 L293.7688,869.3594 L293.7688,867.9063 L294.5031,867.9063 L294.5031,857.875 L293.7688,857.875 L293.7688,856.4219 L297.7688,856.4219 L297.7688,857.875 L297.0344,857.875 L297.0344,867.9063 Z "/><text fill="#000000" font-family="sans-serif" font-size="12" font-style="italic" lengthAdjust="spacingAndGlyphs" textLength="96" x="311.95" y="867.9102">UserRepositoryIF</text><line style="stroke: #A80036; stroke-width: 1.5;" x1="273.5" x2="418.5" y1="879" y2="879"/><line style="stroke: #A80036; stroke-width: 1.5;" x1="273.5" x2="418.5" y1="887" y2="887"/><ellipse cx="283.5" cy="899.418" fill="#84BE84" rx="3" ry="3" style="stroke: #038048; stroke-width: 1.0;"/><text fill="#000000" font-family="sans-serif" font-size="11" lengthAdjust="spacingAndGlyphs" textLength="121" x="292.5" y="902.4189">UserDomain selectUser()</text><!--class UserRepositoryImpl--><rect fill="#FEFECE" filter="url(#f60y9l96wqvgo)" height="61.8359" id="UserRepositoryImpl" style="stroke: #A80036; stroke-width: 1.5;" width="147" x="454.5" y="847"/><ellipse cx="471.75" cy="863" fill="#ADD1B2" rx="11" ry="11" style="stroke: #A80036; stroke-width: 1.0;"/><path d="M474.4531,868.4375 Q473.5313,869.3594 471.2656,869.3594 Q470,869.3594 469.0781,868.4375 Q467.4219,866.7813 467.4219,863.25 Q467.4219,859.1406 469.2031,857.3438 Q470.1406,856.4219 471.3281,856.4219 Q473.5938,856.4219 474.3281,857.1406 Q475.7188,858.5469 475.6563,860.9375 L473.1875,860.9375 Q473.125,858.8125 472.3906,858.0781 Q472,857.6719 471.3281,857.6719 Q471.3281,857.6719 471.2656,858.1406 Q469.9375,859.4688 469.9375,863.125 Q469.9375,866.3125 471.0781,867.4375 Q471.6094,867.9688 471.6094,867.9688 Q471.8594,867.9688 472.3906,867.4375 Q473.0625,866.7813 473.125,864.3906 L475.7188,864.3906 Q475.5156,867.375 474.4531,868.4375 Z "/><text fill="#000000" font-family="sans-serif" font-size="12" lengthAdjust="spacingAndGlyphs" textLength="110" x="486.25" y="867.9102">UserRepositoryImpl</text><line style="stroke: #A80036; stroke-width: 1.5;" x1="455.5" x2="600.5" y1="879" y2="879"/><line style="stroke: #A80036; stroke-width: 1.5;" x1="455.5" x2="600.5" y1="887" y2="887"/><ellipse cx="465.5" cy="899.418" fill="#84BE84" rx="3" ry="3" style="stroke: #038048; stroke-width: 1.0;"/><text fill="#000000" font-family="sans-serif" font-size="11" lengthAdjust="spacingAndGlyphs" textLength="121" x="474.5" y="902.4189">UserDomain selectUser()</text><!--link UserViewModel to UserController--><path d="M511.473,153.942 C495.569,117.526 459.799,49.721 404.5,22 C366.755,3.079 347.435,3.462 309.5,22 C261.634,45.391 227.152,97.751 207.416,135.362 " fill="none" id="UserViewModel-UserController" style="stroke: #A80036; stroke-width: 1.0;"/><polygon fill="#A80036" points="205.083,139.873,212.7705,133.7165,207.38,135.4319,205.6647,130.0413,205.083,139.873" style="stroke: #A80036; stroke-width: 1.0;"/><!--link UserController to UserHelper--><path d="M274.66,178 C284.64,178 294.62,178 304.6,178 " fill="none" id="UserController-UserHelper" style="stroke: #A80036; stroke-width: 1.0;"/><polygon fill="#A80036" points="309.819,178,300.819,174,304.819,178,300.819,182,309.819,178" style="stroke: #A80036; stroke-width: 1.0;"/><!--link UserHelper to UserServiceIF--><path d="M352.009,202.364 C345,229.701 333.034,276.369 322.68,316.748 " fill="none" id="UserHelper-UserServiceIF" style="stroke: #A80036; stroke-width: 1.0;"/><polygon fill="#A80036" points="321.426,321.639,327.5355,313.9141,322.6676,316.7956,319.7861,311.9276,321.426,321.639" style="stroke: #A80036; stroke-width: 1.0;"/><!--link UserController to UserServiceIF--><path d="M208.031,216.363 C222.936,244.162 243.788,283.057 262.158,317.321 " fill="none" id="UserController-UserServiceIF" style="stroke: #A80036; stroke-width: 1.0;"/><polygon fill="#A80036" points="264.617,321.907,263.8883,312.0851,262.2538,317.5007,256.8383,315.8662,264.617,321.907" style="stroke: #A80036; stroke-width: 1.0;"/><!--link UserServiceIF to UserDomain--><path d="M310.416,467.233 C312.787,490.173 315.465,516.074 318.034,540.924 " fill="none" id="UserServiceIF-UserDomain" style="stroke: #A80036; stroke-width: 1.0; stroke-dasharray: 7.0,7.0;"/><!--link UserServiceIF to UserServiceImpl--><path d="M402.098,394.5 C407.026,394.5 411.954,394.5 416.882,394.5 " fill="none" id="UserServiceIF-UserServiceImpl" style="stroke: #A80036; stroke-width: 1.0;"/><polygon fill="none" points="401.838,401.5,381.838,394.5,401.838,387.5,401.838,401.5" style="stroke: #A80036; stroke-width: 1.0;"/><!--link DomainLayer to UserAppConfig--><!--link UserDomain to UserRepositoryIF--><path d="M336.928,755.324 C339.421,788.759 341.98,823.079 343.741,846.709 " fill="none" id="UserDomain-UserRepositoryIF" style="stroke: #A80036; stroke-width: 1.0; stroke-dasharray: 7.0,7.0;"/><!--link UserServiceImpl to UserRepositoryIF--><path d="M500.433,481.131 C488.564,564.707 463.387,693.715 413,795 C404.467,812.151 391.78,828.926 379.734,842.789 " fill="none" id="UserServiceImpl-UserRepositoryIF" style="stroke: #A80036; stroke-width: 1.0;"/><polygon fill="#A80036" points="376.358,846.62,385.3093,842.5121,379.6637,842.8686,379.3071,837.223,376.358,846.62" style="stroke: #A80036; stroke-width: 1.0;"/><!--link UserRepositoryIF to UserRepositoryImpl--><path d="M439.659,878 C444.543,878 449.426,878 454.31,878 " fill="none" id="UserRepositoryIF-UserRepositoryImpl" style="stroke: #A80036; stroke-width: 1.0;"/><polygon fill="none" points="439.582,884.9999,419.582,878,439.582,870.9999,439.582,884.9999" style="stroke: #A80036; stroke-width: 1.0;"/><!--
@startuml
Package User {
    package UILayer <<Rectangle>>{
        class UserViewModel
    }
    package AppLayer <<Rectangle>>{
        class UserController {
        	-UserServiceIF userservice
        	+ModelAndView getUserPage()
        }
        class UserHelper
        UserController <-right- UserViewModel
        UserController -right-> UserHelper
    }
    package DomainLayer <<Rectangle>>{
        interface UserServiceIF{
        	+void getUser()
        	+String getUserName()
        	+boolean getUserEnabled()
        	+String getUserMailAddres()
        	+String getUserDescription()
        	+String getUserImage()
        	+boolean getVisible()
        }
        class UserServiceImpl{
        	-UserDomain user
        	-UserRepositoryIF userRepository
        	+void getUser()
        	+String getUserName()
        	+boolean getUserEnabled()
        	+String getUserMailAddres()
        	+String getUserDescription()
        	+String getUserImage()
        	+boolean getVisible()
        }
        class UserDomain{
        	-int uId
        	-boolean userEnabled
        	-String userId
        	-String userName
        	-String userMailAddres
        	-String userDescription
        	-String userImage
        	-int[] tagList
        	-int[] followList
        	-int[] followerList
        	-boolean visible
        	-String designSettings
        }
        UserHelper -down-> UserServiceIF
        UserController -down-> UserServiceIF
        UserServiceIF .down. UserDomain
        UserServiceIF <|-right- UserServiceImpl
    }
    
	class UserAppConfig
	DomainLayer -[hidden]> UserAppConfig
	
    package InfrastructureLayer <<Rectangle>>{
        interface UserRepositoryIF{
        	+UserDomain selectUser()
        }
        class UserRepositoryImpl{
        	+UserDomain selectUser()
        }
        UserDomain .down. UserRepositoryIF
        UserServiceImpl -down-> UserRepositoryIF
        UserRepositoryIF <|-right- UserRepositoryImpl
    }
}
@enduml

PlantUML version 1.2019.06(Sat May 25 02:10:25 JST 2019)
(GPL source distribution)
Java Runtime: Java(TM) SE Runtime Environment
JVM: Java HotSpot(TM) 64-Bit Server VM
Java Version: 1.8.0_231-b11
Operating System: Windows 10
OS Version: 10.0
Default Encoding: MS932
Language: ja
Country: JP
--></g></svg>