<?xml version="1.0" encoding="UTF-8" standalone="no"?><svg xmlns="http://www.w3.org/2000/svg" xmlns:xlink="http://www.w3.org/1999/xlink" contentScriptType="application/ecmascript" contentStyleType="text/css" height="701px" preserveAspectRatio="none" style="width:764px;height:701px;" version="1.1" viewBox="0 0 764 701" width="764px" zoomAndPan="magnify"><defs><filter height="300%" id="f189ffhp72yka8" width="300%" x="-1" y="-1"><feGaussianBlur result="blurOut" stdDeviation="2.0"/><feColorMatrix in="blurOut" result="blurOut2" type="matrix" values="0 0 0 0 0 0 0 0 0 0 0 0 0 0 0 0 0 0 .4 0"/><feOffset dx="4.0" dy="4.0" in="blurOut2" result="blurOut3"/><feBlend in="SourceGraphic" in2="blurOut3" mode="normal"/></filter></defs><g><rect fill="#FEFECE" filter="url(#f189ffhp72yka8)" height="682.6094" rx="12.5" ry="12.5" style="stroke: #A80036; stroke-width: 1.5;" width="746" x="6" y="8"/><rect fill="#FFFFFF" height="649" rx="12.5" ry="12.5" style="stroke: #FFFFFF; stroke-width: 1.0;" width="740" x="9" y="38.6094"/><line style="stroke: #A80036; stroke-width: 1.5;" x1="6" x2="752" y1="35.6094" y2="35.6094"/><text fill="#000000" font-family="sans-serif" font-size="14" lengthAdjust="spacingAndGlyphs" textLength="70" x="344" y="27.5332">コンテンツ</text><polygon fill="#FEFECE" filter="url(#f189ffhp72yka8)" points="386.199,194.6094,398.199,206.6094,386.199,218.6094,374.199,206.6094,386.199,194.6094" style="stroke: #A80036; stroke-width: 1.5;"/><rect fill="#FEFECE" filter="url(#f189ffhp72yka8)" height="50" rx="12.5" ry="12.5" style="stroke: #A80036; stroke-width: 1.5;" width="99" x="336.699" y="52.6094"/><line style="stroke: #A80036; stroke-width: 1.5;" x1="336.699" x2="435.699" y1="80.2188" y2="80.2188"/><text fill="#000000" font-family="sans-serif" font-size="14" lengthAdjust="spacingAndGlyphs" textLength="79" x="346.699" y="72.1426">Aboutページ</text><rect fill="#FEFECE" filter="url(#f189ffhp72yka8)" height="52.7031" rx="12.5" ry="12.5" style="stroke: #A80036; stroke-width: 1.5;" width="104" x="431.199" y="293.6094"/><line style="stroke: #A80036; stroke-width: 1.5;" x1="431.199" x2="535.199" y1="321.2188" y2="321.2188"/><text fill="#000000" font-family="sans-serif" font-size="14" lengthAdjust="spacingAndGlyphs" textLength="84" x="441.199" y="313.1426">ユーザー詳細</text><text fill="#000000" font-family="sans-serif" font-size="12" lengthAdjust="spacingAndGlyphs" textLength="60" x="436.199" y="338.6758">マイページ</text><rect fill="#FEFECE" filter="url(#f189ffhp72yka8)" height="52.7031" rx="12.5" ry="12.5" style="stroke: #A80036; stroke-width: 1.5;" width="104" x="228.199" y="618.6094"/><line style="stroke: #A80036; stroke-width: 1.5;" x1="228.199" x2="332.199" y1="646.2188" y2="646.2188"/><text fill="#000000" font-family="sans-serif" font-size="14" lengthAdjust="spacingAndGlyphs" textLength="84" x="238.199" y="638.1426">ユーザー詳細</text><text fill="#000000" font-family="sans-serif" font-size="12" lengthAdjust="spacingAndGlyphs" textLength="84" x="233.199" y="663.6758">任意のユーザー</text><rect fill="#FEFECE" filter="url(#f189ffhp72yka8)" height="52.7031" rx="12.5" ry="12.5" style="stroke: #A80036; stroke-width: 1.5;" width="104" x="268.199" y="293.6094"/><line style="stroke: #A80036; stroke-width: 1.5;" x1="268.199" x2="372.199" y1="321.2188" y2="321.2188"/><text fill="#000000" font-family="sans-serif" font-size="14" lengthAdjust="spacingAndGlyphs" textLength="84" x="278.199" y="313.1426">ユーザー編集</text><text fill="#000000" font-family="sans-serif" font-size="12" lengthAdjust="spacingAndGlyphs" textLength="60" x="273.199" y="338.6758">マイページ</text><rect fill="#FEFECE" filter="url(#f189ffhp72yka8)" height="50" rx="12.5" ry="12.5" style="stroke: #A80036; stroke-width: 1.5;" width="104" x="380.199" y="465.6094"/><line style="stroke: #A80036; stroke-width: 1.5;" x1="380.199" x2="484.199" y1="493.2188" y2="493.2188"/><text fill="#000000" font-family="sans-serif" font-size="14" lengthAdjust="spacingAndGlyphs" textLength="84" x="390.199" y="485.1426">フォロー一覧</text><rect fill="#FEFECE" filter="url(#f189ffhp72yka8)" height="50" rx="12.5" ry="12.5" style="stroke: #A80036; stroke-width: 1.5;" width="118" x="521.199" y="465.6094"/><line style="stroke: #A80036; stroke-width: 1.5;" x1="521.199" x2="639.199" y1="493.2188" y2="493.2188"/><text fill="#000000" font-family="sans-serif" font-size="14" lengthAdjust="spacingAndGlyphs" textLength="98" x="531.199" y="485.1426">フォロワー一覧</text><rect fill="#FEFECE" filter="url(#f189ffhp72yka8)" height="50" rx="12.5" ry="12.5" style="stroke: #A80036; stroke-width: 1.5;" width="76" x="242.199" y="465.6094"/><line style="stroke: #A80036; stroke-width: 1.5;" x1="242.199" x2="318.199" y1="493.2188" y2="493.2188"/><text fill="#000000" font-family="sans-serif" font-size="14" lengthAdjust="spacingAndGlyphs" textLength="56" x="252.199" y="485.1426">タグ詳細</text><rect fill="#FEFECE" filter="url(#f189ffhp72yka8)" height="50" rx="12.5" ry="12.5" style="stroke: #A80036; stroke-width: 1.5;" width="90" x="65.199" y="465.6094"/><line style="stroke: #A80036; stroke-width: 1.5;" x1="65.199" x2="155.199" y1="493.2188" y2="493.2188"/><text fill="#000000" font-family="sans-serif" font-size="14" lengthAdjust="spacingAndGlyphs" textLength="70" x="75.199" y="485.1426">アプリ詳細</text><rect fill="#FEFECE" filter="url(#f189ffhp72yka8)" height="50" rx="12.5" ry="12.5" style="stroke: #A80036; stroke-width: 1.5;" width="90" x="34.199" y="295.1094"/><line style="stroke: #A80036; stroke-width: 1.5;" x1="34.199" x2="124.199" y1="322.7188" y2="322.7188"/><text fill="#000000" font-family="sans-serif" font-size="14" lengthAdjust="spacingAndGlyphs" textLength="70" x="44.199" y="314.6426">アプリ編集</text><ellipse cx="216.199" cy="77.6094" fill="#000000" filter="url(#f189ffhp72yka8)" rx="10" ry="10" style="stroke: none; stroke-width: 1.0;"/><!--link *start*content to sc1--><path d="M226.324,77.6094 C246.642,77.6094 293.673,77.6094 331.496,77.6094 " fill="none" id="*start*content-sc1" style="stroke: #A80036; stroke-width: 1.0;"/><polygon fill="#A80036" points="336.532,77.6094,327.532,73.6094,331.532,77.6094,327.532,81.6094,336.532,77.6094" style="stroke: #A80036; stroke-width: 1.0;"/><text fill="#000000" font-family="sans-serif" font-size="13" lengthAdjust="spacingAndGlyphs" textLength="91" x="235.949" y="55.1045">非ログイン時、</text><text fill="#000000" font-family="sans-serif" font-size="13" lengthAdjust="spacingAndGlyphs" textLength="79" x="241.949" y="71.4561">"/"にアクセス</text><!--link *start*content to sc2.1--><path d="M218.903,87.4674 C226.447,111.2334 249.477,177.7074 284.199,223.6094 C305.488,251.7524 313.379,258.4234 344.199,275.6094 C369.458,289.6954 399.892,299.8774 425.836,306.8324 " fill="none" id="*start*content-sc2.1" style="stroke: #A80036; stroke-width: 1.0;"/><polygon fill="#A80036" points="430.962,308.1804,423.2767,302.0212,426.1267,306.9076,421.2403,309.7577,430.962,308.1804" style="stroke: #A80036; stroke-width: 1.0;"/><text fill="#000000" font-family="sans-serif" font-size="13" lengthAdjust="spacingAndGlyphs" textLength="78" x="285.699" y="204.1045">ログイン時、</text><text fill="#000000" font-family="sans-serif" font-size="13" lengthAdjust="spacingAndGlyphs" textLength="79" x="285.199" y="220.4561">"/"にアクセス</text><!--link *start*content to sc2.1.2--><path d="M212.413,87.0354 C203.745,107.1234 183.199,159.5924 183.199,205.6094 C183.199,205.6094 183.199,205.6094 183.199,491.6094 C183.199,543.2124 192.576,559.0744 223.199,600.6094 C227.025,605.7992 231.637,610.6696 236.559,615.1375 " fill="none" id="*start*content-sc2.1.2" style="stroke: #A80036; stroke-width: 1.0;"/><polygon fill="#A80036" points="240.376,618.4743,236.2318,609.5398,236.6113,615.1839,230.9671,615.5634,240.376,618.4743" style="stroke: #A80036; stroke-width: 1.0;"/><text fill="#000000" font-family="sans-serif" font-size="13" lengthAdjust="spacingAndGlyphs" textLength="65" x="184.199" y="309.1045">ユーザーの</text><text fill="#000000" font-family="sans-serif" font-size="13" lengthAdjust="spacingAndGlyphs" textLength="38" x="197.699" y="325.4561">URLに</text><text fill="#000000" font-family="sans-serif" font-size="13" lengthAdjust="spacingAndGlyphs" textLength="52" x="190.699" y="341.8076">アクセス</text><!--link sc1 to choice--><path d="M386.199,102.7964 C386.199,128.1404 386.199,167.2594 386.199,189.2144 " fill="none" id="sc1-choice" style="stroke: #A80036; stroke-width: 1.0;"/><polygon fill="#A80036" points="386.199,194.4074,390.199,185.4074,386.199,189.4074,382.199,185.4074,386.199,194.4074" style="stroke: #A80036; stroke-width: 1.0;"/><text fill="#000000" font-family="sans-serif" font-size="13" lengthAdjust="spacingAndGlyphs" textLength="52" x="387.199" y="135.1045">ログイン</text><text fill="#000000" font-family="sans-serif" font-size="13" lengthAdjust="spacingAndGlyphs" textLength="52" x="387.199" y="151.4561">ボタンを</text><text fill="#000000" font-family="sans-serif" font-size="13" lengthAdjust="spacingAndGlyphs" textLength="26" x="400.199" y="167.8076">押下</text><!--link choice to sc2.1--><path d="M392.256,212.6204 C399.833,219.0114 413.046,230.5614 423.199,241.6094 C436.986,256.6114 451.003,274.5354 462.017,289.3654 " fill="none" id="choice-sc2.1" style="stroke: #A80036; stroke-width: 1.0;"/><polygon fill="#A80036" points="465.042,293.4604,462.9106,283.8449,462.0706,289.439,456.4765,288.5991,465.042,293.4604" style="stroke: #A80036; stroke-width: 1.0;"/><text fill="#000000" font-family="sans-serif" font-size="13" lengthAdjust="spacingAndGlyphs" textLength="26" x="465.199" y="256.1045">既存</text><text fill="#000000" font-family="sans-serif" font-size="13" lengthAdjust="spacingAndGlyphs" textLength="52" x="452.199" y="272.4561">ユーザー</text><!--link choice to sc2.2--><path d="M382.07,214.5844 C373.427,229.1864 352.984,263.7224 337.952,289.1184 " fill="none" id="choice-sc2.2" style="stroke: #A80036; stroke-width: 1.0;"/><polygon fill="#A80036" points="335.4,293.4284,343.4267,287.7212,337.947,289.1257,336.5425,283.646,335.4,293.4284" style="stroke: #A80036; stroke-width: 1.0;"/><text fill="#000000" font-family="sans-serif" font-size="13" lengthAdjust="spacingAndGlyphs" textLength="26" x="379.199" y="256.1045">新規</text><text fill="#000000" font-family="sans-serif" font-size="13" lengthAdjust="spacingAndGlyphs" textLength="52" x="366.199" y="272.4561">ユーザー</text><!--link sc2.2 to sc2.1--><path d="M361.19,348.9994 C367.634,352.3324 374.415,355.2124 381.199,357.1094 C398.748,362.0154 404.65,362.0154 422.199,357.1094 C430.549,354.7754 438.894,350.9504 446.611,346.6264 " fill="none" id="sc2.2-sc2.1" style="stroke: #A80036; stroke-width: 1.0;"/><polygon fill="#A80036" points="356.787,346.6264,362.8118,354.4175,361.1884,348.9986,366.6074,347.3752,356.787,346.6264" style="stroke: #A80036; stroke-width: 1.0;"/><text fill="#000000" font-family="sans-serif" font-size="13" lengthAdjust="spacingAndGlyphs" textLength="39" x="382.199" y="337.6045">編集を</text><text fill="#000000" font-family="sans-serif" font-size="13" lengthAdjust="spacingAndGlyphs" textLength="26" x="388.699" y="353.9561">押下</text><!--link sc2.2 to sc2.1--><path d="M372.221,320.1094 C389.277,320.1094 408.324,320.1094 425.757,320.1094 " fill="none" id="sc2.2-sc2.1-1" style="stroke: #A80036; stroke-width: 1.0;"/><polygon fill="#A80036" points="431.112,320.1094,422.112,316.1094,426.112,320.1094,422.112,324.1094,431.112,320.1094" style="stroke: #A80036; stroke-width: 1.0;"/><text fill="#000000" font-family="sans-serif" font-size="13" lengthAdjust="spacingAndGlyphs" textLength="39" x="382.199" y="297.6045">更新を</text><text fill="#000000" font-family="sans-serif" font-size="13" lengthAdjust="spacingAndGlyphs" textLength="26" x="388.699" y="313.9561">押下</text><!--link sc2.1 to sc3--><path d="M480.442,347.0234 C477.08,373.1094 470.165,414.1614 457.199,447.6094 C455.487,452.0254 453.333,456.5124 451.012,460.8284 " fill="none" id="sc2.1-sc3" style="stroke: #A80036; stroke-width: 1.0;"/><polygon fill="#A80036" points="448.44,465.4344,456.3196,459.5257,450.8772,461.0686,449.3343,455.6262,448.44,465.4344" style="stroke: #A80036; stroke-width: 1.0;"/><text fill="#000000" font-family="sans-serif" font-size="13" lengthAdjust="spacingAndGlyphs" textLength="65" x="479.199" y="403.6045">フォローを</text><text fill="#000000" font-family="sans-serif" font-size="13" lengthAdjust="spacingAndGlyphs" textLength="26" x="498.699" y="419.9561">押下</text><!--link sc2.1 to sc3--><path d="M426.311,339.7534 C415.526,345.9414 405.621,354.0514 399.199,364.6094 C380.028,396.1254 387.141,412.7464 399.199,447.6094 C401.381,453.9194 404.946,460.0024 408.944,465.4864 " fill="none" id="sc2.1-sc3-1" style="stroke: #A80036; stroke-width: 1.0;"/><polygon fill="#A80036" points="430.979,337.2174,421.1613,338,426.5858,339.6047,424.981,345.0292,430.979,337.2174" style="stroke: #A80036; stroke-width: 1.0;"/><text fill="#000000" font-family="sans-serif" font-size="13" lengthAdjust="spacingAndGlyphs" textLength="52" x="400.199" y="403.6045">アプリを</text><text fill="#000000" font-family="sans-serif" font-size="13" lengthAdjust="spacingAndGlyphs" textLength="26" x="413.199" y="419.9561">押下</text><!--link sc2.1 to sc4--><path d="M529.788,346.7334 C536.352,351.9494 542.464,357.9204 547.199,364.6094 C550.011,368.5814 564.164,424.5654 572.998,460.2494 " fill="none" id="sc2.1-sc4" style="stroke: #A80036; stroke-width: 1.0;"/><polygon fill="#A80036" points="574.26,465.3584,575.9833,455.6615,573.0601,460.5045,568.2171,457.5813,574.26,465.3584" style="stroke: #A80036; stroke-width: 1.0;"/><text fill="#000000" font-family="sans-serif" font-size="13" lengthAdjust="spacingAndGlyphs" textLength="78" x="570.199" y="403.6045">フォロワーを</text><text fill="#000000" font-family="sans-serif" font-size="13" lengthAdjust="spacingAndGlyphs" textLength="26" x="596.199" y="419.9561">押下</text><!--link sc2.1 to sc4--><path d="M540.481,328.5054 C583.303,335.3484 636.686,347.1264 650.199,364.6094 C672.758,393.7964 668.374,415.5084 650.199,447.6094 C646.289,454.5154 640.739,460.4104 634.456,465.4054 " fill="none" id="sc2.1-sc4-1" style="stroke: #A80036; stroke-width: 1.0;"/><polygon fill="#A80036" points="535.314,327.6954,543.5861,333.0408,540.2537,328.4696,544.8248,325.1372,535.314,327.6954" style="stroke: #A80036; stroke-width: 1.0;"/><text fill="#000000" font-family="sans-serif" font-size="13" lengthAdjust="spacingAndGlyphs" textLength="52" x="666.199" y="403.6045">アプリを</text><text fill="#000000" font-family="sans-serif" font-size="13" lengthAdjust="spacingAndGlyphs" textLength="26" x="679.199" y="419.9561">押下</text><!--link sc2.1 to sc5--><path d="M431.024,332.8084 C397.101,341.2514 356.747,353.1374 343.199,364.6094 C327.511,377.8934 305.044,428.2114 291.609,460.8134 " fill="none" id="sc2.1-sc5" style="stroke: #A80036; stroke-width: 1.0;"/><polygon fill="#A80036" points="289.694,465.4884,296.8056,458.6748,291.5883,460.8611,289.402,455.6438,289.694,465.4884" style="stroke: #A80036; stroke-width: 1.0;"/><text fill="#000000" font-family="sans-serif" font-size="13" lengthAdjust="spacingAndGlyphs" textLength="39" x="344.199" y="395.1045">任意の</text><text fill="#000000" font-family="sans-serif" font-size="13" lengthAdjust="spacingAndGlyphs" textLength="39" x="344.199" y="411.4561">タグを</text><text fill="#000000" font-family="sans-serif" font-size="13" lengthAdjust="spacingAndGlyphs" textLength="26" x="350.699" y="427.8076">押下</text><!--link sc5 to sc2.1.2--><path d="M280.199,515.7734 C280.199,542.1814 280.199,584.555 280.199,613.3252 " fill="none" id="sc5-sc2.1.2" style="stroke: #A80036; stroke-width: 1.0;"/><polygon fill="#A80036" points="280.199,618.532,284.199,609.532,280.199,613.532,276.199,609.532,280.199,618.532" style="stroke: #A80036; stroke-width: 1.0;"/><text fill="#000000" font-family="sans-serif" font-size="13" lengthAdjust="spacingAndGlyphs" textLength="39" x="294.199" y="556.1045">任意の</text><text fill="#000000" font-family="sans-serif" font-size="13" lengthAdjust="spacingAndGlyphs" textLength="65" x="281.199" y="572.4561">ユーザーを</text><text fill="#000000" font-family="sans-serif" font-size="13" lengthAdjust="spacingAndGlyphs" textLength="26" x="300.699" y="588.8076">押下</text><!--link sc2.1 to sc6.1--><path d="M431.064,335.5064 C415.15,339.5324 397.538,343.6184 381.199,346.6094 C313.849,358.9374 288.934,332.9984 228.199,364.6094 C184.36,387.4264 188.546,412.0744 154.199,447.6094 C149.637,452.3294 144.697,457.2324 139.83,461.9534 " fill="none" id="sc2.1-sc6.1" style="stroke: #A80036; stroke-width: 1.0;"/><polygon fill="#A80036" points="136.131,465.5204,145.3855,462.1507,139.7295,462.049,139.8312,456.393,136.131,465.5204" style="stroke: #A80036; stroke-width: 1.0;"/><text fill="#000000" font-family="sans-serif" font-size="13" lengthAdjust="spacingAndGlyphs" textLength="39" x="242.199" y="379.1045">任意の</text><text fill="#000000" font-family="sans-serif" font-size="13" lengthAdjust="spacingAndGlyphs" textLength="39" x="242.199" y="395.4561">アプリ</text><text fill="#000000" font-family="sans-serif" font-size="13" lengthAdjust="spacingAndGlyphs" textLength="65" x="229.199" y="411.8076">アイコンか</text><text fill="#000000" font-family="sans-serif" font-size="13" lengthAdjust="spacingAndGlyphs" textLength="65" x="229.199" y="428.1592">アプリ名を</text><text fill="#000000" font-family="sans-serif" font-size="13" lengthAdjust="spacingAndGlyphs" textLength="26" x="248.699" y="444.5107">押下</text><!--link sc3 to sc2.1.2--><path d="M437.872,515.6274 C442.069,539.7614 444.199,576.7124 425.199,600.6094 C404.403,626.7656 368.497,637.6706 337.619,642.0216 " fill="none" id="sc3-sc2.1.2" style="stroke: #A80036; stroke-width: 1.0;"/><polygon fill="#A80036" points="332.315,642.7127,341.7562,645.5169,337.2731,642.067,340.7231,637.5839,332.315,642.7127" style="stroke: #A80036; stroke-width: 1.0;"/><text fill="#000000" font-family="sans-serif" font-size="13" lengthAdjust="spacingAndGlyphs" textLength="52" x="448.699" y="548.1045">アプリか</text><text fill="#000000" font-family="sans-serif" font-size="13" lengthAdjust="spacingAndGlyphs" textLength="39" x="455.199" y="564.4561">任意の</text><text fill="#000000" font-family="sans-serif" font-size="13" lengthAdjust="spacingAndGlyphs" textLength="65" x="442.199" y="580.8076">ユーザーを</text><text fill="#000000" font-family="sans-serif" font-size="13" lengthAdjust="spacingAndGlyphs" textLength="26" x="461.699" y="597.1592">押下</text><!--link sc4 to sc2.1.2--><path d="M596.476,515.7824 C610.588,540.0384 625.784,577.0861 605.199,600.6094 C571.096,639.5813 421.309,645.1301 337.498,645.0789 " fill="none" id="sc4-sc2.1.2" style="stroke: #A80036; stroke-width: 1.0;"/><polygon fill="#A80036" points="332.322,645.0686,341.314,649.0866,337.322,645.0786,341.33,641.0866,332.322,645.0686" style="stroke: #A80036; stroke-width: 1.0;"/><text fill="#000000" font-family="sans-serif" font-size="13" lengthAdjust="spacingAndGlyphs" textLength="52" x="622.699" y="548.1045">アプリか</text><text fill="#000000" font-family="sans-serif" font-size="13" lengthAdjust="spacingAndGlyphs" textLength="39" x="629.199" y="564.4561">任意の</text><text fill="#000000" font-family="sans-serif" font-size="13" lengthAdjust="spacingAndGlyphs" textLength="65" x="616.199" y="580.8076">ユーザーを</text><text fill="#000000" font-family="sans-serif" font-size="13" lengthAdjust="spacingAndGlyphs" textLength="26" x="635.699" y="597.1592">押下</text><!--link sc3 to sc2.1.2--><path d="M381.493,518.8824 C376.147,523.2744 371.209,528.1864 367.199,533.6094 C348.796,558.4964 366.659,575.7647 348.199,600.6094 C343.184,607.3589 336.784,613.3342 329.925,618.5272 " fill="none" id="sc3-sc2.1.2-1" style="stroke: #A80036; stroke-width: 1.0;"/><polygon fill="#A80036" points="385.652,515.6254,376.0998,518.0246,381.7153,518.7079,381.0319,524.3233,385.652,515.6254" style="stroke: #A80036; stroke-width: 1.0;"/><text fill="#000000" font-family="sans-serif" font-size="13" lengthAdjust="spacingAndGlyphs" textLength="52" x="368.199" y="564.6045">フォロー</text><text fill="#000000" font-family="sans-serif" font-size="13" lengthAdjust="spacingAndGlyphs" textLength="39" x="374.699" y="580.9561">を押下</text><!--link sc4 to sc2.1.2--><path d="M545.558,519.4654 C541.349,523.8824 537.41,528.6434 534.199,533.6094 C517.179,559.9274 535.774,579.9562 512.199,600.6094 C485.999,623.5629 392.289,635.2138 332.284,640.4515 " fill="none" id="sc4-sc2.1.2-1" style="stroke: #A80036; stroke-width: 1.0;"/><polygon fill="#A80036" points="549.146,515.8394,539.9723,519.4231,545.6291,519.3934,545.6588,525.0502,549.146,515.8394" style="stroke: #A80036; stroke-width: 1.0;"/><text fill="#000000" font-family="sans-serif" font-size="13" lengthAdjust="spacingAndGlyphs" textLength="65" x="535.199" y="564.6045">フォロワー</text><text fill="#000000" font-family="sans-serif" font-size="13" lengthAdjust="spacingAndGlyphs" textLength="39" x="548.199" y="580.9561">を押下</text><!--link sc5 to sc2.1.2--><path d="M243.926,519.7744 C240.407,524.0224 237.351,528.6564 235.199,533.6094 C223.331,560.9204 223.571,573.1959 235.199,600.6094 C237.915,607.0115 242.085,612.9313 246.813,618.2098 " fill="none" id="sc5-sc2.1.2-1" style="stroke: #A80036; stroke-width: 1.0;"/><polygon fill="#A80036" points="247.275,515.9844,238.3188,520.0815,243.9648,519.7317,244.3145,525.3778,247.275,515.9844" style="stroke: #A80036; stroke-width: 1.0;"/><text fill="#000000" font-family="sans-serif" font-size="13" lengthAdjust="spacingAndGlyphs" textLength="39" x="236.199" y="556.1045">任意の</text><text fill="#000000" font-family="sans-serif" font-size="13" lengthAdjust="spacingAndGlyphs" textLength="39" x="236.199" y="572.4561">タグを</text><text fill="#000000" font-family="sans-serif" font-size="13" lengthAdjust="spacingAndGlyphs" textLength="26" x="242.699" y="588.8076">押下</text><!--link sc6.1 to sc2.1.2--><path d="M102.9031,520.6794 C98.702,544.7434 97.3075,578.4588 115.199,600.6094 C129.393,618.1819 185.228,630.2549 228.056,637.1447 " fill="none" id="sc6.1-sc2.1.2" style="stroke: #A80036; stroke-width: 1.0;"/><polygon fill="#A80036" points="103.8363,515.6984,98.2463,523.8071,102.9149,520.6127,106.1093,525.2814,103.8363,515.6984" style="stroke: #A80036; stroke-width: 1.0;"/><text fill="#000000" font-family="sans-serif" font-size="13" lengthAdjust="spacingAndGlyphs" textLength="39" x="122.699" y="556.1045">任意の</text><text fill="#000000" font-family="sans-serif" font-size="13" lengthAdjust="spacingAndGlyphs" textLength="52" x="116.199" y="572.4561">アプリを</text><text fill="#000000" font-family="sans-serif" font-size="13" lengthAdjust="spacingAndGlyphs" textLength="26" x="129.199" y="588.8076">押下</text><!--link sc6.1 to sc2.1.2--><path d="M65.0607,505.0194 C51.4618,511.4034 38.07,520.5874 30.199,533.6094 C14.7954,559.0934 11.0325,577.8199 30.199,600.6094 C54.346,629.3208 157.015,639.0829 223.039,642.4014 " fill="none" id="sc6.1-sc2.1.2-1" style="stroke: #A80036; stroke-width: 1.0;"/><polygon fill="#A80036" points="228.123,642.6478,219.3266,638.2179,223.1288,642.4063,218.9404,646.2085,228.123,642.6478" style="stroke: #A80036; stroke-width: 1.0;"/><text fill="#000000" font-family="sans-serif" font-size="13" lengthAdjust="spacingAndGlyphs" textLength="39" x="44.199" y="556.1045">任意の</text><text fill="#000000" font-family="sans-serif" font-size="13" lengthAdjust="spacingAndGlyphs" textLength="65" x="31.199" y="572.4561">ユーザーを</text><text fill="#000000" font-family="sans-serif" font-size="13" lengthAdjust="spacingAndGlyphs" textLength="26" x="50.699" y="588.8076">押下</text><!--link sc6.2 to sc6.1--><path d="M61.5675,349.8124 C59.3523,354.6024 57.4332,359.6344 56.199,364.6094 C47.3163,400.4124 39.9918,414.4714 56.199,447.6094 C59.4864,454.3314 64.4261,460.2874 70.0058,465.4494 " fill="none" id="sc6.2-sc6.1" style="stroke: #A80036; stroke-width: 1.0;"/><polygon fill="#A80036" points="63.8669,345.1144,56.317,351.4389,61.6684,349.6051,63.5022,354.9565,63.8669,345.1144" style="stroke: #A80036; stroke-width: 1.0;"/><text fill="#000000" font-family="sans-serif" font-size="13" lengthAdjust="spacingAndGlyphs" textLength="39" x="57.199" y="403.6045">編集を</text><text fill="#000000" font-family="sans-serif" font-size="13" lengthAdjust="spacingAndGlyphs" textLength="26" x="63.699" y="419.9561">押下</text><!--link sc6.2 to sc6.1--><path d="M90.7485,345.5324 C93.2345,351.6464 95.5941,358.2714 97.199,364.6094 C105.2985,396.5984 108.3652,434.4194 109.5188,460.0154 " fill="none" id="sc6.2-sc6.1-1" style="stroke: #A80036; stroke-width: 1.0;"/><polygon fill="#A80036" points="109.737,465.2854,113.3607,456.1274,109.5299,460.2897,105.3676,456.4588,109.737,465.2854" style="stroke: #A80036; stroke-width: 1.0;"/><text fill="#000000" font-family="sans-serif" font-size="13" lengthAdjust="spacingAndGlyphs" textLength="39" x="110.199" y="403.6045">更新を</text><text fill="#000000" font-family="sans-serif" font-size="13" lengthAdjust="spacingAndGlyphs" textLength="26" x="116.699" y="419.9561">押下</text><!--
@startuml
	state "コンテンツ" as content {
		state choice <<choice>>
		state "Aboutページ" as sc1
		state "ユーザー詳細" as sc2.1 : マイページ
		state "ユーザー詳細" as sc2.1.2 : 任意のユーザー
		state "ユーザー編集" as sc2.2 : マイページ
		state "フォロー一覧" as sc3
		state "フォロワー一覧" as sc4
		state "タグ詳細" as sc5
		state "アプリ詳細" as sc6.1
		state "アプリ編集" as sc6.2
		[*] -right-> sc1 : 非ログイン時、\n"/"にアクセス
		[*] -right-> sc2.1 : ログイン時、\n"/"にアクセス
		[*] -right-> sc2.1.2 : ユーザーの\nURLに\nアクセス
		sc1 -down-> choice : ログイン\nボタンを\n押下
		choice -down-> sc2.1 : 既存\nユーザー
		choice -down-> sc2.2 : 新規\nユーザー
		sc2.1 -left-> sc2.2 : 編集を\n押下
		sc2.2 -right-> sc2.1 : 更新を\n押下
		sc2.1 -down-> sc3 : フォローを\n押下
		sc3 -up-> sc2.1 : アプリを\n押下
		sc2.1 -down-> sc4 : フォロワーを\n押下
		sc4 -up-> sc2.1 : アプリを\n押下
		sc2.1 -down-> sc5 : 任意の\nタグを\n押下
		sc5 -down-> sc2.1.2 : 任意の\nユーザーを\n押下
		sc2.1 -down-> sc6.1 : 任意の\nアプリ\nアイコンか\nアプリ名を\n押下
		sc3 -down-> sc2.1.2 : アプリか\n任意の\nユーザーを\n押下
		sc4 -down-> sc2.1.2 : アプリか\n任意の\nユーザーを\n押下
		sc2.1.2 -up-> sc3 : フォロー\nを押下
		sc2.1.2 -up-> sc4 : フォロワー\nを押下
		sc2.1.2 -up-> sc5 : 任意の\nタグを\n押下
		sc2.1.2 -up-> sc6.1 : 任意の\nアプリを\n押下
		sc6.1 -down-> sc2.1.2 : 任意の\nユーザーを\n押下
		sc6.1 -up-> sc6.2 : 編集を\n押下
		sc6.2 -down-> sc6.1 : 更新を\n押下
	}
@enduml

PlantUML version 1.2019.06(Sat May 25 02:10:25 JST 2019)
(GPL source distribution)
Java Runtime: OpenJDK Runtime Environment
JVM: OpenJDK 64-Bit Server VM
Java Version: 14.0.2+12-46
Operating System: Windows 10
OS Version: 10.0
Default Encoding: MS932
Language: ja
Country: JP
--></g></svg>