<?xml version="1.0" encoding="UTF-8" standalone="no"?><svg xmlns="http://www.w3.org/2000/svg" xmlns:xlink="http://www.w3.org/1999/xlink" contentScriptType="application/ecmascript" contentStyleType="text/css" height="203px" preserveAspectRatio="none" style="width:471px;height:203px;" version="1.1" viewBox="0 0 471 203" width="471px" zoomAndPan="magnify"><defs><filter height="300%" id="fsx9jiqo4qqoz" width="300%" x="-1" y="-1"><feGaussianBlur result="blurOut" stdDeviation="2.0"/><feColorMatrix in="blurOut" result="blurOut2" type="matrix" values="0 0 0 0 0 0 0 0 0 0 0 0 0 0 0 0 0 0 .4 0"/><feOffset dx="4.0" dy="4.0" in="blurOut2" result="blurOut3"/><feBlend in="SourceGraphic" in2="blurOut3" mode="normal"/></filter></defs><g><!--class apps--><rect fill="#FEFECE" filter="url(#fsx9jiqo4qqoz)" height="75.6719" id="apps" style="stroke: #A80036; stroke-width: 1.5;" width="117" x="6" y="8"/><ellipse cx="46.65" cy="24" fill="#ADD1B2" rx="11" ry="11" style="stroke: #A80036; stroke-width: 1.0;"/><path d="M45.3688,22.6719 L49.8844,22.6719 L49.8844,24.625 L45.3688,24.625 L45.3688,28.9219 L50.6031,28.9219 L50.6031,30.8594 L43.15,30.8594 L43.15,17.2344 L50.275,17.2344 L50.275,19.1719 L45.3688,19.1719 L45.3688,22.6719 Z "/><text fill="#000000" font-family="sans-serif" font-size="12" lengthAdjust="spacingAndGlyphs" textLength="28" x="66.35" y="28.9102">apps</text><line style="stroke: #A80036; stroke-width: 1.5;" x1="7" x2="122" y1="40" y2="40"/><text fill="#000000" font-family="sans-serif" font-size="11" lengthAdjust="spacingAndGlyphs" textLength="105" x="12" y="55.4189">int auto_increment aid</text><line style="stroke: #A80036; stroke-width: 1.0;" x1="7" x2="122" y1="61.8359" y2="61.8359"/><text fill="#000000" font-family="sans-serif" font-size="11" lengthAdjust="spacingAndGlyphs" textLength="0" x="15" y="77.2549"/><!--class users--><rect fill="#FEFECE" filter="url(#fsx9jiqo4qqoz)" height="48" id="users" style="stroke: #A80036; stroke-width: 1.5;" width="64" x="219.5" y="22"/><ellipse cx="234.5" cy="38" fill="#ADD1B2" rx="11" ry="11" style="stroke: #A80036; stroke-width: 1.0;"/><path d="M233.2188,36.6719 L237.7344,36.6719 L237.7344,38.625 L233.2188,38.625 L233.2188,42.9219 L238.4531,42.9219 L238.4531,44.8594 L231,44.8594 L231,31.2344 L238.125,31.2344 L238.125,33.1719 L233.2188,33.1719 L233.2188,36.6719 Z "/><text fill="#000000" font-family="sans-serif" font-size="12" lengthAdjust="spacingAndGlyphs" textLength="32" x="248.5" y="42.9102">users</text><line style="stroke: #A80036; stroke-width: 1.5;" x1="220.5" x2="282.5" y1="54" y2="54"/><line style="stroke: #A80036; stroke-width: 1.5;" x1="220.5" x2="282.5" y1="62" y2="62"/><!--class tags--><rect fill="#FEFECE" filter="url(#fsx9jiqo4qqoz)" height="48" id="tags" style="stroke: #A80036; stroke-width: 1.5;" width="56" x="395.5" y="22"/><ellipse cx="410.5" cy="38" fill="#ADD1B2" rx="11" ry="11" style="stroke: #A80036; stroke-width: 1.0;"/><path d="M409.2188,36.6719 L413.7344,36.6719 L413.7344,38.625 L409.2188,38.625 L409.2188,42.9219 L414.4531,42.9219 L414.4531,44.8594 L407,44.8594 L407,31.2344 L414.125,31.2344 L414.125,33.1719 L409.2188,33.1719 L409.2188,36.6719 Z "/><text fill="#000000" font-family="sans-serif" font-size="12" lengthAdjust="spacingAndGlyphs" textLength="24" x="424.5" y="42.9102">tags</text><line style="stroke: #A80036; stroke-width: 1.5;" x1="396.5" x2="450.5" y1="54" y2="54"/><line style="stroke: #A80036; stroke-width: 1.5;" x1="396.5" x2="450.5" y1="62" y2="62"/><!--class nortifications--><rect fill="#FEFECE" filter="url(#fsx9jiqo4qqoz)" height="48" id="nortifications" style="stroke: #A80036; stroke-width: 1.5;" width="102" x="138.5" y="144"/><ellipse cx="153.5" cy="160" fill="#ADD1B2" rx="11" ry="11" style="stroke: #A80036; stroke-width: 1.0;"/><path d="M152.2188,158.6719 L156.7344,158.6719 L156.7344,160.625 L152.2188,160.625 L152.2188,164.9219 L157.4531,164.9219 L157.4531,166.8594 L150,166.8594 L150,153.2344 L157.125,153.2344 L157.125,155.1719 L152.2188,155.1719 L152.2188,158.6719 Z "/><text fill="#000000" font-family="sans-serif" font-size="12" lengthAdjust="spacingAndGlyphs" textLength="70" x="167.5" y="164.9102">nortifications</text><line style="stroke: #A80036; stroke-width: 1.5;" x1="139.5" x2="239.5" y1="176" y2="176"/><line style="stroke: #A80036; stroke-width: 1.5;" x1="139.5" x2="239.5" y1="184" y2="184"/><!--class settings--><rect fill="#FEFECE" filter="url(#fsx9jiqo4qqoz)" height="48" id="settings" style="stroke: #A80036; stroke-width: 1.5;" width="76" x="275.5" y="144"/><ellipse cx="290.5" cy="160" fill="#ADD1B2" rx="11" ry="11" style="stroke: #A80036; stroke-width: 1.0;"/><path d="M289.2188,158.6719 L293.7344,158.6719 L293.7344,160.625 L289.2188,160.625 L289.2188,164.9219 L294.4531,164.9219 L294.4531,166.8594 L287,166.8594 L287,153.2344 L294.125,153.2344 L294.125,155.1719 L289.2188,155.1719 L289.2188,158.6719 Z "/><text fill="#000000" font-family="sans-serif" font-size="12" lengthAdjust="spacingAndGlyphs" textLength="44" x="304.5" y="164.9102">settings</text><line style="stroke: #A80036; stroke-width: 1.5;" x1="276.5" x2="350.5" y1="176" y2="176"/><line style="stroke: #A80036; stroke-width: 1.5;" x1="276.5" x2="350.5" y1="184" y2="184"/><!--class userapp--><rect fill="#FEFECE" filter="url(#fsx9jiqo4qqoz)" height="48" id="userapp" style="stroke: #A80036; stroke-width: 1.5;" width="78" x="25.5" y="144"/><ellipse cx="40.5" cy="160" fill="#ADD1B2" rx="11" ry="11" style="stroke: #A80036; stroke-width: 1.0;"/><path d="M39.2188,158.6719 L43.7344,158.6719 L43.7344,160.625 L39.2188,160.625 L39.2188,164.9219 L44.4531,164.9219 L44.4531,166.8594 L37,166.8594 L37,153.2344 L44.125,153.2344 L44.125,155.1719 L39.2188,155.1719 L39.2188,158.6719 Z "/><text fill="#000000" font-family="sans-serif" font-size="12" lengthAdjust="spacingAndGlyphs" textLength="46" x="54.5" y="164.9102">userapp</text><line style="stroke: #A80036; stroke-width: 1.5;" x1="26.5" x2="102.5" y1="176" y2="176"/><line style="stroke: #A80036; stroke-width: 1.5;" x1="26.5" x2="102.5" y1="184" y2="184"/><!--class usertag--><rect fill="#FEFECE" filter="url(#fsx9jiqo4qqoz)" height="48" id="usertag" style="stroke: #A80036; stroke-width: 1.5;" width="74" x="386.5" y="144"/><ellipse cx="401.5" cy="160" fill="#ADD1B2" rx="11" ry="11" style="stroke: #A80036; stroke-width: 1.0;"/><path d="M400.2188,158.6719 L404.7344,158.6719 L404.7344,160.625 L400.2188,160.625 L400.2188,164.9219 L405.4531,164.9219 L405.4531,166.8594 L398,166.8594 L398,153.2344 L405.125,153.2344 L405.125,155.1719 L400.2188,155.1719 L400.2188,158.6719 Z "/><text fill="#000000" font-family="sans-serif" font-size="12" lengthAdjust="spacingAndGlyphs" textLength="42" x="415.5" y="164.9102">usertag</text><line style="stroke: #A80036; stroke-width: 1.5;" x1="387.5" x2="459.5" y1="176" y2="176"/><line style="stroke: #A80036; stroke-width: 1.5;" x1="387.5" x2="459.5" y1="184" y2="184"/><!--link apps to userapp--><path d="M64.5,92.6886 C64.5,106.9631 64.5,122.3852 64.5,135.4605 " fill="none" id="apps-userapp" style="stroke: #A80036; stroke-width: 1.0;"/><line style="stroke: #A80036; stroke-width: 1.0;" x1="64.5" x2="70.5" y1="135.6782" y2="143.6782"/><line style="stroke: #A80036; stroke-width: 1.0;" x1="64.5" x2="58.5" y1="135.6782" y2="143.6782"/><line style="stroke: #A80036; stroke-width: 1.0;" x1="64.5" x2="64.5" y1="135.6782" y2="143.6782"/><ellipse cx="64.5" cy="129.6782" fill="none" rx="4" ry="4" style="stroke: #A80036; stroke-width: 1.0;"/><line style="stroke: #A80036; stroke-width: 1.0;" x1="60.5" x2="68.5" y1="88.311" y2="88.311"/><line style="stroke: #A80036; stroke-width: 1.0;" x1="60.5" x2="68.5" y1="91.311" y2="91.311"/><line style="stroke: #A80036; stroke-width: 1.0;" x1="64.5" x2="64.5" y1="92.311" y2="84.311"/><!--link users to userapp--><path d="M212.526,72.01 C181.812,91.719 139.033,119.1715 107.358,139.4978 " fill="none" id="users-userapp" style="stroke: #A80036; stroke-width: 1.0;"/><line style="stroke: #A80036; stroke-width: 1.0;" x1="107.104" x2="103.6122" y1="139.6599" y2="149.0305"/><line style="stroke: #A80036; stroke-width: 1.0;" x1="107.104" x2="97.1306" y1="139.6599" y2="138.9315"/><line style="stroke: #A80036; stroke-width: 1.0;" x1="107.104" x2="100.3714" y1="139.6599" y2="143.981"/><ellipse cx="112.1535" cy="136.419" fill="none" rx="4" ry="4" style="stroke: #A80036; stroke-width: 1.0;"/><line style="stroke: #A80036; stroke-width: 1.0;" x1="213.8271" x2="218.1483" y1="66.4233" y2="73.1559"/><line style="stroke: #A80036; stroke-width: 1.0;" x1="211.3024" x2="215.6236" y1="68.0438" y2="74.7763"/><line style="stroke: #A80036; stroke-width: 1.0;" x1="212.6215" x2="219.354" y1="71.9502" y2="67.629"/><!--link tags to usertag--><path d="M423.5,78.264 C423.5,95.9327 423.5,117.9539 423.5,135.6387 " fill="none" id="tags-usertag" style="stroke: #A80036; stroke-width: 1.0;"/><line style="stroke: #A80036; stroke-width: 1.0;" x1="423.5" x2="429.5" y1="135.9338" y2="143.9338"/><line style="stroke: #A80036; stroke-width: 1.0;" x1="423.5" x2="417.5" y1="135.9338" y2="143.9338"/><line style="stroke: #A80036; stroke-width: 1.0;" x1="423.5" x2="423.5" y1="135.9338" y2="143.9338"/><ellipse cx="423.5" cy="129.9338" fill="none" rx="4" ry="4" style="stroke: #A80036; stroke-width: 1.0;"/><line style="stroke: #A80036; stroke-width: 1.0;" x1="419.5" x2="427.5" y1="74.137" y2="74.137"/><line style="stroke: #A80036; stroke-width: 1.0;" x1="419.5" x2="427.5" y1="77.137" y2="77.137"/><line style="stroke: #A80036; stroke-width: 1.0;" x1="423.5" x2="423.5" y1="78.137" y2="70.137"/><!--link users to usertag--><path d="M290.488,74.201 C318.269,93.5832 355.499,119.5574 383.505,139.0962 " fill="none" id="users-usertag" style="stroke: #A80036; stroke-width: 1.0;"/><line style="stroke: #A80036; stroke-width: 1.0;" x1="383.8545" x2="393.8486" y1="139.3391" y2="138.9968"/><line style="stroke: #A80036; stroke-width: 1.0;" x1="383.8545" x2="386.9814" y1="139.3391" y2="148.8376"/><line style="stroke: #A80036; stroke-width: 1.0;" x1="383.8545" x2="390.415" y1="139.3391" y2="143.9172"/><ellipse cx="378.9341" cy="135.9054" fill="none" rx="4" ry="4" style="stroke: #A80036; stroke-width: 1.0;"/><line style="stroke: #A80036; stroke-width: 1.0;" x1="284.8441" x2="289.4212" y1="75.1402" y2="68.5789"/><line style="stroke: #A80036; stroke-width: 1.0;" x1="287.3046" x2="291.8817" y1="76.8566" y2="70.2953"/><line style="stroke: #A80036; stroke-width: 1.0;" x1="290.4133" x2="283.852" y1="74.1481" y2="69.571"/><!--link users to nortifications--><path d="M235.77,77.445 C226.425,95.533 214.611,118.3983 205.26,136.4969 " fill="none" id="users-nortifications" style="stroke: #A80036; stroke-width: 1.0;"/><line style="stroke: #A80036; stroke-width: 1.0;" x1="205.0904" x2="206.7485" y1="136.8265" y2="146.6881"/><line style="stroke: #A80036; stroke-width: 1.0;" x1="205.0904" x2="196.0875" y1="136.8265" y2="141.1795"/><line style="stroke: #A80036; stroke-width: 1.0;" x1="205.0904" x2="201.418" y1="136.8265" y2="143.9338"/><ellipse cx="207.8446" cy="131.496" fill="none" rx="4" ry="4" style="stroke: #A80036; stroke-width: 1.0;"/><line style="stroke: #A80036; stroke-width: 1.0;" x1="234.1561" x2="241.2631" y1="71.8541" y2="75.5269"/><line style="stroke: #A80036; stroke-width: 1.0;" x1="232.7788" x2="239.8858" y1="74.5193" y2="78.1921"/><line style="stroke: #A80036; stroke-width: 1.0;" x1="235.8732" x2="239.546" y1="77.2441" y2="70.137"/><!--link users to settings--><path d="M267.23,77.445 C276.575,95.533 288.389,118.3983 297.74,136.4969 " fill="none" id="users-settings" style="stroke: #A80036; stroke-width: 1.0;"/><line style="stroke: #A80036; stroke-width: 1.0;" x1="297.9096" x2="306.9125" y1="136.8265" y2="141.1795"/><line style="stroke: #A80036; stroke-width: 1.0;" x1="297.9096" x2="296.2515" y1="136.8265" y2="146.6881"/><line style="stroke: #A80036; stroke-width: 1.0;" x1="297.9096" x2="301.582" y1="136.8265" y2="143.9338"/><ellipse cx="295.1554" cy="131.496" fill="none" rx="4" ry="4" style="stroke: #A80036; stroke-width: 1.0;"/><line style="stroke: #A80036; stroke-width: 1.0;" x1="261.7369" x2="268.8439" y1="75.5269" y2="71.8541"/><line style="stroke: #A80036; stroke-width: 1.0;" x1="263.1142" x2="270.2212" y1="78.1921" y2="74.5193"/><line style="stroke: #A80036; stroke-width: 1.0;" x1="267.1268" x2="263.454" y1="77.2441" y2="70.137"/><!--
@startuml
entity apps {
	int auto_increment aid
	- - -
	
}
entity users{

}
entity tags{

}
entity nortifications{

}
entity settings{

}
entity userapp{

}
entity usertag{

}
apps ||- -o{ userapp
users ||- -o{ userapp
tags  ||- -o{ usertag
users  ||- -o{ usertag
users  ||- -o{ nortifications
users  ||- -o{ settings
@enduml

PlantUML version 1.2019.06(Sat May 25 02:10:25 JST 2019)
(GPL source distribution)
Java Runtime: OpenJDK Runtime Environment
JVM: OpenJDK 64-Bit Server VM
Java Version: 14.0.1+7
Operating System: Windows 10
OS Version: 10.0
Default Encoding: MS932
Language: ja
Country: JP
--></g></svg>