<?xml version="1.0" encoding="UTF-8" standalone="no"?><svg xmlns="http://www.w3.org/2000/svg" xmlns:xlink="http://www.w3.org/1999/xlink" contentScriptType="application/ecmascript" contentStyleType="text/css" height="300px" preserveAspectRatio="none" style="width:951px;height:300px;" version="1.1" viewBox="0 0 951 300" width="951px" zoomAndPan="magnify"><defs><filter height="300%" id="fosam1ai28t4t" width="300%" x="-1" y="-1"><feGaussianBlur result="blurOut" stdDeviation="2.0"/><feColorMatrix in="blurOut" result="blurOut2" type="matrix" values="0 0 0 0 0 0 0 0 0 0 0 0 0 0 0 0 0 0 .4 0"/><feOffset dx="4.0" dy="4.0" in="blurOut2" result="blurOut3"/><feBlend in="SourceGraphic" in2="blurOut3" mode="normal"/></filter></defs><g><!--cluster userDetail--><polygon fill="#FFFFFF" filter="url(#fosam1ai28t4t)" points="30,84,92,84,99,107.6094,454,107.6094,454,288,30,288,30,84" style="stroke: #000000; stroke-width: 1.5;"/><line style="stroke: #000000; stroke-width: 1.5;" x1="30" x2="99" y1="107.6094" y2="107.6094"/><text fill="#000000" font-family="sans-serif" font-size="14" font-weight="bold" lengthAdjust="spacingAndGlyphs" textLength="56" x="34" y="100.5332">ユーザー</text><!--cluster nav--><polygon fill="#FFFFFF" filter="url(#fosam1ai28t4t)" points="494,84,598,84,605,107.6094,929,107.6094,929,288,494,288,494,84" style="stroke: #000000; stroke-width: 1.5;"/><line style="stroke: #000000; stroke-width: 1.5;" x1="494" x2="605" y1="107.6094" y2="107.6094"/><text fill="#000000" font-family="sans-serif" font-size="14" font-weight="bold" lengthAdjust="spacingAndGlyphs" textLength="98" x="498" y="100.5332">ナビゲーション</text><!--entity user--><rect fill="#FEFECE" filter="url(#fosam1ai28t4t)" height="37.6094" style="stroke: #A80036; stroke-width: 1.5;" width="104" x="208" y="128"/><text fill="#000000" font-family="sans-serif" font-size="14" lengthAdjust="spacingAndGlyphs" textLength="84" x="218" y="152.5332">ユーザー詳細</text><!--entity follow--><rect fill="#FEFECE" filter="url(#fosam1ai28t4t)" height="37.6094" style="stroke: #A80036; stroke-width: 1.5;" width="104" x="62" y="226"/><text fill="#000000" font-family="sans-serif" font-size="14" lengthAdjust="spacingAndGlyphs" textLength="84" x="72" y="250.5332">フォロー一覧</text><!--entity follower--><rect fill="#FEFECE" filter="url(#fosam1ai28t4t)" height="37.6094" style="stroke: #A80036; stroke-width: 1.5;" width="118" x="201" y="226"/><text fill="#000000" font-family="sans-serif" font-size="14" lengthAdjust="spacingAndGlyphs" textLength="98" x="211" y="250.5332">フォロワー一覧</text><!--entity tag--><rect fill="#FEFECE" filter="url(#fosam1ai28t4t)" height="37.6094" style="stroke: #A80036; stroke-width: 1.5;" width="76" x="354" y="226"/><text fill="#000000" font-family="sans-serif" font-size="14" lengthAdjust="spacingAndGlyphs" textLength="56" x="364" y="250.5332">タグ一覧</text><!--entity norti--><rect fill="#FEFECE" filter="url(#fosam1ai28t4t)" height="37.6094" style="stroke: #A80036; stroke-width: 1.5;" width="48" x="537" y="128"/><text fill="#000000" font-family="sans-serif" font-size="14" lengthAdjust="spacingAndGlyphs" textLength="28" x="547" y="152.5332">通知</text><!--entity profile--><rect fill="#FEFECE" filter="url(#fosam1ai28t4t)" height="37.6094" style="stroke: #A80036; stroke-width: 1.5;" width="132" x="620" y="128"/><text fill="#000000" font-family="sans-serif" font-size="14" lengthAdjust="spacingAndGlyphs" textLength="112" x="630" y="152.5332">プロフィール設定</text><!--entity account--><rect fill="#FEFECE" filter="url(#fosam1ai28t4t)" height="37.6094" style="stroke: #A80036; stroke-width: 1.5;" width="118" x="787" y="128"/><text fill="#000000" font-family="sans-serif" font-size="14" lengthAdjust="spacingAndGlyphs" textLength="98" x="797" y="152.5332">アカウント設定</text><!--entity display--><rect fill="#FEFECE" filter="url(#fosam1ai28t4t)" height="37.6094" style="stroke: #A80036; stroke-width: 1.5;" width="76" x="537" y="226"/><text fill="#000000" font-family="sans-serif" font-size="14" lengthAdjust="spacingAndGlyphs" textLength="56" x="547" y="250.5332">表示設定</text><!--entity nortiset--><rect fill="#FEFECE" filter="url(#fosam1ai28t4t)" height="37.6094" style="stroke: #A80036; stroke-width: 1.5;" width="76" x="648" y="226"/><text fill="#000000" font-family="sans-serif" font-size="14" lengthAdjust="spacingAndGlyphs" textLength="56" x="658" y="250.5332">通知設定</text><!--link user to follow--><path d="M232.539,166.057 C206.601,183.112 167.894,208.563 141.835,225.6977 " fill="none" id="user-follow" style="stroke: #A80036; stroke-width: 1.0;"/><!--link user to follower--><path d="M260,166.057 C260,183.112 260,208.563 260,225.6977 " fill="none" id="user-follower" style="stroke: #A80036; stroke-width: 1.0;"/><!--link user to tag--><path d="M284.828,166.057 C308.278,183.112 343.274,208.563 366.834,225.6977 " fill="none" id="user-tag" style="stroke: #A80036; stroke-width: 1.0;"/><!--link follow to follower--><path d="M166.184,245 C177.788,245 189.393,245 200.998,245 " fill="none" id="follow-follower" style="stroke: #A80036; stroke-width: 1.0;"/><!--link userDetail to nav--><path d="M36.4459,83.5308 C36.4776,83.3477 36.5098,83.1647 36.5424,82.9818 C36.6727,82.2502 36.81,81.5199 36.9546,80.7914 C38.1115,74.9633 39.7332,69.2501 41.9525,63.8947 C46.3911,53.1839 53.22,43.9045 63.5,38 C133.835,-2.398 356.886,-0.084 428.5,38 C453.085,51.074 470.9303,76.442 482.876,99.417 C485.8624,105.1608 488.4802,110.7549 490.7423,115.9701 C491.8733,118.5776 492.9155,121.0905 493.8704,123.4798 " fill="none" id="userDetail-nav" style="stroke: #A80036; stroke-width: 1.0;"/><!--link norti to profile--><!--link profile to account--><!--link norti to display--><!--link display to nortiset--><!--
@startuml
	package "ユーザー" as userDetail {
		agent "ユーザー詳細" as user
		agent "フォロー一覧" as follow
		agent "フォロワー一覧" as follower
		agent "タグ一覧" as tag
		user - - follow
		user - - follower
		user - - tag
		follow -right- follower
	}
	package "ナビゲーション" as nav {
		agent "通知" as norti
		agent "プロフィール設定" as profile
		agent "アカウント設定" as account
		agent "表示設定" as display
		agent "通知設定" as nortiset
		userDetail -right- nav
	}
@enduml

PlantUML version 1.2019.06(Sat May 25 02:10:25 JST 2019)
(GPL source distribution)
Java Runtime: Java(TM) SE Runtime Environment
JVM: Java HotSpot(TM) 64-Bit Server VM
Java Version: 13.0.2+8
Operating System: Windows 10
OS Version: 10.0
Default Encoding: MS932
Language: ja
Country: JP
--></g></svg>