<?xml version="1.0" encoding="UTF-8" standalone="no"?><svg xmlns="http://www.w3.org/2000/svg" xmlns:xlink="http://www.w3.org/1999/xlink" contentScriptType="application/ecmascript" contentStyleType="text/css" height="790px" preserveAspectRatio="none" style="width:792px;height:790px;" version="1.1" viewBox="0 0 792 790" width="792px" zoomAndPan="magnify"><defs><filter height="300%" id="f1cbti8yw9bhs6" width="300%" x="-1" y="-1"><feGaussianBlur result="blurOut" stdDeviation="2.0"/><feColorMatrix in="blurOut" result="blurOut2" type="matrix" values="0 0 0 0 0 0 0 0 0 0 0 0 0 0 0 0 0 0 .4 0"/><feOffset dx="4.0" dy="4.0" in="blurOut2" result="blurOut3"/><feBlend in="SourceGraphic" in2="blurOut3" mode="normal"/></filter></defs><g><rect fill="#FEFECE" filter="url(#f1cbti8yw9bhs6)" height="771.6094" rx="12.5" ry="12.5" style="stroke: #A80036; stroke-width: 1.5;" width="774" x="6" y="8"/><rect fill="#FFFFFF" height="738" rx="12.5" ry="12.5" style="stroke: #FFFFFF; stroke-width: 1.0;" width="768" x="9" y="38.6094"/><line style="stroke: #A80036; stroke-width: 1.5;" x1="6" x2="780" y1="35.6094" y2="35.6094"/><text fill="#000000" font-family="sans-serif" font-size="14" lengthAdjust="spacingAndGlyphs" textLength="70" x="358" y="27.5332">コンテンツ</text><polygon fill="#FEFECE" filter="url(#f1cbti8yw9bhs6)" points="382.187,275.6094,394.187,287.6094,382.187,299.6094,370.187,287.6094,382.187,275.6094" style="stroke: #A80036; stroke-width: 1.5;"/><rect fill="#FEFECE" filter="url(#f1cbti8yw9bhs6)" height="50" rx="12.5" ry="12.5" style="stroke: #A80036; stroke-width: 1.5;" width="99" x="332.687" y="138.6094"/><line style="stroke: #A80036; stroke-width: 1.5;" x1="332.687" x2="431.687" y1="166.2188" y2="166.2188"/><text fill="#000000" font-family="sans-serif" font-size="14" lengthAdjust="spacingAndGlyphs" textLength="79" x="342.687" y="158.1426">Aboutページ</text><rect fill="#FEFECE" filter="url(#f1cbti8yw9bhs6)" height="52.7031" rx="12.5" ry="12.5" style="stroke: #A80036; stroke-width: 1.5;" width="104" x="370.187" y="386.6094"/><line style="stroke: #A80036; stroke-width: 1.5;" x1="370.187" x2="474.187" y1="414.2188" y2="414.2188"/><text fill="#000000" font-family="sans-serif" font-size="14" lengthAdjust="spacingAndGlyphs" textLength="84" x="380.187" y="406.1426">ユーザー詳細</text><text fill="#000000" font-family="sans-serif" font-size="12" lengthAdjust="spacingAndGlyphs" textLength="60" x="375.187" y="431.6758">マイページ</text><rect fill="#FEFECE" filter="url(#f1cbti8yw9bhs6)" height="52.7031" rx="12.5" ry="12.5" style="stroke: #A80036; stroke-width: 1.5;" width="104" x="302.187" y="711.6094"/><line style="stroke: #A80036; stroke-width: 1.5;" x1="302.187" x2="406.187" y1="739.2188" y2="739.2188"/><text fill="#000000" font-family="sans-serif" font-size="14" lengthAdjust="spacingAndGlyphs" textLength="84" x="312.187" y="731.1426">ユーザー詳細</text><text fill="#000000" font-family="sans-serif" font-size="12" lengthAdjust="spacingAndGlyphs" textLength="84" x="307.187" y="756.6758">任意のユーザー</text><rect fill="#FEFECE" filter="url(#f1cbti8yw9bhs6)" height="52.7031" rx="12.5" ry="12.5" style="stroke: #A80036; stroke-width: 1.5;" width="104" x="207.187" y="386.6094"/><line style="stroke: #A80036; stroke-width: 1.5;" x1="207.187" x2="311.187" y1="414.2188" y2="414.2188"/><text fill="#000000" font-family="sans-serif" font-size="14" lengthAdjust="spacingAndGlyphs" textLength="84" x="217.187" y="406.1426">ユーザー編集</text><text fill="#000000" font-family="sans-serif" font-size="12" lengthAdjust="spacingAndGlyphs" textLength="60" x="212.187" y="431.6758">マイページ</text><rect fill="#FEFECE" filter="url(#f1cbti8yw9bhs6)" height="50" rx="12.5" ry="12.5" style="stroke: #A80036; stroke-width: 1.5;" width="104" x="206.187" y="558.6094"/><line style="stroke: #A80036; stroke-width: 1.5;" x1="206.187" x2="310.187" y1="586.2188" y2="586.2188"/><text fill="#000000" font-family="sans-serif" font-size="14" lengthAdjust="spacingAndGlyphs" textLength="84" x="216.187" y="578.1426">フォロー一覧</text><rect fill="#FEFECE" filter="url(#f1cbti8yw9bhs6)" height="50" rx="12.5" ry="12.5" style="stroke: #A80036; stroke-width: 1.5;" width="118" x="372.187" y="558.6094"/><line style="stroke: #A80036; stroke-width: 1.5;" x1="372.187" x2="490.187" y1="586.2188" y2="586.2188"/><text fill="#000000" font-family="sans-serif" font-size="14" lengthAdjust="spacingAndGlyphs" textLength="98" x="382.187" y="578.1426">フォロワー一覧</text><rect fill="#FEFECE" filter="url(#f1cbti8yw9bhs6)" height="50" rx="12.5" ry="12.5" style="stroke: #A80036; stroke-width: 1.5;" width="76" x="560.187" y="558.6094"/><line style="stroke: #A80036; stroke-width: 1.5;" x1="560.187" x2="636.187" y1="586.2188" y2="586.2188"/><text fill="#000000" font-family="sans-serif" font-size="14" lengthAdjust="spacingAndGlyphs" textLength="56" x="570.187" y="578.1426">タグ詳細</text><rect fill="#FEFECE" filter="url(#f1cbti8yw9bhs6)" height="50" rx="12.5" ry="12.5" style="stroke: #A80036; stroke-width: 1.5;" width="90" x="56.1873" y="558.6094"/><line style="stroke: #A80036; stroke-width: 1.5;" x1="56.1873" x2="146.1873" y1="586.2188" y2="586.2188"/><text fill="#000000" font-family="sans-serif" font-size="14" lengthAdjust="spacingAndGlyphs" textLength="70" x="66.1873" y="578.1426">アプリ詳細</text><rect fill="#FEFECE" filter="url(#f1cbti8yw9bhs6)" height="50" rx="12.5" ry="12.5" style="stroke: #A80036; stroke-width: 1.5;" width="90" x="24.1873" y="388.1094"/><line style="stroke: #A80036; stroke-width: 1.5;" x1="24.1873" x2="114.1873" y1="415.7188" y2="415.7188"/><text fill="#000000" font-family="sans-serif" font-size="14" lengthAdjust="spacingAndGlyphs" textLength="70" x="34.1873" y="407.6426">アプリ編集</text><ellipse cx="490.187" cy="58.6094" fill="#000000" filter="url(#f1cbti8yw9bhs6)" rx="10" ry="10" style="stroke: none; stroke-width: 1.0;"/><!--link *start*content to sc1--><path d="M480.235,60.6004 C456.053,63.2334 395.298,71.2724 383.187,86.6094 C372.975,99.5424 372.488,117.9434 374.669,133.3994 " fill="none" id="*start*content-sc1" style="stroke: #A80036; stroke-width: 1.0;"/><polygon fill="#A80036" points="375.5,138.5164,378.0054,128.9915,374.6984,133.581,370.1089,130.2741,375.5,138.5164" style="stroke: #A80036; stroke-width: 1.0;"/><text fill="#000000" font-family="sans-serif" font-size="13" lengthAdjust="spacingAndGlyphs" textLength="91" x="384.187" y="101.1045">非ログイン時、</text><text fill="#000000" font-family="sans-serif" font-size="13" lengthAdjust="spacingAndGlyphs" textLength="79" x="390.187" y="117.4561">"/"にアクセス</text><!--link *start*content to sc2.1--><path d="M491.618,68.7664 C497.223,107.3904 515.015,260.0124 465.187,368.6094 C462.95,373.4864 459.92,378.1334 456.498,382.4504 " fill="none" id="*start*content-sc2.1" style="stroke: #A80036; stroke-width: 1.0;"/><polygon fill="#A80036" points="453.257,386.3194,462.1031,381.9897,456.4682,382.4868,455.9711,376.8519,453.257,386.3194" style="stroke: #A80036; stroke-width: 1.0;"/><text fill="#000000" font-family="sans-serif" font-size="13" lengthAdjust="spacingAndGlyphs" textLength="78" x="499.687" y="229.6045">ログイン時、</text><text fill="#000000" font-family="sans-serif" font-size="13" lengthAdjust="spacingAndGlyphs" textLength="79" x="499.187" y="245.9561">"/"にアクセス</text><!--link *start*content to sc2.1.2--><path d="M500.135,60.2294 C539.229,63.2494 680.187,79.8754 680.187,162.6094 C680.187,162.6094 680.187,162.6094 680.187,584.6094 C680.187,633.5104 699.727,658.9934 665.187,693.6094 C630.615,728.2579 491.542,735.7018 411.569,737.058 " fill="none" id="*start*content-sc2.1.2" style="stroke: #A80036; stroke-width: 1.0;"/><polygon fill="#A80036" points="406.388,737.1388,415.4486,740.9994,411.3874,737.0616,415.3252,733.0004,406.388,737.1388" style="stroke: #A80036; stroke-width: 1.0;"/><text fill="#000000" font-family="sans-serif" font-size="13" lengthAdjust="spacingAndGlyphs" textLength="65" x="681.187" y="332.1045">ユーザーの</text><text fill="#000000" font-family="sans-serif" font-size="13" lengthAdjust="spacingAndGlyphs" textLength="38" x="694.687" y="348.4561">URLに</text><text fill="#000000" font-family="sans-serif" font-size="13" lengthAdjust="spacingAndGlyphs" textLength="52" x="687.687" y="364.8076">アクセス</text><!--link sc1 to choice--><path d="M382.187,188.7124 C382.187,212.8084 382.187,249.2084 382.187,270.1674 " fill="none" id="sc1-choice" style="stroke: #A80036; stroke-width: 1.0;"/><polygon fill="#A80036" points="382.187,275.3964,386.187,266.3964,382.187,270.3964,378.187,266.3964,382.187,275.3964" style="stroke: #A80036; stroke-width: 1.0;"/><text fill="#000000" font-family="sans-serif" font-size="13" lengthAdjust="spacingAndGlyphs" textLength="52" x="383.187" y="221.1045">ログイン</text><text fill="#000000" font-family="sans-serif" font-size="13" lengthAdjust="spacingAndGlyphs" textLength="52" x="383.187" y="237.4561">ボタンを</text><text fill="#000000" font-family="sans-serif" font-size="13" lengthAdjust="spacingAndGlyphs" textLength="26" x="396.187" y="253.8076">押下</text><!--link choice to sc2.1--><path d="M384.937,297.0984 C390.47,314.1824 403.192,353.4624 412.226,381.3534 " fill="none" id="choice-sc2.1" style="stroke: #A80036; stroke-width: 1.0;"/><polygon fill="#A80036" points="413.867,386.4204,414.898,376.6256,412.3258,381.6638,407.2876,379.0916,413.867,386.4204" style="stroke: #A80036; stroke-width: 1.0;"/><text fill="#000000" font-family="sans-serif" font-size="13" lengthAdjust="spacingAndGlyphs" textLength="26" x="421.187" y="340.6045">既存</text><text fill="#000000" font-family="sans-serif" font-size="13" lengthAdjust="spacingAndGlyphs" textLength="52" x="408.187" y="356.9561">ユーザー</text><!--link choice to sc2.2--><path d="M374.482,292.1844 C364.509,297.0424 346.905,306.4174 334.187,317.6094 C312.609,336.6004 292.612,362.3884 278.703,382.2274 " fill="none" id="choice-sc2.2" style="stroke: #A80036; stroke-width: 1.0;"/><polygon fill="#A80036" points="275.829,386.3654,284.2486,381.2556,278.6814,382.2588,277.6782,376.6917,275.829,386.3654" style="stroke: #A80036; stroke-width: 1.0;"/><text fill="#000000" font-family="sans-serif" font-size="13" lengthAdjust="spacingAndGlyphs" textLength="26" x="348.187" y="340.6045">新規</text><text fill="#000000" font-family="sans-serif" font-size="13" lengthAdjust="spacingAndGlyphs" textLength="52" x="335.187" y="356.9561">ユーザー</text><!--link sc2.2 to sc2.1--><path d="M300.178,441.9994 C306.622,445.3324 313.403,448.2124 320.187,450.1094 C337.737,455.0154 343.638,455.0154 361.187,450.1094 C369.537,447.7754 377.882,443.9504 385.6,439.6264 " fill="none" id="sc2.2-sc2.1" style="stroke: #A80036; stroke-width: 1.0;"/><polygon fill="#A80036" points="295.775,439.6264,301.7979,447.419,300.1758,441.9997,305.5952,440.3777,295.775,439.6264" style="stroke: #A80036; stroke-width: 1.0;"/><text fill="#000000" font-family="sans-serif" font-size="13" lengthAdjust="spacingAndGlyphs" textLength="39" x="321.187" y="430.6045">編集を</text><text fill="#000000" font-family="sans-serif" font-size="13" lengthAdjust="spacingAndGlyphs" textLength="26" x="327.687" y="446.9561">押下</text><!--link sc2.2 to sc2.1--><path d="M311.21,413.1094 C328.266,413.1094 347.312,413.1094 364.746,413.1094 " fill="none" id="sc2.2-sc2.1-1" style="stroke: #A80036; stroke-width: 1.0;"/><polygon fill="#A80036" points="370.1,413.1094,361.1,409.1094,365.1,413.1094,361.1,417.1094,370.1,413.1094" style="stroke: #A80036; stroke-width: 1.0;"/><text fill="#000000" font-family="sans-serif" font-size="13" lengthAdjust="spacingAndGlyphs" textLength="39" x="321.187" y="390.6045">更新を</text><text fill="#000000" font-family="sans-serif" font-size="13" lengthAdjust="spacingAndGlyphs" textLength="26" x="327.687" y="406.9561">押下</text><!--link sc2.1 to sc3--><path d="M371.309,439.6524 C363.646,444.9074 356.281,450.9114 350.187,457.6094 C322.63,487.8984 335.624,508.5184 310.187,540.6094 C306.166,545.6824 301.429,550.5384 296.478,555.0314 " fill="none" id="sc2.1-sc3" style="stroke: #A80036; stroke-width: 1.0;"/><polygon fill="#A80036" points="292.659,558.3944,302.0566,555.4473,296.4111,555.0895,296.7688,549.444,292.659,558.3944" style="stroke: #A80036; stroke-width: 1.0;"/><text fill="#000000" font-family="sans-serif" font-size="13" lengthAdjust="spacingAndGlyphs" textLength="65" x="351.187" y="496.6045">フォローを</text><text fill="#000000" font-family="sans-serif" font-size="13" lengthAdjust="spacingAndGlyphs" textLength="26" x="370.687" y="512.9561">押下</text><!--link sc2.1 to sc3--><path d="M364.972,428.5354 C315.782,440.9694 252.643,457.0224 252.187,457.6094 C229.937,486.2694 239.27,530.7314 248.448,558.1824 " fill="none" id="sc2.1-sc3-1" style="stroke: #A80036; stroke-width: 1.0;"/><polygon fill="#A80036" points="369.987,427.2674,360.281,425.5959,365.1396,428.4932,362.2423,433.3517,369.987,427.2674" style="stroke: #A80036; stroke-width: 1.0;"/><text fill="#000000" font-family="sans-serif" font-size="13" lengthAdjust="spacingAndGlyphs" textLength="52" x="253.187" y="496.6045">アプリを</text><text fill="#000000" font-family="sans-serif" font-size="13" lengthAdjust="spacingAndGlyphs" textLength="26" x="266.187" y="512.9561">押下</text><!--link sc2.1 to sc4--><path d="M421.037,439.8624 C420.211,465.4754 419.768,505.8564 423.187,540.6094 C423.595,544.7504 424.207,549.0924 424.916,553.3484 " fill="none" id="sc2.1-sc4" style="stroke: #A80036; stroke-width: 1.0;"/><polygon fill="#A80036" points="425.785,558.2874,428.1662,548.7307,424.9193,553.3629,420.2871,550.1159,425.785,558.2874" style="stroke: #A80036; stroke-width: 1.0;"/><text fill="#000000" font-family="sans-serif" font-size="13" lengthAdjust="spacingAndGlyphs" textLength="78" x="424.187" y="496.6045">フォロワーを</text><text fill="#000000" font-family="sans-serif" font-size="13" lengthAdjust="spacingAndGlyphs" textLength="26" x="450.187" y="512.9561">押下</text><!--link sc2.1 to sc4--><path d="M478.794,434.1614 C488.523,440.1824 497.362,447.8684 503.187,457.6094 C522.121,489.2684 521.56,508.6214 503.187,540.6094 C499.223,547.5114 493.639,553.3864 487.314,558.3564 " fill="none" id="sc2.1-sc4-1" style="stroke: #A80036; stroke-width: 1.0;"/><polygon fill="#A80036" points="474.269,431.5104,480.0131,439.5107,478.5833,434.0375,484.0565,432.6078,474.269,431.5104" style="stroke: #A80036; stroke-width: 1.0;"/><text fill="#000000" font-family="sans-serif" font-size="13" lengthAdjust="spacingAndGlyphs" textLength="52" x="517.187" y="496.6045">アプリを</text><text fill="#000000" font-family="sans-serif" font-size="13" lengthAdjust="spacingAndGlyphs" textLength="26" x="530.187" y="512.9561">押下</text><!--link sc2.1 to sc5--><path d="M474.464,415.6664 C507.668,419.5094 548.992,430.0644 574.187,457.6094 C597.776,483.3974 601.379,525.0314 600.687,553.0894 " fill="none" id="sc2.1-sc5" style="stroke: #A80036; stroke-width: 1.0;"/><polygon fill="#A80036" points="600.512,558.1634,604.8207,549.307,600.6849,553.1664,596.8255,549.0305,600.512,558.1634" style="stroke: #A80036; stroke-width: 1.0;"/><text fill="#000000" font-family="sans-serif" font-size="13" lengthAdjust="spacingAndGlyphs" textLength="39" x="601.187" y="488.1045">任意の</text><text fill="#000000" font-family="sans-serif" font-size="13" lengthAdjust="spacingAndGlyphs" textLength="39" x="601.187" y="504.4561">タグを</text><text fill="#000000" font-family="sans-serif" font-size="13" lengthAdjust="spacingAndGlyphs" textLength="26" x="607.687" y="520.8076">押下</text><!--link sc5 to sc2.1.2--><path d="M596.393,608.8304 C593.776,637.2474 587.892,681.971 576.187,693.6094 C553.445,716.2233 469.365,727.688 411.467,733.0252 " fill="none" id="sc5-sc2.1.2" style="stroke: #A80036; stroke-width: 1.0;"/><polygon fill="#A80036" points="406.298,733.4918,415.6215,736.6655,411.2777,733.0418,414.9015,728.698,406.298,733.4918" style="stroke: #A80036; stroke-width: 1.0;"/><text fill="#000000" font-family="sans-serif" font-size="13" lengthAdjust="spacingAndGlyphs" textLength="39" x="608.187" y="649.1045">任意の</text><text fill="#000000" font-family="sans-serif" font-size="13" lengthAdjust="spacingAndGlyphs" textLength="65" x="595.187" y="665.4561">ユーザーを</text><text fill="#000000" font-family="sans-serif" font-size="13" lengthAdjust="spacingAndGlyphs" textLength="26" x="614.687" y="681.8076">押下</text><!--link sc2.1 to sc6.1--><path d="M370.051,428.4984 C354.136,432.5234 336.525,436.6124 320.187,439.6094 C286.732,445.7464 194.715,436.3204 168.187,457.6094 C137.712,482.0664 159.136,507.0094 139.187,540.6094 C136.343,545.3994 132.897,550.1274 129.254,554.5844 " fill="none" id="sc2.1-sc6.1" style="stroke: #A80036; stroke-width: 1.0;"/><polygon fill="#A80036" points="125.865,558.5964,134.7285,554.3024,129.0916,554.7768,128.6172,549.1399,125.865,558.5964" style="stroke: #A80036; stroke-width: 1.0;"/><text fill="#000000" font-family="sans-serif" font-size="13" lengthAdjust="spacingAndGlyphs" textLength="39" x="182.187" y="472.1045">任意の</text><text fill="#000000" font-family="sans-serif" font-size="13" lengthAdjust="spacingAndGlyphs" textLength="39" x="182.187" y="488.4561">アプリ</text><text fill="#000000" font-family="sans-serif" font-size="13" lengthAdjust="spacingAndGlyphs" textLength="65" x="169.187" y="504.8076">アイコンか</text><text fill="#000000" font-family="sans-serif" font-size="13" lengthAdjust="spacingAndGlyphs" textLength="65" x="169.187" y="521.1592">アプリ名を</text><text fill="#000000" font-family="sans-serif" font-size="13" lengthAdjust="spacingAndGlyphs" textLength="26" x="188.687" y="537.5107">押下</text><!--link sc3 to sc2.1.2--><path d="M254.675,608.9464 C252.581,632.6464 253.063,668.6486 270.187,693.6094 C277.016,703.5629 286.848,711.3867 297.395,717.4832 " fill="none" id="sc3-sc2.1.2" style="stroke: #A80036; stroke-width: 1.0;"/><polygon fill="#A80036" points="301.953,719.9914,295.9958,712.1484,297.5722,717.5812,292.1395,719.1577,301.953,719.9914" style="stroke: #A80036; stroke-width: 1.0;"/><text fill="#000000" font-family="sans-serif" font-size="13" lengthAdjust="spacingAndGlyphs" textLength="52" x="277.687" y="641.1045">アプリか</text><text fill="#000000" font-family="sans-serif" font-size="13" lengthAdjust="spacingAndGlyphs" textLength="39" x="284.187" y="657.4561">任意の</text><text fill="#000000" font-family="sans-serif" font-size="13" lengthAdjust="spacingAndGlyphs" textLength="65" x="271.187" y="673.8076">ユーザーを</text><text fill="#000000" font-family="sans-serif" font-size="13" lengthAdjust="spacingAndGlyphs" textLength="26" x="290.687" y="690.1592">押下</text><!--link sc4 to sc2.1.2--><path d="M435.045,609.0014 C437.465,632.4124 437.664,667.9087 422.187,693.6094 C418.968,698.9557 414.811,703.7582 410.14,708.0444 " fill="none" id="sc4-sc2.1.2" style="stroke: #A80036; stroke-width: 1.0;"/><polygon fill="#A80036" points="406.105,711.524,415.5329,708.6753,409.8914,708.2585,410.3082,702.617,406.105,711.524" style="stroke: #A80036; stroke-width: 1.0;"/><text fill="#000000" font-family="sans-serif" font-size="13" lengthAdjust="spacingAndGlyphs" textLength="52" x="444.687" y="641.1045">アプリか</text><text fill="#000000" font-family="sans-serif" font-size="13" lengthAdjust="spacingAndGlyphs" textLength="39" x="451.187" y="657.4561">任意の</text><text fill="#000000" font-family="sans-serif" font-size="13" lengthAdjust="spacingAndGlyphs" textLength="65" x="438.187" y="673.8076">ユーザーを</text><text fill="#000000" font-family="sans-serif" font-size="13" lengthAdjust="spacingAndGlyphs" textLength="26" x="457.687" y="690.1592">押下</text><!--link sc3 to sc2.1.2--><path d="M207.379,612.1224 C202.932,616.4054 199.043,621.2254 196.187,626.6094 C182.234,652.9154 178.141,669.9231 196.187,693.6094 C209.119,710.5827 261.141,722.6 302.005,729.6417 " fill="none" id="sc3-sc2.1.2-1" style="stroke: #A80036; stroke-width: 1.0;"/><polygon fill="#A80036" points="211.236,608.6514,201.8712,611.7011,207.5203,611.9971,207.2243,617.6462,211.236,608.6514" style="stroke: #A80036; stroke-width: 1.0;"/><text fill="#000000" font-family="sans-serif" font-size="13" lengthAdjust="spacingAndGlyphs" textLength="52" x="197.187" y="657.6045">フォロー</text><text fill="#000000" font-family="sans-serif" font-size="13" lengthAdjust="spacingAndGlyphs" textLength="39" x="203.687" y="673.9561">を押下</text><!--link sc4 to sc2.1.2--><path d="M367.852,608.7674 C361.251,613.7114 355.421,619.6054 351.187,626.6094 C335.701,652.2304 340.202,687.659 346.082,711.4277 " fill="none" id="sc4-sc2.1.2-1" style="stroke: #A80036; stroke-width: 1.0;"/><polygon fill="#A80036" points="372.054,605.8094,362.3922,607.7198,367.9656,608.6878,366.9977,614.2612,372.054,605.8094" style="stroke: #A80036; stroke-width: 1.0;"/><text fill="#000000" font-family="sans-serif" font-size="13" lengthAdjust="spacingAndGlyphs" textLength="65" x="352.187" y="657.6045">フォロワー</text><text fill="#000000" font-family="sans-serif" font-size="13" lengthAdjust="spacingAndGlyphs" textLength="39" x="365.187" y="673.9561">を押下</text><!--link sc5 to sc2.1.2--><path d="M555.482,605.2724 C546.515,611.1664 537.787,618.2914 531.187,626.6094 C511.618,651.2714 531.057,671.9721 508.187,693.6094 C480.841,719.4812 439.3,730.152 406.251,734.4654 " fill="none" id="sc5-sc2.1.2-1" style="stroke: #A80036; stroke-width: 1.0;"/><polygon fill="#A80036" points="559.895,602.4774,550.1512,603.9118,555.6704,605.1519,554.4303,610.6711,559.895,602.4774" style="stroke: #A80036; stroke-width: 1.0;"/><text fill="#000000" font-family="sans-serif" font-size="13" lengthAdjust="spacingAndGlyphs" textLength="39" x="532.187" y="649.1045">任意の</text><text fill="#000000" font-family="sans-serif" font-size="13" lengthAdjust="spacingAndGlyphs" textLength="39" x="532.187" y="665.4561">タグを</text><text fill="#000000" font-family="sans-serif" font-size="13" lengthAdjust="spacingAndGlyphs" textLength="26" x="538.687" y="681.8076">押下</text><!--link sc6.1 to sc2.1.2--><path d="M99.6907,613.7364 C100.0979,638.4644 104.9137,673.1074 126.187,693.6094 C150.778,717.3084 242.758,728.6947 302.109,733.6836 " fill="none" id="sc6.1-sc2.1.2" style="stroke: #A80036; stroke-width: 1.0;"/><polygon fill="#A80036" points="99.6664,608.6184,95.7076,617.6366,99.6893,613.6183,103.7075,617.6,99.6664,608.6184" style="stroke: #A80036; stroke-width: 1.0;"/><text fill="#000000" font-family="sans-serif" font-size="13" lengthAdjust="spacingAndGlyphs" textLength="39" x="133.687" y="649.1045">任意の</text><text fill="#000000" font-family="sans-serif" font-size="13" lengthAdjust="spacingAndGlyphs" textLength="52" x="127.187" y="665.4561">アプリを</text><text fill="#000000" font-family="sans-serif" font-size="13" lengthAdjust="spacingAndGlyphs" textLength="26" x="140.187" y="681.8076">押下</text><!--link sc6.1 to sc2.1.2--><path d="M56.1747,601.8594 C45.8402,608.0454 36.1472,616.1594 30.1873,626.6094 C15.4351,652.4764 10.5822,671.1962 30.1873,693.6094 C64.1338,732.4181 213.106,738.0508 296.725,738.0511 " fill="none" id="sc6.1-sc2.1.2-1" style="stroke: #A80036; stroke-width: 1.0;"/><polygon fill="#A80036" points="301.89,738.044,292.8854,734.0543,296.89,738.0497,292.8946,742.0543,301.89,738.044" style="stroke: #A80036; stroke-width: 1.0;"/><text fill="#000000" font-family="sans-serif" font-size="13" lengthAdjust="spacingAndGlyphs" textLength="39" x="44.1873" y="649.1045">任意の</text><text fill="#000000" font-family="sans-serif" font-size="13" lengthAdjust="spacingAndGlyphs" textLength="65" x="31.1873" y="665.4561">ユーザーを</text><text fill="#000000" font-family="sans-serif" font-size="13" lengthAdjust="spacingAndGlyphs" textLength="26" x="50.6873" y="681.8076">押下</text><!--link sc6.2 to sc6.1--><path d="M76.1603,443.4964 C77.2154,448.2074 78.2599,453.0364 79.1873,457.6094 C86.2822,492.5934 93.2076,533.3574 97.3368,558.5764 " fill="none" id="sc6.2-sc6.1" style="stroke: #A80036; stroke-width: 1.0;"/><polygon fill="#A80036" points="75.0163,438.4484,73.1029,448.1096,76.1206,443.3249,80.9053,446.3426,75.0163,438.4484" style="stroke: #A80036; stroke-width: 1.0;"/><text fill="#000000" font-family="sans-serif" font-size="13" lengthAdjust="spacingAndGlyphs" textLength="39" x="95.1873" y="496.6045">編集を</text><text fill="#000000" font-family="sans-serif" font-size="13" lengthAdjust="spacingAndGlyphs" textLength="26" x="101.6873" y="512.9561">押下</text><!--link sc6.2 to sc6.1--><path d="M44.8846,438.5484 C40.5012,444.3554 36.5711,450.8444 34.1873,457.6094 C21.9282,492.4014 16.3264,508.3324 34.1873,540.6094 C38.3708,548.1694 44.5469,554.5504 51.483,559.8764 " fill="none" id="sc6.2-sc6.1-1" style="stroke: #A80036; stroke-width: 1.0;"/><polygon fill="#A80036" points="55.8889,563.0564,50.9339,554.5448,51.8352,560.1293,46.2506,561.0307,55.8889,563.0564" style="stroke: #A80036; stroke-width: 1.0;"/><text fill="#000000" font-family="sans-serif" font-size="13" lengthAdjust="spacingAndGlyphs" textLength="39" x="35.1873" y="496.6045">更新を</text><text fill="#000000" font-family="sans-serif" font-size="13" lengthAdjust="spacingAndGlyphs" textLength="26" x="41.6873" y="512.9561">押下</text><!--
@startuml
	state "コンテンツ" as content {
		state choice <<choice>>
		state "Aboutページ" as sc1
		state "ユーザー詳細" as sc2.1 : マイページ
		state "ユーザー詳細" as sc2.1.2 : 任意のユーザー
		state "ユーザー編集" as sc2.2 : マイページ
		state "フォロー一覧" as sc3
		state "フォロワー一覧" as sc4
		state "タグ詳細" as sc5
		state "アプリ詳細" as sc6.1
		state "アプリ編集" as sc6.2
		[*] -down-> sc1 : 非ログイン時、\n"/"にアクセス
		[*] -down-> sc2.1 : ログイン時、\n"/"にアクセス
		[*] -down-> sc2.1.2 : ユーザーの\nURLに\nアクセス
		sc1 -down-> choice : ログイン\nボタンを\n押下
		choice -down-> sc2.1 : 既存\nユーザー
		choice -down-> sc2.2 : 新規\nユーザー
		sc2.1 -left-> sc2.2 : 編集を\n押下
		sc2.2 -right-> sc2.1 : 更新を\n押下
		sc2.1 -down-> sc3 : フォローを\n押下
		sc3 -up-> sc2.1 : アプリを\n押下
		sc2.1 -down-> sc4 : フォロワーを\n押下
		sc4 -up-> sc2.1 : アプリを\n押下
		sc2.1 -down-> sc5 : 任意の\nタグを\n押下
		sc5 -down-> sc2.1.2 : 任意の\nユーザーを\n押下
		sc2.1 -down-> sc6.1 : 任意の\nアプリ\nアイコンか\nアプリ名を\n押下
		sc3 -down-> sc2.1.2 : アプリか\n任意の\nユーザーを\n押下
		sc4 -down-> sc2.1.2 : アプリか\n任意の\nユーザーを\n押下
		sc2.1.2 -up-> sc3 : フォロー\nを押下
		sc2.1.2 -up-> sc4 : フォロワー\nを押下
		sc2.1.2 -up-> sc5 : 任意の\nタグを\n押下
		sc2.1.2 -up-> sc6.1 : 任意の\nアプリを\n押下
		sc6.1 -down-> sc2.1.2 : 任意の\nユーザーを\n押下
		sc6.1 -up-> sc6.2 : 編集を\n押下
		sc6.2 -down-> sc6.1 : 更新を\n押下
	}
@enduml

PlantUML version 1.2019.06(Sat May 25 02:10:25 JST 2019)
(GPL source distribution)
Java Runtime: OpenJDK Runtime Environment
JVM: OpenJDK 64-Bit Server VM
Java Version: 14.0.2+12-46
Operating System: Windows 10
OS Version: 10.0
Default Encoding: MS932
Language: ja
Country: JP
--></g></svg>