<?xml version="1.0" encoding="UTF-8" standalone="no"?><svg xmlns="http://www.w3.org/2000/svg" xmlns:xlink="http://www.w3.org/1999/xlink" contentScriptType="application/ecmascript" contentStyleType="text/css" height="597px" preserveAspectRatio="none" style="width:555px;height:597px;" version="1.1" viewBox="0 0 555 597" width="555px" zoomAndPan="magnify"><defs><filter height="300%" id="f4aeq1wts143b" width="300%" x="-1" y="-1"><feGaussianBlur result="blurOut" stdDeviation="2.0"/><feColorMatrix in="blurOut" result="blurOut2" type="matrix" values="0 0 0 0 0 0 0 0 0 0 0 0 0 0 0 0 0 0 .4 0"/><feOffset dx="4.0" dy="4.0" in="blurOut2" result="blurOut3"/><feBlend in="SourceGraphic" in2="blurOut3" mode="normal"/></filter></defs><g><!--cluster Login--><polygon fill="#FFFFFF" filter="url(#f4aeq1wts143b)" points="22,61,67,61,74,84.6094,533,84.6094,533,585,22,585,22,61" style="stroke: #000000; stroke-width: 1.5;"/><line style="stroke: #000000; stroke-width: 1.5;" x1="22" x2="74" y1="84.6094" y2="84.6094"/><text fill="#000000" font-family="sans-serif" font-size="14" font-weight="bold" lengthAdjust="spacingAndGlyphs" textLength="39" x="26" y="77.5332">Login</text><!--cluster UILayer--><rect fill="#FFFFFF" filter="url(#f4aeq1wts143b)" height="100" style="stroke: #000000; stroke-width: 1.5;" width="154" x="355" y="105"/><text fill="#000000" font-family="sans-serif" font-size="14" font-weight="bold" lengthAdjust="spacingAndGlyphs" textLength="52" x="406" y="121.5332">UILayer</text><!--cluster AppLayer--><rect fill="#FFFFFF" filter="url(#f4aeq1wts143b)" height="100" style="stroke: #000000; stroke-width: 1.5;" width="285" x="46" y="105"/><text fill="#000000" font-family="sans-serif" font-size="14" font-weight="bold" lengthAdjust="spacingAndGlyphs" textLength="65" x="156" y="121.5332">AppLayer</text><!--cluster DomainLayer--><rect fill="#FFFFFF" filter="url(#f4aeq1wts143b)" height="208" style="stroke: #000000; stroke-width: 1.5;" width="310" x="51" y="229"/><text fill="#000000" font-family="sans-serif" font-size="14" font-weight="bold" lengthAdjust="spacingAndGlyphs" textLength="90" x="161" y="245.5332">DomainLayer</text><!--cluster InfrastructureLayer--><rect fill="#FFFFFF" filter="url(#f4aeq1wts143b)" height="100" style="stroke: #000000; stroke-width: 1.5;" width="347" x="104" y="461"/><text fill="#000000" font-family="sans-serif" font-size="14" font-weight="bold" lengthAdjust="spacingAndGlyphs" textLength="135" x="210" y="477.5332">InfrastructureLayer</text><!--class LoginViewModel--><rect fill="#FEFECE" filter="url(#f4aeq1wts143b)" height="48" id="LoginViewModel" style="stroke: #A80036; stroke-width: 1.5;" width="122" x="371" y="141"/><ellipse cx="386" cy="157" fill="#ADD1B2" rx="11" ry="11" style="stroke: #A80036; stroke-width: 1.0;"/><path d="M388.7031,162.4375 Q387.7813,163.3594 385.5156,163.3594 Q384.25,163.3594 383.3281,162.4375 Q381.6719,160.7813 381.6719,157.25 Q381.6719,153.1406 383.4531,151.3438 Q384.3906,150.4219 385.5781,150.4219 Q387.8438,150.4219 388.5781,151.1406 Q389.9688,152.5469 389.9063,154.9375 L387.4375,154.9375 Q387.375,152.8125 386.6406,152.0781 Q386.25,151.6719 385.5781,151.6719 Q385.5781,151.6719 385.5156,152.1406 Q384.1875,153.4688 384.1875,157.125 Q384.1875,160.3125 385.3281,161.4375 Q385.8594,161.9688 385.8594,161.9688 Q386.1094,161.9688 386.6406,161.4375 Q387.3125,160.7813 387.375,158.3906 L389.9688,158.3906 Q389.7656,161.375 388.7031,162.4375 Z "/><text fill="#000000" font-family="sans-serif" font-size="12" lengthAdjust="spacingAndGlyphs" textLength="90" x="400" y="161.9102">LoginViewModel</text><line style="stroke: #A80036; stroke-width: 1.5;" x1="372" x2="492" y1="173" y2="173"/><line style="stroke: #A80036; stroke-width: 1.5;" x1="372" x2="492" y1="181" y2="181"/><!--class LoginController--><rect fill="#FEFECE" filter="url(#f4aeq1wts143b)" height="48" id="LoginController" style="stroke: #A80036; stroke-width: 1.5;" width="117" x="62.5" y="141"/><ellipse cx="77.5" cy="157" fill="#ADD1B2" rx="11" ry="11" style="stroke: #A80036; stroke-width: 1.0;"/><path d="M80.2031,162.4375 Q79.2813,163.3594 77.0156,163.3594 Q75.75,163.3594 74.8281,162.4375 Q73.1719,160.7813 73.1719,157.25 Q73.1719,153.1406 74.9531,151.3438 Q75.8906,150.4219 77.0781,150.4219 Q79.3438,150.4219 80.0781,151.1406 Q81.4688,152.5469 81.4063,154.9375 L78.9375,154.9375 Q78.875,152.8125 78.1406,152.0781 Q77.75,151.6719 77.0781,151.6719 Q77.0781,151.6719 77.0156,152.1406 Q75.6875,153.4688 75.6875,157.125 Q75.6875,160.3125 76.8281,161.4375 Q77.3594,161.9688 77.3594,161.9688 Q77.6094,161.9688 78.1406,161.4375 Q78.8125,160.7813 78.875,158.3906 L81.4688,158.3906 Q81.2656,161.375 80.2031,162.4375 Z "/><text fill="#000000" font-family="sans-serif" font-size="12" lengthAdjust="spacingAndGlyphs" textLength="85" x="91.5" y="161.9102">LoginController</text><line style="stroke: #A80036; stroke-width: 1.5;" x1="63.5" x2="178.5" y1="173" y2="173"/><line style="stroke: #A80036; stroke-width: 1.5;" x1="63.5" x2="178.5" y1="181" y2="181"/><!--class LoginHelper--><rect fill="#FEFECE" filter="url(#f4aeq1wts143b)" height="48" id="LoginHelper" style="stroke: #A80036; stroke-width: 1.5;" width="100" x="215" y="141"/><ellipse cx="230" cy="157" fill="#ADD1B2" rx="11" ry="11" style="stroke: #A80036; stroke-width: 1.0;"/><path d="M232.7031,162.4375 Q231.7813,163.3594 229.5156,163.3594 Q228.25,163.3594 227.3281,162.4375 Q225.6719,160.7813 225.6719,157.25 Q225.6719,153.1406 227.4531,151.3438 Q228.3906,150.4219 229.5781,150.4219 Q231.8438,150.4219 232.5781,151.1406 Q233.9688,152.5469 233.9063,154.9375 L231.4375,154.9375 Q231.375,152.8125 230.6406,152.0781 Q230.25,151.6719 229.5781,151.6719 Q229.5781,151.6719 229.5156,152.1406 Q228.1875,153.4688 228.1875,157.125 Q228.1875,160.3125 229.3281,161.4375 Q229.8594,161.9688 229.8594,161.9688 Q230.1094,161.9688 230.6406,161.4375 Q231.3125,160.7813 231.375,158.3906 L233.9688,158.3906 Q233.7656,161.375 232.7031,162.4375 Z "/><text fill="#000000" font-family="sans-serif" font-size="12" lengthAdjust="spacingAndGlyphs" textLength="68" x="244" y="161.9102">LoginHelper</text><line style="stroke: #A80036; stroke-width: 1.5;" x1="216" x2="314" y1="173" y2="173"/><line style="stroke: #A80036; stroke-width: 1.5;" x1="216" x2="314" y1="181" y2="181"/><!--class LoginServiceIF--><rect fill="#FEFECE" filter="url(#f4aeq1wts143b)" height="48" id="LoginServiceIF" style="stroke: #A80036; stroke-width: 1.5;" width="115" x="67.5" y="265"/><ellipse cx="82.5" cy="281" fill="#B4A7E5" rx="11" ry="11" style="stroke: #A80036; stroke-width: 1.0;"/><path d="M83.4844,285.9063 L84.2188,285.9063 L84.2188,287.3594 L80.2188,287.3594 L80.2188,285.9063 L80.9531,285.9063 L80.9531,275.875 L80.2188,275.875 L80.2188,274.4219 L84.2188,274.4219 L84.2188,275.875 L83.4844,275.875 L83.4844,285.9063 Z "/><text fill="#000000" font-family="sans-serif" font-size="12" font-style="italic" lengthAdjust="spacingAndGlyphs" textLength="83" x="96.5" y="285.9102">LoginServiceIF</text><line style="stroke: #A80036; stroke-width: 1.5;" x1="68.5" x2="181.5" y1="297" y2="297"/><line style="stroke: #A80036; stroke-width: 1.5;" x1="68.5" x2="181.5" y1="305" y2="305"/><!--class LoginServiceImpl--><rect fill="#FEFECE" filter="url(#f4aeq1wts143b)" height="48" id="LoginServiceImpl" style="stroke: #A80036; stroke-width: 1.5;" width="127" x="217.5" y="265"/><ellipse cx="232.5" cy="281" fill="#ADD1B2" rx="11" ry="11" style="stroke: #A80036; stroke-width: 1.0;"/><path d="M235.2031,286.4375 Q234.2813,287.3594 232.0156,287.3594 Q230.75,287.3594 229.8281,286.4375 Q228.1719,284.7813 228.1719,281.25 Q228.1719,277.1406 229.9531,275.3438 Q230.8906,274.4219 232.0781,274.4219 Q234.3438,274.4219 235.0781,275.1406 Q236.4688,276.5469 236.4063,278.9375 L233.9375,278.9375 Q233.875,276.8125 233.1406,276.0781 Q232.75,275.6719 232.0781,275.6719 Q232.0781,275.6719 232.0156,276.1406 Q230.6875,277.4688 230.6875,281.125 Q230.6875,284.3125 231.8281,285.4375 Q232.3594,285.9688 232.3594,285.9688 Q232.6094,285.9688 233.1406,285.4375 Q233.8125,284.7813 233.875,282.3906 L236.4688,282.3906 Q236.2656,285.375 235.2031,286.4375 Z "/><text fill="#000000" font-family="sans-serif" font-size="12" lengthAdjust="spacingAndGlyphs" textLength="95" x="246.5" y="285.9102">LoginServiceImpl</text><line style="stroke: #A80036; stroke-width: 1.5;" x1="218.5" x2="343.5" y1="297" y2="297"/><line style="stroke: #A80036; stroke-width: 1.5;" x1="218.5" x2="343.5" y1="305" y2="305"/><!--class LoginDomain--><rect fill="#FEFECE" filter="url(#f4aeq1wts143b)" height="48" id="LoginDomain" style="stroke: #A80036; stroke-width: 1.5;" width="107" x="73.5" y="373"/><ellipse cx="88.5" cy="389" fill="#ADD1B2" rx="11" ry="11" style="stroke: #A80036; stroke-width: 1.0;"/><path d="M91.2031,394.4375 Q90.2813,395.3594 88.0156,395.3594 Q86.75,395.3594 85.8281,394.4375 Q84.1719,392.7813 84.1719,389.25 Q84.1719,385.1406 85.9531,383.3438 Q86.8906,382.4219 88.0781,382.4219 Q90.3438,382.4219 91.0781,383.1406 Q92.4688,384.5469 92.4063,386.9375 L89.9375,386.9375 Q89.875,384.8125 89.1406,384.0781 Q88.75,383.6719 88.0781,383.6719 Q88.0781,383.6719 88.0156,384.1406 Q86.6875,385.4688 86.6875,389.125 Q86.6875,392.3125 87.8281,393.4375 Q88.3594,393.9688 88.3594,393.9688 Q88.6094,393.9688 89.1406,393.4375 Q89.8125,392.7813 89.875,390.3906 L92.4688,390.3906 Q92.2656,393.375 91.2031,394.4375 Z "/><text fill="#000000" font-family="sans-serif" font-size="12" lengthAdjust="spacingAndGlyphs" textLength="75" x="102.5" y="393.9102">LoginDomain</text><line style="stroke: #A80036; stroke-width: 1.5;" x1="74.5" x2="179.5" y1="405" y2="405"/><line style="stroke: #A80036; stroke-width: 1.5;" x1="74.5" x2="179.5" y1="413" y2="413"/><!--class LoginRepositoryIF--><rect fill="#FEFECE" filter="url(#f4aeq1wts143b)" height="48" id="LoginRepositoryIF" style="stroke: #A80036; stroke-width: 1.5;" width="133" x="120.5" y="497"/><ellipse cx="135.5" cy="513" fill="#B4A7E5" rx="11" ry="11" style="stroke: #A80036; stroke-width: 1.0;"/><path d="M136.4844,517.9063 L137.2188,517.9063 L137.2188,519.3594 L133.2188,519.3594 L133.2188,517.9063 L133.9531,517.9063 L133.9531,507.875 L133.2188,507.875 L133.2188,506.4219 L137.2188,506.4219 L137.2188,507.875 L136.4844,507.875 L136.4844,517.9063 Z "/><text fill="#000000" font-family="sans-serif" font-size="12" font-style="italic" lengthAdjust="spacingAndGlyphs" textLength="101" x="149.5" y="517.9102">LoginRepositoryIF</text><line style="stroke: #A80036; stroke-width: 1.5;" x1="121.5" x2="252.5" y1="529" y2="529"/><line style="stroke: #A80036; stroke-width: 1.5;" x1="121.5" x2="252.5" y1="537" y2="537"/><!--class LoginRepositoryImpl--><rect fill="#FEFECE" filter="url(#f4aeq1wts143b)" height="48" id="LoginRepositoryImpl" style="stroke: #A80036; stroke-width: 1.5;" width="146" x="289" y="497"/><ellipse cx="304" cy="513" fill="#ADD1B2" rx="11" ry="11" style="stroke: #A80036; stroke-width: 1.0;"/><path d="M306.7031,518.4375 Q305.7813,519.3594 303.5156,519.3594 Q302.25,519.3594 301.3281,518.4375 Q299.6719,516.7813 299.6719,513.25 Q299.6719,509.1406 301.4531,507.3438 Q302.3906,506.4219 303.5781,506.4219 Q305.8438,506.4219 306.5781,507.1406 Q307.9688,508.5469 307.9063,510.9375 L305.4375,510.9375 Q305.375,508.8125 304.6406,508.0781 Q304.25,507.6719 303.5781,507.6719 Q303.5781,507.6719 303.5156,508.1406 Q302.1875,509.4688 302.1875,513.125 Q302.1875,516.3125 303.3281,517.4375 Q303.8594,517.9688 303.8594,517.9688 Q304.1094,517.9688 304.6406,517.4375 Q305.3125,516.7813 305.375,514.3906 L307.9688,514.3906 Q307.7656,517.375 306.7031,518.4375 Z "/><text fill="#000000" font-family="sans-serif" font-size="12" lengthAdjust="spacingAndGlyphs" textLength="114" x="318" y="517.9102">LoginRepositoryImpl</text><line style="stroke: #A80036; stroke-width: 1.5;" x1="290" x2="434" y1="529" y2="529"/><line style="stroke: #A80036; stroke-width: 1.5;" x1="290" x2="434" y1="537" y2="537"/><!--link LoginViewModel to LoginController--><path d="M420.416,140.8 C402.751,107.079 365.558,47.361 313.5,23 C273.648,4.351 253.234,2.128 214.5,23 C170.168,46.889 143.398,102.005 130.471,136.116 " fill="none" id="LoginViewModel-LoginController" style="stroke: #A80036; stroke-width: 1.0;"/><polygon fill="#A80036" points="128.664,140.991,135.5443,133.9439,130.4029,136.3031,128.0436,131.1617,128.664,140.991" style="stroke: #A80036; stroke-width: 1.0;"/><!--link LoginController to LoginHelper--><path d="M179.5,165 C189.549,165 199.598,165 209.647,165 " fill="none" id="LoginController-LoginHelper" style="stroke: #A80036; stroke-width: 1.0;"/><polygon fill="#A80036" points="214.902,165,205.902,161,209.902,165,205.902,169,214.902,165" style="stroke: #A80036; stroke-width: 1.0;"/><!--link LoginHelper to LoginServiceIF--><path d="M237.345,189.12 C225.748,198.887 212.159,210.428 200,221 C184.825,234.194 168.124,249.077 154.342,261.459 " fill="none" id="LoginHelper-LoginServiceIF" style="stroke: #A80036; stroke-width: 1.0;"/><polygon fill="#A80036" points="150.535,264.882,159.9016,261.8379,154.2527,261.5385,154.552,255.8896,150.535,264.882" style="stroke: #A80036; stroke-width: 1.0;"/><!--link LoginController to LoginServiceIF--><path d="M121.762,189.234 C122.418,209.247 123.367,238.2 124.068,259.588 " fill="none" id="LoginController-LoginServiceIF" style="stroke: #A80036; stroke-width: 1.0;"/><polygon fill="#A80036" points="124.241,264.852,127.9431,255.7254,124.0767,259.8547,119.9474,255.9883,124.241,264.852" style="stroke: #A80036; stroke-width: 1.0;"/><!--link LoginServiceIF to LoginDomain--><path d="M125.434,313 C125.767,330.658 126.225,354.941 126.56,372.678 " fill="none" id="LoginServiceIF-LoginDomain" style="stroke: #A80036; stroke-width: 1.0; stroke-dasharray: 7.0,7.0;"/><!--link LoginServiceIF to LoginServiceImpl--><path d="M202.588,289 C207.454,289 212.319,289 217.185,289 " fill="none" id="LoginServiceIF-LoginServiceImpl" style="stroke: #A80036; stroke-width: 1.0;"/><polygon fill="none" points="202.586,296,182.586,289,202.586,282,202.586,296" style="stroke: #A80036; stroke-width: 1.0;"/><!--link LoginDomain to LoginRepositoryIF--><path d="M138.427,421.234 C149.103,442.943 164.953,475.172 175.616,496.852 " fill="none" id="LoginDomain-LoginRepositoryIF" style="stroke: #A80036; stroke-width: 1.0; stroke-dasharray: 7.0,7.0;"/><!--link LoginServiceImpl to LoginRepositoryIF--><path d="M271.469,313.319 C254.041,355.963 217.108,446.332 198.388,492.136 " fill="none" id="LoginServiceImpl-LoginRepositoryIF" style="stroke: #A80036; stroke-width: 1.0;"/><polygon fill="#A80036" points="196.416,496.961,203.5251,490.1448,198.3086,492.333,196.1203,487.1166,196.416,496.961" style="stroke: #A80036; stroke-width: 1.0;"/><!--link LoginRepositoryIF to LoginRepositoryImpl--><path d="M273.685,521 C278.716,521 283.748,521 288.779,521 " fill="none" id="LoginRepositoryIF-LoginRepositoryImpl" style="stroke: #A80036; stroke-width: 1.0;"/><polygon fill="none" points="273.65,527.9999,253.65,521,273.65,513.9999,273.65,527.9999" style="stroke: #A80036; stroke-width: 1.0;"/><!--
@startuml
Package Login {
    package UILayer <<Rectangle>>{
        class LoginViewModel
    }
    package AppLayer <<Rectangle>>{
        class LoginController
        class LoginHelper
        LoginController <-right- LoginViewModel
        LoginController -right-> LoginHelper
    }
    package DomainLayer <<Rectangle>>{
        interface LoginServiceIF
        class LoginServiceImpl
        class LoginDomain
        LoginHelper -down-> LoginServiceIF
        LoginController -down-> LoginServiceIF
        LoginServiceIF .down. LoginDomain
        LoginServiceIF <|-right- LoginServiceImpl
    }
    package InfrastructureLayer <<Rectangle>>{
        interface LoginRepositoryIF
        class LoginRepositoryImpl
        LoginDomain .down. LoginRepositoryIF
        LoginServiceImpl -down-> LoginRepositoryIF
        LoginRepositoryIF <|-right- LoginRepositoryImpl
    }
}
@enduml

PlantUML version 1.2019.06(Sat May 25 02:10:25 JST 2019)
(GPL source distribution)
Java Runtime: Java(TM) SE Runtime Environment
JVM: Java HotSpot(TM) 64-Bit Server VM
Java Version: 1.8.0_231-b11
Operating System: Windows 10
OS Version: 10.0
Default Encoding: MS932
Language: ja
Country: JP
--></g></svg>