<?xml version="1.0" encoding="UTF-8" standalone="no"?><svg xmlns="http://www.w3.org/2000/svg" xmlns:xlink="http://www.w3.org/1999/xlink" contentScriptType="application/ecmascript" contentStyleType="text/css" height="521px" preserveAspectRatio="none" style="width:763px;height:521px;" version="1.1" viewBox="0 0 763 521" width="763px" zoomAndPan="magnify"><defs><filter height="300%" id="fhu2kr2qpgo2" width="300%" x="-1" y="-1"><feGaussianBlur result="blurOut" stdDeviation="2.0"/><feColorMatrix in="blurOut" result="blurOut2" type="matrix" values="0 0 0 0 0 0 0 0 0 0 0 0 0 0 0 0 0 0 .4 0"/><feOffset dx="4.0" dy="4.0" in="blurOut2" result="blurOut3"/><feBlend in="SourceGraphic" in2="blurOut3" mode="normal"/></filter></defs><g><rect fill="#FEFECE" filter="url(#fhu2kr2qpgo2)" height="502.6094" rx="12.5" ry="12.5" style="stroke: #A80036; stroke-width: 1.5;" width="745" x="6" y="8"/><rect fill="#FFFFFF" height="469" rx="12.5" ry="12.5" style="stroke: #FFFFFF; stroke-width: 1.0;" width="739" x="9" y="38.6094"/><line style="stroke: #A80036; stroke-width: 1.5;" x1="6" x2="751" y1="35.6094" y2="35.6094"/><text fill="#000000" font-family="sans-serif" font-size="14" lengthAdjust="spacingAndGlyphs" textLength="56" x="350.5" y="27.5332">ヘッダー</text><rect fill="#FEFECE" filter="url(#fhu2kr2qpgo2)" height="50" rx="12.5" ry="12.5" style="stroke: #A80036; stroke-width: 1.5;" width="57" x="571.5" y="187.1094"/><line style="stroke: #A80036; stroke-width: 1.5;" x1="571.5" x2="628.5" y1="214.7188" y2="214.7188"/><text fill="#000000" font-family="sans-serif" font-size="14" lengthAdjust="spacingAndGlyphs" textLength="37" x="581.5" y="206.6426">About</text><rect fill="#FEFECE" filter="url(#fhu2kr2qpgo2)" height="52.7031" rx="12.5" ry="12.5" style="stroke: #A80036; stroke-width: 1.5;" width="104" x="210" y="185.6094"/><line style="stroke: #A80036; stroke-width: 1.5;" x1="210" x2="314" y1="213.2188" y2="213.2188"/><text fill="#000000" font-family="sans-serif" font-size="14" lengthAdjust="spacingAndGlyphs" textLength="84" x="220" y="205.1426">ユーザー詳細</text><text fill="#000000" font-family="sans-serif" font-size="12" lengthAdjust="spacingAndGlyphs" textLength="60" x="215" y="230.6758">マイページ</text><rect fill="#FEFECE" filter="url(#fhu2kr2qpgo2)" height="50" rx="12.5" ry="12.5" style="stroke: #A80036; stroke-width: 1.5;" width="76" x="345" y="48.6094"/><line style="stroke: #A80036; stroke-width: 1.5;" x1="345" x2="421" y1="76.2188" y2="76.2188"/><text fill="#000000" font-family="sans-serif" font-size="14" lengthAdjust="spacingAndGlyphs" textLength="56" x="355" y="68.1426">通知詳細</text><rect fill="#FEFECE" filter="url(#fhu2kr2qpgo2)" height="50" rx="12.5" ry="12.5" style="stroke: #A80036; stroke-width: 1.5;" width="76" x="345" y="308.6094"/><line style="stroke: #A80036; stroke-width: 1.5;" x1="345" x2="421" y1="336.2188" y2="336.2188"/><text fill="#000000" font-family="sans-serif" font-size="14" lengthAdjust="spacingAndGlyphs" textLength="56" x="355" y="328.1426">設定一覧</text><rect fill="#FEFECE" filter="url(#fhu2kr2qpgo2)" height="50" rx="12.5" ry="12.5" style="stroke: #A80036; stroke-width: 1.5;" width="132" x="17" y="445.6094"/><line style="stroke: #A80036; stroke-width: 1.5;" x1="17" x2="149" y1="473.2188" y2="473.2188"/><text fill="#000000" font-family="sans-serif" font-size="14" lengthAdjust="spacingAndGlyphs" textLength="112" x="27" y="465.1426">プロフィール設定</text><rect fill="#FEFECE" filter="url(#fhu2kr2qpgo2)" height="50" rx="12.5" ry="12.5" style="stroke: #A80036; stroke-width: 1.5;" width="118" x="222" y="445.6094"/><line style="stroke: #A80036; stroke-width: 1.5;" x1="222" x2="340" y1="473.2188" y2="473.2188"/><text fill="#000000" font-family="sans-serif" font-size="14" lengthAdjust="spacingAndGlyphs" textLength="98" x="232" y="465.1426">アカウント設定</text><rect fill="#FEFECE" filter="url(#fhu2kr2qpgo2)" height="50" rx="12.5" ry="12.5" style="stroke: #A80036; stroke-width: 1.5;" width="76" x="430" y="445.6094"/><line style="stroke: #A80036; stroke-width: 1.5;" x1="430" x2="506" y1="473.2188" y2="473.2188"/><text fill="#000000" font-family="sans-serif" font-size="14" lengthAdjust="spacingAndGlyphs" textLength="56" x="440" y="465.1426">通知設定</text><rect fill="#FEFECE" filter="url(#fhu2kr2qpgo2)" height="50" rx="12.5" ry="12.5" style="stroke: #A80036; stroke-width: 1.5;" width="76" x="611" y="445.6094"/><line style="stroke: #A80036; stroke-width: 1.5;" x1="611" x2="687" y1="473.2188" y2="473.2188"/><text fill="#000000" font-family="sans-serif" font-size="14" lengthAdjust="spacingAndGlyphs" textLength="56" x="621" y="465.1426">表示設定</text><rect fill="#FEFECE" filter="url(#fhu2kr2qpgo2)" height="50" rx="12.5" ry="12.5" style="stroke: #A80036; stroke-width: 1.5;" width="62" x="491" y="187.1094"/><line style="stroke: #A80036; stroke-width: 1.5;" x1="491" x2="553" y1="214.7188" y2="214.7188"/><text fill="#000000" font-family="sans-serif" font-size="14" lengthAdjust="spacingAndGlyphs" textLength="42" x="501" y="206.6426">ヘルプ</text><ellipse cx="383" cy="212.1094" fill="#000000" filter="url(#fhu2kr2qpgo2)" rx="10" ry="10" style="stroke: none; stroke-width: 1.0;"/><!--link sc2.1 to *start*header1--><path d="M319.204,212.1094 C339.67,212.1094 360.64,212.1094 372.71,212.1094 " fill="none" id="sc2.1-*start*header1" style="stroke: #A80036; stroke-width: 1.0;"/><polygon fill="#A80036" points="314.017,212.1094,323.017,216.1094,319.017,212.1094,323.017,208.1094,314.017,212.1094" style="stroke: #A80036; stroke-width: 1.0;"/><text fill="#000000" font-family="sans-serif" font-size="13" lengthAdjust="spacingAndGlyphs" textLength="39" x="324" y="189.6045">ロゴを</text><text fill="#000000" font-family="sans-serif" font-size="13" lengthAdjust="spacingAndGlyphs" textLength="26" x="330.5" y="205.9561">押下</text><!--link *start*header1 to sc1--><path d="M388.261,203.5894 C399.175,186.8324 426.116,150.0154 460,136.1094 C492.893,122.6104 508.004,120.6034 540,136.1094 C559.774,145.6914 574.997,165.3024 585.162,182.2024 " fill="none" id="*start*header1-sc1" style="stroke: #A80036; stroke-width: 1.0;"/><polygon fill="#A80036" points="587.894,186.8864,586.8129,177.097,585.374,182.5678,579.9032,181.129,587.894,186.8864" style="stroke: #A80036; stroke-width: 1.0;"/><text fill="#000000" font-family="sans-serif" font-size="13" lengthAdjust="spacingAndGlyphs" textLength="78" x="461" y="139.6045">ログアウトを</text><text fill="#000000" font-family="sans-serif" font-size="13" lengthAdjust="spacingAndGlyphs" textLength="26" x="487" y="155.9561">押下</text><!--link sc7 to *start*header1--><path d="M383,103.9264 C383,135.0334 383,182.3554 383,202.0334 " fill="none" id="sc7-*start*header1" style="stroke: #A80036; stroke-width: 1.0;"/><polygon fill="#A80036" points="383,98.6984,379,107.6984,383,103.6984,387,107.6984,383,98.6984" style="stroke: #A80036; stroke-width: 1.0;"/><text fill="#000000" font-family="sans-serif" font-size="13" lengthAdjust="spacingAndGlyphs" textLength="39" x="384" y="131.1045">任意の</text><text fill="#000000" font-family="sans-serif" font-size="13" lengthAdjust="spacingAndGlyphs" textLength="39" x="384" y="147.4561">通知を</text><text fill="#000000" font-family="sans-serif" font-size="13" lengthAdjust="spacingAndGlyphs" textLength="26" x="390.5" y="163.8076">押下</text><!--link *start*header1 to sc8--><path d="M383,222.4864 C383,239.7154 383,277.0584 383,303.4704 " fill="none" id="*start*header1-sc8" style="stroke: #A80036; stroke-width: 1.0;"/><polygon fill="#A80036" points="383,308.5974,387,299.5974,383,303.5974,379,299.5974,383,308.5974" style="stroke: #A80036; stroke-width: 1.0;"/><text fill="#000000" font-family="sans-serif" font-size="13" lengthAdjust="spacingAndGlyphs" textLength="39" x="384" y="271.1045">設定を</text><text fill="#000000" font-family="sans-serif" font-size="13" lengthAdjust="spacingAndGlyphs" textLength="26" x="390.5" y="287.4561">押下</text><!--link *start*header1 to sc9--><path d="M393.448,212.1094 C412.726,212.1094 454.729,212.1094 485.497,212.1094 " fill="none" id="*start*header1-sc9" style="stroke: #A80036; stroke-width: 1.0;"/><polygon fill="#A80036" points="490.718,212.1094,481.718,208.1094,485.718,212.1094,481.718,216.1094,490.718,212.1094" style="stroke: #A80036; stroke-width: 1.0;"/><text fill="#000000" font-family="sans-serif" font-size="13" lengthAdjust="spacingAndGlyphs" textLength="78" x="403" y="205.6045">ヘルプを押下</text><!--link sc8 to sc8.1--><path d="M344.971,336.7944 C263.813,341.8454 79.5054,355.5334 61,376.6094 C45.5306,394.2274 53.843,420.7329 64.3956,440.9456 " fill="none" id="sc8-sc8.1" style="stroke: #A80036; stroke-width: 1.0;"/><polygon fill="#A80036" points="66.819,445.4171,66.0473,435.5985,64.4365,441.0212,59.0139,439.4104,66.819,445.4171" style="stroke: #A80036; stroke-width: 1.0;"/><text fill="#000000" font-family="sans-serif" font-size="13" lengthAdjust="spacingAndGlyphs" textLength="78" x="62" y="391.1045">プロフィール</text><text fill="#000000" font-family="sans-serif" font-size="13" lengthAdjust="spacingAndGlyphs" textLength="39" x="81.5" y="407.4561">設定を</text><text fill="#000000" font-family="sans-serif" font-size="13" lengthAdjust="spacingAndGlyphs" textLength="26" x="88" y="423.8076">押下</text><!--link sc8.1 to sc8--><path d="M120.436,445.4108 C127.632,439.9744 134.838,433.9294 141,427.6094 C160.192,407.9261 153.077,391.7844 176,376.6094 C225.463,343.8654 295.069,335.7324 339.611,334.1824 " fill="none" id="sc8.1-sc8" style="stroke: #A80036; stroke-width: 1.0;"/><polygon fill="#A80036" points="344.646,334.0314,335.5301,330.3031,339.6482,334.1814,335.77,338.2995,344.646,334.0314" style="stroke: #A80036; stroke-width: 1.0;"/><text fill="#000000" font-family="sans-serif" font-size="13" lengthAdjust="spacingAndGlyphs" textLength="62" x="177" y="407.6045">"←"を押下</text><!--link sc8 to sc8.2--><path d="M344.8,335.2714 C313.951,338.0754 272.292,347.4904 251,376.6094 C237.621,394.9064 244.083,406.024 251,427.6094 C252.446,432.1214 254.574,436.5612 257.042,440.7663 " fill="none" id="sc8-sc8.2" style="stroke: #A80036; stroke-width: 1.0;"/><polygon fill="#A80036" points="259.836,445.2294,258.4511,435.4784,257.183,440.9913,251.6701,439.7232,259.836,445.2294" style="stroke: #A80036; stroke-width: 1.0;"/><text fill="#000000" font-family="sans-serif" font-size="13" lengthAdjust="spacingAndGlyphs" textLength="65" x="252" y="391.1045">アカウント</text><text fill="#000000" font-family="sans-serif" font-size="13" lengthAdjust="spacingAndGlyphs" textLength="39" x="265" y="407.4561">設定を</text><text fill="#000000" font-family="sans-serif" font-size="13" lengthAdjust="spacingAndGlyphs" textLength="26" x="271.5" y="423.8076">押下</text><!--link sc8.2 to sc8--><path d="M304.912,445.4642 C309.657,439.8917 314.307,433.7794 318,427.6094 C330.424,406.8553 323.468,396.6584 337,376.6094 C340.309,371.7074 344.303,366.9834 348.539,362.5844 " fill="none" id="sc8.2-sc8" style="stroke: #A80036; stroke-width: 1.0;"/><polygon fill="#A80036" points="352.144,358.9694,342.9566,362.5179,348.6135,362.5099,348.6215,368.1668,352.144,358.9694" style="stroke: #A80036; stroke-width: 1.0;"/><text fill="#000000" font-family="sans-serif" font-size="13" lengthAdjust="spacingAndGlyphs" textLength="62" x="338" y="407.6045">"←"を押下</text><!--link sc8 to sc8.3--><path d="M396.041,358.9154 C399.049,364.6824 402.189,370.8364 405,376.6094 C415.885,398.9655 414.118,406.9804 428,427.6094 C431.25,432.439 435.072,437.2293 439.042,441.7516 " fill="none" id="sc8-sc8.3" style="stroke: #A80036; stroke-width: 1.0;"/><polygon fill="#A80036" points="442.403,445.4824,439.3525,436.1178,439.057,441.767,433.4079,441.4715,442.403,445.4824" style="stroke: #A80036; stroke-width: 1.0;"/><text fill="#000000" font-family="sans-serif" font-size="13" lengthAdjust="spacingAndGlyphs" textLength="65" x="429" y="399.6045">通知設定を</text><text fill="#000000" font-family="sans-serif" font-size="13" lengthAdjust="spacingAndGlyphs" textLength="26" x="448.5" y="415.9561">押下</text><!--link sc8.3 to sc8--><path d="M486.795,445.441 C490.174,439.8699 493.192,433.764 495,427.6094 C501.387,405.8613 507.911,395.2394 495,376.6094 C479.595,354.3794 450.877,343.8984 426.379,338.9644 " fill="none" id="sc8.3-sc8" style="stroke: #A80036; stroke-width: 1.0;"/><polygon fill="#A80036" points="421.222,337.9934,429.3276,343.588,426.1358,338.9176,430.8063,335.7259,421.222,337.9934" style="stroke: #A80036; stroke-width: 1.0;"/><text fill="#000000" font-family="sans-serif" font-size="13" lengthAdjust="spacingAndGlyphs" textLength="62" x="504" y="407.6045">"←"を押下</text><!--link sc8 to sc8.4--><path d="M421.237,334.9814 C461.73,337.1234 525.911,345.6764 571,376.6094 C593.464,392.0204 587.485,406.7443 605,427.6094 C608.925,432.2855 613.322,436.9915 617.776,441.4756 " fill="none" id="sc8-sc8.4" style="stroke: #A80036; stroke-width: 1.0;"/><polygon fill="#A80036" points="621.522,445.1844,617.9395,436.0102,617.9684,441.667,612.3117,441.6959,621.522,445.1844" style="stroke: #A80036; stroke-width: 1.0;"/><text fill="#000000" font-family="sans-serif" font-size="13" lengthAdjust="spacingAndGlyphs" textLength="65" x="606" y="399.6045">表示設定を</text><text fill="#000000" font-family="sans-serif" font-size="13" lengthAdjust="spacingAndGlyphs" textLength="26" x="625.5" y="415.9561">押下</text><!--link sc8.4 to sc8--><path d="M665.493,445.5003 C677.331,424.9295 688.541,395.7281 672,376.6094 C640.739,340.4764 498.858,334.7824 426.187,334.2924 " fill="none" id="sc8.4-sc8" style="stroke: #A80036; stroke-width: 1.0;"/><polygon fill="#A80036" points="421.077,334.2654,430.0563,338.3116,426.0769,334.2911,430.0975,330.3117,421.077,334.2654" style="stroke: #A80036; stroke-width: 1.0;"/><text fill="#000000" font-family="sans-serif" font-size="13" lengthAdjust="spacingAndGlyphs" textLength="36" x="681" y="399.6045">"←"を</text><text fill="#000000" font-family="sans-serif" font-size="13" lengthAdjust="spacingAndGlyphs" textLength="26" x="686" y="415.9561">押下</text><!--
@startuml
		state "ヘッダー" as header1 {
			state "About" as sc1
			state "ユーザー詳細" as sc2.1 : マイページ
			state "通知詳細" as sc7
			state "設定一覧" as sc8
			state "プロフィール設定" as sc8.1
			state "アカウント設定" as sc8.2
			state "通知設定" as sc8.3
			state "表示設定" as sc8.4
			state "ヘルプ" as sc9
			[*] -left-> sc2.1 : ロゴを\n押下
			[*] -right-> sc1 : ログアウトを\n押下
			[*] -up-> sc7 : 任意の\n通知を\n押下
			[*] -down-> sc8 : 設定を\n押下
			[*] -right-> sc9 : ヘルプを押下
			sc8 - -> sc8.1 : プロフィール\n設定を\n押下
			sc8.1 - -> sc8 : "←"を押下
			sc8 - -> sc8.2 : アカウント\n設定を\n押下
			sc8.2 - -> sc8 : "←"を押下
			sc8 - -> sc8.3 : 通知設定を\n押下
			sc8.3 - -> sc8 : "←"を押下
			sc8 - -> sc8.4 : 表示設定を\n押下
			sc8.4 - -> sc8 : "←"を\n押下
		}
@enduml

PlantUML version 1.2019.06(Sat May 25 02:10:25 JST 2019)
(GPL source distribution)
Java Runtime: OpenJDK Runtime Environment
JVM: OpenJDK 64-Bit Server VM
Java Version: 14.0.2+12-46
Operating System: Windows 10
OS Version: 10.0
Default Encoding: MS932
Language: ja
Country: JP
--></g></svg><?xml version="1.0" encoding="UTF-8" standalone="no"?><svg xmlns="http://www.w3.org/2000/svg" xmlns:xlink="http://www.w3.org/1999/xlink" contentScriptType="application/ecmascript" contentStyleType="text/css" height="214px" preserveAspectRatio="none" style="width:444px;height:214px;" version="1.1" viewBox="0 0 444 214" width="444px" zoomAndPan="magnify"><defs><filter height="300%" id="fxl92ddoux4as" width="300%" x="-1" y="-1"><feGaussianBlur result="blurOut" stdDeviation="2.0"/><feColorMatrix in="blurOut" result="blurOut2" type="matrix" values="0 0 0 0 0 0 0 0 0 0 0 0 0 0 0 0 0 0 .4 0"/><feOffset dx="4.0" dy="4.0" in="blurOut2" result="blurOut3"/><feBlend in="SourceGraphic" in2="blurOut3" mode="normal"/></filter></defs><g><rect fill="#FEFECE" filter="url(#fxl92ddoux4as)" height="195.6094" rx="12.5" ry="12.5" style="stroke: #A80036; stroke-width: 1.5;" width="426" x="6" y="8"/><rect fill="#FFFFFF" height="162" rx="12.5" ry="12.5" style="stroke: #FFFFFF; stroke-width: 1.0;" width="420" x="9" y="38.6094"/><line style="stroke: #A80036; stroke-width: 1.5;" x1="6" x2="432" y1="35.6094" y2="35.6094"/><text fill="#000000" font-family="sans-serif" font-size="14" lengthAdjust="spacingAndGlyphs" textLength="56" x="191" y="27.5332">フッター</text><rect fill="#FEFECE" filter="url(#fxl92ddoux4as)" height="50" rx="12.5" ry="12.5" style="stroke: #A80036; stroke-width: 1.5;" width="62" x="17" y="138.6094"/><line style="stroke: #A80036; stroke-width: 1.5;" x1="17" x2="79" y1="166.2188" y2="166.2188"/><text fill="#000000" font-family="sans-serif" font-size="14" lengthAdjust="spacingAndGlyphs" textLength="42" x="27" y="158.1426">ヘルプ</text><rect fill="#FEFECE" filter="url(#fxl92ddoux4as)" height="50" rx="12.5" ry="12.5" style="stroke: #A80036; stroke-width: 1.5;" width="76" x="97" y="138.6094"/><line style="stroke: #A80036; stroke-width: 1.5;" x1="97" x2="173" y1="166.2188" y2="166.2188"/><text fill="#000000" font-family="sans-serif" font-size="14" lengthAdjust="spacingAndGlyphs" textLength="56" x="107" y="158.1426">利用規約</text><rect fill="#FEFECE" filter="url(#fxl92ddoux4as)" height="50" rx="12.5" ry="12.5" style="stroke: #A80036; stroke-width: 1.5;" width="104" x="191" y="138.6094"/><line style="stroke: #A80036; stroke-width: 1.5;" x1="191" x2="295" y1="166.2188" y2="166.2188"/><text fill="#000000" font-family="sans-serif" font-size="14" lengthAdjust="spacingAndGlyphs" textLength="84" x="201" y="158.1426">プライバシー</text><rect fill="#FEFECE" filter="url(#fxl92ddoux4as)" height="50" rx="12.5" ry="12.5" style="stroke: #A80036; stroke-width: 1.5;" width="62" x="320" y="138.6094"/><line style="stroke: #A80036; stroke-width: 1.5;" x1="320" x2="382" y1="166.2188" y2="166.2188"/><text fill="#000000" font-family="sans-serif" font-size="14" lengthAdjust="spacingAndGlyphs" textLength="42" x="330" y="158.1426">ご意見</text><ellipse cx="185" cy="58.6094" fill="#000000" filter="url(#fxl92ddoux4as)" rx="10" ry="10" style="stroke: none; stroke-width: 1.0;"/><!--link *start*footer1 to sc9--><path d="M174.973,59.2244 C154.084,58.9744 105.4828,61.3434 77,86.6094 C63.6166,98.4814 56.3774,117.2139 52.4787,133.1101 " fill="none" id="*start*footer1-sc9" style="stroke: #A80036; stroke-width: 1.0;"/><polygon fill="#A80036" points="51.2805,138.3782,57.177,130.4895,52.3895,133.5027,49.3763,128.7152,51.2805,138.3782" style="stroke: #A80036; stroke-width: 1.0;"/><text fill="#000000" font-family="sans-serif" font-size="13" lengthAdjust="spacingAndGlyphs" textLength="52" x="78" y="101.1045">ヘルプを</text><text fill="#000000" font-family="sans-serif" font-size="13" lengthAdjust="spacingAndGlyphs" textLength="26" x="91" y="117.4561">押下</text><!--link *start*footer1 to sc10--><path d="M175.928,63.2694 C166.776,67.4684 153.024,75.2674 146,86.6094 C137.498,100.3381 134.578,118.0893 133.863,132.9832 " fill="none" id="*start*footer1-sc10" style="stroke: #A80036; stroke-width: 1.0;"/><polygon fill="#A80036" points="133.692,138.3283,137.9766,129.4602,133.8513,133.3308,129.9807,129.2054,133.692,138.3283" style="stroke: #A80036; stroke-width: 1.0;"/><text fill="#000000" font-family="sans-serif" font-size="13" lengthAdjust="spacingAndGlyphs" textLength="65" x="147" y="101.1045">利用規約を</text><text fill="#000000" font-family="sans-serif" font-size="13" lengthAdjust="spacingAndGlyphs" textLength="39" x="160" y="117.4561">押下　</text><!--link *start*footer1 to sc11--><path d="M192.778,65.5364 C198.952,70.5774 207.441,78.3034 213,86.6094 C222.569,100.908 229.805,118.7176 234.77,133.5016 " fill="none" id="*start*footer1-sc11" style="stroke: #A80036; stroke-width: 1.0;"/><polygon fill="#A80036" points="236.367,138.3899,237.3741,128.5926,234.8142,133.6371,229.7697,131.0772,236.367,138.3899" style="stroke: #A80036; stroke-width: 1.0;"/><text fill="#000000" font-family="sans-serif" font-size="13" lengthAdjust="spacingAndGlyphs" textLength="91" x="231" y="101.1045">プライバシーを</text><text fill="#000000" font-family="sans-serif" font-size="13" lengthAdjust="spacingAndGlyphs" textLength="26" x="263.5" y="117.4561">押下</text><!--link *start*footer1 to sc12--><path d="M195.199,60.2164 C224.368,62.1514 307.302,69.1084 327,86.6094 C340.196,98.3341 346.2,117.2477 348.903,133.2731 " fill="none" id="*start*footer1-sc12" style="stroke: #A80036; stroke-width: 1.0;"/><polygon fill="#A80036" points="349.699,138.5825,352.321,129.0891,348.958,133.6377,344.4094,130.2747,349.699,138.5825" style="stroke: #A80036; stroke-width: 1.0;"/><text fill="#000000" font-family="sans-serif" font-size="13" lengthAdjust="spacingAndGlyphs" textLength="52" x="346" y="101.1045">ご意見を</text><text fill="#000000" font-family="sans-serif" font-size="13" lengthAdjust="spacingAndGlyphs" textLength="26" x="359" y="117.4561">押下</text><!--
@startuml
		state "フッター" as footer1 {
			state "ヘルプ" as sc9
			state "利用規約" as sc10
			state "プライバシー" as sc11
			state "ご意見" as sc12
			[*] - -> sc9 : ヘルプを\n押下
			[*] - -> sc10 : 利用規約を\n押下　 
			[*] - -> sc11 : プライバシーを\n押下
			[*] - -> sc12 : ご意見を\n押下
		}
@enduml

PlantUML version 1.2019.06(Sat May 25 02:10:25 JST 2019)
(GPL source distribution)
Java Runtime: OpenJDK Runtime Environment
JVM: OpenJDK 64-Bit Server VM
Java Version: 14.0.2+12-46
Operating System: Windows 10
OS Version: 10.0
Default Encoding: MS932
Language: ja
Country: JP
--></g></svg><?xml version="1.0" encoding="UTF-8" standalone="no"?><svg xmlns="http://www.w3.org/2000/svg" xmlns:xlink="http://www.w3.org/1999/xlink" contentScriptType="application/ecmascript" contentStyleType="text/css" height="668px" preserveAspectRatio="none" style="width:764px;height:668px;" version="1.1" viewBox="0 0 764 668" width="764px" zoomAndPan="magnify"><defs><filter height="300%" id="fjizil9pscffn" width="300%" x="-1" y="-1"><feGaussianBlur result="blurOut" stdDeviation="2.0"/><feColorMatrix in="blurOut" result="blurOut2" type="matrix" values="0 0 0 0 0 0 0 0 0 0 0 0 0 0 0 0 0 0 .4 0"/><feOffset dx="4.0" dy="4.0" in="blurOut2" result="blurOut3"/><feBlend in="SourceGraphic" in2="blurOut3" mode="normal"/></filter></defs><g><rect fill="#FEFECE" filter="url(#fjizil9pscffn)" height="649.6094" rx="12.5" ry="12.5" style="stroke: #A80036; stroke-width: 1.5;" width="746" x="6" y="8"/><rect fill="#FFFFFF" height="616" rx="12.5" ry="12.5" style="stroke: #FFFFFF; stroke-width: 1.0;" width="740" x="9" y="38.6094"/><line style="stroke: #A80036; stroke-width: 1.5;" x1="6" x2="752" y1="35.6094" y2="35.6094"/><text fill="#000000" font-family="sans-serif" font-size="14" lengthAdjust="spacingAndGlyphs" textLength="47" x="355.5" y="27.5332">content</text><polygon fill="#FEFECE" filter="url(#fjizil9pscffn)" points="386.199,161.6094,398.199,173.6094,386.199,185.6094,374.199,173.6094,386.199,161.6094" style="stroke: #A80036; stroke-width: 1.5;"/><rect fill="#FEFECE" filter="url(#fjizil9pscffn)" height="50" rx="12.5" ry="12.5" style="stroke: #A80036; stroke-width: 1.5;" width="99" x="336.699" y="52.6094"/><line style="stroke: #A80036; stroke-width: 1.5;" x1="336.699" x2="435.699" y1="80.2188" y2="80.2188"/><text fill="#000000" font-family="sans-serif" font-size="14" lengthAdjust="spacingAndGlyphs" textLength="79" x="346.699" y="72.1426">Aboutページ</text><rect fill="#FEFECE" filter="url(#fjizil9pscffn)" height="52.7031" rx="12.5" ry="12.5" style="stroke: #A80036; stroke-width: 1.5;" width="104" x="431.199" y="260.6094"/><line style="stroke: #A80036; stroke-width: 1.5;" x1="431.199" x2="535.199" y1="288.2188" y2="288.2188"/><text fill="#000000" font-family="sans-serif" font-size="14" lengthAdjust="spacingAndGlyphs" textLength="84" x="441.199" y="280.1426">ユーザー詳細</text><text fill="#000000" font-family="sans-serif" font-size="12" lengthAdjust="spacingAndGlyphs" textLength="60" x="436.199" y="305.6758">マイページ</text><rect fill="#FEFECE" filter="url(#fjizil9pscffn)" height="52.7031" rx="12.5" ry="12.5" style="stroke: #A80036; stroke-width: 1.5;" width="104" x="228.199" y="585.6094"/><line style="stroke: #A80036; stroke-width: 1.5;" x1="228.199" x2="332.199" y1="613.2188" y2="613.2188"/><text fill="#000000" font-family="sans-serif" font-size="14" lengthAdjust="spacingAndGlyphs" textLength="84" x="238.199" y="605.1426">ユーザー詳細</text><text fill="#000000" font-family="sans-serif" font-size="12" lengthAdjust="spacingAndGlyphs" textLength="84" x="233.199" y="630.6758">任意のユーザー</text><rect fill="#FEFECE" filter="url(#fjizil9pscffn)" height="50" rx="12.5" ry="12.5" style="stroke: #A80036; stroke-width: 1.5;" width="104" x="268.199" y="262.1094"/><line style="stroke: #A80036; stroke-width: 1.5;" x1="268.199" x2="372.199" y1="289.7188" y2="289.7188"/><text fill="#000000" font-family="sans-serif" font-size="14" lengthAdjust="spacingAndGlyphs" textLength="84" x="278.199" y="281.6426">ユーザー編集</text><rect fill="#FEFECE" filter="url(#fjizil9pscffn)" height="50" rx="12.5" ry="12.5" style="stroke: #A80036; stroke-width: 1.5;" width="104" x="380.199" y="432.6094"/><line style="stroke: #A80036; stroke-width: 1.5;" x1="380.199" x2="484.199" y1="460.2188" y2="460.2188"/><text fill="#000000" font-family="sans-serif" font-size="14" lengthAdjust="spacingAndGlyphs" textLength="84" x="390.199" y="452.1426">フォロー一覧</text><rect fill="#FEFECE" filter="url(#fjizil9pscffn)" height="50" rx="12.5" ry="12.5" style="stroke: #A80036; stroke-width: 1.5;" width="118" x="521.199" y="432.6094"/><line style="stroke: #A80036; stroke-width: 1.5;" x1="521.199" x2="639.199" y1="460.2188" y2="460.2188"/><text fill="#000000" font-family="sans-serif" font-size="14" lengthAdjust="spacingAndGlyphs" textLength="98" x="531.199" y="452.1426">フォロワー一覧</text><rect fill="#FEFECE" filter="url(#fjizil9pscffn)" height="50" rx="12.5" ry="12.5" style="stroke: #A80036; stroke-width: 1.5;" width="76" x="242.199" y="432.6094"/><line style="stroke: #A80036; stroke-width: 1.5;" x1="242.199" x2="318.199" y1="460.2188" y2="460.2188"/><text fill="#000000" font-family="sans-serif" font-size="14" lengthAdjust="spacingAndGlyphs" textLength="56" x="252.199" y="452.1426">タグ詳細</text><rect fill="#FEFECE" filter="url(#fjizil9pscffn)" height="50" rx="12.5" ry="12.5" style="stroke: #A80036; stroke-width: 1.5;" width="90" x="65.199" y="432.6094"/><line style="stroke: #A80036; stroke-width: 1.5;" x1="65.199" x2="155.199" y1="460.2188" y2="460.2188"/><text fill="#000000" font-family="sans-serif" font-size="14" lengthAdjust="spacingAndGlyphs" textLength="70" x="75.199" y="452.1426">アプリ詳細</text><rect fill="#FEFECE" filter="url(#fjizil9pscffn)" height="50" rx="12.5" ry="12.5" style="stroke: #A80036; stroke-width: 1.5;" width="90" x="34.199" y="262.1094"/><line style="stroke: #A80036; stroke-width: 1.5;" x1="34.199" x2="124.199" y1="289.7188" y2="289.7188"/><text fill="#000000" font-family="sans-serif" font-size="14" lengthAdjust="spacingAndGlyphs" textLength="70" x="44.199" y="281.6426">アプリ編集</text><ellipse cx="216.199" cy="77.6094" fill="#000000" filter="url(#fjizil9pscffn)" rx="10" ry="10" style="stroke: none; stroke-width: 1.0;"/><!--link *start*content to sc1--><path d="M226.324,77.6094 C246.642,77.6094 293.673,77.6094 331.496,77.6094 " fill="none" id="*start*content-sc1" style="stroke: #A80036; stroke-width: 1.0;"/><polygon fill="#A80036" points="336.532,77.6094,327.532,73.6094,331.532,77.6094,327.532,81.6094,336.532,77.6094" style="stroke: #A80036; stroke-width: 1.0;"/><text fill="#000000" font-family="sans-serif" font-size="13" lengthAdjust="spacingAndGlyphs" textLength="91" x="235.949" y="55.1045">非ログイン時、</text><text fill="#000000" font-family="sans-serif" font-size="13" lengthAdjust="spacingAndGlyphs" textLength="79" x="241.949" y="71.4561">"/"にアクセス</text><!--link *start*content to sc2.1--><path d="M219.778,86.9714 C232.192,114.8194 276.378,204.7894 344.199,242.6094 C369.458,256.6954 399.892,266.8774 425.836,273.8324 " fill="none" id="*start*content-sc2.1" style="stroke: #A80036; stroke-width: 1.0;"/><polygon fill="#A80036" points="430.962,275.1804,423.2767,269.0212,426.1267,273.9076,421.2403,276.7577,430.962,275.1804" style="stroke: #A80036; stroke-width: 1.0;"/><text fill="#000000" font-family="sans-serif" font-size="13" lengthAdjust="spacingAndGlyphs" textLength="78" x="284.699" y="171.1045">ログイン時、</text><text fill="#000000" font-family="sans-serif" font-size="13" lengthAdjust="spacingAndGlyphs" textLength="79" x="284.199" y="187.4561">"/"にアクセス</text><!--link *start*content to sc2.1.2--><path d="M211.33,86.5754 C202.15,102.3744 183.199,139.0554 183.199,172.6094 C183.199,172.6094 183.199,172.6094 183.199,458.6094 C183.199,510.2124 192.576,526.0744 223.199,567.6094 C227.025,572.7992 231.637,577.6696 236.559,582.1375 " fill="none" id="*start*content-sc2.1.2" style="stroke: #A80036; stroke-width: 1.0;"/><polygon fill="#A80036" points="240.376,585.4743,236.2318,576.5398,236.6113,582.1839,230.9671,582.5634,240.376,585.4743" style="stroke: #A80036; stroke-width: 1.0;"/><text fill="#000000" font-family="sans-serif" font-size="13" lengthAdjust="spacingAndGlyphs" textLength="65" x="184.199" y="276.1045">ユーザーの</text><text fill="#000000" font-family="sans-serif" font-size="13" lengthAdjust="spacingAndGlyphs" textLength="38" x="197.699" y="292.4561">URLに</text><text fill="#000000" font-family="sans-serif" font-size="13" lengthAdjust="spacingAndGlyphs" textLength="52" x="190.699" y="308.8076">アクセス</text><!--link sc1 to choice--><path d="M386.199,102.8164 C386.199,119.6764 386.199,141.6994 386.199,156.4564 " fill="none" id="sc1-choice" style="stroke: #A80036; stroke-width: 1.0;"/><polygon fill="#A80036" points="386.199,161.5414,390.199,152.5414,386.199,156.5414,382.199,152.5414,386.199,161.5414" style="stroke: #A80036; stroke-width: 1.0;"/><text fill="#000000" font-family="sans-serif" font-size="13" lengthAdjust="spacingAndGlyphs" textLength="130" x="387.199" y="135.1045">ログインボタンを押下</text><!--link choice to sc2.1--><path d="M392.256,179.6204 C399.833,186.0114 413.046,197.5614 423.199,208.6094 C436.986,223.6114 451.003,241.5354 462.017,256.3654 " fill="none" id="choice-sc2.1" style="stroke: #A80036; stroke-width: 1.0;"/><polygon fill="#A80036" points="465.042,260.4604,462.9106,250.8449,462.0706,256.439,456.4765,255.5991,465.042,260.4604" style="stroke: #A80036; stroke-width: 1.0;"/><text fill="#000000" font-family="sans-serif" font-size="13" lengthAdjust="spacingAndGlyphs" textLength="26" x="465.199" y="223.1045">既存</text><text fill="#000000" font-family="sans-serif" font-size="13" lengthAdjust="spacingAndGlyphs" textLength="52" x="452.199" y="239.4561">ユーザー</text><!--link choice to sc2.2--><path d="M382.07,181.5844 C373.267,196.4564 352.223,232.0084 337.122,257.5194 " fill="none" id="choice-sc2.2" style="stroke: #A80036; stroke-width: 1.0;"/><polygon fill="#A80036" points="334.564,261.8404,342.5907,256.1332,337.111,257.5377,335.7065,252.058,334.564,261.8404" style="stroke: #A80036; stroke-width: 1.0;"/><text fill="#000000" font-family="sans-serif" font-size="13" lengthAdjust="spacingAndGlyphs" textLength="26" x="379.199" y="223.1045">新規</text><text fill="#000000" font-family="sans-serif" font-size="13" lengthAdjust="spacingAndGlyphs" textLength="52" x="366.199" y="239.4561">ユーザー</text><!--link sc2.2 to sc2.1--><path d="M358.586,314.6184 C365.793,318.5324 373.494,321.9554 381.199,324.1094 C398.748,329.0154 404.65,329.0154 422.199,324.1094 C430.549,321.7754 438.894,317.9504 446.611,313.6264 " fill="none" id="sc2.2-sc2.1" style="stroke: #A80036; stroke-width: 1.0;"/><polygon fill="#A80036" points="354.166,312.1254,360.0394,320.0313,358.5209,314.582,363.9701,313.0635,354.166,312.1254" style="stroke: #A80036; stroke-width: 1.0;"/><text fill="#000000" font-family="sans-serif" font-size="13" lengthAdjust="spacingAndGlyphs" textLength="39" x="382.199" y="304.6045">編集を</text><text fill="#000000" font-family="sans-serif" font-size="13" lengthAdjust="spacingAndGlyphs" textLength="26" x="388.699" y="320.9561">押下</text><!--link sc2.2 to sc2.1--><path d="M372.221,287.1094 C389.277,287.1094 408.324,287.1094 425.757,287.1094 " fill="none" id="sc2.2-sc2.1-1" style="stroke: #A80036; stroke-width: 1.0;"/><polygon fill="#A80036" points="431.112,287.1094,422.112,283.1094,426.112,287.1094,422.112,291.1094,431.112,287.1094" style="stroke: #A80036; stroke-width: 1.0;"/><text fill="#000000" font-family="sans-serif" font-size="13" lengthAdjust="spacingAndGlyphs" textLength="39" x="382.199" y="264.6045">更新を</text><text fill="#000000" font-family="sans-serif" font-size="13" lengthAdjust="spacingAndGlyphs" textLength="26" x="388.699" y="280.9561">押下</text><!--link sc2.1 to sc3--><path d="M480.442,314.0234 C477.08,340.1094 470.165,381.1614 457.199,414.6094 C455.487,419.0254 453.333,423.5124 451.012,427.8284 " fill="none" id="sc2.1-sc3" style="stroke: #A80036; stroke-width: 1.0;"/><polygon fill="#A80036" points="448.44,432.4344,456.3196,426.5257,450.8772,428.0686,449.3343,422.6262,448.44,432.4344" style="stroke: #A80036; stroke-width: 1.0;"/><text fill="#000000" font-family="sans-serif" font-size="13" lengthAdjust="spacingAndGlyphs" textLength="65" x="479.199" y="370.6045">フォローを</text><text fill="#000000" font-family="sans-serif" font-size="13" lengthAdjust="spacingAndGlyphs" textLength="26" x="498.699" y="386.9561">押下</text><!--link sc2.1 to sc3--><path d="M426.311,306.7534 C415.526,312.9414 405.621,321.0514 399.199,331.6094 C380.028,363.1254 387.141,379.7464 399.199,414.6094 C401.381,420.9194 404.946,427.0024 408.944,432.4864 " fill="none" id="sc2.1-sc3-1" style="stroke: #A80036; stroke-width: 1.0;"/><polygon fill="#A80036" points="430.979,304.2174,421.1613,305,426.5858,306.6047,424.981,312.0292,430.979,304.2174" style="stroke: #A80036; stroke-width: 1.0;"/><text fill="#000000" font-family="sans-serif" font-size="13" lengthAdjust="spacingAndGlyphs" textLength="52" x="400.199" y="370.6045">アプリを</text><text fill="#000000" font-family="sans-serif" font-size="13" lengthAdjust="spacingAndGlyphs" textLength="26" x="413.199" y="386.9561">押下</text><!--link sc2.1 to sc4--><path d="M529.788,313.7334 C536.352,318.9494 542.464,324.9204 547.199,331.6094 C550.011,335.5814 564.164,391.5654 572.998,427.2494 " fill="none" id="sc2.1-sc4" style="stroke: #A80036; stroke-width: 1.0;"/><polygon fill="#A80036" points="574.26,432.3584,575.9833,422.6615,573.0601,427.5045,568.2171,424.5813,574.26,432.3584" style="stroke: #A80036; stroke-width: 1.0;"/><text fill="#000000" font-family="sans-serif" font-size="13" lengthAdjust="spacingAndGlyphs" textLength="78" x="570.199" y="370.6045">フォロワーを</text><text fill="#000000" font-family="sans-serif" font-size="13" lengthAdjust="spacingAndGlyphs" textLength="26" x="596.199" y="386.9561">押下</text><!--link sc2.1 to sc4--><path d="M540.481,295.5054 C583.303,302.3484 636.686,314.1264 650.199,331.6094 C672.758,360.7964 668.374,382.5084 650.199,414.6094 C646.289,421.5154 640.739,427.4104 634.456,432.4054 " fill="none" id="sc2.1-sc4-1" style="stroke: #A80036; stroke-width: 1.0;"/><polygon fill="#A80036" points="535.314,294.6954,543.5861,300.0408,540.2537,295.4696,544.8248,292.1372,535.314,294.6954" style="stroke: #A80036; stroke-width: 1.0;"/><text fill="#000000" font-family="sans-serif" font-size="13" lengthAdjust="spacingAndGlyphs" textLength="52" x="666.199" y="370.6045">アプリを</text><text fill="#000000" font-family="sans-serif" font-size="13" lengthAdjust="spacingAndGlyphs" textLength="26" x="679.199" y="386.9561">押下</text><!--link sc2.1 to sc5--><path d="M431.024,299.8084 C397.101,308.2514 356.747,320.1374 343.199,331.6094 C327.511,344.8934 305.044,395.2114 291.609,427.8134 " fill="none" id="sc2.1-sc5" style="stroke: #A80036; stroke-width: 1.0;"/><polygon fill="#A80036" points="289.694,432.4884,296.8056,425.6748,291.5883,427.8611,289.402,422.6438,289.694,432.4884" style="stroke: #A80036; stroke-width: 1.0;"/><text fill="#000000" font-family="sans-serif" font-size="13" lengthAdjust="spacingAndGlyphs" textLength="39" x="344.199" y="362.1045">任意の</text><text fill="#000000" font-family="sans-serif" font-size="13" lengthAdjust="spacingAndGlyphs" textLength="39" x="344.199" y="378.4561">タグを</text><text fill="#000000" font-family="sans-serif" font-size="13" lengthAdjust="spacingAndGlyphs" textLength="26" x="350.699" y="394.8076">押下</text><!--link sc5 to sc2.1.2--><path d="M280.199,482.7734 C280.199,509.1814 280.199,551.555 280.199,580.3252 " fill="none" id="sc5-sc2.1.2" style="stroke: #A80036; stroke-width: 1.0;"/><polygon fill="#A80036" points="280.199,585.532,284.199,576.532,280.199,580.532,276.199,576.532,280.199,585.532" style="stroke: #A80036; stroke-width: 1.0;"/><text fill="#000000" font-family="sans-serif" font-size="13" lengthAdjust="spacingAndGlyphs" textLength="39" x="294.199" y="523.1045">任意の</text><text fill="#000000" font-family="sans-serif" font-size="13" lengthAdjust="spacingAndGlyphs" textLength="65" x="281.199" y="539.4561">ユーザーを</text><text fill="#000000" font-family="sans-serif" font-size="13" lengthAdjust="spacingAndGlyphs" textLength="26" x="300.699" y="555.8076">押下</text><!--link sc2.1 to sc6.1--><path d="M431.064,302.5064 C415.15,306.5324 397.538,310.6184 381.199,313.6094 C313.849,325.9374 288.934,299.9984 228.199,331.6094 C184.36,354.4264 188.546,379.0744 154.199,414.6094 C149.637,419.3294 144.697,424.2324 139.83,428.9534 " fill="none" id="sc2.1-sc6.1" style="stroke: #A80036; stroke-width: 1.0;"/><polygon fill="#A80036" points="136.131,432.5204,145.3855,429.1507,139.7295,429.049,139.8312,423.393,136.131,432.5204" style="stroke: #A80036; stroke-width: 1.0;"/><text fill="#000000" font-family="sans-serif" font-size="13" lengthAdjust="spacingAndGlyphs" textLength="39" x="242.199" y="346.1045">任意の</text><text fill="#000000" font-family="sans-serif" font-size="13" lengthAdjust="spacingAndGlyphs" textLength="39" x="242.199" y="362.4561">アプリ</text><text fill="#000000" font-family="sans-serif" font-size="13" lengthAdjust="spacingAndGlyphs" textLength="65" x="229.199" y="378.8076">アイコンか</text><text fill="#000000" font-family="sans-serif" font-size="13" lengthAdjust="spacingAndGlyphs" textLength="65" x="229.199" y="395.1592">アプリ名を</text><text fill="#000000" font-family="sans-serif" font-size="13" lengthAdjust="spacingAndGlyphs" textLength="26" x="248.699" y="411.5107">押下</text><!--link sc3 to sc2.1.2--><path d="M437.872,482.6274 C442.069,506.7614 444.199,543.7124 425.199,567.6094 C404.403,593.7656 368.497,604.6706 337.619,609.0216 " fill="none" id="sc3-sc2.1.2" style="stroke: #A80036; stroke-width: 1.0;"/><polygon fill="#A80036" points="332.315,609.7127,341.7562,612.5169,337.2731,609.067,340.7231,604.5839,332.315,609.7127" style="stroke: #A80036; stroke-width: 1.0;"/><text fill="#000000" font-family="sans-serif" font-size="13" lengthAdjust="spacingAndGlyphs" textLength="52" x="448.699" y="515.1045">アプリか</text><text fill="#000000" font-family="sans-serif" font-size="13" lengthAdjust="spacingAndGlyphs" textLength="39" x="455.199" y="531.4561">任意の</text><text fill="#000000" font-family="sans-serif" font-size="13" lengthAdjust="spacingAndGlyphs" textLength="65" x="442.199" y="547.8076">ユーザーを</text><text fill="#000000" font-family="sans-serif" font-size="13" lengthAdjust="spacingAndGlyphs" textLength="26" x="461.699" y="564.1592">押下</text><!--link sc4 to sc2.1.2--><path d="M596.476,482.7824 C610.588,507.0384 625.784,544.0861 605.199,567.6094 C571.096,606.5813 421.309,612.1301 337.498,612.0789 " fill="none" id="sc4-sc2.1.2" style="stroke: #A80036; stroke-width: 1.0;"/><polygon fill="#A80036" points="332.322,612.0686,341.314,616.0866,337.322,612.0786,341.33,608.0866,332.322,612.0686" style="stroke: #A80036; stroke-width: 1.0;"/><text fill="#000000" font-family="sans-serif" font-size="13" lengthAdjust="spacingAndGlyphs" textLength="52" x="622.699" y="515.1045">アプリか</text><text fill="#000000" font-family="sans-serif" font-size="13" lengthAdjust="spacingAndGlyphs" textLength="39" x="629.199" y="531.4561">任意の</text><text fill="#000000" font-family="sans-serif" font-size="13" lengthAdjust="spacingAndGlyphs" textLength="65" x="616.199" y="547.8076">ユーザーを</text><text fill="#000000" font-family="sans-serif" font-size="13" lengthAdjust="spacingAndGlyphs" textLength="26" x="635.699" y="564.1592">押下</text><!--link sc3 to sc2.1.2--><path d="M381.493,485.8824 C376.147,490.2744 371.209,495.1864 367.199,500.6094 C348.796,525.4964 366.659,542.7647 348.199,567.6094 C343.184,574.3589 336.784,580.3342 329.925,585.5272 " fill="none" id="sc3-sc2.1.2-1" style="stroke: #A80036; stroke-width: 1.0;"/><polygon fill="#A80036" points="385.652,482.6254,376.0998,485.0246,381.7153,485.7079,381.0319,491.3233,385.652,482.6254" style="stroke: #A80036; stroke-width: 1.0;"/><text fill="#000000" font-family="sans-serif" font-size="13" lengthAdjust="spacingAndGlyphs" textLength="52" x="368.199" y="531.6045">フォロー</text><text fill="#000000" font-family="sans-serif" font-size="13" lengthAdjust="spacingAndGlyphs" textLength="39" x="374.699" y="547.9561">を押下</text><!--link sc4 to sc2.1.2--><path d="M545.558,486.4654 C541.349,490.8824 537.41,495.6434 534.199,500.6094 C517.179,526.9274 535.774,546.9562 512.199,567.6094 C485.999,590.5629 392.289,602.2138 332.284,607.4515 " fill="none" id="sc4-sc2.1.2-1" style="stroke: #A80036; stroke-width: 1.0;"/><polygon fill="#A80036" points="549.146,482.8394,539.9723,486.4231,545.6291,486.3934,545.6588,492.0502,549.146,482.8394" style="stroke: #A80036; stroke-width: 1.0;"/><text fill="#000000" font-family="sans-serif" font-size="13" lengthAdjust="spacingAndGlyphs" textLength="65" x="535.199" y="531.6045">フォロワー</text><text fill="#000000" font-family="sans-serif" font-size="13" lengthAdjust="spacingAndGlyphs" textLength="39" x="548.199" y="547.9561">を押下</text><!--link sc5 to sc2.1.2--><path d="M243.926,486.7744 C240.407,491.0224 237.351,495.6564 235.199,500.6094 C223.331,527.9204 223.571,540.1959 235.199,567.6094 C237.915,574.0115 242.085,579.9313 246.813,585.2098 " fill="none" id="sc5-sc2.1.2-1" style="stroke: #A80036; stroke-width: 1.0;"/><polygon fill="#A80036" points="247.275,482.9844,238.3188,487.0815,243.9648,486.7317,244.3145,492.3778,247.275,482.9844" style="stroke: #A80036; stroke-width: 1.0;"/><text fill="#000000" font-family="sans-serif" font-size="13" lengthAdjust="spacingAndGlyphs" textLength="39" x="236.199" y="523.1045">任意の</text><text fill="#000000" font-family="sans-serif" font-size="13" lengthAdjust="spacingAndGlyphs" textLength="39" x="236.199" y="539.4561">タグを</text><text fill="#000000" font-family="sans-serif" font-size="13" lengthAdjust="spacingAndGlyphs" textLength="26" x="242.699" y="555.8076">押下</text><!--link sc6.1 to sc2.1.2--><path d="M102.9031,487.6794 C98.702,511.7434 97.3075,545.4588 115.199,567.6094 C129.393,585.1819 185.228,597.2549 228.056,604.1447 " fill="none" id="sc6.1-sc2.1.2" style="stroke: #A80036; stroke-width: 1.0;"/><polygon fill="#A80036" points="103.8363,482.6984,98.2463,490.8071,102.9149,487.6127,106.1093,492.2814,103.8363,482.6984" style="stroke: #A80036; stroke-width: 1.0;"/><text fill="#000000" font-family="sans-serif" font-size="13" lengthAdjust="spacingAndGlyphs" textLength="39" x="122.699" y="523.1045">任意の</text><text fill="#000000" font-family="sans-serif" font-size="13" lengthAdjust="spacingAndGlyphs" textLength="52" x="116.199" y="539.4561">アプリを</text><text fill="#000000" font-family="sans-serif" font-size="13" lengthAdjust="spacingAndGlyphs" textLength="26" x="129.199" y="555.8076">押下</text><!--link sc6.1 to sc2.1.2--><path d="M65.0607,472.0194 C51.4618,478.4034 38.07,487.5874 30.199,500.6094 C14.7954,526.0934 11.0325,544.8199 30.199,567.6094 C54.346,596.3208 157.015,606.0829 223.039,609.4014 " fill="none" id="sc6.1-sc2.1.2-1" style="stroke: #A80036; stroke-width: 1.0;"/><polygon fill="#A80036" points="228.123,609.6478,219.3266,605.2179,223.1288,609.4063,218.9404,613.2085,228.123,609.6478" style="stroke: #A80036; stroke-width: 1.0;"/><text fill="#000000" font-family="sans-serif" font-size="13" lengthAdjust="spacingAndGlyphs" textLength="39" x="44.199" y="523.1045">任意の</text><text fill="#000000" font-family="sans-serif" font-size="13" lengthAdjust="spacingAndGlyphs" textLength="65" x="31.199" y="539.4561">ユーザーを</text><text fill="#000000" font-family="sans-serif" font-size="13" lengthAdjust="spacingAndGlyphs" textLength="26" x="50.699" y="555.8076">押下</text><!--link sc6.2 to sc6.1--><path d="M61.5675,316.8124 C59.3523,321.6024 57.4332,326.6344 56.199,331.6094 C47.3163,367.4124 39.9918,381.4714 56.199,414.6094 C59.4864,421.3314 64.4261,427.2874 70.0058,432.4494 " fill="none" id="sc6.2-sc6.1" style="stroke: #A80036; stroke-width: 1.0;"/><polygon fill="#A80036" points="63.8669,312.1144,56.317,318.4389,61.6684,316.6051,63.5022,321.9565,63.8669,312.1144" style="stroke: #A80036; stroke-width: 1.0;"/><text fill="#000000" font-family="sans-serif" font-size="13" lengthAdjust="spacingAndGlyphs" textLength="39" x="57.199" y="370.6045">編集を</text><text fill="#000000" font-family="sans-serif" font-size="13" lengthAdjust="spacingAndGlyphs" textLength="26" x="63.699" y="386.9561">押下</text><!--link sc6.2 to sc6.1--><path d="M90.7485,312.5324 C93.2345,318.6464 95.5941,325.2714 97.199,331.6094 C105.2985,363.5984 108.3652,401.4194 109.5188,427.0154 " fill="none" id="sc6.2-sc6.1-1" style="stroke: #A80036; stroke-width: 1.0;"/><polygon fill="#A80036" points="109.737,432.2854,113.3607,423.1274,109.5299,427.2897,105.3676,423.4588,109.737,432.2854" style="stroke: #A80036; stroke-width: 1.0;"/><text fill="#000000" font-family="sans-serif" font-size="13" lengthAdjust="spacingAndGlyphs" textLength="39" x="110.199" y="370.6045">更新を</text><text fill="#000000" font-family="sans-serif" font-size="13" lengthAdjust="spacingAndGlyphs" textLength="26" x="116.699" y="386.9561">押下</text><!--
@startuml
	state content {
		state choice <<choice>>
		state "Aboutページ" as sc1
		state "ユーザー詳細" as sc2.1 : マイページ
		state "ユーザー詳細" as sc2.1.2 : 任意のユーザー
		state "ユーザー編集" as sc2.2
		state "フォロー一覧" as sc3
		state "フォロワー一覧" as sc4
		state "タグ詳細" as sc5
		state "アプリ詳細" as sc6.1
		state "アプリ編集" as sc6.2
		[*] -right-> sc1 : 非ログイン時、\n"/"にアクセス
		[*] -right-> sc2.1 : ログイン時、\n"/"にアクセス
		[*] -right-> sc2.1.2 : ユーザーの\nURLに\nアクセス
		sc1 -down-> choice : ログインボタンを押下
		choice -down-> sc2.1 : 既存\nユーザー
		choice -down-> sc2.2 : 新規\nユーザー
		sc2.1 -left-> sc2.2 : 編集を\n押下
		sc2.2 -right-> sc2.1 : 更新を\n押下
		sc2.1 -down-> sc3 : フォローを\n押下
		sc3 -up-> sc2.1 : アプリを\n押下
		sc2.1 -down-> sc4 : フォロワーを\n押下
		sc4 -up-> sc2.1 : アプリを\n押下
		sc2.1 -down-> sc5 : 任意の\nタグを\n押下
		sc5 -down-> sc2.1.2 : 任意の\nユーザーを\n押下
		sc2.1 -down-> sc6.1 : 任意の\nアプリ\nアイコンか\nアプリ名を\n押下
		sc3 -down-> sc2.1.2 : アプリか\n任意の\nユーザーを\n押下
		sc4 -down-> sc2.1.2 : アプリか\n任意の\nユーザーを\n押下
		sc2.1.2 -up-> sc3 : フォロー\nを押下
		sc2.1.2 -up-> sc4 : フォロワー\nを押下
		sc2.1.2 -up-> sc5 : 任意の\nタグを\n押下
		sc2.1.2 -up-> sc6.1 : 任意の\nアプリを\n押下
		sc6.1 -down-> sc2.1.2 : 任意の\nユーザーを\n押下
		sc6.1 -up-> sc6.2 : 編集を\n押下
		sc6.2 -down-> sc6.1 : 更新を\n押下
	}
@enduml

PlantUML version 1.2019.06(Sat May 25 02:10:25 JST 2019)
(GPL source distribution)
Java Runtime: OpenJDK Runtime Environment
JVM: OpenJDK 64-Bit Server VM
Java Version: 14.0.2+12-46
Operating System: Windows 10
OS Version: 10.0
Default Encoding: MS932
Language: ja
Country: JP
--></g></svg>