<?xml version="1.0" encoding="UTF-8" standalone="no"?><svg xmlns="http://www.w3.org/2000/svg" xmlns:xlink="http://www.w3.org/1999/xlink" contentScriptType="application/ecmascript" contentStyleType="text/css" height="368px" preserveAspectRatio="none" style="width:587px;height:368px;" version="1.1" viewBox="0 0 587 368" width="587px" zoomAndPan="magnify"><defs><filter height="300%" id="f1v2yevx6kj90u" width="300%" x="-1" y="-1"><feGaussianBlur result="blurOut" stdDeviation="2.0"/><feColorMatrix in="blurOut" result="blurOut2" type="matrix" values="0 0 0 0 0 0 0 0 0 0 0 0 0 0 0 0 0 0 .4 0"/><feOffset dx="4.0" dy="4.0" in="blurOut2" result="blurOut3"/><feBlend in="SourceGraphic" in2="blurOut3" mode="normal"/></filter></defs><g><!--class apps--><rect fill="#FEFECE" filter="url(#f1v2yevx6kj90u)" height="117.1797" id="apps" style="stroke: #A80036; stroke-width: 1.5;" width="128" x="6" y="22"/><ellipse cx="51.75" cy="38" fill="#ADD1B2" rx="11" ry="11" style="stroke: #A80036; stroke-width: 1.0;"/><path d="M50.4688,36.6719 L54.9844,36.6719 L54.9844,38.625 L50.4688,38.625 L50.4688,42.9219 L55.7031,42.9219 L55.7031,44.8594 L48.25,44.8594 L48.25,31.2344 L55.375,31.2344 L55.375,33.1719 L50.4688,33.1719 L50.4688,36.6719 Z "/><text fill="#000000" font-family="sans-serif" font-size="12" lengthAdjust="spacingAndGlyphs" textLength="28" x="72.25" y="42.9102">apps</text><line style="stroke: #A80036; stroke-width: 1.5;" x1="7" x2="133" y1="54" y2="54"/><text fill="#000000" font-family="sans-serif" font-size="11" font-weight="bold" lengthAdjust="spacingAndGlyphs" textLength="39" x="12" y="69.4189">aid : int</text><line style="stroke: #A80036; stroke-width: 1.0;" x1="7" x2="133" y1="75.8359" y2="75.8359"/><text fill="#000000" font-family="sans-serif" font-size="11" lengthAdjust="spacingAndGlyphs" textLength="80" x="12" y="91.2549">adisabled : bit(1)</text><text fill="#000000" font-family="sans-serif" font-size="11" lengthAdjust="spacingAndGlyphs" textLength="116" x="12" y="105.0908">aimgpath : varchar(255)</text><text fill="#000000" font-family="sans-serif" font-size="11" lengthAdjust="spacingAndGlyphs" textLength="105" x="12" y="118.9268">aname : varchar(255)</text><text fill="#000000" font-family="sans-serif" font-size="11" lengthAdjust="spacingAndGlyphs" textLength="91" x="12" y="132.7627">aurl : varchar(255)</text><!--class users--><rect fill="#FEFECE" filter="url(#f1v2yevx6kj90u)" height="144.8516" id="users" style="stroke: #A80036; stroke-width: 1.5;" width="128" x="243" y="8"/><ellipse cx="286.8" cy="24" fill="#ADD1B2" rx="11" ry="11" style="stroke: #A80036; stroke-width: 1.0;"/><path d="M285.5188,22.6719 L290.0344,22.6719 L290.0344,24.625 L285.5188,24.625 L285.5188,28.9219 L290.7531,28.9219 L290.7531,30.8594 L283.3,30.8594 L283.3,17.2344 L290.425,17.2344 L290.425,19.1719 L285.5188,19.1719 L285.5188,22.6719 Z "/><text fill="#000000" font-family="sans-serif" font-size="12" lengthAdjust="spacingAndGlyphs" textLength="32" x="307.2" y="28.9102">users</text><line style="stroke: #A80036; stroke-width: 1.5;" x1="244" x2="370" y1="40" y2="40"/><text fill="#000000" font-family="sans-serif" font-size="11" font-weight="bold" lengthAdjust="spacingAndGlyphs" textLength="40" x="249" y="55.4189">uid : int</text><line style="stroke: #A80036; stroke-width: 1.0;" x1="244" x2="370" y1="61.8359" y2="61.8359"/><text fill="#000000" font-family="sans-serif" font-size="11" lengthAdjust="spacingAndGlyphs" textLength="103" x="249" y="77.2549">udesc : varchar(255)</text><text fill="#000000" font-family="sans-serif" font-size="11" lengthAdjust="spacingAndGlyphs" textLength="80" x="249" y="91.0908">udisabled : bit(1)</text><text fill="#000000" font-family="sans-serif" font-size="11" lengthAdjust="spacingAndGlyphs" textLength="116" x="249" y="104.9268">uimgpath : varchar(255)</text><text fill="#000000" font-family="sans-serif" font-size="11" lengthAdjust="spacingAndGlyphs" textLength="97" x="249" y="118.7627">umail : varchar(255)</text><text fill="#000000" font-family="sans-serif" font-size="11" lengthAdjust="spacingAndGlyphs" textLength="105" x="249" y="132.5986">uname : varchar(255)</text><text fill="#000000" font-family="sans-serif" font-size="11" lengthAdjust="spacingAndGlyphs" textLength="103" x="249" y="146.4346">userid : varchar(255)</text><!--class tags--><rect fill="#FEFECE" filter="url(#f1v2yevx6kj90u)" height="75.6719" id="tags" style="stroke: #A80036; stroke-width: 1.5;" width="73" x="502.5" y="42.5"/><ellipse cx="525.15" cy="58.5" fill="#ADD1B2" rx="11" ry="11" style="stroke: #A80036; stroke-width: 1.0;"/><path d="M523.8688,57.1719 L528.3844,57.1719 L528.3844,59.125 L523.8688,59.125 L523.8688,63.4219 L529.1031,63.4219 L529.1031,65.3594 L521.65,65.3594 L521.65,51.7344 L528.775,51.7344 L528.775,53.6719 L523.8688,53.6719 L523.8688,57.1719 Z "/><text fill="#000000" font-family="sans-serif" font-size="12" lengthAdjust="spacingAndGlyphs" textLength="24" x="540.85" y="63.4102">tags</text><line style="stroke: #A80036; stroke-width: 1.5;" x1="503.5" x2="574.5" y1="74.5" y2="74.5"/><text fill="#000000" font-family="sans-serif" font-size="11" font-weight="bold" lengthAdjust="spacingAndGlyphs" textLength="37" x="508.5" y="89.9189">tid : int</text><line style="stroke: #A80036; stroke-width: 1.0;" x1="503.5" x2="574.5" y1="96.3359" y2="96.3359"/><text fill="#000000" font-family="sans-serif" font-size="11" lengthAdjust="spacingAndGlyphs" textLength="61" x="508.5" y="111.7549">tagname : int</text><!--class nortifications--><rect fill="#FEFECE" filter="url(#f1v2yevx6kj90u)" height="131.0156" id="nortifications" style="stroke: #A80036; stroke-width: 1.5;" width="116" x="144" y="220"/><ellipse cx="165.3" cy="236" fill="#ADD1B2" rx="11" ry="11" style="stroke: #A80036; stroke-width: 1.0;"/><path d="M164.0188,234.6719 L168.5344,234.6719 L168.5344,236.625 L164.0188,236.625 L164.0188,240.9219 L169.2531,240.9219 L169.2531,242.8594 L161.8,242.8594 L161.8,229.2344 L168.925,229.2344 L168.925,231.1719 L164.0188,231.1719 L164.0188,234.6719 Z "/><text fill="#000000" font-family="sans-serif" font-size="12" lengthAdjust="spacingAndGlyphs" textLength="70" x="180.7" y="240.9102">nortifications</text><line style="stroke: #A80036; stroke-width: 1.5;" x1="145" x2="259" y1="252" y2="252"/><text fill="#000000" font-family="sans-serif" font-size="11" font-weight="bold" lengthAdjust="spacingAndGlyphs" textLength="40" x="150" y="267.4189">nid : int</text><line style="stroke: #A80036; stroke-width: 1.0;" x1="145" x2="259" y1="273.8359" y2="273.8359"/><text fill="#000000" font-family="sans-serif" font-size="11" lengthAdjust="spacingAndGlyphs" textLength="76" x="150" y="289.2549">ndate : datetime</text><text fill="#000000" font-family="sans-serif" font-size="11" lengthAdjust="spacingAndGlyphs" textLength="104" x="150" y="303.0908">ndetail : varchar(255)</text><text fill="#000000" font-family="sans-serif" font-size="11" lengthAdjust="spacingAndGlyphs" textLength="95" x="150" y="316.9268">ntitle : varchar(255)</text><text fill="#000000" font-family="sans-serif" font-size="11" lengthAdjust="spacingAndGlyphs" textLength="100" x="150" y="330.7627">ntype : varchar(255)</text><text fill="#000000" font-family="sans-serif" font-size="11" lengthAdjust="spacingAndGlyphs" textLength="62" x="150" y="344.5986">uid : int «FK»</text><!--class settings--><rect fill="#FEFECE" filter="url(#f1v2yevx6kj90u)" height="144.8516" id="settings" style="stroke: #A80036; stroke-width: 1.5;" width="172" x="295" y="213"/><ellipse cx="354.75" cy="229" fill="#ADD1B2" rx="11" ry="11" style="stroke: #A80036; stroke-width: 1.0;"/><path d="M353.4688,227.6719 L357.9844,227.6719 L357.9844,229.625 L353.4688,229.625 L353.4688,233.9219 L358.7031,233.9219 L358.7031,235.8594 L351.25,235.8594 L351.25,222.2344 L358.375,222.2344 L358.375,224.1719 L353.4688,224.1719 L353.4688,227.6719 Z "/><text fill="#000000" font-family="sans-serif" font-size="12" lengthAdjust="spacingAndGlyphs" textLength="44" x="375.25" y="233.9102">settings</text><line style="stroke: #A80036; stroke-width: 1.5;" x1="296" x2="466" y1="245" y2="245"/><text fill="#000000" font-family="sans-serif" font-size="11" font-weight="bold" lengthAdjust="spacingAndGlyphs" textLength="40" x="301" y="260.4189">sid : int</text><line style="stroke: #A80036; stroke-width: 1.0;" x1="296" x2="466" y1="266.8359" y2="266.8359"/><text fill="#000000" font-family="sans-serif" font-size="11" lengthAdjust="spacingAndGlyphs" textLength="144" x="301" y="282.2549">accountsetting : varchar(255)</text><text fill="#000000" font-family="sans-serif" font-size="11" lengthAdjust="spacingAndGlyphs" textLength="160" x="301" y="296.0908">customizesetting1 : varchar(255)</text><text fill="#000000" font-family="sans-serif" font-size="11" lengthAdjust="spacingAndGlyphs" textLength="127" x="301" y="309.9268">norsetting1 : varchar(255)</text><text fill="#000000" font-family="sans-serif" font-size="11" lengthAdjust="spacingAndGlyphs" textLength="141" x="301" y="323.7627">profilesetting1 : varchar(255)</text><text fill="#000000" font-family="sans-serif" font-size="11" lengthAdjust="spacingAndGlyphs" textLength="92" x="301" y="337.5986">uservisibled : bit(1)</text><text fill="#000000" font-family="sans-serif" font-size="11" lengthAdjust="spacingAndGlyphs" textLength="62" x="301" y="351.4346">uid : int «FK»</text><!--class userapp--><rect fill="#FEFECE" filter="url(#f1v2yevx6kj90u)" height="75.6719" id="userapp" style="stroke: #A80036; stroke-width: 1.5;" width="78" x="31" y="247.5"/><ellipse cx="46" cy="263.5" fill="#ADD1B2" rx="11" ry="11" style="stroke: #A80036; stroke-width: 1.0;"/><path d="M44.7188,262.1719 L49.2344,262.1719 L49.2344,264.125 L44.7188,264.125 L44.7188,268.4219 L49.9531,268.4219 L49.9531,270.3594 L42.5,270.3594 L42.5,256.7344 L49.625,256.7344 L49.625,258.6719 L44.7188,258.6719 L44.7188,262.1719 Z "/><text fill="#000000" font-family="sans-serif" font-size="12" lengthAdjust="spacingAndGlyphs" textLength="46" x="60" y="268.4102">userapp</text><line style="stroke: #A80036; stroke-width: 1.5;" x1="32" x2="108" y1="279.5" y2="279.5"/><text fill="#000000" font-family="sans-serif" font-size="11" lengthAdjust="spacingAndGlyphs" textLength="62" x="37" y="294.9189">uid : int «FK»</text><text fill="#000000" font-family="sans-serif" font-size="11" lengthAdjust="spacingAndGlyphs" textLength="62" x="37" y="308.7549">aid : int «FK»</text><line style="stroke: #A80036; stroke-width: 1.5;" x1="32" x2="108" y1="315.1719" y2="315.1719"/><!--class usertag--><rect fill="#FEFECE" filter="url(#f1v2yevx6kj90u)" height="75.6719" id="usertag" style="stroke: #A80036; stroke-width: 1.5;" width="74" x="502" y="247.5"/><ellipse cx="517" cy="263.5" fill="#ADD1B2" rx="11" ry="11" style="stroke: #A80036; stroke-width: 1.0;"/><path d="M515.7188,262.1719 L520.2344,262.1719 L520.2344,264.125 L515.7188,264.125 L515.7188,268.4219 L520.9531,268.4219 L520.9531,270.3594 L513.5,270.3594 L513.5,256.7344 L520.625,256.7344 L520.625,258.6719 L515.7188,258.6719 L515.7188,262.1719 Z "/><text fill="#000000" font-family="sans-serif" font-size="12" lengthAdjust="spacingAndGlyphs" textLength="42" x="531" y="268.4102">usertag</text><line style="stroke: #A80036; stroke-width: 1.5;" x1="503" x2="575" y1="279.5" y2="279.5"/><text fill="#000000" font-family="sans-serif" font-size="11" lengthAdjust="spacingAndGlyphs" textLength="62" x="508" y="294.9189">uid : int «FK»</text><text fill="#000000" font-family="sans-serif" font-size="11" lengthAdjust="spacingAndGlyphs" textLength="59" x="508" y="308.7549">tid : int «FK»</text><line style="stroke: #A80036; stroke-width: 1.5;" x1="503" x2="575" y1="315.1719" y2="315.1719"/><!--link apps to userapp--><path d="M70,147.406 C70,177.389 70,212.118 70,239.119 " fill="none" id="apps-userapp" style="stroke: #A80036; stroke-width: 1.0;"/><line style="stroke: #A80036; stroke-width: 1.0;" x1="70" x2="76" y1="239.237" y2="247.237"/><line style="stroke: #A80036; stroke-width: 1.0;" x1="70" x2="64" y1="239.237" y2="247.237"/><line style="stroke: #A80036; stroke-width: 1.0;" x1="70" x2="70" y1="239.237" y2="247.237"/><ellipse cx="70" cy="233.237" fill="none" rx="4" ry="4" style="stroke: #A80036; stroke-width: 1.0;"/><line style="stroke: #A80036; stroke-width: 1.0;" x1="66" x2="74" y1="143.129" y2="143.129"/><line style="stroke: #A80036; stroke-width: 1.0;" x1="66" x2="74" y1="146.129" y2="146.129"/><line style="stroke: #A80036; stroke-width: 1.0;" x1="70" x2="70" y1="147.129" y2="139.129"/><!--link users to userapp--><path d="M236.02,126.288 C201.088,149.968 159.417,180.769 126,213 C117.332,221.36 108.852,231.096 101.2191,240.642 " fill="none" id="users-userapp" style="stroke: #A80036; stroke-width: 1.0;"/><line style="stroke: #A80036; stroke-width: 1.0;" x1="101.0135" x2="100.8002" y1="240.9058" y2="250.9036"/><line style="stroke: #A80036; stroke-width: 1.0;" x1="101.0135" x2="91.356" y1="240.9058" y2="243.5004"/><line style="stroke: #A80036; stroke-width: 1.0;" x1="101.0135" x2="96.0781" y1="240.9058" y2="247.202"/><ellipse cx="104.7151" cy="236.1837" fill="none" rx="4" ry="4" style="stroke: #A80036; stroke-width: 1.0;"/><line style="stroke: #A80036; stroke-width: 1.0;" x1="237.3602" x2="241.8271" y1="120.5641" y2="127.2008"/><line style="stroke: #A80036; stroke-width: 1.0;" x1="234.8714" x2="239.3383" y1="122.2391" y2="128.8759"/><line style="stroke: #A80036; stroke-width: 1.0;" x1="236.2752" x2="242.912" y1="126.1159" y2="121.649"/><!--link tags to usertag--><path d="M539,127.159 C539,160.533 539,205.6 539,238.948 " fill="none" id="tags-usertag" style="stroke: #A80036; stroke-width: 1.0;"/><line style="stroke: #A80036; stroke-width: 1.0;" x1="539" x2="545" y1="239.16" y2="247.16"/><line style="stroke: #A80036; stroke-width: 1.0;" x1="539" x2="533" y1="239.16" y2="247.16"/><line style="stroke: #A80036; stroke-width: 1.0;" x1="539" x2="539" y1="239.16" y2="247.16"/><ellipse cx="539" cy="233.16" fill="none" rx="4" ry="4" style="stroke: #A80036; stroke-width: 1.0;"/><line style="stroke: #A80036; stroke-width: 1.0;" x1="535" x2="543" y1="122.733" y2="122.733"/><line style="stroke: #A80036; stroke-width: 1.0;" x1="535" x2="543" y1="125.733" y2="125.733"/><line style="stroke: #A80036; stroke-width: 1.0;" x1="539" x2="539" y1="126.733" y2="118.733"/><!--link users to usertag--><path d="M378.069,127.534 C411.904,151.09 451.886,181.419 484,213 C492.528,221.387 500.863,231.133 508.361,240.682 " fill="none" id="users-usertag" style="stroke: #A80036; stroke-width: 1.0;"/><line style="stroke: #A80036; stroke-width: 1.0;" x1="508.5297" x2="518.1642" y1="240.902" y2="243.5808"/><line style="stroke: #A80036; stroke-width: 1.0;" x1="508.5297" x2="508.6558" y1="240.902" y2="250.9012"/><line style="stroke: #A80036; stroke-width: 1.0;" x1="508.5297" x2="513.41" y1="240.902" y2="247.241"/><ellipse cx="504.8695" cy="236.1478" fill="none" rx="4" ry="4" style="stroke: #A80036; stroke-width: 1.0;"/><line style="stroke: #A80036; stroke-width: 1.0;" x1="372.4036" x2="376.9529" y1="128.4799" y2="121.8994"/><line style="stroke: #A80036; stroke-width: 1.0;" x1="374.8713" x2="379.4206" y1="130.186" y2="123.6054"/><line style="stroke: #A80036; stroke-width: 1.0;" x1="377.9685" x2="371.388" y1="127.4644" y2="122.915"/><!--link users to nortifications--><path d="M266.266,160.253 C257.369,177.454 247.996,195.575 239.243,212.497 " fill="none" id="users-nortifications" style="stroke: #A80036; stroke-width: 1.0;"/><line style="stroke: #A80036; stroke-width: 1.0;" x1="239.2087" x2="240.8622" y1="212.5644" y2="222.4267"/><line style="stroke: #A80036; stroke-width: 1.0;" x1="239.2087" x2="230.2038" y1="212.5644" y2="216.9133"/><line style="stroke: #A80036; stroke-width: 1.0;" x1="239.2087" x2="235.533" y1="212.5644" y2="219.67"/><ellipse cx="241.9654" cy="207.2352" fill="none" rx="4" ry="4" style="stroke: #A80036; stroke-width: 1.0;"/><line style="stroke: #A80036; stroke-width: 1.0;" x1="264.5908" x2="271.6973" y1="154.7863" y2="158.4602"/><line style="stroke: #A80036; stroke-width: 1.0;" x1="263.2131" x2="270.3195" y1="157.4512" y2="161.1251"/><line style="stroke: #A80036; stroke-width: 1.0;" x1="266.3071" x2="269.981" y1="160.1765" y2="153.07"/><!--link users to settings--><path d="M335.936,160.879 C341.26,175.482 346.817,190.728 352.138,205.324 " fill="none" id="users-settings" style="stroke: #A80036; stroke-width: 1.0;"/><line style="stroke: #A80036; stroke-width: 1.0;" x1="352.1569" x2="360.5341" y1="205.3759" y2="210.8369"/><line style="stroke: #A80036; stroke-width: 1.0;" x1="352.1569" x2="349.2599" y1="205.3759" y2="214.9471"/><line style="stroke: #A80036; stroke-width: 1.0;" x1="352.1569" x2="354.897" y1="205.3759" y2="212.892"/><ellipse cx="350.1018" cy="199.7388" fill="none" rx="4" ry="4" style="stroke: #A80036; stroke-width: 1.0;"/><line style="stroke: #A80036; stroke-width: 1.0;" x1="330.702" x2="338.2181" y1="158.1981" y2="155.458"/><line style="stroke: #A80036; stroke-width: 1.0;" x1="331.7296" x2="339.2457" y1="161.0166" y2="158.2765"/><line style="stroke: #A80036; stroke-width: 1.0;" x1="335.8301" x2="333.09" y1="160.5861" y2="153.07"/><!--
@startuml
entity apps {
	**aid : int**
	- - -
	adisabled : bit(1)
	aimgpath : varchar(255) 
	aname : varchar(255)
	aurl : varchar(255)
}
entity users{
	**uid : int**
	- - -
	udesc : varchar(255)
	udisabled : bit(1)
	uimgpath : varchar(255)
	umail : varchar(255)
	uname : varchar(255)
	userid : varchar(255)
}
entity tags{
	**tid : int**
	- - -
	tagname : int
}
entity nortifications{
	**nid : int**
	- - -
	ndate : datetime
	ndetail : varchar(255)
	ntitle : varchar(255)
	ntype : varchar(255)
	uid : int <<FK>>
}
entity settings{
	**sid : int**
	- - -
	accountsetting : varchar(255)
	customizesetting1 : varchar(255)
	norsetting1 : varchar(255)
	profilesetting1 : varchar(255)
	uservisibled : bit(1)
	uid : int <<FK>>
}
entity userapp{
	uid : int <<FK>>
	aid : int <<FK>>
}
entity usertag{
	uid : int <<FK>>
	tid : int <<FK>>
}
apps ||- -o{ userapp
users ||- -o{ userapp
tags  ||- -o{ usertag
users  ||- -o{ usertag
users  ||- -o{ nortifications
users  ||- -o{ settings
@enduml

PlantUML version 1.2019.06(Sat May 25 02:10:25 JST 2019)
(GPL source distribution)
Java Runtime: OpenJDK Runtime Environment
JVM: OpenJDK 64-Bit Server VM
Java Version: 14.0.1+7
Operating System: Windows 10
OS Version: 10.0
Default Encoding: MS932
Language: ja
Country: JP
--></g></svg>