<?xml version="1.0" encoding="UTF-8" standalone="no"?><svg xmlns="http://www.w3.org/2000/svg" xmlns:xlink="http://www.w3.org/1999/xlink" contentScriptType="application/ecmascript" contentStyleType="text/css" height="368px" preserveAspectRatio="none" style="width:818px;height:368px;" version="1.1" viewBox="0 0 818 368" width="818px" zoomAndPan="magnify"><defs><filter height="300%" id="fcz82be6fh9iv" width="300%" x="-1" y="-1"><feGaussianBlur result="blurOut" stdDeviation="2.0"/><feColorMatrix in="blurOut" result="blurOut2" type="matrix" values="0 0 0 0 0 0 0 0 0 0 0 0 0 0 0 0 0 0 .4 0"/><feOffset dx="4.0" dy="4.0" in="blurOut2" result="blurOut3"/><feBlend in="SourceGraphic" in2="blurOut3" mode="normal"/></filter></defs><g><!--class apps--><rect fill="#FEFECE" filter="url(#fcz82be6fh9iv)" height="117.1797" id="apps" style="stroke: #A80036; stroke-width: 1.5;" width="142" x="6" y="22"/><ellipse cx="58.75" cy="38" fill="#ADD1B2" rx="11" ry="11" style="stroke: #A80036; stroke-width: 1.0;"/><path d="M57.4688,36.6719 L61.9844,36.6719 L61.9844,38.625 L57.4688,38.625 L57.4688,42.9219 L62.7031,42.9219 L62.7031,44.8594 L55.25,44.8594 L55.25,31.2344 L62.375,31.2344 L62.375,33.1719 L57.4688,33.1719 L57.4688,36.6719 Z "/><text fill="#000000" font-family="sans-serif" font-size="12" lengthAdjust="spacingAndGlyphs" textLength="28" x="79.25" y="42.9102">apps</text><line style="stroke: #A80036; stroke-width: 1.5;" x1="7" x2="147" y1="54" y2="54"/><ellipse cx="17" cy="66.418" fill="#000000" rx="3" ry="3" style="stroke: #000000; stroke-width: 1.0;"/><text fill="#000000" font-family="sans-serif" font-size="11" font-weight="bold" lengthAdjust="spacingAndGlyphs" textLength="39" x="26" y="69.4189">aid : int</text><line style="stroke: #A80036; stroke-width: 1.0;" x1="7" x2="147" y1="75.8359" y2="75.8359"/><text fill="#000000" font-family="sans-serif" font-size="11" lengthAdjust="spacingAndGlyphs" textLength="80" x="26" y="91.2549">adisabled : bit(1)</text><text fill="#000000" font-family="sans-serif" font-size="11" lengthAdjust="spacingAndGlyphs" textLength="116" x="26" y="105.0908">aimgpath : varchar(255)</text><ellipse cx="17" cy="115.9258" fill="#000000" rx="3" ry="3" style="stroke: #000000; stroke-width: 1.0;"/><text fill="#000000" font-family="sans-serif" font-size="11" lengthAdjust="spacingAndGlyphs" textLength="105" x="26" y="118.9268">aname : varchar(255)</text><ellipse cx="17" cy="129.7617" fill="#000000" rx="3" ry="3" style="stroke: #000000; stroke-width: 1.0;"/><text fill="#000000" font-family="sans-serif" font-size="11" lengthAdjust="spacingAndGlyphs" textLength="91" x="26" y="132.7627">aurl : varchar(255)</text><!--class users--><rect fill="#FEFECE" filter="url(#fcz82be6fh9iv)" height="144.8516" id="users" style="stroke: #A80036; stroke-width: 1.5;" width="142" x="264" y="8"/><ellipse cx="314.75" cy="24" fill="#ADD1B2" rx="11" ry="11" style="stroke: #A80036; stroke-width: 1.0;"/><path d="M313.4688,22.6719 L317.9844,22.6719 L317.9844,24.625 L313.4688,24.625 L313.4688,28.9219 L318.7031,28.9219 L318.7031,30.8594 L311.25,30.8594 L311.25,17.2344 L318.375,17.2344 L318.375,19.1719 L313.4688,19.1719 L313.4688,22.6719 Z "/><text fill="#000000" font-family="sans-serif" font-size="12" lengthAdjust="spacingAndGlyphs" textLength="32" x="335.25" y="28.9102">users</text><line style="stroke: #A80036; stroke-width: 1.5;" x1="265" x2="405" y1="40" y2="40"/><ellipse cx="275" cy="52.418" fill="#000000" rx="3" ry="3" style="stroke: #000000; stroke-width: 1.0;"/><text fill="#000000" font-family="sans-serif" font-size="11" font-weight="bold" lengthAdjust="spacingAndGlyphs" textLength="40" x="284" y="55.4189">uid : int</text><line style="stroke: #A80036; stroke-width: 1.0;" x1="265" x2="405" y1="61.8359" y2="61.8359"/><text fill="#000000" font-family="sans-serif" font-size="11" lengthAdjust="spacingAndGlyphs" textLength="103" x="284" y="77.2549">udesc : varchar(255)</text><text fill="#000000" font-family="sans-serif" font-size="11" lengthAdjust="spacingAndGlyphs" textLength="80" x="284" y="91.0908">udisabled : bit(1)</text><text fill="#000000" font-family="sans-serif" font-size="11" lengthAdjust="spacingAndGlyphs" textLength="116" x="284" y="104.9268">uimgpath : varchar(255)</text><text fill="#000000" font-family="sans-serif" font-size="11" lengthAdjust="spacingAndGlyphs" textLength="97" x="284" y="118.7627">umail : varchar(255)</text><ellipse cx="275" cy="129.5977" fill="#000000" rx="3" ry="3" style="stroke: #000000; stroke-width: 1.0;"/><text fill="#000000" font-family="sans-serif" font-size="11" lengthAdjust="spacingAndGlyphs" textLength="105" x="284" y="132.5986">uname : varchar(255)</text><ellipse cx="275" cy="143.4336" fill="#000000" rx="3" ry="3" style="stroke: #000000; stroke-width: 1.0;"/><text fill="#000000" font-family="sans-serif" font-size="11" lengthAdjust="spacingAndGlyphs" textLength="103" x="284" y="146.4346">userid : varchar(255)</text><!--class tags--><rect fill="#FEFECE" filter="url(#fcz82be6fh9iv)" height="75.6719" id="tags" style="stroke: #A80036; stroke-width: 1.5;" width="73" x="555.5" y="42.5"/><ellipse cx="578.15" cy="58.5" fill="#ADD1B2" rx="11" ry="11" style="stroke: #A80036; stroke-width: 1.0;"/><path d="M576.8688,57.1719 L581.3844,57.1719 L581.3844,59.125 L576.8688,59.125 L576.8688,63.4219 L582.1031,63.4219 L582.1031,65.3594 L574.65,65.3594 L574.65,51.7344 L581.775,51.7344 L581.775,53.6719 L576.8688,53.6719 L576.8688,57.1719 Z "/><text fill="#000000" font-family="sans-serif" font-size="12" lengthAdjust="spacingAndGlyphs" textLength="24" x="593.85" y="63.4102">tags</text><line style="stroke: #A80036; stroke-width: 1.5;" x1="556.5" x2="627.5" y1="74.5" y2="74.5"/><ellipse cx="566.5" cy="86.918" fill="#000000" rx="3" ry="3" style="stroke: #000000; stroke-width: 1.0;"/><text fill="#000000" font-family="sans-serif" font-size="11" font-weight="bold" lengthAdjust="spacingAndGlyphs" textLength="37" x="575.5" y="89.9189">tid : int</text><line style="stroke: #A80036; stroke-width: 1.0;" x1="556.5" x2="627.5" y1="96.3359" y2="96.3359"/><text fill="#000000" font-family="sans-serif" font-size="11" lengthAdjust="spacingAndGlyphs" textLength="61" x="561.5" y="111.7549">tname : int</text><!--class nortifications--><rect fill="#FEFECE" filter="url(#fcz82be6fh9iv)" height="131.0156" id="nortifications" style="stroke: #A80036; stroke-width: 1.5;" width="130" x="159" y="220"/><ellipse cx="186.6" cy="236" fill="#ADD1B2" rx="11" ry="11" style="stroke: #A80036; stroke-width: 1.0;"/><path d="M185.3188,234.6719 L189.8344,234.6719 L189.8344,236.625 L185.3188,236.625 L185.3188,240.9219 L190.5531,240.9219 L190.5531,242.8594 L183.1,242.8594 L183.1,229.2344 L190.225,229.2344 L190.225,231.1719 L185.3188,231.1719 L185.3188,234.6719 Z "/><text fill="#000000" font-family="sans-serif" font-size="12" lengthAdjust="spacingAndGlyphs" textLength="70" x="203.4" y="240.9102">nortifications</text><line style="stroke: #A80036; stroke-width: 1.5;" x1="160" x2="288" y1="252" y2="252"/><ellipse cx="170" cy="264.418" fill="#000000" rx="3" ry="3" style="stroke: #000000; stroke-width: 1.0;"/><text fill="#000000" font-family="sans-serif" font-size="11" font-weight="bold" lengthAdjust="spacingAndGlyphs" textLength="40" x="179" y="267.4189">nid : int</text><line style="stroke: #A80036; stroke-width: 1.0;" x1="160" x2="288" y1="273.8359" y2="273.8359"/><text fill="#000000" font-family="sans-serif" font-size="11" lengthAdjust="spacingAndGlyphs" textLength="76" x="179" y="289.2549">ndate : datetime</text><text fill="#000000" font-family="sans-serif" font-size="11" lengthAdjust="spacingAndGlyphs" textLength="104" x="179" y="303.0908">ndetail : varchar(255)</text><text fill="#000000" font-family="sans-serif" font-size="11" lengthAdjust="spacingAndGlyphs" textLength="95" x="179" y="316.9268">ntitle : varchar(255)</text><text fill="#000000" font-family="sans-serif" font-size="11" lengthAdjust="spacingAndGlyphs" textLength="100" x="179" y="330.7627">ntype : varchar(255)</text><ellipse cx="170" cy="341.5977" fill="#000000" rx="3" ry="3" style="stroke: #000000; stroke-width: 1.0;"/><text fill="#000000" font-family="sans-serif" font-size="11" font-weight="bold" lengthAdjust="spacingAndGlyphs" textLength="68" x="179" y="344.5986">uid : int «FK»</text><!--class settings--><rect fill="#FEFECE" filter="url(#fcz82be6fh9iv)" height="144.8516" id="settings" style="stroke: #A80036; stroke-width: 1.5;" width="186" x="324" y="213"/><ellipse cx="390.75" cy="229" fill="#ADD1B2" rx="11" ry="11" style="stroke: #A80036; stroke-width: 1.0;"/><path d="M389.4688,227.6719 L393.9844,227.6719 L393.9844,229.625 L389.4688,229.625 L389.4688,233.9219 L394.7031,233.9219 L394.7031,235.8594 L387.25,235.8594 L387.25,222.2344 L394.375,222.2344 L394.375,224.1719 L389.4688,224.1719 L389.4688,227.6719 Z "/><text fill="#000000" font-family="sans-serif" font-size="12" lengthAdjust="spacingAndGlyphs" textLength="44" x="411.25" y="233.9102">settings</text><line style="stroke: #A80036; stroke-width: 1.5;" x1="325" x2="509" y1="245" y2="245"/><ellipse cx="335" cy="257.418" fill="#000000" rx="3" ry="3" style="stroke: #000000; stroke-width: 1.0;"/><text fill="#000000" font-family="sans-serif" font-size="11" font-weight="bold" lengthAdjust="spacingAndGlyphs" textLength="40" x="344" y="260.4189">sid : int</text><line style="stroke: #A80036; stroke-width: 1.0;" x1="325" x2="509" y1="266.8359" y2="266.8359"/><text fill="#000000" font-family="sans-serif" font-size="11" lengthAdjust="spacingAndGlyphs" textLength="144" x="344" y="282.2549">accountsetting : varchar(255)</text><text fill="#000000" font-family="sans-serif" font-size="11" lengthAdjust="spacingAndGlyphs" textLength="160" x="344" y="296.0908">customizesetting1 : varchar(255)</text><text fill="#000000" font-family="sans-serif" font-size="11" lengthAdjust="spacingAndGlyphs" textLength="127" x="344" y="309.9268">norsetting1 : varchar(255)</text><text fill="#000000" font-family="sans-serif" font-size="11" lengthAdjust="spacingAndGlyphs" textLength="141" x="344" y="323.7627">profilesetting1 : varchar(255)</text><text fill="#000000" font-family="sans-serif" font-size="11" lengthAdjust="spacingAndGlyphs" textLength="92" x="344" y="337.5986">uservisibled : bit(1)</text><ellipse cx="335" cy="348.4336" fill="#000000" rx="3" ry="3" style="stroke: #000000; stroke-width: 1.0;"/><text fill="#000000" font-family="sans-serif" font-size="11" font-weight="bold" lengthAdjust="spacingAndGlyphs" textLength="68" x="344" y="351.4346">uid : int «FK»</text><!--class userapp--><rect fill="#FEFECE" filter="url(#fcz82be6fh9iv)" height="75.6719" id="userapp" style="stroke: #A80036; stroke-width: 1.5;" width="94" x="30" y="247.5"/><ellipse cx="52.2" cy="263.5" fill="#ADD1B2" rx="11" ry="11" style="stroke: #A80036; stroke-width: 1.0;"/><path d="M50.9188,262.1719 L55.4344,262.1719 L55.4344,264.125 L50.9188,264.125 L50.9188,268.4219 L56.1531,268.4219 L56.1531,270.3594 L48.7,270.3594 L48.7,256.7344 L55.825,256.7344 L55.825,258.6719 L50.9188,258.6719 L50.9188,262.1719 Z "/><text fill="#000000" font-family="sans-serif" font-size="12" lengthAdjust="spacingAndGlyphs" textLength="46" x="67.8" y="268.4102">userapp</text><line style="stroke: #A80036; stroke-width: 1.5;" x1="31" x2="123" y1="279.5" y2="279.5"/><ellipse cx="41" cy="291.918" fill="#000000" rx="3" ry="3" style="stroke: #000000; stroke-width: 1.0;"/><text fill="#000000" font-family="sans-serif" font-size="11" font-weight="bold" lengthAdjust="spacingAndGlyphs" textLength="68" x="50" y="294.9189">uid : int «FK»</text><ellipse cx="41" cy="305.7539" fill="#000000" rx="3" ry="3" style="stroke: #000000; stroke-width: 1.0;"/><text fill="#000000" font-family="sans-serif" font-size="11" font-weight="bold" lengthAdjust="spacingAndGlyphs" textLength="67" x="50" y="308.7549">aid : int «FK»</text><line style="stroke: #A80036; stroke-width: 1.5;" x1="31" x2="123" y1="315.1719" y2="315.1719"/><!--class usertag--><rect fill="#FEFECE" filter="url(#fcz82be6fh9iv)" height="75.6719" id="usertag" style="stroke: #A80036; stroke-width: 1.5;" width="94" x="545" y="247.5"/><ellipse cx="569" cy="263.5" fill="#ADD1B2" rx="11" ry="11" style="stroke: #A80036; stroke-width: 1.0;"/><path d="M567.7188,262.1719 L572.2344,262.1719 L572.2344,264.125 L567.7188,264.125 L567.7188,268.4219 L572.9531,268.4219 L572.9531,270.3594 L565.5,270.3594 L565.5,256.7344 L572.625,256.7344 L572.625,258.6719 L567.7188,258.6719 L567.7188,262.1719 Z "/><text fill="#000000" font-family="sans-serif" font-size="12" lengthAdjust="spacingAndGlyphs" textLength="42" x="585" y="268.4102">usertag</text><line style="stroke: #A80036; stroke-width: 1.5;" x1="546" x2="638" y1="279.5" y2="279.5"/><ellipse cx="556" cy="291.918" fill="#000000" rx="3" ry="3" style="stroke: #000000; stroke-width: 1.0;"/><text fill="#000000" font-family="sans-serif" font-size="11" font-weight="bold" lengthAdjust="spacingAndGlyphs" textLength="68" x="565" y="294.9189">uid : int «FK»</text><ellipse cx="556" cy="305.7539" fill="#000000" rx="3" ry="3" style="stroke: #000000; stroke-width: 1.0;"/><text fill="#000000" font-family="sans-serif" font-size="11" font-weight="bold" lengthAdjust="spacingAndGlyphs" textLength="65" x="565" y="308.7549">tid : int «FK»</text><line style="stroke: #A80036; stroke-width: 1.5;" x1="546" x2="638" y1="315.1719" y2="315.1719"/><!--class follow--><rect fill="#FEFECE" filter="url(#fcz82be6fh9iv)" height="75.6719" id="follow" style="stroke: #A80036; stroke-width: 1.5;" width="133" x="674.5" y="247.5"/><ellipse cx="720.75" cy="263.5" fill="#ADD1B2" rx="11" ry="11" style="stroke: #A80036; stroke-width: 1.0;"/><path d="M719.4688,262.1719 L723.9844,262.1719 L723.9844,264.125 L719.4688,264.125 L719.4688,268.4219 L724.7031,268.4219 L724.7031,270.3594 L717.25,270.3594 L717.25,256.7344 L724.375,256.7344 L724.375,258.6719 L719.4688,258.6719 L719.4688,262.1719 Z "/><text fill="#000000" font-family="sans-serif" font-size="12" lengthAdjust="spacingAndGlyphs" textLength="32" x="741.25" y="268.4102">follow</text><line style="stroke: #A80036; stroke-width: 1.5;" x1="675.5" x2="806.5" y1="279.5" y2="279.5"/><ellipse cx="685.5" cy="291.918" fill="#000000" rx="3" ry="3" style="stroke: #000000; stroke-width: 1.0;"/><text fill="#000000" font-family="sans-serif" font-size="11" font-weight="bold" lengthAdjust="spacingAndGlyphs" textLength="95" x="694.5" y="294.9189">followid : int «FK»</text><ellipse cx="685.5" cy="305.7539" fill="#000000" rx="3" ry="3" style="stroke: #000000; stroke-width: 1.0;"/><text fill="#000000" font-family="sans-serif" font-size="11" font-weight="bold" lengthAdjust="spacingAndGlyphs" textLength="107" x="694.5" y="308.7549">followerid : int «FK»</text><line style="stroke: #A80036; stroke-width: 1.5;" x1="675.5" x2="806.5" y1="315.1719" y2="315.1719"/><!--class uid--><rect fill="#FEFECE" filter="url(#fcz82be6fh9iv)" height="48" id="uid" style="stroke: #A80036; stroke-width: 1.5;" width="49" x="716.5" y="56.5"/><ellipse cx="731.5" cy="72.5" fill="#ADD1B2" rx="11" ry="11" style="stroke: #A80036; stroke-width: 1.0;"/><path d="M735.1875,73.7031 Q734.9375,77.1875 733.7969,78.3438 Q732.7656,79.3594 731.3594,79.3594 Q729.9531,79.3594 728.9219,78.3438 Q727.1719,76.5781 727.1719,72.9063 Q727.1719,68.6563 729.0469,66.75 Q730.0938,65.7344 731.4219,65.7344 Q732.8281,65.7344 733.6719,66.5469 Q735.1563,68.0625 735.0781,70.9375 L732.9531,70.9375 Q732.875,68.6094 732.2344,67.9688 Q731.9531,67.6719 731.4219,67.6719 Q730.9688,67.6719 730.6094,68.0469 Q729.375,69.2656 729.375,72.7813 Q729.375,75.8281 730.4219,76.8438 Q730.8438,77.2813 731.3594,77.2813 Q731.8125,77.2813 732.25,76.8438 Q732.8125,76.2969 732.8906,73.7031 L735.1875,73.7031 Z "/><text fill="#000000" font-family="sans-serif" font-size="12" lengthAdjust="spacingAndGlyphs" textLength="17" x="745.5" y="77.4102">uid</text><line style="stroke: #A80036; stroke-width: 1.5;" x1="717.5" x2="764.5" y1="88.5" y2="88.5"/><line style="stroke: #A80036; stroke-width: 1.5;" x1="717.5" x2="764.5" y1="96.5" y2="96.5"/><!--link apps to userapp--><path d="M77,147.406 C77,177.389 77,212.118 77,239.119 " fill="none" id="apps-userapp" style="stroke: #A80036; stroke-width: 1.0;"/><line style="stroke: #A80036; stroke-width: 1.0;" x1="77" x2="83" y1="239.237" y2="247.237"/><line style="stroke: #A80036; stroke-width: 1.0;" x1="77" x2="71" y1="239.237" y2="247.237"/><line style="stroke: #A80036; stroke-width: 1.0;" x1="77" x2="77" y1="239.237" y2="247.237"/><ellipse cx="77" cy="233.237" fill="none" rx="4" ry="4" style="stroke: #A80036; stroke-width: 1.0;"/><line style="stroke: #A80036; stroke-width: 1.0;" x1="73" x2="81" y1="143.129" y2="143.129"/><line style="stroke: #A80036; stroke-width: 1.0;" x1="73" x2="81" y1="146.129" y2="146.129"/><line style="stroke: #A80036; stroke-width: 1.0;" x1="77" x2="77" y1="147.129" y2="139.129"/><!--link users to userapp--><path d="M256.981,128.159 C220.252,151.652 176.766,181.745 141,213 C131.235,221.534 121.491,231.489 112.658,241.211 " fill="none" id="users-userapp" style="stroke: #A80036; stroke-width: 1.0;"/><line style="stroke: #A80036; stroke-width: 1.0;" x1="112.6171" x2="111.7563" y1="241.2579" y2="251.2208"/><line style="stroke: #A80036; stroke-width: 1.0;" x1="112.6171" x2="102.8117" y1="241.2579" y2="243.2212"/><line style="stroke: #A80036; stroke-width: 1.0;" x1="112.6171" x2="107.284" y1="241.2579" y2="247.221"/><ellipse cx="116.6169" cy="236.7856" fill="none" rx="4" ry="4" style="stroke: #A80036; stroke-width: 1.0;"/><line style="stroke: #A80036; stroke-width: 1.0;" x1="258.2353" x2="262.5278" y1="122.6208" y2="129.3717"/><line style="stroke: #A80036; stroke-width: 1.0;" x1="255.7037" x2="259.9962" y1="124.2305" y2="130.9814"/><line style="stroke: #A80036; stroke-width: 1.0;" x1="257.0061" x2="263.757" y1="128.1425" y2="123.85"/><!--link tags to usertag--><path d="M592,127.159 C592,160.533 592,205.6 592,238.948 " fill="none" id="tags-usertag" style="stroke: #A80036; stroke-width: 1.0;"/><line style="stroke: #A80036; stroke-width: 1.0;" x1="592" x2="598" y1="239.16" y2="247.16"/><line style="stroke: #A80036; stroke-width: 1.0;" x1="592" x2="586" y1="239.16" y2="247.16"/><line style="stroke: #A80036; stroke-width: 1.0;" x1="592" x2="592" y1="239.16" y2="247.16"/><ellipse cx="592" cy="233.16" fill="none" rx="4" ry="4" style="stroke: #A80036; stroke-width: 1.0;"/><line style="stroke: #A80036; stroke-width: 1.0;" x1="588" x2="596" y1="122.733" y2="122.733"/><line style="stroke: #A80036; stroke-width: 1.0;" x1="588" x2="596" y1="125.733" y2="125.733"/><line style="stroke: #A80036; stroke-width: 1.0;" x1="592" x2="592" y1="126.733" y2="118.733"/><!--link users to usertag--><path d="M413.402,129.264 C449.437,152.68 491.875,182.394 527,213 C536.846,221.579 546.714,231.552 555.68,241.277 " fill="none" id="users-usertag" style="stroke: #A80036; stroke-width: 1.0;"/><line style="stroke: #A80036; stroke-width: 1.0;" x1="555.7601" x2="565.5803" y1="241.3642" y2="243.2518"/><line style="stroke: #A80036; stroke-width: 1.0;" x1="555.7601" x2="556.6977" y1="241.3642" y2="251.3202"/><line style="stroke: #A80036; stroke-width: 1.0;" x1="555.7601" x2="561.139" y1="241.3642" y2="247.286"/><ellipse cx="551.7259" cy="236.9229" fill="none" rx="4" ry="4" style="stroke: #A80036; stroke-width: 1.0;"/><line style="stroke: #A80036; stroke-width: 1.0;" x1="407.4741" x2="411.8143" y1="130.1963" y2="123.4759"/><line style="stroke: #A80036; stroke-width: 1.0;" x1="409.9942" x2="414.3344" y1="131.8238" y2="125.1035"/><line style="stroke: #A80036; stroke-width: 1.0;" x1="413.0043" x2="406.284" y1="129.0062" y2="124.666"/><!--link users to nortifications--><path d="M291.938,160.253 C282.532,177.454 272.624,195.575 263.371,212.497 " fill="none" id="users-nortifications" style="stroke: #A80036; stroke-width: 1.0;"/><line style="stroke: #A80036; stroke-width: 1.0;" x1="263.2871" x2="264.7134" y1="212.6508" y2="222.5486"/><line style="stroke: #A80036; stroke-width: 1.0;" x1="263.2871" x2="254.1846" y1="212.6508" y2="216.7914"/><line style="stroke: #A80036; stroke-width: 1.0;" x1="263.2871" x2="259.449" y1="212.6508" y2="219.67"/><ellipse cx="266.1657" cy="207.3864" fill="none" rx="4" ry="4" style="stroke: #A80036; stroke-width: 1.0;"/><line style="stroke: #A80036; stroke-width: 1.0;" x1="290.4372" x2="297.4561" y1="154.6601" y2="158.4988"/><line style="stroke: #A80036; stroke-width: 1.0;" x1="288.9977" x2="296.0165" y1="157.2921" y2="161.1309"/><line style="stroke: #A80036; stroke-width: 1.0;" x1="292.0273" x2="295.866" y1="160.0888" y2="153.07"/><!--link users to settings--><path d="M367.065,160.879 C372.963,175.482 379.121,190.728 385.018,205.324 " fill="none" id="users-settings" style="stroke: #A80036; stroke-width: 1.0;"/><line style="stroke: #A80036; stroke-width: 1.0;" x1="385.0778" x2="393.638" y1="205.4747" y2="210.6441"/><line style="stroke: #A80036; stroke-width: 1.0;" x1="385.0778" x2="382.512" y1="205.4747" y2="215.1399"/><line style="stroke: #A80036; stroke-width: 1.0;" x1="385.0778" x2="388.075" y1="205.4747" y2="212.892"/><ellipse cx="382.8299" cy="199.9117" fill="none" rx="4" ry="4" style="stroke: #A80036; stroke-width: 1.0;"/><line style="stroke: #A80036; stroke-width: 1.0;" x1="361.6996" x2="369.1171" y1="158.2771" y2="155.2804"/><line style="stroke: #A80036; stroke-width: 1.0;" x1="362.8234" x2="370.2409" y1="161.0587" y2="158.062"/><line style="stroke: #A80036; stroke-width: 1.0;" x1="366.9067" x2="363.91" y1="160.4875" y2="153.07"/><!--link uid to follow--><path d="M741,113.049 C741,146.808 741,200.669 741,239.008 " fill="none" id="uid-follow" style="stroke: #A80036; stroke-width: 1.0;"/><line style="stroke: #A80036; stroke-width: 1.0;" x1="741" x2="747" y1="239.425" y2="247.425"/><line style="stroke: #A80036; stroke-width: 1.0;" x1="741" x2="735" y1="239.425" y2="247.425"/><line style="stroke: #A80036; stroke-width: 1.0;" x1="741" x2="741" y1="239.425" y2="247.425"/><ellipse cx="741" cy="233.425" fill="none" rx="4" ry="4" style="stroke: #A80036; stroke-width: 1.0;"/><line style="stroke: #A80036; stroke-width: 1.0;" x1="737" x2="745" y1="108.787" y2="108.787"/><line style="stroke: #A80036; stroke-width: 1.0;" x1="737" x2="745" y1="111.787" y2="111.787"/><line style="stroke: #A80036; stroke-width: 1.0;" x1="741" x2="741" y1="112.787" y2="104.787"/><!--
@startuml
entity apps {
	* **aid : int**
	- - -
	adisabled : bit(1)
	aimgpath : varchar(255) 
	* aname : varchar(255)
	* aurl : varchar(255)
}
entity users{
	* **uid : int**
	- - -
	udesc : varchar(255)
	udisabled : bit(1)
	uimgpath : varchar(255)
	umail : varchar(255)
	* uname : varchar(255)
	* userid : varchar(255)
}
entity tags{
	* **tid : int**
	- - -
	tname : int
}
entity nortifications{
	* **nid : int**
	- - -
	ndate : datetime
	ndetail : varchar(255)
	ntitle : varchar(255)
	ntype : varchar(255)
	* **uid : int <<FK>>**
}
entity settings{
	* **sid : int**
	- - -
	accountsetting : varchar(255)
	customizesetting1 : varchar(255)
	norsetting1 : varchar(255)
	profilesetting1 : varchar(255)
	uservisibled : bit(1)
	* **uid : int <<FK>>**
}
entity userapp{
	* **uid : int <<FK>>**
	* **aid : int <<FK>>**
}
entity usertag{
	* **uid : int <<FK>>**
	* **tid : int <<FK>>**
}
entity follow{
	* **followid : int <<FK>>**
	* **followerid : int <<FK>>**
}
apps ||- -o{ userapp
users ||- -o{ userapp
tags  ||- -o{ usertag
users  ||- -o{ usertag
users  ||- -o{ nortifications
users  ||- -o{ settings
uid ||- -o{ follow
@enduml

PlantUML version 1.2019.06(Sat May 25 02:10:25 JST 2019)
(GPL source distribution)
Java Runtime: OpenJDK Runtime Environment
JVM: OpenJDK 64-Bit Server VM
Java Version: 14.0.1+7
Operating System: Windows 10
OS Version: 10.0
Default Encoding: MS932
Language: ja
Country: JP
--></g></svg>