<?xml version="1.0" encoding="UTF-8" standalone="no"?><svg xmlns="http://www.w3.org/2000/svg" xmlns:xlink="http://www.w3.org/1999/xlink" contentScriptType="application/ecmascript" contentStyleType="text/css" height="252px" preserveAspectRatio="none" style="width:299px;height:252px;" version="1.1" viewBox="0 0 299 252" width="299px" zoomAndPan="magnify"><defs><filter height="300%" id="fsg2htkl4dq9g" width="300%" x="-1" y="-1"><feGaussianBlur result="blurOut" stdDeviation="2.0"/><feColorMatrix in="blurOut" result="blurOut2" type="matrix" values="0 0 0 0 0 0 0 0 0 0 0 0 0 0 0 0 0 0 .4 0"/><feOffset dx="4.0" dy="4.0" in="blurOut2" result="blurOut3"/><feBlend in="SourceGraphic" in2="blurOut3" mode="normal"/></filter></defs><g><!--entity user--><rect fill="#FEFECE" filter="url(#fsg2htkl4dq9g)" height="37.6094" style="stroke: #A80036; stroke-width: 1.5;" width="104" x="159" y="106"/><text fill="#000000" font-family="sans-serif" font-size="14" lengthAdjust="spacingAndGlyphs" textLength="84" x="169" y="130.5332">ユーザー詳細</text><!--entity follow--><rect fill="#FEFECE" filter="url(#fsg2htkl4dq9g)" height="37.6094" style="stroke: #A80036; stroke-width: 1.5;" width="104" x="159" y="8"/><text fill="#000000" font-family="sans-serif" font-size="14" lengthAdjust="spacingAndGlyphs" textLength="84" x="169" y="32.5332">フォロー一覧</text><!--entity follower--><rect fill="#FEFECE" filter="url(#fsg2htkl4dq9g)" height="37.6094" style="stroke: #A80036; stroke-width: 1.5;" width="118" x="6" y="106"/><text fill="#000000" font-family="sans-serif" font-size="14" lengthAdjust="spacingAndGlyphs" textLength="98" x="16" y="130.5332">フォロワー一覧</text><!--entity tag--><rect fill="#FEFECE" filter="url(#fsg2htkl4dq9g)" height="37.6094" style="stroke: #A80036; stroke-width: 1.5;" width="76" x="173" y="204"/><text fill="#000000" font-family="sans-serif" font-size="14" lengthAdjust="spacingAndGlyphs" textLength="56" x="183" y="228.5332">タグ一覧</text><!--link follow to user--><path d="M211,46.057 C211,63.112 211,88.563 211,105.698 " fill="none" id="follow-user" style="stroke: #A80036; stroke-width: 1.0;"/><!--link follower to user--><path d="M124.027,125 C135.578,125 147.129,125 158.681,125 " fill="none" id="follower-user" style="stroke: #A80036; stroke-width: 1.0;"/><!--link user to tag--><path d="M211,144.0569 C211,161.1115 211,186.5631 211,203.6977 " fill="none" id="user-tag" style="stroke: #A80036; stroke-width: 1.0;"/><!--link follow to follower--><path d="M183.539,46.057 C157.601,63.112 118.894,88.563 92.8347,105.698 " fill="none" id="follow-follower" style="stroke: #A80036; stroke-width: 1.0;"/><!--link follow to tag--><path d="M234.784,46.273 C251.234,60.511 271.761,81.871 281,106 C287.039,121.772 287.039,128.228 281,144 C271.761,168.1287 251.234,189.4886 234.784,203.7273 " fill="none" id="follow-tag" style="stroke: #A80036; stroke-width: 1.0;"/><!--link follower to tag--><path d="M92.4615,144.0569 C118.399,161.1115 157.106,186.5631 183.165,203.6977 " fill="none" id="follower-tag" style="stroke: #A80036; stroke-width: 1.0;"/><!--
@startuml
	agent "ユーザー詳細" as user
	agent "フォロー一覧" as follow
	agent "フォロワー一覧" as follower
	agent "タグ一覧" as tag
	user -up- follow
	user -left- follower
	user -right- tag
	follow - - follower
	follow - - tag
	follower - - tag
@enduml

PlantUML version 1.2019.06(Sat May 25 02:10:25 JST 2019)
(GPL source distribution)
Java Runtime: Java(TM) SE Runtime Environment
JVM: Java HotSpot(TM) 64-Bit Server VM
Java Version: 1.8.0_231-b11
Operating System: Windows 10
OS Version: 10.0
Default Encoding: MS932
Language: ja
Country: JP
--></g></svg>