<?xml version="1.0" encoding="UTF-8" standalone="no"?><svg xmlns="http://www.w3.org/2000/svg" xmlns:xlink="http://www.w3.org/1999/xlink" contentScriptType="application/ecmascript" contentStyleType="text/css" height="629px" preserveAspectRatio="none" style="width:584px;height:629px;" version="1.1" viewBox="0 0 584 629" width="584px" zoomAndPan="magnify"><defs><filter height="300%" id="fs1yeq60m441n" width="300%" x="-1" y="-1"><feGaussianBlur result="blurOut" stdDeviation="2.0"/><feColorMatrix in="blurOut" result="blurOut2" type="matrix" values="0 0 0 0 0 0 0 0 0 0 0 0 0 0 0 0 0 0 .4 0"/><feOffset dx="4.0" dy="4.0" in="blurOut2" result="blurOut3"/><feBlend in="SourceGraphic" in2="blurOut3" mode="normal"/></filter></defs><g><!--cluster Login--><polygon fill="#FFFFFF" filter="url(#fs1yeq60m441n)" points="22,61,67,61,74,84.6094,562,84.6094,562,617,22,617,22,61" style="stroke: #000000; stroke-width: 1.5;"/><line style="stroke: #000000; stroke-width: 1.5;" x1="22" x2="74" y1="84.6094" y2="84.6094"/><text fill="#000000" font-family="sans-serif" font-size="14" font-weight="bold" lengthAdjust="spacingAndGlyphs" textLength="39" x="26" y="77.5332">Login</text><!--cluster UILayer--><rect fill="#FFFFFF" filter="url(#fs1yeq60m441n)" height="100" style="stroke: #000000; stroke-width: 1.5;" width="154" x="380" y="105"/><text fill="#000000" font-family="sans-serif" font-size="14" font-weight="bold" lengthAdjust="spacingAndGlyphs" textLength="52" x="431" y="121.5332">UILayer</text><!--cluster AppLayer--><rect fill="#FFFFFF" filter="url(#fs1yeq60m441n)" height="100" style="stroke: #000000; stroke-width: 1.5;" width="285" x="71" y="105"/><text fill="#000000" font-family="sans-serif" font-size="14" font-weight="bold" lengthAdjust="spacingAndGlyphs" textLength="65" x="181" y="121.5332">AppLayer</text><!--cluster DomainLayer--><rect fill="#FFFFFF" filter="url(#fs1yeq60m441n)" height="224" style="stroke: #000000; stroke-width: 1.5;" width="345" x="185" y="237"/><text fill="#000000" font-family="sans-serif" font-size="14" font-weight="bold" lengthAdjust="spacingAndGlyphs" textLength="90" x="312.5" y="253.5332">DomainLayer</text><!--cluster InfrastructureLayer--><rect fill="#FFFFFF" filter="url(#fs1yeq60m441n)" height="100" style="stroke: #000000; stroke-width: 1.5;" width="347" x="191" y="493"/><text fill="#000000" font-family="sans-serif" font-size="14" font-weight="bold" lengthAdjust="spacingAndGlyphs" textLength="135" x="297" y="509.5332">InfrastructureLayer</text><!--class LoginAppConfig--><rect fill="#FEFECE" filter="url(#fs1yeq60m441n)" height="48" id="LoginAppConfig" style="stroke: #A80036; stroke-width: 1.5;" width="120" x="38" y="281"/><ellipse cx="53" cy="297" fill="#ADD1B2" rx="11" ry="11" style="stroke: #A80036; stroke-width: 1.0;"/><path d="M55.7031,302.4375 Q54.7813,303.3594 52.5156,303.3594 Q51.25,303.3594 50.3281,302.4375 Q48.6719,300.7813 48.6719,297.25 Q48.6719,293.1406 50.4531,291.3438 Q51.3906,290.4219 52.5781,290.4219 Q54.8438,290.4219 55.5781,291.1406 Q56.9688,292.5469 56.9063,294.9375 L54.4375,294.9375 Q54.375,292.8125 53.6406,292.0781 Q53.25,291.6719 52.5781,291.6719 Q52.5781,291.6719 52.5156,292.1406 Q51.1875,293.4688 51.1875,297.125 Q51.1875,300.3125 52.3281,301.4375 Q52.8594,301.9688 52.8594,301.9688 Q53.1094,301.9688 53.6406,301.4375 Q54.3125,300.7813 54.375,298.3906 L56.9688,298.3906 Q56.7656,301.375 55.7031,302.4375 Z "/><text fill="#000000" font-family="sans-serif" font-size="12" lengthAdjust="spacingAndGlyphs" textLength="88" x="67" y="301.9102">LoginAppConfig</text><line style="stroke: #A80036; stroke-width: 1.5;" x1="39" x2="157" y1="313" y2="313"/><line style="stroke: #A80036; stroke-width: 1.5;" x1="39" x2="157" y1="321" y2="321"/><!--class LoginViewModel--><rect fill="#FEFECE" filter="url(#fs1yeq60m441n)" height="48" id="LoginViewModel" style="stroke: #A80036; stroke-width: 1.5;" width="122" x="396" y="141"/><ellipse cx="411" cy="157" fill="#ADD1B2" rx="11" ry="11" style="stroke: #A80036; stroke-width: 1.0;"/><path d="M413.7031,162.4375 Q412.7813,163.3594 410.5156,163.3594 Q409.25,163.3594 408.3281,162.4375 Q406.6719,160.7813 406.6719,157.25 Q406.6719,153.1406 408.4531,151.3438 Q409.3906,150.4219 410.5781,150.4219 Q412.8438,150.4219 413.5781,151.1406 Q414.9688,152.5469 414.9063,154.9375 L412.4375,154.9375 Q412.375,152.8125 411.6406,152.0781 Q411.25,151.6719 410.5781,151.6719 Q410.5781,151.6719 410.5156,152.1406 Q409.1875,153.4688 409.1875,157.125 Q409.1875,160.3125 410.3281,161.4375 Q410.8594,161.9688 410.8594,161.9688 Q411.1094,161.9688 411.6406,161.4375 Q412.3125,160.7813 412.375,158.3906 L414.9688,158.3906 Q414.7656,161.375 413.7031,162.4375 Z "/><text fill="#000000" font-family="sans-serif" font-size="12" lengthAdjust="spacingAndGlyphs" textLength="90" x="425" y="161.9102">LoginViewModel</text><line style="stroke: #A80036; stroke-width: 1.5;" x1="397" x2="517" y1="173" y2="173"/><line style="stroke: #A80036; stroke-width: 1.5;" x1="397" x2="517" y1="181" y2="181"/><!--class LoginController--><rect fill="#FEFECE" filter="url(#fs1yeq60m441n)" height="48" id="LoginController" style="stroke: #A80036; stroke-width: 1.5;" width="117" x="87.5" y="141"/><ellipse cx="102.5" cy="157" fill="#ADD1B2" rx="11" ry="11" style="stroke: #A80036; stroke-width: 1.0;"/><path d="M105.2031,162.4375 Q104.2813,163.3594 102.0156,163.3594 Q100.75,163.3594 99.8281,162.4375 Q98.1719,160.7813 98.1719,157.25 Q98.1719,153.1406 99.9531,151.3438 Q100.8906,150.4219 102.0781,150.4219 Q104.3438,150.4219 105.0781,151.1406 Q106.4688,152.5469 106.4063,154.9375 L103.9375,154.9375 Q103.875,152.8125 103.1406,152.0781 Q102.75,151.6719 102.0781,151.6719 Q102.0781,151.6719 102.0156,152.1406 Q100.6875,153.4688 100.6875,157.125 Q100.6875,160.3125 101.8281,161.4375 Q102.3594,161.9688 102.3594,161.9688 Q102.6094,161.9688 103.1406,161.4375 Q103.8125,160.7813 103.875,158.3906 L106.4688,158.3906 Q106.2656,161.375 105.2031,162.4375 Z "/><text fill="#000000" font-family="sans-serif" font-size="12" lengthAdjust="spacingAndGlyphs" textLength="85" x="116.5" y="161.9102">LoginController</text><line style="stroke: #A80036; stroke-width: 1.5;" x1="88.5" x2="203.5" y1="173" y2="173"/><line style="stroke: #A80036; stroke-width: 1.5;" x1="88.5" x2="203.5" y1="181" y2="181"/><!--class LoginHelper--><rect fill="#FEFECE" filter="url(#fs1yeq60m441n)" height="48" id="LoginHelper" style="stroke: #A80036; stroke-width: 1.5;" width="100" x="240" y="141"/><ellipse cx="255" cy="157" fill="#ADD1B2" rx="11" ry="11" style="stroke: #A80036; stroke-width: 1.0;"/><path d="M257.7031,162.4375 Q256.7813,163.3594 254.5156,163.3594 Q253.25,163.3594 252.3281,162.4375 Q250.6719,160.7813 250.6719,157.25 Q250.6719,153.1406 252.4531,151.3438 Q253.3906,150.4219 254.5781,150.4219 Q256.8438,150.4219 257.5781,151.1406 Q258.9688,152.5469 258.9063,154.9375 L256.4375,154.9375 Q256.375,152.8125 255.6406,152.0781 Q255.25,151.6719 254.5781,151.6719 Q254.5781,151.6719 254.5156,152.1406 Q253.1875,153.4688 253.1875,157.125 Q253.1875,160.3125 254.3281,161.4375 Q254.8594,161.9688 254.8594,161.9688 Q255.1094,161.9688 255.6406,161.4375 Q256.3125,160.7813 256.375,158.3906 L258.9688,158.3906 Q258.7656,161.375 257.7031,162.4375 Z "/><text fill="#000000" font-family="sans-serif" font-size="12" lengthAdjust="spacingAndGlyphs" textLength="68" x="269" y="161.9102">LoginHelper</text><line style="stroke: #A80036; stroke-width: 1.5;" x1="241" x2="339" y1="173" y2="173"/><line style="stroke: #A80036; stroke-width: 1.5;" x1="241" x2="339" y1="181" y2="181"/><!--class LoginServiceIF--><rect fill="#FEFECE" filter="url(#fs1yeq60m441n)" height="48" id="LoginServiceIF" style="stroke: #A80036; stroke-width: 1.5;" width="115" x="228.5" y="281"/><ellipse cx="243.5" cy="297" fill="#B4A7E5" rx="11" ry="11" style="stroke: #A80036; stroke-width: 1.0;"/><path d="M244.4844,301.9063 L245.2188,301.9063 L245.2188,303.3594 L241.2188,303.3594 L241.2188,301.9063 L241.9531,301.9063 L241.9531,291.875 L241.2188,291.875 L241.2188,290.4219 L245.2188,290.4219 L245.2188,291.875 L244.4844,291.875 L244.4844,301.9063 Z "/><text fill="#000000" font-family="sans-serif" font-size="12" font-style="italic" lengthAdjust="spacingAndGlyphs" textLength="83" x="257.5" y="301.9102">LoginServiceIF</text><line style="stroke: #A80036; stroke-width: 1.5;" x1="229.5" x2="342.5" y1="313" y2="313"/><line style="stroke: #A80036; stroke-width: 1.5;" x1="229.5" x2="342.5" y1="321" y2="321"/><!--class LoginServiceImpl--><rect fill="#FEFECE" filter="url(#fs1yeq60m441n)" height="48" id="LoginServiceImpl" style="stroke: #A80036; stroke-width: 1.5;" width="127" x="378.5" y="281"/><ellipse cx="393.5" cy="297" fill="#ADD1B2" rx="11" ry="11" style="stroke: #A80036; stroke-width: 1.0;"/><path d="M396.2031,302.4375 Q395.2813,303.3594 393.0156,303.3594 Q391.75,303.3594 390.8281,302.4375 Q389.1719,300.7813 389.1719,297.25 Q389.1719,293.1406 390.9531,291.3438 Q391.8906,290.4219 393.0781,290.4219 Q395.3438,290.4219 396.0781,291.1406 Q397.4688,292.5469 397.4063,294.9375 L394.9375,294.9375 Q394.875,292.8125 394.1406,292.0781 Q393.75,291.6719 393.0781,291.6719 Q393.0781,291.6719 393.0156,292.1406 Q391.6875,293.4688 391.6875,297.125 Q391.6875,300.3125 392.8281,301.4375 Q393.3594,301.9688 393.3594,301.9688 Q393.6094,301.9688 394.1406,301.4375 Q394.8125,300.7813 394.875,298.3906 L397.4688,298.3906 Q397.2656,301.375 396.2031,302.4375 Z "/><text fill="#000000" font-family="sans-serif" font-size="12" lengthAdjust="spacingAndGlyphs" textLength="95" x="407.5" y="301.9102">LoginServiceImpl</text><line style="stroke: #A80036; stroke-width: 1.5;" x1="379.5" x2="504.5" y1="313" y2="313"/><line style="stroke: #A80036; stroke-width: 1.5;" x1="379.5" x2="504.5" y1="321" y2="321"/><!--class LoginDomain--><rect fill="#FEFECE" filter="url(#fs1yeq60m441n)" height="48" id="LoginDomain" style="stroke: #A80036; stroke-width: 1.5;" width="107" x="230.5" y="389"/><ellipse cx="245.5" cy="405" fill="#ADD1B2" rx="11" ry="11" style="stroke: #A80036; stroke-width: 1.0;"/><path d="M248.2031,410.4375 Q247.2813,411.3594 245.0156,411.3594 Q243.75,411.3594 242.8281,410.4375 Q241.1719,408.7813 241.1719,405.25 Q241.1719,401.1406 242.9531,399.3438 Q243.8906,398.4219 245.0781,398.4219 Q247.3438,398.4219 248.0781,399.1406 Q249.4688,400.5469 249.4063,402.9375 L246.9375,402.9375 Q246.875,400.8125 246.1406,400.0781 Q245.75,399.6719 245.0781,399.6719 Q245.0781,399.6719 245.0156,400.1406 Q243.6875,401.4688 243.6875,405.125 Q243.6875,408.3125 244.8281,409.4375 Q245.3594,409.9688 245.3594,409.9688 Q245.6094,409.9688 246.1406,409.4375 Q246.8125,408.7813 246.875,406.3906 L249.4688,406.3906 Q249.2656,409.375 248.2031,410.4375 Z "/><text fill="#000000" font-family="sans-serif" font-size="12" lengthAdjust="spacingAndGlyphs" textLength="75" x="259.5" y="409.9102">LoginDomain</text><line style="stroke: #A80036; stroke-width: 1.5;" x1="231.5" x2="336.5" y1="421" y2="421"/><line style="stroke: #A80036; stroke-width: 1.5;" x1="231.5" x2="336.5" y1="429" y2="429"/><!--class LoginRepositoryIF--><rect fill="#FEFECE" filter="url(#fs1yeq60m441n)" height="48" id="LoginRepositoryIF" style="stroke: #A80036; stroke-width: 1.5;" width="133" x="207.5" y="529"/><ellipse cx="222.5" cy="545" fill="#B4A7E5" rx="11" ry="11" style="stroke: #A80036; stroke-width: 1.0;"/><path d="M223.4844,549.9063 L224.2188,549.9063 L224.2188,551.3594 L220.2188,551.3594 L220.2188,549.9063 L220.9531,549.9063 L220.9531,539.875 L220.2188,539.875 L220.2188,538.4219 L224.2188,538.4219 L224.2188,539.875 L223.4844,539.875 L223.4844,549.9063 Z "/><text fill="#000000" font-family="sans-serif" font-size="12" font-style="italic" lengthAdjust="spacingAndGlyphs" textLength="101" x="236.5" y="549.9102">LoginRepositoryIF</text><line style="stroke: #A80036; stroke-width: 1.5;" x1="208.5" x2="339.5" y1="561" y2="561"/><line style="stroke: #A80036; stroke-width: 1.5;" x1="208.5" x2="339.5" y1="569" y2="569"/><!--class LoginRepositoryImpl--><rect fill="#FEFECE" filter="url(#fs1yeq60m441n)" height="48" id="LoginRepositoryImpl" style="stroke: #A80036; stroke-width: 1.5;" width="146" x="376" y="529"/><ellipse cx="391" cy="545" fill="#ADD1B2" rx="11" ry="11" style="stroke: #A80036; stroke-width: 1.0;"/><path d="M393.7031,550.4375 Q392.7813,551.3594 390.5156,551.3594 Q389.25,551.3594 388.3281,550.4375 Q386.6719,548.7813 386.6719,545.25 Q386.6719,541.1406 388.4531,539.3438 Q389.3906,538.4219 390.5781,538.4219 Q392.8438,538.4219 393.5781,539.1406 Q394.9688,540.5469 394.9063,542.9375 L392.4375,542.9375 Q392.375,540.8125 391.6406,540.0781 Q391.25,539.6719 390.5781,539.6719 Q390.5781,539.6719 390.5156,540.1406 Q389.1875,541.4688 389.1875,545.125 Q389.1875,548.3125 390.3281,549.4375 Q390.8594,549.9688 390.8594,549.9688 Q391.1094,549.9688 391.6406,549.4375 Q392.3125,548.7813 392.375,546.3906 L394.9688,546.3906 Q394.7656,549.375 393.7031,550.4375 Z "/><text fill="#000000" font-family="sans-serif" font-size="12" lengthAdjust="spacingAndGlyphs" textLength="114" x="405" y="549.9102">LoginRepositoryImpl</text><line style="stroke: #A80036; stroke-width: 1.5;" x1="377" x2="521" y1="561" y2="561"/><line style="stroke: #A80036; stroke-width: 1.5;" x1="377" x2="521" y1="569" y2="569"/><!--link LoginViewModel to LoginController--><path d="M445.416,140.8 C427.751,107.079 390.558,47.361 338.5,23 C298.648,4.351 278.234,2.128 239.5,23 C195.168,46.889 168.398,102.005 155.471,136.116 " fill="none" id="LoginViewModel-LoginController" style="stroke: #A80036; stroke-width: 1.0;"/><polygon fill="#A80036" points="153.664,140.991,160.5443,133.9439,155.4029,136.3031,153.0436,131.1617,153.664,140.991" style="stroke: #A80036; stroke-width: 1.0;"/><!--link LoginController to LoginHelper--><path d="M204.5,165 C214.549,165 224.598,165 234.647,165 " fill="none" id="LoginController-LoginHelper" style="stroke: #A80036; stroke-width: 1.0;"/><polygon fill="#A80036" points="239.902,165,230.902,161,234.902,165,230.902,169,239.902,165" style="stroke: #A80036; stroke-width: 1.0;"/><!--link LoginHelper to LoginServiceIF--><path d="M289.33,189.098 C288.641,212.88 287.566,249.978 286.825,275.553 " fill="none" id="LoginHelper-LoginServiceIF" style="stroke: #A80036; stroke-width: 1.0;"/><polygon fill="#A80036" points="286.672,280.827,290.93,271.9462,286.8163,275.8291,282.9333,271.7153,286.672,280.827" style="stroke: #A80036; stroke-width: 1.0;"/><!--link LoginController to LoginServiceIF--><path d="M183.965,189.237 C197.334,198.307 212.005,209.33 224,221 C241.232,237.766 257.372,259.653 268.863,276.741 " fill="none" id="LoginController-LoginServiceIF" style="stroke: #A80036; stroke-width: 1.0;"/><polygon fill="#A80036" points="271.682,280.977,270.0248,271.2686,268.9115,276.8148,263.3653,275.7014,271.682,280.977" style="stroke: #A80036; stroke-width: 1.0;"/><!--link LoginServiceIF to LoginDomain--><path d="M285.566,329 C285.233,346.658 284.775,370.941 284.44,388.678 " fill="none" id="LoginServiceIF-LoginDomain" style="stroke: #A80036; stroke-width: 1.0; stroke-dasharray: 7.0,7.0;"/><!--link LoginServiceIF to LoginServiceImpl--><path d="M363.588,305 C368.454,305 373.319,305 378.185,305 " fill="none" id="LoginServiceIF-LoginServiceImpl" style="stroke: #A80036; stroke-width: 1.0;"/><polygon fill="none" points="363.586,312,343.586,305,363.586,298,363.586,312" style="stroke: #A80036; stroke-width: 1.0;"/><!--link DomainLayer to LoginAppConfig--><!--link LoginDomain to LoginRepositoryIF--><path d="M282.326,437.098 C280.48,462.572 277.527,503.322 275.679,528.827 " fill="none" id="LoginDomain-LoginRepositoryIF" style="stroke: #A80036; stroke-width: 1.0; stroke-dasharray: 7.0,7.0;"/><!--link LoginServiceImpl to LoginRepositoryIF--><path d="M433.334,329.047 C419.792,363.337 391.354,428.904 355,477 C341.47,494.9 323.374,512.114 307.718,525.526 " fill="none" id="LoginServiceImpl-LoginRepositoryIF" style="stroke: #A80036; stroke-width: 1.0;"/><polygon fill="#A80036" points="303.795,528.852,313.2465,526.0825,307.6087,525.6184,308.0728,519.9807,303.795,528.852" style="stroke: #A80036; stroke-width: 1.0;"/><!--link LoginRepositoryIF to LoginRepositoryImpl--><path d="M360.685,553 C365.716,553 370.748,553 375.779,553 " fill="none" id="LoginRepositoryIF-LoginRepositoryImpl" style="stroke: #A80036; stroke-width: 1.0;"/><polygon fill="none" points="360.65,559.9999,340.65,553,360.65,545.9999,360.65,559.9999" style="stroke: #A80036; stroke-width: 1.0;"/><!--
@startuml
Package Login {
    package UILayer <<Rectangle>>{
        class LoginViewModel
    }
    package AppLayer <<Rectangle>>{
        class LoginController
        class LoginHelper
        LoginController <-right- LoginViewModel
        LoginController -right-> LoginHelper
    }
    package DomainLayer <<Rectangle>>{
        interface LoginServiceIF
        class LoginServiceImpl
        class LoginDomain
        LoginHelper -down-> LoginServiceIF
        LoginController -down-> LoginServiceIF
        LoginServiceIF .down. LoginDomain
        LoginServiceIF <|-right- LoginServiceImpl
    }
	class LoginAppConfig
	DomainLayer -[hidden]> LoginAppConfig
	
    package InfrastructureLayer <<Rectangle>>{
        interface LoginRepositoryIF
        class LoginRepositoryImpl
        LoginDomain .down. LoginRepositoryIF
        LoginServiceImpl -down-> LoginRepositoryIF
        LoginRepositoryIF <|-right- LoginRepositoryImpl
    }
}
@enduml

PlantUML version 1.2019.06(Sat May 25 02:10:25 JST 2019)
(GPL source distribution)
Java Runtime: Java(TM) SE Runtime Environment
JVM: Java HotSpot(TM) 64-Bit Server VM
Java Version: 1.8.0_231-b11
Operating System: Windows 10
OS Version: 10.0
Default Encoding: MS932
Language: ja
Country: JP
--></g></svg>