<?xml version="1.0" encoding="UTF-8" standalone="no"?><svg xmlns="http://www.w3.org/2000/svg" xmlns:xlink="http://www.w3.org/1999/xlink" contentScriptType="application/ecmascript" contentStyleType="text/css" height="521px" preserveAspectRatio="none" style="width:763px;height:521px;" version="1.1" viewBox="0 0 763 521" width="763px" zoomAndPan="magnify"><defs><filter height="300%" id="fhu2kr2qpgo2" width="300%" x="-1" y="-1"><feGaussianBlur result="blurOut" stdDeviation="2.0"/><feColorMatrix in="blurOut" result="blurOut2" type="matrix" values="0 0 0 0 0 0 0 0 0 0 0 0 0 0 0 0 0 0 .4 0"/><feOffset dx="4.0" dy="4.0" in="blurOut2" result="blurOut3"/><feBlend in="SourceGraphic" in2="blurOut3" mode="normal"/></filter></defs><g><rect fill="#FEFECE" filter="url(#fhu2kr2qpgo2)" height="502.6094" rx="12.5" ry="12.5" style="stroke: #A80036; stroke-width: 1.5;" width="745" x="6" y="8"/><rect fill="#FFFFFF" height="469" rx="12.5" ry="12.5" style="stroke: #FFFFFF; stroke-width: 1.0;" width="739" x="9" y="38.6094"/><line style="stroke: #A80036; stroke-width: 1.5;" x1="6" x2="751" y1="35.6094" y2="35.6094"/><text fill="#000000" font-family="sans-serif" font-size="14" lengthAdjust="spacingAndGlyphs" textLength="56" x="350.5" y="27.5332">ヘッダー</text><rect fill="#FEFECE" filter="url(#fhu2kr2qpgo2)" height="50" rx="12.5" ry="12.5" style="stroke: #A80036; stroke-width: 1.5;" width="57" x="571.5" y="187.1094"/><line style="stroke: #A80036; stroke-width: 1.5;" x1="571.5" x2="628.5" y1="214.7188" y2="214.7188"/><text fill="#000000" font-family="sans-serif" font-size="14" lengthAdjust="spacingAndGlyphs" textLength="37" x="581.5" y="206.6426">About</text><rect fill="#FEFECE" filter="url(#fhu2kr2qpgo2)" height="52.7031" rx="12.5" ry="12.5" style="stroke: #A80036; stroke-width: 1.5;" width="104" x="210" y="185.6094"/><line style="stroke: #A80036; stroke-width: 1.5;" x1="210" x2="314" y1="213.2188" y2="213.2188"/><text fill="#000000" font-family="sans-serif" font-size="14" lengthAdjust="spacingAndGlyphs" textLength="84" x="220" y="205.1426">ユーザー詳細</text><text fill="#000000" font-family="sans-serif" font-size="12" lengthAdjust="spacingAndGlyphs" textLength="60" x="215" y="230.6758">マイページ</text><rect fill="#FEFECE" filter="url(#fhu2kr2qpgo2)" height="50" rx="12.5" ry="12.5" style="stroke: #A80036; stroke-width: 1.5;" width="76" x="345" y="48.6094"/><line style="stroke: #A80036; stroke-width: 1.5;" x1="345" x2="421" y1="76.2188" y2="76.2188"/><text fill="#000000" font-family="sans-serif" font-size="14" lengthAdjust="spacingAndGlyphs" textLength="56" x="355" y="68.1426">通知詳細</text><rect fill="#FEFECE" filter="url(#fhu2kr2qpgo2)" height="50" rx="12.5" ry="12.5" style="stroke: #A80036; stroke-width: 1.5;" width="76" x="345" y="308.6094"/><line style="stroke: #A80036; stroke-width: 1.5;" x1="345" x2="421" y1="336.2188" y2="336.2188"/><text fill="#000000" font-family="sans-serif" font-size="14" lengthAdjust="spacingAndGlyphs" textLength="56" x="355" y="328.1426">設定一覧</text><rect fill="#FEFECE" filter="url(#fhu2kr2qpgo2)" height="50" rx="12.5" ry="12.5" style="stroke: #A80036; stroke-width: 1.5;" width="132" x="17" y="445.6094"/><line style="stroke: #A80036; stroke-width: 1.5;" x1="17" x2="149" y1="473.2188" y2="473.2188"/><text fill="#000000" font-family="sans-serif" font-size="14" lengthAdjust="spacingAndGlyphs" textLength="112" x="27" y="465.1426">プロフィール設定</text><rect fill="#FEFECE" filter="url(#fhu2kr2qpgo2)" height="50" rx="12.5" ry="12.5" style="stroke: #A80036; stroke-width: 1.5;" width="118" x="222" y="445.6094"/><line style="stroke: #A80036; stroke-width: 1.5;" x1="222" x2="340" y1="473.2188" y2="473.2188"/><text fill="#000000" font-family="sans-serif" font-size="14" lengthAdjust="spacingAndGlyphs" textLength="98" x="232" y="465.1426">アカウント設定</text><rect fill="#FEFECE" filter="url(#fhu2kr2qpgo2)" height="50" rx="12.5" ry="12.5" style="stroke: #A80036; stroke-width: 1.5;" width="76" x="430" y="445.6094"/><line style="stroke: #A80036; stroke-width: 1.5;" x1="430" x2="506" y1="473.2188" y2="473.2188"/><text fill="#000000" font-family="sans-serif" font-size="14" lengthAdjust="spacingAndGlyphs" textLength="56" x="440" y="465.1426">通知設定</text><rect fill="#FEFECE" filter="url(#fhu2kr2qpgo2)" height="50" rx="12.5" ry="12.5" style="stroke: #A80036; stroke-width: 1.5;" width="76" x="611" y="445.6094"/><line style="stroke: #A80036; stroke-width: 1.5;" x1="611" x2="687" y1="473.2188" y2="473.2188"/><text fill="#000000" font-family="sans-serif" font-size="14" lengthAdjust="spacingAndGlyphs" textLength="56" x="621" y="465.1426">表示設定</text><rect fill="#FEFECE" filter="url(#fhu2kr2qpgo2)" height="50" rx="12.5" ry="12.5" style="stroke: #A80036; stroke-width: 1.5;" width="62" x="491" y="187.1094"/><line style="stroke: #A80036; stroke-width: 1.5;" x1="491" x2="553" y1="214.7188" y2="214.7188"/><text fill="#000000" font-family="sans-serif" font-size="14" lengthAdjust="spacingAndGlyphs" textLength="42" x="501" y="206.6426">ヘルプ</text><ellipse cx="383" cy="212.1094" fill="#000000" filter="url(#fhu2kr2qpgo2)" rx="10" ry="10" style="stroke: none; stroke-width: 1.0;"/><!--link sc2.1 to *start*header1--><path d="M319.204,212.1094 C339.67,212.1094 360.64,212.1094 372.71,212.1094 " fill="none" id="sc2.1-*start*header1" style="stroke: #A80036; stroke-width: 1.0;"/><polygon fill="#A80036" points="314.017,212.1094,323.017,216.1094,319.017,212.1094,323.017,208.1094,314.017,212.1094" style="stroke: #A80036; stroke-width: 1.0;"/><text fill="#000000" font-family="sans-serif" font-size="13" lengthAdjust="spacingAndGlyphs" textLength="39" x="324" y="189.6045">ロゴを</text><text fill="#000000" font-family="sans-serif" font-size="13" lengthAdjust="spacingAndGlyphs" textLength="26" x="330.5" y="205.9561">押下</text><!--link *start*header1 to sc1--><path d="M388.261,203.5894 C399.175,186.8324 426.116,150.0154 460,136.1094 C492.893,122.6104 508.004,120.6034 540,136.1094 C559.774,145.6914 574.997,165.3024 585.162,182.2024 " fill="none" id="*start*header1-sc1" style="stroke: #A80036; stroke-width: 1.0;"/><polygon fill="#A80036" points="587.894,186.8864,586.8129,177.097,585.374,182.5678,579.9032,181.129,587.894,186.8864" style="stroke: #A80036; stroke-width: 1.0;"/><text fill="#000000" font-family="sans-serif" font-size="13" lengthAdjust="spacingAndGlyphs" textLength="78" x="461" y="139.6045">ログアウトを</text><text fill="#000000" font-family="sans-serif" font-size="13" lengthAdjust="spacingAndGlyphs" textLength="26" x="487" y="155.9561">押下</text><!--link sc7 to *start*header1--><path d="M383,103.9264 C383,135.0334 383,182.3554 383,202.0334 " fill="none" id="sc7-*start*header1" style="stroke: #A80036; stroke-width: 1.0;"/><polygon fill="#A80036" points="383,98.6984,379,107.6984,383,103.6984,387,107.6984,383,98.6984" style="stroke: #A80036; stroke-width: 1.0;"/><text fill="#000000" font-family="sans-serif" font-size="13" lengthAdjust="spacingAndGlyphs" textLength="39" x="384" y="131.1045">任意の</text><text fill="#000000" font-family="sans-serif" font-size="13" lengthAdjust="spacingAndGlyphs" textLength="39" x="384" y="147.4561">通知を</text><text fill="#000000" font-family="sans-serif" font-size="13" lengthAdjust="spacingAndGlyphs" textLength="26" x="390.5" y="163.8076">押下</text><!--link *start*header1 to sc8--><path d="M383,222.4864 C383,239.7154 383,277.0584 383,303.4704 " fill="none" id="*start*header1-sc8" style="stroke: #A80036; stroke-width: 1.0;"/><polygon fill="#A80036" points="383,308.5974,387,299.5974,383,303.5974,379,299.5974,383,308.5974" style="stroke: #A80036; stroke-width: 1.0;"/><text fill="#000000" font-family="sans-serif" font-size="13" lengthAdjust="spacingAndGlyphs" textLength="39" x="384" y="271.1045">設定を</text><text fill="#000000" font-family="sans-serif" font-size="13" lengthAdjust="spacingAndGlyphs" textLength="26" x="390.5" y="287.4561">押下</text><!--link *start*header1 to sc9--><path d="M393.448,212.1094 C412.726,212.1094 454.729,212.1094 485.497,212.1094 " fill="none" id="*start*header1-sc9" style="stroke: #A80036; stroke-width: 1.0;"/><polygon fill="#A80036" points="490.718,212.1094,481.718,208.1094,485.718,212.1094,481.718,216.1094,490.718,212.1094" style="stroke: #A80036; stroke-width: 1.0;"/><text fill="#000000" font-family="sans-serif" font-size="13" lengthAdjust="spacingAndGlyphs" textLength="78" x="403" y="205.6045">ヘルプを押下</text><!--link sc8 to sc8.1--><path d="M344.971,336.7944 C263.813,341.8454 79.5054,355.5334 61,376.6094 C45.5306,394.2274 53.843,420.7329 64.3956,440.9456 " fill="none" id="sc8-sc8.1" style="stroke: #A80036; stroke-width: 1.0;"/><polygon fill="#A80036" points="66.819,445.4171,66.0473,435.5985,64.4365,441.0212,59.0139,439.4104,66.819,445.4171" style="stroke: #A80036; stroke-width: 1.0;"/><text fill="#000000" font-family="sans-serif" font-size="13" lengthAdjust="spacingAndGlyphs" textLength="78" x="62" y="391.1045">プロフィール</text><text fill="#000000" font-family="sans-serif" font-size="13" lengthAdjust="spacingAndGlyphs" textLength="39" x="81.5" y="407.4561">設定を</text><text fill="#000000" font-family="sans-serif" font-size="13" lengthAdjust="spacingAndGlyphs" textLength="26" x="88" y="423.8076">押下</text><!--link sc8.1 to sc8--><path d="M120.436,445.4108 C127.632,439.9744 134.838,433.9294 141,427.6094 C160.192,407.9261 153.077,391.7844 176,376.6094 C225.463,343.8654 295.069,335.7324 339.611,334.1824 " fill="none" id="sc8.1-sc8" style="stroke: #A80036; stroke-width: 1.0;"/><polygon fill="#A80036" points="344.646,334.0314,335.5301,330.3031,339.6482,334.1814,335.77,338.2995,344.646,334.0314" style="stroke: #A80036; stroke-width: 1.0;"/><text fill="#000000" font-family="sans-serif" font-size="13" lengthAdjust="spacingAndGlyphs" textLength="62" x="177" y="407.6045">"←"を押下</text><!--link sc8 to sc8.2--><path d="M344.8,335.2714 C313.951,338.0754 272.292,347.4904 251,376.6094 C237.621,394.9064 244.083,406.024 251,427.6094 C252.446,432.1214 254.574,436.5612 257.042,440.7663 " fill="none" id="sc8-sc8.2" style="stroke: #A80036; stroke-width: 1.0;"/><polygon fill="#A80036" points="259.836,445.2294,258.4511,435.4784,257.183,440.9913,251.6701,439.7232,259.836,445.2294" style="stroke: #A80036; stroke-width: 1.0;"/><text fill="#000000" font-family="sans-serif" font-size="13" lengthAdjust="spacingAndGlyphs" textLength="65" x="252" y="391.1045">アカウント</text><text fill="#000000" font-family="sans-serif" font-size="13" lengthAdjust="spacingAndGlyphs" textLength="39" x="265" y="407.4561">設定を</text><text fill="#000000" font-family="sans-serif" font-size="13" lengthAdjust="spacingAndGlyphs" textLength="26" x="271.5" y="423.8076">押下</text><!--link sc8.2 to sc8--><path d="M304.912,445.4642 C309.657,439.8917 314.307,433.7794 318,427.6094 C330.424,406.8553 323.468,396.6584 337,376.6094 C340.309,371.7074 344.303,366.9834 348.539,362.5844 " fill="none" id="sc8.2-sc8" style="stroke: #A80036; stroke-width: 1.0;"/><polygon fill="#A80036" points="352.144,358.9694,342.9566,362.5179,348.6135,362.5099,348.6215,368.1668,352.144,358.9694" style="stroke: #A80036; stroke-width: 1.0;"/><text fill="#000000" font-family="sans-serif" font-size="13" lengthAdjust="spacingAndGlyphs" textLength="62" x="338" y="407.6045">"←"を押下</text><!--link sc8 to sc8.3--><path d="M396.041,358.9154 C399.049,364.6824 402.189,370.8364 405,376.6094 C415.885,398.9655 414.118,406.9804 428,427.6094 C431.25,432.439 435.072,437.2293 439.042,441.7516 " fill="none" id="sc8-sc8.3" style="stroke: #A80036; stroke-width: 1.0;"/><polygon fill="#A80036" points="442.403,445.4824,439.3525,436.1178,439.057,441.767,433.4079,441.4715,442.403,445.4824" style="stroke: #A80036; stroke-width: 1.0;"/><text fill="#000000" font-family="sans-serif" font-size="13" lengthAdjust="spacingAndGlyphs" textLength="65" x="429" y="399.6045">通知設定を</text><text fill="#000000" font-family="sans-serif" font-size="13" lengthAdjust="spacingAndGlyphs" textLength="26" x="448.5" y="415.9561">押下</text><!--link sc8.3 to sc8--><path d="M486.795,445.441 C490.174,439.8699 493.192,433.764 495,427.6094 C501.387,405.8613 507.911,395.2394 495,376.6094 C479.595,354.3794 450.877,343.8984 426.379,338.9644 " fill="none" id="sc8.3-sc8" style="stroke: #A80036; stroke-width: 1.0;"/><polygon fill="#A80036" points="421.222,337.9934,429.3276,343.588,426.1358,338.9176,430.8063,335.7259,421.222,337.9934" style="stroke: #A80036; stroke-width: 1.0;"/><text fill="#000000" font-family="sans-serif" font-size="13" lengthAdjust="spacingAndGlyphs" textLength="62" x="504" y="407.6045">"←"を押下</text><!--link sc8 to sc8.4--><path d="M421.237,334.9814 C461.73,337.1234 525.911,345.6764 571,376.6094 C593.464,392.0204 587.485,406.7443 605,427.6094 C608.925,432.2855 613.322,436.9915 617.776,441.4756 " fill="none" id="sc8-sc8.4" style="stroke: #A80036; stroke-width: 1.0;"/><polygon fill="#A80036" points="621.522,445.1844,617.9395,436.0102,617.9684,441.667,612.3117,441.6959,621.522,445.1844" style="stroke: #A80036; stroke-width: 1.0;"/><text fill="#000000" font-family="sans-serif" font-size="13" lengthAdjust="spacingAndGlyphs" textLength="65" x="606" y="399.6045">表示設定を</text><text fill="#000000" font-family="sans-serif" font-size="13" lengthAdjust="spacingAndGlyphs" textLength="26" x="625.5" y="415.9561">押下</text><!--link sc8.4 to sc8--><path d="M665.493,445.5003 C677.331,424.9295 688.541,395.7281 672,376.6094 C640.739,340.4764 498.858,334.7824 426.187,334.2924 " fill="none" id="sc8.4-sc8" style="stroke: #A80036; stroke-width: 1.0;"/><polygon fill="#A80036" points="421.077,334.2654,430.0563,338.3116,426.0769,334.2911,430.0975,330.3117,421.077,334.2654" style="stroke: #A80036; stroke-width: 1.0;"/><text fill="#000000" font-family="sans-serif" font-size="13" lengthAdjust="spacingAndGlyphs" textLength="36" x="681" y="399.6045">"←"を</text><text fill="#000000" font-family="sans-serif" font-size="13" lengthAdjust="spacingAndGlyphs" textLength="26" x="686" y="415.9561">押下</text><!--
@startuml
		state "ヘッダー" as header1 {
			state "About" as sc1
			state "ユーザー詳細" as sc2.1 : マイページ
			state "通知詳細" as sc7
			state "設定一覧" as sc8
			state "プロフィール設定" as sc8.1
			state "アカウント設定" as sc8.2
			state "通知設定" as sc8.3
			state "表示設定" as sc8.4
			state "ヘルプ" as sc9
			[*] -left-> sc2.1 : ロゴを\n押下
			[*] -right-> sc1 : ログアウトを\n押下
			[*] -up-> sc7 : 任意の\n通知を\n押下
			[*] -down-> sc8 : 設定を\n押下
			[*] -right-> sc9 : ヘルプを押下
			sc8 - -> sc8.1 : プロフィール\n設定を\n押下
			sc8.1 - -> sc8 : "←"を押下
			sc8 - -> sc8.2 : アカウント\n設定を\n押下
			sc8.2 - -> sc8 : "←"を押下
			sc8 - -> sc8.3 : 通知設定を\n押下
			sc8.3 - -> sc8 : "←"を押下
			sc8 - -> sc8.4 : 表示設定を\n押下
			sc8.4 - -> sc8 : "←"を\n押下
		}
@enduml

PlantUML version 1.2019.06(Sat May 25 02:10:25 JST 2019)
(GPL source distribution)
Java Runtime: OpenJDK Runtime Environment
JVM: OpenJDK 64-Bit Server VM
Java Version: 14.0.2+12-46
Operating System: Windows 10
OS Version: 10.0
Default Encoding: MS932
Language: ja
Country: JP
--></g></svg>