<?xml version="1.0" encoding="UTF-8" standalone="no"?><svg xmlns="http://www.w3.org/2000/svg" xmlns:xlink="http://www.w3.org/1999/xlink" contentScriptType="application/ecmascript" contentStyleType="text/css" height="368px" preserveAspectRatio="none" style="width:594px;height:368px;" version="1.1" viewBox="0 0 594 368" width="594px" zoomAndPan="magnify"><defs><filter height="300%" id="f1k8ih84ayk7u6" width="300%" x="-1" y="-1"><feGaussianBlur result="blurOut" stdDeviation="2.0"/><feColorMatrix in="blurOut" result="blurOut2" type="matrix" values="0 0 0 0 0 0 0 0 0 0 0 0 0 0 0 0 0 0 .4 0"/><feOffset dx="4.0" dy="4.0" in="blurOut2" result="blurOut3"/><feBlend in="SourceGraphic" in2="blurOut3" mode="normal"/></filter></defs><g><!--class apps--><rect fill="#FEFECE" filter="url(#f1k8ih84ayk7u6)" height="117.1797" id="apps" style="stroke: #A80036; stroke-width: 1.5;" width="128" x="6" y="22"/><ellipse cx="51.75" cy="38" fill="#ADD1B2" rx="11" ry="11" style="stroke: #A80036; stroke-width: 1.0;"/><path d="M50.4688,36.6719 L54.9844,36.6719 L54.9844,38.625 L50.4688,38.625 L50.4688,42.9219 L55.7031,42.9219 L55.7031,44.8594 L48.25,44.8594 L48.25,31.2344 L55.375,31.2344 L55.375,33.1719 L50.4688,33.1719 L50.4688,36.6719 Z "/><text fill="#000000" font-family="sans-serif" font-size="12" lengthAdjust="spacingAndGlyphs" textLength="28" x="72.25" y="42.9102">apps</text><line style="stroke: #A80036; stroke-width: 1.5;" x1="7" x2="133" y1="54" y2="54"/><text fill="#000000" font-family="sans-serif" font-size="11" font-weight="bold" lengthAdjust="spacingAndGlyphs" textLength="39" x="12" y="69.4189">aid : int</text><line style="stroke: #A80036; stroke-width: 1.0;" x1="7" x2="133" y1="75.8359" y2="75.8359"/><text fill="#000000" font-family="sans-serif" font-size="11" lengthAdjust="spacingAndGlyphs" textLength="80" x="12" y="91.2549">adisabled : bit(1)</text><text fill="#000000" font-family="sans-serif" font-size="11" lengthAdjust="spacingAndGlyphs" textLength="116" x="12" y="105.0908">aimgpath : varchar(255)</text><text fill="#000000" font-family="sans-serif" font-size="11" lengthAdjust="spacingAndGlyphs" textLength="105" x="12" y="118.9268">aname : varchar(255)</text><text fill="#000000" font-family="sans-serif" font-size="11" lengthAdjust="spacingAndGlyphs" textLength="91" x="12" y="132.7627">aurl : varchar(255)</text><!--class users--><rect fill="#FEFECE" filter="url(#f1k8ih84ayk7u6)" height="144.8516" id="users" style="stroke: #A80036; stroke-width: 1.5;" width="128" x="243" y="8"/><ellipse cx="286.8" cy="24" fill="#ADD1B2" rx="11" ry="11" style="stroke: #A80036; stroke-width: 1.0;"/><path d="M285.5188,22.6719 L290.0344,22.6719 L290.0344,24.625 L285.5188,24.625 L285.5188,28.9219 L290.7531,28.9219 L290.7531,30.8594 L283.3,30.8594 L283.3,17.2344 L290.425,17.2344 L290.425,19.1719 L285.5188,19.1719 L285.5188,22.6719 Z "/><text fill="#000000" font-family="sans-serif" font-size="12" lengthAdjust="spacingAndGlyphs" textLength="32" x="307.2" y="28.9102">users</text><line style="stroke: #A80036; stroke-width: 1.5;" x1="244" x2="370" y1="40" y2="40"/><text fill="#000000" font-family="sans-serif" font-size="11" font-weight="bold" lengthAdjust="spacingAndGlyphs" textLength="40" x="249" y="55.4189">uid : int</text><line style="stroke: #A80036; stroke-width: 1.0;" x1="244" x2="370" y1="61.8359" y2="61.8359"/><text fill="#000000" font-family="sans-serif" font-size="11" lengthAdjust="spacingAndGlyphs" textLength="103" x="249" y="77.2549">udesc : varchar(255)</text><text fill="#000000" font-family="sans-serif" font-size="11" lengthAdjust="spacingAndGlyphs" textLength="80" x="249" y="91.0908">udisabled : bit(1)</text><text fill="#000000" font-family="sans-serif" font-size="11" lengthAdjust="spacingAndGlyphs" textLength="116" x="249" y="104.9268">uimgpath : varchar(255)</text><text fill="#000000" font-family="sans-serif" font-size="11" lengthAdjust="spacingAndGlyphs" textLength="97" x="249" y="118.7627">umail : varchar(255)</text><text fill="#000000" font-family="sans-serif" font-size="11" lengthAdjust="spacingAndGlyphs" textLength="105" x="249" y="132.5986">uname : varchar(255)</text><text fill="#000000" font-family="sans-serif" font-size="11" lengthAdjust="spacingAndGlyphs" textLength="103" x="249" y="146.4346">userid : varchar(255)</text><!--class tags--><rect fill="#FEFECE" filter="url(#f1k8ih84ayk7u6)" height="75.6719" id="tags" style="stroke: #A80036; stroke-width: 1.5;" width="73" x="506.5" y="42.5"/><ellipse cx="529.15" cy="58.5" fill="#ADD1B2" rx="11" ry="11" style="stroke: #A80036; stroke-width: 1.0;"/><path d="M527.8688,57.1719 L532.3844,57.1719 L532.3844,59.125 L527.8688,59.125 L527.8688,63.4219 L533.1031,63.4219 L533.1031,65.3594 L525.65,65.3594 L525.65,51.7344 L532.775,51.7344 L532.775,53.6719 L527.8688,53.6719 L527.8688,57.1719 Z "/><text fill="#000000" font-family="sans-serif" font-size="12" lengthAdjust="spacingAndGlyphs" textLength="24" x="544.85" y="63.4102">tags</text><line style="stroke: #A80036; stroke-width: 1.5;" x1="507.5" x2="578.5" y1="74.5" y2="74.5"/><text fill="#000000" font-family="sans-serif" font-size="11" font-weight="bold" lengthAdjust="spacingAndGlyphs" textLength="37" x="512.5" y="89.9189">tid : int</text><line style="stroke: #A80036; stroke-width: 1.0;" x1="507.5" x2="578.5" y1="96.3359" y2="96.3359"/><text fill="#000000" font-family="sans-serif" font-size="11" lengthAdjust="spacingAndGlyphs" textLength="61" x="512.5" y="111.7549">tagname : int</text><!--class nortifications--><rect fill="#FEFECE" filter="url(#f1k8ih84ayk7u6)" height="131.0156" id="nortifications" style="stroke: #A80036; stroke-width: 1.5;" width="116" x="145" y="220"/><ellipse cx="166.3" cy="236" fill="#ADD1B2" rx="11" ry="11" style="stroke: #A80036; stroke-width: 1.0;"/><path d="M165.0188,234.6719 L169.5344,234.6719 L169.5344,236.625 L165.0188,236.625 L165.0188,240.9219 L170.2531,240.9219 L170.2531,242.8594 L162.8,242.8594 L162.8,229.2344 L169.925,229.2344 L169.925,231.1719 L165.0188,231.1719 L165.0188,234.6719 Z "/><text fill="#000000" font-family="sans-serif" font-size="12" lengthAdjust="spacingAndGlyphs" textLength="70" x="181.7" y="240.9102">nortifications</text><line style="stroke: #A80036; stroke-width: 1.5;" x1="146" x2="260" y1="252" y2="252"/><text fill="#000000" font-family="sans-serif" font-size="11" font-weight="bold" lengthAdjust="spacingAndGlyphs" textLength="40" x="151" y="267.4189">nid : int</text><line style="stroke: #A80036; stroke-width: 1.0;" x1="146" x2="260" y1="273.8359" y2="273.8359"/><text fill="#000000" font-family="sans-serif" font-size="11" lengthAdjust="spacingAndGlyphs" textLength="76" x="151" y="289.2549">ndate : datetime</text><text fill="#000000" font-family="sans-serif" font-size="11" lengthAdjust="spacingAndGlyphs" textLength="104" x="151" y="303.0908">ndetail : varchar(255)</text><text fill="#000000" font-family="sans-serif" font-size="11" lengthAdjust="spacingAndGlyphs" textLength="95" x="151" y="316.9268">ntitle : varchar(255)</text><text fill="#000000" font-family="sans-serif" font-size="11" lengthAdjust="spacingAndGlyphs" textLength="100" x="151" y="330.7627">ntype : varchar(255)</text><text fill="#000000" font-family="sans-serif" font-size="11" font-weight="bold" lengthAdjust="spacingAndGlyphs" textLength="68" x="151" y="344.5986">uid : int «FK»</text><!--class settings--><rect fill="#FEFECE" filter="url(#f1k8ih84ayk7u6)" height="144.8516" id="settings" style="stroke: #A80036; stroke-width: 1.5;" width="172" x="296" y="213"/><ellipse cx="355.75" cy="229" fill="#ADD1B2" rx="11" ry="11" style="stroke: #A80036; stroke-width: 1.0;"/><path d="M354.4688,227.6719 L358.9844,227.6719 L358.9844,229.625 L354.4688,229.625 L354.4688,233.9219 L359.7031,233.9219 L359.7031,235.8594 L352.25,235.8594 L352.25,222.2344 L359.375,222.2344 L359.375,224.1719 L354.4688,224.1719 L354.4688,227.6719 Z "/><text fill="#000000" font-family="sans-serif" font-size="12" lengthAdjust="spacingAndGlyphs" textLength="44" x="376.25" y="233.9102">settings</text><line style="stroke: #A80036; stroke-width: 1.5;" x1="297" x2="467" y1="245" y2="245"/><text fill="#000000" font-family="sans-serif" font-size="11" font-weight="bold" lengthAdjust="spacingAndGlyphs" textLength="40" x="302" y="260.4189">sid : int</text><line style="stroke: #A80036; stroke-width: 1.0;" x1="297" x2="467" y1="266.8359" y2="266.8359"/><text fill="#000000" font-family="sans-serif" font-size="11" lengthAdjust="spacingAndGlyphs" textLength="144" x="302" y="282.2549">accountsetting : varchar(255)</text><text fill="#000000" font-family="sans-serif" font-size="11" lengthAdjust="spacingAndGlyphs" textLength="160" x="302" y="296.0908">customizesetting1 : varchar(255)</text><text fill="#000000" font-family="sans-serif" font-size="11" lengthAdjust="spacingAndGlyphs" textLength="127" x="302" y="309.9268">norsetting1 : varchar(255)</text><text fill="#000000" font-family="sans-serif" font-size="11" lengthAdjust="spacingAndGlyphs" textLength="141" x="302" y="323.7627">profilesetting1 : varchar(255)</text><text fill="#000000" font-family="sans-serif" font-size="11" lengthAdjust="spacingAndGlyphs" textLength="92" x="302" y="337.5986">uservisibled : bit(1)</text><text fill="#000000" font-family="sans-serif" font-size="11" font-weight="bold" lengthAdjust="spacingAndGlyphs" textLength="68" x="302" y="351.4346">uid : int «FK»</text><!--class userapp--><rect fill="#FEFECE" filter="url(#f1k8ih84ayk7u6)" height="75.6719" id="userapp" style="stroke: #A80036; stroke-width: 1.5;" width="80" x="30" y="247.5"/><ellipse cx="45.9" cy="263.5" fill="#ADD1B2" rx="11" ry="11" style="stroke: #A80036; stroke-width: 1.0;"/><path d="M44.6188,262.1719 L49.1344,262.1719 L49.1344,264.125 L44.6188,264.125 L44.6188,268.4219 L49.8531,268.4219 L49.8531,270.3594 L42.4,270.3594 L42.4,256.7344 L49.525,256.7344 L49.525,258.6719 L44.6188,258.6719 L44.6188,262.1719 Z "/><text fill="#000000" font-family="sans-serif" font-size="12" lengthAdjust="spacingAndGlyphs" textLength="46" x="60.1" y="268.4102">userapp</text><line style="stroke: #A80036; stroke-width: 1.5;" x1="31" x2="109" y1="279.5" y2="279.5"/><text fill="#000000" font-family="sans-serif" font-size="11" font-weight="bold" lengthAdjust="spacingAndGlyphs" textLength="68" x="36" y="294.9189">uid : int «FK»</text><text fill="#000000" font-family="sans-serif" font-size="11" font-weight="bold" lengthAdjust="spacingAndGlyphs" textLength="67" x="36" y="308.7549">aid : int «FK»</text><line style="stroke: #A80036; stroke-width: 1.5;" x1="31" x2="109" y1="315.1719" y2="315.1719"/><!--class usertag--><rect fill="#FEFECE" filter="url(#f1k8ih84ayk7u6)" height="75.6719" id="usertag" style="stroke: #A80036; stroke-width: 1.5;" width="80" x="503" y="247.5"/><ellipse cx="520.7" cy="263.5" fill="#ADD1B2" rx="11" ry="11" style="stroke: #A80036; stroke-width: 1.0;"/><path d="M519.4188,262.1719 L523.9344,262.1719 L523.9344,264.125 L519.4188,264.125 L519.4188,268.4219 L524.6531,268.4219 L524.6531,270.3594 L517.2,270.3594 L517.2,256.7344 L524.325,256.7344 L524.325,258.6719 L519.4188,258.6719 L519.4188,262.1719 Z "/><text fill="#000000" font-family="sans-serif" font-size="12" lengthAdjust="spacingAndGlyphs" textLength="42" x="535.3" y="268.4102">usertag</text><line style="stroke: #A80036; stroke-width: 1.5;" x1="504" x2="582" y1="279.5" y2="279.5"/><text fill="#000000" font-family="sans-serif" font-size="11" font-weight="bold" lengthAdjust="spacingAndGlyphs" textLength="68" x="509" y="294.9189">uid : int «FK»</text><text fill="#000000" font-family="sans-serif" font-size="11" font-weight="bold" lengthAdjust="spacingAndGlyphs" textLength="65" x="509" y="308.7549">tid : int «FK»</text><line style="stroke: #A80036; stroke-width: 1.5;" x1="504" x2="582" y1="315.1719" y2="315.1719"/><!--link apps to userapp--><path d="M70,147.406 C70,177.389 70,212.118 70,239.119 " fill="none" id="apps-userapp" style="stroke: #A80036; stroke-width: 1.0;"/><line style="stroke: #A80036; stroke-width: 1.0;" x1="70" x2="76" y1="239.237" y2="247.237"/><line style="stroke: #A80036; stroke-width: 1.0;" x1="70" x2="64" y1="239.237" y2="247.237"/><line style="stroke: #A80036; stroke-width: 1.0;" x1="70" x2="70" y1="239.237" y2="247.237"/><ellipse cx="70" cy="233.237" fill="none" rx="4" ry="4" style="stroke: #A80036; stroke-width: 1.0;"/><line style="stroke: #A80036; stroke-width: 1.0;" x1="66" x2="74" y1="143.129" y2="143.129"/><line style="stroke: #A80036; stroke-width: 1.0;" x1="66" x2="74" y1="146.129" y2="146.129"/><line style="stroke: #A80036; stroke-width: 1.0;" x1="70" x2="70" y1="147.129" y2="139.129"/><!--link users to userapp--><path d="M236.14,126.752 C201.518,150.44 160.261,181.111 127,213 C118.164,221.472 109.48,231.327 101.657,240.963 " fill="none" id="users-userapp" style="stroke: #A80036; stroke-width: 1.0;"/><line style="stroke: #A80036; stroke-width: 1.0;" x1="101.6339" x2="101.3402" y1="240.9917" y2="250.9874"/><line style="stroke: #A80036; stroke-width: 1.0;" x1="101.6339" x2="91.9558" y1="240.9917" y2="243.5086"/><line style="stroke: #A80036; stroke-width: 1.0;" x1="101.6339" x2="96.648" y1="240.9917" y2="247.248"/><ellipse cx="105.3733" cy="236.2996" fill="none" rx="4" ry="4" style="stroke: #A80036; stroke-width: 1.0;"/><line style="stroke: #A80036; stroke-width: 1.0;" x1="237.4142" x2="241.9116" y1="121.0496" y2="127.6658"/><line style="stroke: #A80036; stroke-width: 1.0;" x1="234.9332" x2="239.4306" y1="122.7362" y2="129.3523"/><line style="stroke: #A80036; stroke-width: 1.0;" x1="236.3549" x2="242.971" y1="126.6064" y2="122.109"/><!--link tags to usertag--><path d="M543,127.159 C543,160.533 543,205.6 543,238.948 " fill="none" id="tags-usertag" style="stroke: #A80036; stroke-width: 1.0;"/><line style="stroke: #A80036; stroke-width: 1.0;" x1="543" x2="549" y1="239.16" y2="247.16"/><line style="stroke: #A80036; stroke-width: 1.0;" x1="543" x2="537" y1="239.16" y2="247.16"/><line style="stroke: #A80036; stroke-width: 1.0;" x1="543" x2="543" y1="239.16" y2="247.16"/><ellipse cx="543" cy="233.16" fill="none" rx="4" ry="4" style="stroke: #A80036; stroke-width: 1.0;"/><line style="stroke: #A80036; stroke-width: 1.0;" x1="539" x2="547" y1="122.733" y2="122.733"/><line style="stroke: #A80036; stroke-width: 1.0;" x1="539" x2="547" y1="125.733" y2="125.733"/><line style="stroke: #A80036; stroke-width: 1.0;" x1="543" x2="543" y1="126.733" y2="118.733"/><!--link users to usertag--><path d="M377.728,127.557 C411.76,151.225 452.19,181.642 485,213 C493.91,221.516 502.715,231.388 510.669,241.028 " fill="none" id="users-usertag" style="stroke: #A80036; stroke-width: 1.0;"/><line style="stroke: #A80036; stroke-width: 1.0;" x1="510.726" x2="520.4256" y1="241.0992" y2="243.532"/><line style="stroke: #A80036; stroke-width: 1.0;" x1="510.726" x2="511.1064" y1="241.0992" y2="251.092"/><line style="stroke: #A80036; stroke-width: 1.0;" x1="510.726" x2="515.766" y1="241.0992" y2="247.312"/><ellipse cx="506.9461" cy="236.4396" fill="none" rx="4" ry="4" style="stroke: #A80036; stroke-width: 1.0;"/><line style="stroke: #A80036; stroke-width: 1.0;" x1="372.0282" x2="376.5756" y1="128.4796" y2="121.8978"/><line style="stroke: #A80036; stroke-width: 1.0;" x1="374.4964" x2="379.0438" y1="130.1849" y2="123.6031"/><line style="stroke: #A80036; stroke-width: 1.0;" x1="377.5929" x2="371.011" y1="127.4624" y2="122.915"/><!--link users to nortifications--><path d="M266.654,160.253 C257.841,177.454 248.558,195.575 239.888,212.497 " fill="none" id="users-nortifications" style="stroke: #A80036; stroke-width: 1.0;"/><line style="stroke: #A80036; stroke-width: 1.0;" x1="239.8614" x2="241.5527" y1="212.5504" y2="222.4063"/><line style="stroke: #A80036; stroke-width: 1.0;" x1="239.8614" x2="230.8733" y1="212.5504" y2="216.9337"/><line style="stroke: #A80036; stroke-width: 1.0;" x1="239.8614" x2="236.213" y1="212.5504" y2="219.67"/><ellipse cx="242.5977" cy="207.2106" fill="none" rx="4" ry="4" style="stroke: #A80036; stroke-width: 1.0;"/><line style="stroke: #A80036; stroke-width: 1.0;" x1="264.9493" x2="272.0695" y1="154.8065" y2="158.4537"/><line style="stroke: #A80036; stroke-width: 1.0;" x1="263.5815" x2="270.7018" y1="157.4766" y2="161.1238"/><line style="stroke: #A80036; stroke-width: 1.0;" x1="266.6857" x2="270.333" y1="160.1902" y2="153.07"/><!--link users to settings--><path d="M336.327,160.879 C341.723,175.482 347.355,190.728 352.748,205.324 " fill="none" id="users-settings" style="stroke: #A80036; stroke-width: 1.0;"/><line style="stroke: #A80036; stroke-width: 1.0;" x1="352.7712" x2="361.1721" y1="205.3879" y2="210.8124"/><line style="stroke: #A80036; stroke-width: 1.0;" x1="352.7712" x2="349.9159" y1="205.3879" y2="214.9716"/><line style="stroke: #A80036; stroke-width: 1.0;" x1="352.7712" x2="355.544" y1="205.3879" y2="212.892"/><ellipse cx="350.6916" cy="199.7598" fill="none" rx="4" ry="4" style="stroke: #A80036; stroke-width: 1.0;"/><line style="stroke: #A80036; stroke-width: 1.0;" x1="331.0763" x2="338.5804" y1="158.2084" y2="155.4357"/><line style="stroke: #A80036; stroke-width: 1.0;" x1="332.1161" x2="339.6202" y1="161.0225" y2="158.2497"/><line style="stroke: #A80036; stroke-width: 1.0;" x1="336.2148" x2="333.442" y1="160.5741" y2="153.07"/><!--
@startuml
entity apps {
	**aid : int**
	- - -
	adisabled : bit(1)
	aimgpath : varchar(255) 
	aname : varchar(255)
	aurl : varchar(255)
}
entity users{
	**uid : int**
	- - -
	udesc : varchar(255)
	udisabled : bit(1)
	uimgpath : varchar(255)
	umail : varchar(255)
	uname : varchar(255)
	userid : varchar(255)
}
entity tags{
	**tid : int**
	- - -
	tagname : int
}
entity nortifications{
	**nid : int**
	- - -
	ndate : datetime
	ndetail : varchar(255)
	ntitle : varchar(255)
	ntype : varchar(255)
	**uid : int <<FK>>**
}
entity settings{
	**sid : int**
	- - -
	accountsetting : varchar(255)
	customizesetting1 : varchar(255)
	norsetting1 : varchar(255)
	profilesetting1 : varchar(255)
	uservisibled : bit(1)
	**uid : int <<FK>>**
}
entity userapp{
	**uid : int <<FK>>**
	**aid : int <<FK>>**
}
entity usertag{
	**uid : int <<FK>>**
	**tid : int <<FK>>**
}
apps ||- -o{ userapp
users ||- -o{ userapp
tags  ||- -o{ usertag
users  ||- -o{ usertag
users  ||- -o{ nortifications
users  ||- -o{ settings
@enduml

PlantUML version 1.2019.06(Sat May 25 02:10:25 JST 2019)
(GPL source distribution)
Java Runtime: OpenJDK Runtime Environment
JVM: OpenJDK 64-Bit Server VM
Java Version: 14.0.1+7
Operating System: Windows 10
OS Version: 10.0
Default Encoding: MS932
Language: ja
Country: JP
--></g></svg>