<?xml version="1.0" encoding="UTF-8" standalone="no"?><svg xmlns="http://www.w3.org/2000/svg" xmlns:xlink="http://www.w3.org/1999/xlink" contentScriptType="application/ecmascript" contentStyleType="text/css" height="141px" preserveAspectRatio="none" style="width:202px;height:141px;" version="1.1" viewBox="0 0 202 141" width="202px" zoomAndPan="magnify"><defs><filter height="300%" id="fp6ykpauss9rr" width="300%" x="-1" y="-1"><feGaussianBlur result="blurOut" stdDeviation="2.0"/><feColorMatrix in="blurOut" result="blurOut2" type="matrix" values="0 0 0 0 0 0 0 0 0 0 0 0 0 0 0 0 0 0 .4 0"/><feOffset dx="4.0" dy="4.0" in="blurOut2" result="blurOut3"/><feBlend in="SourceGraphic" in2="blurOut3" mode="normal"/></filter></defs><g><!--MD5=[4d7defd22a6ef0e48b9431a1f18cf291]
class app.config.Constant--><a href="Constant.html" target="_top" title="Constant.html" xlink:actuate="onRequest" xlink:href="Constant.html" xlink:show="new" xlink:title="Constant.html" xlink:type="simple"><rect fill="#FEFECE" filter="url(#fp6ykpauss9rr)" height="103.5313" id="app.config.Constant" style="stroke: #A80036; stroke-width: 1.5;" width="108" x="41" y="7"/><ellipse cx="64.55" cy="27.0938" fill="#ADD1B2" rx="11" ry="11" style="stroke: #A80036; stroke-width: 1.0;"/><path d="M68.2375,28.2969 Q67.9875,31.7813 66.8469,32.9375 Q65.8156,33.9531 64.4094,33.9531 Q63.0031,33.9531 61.9719,32.9375 Q60.2219,31.1719 60.2219,27.5 Q60.2219,23.25 62.0969,21.3438 Q63.1438,20.3281 64.4719,20.3281 Q65.8781,20.3281 66.7219,21.1406 Q68.2063,22.6563 68.1281,25.5313 L66.0031,25.5313 Q65.925,23.2031 65.2844,22.5625 Q65.0031,22.2656 64.4719,22.2656 Q64.0188,22.2656 63.6594,22.6406 Q62.425,23.8594 62.425,27.375 Q62.425,30.4219 63.4719,31.4375 Q63.8938,31.875 64.4094,31.875 Q64.8625,31.875 65.3,31.4375 Q65.8625,30.8906 65.9406,28.2969 L68.2375,28.2969 Z "/><text fill="#000000" font-family="sans-serif" font-size="14" lengthAdjust="spacingAndGlyphs" textLength="57" x="80.45" y="26.5332">Constant</text><text fill="#000000" font-family="sans-serif" font-size="10" lengthAdjust="spacingAndGlyphs" textLength="51" x="83.45" y="39.9902">app.config</text><line style="stroke: #A80036; stroke-width: 1.5;" x1="42" x2="148" y1="47.1875" y2="47.1875"/><ellipse cx="52" cy="58.1875" fill="none" rx="3" ry="3" style="stroke: #038048; stroke-width: 1.0;"/><text fill="#000000" font-family="sans-serif" font-size="11" lengthAdjust="spacingAndGlyphs" text-decoration="underline" textLength="82" x="61" y="62.6064">CSSPATH: String</text><ellipse cx="52" cy="72.0234" fill="none" rx="3" ry="3" style="stroke: #038048; stroke-width: 1.0;"/><text fill="#000000" font-family="sans-serif" font-size="11" lengthAdjust="spacingAndGlyphs" text-decoration="underline" textLength="73" x="61" y="76.4424">JSPATH: String</text><ellipse cx="52" cy="85.8594" fill="none" rx="3" ry="3" style="stroke: #038048; stroke-width: 1.0;"/><text fill="#000000" font-family="sans-serif" font-size="11" lengthAdjust="spacingAndGlyphs" text-decoration="underline" textLength="79" x="61" y="90.2783">IMGPATH: String</text><ellipse cx="52" cy="99.6953" fill="none" rx="3" ry="3" style="stroke: #038048; stroke-width: 1.0;"/><text fill="#000000" font-family="sans-serif" font-size="11" lengthAdjust="spacingAndGlyphs" text-decoration="underline" textLength="76" x="61" y="104.1143">LIBPATH: String</text></a><text fill="#888888" font-family="sans-serif" font-size="10" lengthAdjust="spacingAndGlyphs" textLength="190" x="0" y="127.9121">UMLDoclet 2.0.11, PlantUML 1.2020.15</text><!--MD5=[40a1032b21fed013dff045ac57699b0f]
@startuml
    set namespaceSeparator none
    hide empty fields
    hide empty methods

    class "<size:14>Constant\n<size:10>app.config" as app.config.Constant [[Constant.html]] {
        {static} +CSSPATH: String
        {static} +JSPATH: String
        {static} +IMGPATH: String
        {static} +LIBPATH: String
    }

    center footer UMLDoclet 2.0.11, PlantUML 1.2020.15
@enduml

PlantUML version 1.2020.15(Sun Jun 28 20:39:45 JST 2020)
(APACHE source distribution)
Java Runtime: OpenJDK Runtime Environment
JVM: OpenJDK 64-Bit Server VM
Default Encoding: MS932
Language: ja
Country: JP
--></g></svg>