<?xml version="1.0" encoding="UTF-8" standalone="no"?><svg xmlns="http://www.w3.org/2000/svg" xmlns:xlink="http://www.w3.org/1999/xlink" contentScriptType="application/ecmascript" contentStyleType="text/css" height="184px" preserveAspectRatio="none" style="width:2300px;height:184px;" version="1.1" viewBox="0 0 2300 184" width="2300px" zoomAndPan="magnify"><defs><filter height="300%" id="fgiqv2xrb6kl4" width="300%" x="-1" y="-1"><feGaussianBlur result="blurOut" stdDeviation="2.0"/><feColorMatrix in="blurOut" result="blurOut2" type="matrix" values="0 0 0 0 0 0 0 0 0 0 0 0 0 0 0 0 0 0 .4 0"/><feOffset dx="4.0" dy="4.0" in="blurOut2" result="blurOut3"/><feBlend in="SourceGraphic" in2="blurOut3" mode="normal"/></filter></defs><g><!--MD5=[c4589ec187783cdae14d7e455754229d]
class app.config.JView--><a href="JView.html" target="_top" title="JView.html" xlink:actuate="onRequest" xlink:href="JView.html" xlink:show="new" xlink:title="JView.html" xlink:type="simple"><rect fill="#FEFECE" filter="url(#fgiqv2xrb6kl4)" height="40.1875" id="app.config.JView" style="stroke: #A80036; stroke-width: 1.5;" width="83" x="1092" y="7"/><ellipse cx="1107" cy="27.0938" fill="#ADD1B2" rx="11" ry="11" style="stroke: #A80036; stroke-width: 1.0;"/><path d="M1110.6875,28.2969 Q1110.4375,31.7813 1109.2969,32.9375 Q1108.2656,33.9531 1106.8594,33.9531 Q1105.4531,33.9531 1104.4219,32.9375 Q1102.6719,31.1719 1102.6719,27.5 Q1102.6719,23.25 1104.5469,21.3438 Q1105.5938,20.3281 1106.9219,20.3281 Q1108.3281,20.3281 1109.1719,21.1406 Q1110.6563,22.6563 1110.5781,25.5313 L1108.4531,25.5313 Q1108.375,23.2031 1107.7344,22.5625 Q1107.4531,22.2656 1106.9219,22.2656 Q1106.4688,22.2656 1106.1094,22.6406 Q1104.875,23.8594 1104.875,27.375 Q1104.875,30.4219 1105.9219,31.4375 Q1106.3438,31.875 1106.8594,31.875 Q1107.3125,31.875 1107.75,31.4375 Q1108.3125,30.8906 1108.3906,28.2969 L1110.6875,28.2969 Z "/><text fill="#000000" font-family="sans-serif" font-size="14" lengthAdjust="spacingAndGlyphs" textLength="35" x="1129" y="26.5332">JView</text><text fill="#000000" font-family="sans-serif" font-size="10" lengthAdjust="spacingAndGlyphs" textLength="51" x="1121" y="39.9902">app.config</text></a><!--MD5=[455c2d54274498fdae346d715a3db0e7]
class app.config.JView.Ignore--><a href="JView.Ignore.html" target="_top" title="JView.Ignore.html" xlink:actuate="onRequest" xlink:href="JView.Ignore.html" xlink:show="new" xlink:title="JView.Ignore.html" xlink:type="simple"><rect fill="#FEFECE" filter="url(#fgiqv2xrb6kl4)" height="40.1875" id="app.config.JView.Ignore" style="stroke: #A80036; stroke-width: 1.5;" width="113" x="7" y="107"/><ellipse cx="22" cy="127.0938" fill="#B4A7E5" rx="11" ry="11" style="stroke: #A80036; stroke-width: 1.0;"/><path d="M23.1719,131.8125 L23.9063,131.8125 L23.9063,133.9531 L20.2188,133.9531 L20.2188,131.8125 L20.9531,131.8125 L20.9531,122.4688 L20.2188,122.4688 L20.2188,120.3281 L23.9063,120.3281 L23.9063,122.4688 L23.1719,122.4688 L23.1719,131.8125 Z "/><text fill="#000000" font-family="sans-serif" font-size="14" font-style="italic" lengthAdjust="spacingAndGlyphs" textLength="81" x="36" y="126.5332">JView.Ignore</text><text fill="#000000" font-family="sans-serif" font-size="10" font-style="italic" lengthAdjust="spacingAndGlyphs" textLength="50" x="51.5" y="139.9902">app.config</text></a><!--MD5=[04005d5ff6f2c7a1cf06c6022dc7dcbc]
class app.config.JView.Public--><a href="JView.Public.html" target="_top" title="JView.Public.html" xlink:actuate="onRequest" xlink:href="JView.Public.html" xlink:show="new" xlink:title="JView.Public.html" xlink:type="simple"><rect fill="#FEFECE" filter="url(#fgiqv2xrb6kl4)" height="40.1875" id="app.config.JView.Public" style="stroke: #A80036; stroke-width: 1.5;" width="110" x="155.5" y="107"/><ellipse cx="170.5" cy="127.0938" fill="#B4A7E5" rx="11" ry="11" style="stroke: #A80036; stroke-width: 1.0;"/><path d="M171.6719,131.8125 L172.4063,131.8125 L172.4063,133.9531 L168.7188,133.9531 L168.7188,131.8125 L169.4531,131.8125 L169.4531,122.4688 L168.7188,122.4688 L168.7188,120.3281 L172.4063,120.3281 L172.4063,122.4688 L171.6719,122.4688 L171.6719,131.8125 Z "/><text fill="#000000" font-family="sans-serif" font-size="14" font-style="italic" lengthAdjust="spacingAndGlyphs" textLength="78" x="184.5" y="126.5332">JView.Public</text><text fill="#000000" font-family="sans-serif" font-size="10" font-style="italic" lengthAdjust="spacingAndGlyphs" textLength="50" x="198.5" y="139.9902">app.config</text></a><!--MD5=[08409010d0f138785c7a971397fa9bf3]
class app.config.JView.UserInfo--><a href="JView.UserInfo.html" target="_top" title="JView.UserInfo.html" xlink:actuate="onRequest" xlink:href="JView.UserInfo.html" xlink:show="new" xlink:title="JView.UserInfo.html" xlink:type="simple"><rect fill="#FEFECE" filter="url(#fgiqv2xrb6kl4)" height="40.1875" id="app.config.JView.UserInfo" style="stroke: #A80036; stroke-width: 1.5;" width="126" x="300.5" y="107"/><ellipse cx="315.5" cy="127.0938" fill="#B4A7E5" rx="11" ry="11" style="stroke: #A80036; stroke-width: 1.0;"/><path d="M316.6719,131.8125 L317.4063,131.8125 L317.4063,133.9531 L313.7188,133.9531 L313.7188,131.8125 L314.4531,131.8125 L314.4531,122.4688 L313.7188,122.4688 L313.7188,120.3281 L317.4063,120.3281 L317.4063,122.4688 L316.6719,122.4688 L316.6719,131.8125 Z "/><text fill="#000000" font-family="sans-serif" font-size="14" font-style="italic" lengthAdjust="spacingAndGlyphs" textLength="94" x="329.5" y="126.5332">JView.UserInfo</text><text fill="#000000" font-family="sans-serif" font-size="10" font-style="italic" lengthAdjust="spacingAndGlyphs" textLength="50" x="351.5" y="139.9902">app.config</text></a><!--MD5=[e9d66aec508d16ba0ac455ce24e9e96d]
class app.config.JView.UserDetail--><a href="JView.UserDetail.html" target="_top" title="JView.UserDetail.html" xlink:actuate="onRequest" xlink:href="JView.UserDetail.html" xlink:show="new" xlink:title="JView.UserDetail.html" xlink:type="simple"><rect fill="#FEFECE" filter="url(#fgiqv2xrb6kl4)" height="40.1875" id="app.config.JView.UserDetail" style="stroke: #A80036; stroke-width: 1.5;" width="138" x="461.5" y="107"/><ellipse cx="476.5" cy="127.0938" fill="#B4A7E5" rx="11" ry="11" style="stroke: #A80036; stroke-width: 1.0;"/><path d="M477.6719,131.8125 L478.4063,131.8125 L478.4063,133.9531 L474.7188,133.9531 L474.7188,131.8125 L475.4531,131.8125 L475.4531,122.4688 L474.7188,122.4688 L474.7188,120.3281 L478.4063,120.3281 L478.4063,122.4688 L477.6719,122.4688 L477.6719,131.8125 Z "/><text fill="#000000" font-family="sans-serif" font-size="14" font-style="italic" lengthAdjust="spacingAndGlyphs" textLength="106" x="490.5" y="126.5332">JView.UserDetail</text><text fill="#000000" font-family="sans-serif" font-size="10" font-style="italic" lengthAdjust="spacingAndGlyphs" textLength="50" x="518.5" y="139.9902">app.config</text></a><!--MD5=[715a667741e601d2b477b34b74300351]
class app.config.JView.NortificationInfo--><a href="JView.NortificationInfo.html" target="_top" title="JView.NortificationInfo.html" xlink:actuate="onRequest" xlink:href="JView.NortificationInfo.html" xlink:show="new" xlink:title="JView.NortificationInfo.html" xlink:type="simple"><rect fill="#FEFECE" filter="url(#fgiqv2xrb6kl4)" height="40.1875" id="app.config.JView.NortificationInfo" style="stroke: #A80036; stroke-width: 1.5;" width="171" x="635" y="107"/><ellipse cx="650" cy="127.0938" fill="#B4A7E5" rx="11" ry="11" style="stroke: #A80036; stroke-width: 1.0;"/><path d="M651.1719,131.8125 L651.9063,131.8125 L651.9063,133.9531 L648.2188,133.9531 L648.2188,131.8125 L648.9531,131.8125 L648.9531,122.4688 L648.2188,122.4688 L648.2188,120.3281 L651.9063,120.3281 L651.9063,122.4688 L651.1719,122.4688 L651.1719,131.8125 Z "/><text fill="#000000" font-family="sans-serif" font-size="14" font-style="italic" lengthAdjust="spacingAndGlyphs" textLength="139" x="664" y="126.5332">JView.NortificationInfo</text><text fill="#000000" font-family="sans-serif" font-size="10" font-style="italic" lengthAdjust="spacingAndGlyphs" textLength="50" x="708.5" y="139.9902">app.config</text></a><!--MD5=[4565cec36ab0f30733f7c23256fa9798]
class app.config.JView.TagInfo--><a href="JView.TagInfo.html" target="_top" title="JView.TagInfo.html" xlink:actuate="onRequest" xlink:href="JView.TagInfo.html" xlink:show="new" xlink:title="JView.TagInfo.html" xlink:type="simple"><rect fill="#FEFECE" filter="url(#fgiqv2xrb6kl4)" height="40.1875" id="app.config.JView.TagInfo" style="stroke: #A80036; stroke-width: 1.5;" width="121" x="841" y="107"/><ellipse cx="856" cy="127.0938" fill="#B4A7E5" rx="11" ry="11" style="stroke: #A80036; stroke-width: 1.0;"/><path d="M857.1719,131.8125 L857.9063,131.8125 L857.9063,133.9531 L854.2188,133.9531 L854.2188,131.8125 L854.9531,131.8125 L854.9531,122.4688 L854.2188,122.4688 L854.2188,120.3281 L857.9063,120.3281 L857.9063,122.4688 L857.1719,122.4688 L857.1719,131.8125 Z "/><text fill="#000000" font-family="sans-serif" font-size="14" font-style="italic" lengthAdjust="spacingAndGlyphs" textLength="89" x="870" y="126.5332">JView.TagInfo</text><text fill="#000000" font-family="sans-serif" font-size="10" font-style="italic" lengthAdjust="spacingAndGlyphs" textLength="50" x="889.5" y="139.9902">app.config</text></a><!--MD5=[49a4befc72504c16f6d6d115691df045]
class app.config.JView.AppInfo--><a href="JView.AppInfo.html" target="_top" title="JView.AppInfo.html" xlink:actuate="onRequest" xlink:href="JView.AppInfo.html" xlink:show="new" xlink:title="JView.AppInfo.html" xlink:type="simple"><rect fill="#FEFECE" filter="url(#fgiqv2xrb6kl4)" height="40.1875" id="app.config.JView.AppInfo" style="stroke: #A80036; stroke-width: 1.5;" width="121" x="997" y="107"/><ellipse cx="1012" cy="127.0938" fill="#B4A7E5" rx="11" ry="11" style="stroke: #A80036; stroke-width: 1.0;"/><path d="M1013.1719,131.8125 L1013.9063,131.8125 L1013.9063,133.9531 L1010.2188,133.9531 L1010.2188,131.8125 L1010.9531,131.8125 L1010.9531,122.4688 L1010.2188,122.4688 L1010.2188,120.3281 L1013.9063,120.3281 L1013.9063,122.4688 L1013.1719,122.4688 L1013.1719,131.8125 Z "/><text fill="#000000" font-family="sans-serif" font-size="14" font-style="italic" lengthAdjust="spacingAndGlyphs" textLength="89" x="1026" y="126.5332">JView.AppInfo</text><text fill="#000000" font-family="sans-serif" font-size="10" font-style="italic" lengthAdjust="spacingAndGlyphs" textLength="50" x="1045.5" y="139.9902">app.config</text></a><!--MD5=[c39b90e7b7764ebc27b5162447043928]
class app.config.JView.Profile--><a href="JView.Profile.html" target="_top" title="JView.Profile.html" xlink:actuate="onRequest" xlink:href="JView.Profile.html" xlink:show="new" xlink:title="JView.Profile.html" xlink:type="simple"><rect fill="#FEFECE" filter="url(#fgiqv2xrb6kl4)" height="40.1875" id="app.config.JView.Profile" style="stroke: #A80036; stroke-width: 1.5;" width="112" x="1153.5" y="107"/><ellipse cx="1168.5" cy="127.0938" fill="#B4A7E5" rx="11" ry="11" style="stroke: #A80036; stroke-width: 1.0;"/><path d="M1169.6719,131.8125 L1170.4063,131.8125 L1170.4063,133.9531 L1166.7188,133.9531 L1166.7188,131.8125 L1167.4531,131.8125 L1167.4531,122.4688 L1166.7188,122.4688 L1166.7188,120.3281 L1170.4063,120.3281 L1170.4063,122.4688 L1169.6719,122.4688 L1169.6719,131.8125 Z "/><text fill="#000000" font-family="sans-serif" font-size="14" font-style="italic" lengthAdjust="spacingAndGlyphs" textLength="80" x="1182.5" y="126.5332">JView.Profile</text><text fill="#000000" font-family="sans-serif" font-size="10" font-style="italic" lengthAdjust="spacingAndGlyphs" textLength="50" x="1197.5" y="139.9902">app.config</text></a><!--MD5=[467fd3ac555fb020109664954e840d16]
class app.config.JView.Account--><a href="JView.Account.html" target="_top" title="JView.Account.html" xlink:actuate="onRequest" xlink:href="JView.Account.html" xlink:show="new" xlink:title="JView.Account.html" xlink:type="simple"><rect fill="#FEFECE" filter="url(#fgiqv2xrb6kl4)" height="40.1875" id="app.config.JView.Account" style="stroke: #A80036; stroke-width: 1.5;" width="123" x="1301" y="107"/><ellipse cx="1316" cy="127.0938" fill="#B4A7E5" rx="11" ry="11" style="stroke: #A80036; stroke-width: 1.0;"/><path d="M1317.1719,131.8125 L1317.9063,131.8125 L1317.9063,133.9531 L1314.2188,133.9531 L1314.2188,131.8125 L1314.9531,131.8125 L1314.9531,122.4688 L1314.2188,122.4688 L1314.2188,120.3281 L1317.9063,120.3281 L1317.9063,122.4688 L1317.1719,122.4688 L1317.1719,131.8125 Z "/><text fill="#000000" font-family="sans-serif" font-size="14" font-style="italic" lengthAdjust="spacingAndGlyphs" textLength="91" x="1330" y="126.5332">JView.Account</text><text fill="#000000" font-family="sans-serif" font-size="10" font-style="italic" lengthAdjust="spacingAndGlyphs" textLength="50" x="1350.5" y="139.9902">app.config</text></a><!--MD5=[dcd3703062a23b6e33b555a646ddb871]
class app.config.JView.Nortification--><a href="JView.Nortification.html" target="_top" title="JView.Nortification.html" xlink:actuate="onRequest" xlink:href="JView.Nortification.html" xlink:show="new" xlink:title="JView.Nortification.html" xlink:type="simple"><rect fill="#FEFECE" filter="url(#fgiqv2xrb6kl4)" height="40.1875" id="app.config.JView.Nortification" style="stroke: #A80036; stroke-width: 1.5;" width="147" x="1459" y="107"/><ellipse cx="1474" cy="127.0938" fill="#B4A7E5" rx="11" ry="11" style="stroke: #A80036; stroke-width: 1.0;"/><path d="M1475.1719,131.8125 L1475.9063,131.8125 L1475.9063,133.9531 L1472.2188,133.9531 L1472.2188,131.8125 L1472.9531,131.8125 L1472.9531,122.4688 L1472.2188,122.4688 L1472.2188,120.3281 L1475.9063,120.3281 L1475.9063,122.4688 L1475.1719,122.4688 L1475.1719,131.8125 Z "/><text fill="#000000" font-family="sans-serif" font-size="14" font-style="italic" lengthAdjust="spacingAndGlyphs" textLength="115" x="1488" y="126.5332">JView.Nortification</text><text fill="#000000" font-family="sans-serif" font-size="10" font-style="italic" lengthAdjust="spacingAndGlyphs" textLength="50" x="1520.5" y="139.9902">app.config</text></a><!--MD5=[50336af1bedd8273bd2ff5df7af931e1]
class app.config.JView.Customize--><a href="JView.Customize.html" target="_top" title="JView.Customize.html" xlink:actuate="onRequest" xlink:href="JView.Customize.html" xlink:show="new" xlink:title="JView.Customize.html" xlink:type="simple"><rect fill="#FEFECE" filter="url(#fgiqv2xrb6kl4)" height="40.1875" id="app.config.JView.Customize" style="stroke: #A80036; stroke-width: 1.5;" width="138" x="1641.5" y="107"/><ellipse cx="1656.5" cy="127.0938" fill="#B4A7E5" rx="11" ry="11" style="stroke: #A80036; stroke-width: 1.0;"/><path d="M1657.6719,131.8125 L1658.4063,131.8125 L1658.4063,133.9531 L1654.7188,133.9531 L1654.7188,131.8125 L1655.4531,131.8125 L1655.4531,122.4688 L1654.7188,122.4688 L1654.7188,120.3281 L1658.4063,120.3281 L1658.4063,122.4688 L1657.6719,122.4688 L1657.6719,131.8125 Z "/><text fill="#000000" font-family="sans-serif" font-size="14" font-style="italic" lengthAdjust="spacingAndGlyphs" textLength="106" x="1670.5" y="126.5332">JView.Customize</text><text fill="#000000" font-family="sans-serif" font-size="10" font-style="italic" lengthAdjust="spacingAndGlyphs" textLength="50" x="1698.5" y="139.9902">app.config</text></a><!--MD5=[62fbc3c3e70ec7c66a81223c05cf24b3]
class app.config.JView.commonSetting--><a href="JView.commonSetting.html" target="_top" title="JView.commonSetting.html" xlink:actuate="onRequest" xlink:href="JView.commonSetting.html" xlink:show="new" xlink:title="JView.commonSetting.html" xlink:type="simple"><rect fill="#FEFECE" filter="url(#fgiqv2xrb6kl4)" height="40.1875" id="app.config.JView.commonSetting" style="stroke: #A80036; stroke-width: 1.5;" width="169" x="1815" y="107"/><ellipse cx="1830" cy="127.0938" fill="#B4A7E5" rx="11" ry="11" style="stroke: #A80036; stroke-width: 1.0;"/><path d="M1831.1719,131.8125 L1831.9063,131.8125 L1831.9063,133.9531 L1828.2188,133.9531 L1828.2188,131.8125 L1828.9531,131.8125 L1828.9531,122.4688 L1828.2188,122.4688 L1828.2188,120.3281 L1831.9063,120.3281 L1831.9063,122.4688 L1831.1719,122.4688 L1831.1719,131.8125 Z "/><text fill="#000000" font-family="sans-serif" font-size="14" font-style="italic" lengthAdjust="spacingAndGlyphs" textLength="137" x="1844" y="126.5332">JView.commonSetting</text><text fill="#000000" font-family="sans-serif" font-size="10" font-style="italic" lengthAdjust="spacingAndGlyphs" textLength="50" x="1887.5" y="139.9902">app.config</text></a><!--MD5=[7723a07115b8204e73fea2e2b3f84d47]
class app.config.JView.follow--><a href="JView.follow.html" target="_top" title="JView.follow.html" xlink:actuate="onRequest" xlink:href="JView.follow.html" xlink:show="new" xlink:title="JView.follow.html" xlink:type="simple"><rect fill="#FEFECE" filter="url(#fgiqv2xrb6kl4)" height="40.1875" id="app.config.JView.follow" style="stroke: #A80036; stroke-width: 1.5;" width="107" x="2019" y="107"/><ellipse cx="2034" cy="127.0938" fill="#B4A7E5" rx="11" ry="11" style="stroke: #A80036; stroke-width: 1.0;"/><path d="M2035.1719,131.8125 L2035.9063,131.8125 L2035.9063,133.9531 L2032.2188,133.9531 L2032.2188,131.8125 L2032.9531,131.8125 L2032.9531,122.4688 L2032.2188,122.4688 L2032.2188,120.3281 L2035.9063,120.3281 L2035.9063,122.4688 L2035.1719,122.4688 L2035.1719,131.8125 Z "/><text fill="#000000" font-family="sans-serif" font-size="14" font-style="italic" lengthAdjust="spacingAndGlyphs" textLength="75" x="2048" y="126.5332">JView.follow</text><text fill="#000000" font-family="sans-serif" font-size="10" font-style="italic" lengthAdjust="spacingAndGlyphs" textLength="50" x="2060.5" y="139.9902">app.config</text></a><!--MD5=[a489bcc738b513326ee35c7544c5efd2]
class app.config.JView.follower--><a href="JView.follower.html" target="_top" title="JView.follower.html" xlink:actuate="onRequest" xlink:href="JView.follower.html" xlink:show="new" xlink:title="JView.follower.html" xlink:type="simple"><rect fill="#FEFECE" filter="url(#fgiqv2xrb6kl4)" height="40.1875" id="app.config.JView.follower" style="stroke: #A80036; stroke-width: 1.5;" width="120" x="2161.5" y="107"/><ellipse cx="2176.5" cy="127.0938" fill="#B4A7E5" rx="11" ry="11" style="stroke: #A80036; stroke-width: 1.0;"/><path d="M2177.6719,131.8125 L2178.4063,131.8125 L2178.4063,133.9531 L2174.7188,133.9531 L2174.7188,131.8125 L2175.4531,131.8125 L2175.4531,122.4688 L2174.7188,122.4688 L2174.7188,120.3281 L2178.4063,120.3281 L2178.4063,122.4688 L2177.6719,122.4688 L2177.6719,131.8125 Z "/><text fill="#000000" font-family="sans-serif" font-size="14" font-style="italic" lengthAdjust="spacingAndGlyphs" textLength="88" x="2190.5" y="126.5332">JView.follower</text><text fill="#000000" font-family="sans-serif" font-size="10" font-style="italic" lengthAdjust="spacingAndGlyphs" textLength="50" x="2209.5" y="139.9902">app.config</text></a><!--MD5=[4dfc2cc8a66fd13ce752bacf6d9f9494]
reverse link app.config.JView to app.config.JView.Ignore--><path d="M1076.76,29.087 C923.984,32.749 491.546,47.9592 137.5,107 C131.874,107.9382 126.051,109.0972 120.254,110.3765 " fill="none" id="app.config.JView&lt;-app.config.JView.Ignore" style="stroke: #A80036; stroke-width: 1.0;"/><ellipse cx="1083.9221" cy="28.9239" fill="#FFFFFF" rx="8" ry="8" style="stroke: #A80036; stroke-width: 1.0;"/><line style="stroke: #A80036; stroke-width: 1.0;" x1="1075.9242" x2="1091.92" y1="29.1067" y2="28.741"/><line style="stroke: #A80036; stroke-width: 1.0;" x1="1083.7392" x2="1084.105" y1="20.926" y2="36.9218"/><!--MD5=[39679607ec96c39073bc1782e026b2a4]
reverse link app.config.JView to app.config.JView.Public--><path d="M1076.75,30.025 C939.432,35.627 578.688,54.5437 282.5,107 C277.026,107.9694 271.36,109.1493 265.72,110.4414 " fill="none" id="app.config.JView&lt;-app.config.JView.Public" style="stroke: #A80036; stroke-width: 1.0;"/><ellipse cx="1084.0064" cy="29.741" fill="#FFFFFF" rx="8" ry="8" style="stroke: #A80036; stroke-width: 1.0;"/><line style="stroke: #A80036; stroke-width: 1.0;" x1="1076.0128" x2="1092" y1="30.061" y2="29.421"/><line style="stroke: #A80036; stroke-width: 1.0;" x1="1083.6864" x2="1084.3264" y1="21.7474" y2="37.7346"/><!--MD5=[d6ed116bfce2962a01468d9faea41d2b]
reverse link app.config.JView to app.config.JView.UserInfo--><path d="M1076.34,32.225 C957.738,41.501 676.547,66.1345 443.5,107 C438.016,107.9616 432.347,109.0711 426.675,110.2613 " fill="none" id="app.config.JView&lt;-app.config.JView.UserInfo" style="stroke: #A80036; stroke-width: 1.0;"/><ellipse cx="1083.6638" cy="31.6611" fill="#FFFFFF" rx="8" ry="8" style="stroke: #A80036; stroke-width: 1.0;"/><line style="stroke: #A80036; stroke-width: 1.0;" x1="1075.6877" x2="1091.64" y1="32.2783" y2="31.044"/><line style="stroke: #A80036; stroke-width: 1.0;" x1="1083.0467" x2="1084.281" y1="23.685" y2="39.6373"/><!--MD5=[3bbdb7c98308dd021eeae4fa3f1e08b9]
reverse link app.config.JView to app.config.JView.UserDetail--><path d="M1076.97,35.465 C981.828,48.2957 783.782,76.1456 617.5,107 C611.724,108.0718 605.745,109.2441 599.752,110.4633 " fill="none" id="app.config.JView&lt;-app.config.JView.UserDetail" style="stroke: #A80036; stroke-width: 1.0;"/><ellipse cx="1083.9504" cy="34.5231" fill="#FFFFFF" rx="8" ry="8" style="stroke: #A80036; stroke-width: 1.0;"/><line style="stroke: #A80036; stroke-width: 1.0;" x1="1076.0208" x2="1091.88" y1="35.5822" y2="33.464"/><line style="stroke: #A80036; stroke-width: 1.0;" x1="1082.8913" x2="1085.0095" y1="26.5935" y2="42.4527"/><!--MD5=[e498bd9106b75f4557c00c23a3438e5b]
reverse link app.config.JView to app.config.JView.NortificationInfo--><path d="M1076.75,41.466 C1005.199,58.4442 881.753,87.7365 800.613,106.9902 " fill="none" id="app.config.JView&lt;-app.config.JView.NortificationInfo" style="stroke: #A80036; stroke-width: 1.0;"/><ellipse cx="1083.8454" cy="39.78" fill="#FFFFFF" rx="8" ry="8" style="stroke: #A80036; stroke-width: 1.0;"/><line style="stroke: #A80036; stroke-width: 1.0;" x1="1076.0609" x2="1091.63" y1="41.6241" y2="37.936"/><line style="stroke: #A80036; stroke-width: 1.0;" x1="1082.0014" x2="1085.6895" y1="31.9955" y2="47.5646"/><!--MD5=[86ca797957580412afe6001583cd6071]
reverse link app.config.JView to app.config.JView.TagInfo--><path d="M1077.91,51.4804 C1037.83,68.4124 984.396,90.9837 946.876,106.8326 " fill="none" id="app.config.JView&lt;-app.config.JView.TagInfo" style="stroke: #A80036; stroke-width: 1.0;"/><ellipse cx="1084.3916" cy="48.7496" fill="#FFFFFF" rx="8" ry="8" style="stroke: #A80036; stroke-width: 1.0;"/><line style="stroke: #A80036; stroke-width: 1.0;" x1="1077.0233" x2="1091.76" y1="51.8653" y2="45.634"/><line style="stroke: #A80036; stroke-width: 1.0;" x1="1081.276" x2="1087.5073" y1="41.3813" y2="56.118"/><!--MD5=[6e6acef24f156bd23add88d2ac8ce19e]
reverse link app.config.JView to app.config.JView.AppInfo--><path d="M1109,59.5912 C1096.98,75.0925 1082.89,93.2656 1072.48,106.6786 " fill="none" id="app.config.JView&lt;-app.config.JView.AppInfo" style="stroke: #A80036; stroke-width: 1.0;"/><ellipse cx="1113.5784" cy="53.6841" fill="#FFFFFF" rx="8" ry="8" style="stroke: #A80036; stroke-width: 1.0;"/><line style="stroke: #A80036; stroke-width: 1.0;" x1="1108.6768" x2="1118.48" y1="60.0066" y2="47.3616"/><line style="stroke: #A80036; stroke-width: 1.0;" x1="1107.2559" x2="1119.9009" y1="48.7825" y2="58.5857"/><!--MD5=[84f8214b9a6d2b05a1f99ace81990601]
reverse link app.config.JView to app.config.JView.Profile--><path d="M1158,59.5912 C1170.02,75.0925 1184.11,93.2656 1194.52,106.6786 " fill="none" id="app.config.JView&lt;-app.config.JView.Profile" style="stroke: #A80036; stroke-width: 1.0;"/><ellipse cx="1153.4216" cy="53.6841" fill="#FFFFFF" rx="8" ry="8" style="stroke: #A80036; stroke-width: 1.0;"/><line style="stroke: #A80036; stroke-width: 1.0;" x1="1158.3232" x2="1148.52" y1="60.0066" y2="47.3616"/><line style="stroke: #A80036; stroke-width: 1.0;" x1="1147.0991" x2="1159.7441" y1="58.5857" y2="48.7825"/><!--MD5=[ae592aa6b5a1e6f6aa3c115d16498576]
reverse link app.config.JView to app.config.JView.Account--><path d="M1189.17,51.8249 C1228.72,68.75 1281.13,91.1769 1317.92,106.9232 " fill="none" id="app.config.JView&lt;-app.config.JView.Account" style="stroke: #A80036; stroke-width: 1.0;"/><ellipse cx="1182.5951" cy="49.0079" fill="#FFFFFF" rx="8" ry="8" style="stroke: #A80036; stroke-width: 1.0;"/><line style="stroke: #A80036; stroke-width: 1.0;" x1="1189.9502" x2="1175.24" y1="52.1548" y2="45.861"/><line style="stroke: #A80036; stroke-width: 1.0;" x1="1179.4482" x2="1185.742" y1="56.363" y2="41.6528"/><!--MD5=[d6694bb693546077fcb3f6138aca4334]
reverse link app.config.JView to app.config.JView.Nortification--><path d="M1189.73,41.812 C1260.22,59.125 1381.21,88.8415 1458.98,107.9418 " fill="none" id="app.config.JView&lt;-app.config.JView.Nortification" style="stroke: #A80036; stroke-width: 1.0;"/><ellipse cx="1182.8399" cy="40.1149" fill="#FFFFFF" rx="8" ry="8" style="stroke: #A80036; stroke-width: 1.0;"/><line style="stroke: #A80036; stroke-width: 1.0;" x1="1190.6098" x2="1175.07" y1="42.0199" y2="38.21"/><line style="stroke: #A80036; stroke-width: 1.0;" x1="1180.9349" x2="1184.7448" y1="47.8848" y2="32.3451"/><!--MD5=[43cbd4adc81088da5d55a32279aeff1c]
reverse link app.config.JView to app.config.JView.Customize--><path d="M1190.16,36.097 C1281.59,49.3968 1467.24,77.3647 1623.5,107 C1629.27,108.0947 1635.25,109.2831 1641.24,110.5131 " fill="none" id="app.config.JView&lt;-app.config.JView.Customize" style="stroke: #A80036; stroke-width: 1.0;"/><ellipse cx="1183.1768" cy="35.0895" fill="#FFFFFF" rx="8" ry="8" style="stroke: #A80036; stroke-width: 1.0;"/><line style="stroke: #A80036; stroke-width: 1.0;" x1="1191.0937" x2="1175.26" y1="36.2399" y2="33.939"/><line style="stroke: #A80036; stroke-width: 1.0;" x1="1182.0264" x2="1184.3273" y1="43.0063" y2="27.1726"/><!--MD5=[ea6310865f2bb10e45816ac416d29996]
reverse link app.config.JView to app.config.JView.commonSetting--><path d="M1190.38,33.494 C1305.38,44.882 1573.62,72.8685 1797.5,107 C1803.2,107.8687 1809.07,108.8172 1814.97,109.8118 " fill="none" id="app.config.JView&lt;-app.config.JView.commonSetting" style="stroke: #A80036; stroke-width: 1.0;"/><ellipse cx="1183.1514" cy="32.7838" fill="#FFFFFF" rx="8" ry="8" style="stroke: #A80036; stroke-width: 1.0;"/><line style="stroke: #A80036; stroke-width: 1.0;" x1="1191.1128" x2="1175.19" y1="33.5686" y2="31.999"/><line style="stroke: #A80036; stroke-width: 1.0;" x1="1182.3666" x2="1183.9362" y1="40.7452" y2="24.8224"/><!--MD5=[4f26d35d58dff0d81af8f77f8193f32a]
reverse link app.config.JView to app.config.JView.follow--><path d="M1190.47,29.823 C1329.86,35.009 1698.82,53.1343 2001.5,107 C2007.15,108.0061 2013.01,109.2455 2018.83,110.6052 " fill="none" id="app.config.JView&lt;-app.config.JView.follow" style="stroke: #A80036; stroke-width: 1.0;"/><ellipse cx="1183.3848" cy="29.5685" fill="#FFFFFF" rx="8" ry="8" style="stroke: #A80036; stroke-width: 1.0;"/><line style="stroke: #A80036; stroke-width: 1.0;" x1="1191.3795" x2="1175.39" y1="29.8581" y2="29.279"/><line style="stroke: #A80036; stroke-width: 1.0;" x1="1183.0952" x2="1183.6743" y1="37.5633" y2="21.5738"/><!--MD5=[5e76673d463adee62c23292a205f17ac]
reverse link app.config.JView to app.config.JView.follower--><path d="M1190.45,29.249 C1344.8,33.324 1783.69,49.4891 2143.5,107 C2149.28,107.9239 2155.26,109.0561 2161.23,110.3033 " fill="none" id="app.config.JView&lt;-app.config.JView.follower" style="stroke: #A80036; stroke-width: 1.0;"/><ellipse cx="1183.1474" cy="29.0667" fill="#FFFFFF" rx="8" ry="8" style="stroke: #A80036; stroke-width: 1.0;"/><line style="stroke: #A80036; stroke-width: 1.0;" x1="1191.1447" x2="1175.15" y1="29.2724" y2="28.861"/><line style="stroke: #A80036; stroke-width: 1.0;" x1="1182.9416" x2="1183.3531" y1="37.0641" y2="21.0694"/><text fill="#888888" font-family="sans-serif" font-size="10" lengthAdjust="spacingAndGlyphs" textLength="190" x="1046.25" y="170.5684">UMLDoclet 2.0.11, PlantUML 1.2020.15</text><!--MD5=[6e2d805c2da9915bac8a4afb2a0a278c]
@startuml
    set namespaceSeparator none
    hide empty fields
    hide empty methods

    class "<size:14>JView\n<size:10>app.config" as app.config.JView [[JView.html]]
    interface "<size:14>JView.Ignore\n<size:10>app.config" as app.config.JView.Ignore [[JView.Ignore.html]]
    interface "<size:14>JView.Public\n<size:10>app.config" as app.config.JView.Public [[JView.Public.html]]
    interface "<size:14>JView.UserInfo\n<size:10>app.config" as app.config.JView.UserInfo [[JView.UserInfo.html]]
    interface "<size:14>JView.UserDetail\n<size:10>app.config" as app.config.JView.UserDetail [[JView.UserDetail.html]]
    interface "<size:14>JView.NortificationInfo\n<size:10>app.config" as app.config.JView.NortificationInfo [[JView.NortificationInfo.html]]
    interface "<size:14>JView.TagInfo\n<size:10>app.config" as app.config.JView.TagInfo [[JView.TagInfo.html]]
    interface "<size:14>JView.AppInfo\n<size:10>app.config" as app.config.JView.AppInfo [[JView.AppInfo.html]]
    interface "<size:14>JView.Profile\n<size:10>app.config" as app.config.JView.Profile [[JView.Profile.html]]
    interface "<size:14>JView.Account\n<size:10>app.config" as app.config.JView.Account [[JView.Account.html]]
    interface "<size:14>JView.Nortification\n<size:10>app.config" as app.config.JView.Nortification [[JView.Nortification.html]]
    interface "<size:14>JView.Customize\n<size:10>app.config" as app.config.JView.Customize [[JView.Customize.html]]
    interface "<size:14>JView.commonSetting\n<size:10>app.config" as app.config.JView.commonSetting [[JView.commonSetting.html]]
    interface "<size:14>JView.follow\n<size:10>app.config" as app.config.JView.follow [[JView.follow.html]]
    interface "<size:14>JView.follower\n<size:10>app.config" as app.config.JView.follower [[JView.follower.html]]

    app.config.JView +- - app.config.JView.Ignore
    app.config.JView +- - app.config.JView.Public
    app.config.JView +- - app.config.JView.UserInfo
    app.config.JView +- - app.config.JView.UserDetail
    app.config.JView +- - app.config.JView.NortificationInfo
    app.config.JView +- - app.config.JView.TagInfo
    app.config.JView +- - app.config.JView.AppInfo
    app.config.JView +- - app.config.JView.Profile
    app.config.JView +- - app.config.JView.Account
    app.config.JView +- - app.config.JView.Nortification
    app.config.JView +- - app.config.JView.Customize
    app.config.JView +- - app.config.JView.commonSetting
    app.config.JView +- - app.config.JView.follow
    app.config.JView +- - app.config.JView.follower

    center footer UMLDoclet 2.0.11, PlantUML 1.2020.15
@enduml

PlantUML version 1.2020.15(Sun Jun 28 20:39:45 JST 2020)
(APACHE source distribution)
Java Runtime: OpenJDK Runtime Environment
JVM: OpenJDK 64-Bit Server VM
Default Encoding: MS932
Language: ja
Country: JP
--></g></svg>