<?xml version="1.0" encoding="UTF-8" standalone="no"?><svg xmlns="http://www.w3.org/2000/svg" xmlns:xlink="http://www.w3.org/1999/xlink" contentScriptType="application/ecmascript" contentStyleType="text/css" height="184px" preserveAspectRatio="none" style="width:270px;height:184px;" version="1.1" viewBox="0 0 270 184" width="270px" zoomAndPan="magnify"><defs><filter height="300%" id="frb5gmmx1vap2" width="300%" x="-1" y="-1"><feGaussianBlur result="blurOut" stdDeviation="2.0"/><feColorMatrix in="blurOut" result="blurOut2" type="matrix" values="0 0 0 0 0 0 0 0 0 0 0 0 0 0 0 0 0 0 .4 0"/><feOffset dx="4.0" dy="4.0" in="blurOut2" result="blurOut3"/><feBlend in="SourceGraphic" in2="blurOut3" mode="normal"/></filter></defs><g><!--MD5=[e9d66aec508d16ba0ac455ce24e9e96d]
class app.config.JView.UserDetail--><a href="JView.UserDetail.html" target="_top" title="JView.UserDetail.html" xlink:actuate="onRequest" xlink:href="JView.UserDetail.html" xlink:show="new" xlink:title="JView.UserDetail.html" xlink:type="simple"><rect fill="#FEFECE" filter="url(#frb5gmmx1vap2)" height="40.1875" id="app.config.JView.UserDetail" style="stroke: #A80036; stroke-width: 1.5;" width="138" x="71" y="107"/><ellipse cx="86" cy="127.0938" fill="#B4A7E5" rx="11" ry="11" style="stroke: #A80036; stroke-width: 1.0;"/><path d="M87.1719,131.8125 L87.9063,131.8125 L87.9063,133.9531 L84.2188,133.9531 L84.2188,131.8125 L84.9531,131.8125 L84.9531,122.4688 L84.2188,122.4688 L84.2188,120.3281 L87.9063,120.3281 L87.9063,122.4688 L87.1719,122.4688 L87.1719,131.8125 Z "/><text fill="#000000" font-family="sans-serif" font-size="14" font-style="italic" lengthAdjust="spacingAndGlyphs" textLength="106" x="100" y="126.5332">JView.UserDetail</text><text fill="#000000" font-family="sans-serif" font-size="10" font-style="italic" lengthAdjust="spacingAndGlyphs" textLength="50" x="128" y="139.9902">app.config</text></a><!--MD5=[08409010d0f138785c7a971397fa9bf3]
class app.config.JView.UserInfo--><a href="JView.UserInfo.html" target="_top" title="JView.UserInfo.html" xlink:actuate="onRequest" xlink:href="JView.UserInfo.html" xlink:show="new" xlink:title="JView.UserInfo.html" xlink:type="simple"><rect fill="#FEFECE" filter="url(#frb5gmmx1vap2)" height="40.1875" id="app.config.JView.UserInfo" style="stroke: #A80036; stroke-width: 1.5;" width="126" x="7" y="7"/><ellipse cx="22" cy="27.0938" fill="#B4A7E5" rx="11" ry="11" style="stroke: #A80036; stroke-width: 1.0;"/><path d="M23.1719,31.8125 L23.9063,31.8125 L23.9063,33.9531 L20.2188,33.9531 L20.2188,31.8125 L20.9531,31.8125 L20.9531,22.4688 L20.2188,22.4688 L20.2188,20.3281 L23.9063,20.3281 L23.9063,22.4688 L23.1719,22.4688 L23.1719,31.8125 Z "/><text fill="#000000" font-family="sans-serif" font-size="14" font-style="italic" lengthAdjust="spacingAndGlyphs" textLength="94" x="36" y="26.5332">JView.UserInfo</text><text fill="#000000" font-family="sans-serif" font-size="10" font-style="italic" lengthAdjust="spacingAndGlyphs" textLength="50" x="58" y="39.9902">app.config</text></a><!--MD5=[c4589ec187783cdae14d7e455754229d]
class app.config.JView--><a href="JView.html" target="_top" title="JView.html" xlink:actuate="onRequest" xlink:href="JView.html" xlink:show="new" xlink:title="JView.html" xlink:type="simple"><rect fill="#FEFECE" filter="url(#frb5gmmx1vap2)" height="40.1875" id="app.config.JView" style="stroke: #A80036; stroke-width: 1.5;" width="83" x="168.5" y="7"/><ellipse cx="183.5" cy="27.0938" fill="#ADD1B2" rx="11" ry="11" style="stroke: #A80036; stroke-width: 1.0;"/><path d="M187.1875,28.2969 Q186.9375,31.7813 185.7969,32.9375 Q184.7656,33.9531 183.3594,33.9531 Q181.9531,33.9531 180.9219,32.9375 Q179.1719,31.1719 179.1719,27.5 Q179.1719,23.25 181.0469,21.3438 Q182.0938,20.3281 183.4219,20.3281 Q184.8281,20.3281 185.6719,21.1406 Q187.1563,22.6563 187.0781,25.5313 L184.9531,25.5313 Q184.875,23.2031 184.2344,22.5625 Q183.9531,22.2656 183.4219,22.2656 Q182.9688,22.2656 182.6094,22.6406 Q181.375,23.8594 181.375,27.375 Q181.375,30.4219 182.4219,31.4375 Q182.8438,31.875 183.3594,31.875 Q183.8125,31.875 184.25,31.4375 Q184.8125,30.8906 184.8906,28.2969 L187.1875,28.2969 Z "/><text fill="#000000" font-family="sans-serif" font-size="14" lengthAdjust="spacingAndGlyphs" textLength="35" x="205.5" y="26.5332">JView</text><text fill="#000000" font-family="sans-serif" font-size="10" lengthAdjust="spacingAndGlyphs" textLength="51" x="197.5" y="39.9902">app.config</text></a><!--MD5=[18cb5ac9e169f7e21f95ab3a63c22eaf]
reverse link app.config.JView.UserInfo to app.config.JView.UserDetail--><path d="M95.5972,63.8361 C105.9465,78.3251 117.481,94.4728 126.199,106.6786 " fill="none" id="app.config.JView.UserInfo&lt;-app.config.JView.UserDetail" style="stroke: #A80036; stroke-width: 1.0;"/><polygon fill="none" points="89.7584,67.705,83.8297,47.3616,101.1507,59.5677,89.7584,67.705" style="stroke: #A80036; stroke-width: 1.0;"/><!--MD5=[3bbdb7c98308dd021eeae4fa3f1e08b9]
reverse link app.config.JView to app.config.JView.UserDetail--><path d="M187.435,59.5912 C176.362,75.0925 163.382,93.2656 153.801,106.6786 " fill="none" id="app.config.JView&lt;-app.config.JView.UserDetail" style="stroke: #A80036; stroke-width: 1.0;"/><ellipse cx="191.52" cy="53.8714" fill="#FFFFFF" rx="8" ry="8" style="stroke: #A80036; stroke-width: 1.0;"/><line style="stroke: #A80036; stroke-width: 1.0;" x1="186.87" x2="196.17" y1="60.3812" y2="47.3616"/><line style="stroke: #A80036; stroke-width: 1.0;" x1="185.0102" x2="198.0298" y1="49.2214" y2="58.5214"/><text fill="#888888" font-family="sans-serif" font-size="10" lengthAdjust="spacingAndGlyphs" textLength="190" x="31.25" y="170.5684">UMLDoclet 2.0.11, PlantUML 1.2020.15</text><!--MD5=[27019eb655c7971836c2704f9e092101]
@startuml
    set namespaceSeparator none
    hide empty fields
    hide empty methods

    interface "<size:14>JView.UserDetail\n<size:10>app.config" as app.config.JView.UserDetail [[JView.UserDetail.html]]

    interface "<size:14>JView.UserInfo\n<size:10>app.config" as app.config.JView.UserInfo [[JView.UserInfo.html]]
    class "<size:14>JView\n<size:10>app.config" as app.config.JView [[JView.html]]

    app.config.JView.UserInfo <|- - app.config.JView.UserDetail
    app.config.JView +- - app.config.JView.UserDetail

    center footer UMLDoclet 2.0.11, PlantUML 1.2020.15
@enduml

PlantUML version 1.2020.15(Sun Jun 28 20:39:45 JST 2020)
(APACHE source distribution)
Java Runtime: OpenJDK Runtime Environment
JVM: OpenJDK 64-Bit Server VM
Default Encoding: MS932
Language: ja
Country: JP
--></g></svg>