<?xml version="1.0" encoding="UTF-8" standalone="no"?><svg xmlns="http://www.w3.org/2000/svg" xmlns:xlink="http://www.w3.org/1999/xlink" contentScriptType="application/ecmascript" contentStyleType="text/css" height="141px" preserveAspectRatio="none" style="width:263px;height:141px;" version="1.1" viewBox="0 0 263 141" width="263px" zoomAndPan="magnify"><defs><filter height="300%" id="fjpb6i61hdp3s" width="300%" x="-1" y="-1"><feGaussianBlur result="blurOut" stdDeviation="2.0"/><feColorMatrix in="blurOut" result="blurOut2" type="matrix" values="0 0 0 0 0 0 0 0 0 0 0 0 0 0 0 0 0 0 .4 0"/><feOffset dx="4.0" dy="4.0" in="blurOut2" result="blurOut3"/><feBlend in="SourceGraphic" in2="blurOut3" mode="normal"/></filter></defs><g><!--MD5=[fba9ffb85caeaf9c46e25e0746f99758]
class app.config.Util--><a href="Util.html" target="_top" title="Util.html" xlink:actuate="onRequest" xlink:href="Util.html" xlink:show="new" xlink:title="Util.html" xlink:type="simple"><rect fill="#FEFECE" filter="url(#fjpb6i61hdp3s)" height="103.5313" id="app.config.Util" style="stroke: #A80036; stroke-width: 1.5;" width="237" x="7" y="7"/><ellipse cx="95.75" cy="27.0938" fill="#ADD1B2" rx="11" ry="11" style="stroke: #A80036; stroke-width: 1.0;"/><path d="M99.4375,28.2969 Q99.1875,31.7813 98.0469,32.9375 Q97.0156,33.9531 95.6094,33.9531 Q94.2031,33.9531 93.1719,32.9375 Q91.4219,31.1719 91.4219,27.5 Q91.4219,23.25 93.2969,21.3438 Q94.3438,20.3281 95.6719,20.3281 Q97.0781,20.3281 97.9219,21.1406 Q99.4063,22.6563 99.3281,25.5313 L97.2031,25.5313 Q97.125,23.2031 96.4844,22.5625 Q96.2031,22.2656 95.6719,22.2656 Q95.2188,22.2656 94.8594,22.6406 Q93.625,23.8594 93.625,27.375 Q93.625,30.4219 94.6719,31.4375 Q95.0938,31.875 95.6094,31.875 Q96.0625,31.875 96.5,31.4375 Q97.0625,30.8906 97.1406,28.2969 L99.4375,28.2969 Z "/><text fill="#000000" font-family="sans-serif" font-size="14" lengthAdjust="spacingAndGlyphs" textLength="19" x="132.25" y="26.5332">Util</text><text fill="#000000" font-family="sans-serif" font-size="10" lengthAdjust="spacingAndGlyphs" textLength="51" x="116.25" y="39.9902">app.config</text><line style="stroke: #A80036; stroke-width: 1.5;" x1="8" x2="243" y1="47.1875" y2="47.1875"/><ellipse cx="18" cy="58.1875" fill="#84BE84" rx="3" ry="3" style="stroke: #038048; stroke-width: 1.0;"/><text fill="#000000" font-family="sans-serif" font-size="11" lengthAdjust="spacingAndGlyphs" textLength="129" x="27" y="62.6064">getMessage(String): String</text><ellipse cx="18" cy="72.0234" fill="#84BE84" rx="3" ry="3" style="stroke: #038048; stroke-width: 1.0;"/><text fill="#000000" font-family="sans-serif" font-size="11" lengthAdjust="spacingAndGlyphs" textLength="169" x="27" y="76.4424">getMessage(String, String[]): String</text><ellipse cx="18" cy="85.8594" fill="#84BE84" rx="3" ry="3" style="stroke: #038048; stroke-width: 1.0;"/><text fill="#000000" font-family="sans-serif" font-size="11" lengthAdjust="spacingAndGlyphs" textLength="211" x="27" y="90.2783">copyNonNullProperties(Object, Object): void</text><ellipse cx="18" cy="99.6953" fill="#84BE84" rx="3" ry="3" style="stroke: #038048; stroke-width: 1.0;"/><text fill="#000000" font-family="sans-serif" font-size="11" lengthAdjust="spacingAndGlyphs" textLength="185" x="27" y="104.1143">getNullPropertyNames(Object): String[]</text></a><text fill="#888888" font-family="sans-serif" font-size="10" lengthAdjust="spacingAndGlyphs" textLength="190" x="30.5" y="127.9121">UMLDoclet 2.0.11, PlantUML 1.2020.15</text><!--MD5=[f7c377ace21d39e6ca8b07af5440ae5c]
@startuml
    set namespaceSeparator none
    hide empty fields
    hide empty methods

    class "<size:14>Util\n<size:10>app.config" as app.config.Util [[Util.html]] {
        +getMessage(String): String
        +getMessage(String, String[]): String
        +copyNonNullProperties(Object, Object): void
        +getNullPropertyNames(Object): String[]
    }

    center footer UMLDoclet 2.0.11, PlantUML 1.2020.15
@enduml

PlantUML version 1.2020.15(Sun Jun 28 20:39:45 JST 2020)
(APACHE source distribution)
Java Runtime: OpenJDK Runtime Environment
JVM: OpenJDK 64-Bit Server VM
Default Encoding: MS932
Language: ja
Country: JP
--></g></svg>