<?xml version="1.0" encoding="UTF-8" standalone="no"?><svg xmlns="http://www.w3.org/2000/svg" xmlns:xlink="http://www.w3.org/1999/xlink" contentScriptType="application/ecmascript" contentStyleType="text/css" height="155px" preserveAspectRatio="none" style="width:202px;height:155px;" version="1.1" viewBox="0 0 202 155" width="202px" zoomAndPan="magnify"><defs><filter height="300%" id="f1i690mrsy8k6g" width="300%" x="-1" y="-1"><feGaussianBlur result="blurOut" stdDeviation="2.0"/><feColorMatrix in="blurOut" result="blurOut2" type="matrix" values="0 0 0 0 0 0 0 0 0 0 0 0 0 0 0 0 0 0 .4 0"/><feOffset dx="4.0" dy="4.0" in="blurOut2" result="blurOut3"/><feBlend in="SourceGraphic" in2="blurOut3" mode="normal"/></filter></defs><g><!--MD5=[736143e21a88907e466cf6d93d0a2120]
class app.controller.AppRestController--><a href="AppRestController.html" target="_top" title="AppRestController.html" xlink:actuate="onRequest" xlink:href="AppRestController.html" xlink:show="new" xlink:title="AppRestController.html" xlink:type="simple"><rect fill="#FEFECE" filter="url(#f1i690mrsy8k6g)" height="117.3672" id="app.controller.AppRestController" style="stroke: #A80036; stroke-width: 1.5;" width="171" x="9.5" y="7"/><ellipse cx="34.85" cy="27.0938" fill="#ADD1B2" rx="11" ry="11" style="stroke: #A80036; stroke-width: 1.0;"/><path d="M38.5375,28.2969 Q38.2875,31.7813 37.1469,32.9375 Q36.1156,33.9531 34.7094,33.9531 Q33.3031,33.9531 32.2719,32.9375 Q30.5219,31.1719 30.5219,27.5 Q30.5219,23.25 32.3969,21.3438 Q33.4438,20.3281 34.7719,20.3281 Q36.1781,20.3281 37.0219,21.1406 Q38.5063,22.6563 38.4281,25.5313 L36.3031,25.5313 Q36.225,23.2031 35.5844,22.5625 Q35.3031,22.2656 34.7719,22.2656 Q34.3188,22.2656 33.9594,22.6406 Q32.725,23.8594 32.725,27.375 Q32.725,30.4219 33.7719,31.4375 Q34.1938,31.875 34.7094,31.875 Q35.1625,31.875 35.6,31.4375 Q36.1625,30.8906 36.2406,28.2969 L38.5375,28.2969 Z "/><text fill="#000000" font-family="sans-serif" font-size="14" lengthAdjust="spacingAndGlyphs" textLength="116" x="51.15" y="26.5332">AppRestController</text><text fill="#000000" font-family="sans-serif" font-size="10" lengthAdjust="spacingAndGlyphs" textLength="66" x="76.15" y="39.9902">app.controller</text><line style="stroke: #A80036; stroke-width: 1.5;" x1="10.5" x2="179.5" y1="47.1875" y2="47.1875"/><ellipse cx="20.5" cy="58.1875" fill="#84BE84" rx="3" ry="3" style="stroke: #038048; stroke-width: 1.0;"/><text fill="#000000" font-family="sans-serif" font-size="11" lengthAdjust="spacingAndGlyphs" textLength="94" x="29.5" y="62.6064">getAppList(): String</text><ellipse cx="20.5" cy="72.0234" fill="#84BE84" rx="3" ry="3" style="stroke: #038048; stroke-width: 1.0;"/><text fill="#000000" font-family="sans-serif" font-size="11" lengthAdjust="spacingAndGlyphs" textLength="115" x="29.5" y="76.4424">registApp(Apps): String</text><ellipse cx="20.5" cy="85.8594" fill="#84BE84" rx="3" ry="3" style="stroke: #038048; stroke-width: 1.0;"/><text fill="#000000" font-family="sans-serif" font-size="11" lengthAdjust="spacingAndGlyphs" textLength="145" x="29.5" y="90.2783">getAppUserList(String): String</text><ellipse cx="20.5" cy="99.6953" fill="#84BE84" rx="3" ry="3" style="stroke: #038048; stroke-width: 1.0;"/><text fill="#000000" font-family="sans-serif" font-size="11" lengthAdjust="spacingAndGlyphs" textLength="145" x="29.5" y="104.1143">registUserApp(Integer): String</text><ellipse cx="20.5" cy="113.5313" fill="#84BE84" rx="3" ry="3" style="stroke: #038048; stroke-width: 1.0;"/><text fill="#000000" font-family="sans-serif" font-size="11" lengthAdjust="spacingAndGlyphs" textLength="131" x="29.5" y="117.9502">removeApp(Integer): String</text></a><text fill="#888888" font-family="sans-serif" font-size="10" lengthAdjust="spacingAndGlyphs" textLength="190" x="0" y="141.748">UMLDoclet 2.0.11, PlantUML 1.2020.15</text><!--MD5=[0f650e25a3544071bc68367175acca8b]
@startuml
    set namespaceSeparator none
    hide empty fields
    hide empty methods

    class "<size:14>AppRestController\n<size:10>app.controller" as app.controller.AppRestController [[AppRestController.html]] {
        +getAppList(): String
        +registApp(Apps): String
        +getAppUserList(String): String
        +registUserApp(Integer): String
        +removeApp(Integer): String
    }

    center footer UMLDoclet 2.0.11, PlantUML 1.2020.15
@enduml

PlantUML version 1.2020.15(Sun Jun 28 20:39:45 JST 2020)
(APACHE source distribution)
Java Runtime: OpenJDK Runtime Environment
JVM: OpenJDK 64-Bit Server VM
Default Encoding: MS932
Language: ja
Country: JP
--></g></svg>