<?xml version="1.0" encoding="UTF-8" standalone="no"?><svg xmlns="http://www.w3.org/2000/svg" xmlns:xlink="http://www.w3.org/1999/xlink" contentScriptType="application/ecmascript" contentStyleType="text/css" height="182px" preserveAspectRatio="none" style="width:256px;height:182px;" version="1.1" viewBox="0 0 256 182" width="256px" zoomAndPan="magnify"><defs><filter height="300%" id="fe6n6u1kyfrk6" width="300%" x="-1" y="-1"><feGaussianBlur result="blurOut" stdDeviation="2.0"/><feColorMatrix in="blurOut" result="blurOut2" type="matrix" values="0 0 0 0 0 0 0 0 0 0 0 0 0 0 0 0 0 0 .4 0"/><feOffset dx="4.0" dy="4.0" in="blurOut2" result="blurOut3"/><feBlend in="SourceGraphic" in2="blurOut3" mode="normal"/></filter></defs><g><!--MD5=[ad1ab14734226e3952b5c9c555c1577c]
class app.controller.UserRestController--><a href="UserRestController.html" target="_top" title="UserRestController.html" xlink:actuate="onRequest" xlink:href="UserRestController.html" xlink:show="new" xlink:title="UserRestController.html" xlink:type="simple"><rect fill="#FEFECE" filter="url(#fe6n6u1kyfrk6)" height="145.0391" id="app.controller.UserRestController" style="stroke: #A80036; stroke-width: 1.5;" width="230" x="7" y="7"/><ellipse cx="57.75" cy="27.0938" fill="#ADD1B2" rx="11" ry="11" style="stroke: #A80036; stroke-width: 1.0;"/><path d="M61.4375,28.2969 Q61.1875,31.7813 60.0469,32.9375 Q59.0156,33.9531 57.6094,33.9531 Q56.2031,33.9531 55.1719,32.9375 Q53.4219,31.1719 53.4219,27.5 Q53.4219,23.25 55.2969,21.3438 Q56.3438,20.3281 57.6719,20.3281 Q59.0781,20.3281 59.9219,21.1406 Q61.4063,22.6563 61.3281,25.5313 L59.2031,25.5313 Q59.125,23.2031 58.4844,22.5625 Q58.2031,22.2656 57.6719,22.2656 Q57.2188,22.2656 56.8594,22.6406 Q55.625,23.8594 55.625,27.375 Q55.625,30.4219 56.6719,31.4375 Q57.0938,31.875 57.6094,31.875 Q58.0625,31.875 58.5,31.4375 Q59.0625,30.8906 59.1406,28.2969 L61.4375,28.2969 Z "/><text fill="#000000" font-family="sans-serif" font-size="14" lengthAdjust="spacingAndGlyphs" textLength="120" x="78.25" y="26.5332">UserRestController</text><text fill="#000000" font-family="sans-serif" font-size="10" lengthAdjust="spacingAndGlyphs" textLength="66" x="105.25" y="39.9902">app.controller</text><line style="stroke: #A80036; stroke-width: 1.5;" x1="8" x2="236" y1="47.1875" y2="47.1875"/><ellipse cx="18" cy="58.1875" fill="#84BE84" rx="3" ry="3" style="stroke: #038048; stroke-width: 1.0;"/><text fill="#000000" font-family="sans-serif" font-size="11" lengthAdjust="spacingAndGlyphs" textLength="126" x="27" y="62.6064">getUserInfo(String): String</text><ellipse cx="18" cy="72.0234" fill="#84BE84" rx="3" ry="3" style="stroke: #038048; stroke-width: 1.0;"/><text fill="#000000" font-family="sans-serif" font-size="11" lengthAdjust="spacingAndGlyphs" textLength="204" x="27" y="76.4424">postUserInfo(Users, BindingResult): String</text><ellipse cx="18" cy="85.8594" fill="#84BE84" rx="3" ry="3" style="stroke: #038048; stroke-width: 1.0;"/><text fill="#000000" font-family="sans-serif" font-size="11" lengthAdjust="spacingAndGlyphs" textLength="97" x="27" y="90.2783">delUserInfo(): String</text><ellipse cx="18" cy="99.6953" fill="#84BE84" rx="3" ry="3" style="stroke: #038048; stroke-width: 1.0;"/><text fill="#000000" font-family="sans-serif" font-size="11" lengthAdjust="spacingAndGlyphs" textLength="134" x="27" y="104.1143">getFollowList(String): String</text><ellipse cx="18" cy="113.5313" fill="#84BE84" rx="3" ry="3" style="stroke: #038048; stroke-width: 1.0;"/><text fill="#000000" font-family="sans-serif" font-size="11" lengthAdjust="spacingAndGlyphs" textLength="125" x="27" y="117.9502">addFollow(Integer): String</text><ellipse cx="18" cy="127.3672" fill="#84BE84" rx="3" ry="3" style="stroke: #038048; stroke-width: 1.0;"/><text fill="#000000" font-family="sans-serif" font-size="11" lengthAdjust="spacingAndGlyphs" textLength="121" x="27" y="131.7861">delFollow(Integer): String</text><ellipse cx="18" cy="141.2031" fill="#84BE84" rx="3" ry="3" style="stroke: #038048; stroke-width: 1.0;"/><text fill="#000000" font-family="sans-serif" font-size="11" lengthAdjust="spacingAndGlyphs" textLength="144" x="27" y="145.6221">getFollowerList(String): String</text></a><text fill="#888888" font-family="sans-serif" font-size="10" lengthAdjust="spacingAndGlyphs" textLength="190" x="27" y="169.4199">UMLDoclet 2.0.11, PlantUML 1.2020.15</text><!--MD5=[233f1868c3c793aba1ec94482ac57c26]
@startuml
    set namespaceSeparator none
    hide empty fields
    hide empty methods

    class "<size:14>UserRestController\n<size:10>app.controller" as app.controller.UserRestController [[UserRestController.html]] {
        +getUserInfo(String): String
        +postUserInfo(Users, BindingResult): String
        +delUserInfo(): String
        +getFollowList(String): String
        +addFollow(Integer): String
        +delFollow(Integer): String
        +getFollowerList(String): String
    }

    center footer UMLDoclet 2.0.11, PlantUML 1.2020.15
@enduml

PlantUML version 1.2020.15(Sun Jun 28 20:39:45 JST 2020)
(APACHE source distribution)
Java Runtime: OpenJDK Runtime Environment
JVM: OpenJDK 64-Bit Server VM
Default Encoding: MS932
Language: ja
Country: JP
--></g></svg>