<?xml version="1.0" encoding="UTF-8" standalone="no"?><svg xmlns="http://www.w3.org/2000/svg" xmlns:xlink="http://www.w3.org/1999/xlink" contentScriptType="application/ecmascript" contentStyleType="text/css" height="155px" preserveAspectRatio="none" style="width:202px;height:155px;" version="1.1" viewBox="0 0 202 155" width="202px" zoomAndPan="magnify"><defs><filter height="300%" id="f67jogtxb9eyk" width="300%" x="-1" y="-1"><feGaussianBlur result="blurOut" stdDeviation="2.0"/><feColorMatrix in="blurOut" result="blurOut2" type="matrix" values="0 0 0 0 0 0 0 0 0 0 0 0 0 0 0 0 0 0 .4 0"/><feOffset dx="4.0" dy="4.0" in="blurOut2" result="blurOut3"/><feBlend in="SourceGraphic" in2="blurOut3" mode="normal"/></filter></defs><g><!--MD5=[acc4f91fef787ecc44ed3ed6cea7a6e1]
class app.model.UserApp--><a href="UserApp.html" target="_top" title="UserApp.html" xlink:actuate="onRequest" xlink:href="UserApp.html" xlink:show="new" xlink:title="UserApp.html" xlink:type="simple"><rect fill="#FEFECE" filter="url(#f67jogtxb9eyk)" height="117.3672" id="app.model.UserApp" style="stroke: #A80036; stroke-width: 1.5;" width="149" x="20.5" y="7"/><ellipse cx="63.85" cy="27.0938" fill="#ADD1B2" rx="11" ry="11" style="stroke: #A80036; stroke-width: 1.0;"/><path d="M67.5375,28.2969 Q67.2875,31.7813 66.1469,32.9375 Q65.1156,33.9531 63.7094,33.9531 Q62.3031,33.9531 61.2719,32.9375 Q59.5219,31.1719 59.5219,27.5 Q59.5219,23.25 61.3969,21.3438 Q62.4438,20.3281 63.7719,20.3281 Q65.1781,20.3281 66.0219,21.1406 Q67.5063,22.6563 67.4281,25.5313 L65.3031,25.5313 Q65.225,23.2031 64.5844,22.5625 Q64.3031,22.2656 63.7719,22.2656 Q63.3188,22.2656 62.9594,22.6406 Q61.725,23.8594 61.725,27.375 Q61.725,30.4219 62.7719,31.4375 Q63.1938,31.875 63.7094,31.875 Q64.1625,31.875 64.6,31.4375 Q65.1625,30.8906 65.2406,28.2969 L67.5375,28.2969 Z "/><text fill="#000000" font-family="sans-serif" font-size="14" lengthAdjust="spacingAndGlyphs" textLength="54" x="84.15" y="26.5332">UserApp</text><text fill="#000000" font-family="sans-serif" font-size="10" lengthAdjust="spacingAndGlyphs" textLength="51" x="85.65" y="39.9902">app.model</text><line style="stroke: #A80036; stroke-width: 1.5;" x1="21.5" x2="168.5" y1="47.1875" y2="47.1875"/><ellipse cx="31.5" cy="58.1875" fill="#84BE84" rx="3" ry="3" style="stroke: #038048; stroke-width: 1.0;"/><text fill="#000000" font-family="sans-serif" font-size="11" lengthAdjust="spacingAndGlyphs" textLength="123" x="40.5" y="62.6064">UserApp(Integer, Integer)</text><ellipse cx="31.5" cy="72.0234" fill="#84BE84" rx="3" ry="3" style="stroke: #038048; stroke-width: 1.0;"/><text fill="#000000" font-family="sans-serif" font-size="11" lengthAdjust="spacingAndGlyphs" textLength="77" x="40.5" y="76.4424">getUid(): Integer</text><ellipse cx="31.5" cy="85.8594" fill="#84BE84" rx="3" ry="3" style="stroke: #038048; stroke-width: 1.0;"/><text fill="#000000" font-family="sans-serif" font-size="11" lengthAdjust="spacingAndGlyphs" textLength="78" x="40.5" y="90.2783">getAid(): Integer</text><ellipse cx="31.5" cy="99.6953" fill="#84BE84" rx="3" ry="3" style="stroke: #038048; stroke-width: 1.0;"/><text fill="#000000" font-family="sans-serif" font-size="11" lengthAdjust="spacingAndGlyphs" textLength="97" x="40.5" y="104.1143">setUid(Integer): void</text><ellipse cx="31.5" cy="113.5313" fill="#84BE84" rx="3" ry="3" style="stroke: #038048; stroke-width: 1.0;"/><text fill="#000000" font-family="sans-serif" font-size="11" lengthAdjust="spacingAndGlyphs" textLength="98" x="40.5" y="117.9502">setAid(Integer): void</text></a><text fill="#888888" font-family="sans-serif" font-size="10" lengthAdjust="spacingAndGlyphs" textLength="190" x="0" y="141.748">UMLDoclet 2.0.11, PlantUML 1.2020.15</text><!--MD5=[d55fcd77835cc3bff55dfd2d7fc072cc]
@startuml
    set namespaceSeparator none
    hide empty fields
    hide empty methods

    class "<size:14>UserApp\n<size:10>app.model" as app.model.UserApp [[UserApp.html]] {
        +UserApp(Integer, Integer)
        +getUid(): Integer
        +getAid(): Integer
        +setUid(Integer): void
        +setAid(Integer): void
    }

    center footer UMLDoclet 2.0.11, PlantUML 1.2020.15
@enduml

PlantUML version 1.2020.15(Sun Jun 28 20:39:45 JST 2020)
(APACHE source distribution)
Java Runtime: OpenJDK Runtime Environment
JVM: OpenJDK 64-Bit Server VM
Default Encoding: MS932
Language: ja
Country: JP
--></g></svg>