<?xml version="1.0" encoding="UTF-8" standalone="no"?><svg xmlns="http://www.w3.org/2000/svg" xmlns:xlink="http://www.w3.org/1999/xlink" contentScriptType="application/ecmascript" contentStyleType="text/css" height="113px" preserveAspectRatio="none" style="width:251px;height:113px;" version="1.1" viewBox="0 0 251 113" width="251px" zoomAndPan="magnify"><defs><filter height="300%" id="f14g2y7yl5dzmm" width="300%" x="-1" y="-1"><feGaussianBlur result="blurOut" stdDeviation="2.0"/><feColorMatrix in="blurOut" result="blurOut2" type="matrix" values="0 0 0 0 0 0 0 0 0 0 0 0 0 0 0 0 0 0 .4 0"/><feOffset dx="4.0" dy="4.0" in="blurOut2" result="blurOut3"/><feBlend in="SourceGraphic" in2="blurOut3" mode="normal"/></filter></defs><g><!--MD5=[9d063a46a0e53336fbee81d26253bb75]
class app.controller.NortificationRestController--><a href="NortificationRestController.html" target="_top" title="NortificationRestController.html" xlink:actuate="onRequest" xlink:href="NortificationRestController.html" xlink:show="new" xlink:title="NortificationRestController.html" xlink:type="simple"><rect fill="#FEFECE" filter="url(#f14g2y7yl5dzmm)" height="75.8594" id="app.controller.NortificationRestController" style="stroke: #A80036; stroke-width: 1.5;" width="225" x="7" y="7"/><ellipse cx="34.6" cy="27.0938" fill="#ADD1B2" rx="11" ry="11" style="stroke: #A80036; stroke-width: 1.0;"/><path d="M38.2875,28.2969 Q38.0375,31.7813 36.8969,32.9375 Q35.8656,33.9531 34.4594,33.9531 Q33.0531,33.9531 32.0219,32.9375 Q30.2719,31.1719 30.2719,27.5 Q30.2719,23.25 32.1469,21.3438 Q33.1938,20.3281 34.5219,20.3281 Q35.9281,20.3281 36.7719,21.1406 Q38.2563,22.6563 38.1781,25.5313 L36.0531,25.5313 Q35.975,23.2031 35.3344,22.5625 Q35.0531,22.2656 34.5219,22.2656 Q34.0688,22.2656 33.7094,22.6406 Q32.475,23.8594 32.475,27.375 Q32.475,30.4219 33.5219,31.4375 Q33.9438,31.875 34.4594,31.875 Q34.9125,31.875 35.35,31.4375 Q35.9125,30.8906 35.9906,28.2969 L38.2875,28.2969 Z "/><text fill="#000000" font-family="sans-serif" font-size="14" lengthAdjust="spacingAndGlyphs" textLength="165" x="51.4" y="26.5332">NortificationRestController</text><text fill="#000000" font-family="sans-serif" font-size="10" lengthAdjust="spacingAndGlyphs" textLength="66" x="100.9" y="39.9902">app.controller</text><line style="stroke: #A80036; stroke-width: 1.5;" x1="8" x2="231" y1="47.1875" y2="47.1875"/><ellipse cx="18" cy="58.1875" fill="#84BE84" rx="3" ry="3" style="stroke: #038048; stroke-width: 1.0;"/><text fill="#000000" font-family="sans-serif" font-size="11" lengthAdjust="spacingAndGlyphs" textLength="142" x="27" y="62.6064">getNortificationList(int): String</text><ellipse cx="18" cy="72.0234" fill="#84BE84" rx="3" ry="3" style="stroke: #038048; stroke-width: 1.0;"/><text fill="#000000" font-family="sans-serif" font-size="11" lengthAdjust="spacingAndGlyphs" textLength="199" x="27" y="76.4424">postNortification(int, List&lt;Integer&gt;): String</text></a><text fill="#888888" font-family="sans-serif" font-size="10" lengthAdjust="spacingAndGlyphs" textLength="190" x="24.5" y="100.2402">UMLDoclet 2.0.11, PlantUML 1.2020.15</text><!--MD5=[9435aaa93923c0ed5211833a9c3d6166]
@startuml
    set namespaceSeparator none
    hide empty fields
    hide empty methods

    class "<size:14>NortificationRestController\n<size:10>app.controller" as app.controller.NortificationRestController [[NortificationRestController.html]] {
        +getNortificationList(int): String
        +postNortification(int, List<Integer>): String
    }

    center footer UMLDoclet 2.0.11, PlantUML 1.2020.15
@enduml

PlantUML version 1.2020.15(Sun Jun 28 20:39:45 JST 2020)
(APACHE source distribution)
Java Runtime: OpenJDK Runtime Environment
JVM: OpenJDK 64-Bit Server VM
Default Encoding: MS932
Language: ja
Country: JP
--></g></svg>