<?xml version="1.0" encoding="UTF-8" standalone="no"?><svg xmlns="http://www.w3.org/2000/svg" xmlns:xlink="http://www.w3.org/1999/xlink" contentScriptType="application/ecmascript" contentStyleType="text/css" height="480px" preserveAspectRatio="none" style="width:2266px;height:480px;" version="1.1" viewBox="0 0 2266 480" width="2266px" zoomAndPan="magnify"><defs><filter height="300%" id="fdl4n3q3rpxb6" width="300%" x="-1" y="-1"><feGaussianBlur result="blurOut" stdDeviation="2.0"/><feColorMatrix in="blurOut" result="blurOut2" type="matrix" values="0 0 0 0 0 0 0 0 0 0 0 0 0 0 0 0 0 0 .4 0"/><feOffset dx="4.0" dy="4.0" in="blurOut2" result="blurOut3"/><feBlend in="SourceGraphic" in2="blurOut3" mode="normal"/></filter></defs><g><!--MD5=[8cff86171a71192e4ece420ea688d8a1]
cluster app.repository--><polygon fill="#FFFFFF" filter="url(#fdl4n3q3rpxb6)" points="16,282,124,282,131,305.6094,2244,305.6094,2244,451,16,451,16,282" style="stroke: #000000; stroke-width: 1.5;"/><line style="stroke: #000000; stroke-width: 1.5;" x1="16" x2="131" y1="305.6094" y2="305.6094"/><text fill="#000000" font-family="sans-serif" font-size="14" font-weight="bold" lengthAdjust="spacingAndGlyphs" textLength="102" x="20" y="298.5332">app.repository</text><!--MD5=[cd09a31e374d3ba35fd45e1567298dba]
cluster org.springframework.data.jpa.repository--><polygon fill="#FFFFFF" filter="url(#fdl4n3q3rpxb6)" points="1182,6,1470,6,1477,29.6094,1514,29.6094,1514,258,1182,258,1182,6" style="stroke: #000000; stroke-width: 1.5;"/><line style="stroke: #000000; stroke-width: 1.5;" x1="1182" x2="1477" y1="29.6094" y2="29.6094"/><text fill="#000000" font-family="sans-serif" font-size="14" font-weight="bold" lengthAdjust="spacingAndGlyphs" textLength="282" x="1186" y="22.5332">org.springframework.data.jpa.repository</text><!--MD5=[3a8dcee64c21c3516ae7c4e80b2a9388]
class app.repository.AppRepository--><a href="AppRepository.html" target="_top" title="AppRepository.html" xlink:actuate="onRequest" xlink:href="AppRepository.html" xlink:show="new" xlink:title="AppRepository.html" xlink:type="simple"><rect fill="#FEFECE" filter="url(#fdl4n3q3rpxb6)" height="61.8359" id="app.repository.AppRepository" style="stroke: #A80036; stroke-width: 1.5;" width="181" x="2046.5" y="345.5"/><ellipse cx="2092.25" cy="361.5" fill="#B4A7E5" rx="11" ry="11" style="stroke: #A80036; stroke-width: 1.0;"/><path d="M2093.4219,366.2188 L2094.1563,366.2188 L2094.1563,368.3594 L2090.4688,368.3594 L2090.4688,366.2188 L2091.2031,366.2188 L2091.2031,356.875 L2090.4688,356.875 L2090.4688,354.7344 L2094.1563,354.7344 L2094.1563,356.875 L2093.4219,356.875 L2093.4219,366.2188 Z "/><text fill="#000000" font-family="sans-serif" font-size="12" font-style="italic" lengthAdjust="spacingAndGlyphs" textLength="81" x="2112.75" y="366.4102">AppRepository</text><line style="stroke: #A80036; stroke-width: 1.5;" x1="2047.5" x2="2226.5" y1="377.5" y2="377.5"/><line style="stroke: #A80036; stroke-width: 1.5;" x1="2047.5" x2="2226.5" y1="385.5" y2="385.5"/><ellipse cx="2057.5" cy="396.5" fill="#84BE84" rx="3" ry="3" style="stroke: #038048; stroke-width: 1.0;"/><text fill="#000000" font-family="sans-serif" font-size="11" font-style="italic" lengthAdjust="spacingAndGlyphs" textLength="155" x="2066.5" y="400.9189">findFirstByAname(String): Apps</text></a><!--MD5=[306933204c51699aed545a683e67c3c0]
class app.repository.FollowRepository--><a href="FollowRepository.html" target="_top" title="FollowRepository.html" xlink:actuate="onRequest" xlink:href="FollowRepository.html" xlink:show="new" xlink:title="FollowRepository.html" xlink:type="simple"><rect fill="#FEFECE" filter="url(#fdl4n3q3rpxb6)" height="48" id="app.repository.FollowRepository" style="stroke: #A80036; stroke-width: 1.5;" width="126" x="1885" y="352.5"/><ellipse cx="1900" cy="368.5" fill="#B4A7E5" rx="11" ry="11" style="stroke: #A80036; stroke-width: 1.0;"/><path d="M1901.1719,373.2188 L1901.9063,373.2188 L1901.9063,375.3594 L1898.2188,375.3594 L1898.2188,373.2188 L1898.9531,373.2188 L1898.9531,363.875 L1898.2188,363.875 L1898.2188,361.7344 L1901.9063,361.7344 L1901.9063,363.875 L1901.1719,363.875 L1901.1719,373.2188 Z "/><text fill="#000000" font-family="sans-serif" font-size="12" font-style="italic" lengthAdjust="spacingAndGlyphs" textLength="94" x="1914" y="373.4102">FollowRepository</text><line style="stroke: #A80036; stroke-width: 1.5;" x1="1886" x2="2010" y1="384.5" y2="384.5"/><line style="stroke: #A80036; stroke-width: 1.5;" x1="1886" x2="2010" y1="392.5" y2="392.5"/></a><!--MD5=[c5057d37c127649785597a81716d281c]
class app.repository.NortificationRepository--><a href="NortificationRepository.html" target="_top" title="NortificationRepository.html" xlink:actuate="onRequest" xlink:href="NortificationRepository.html" xlink:show="new" xlink:title="NortificationRepository.html" xlink:type="simple"><rect fill="#FEFECE" filter="url(#fdl4n3q3rpxb6)" height="75.6719" id="app.repository.NortificationRepository" style="stroke: #A80036; stroke-width: 1.5;" width="242" x="1608" y="338.5"/><ellipse cx="1662.75" cy="354.5" fill="#B4A7E5" rx="11" ry="11" style="stroke: #A80036; stroke-width: 1.0;"/><path d="M1663.9219,359.2188 L1664.6563,359.2188 L1664.6563,361.3594 L1660.9688,361.3594 L1660.9688,359.2188 L1661.7031,359.2188 L1661.7031,349.875 L1660.9688,349.875 L1660.9688,347.7344 L1664.6563,347.7344 L1664.6563,349.875 L1663.9219,349.875 L1663.9219,359.2188 Z "/><text fill="#000000" font-family="sans-serif" font-size="12" font-style="italic" lengthAdjust="spacingAndGlyphs" textLength="124" x="1683.25" y="359.4102">NortificationRepository</text><line style="stroke: #A80036; stroke-width: 1.5;" x1="1609" x2="1849" y1="370.5" y2="370.5"/><line style="stroke: #A80036; stroke-width: 1.5;" x1="1609" x2="1849" y1="378.5" y2="378.5"/><ellipse cx="1619" cy="389.5" fill="#84BE84" rx="3" ry="3" style="stroke: #038048; stroke-width: 1.0;"/><text fill="#000000" font-family="sans-serif" font-size="11" font-style="italic" lengthAdjust="spacingAndGlyphs" textLength="168" x="1628" y="393.9189">findByUid(int): List&lt;Nortifications&gt;</text><ellipse cx="1619" cy="403.3359" fill="#84BE84" rx="3" ry="3" style="stroke: #038048; stroke-width: 1.0;"/><text fill="#000000" font-family="sans-serif" font-size="11" font-style="italic" lengthAdjust="spacingAndGlyphs" textLength="216" x="1628" y="407.7549">findFirstByNid(int): Optional&lt;Nortifications&gt;</text></a><!--MD5=[f1d4b6f4c772752e0fbd72fc1927f56b]
class app.repository.SettingsRepository--><a href="SettingsRepository.html" target="_top" title="SettingsRepository.html" xlink:actuate="onRequest" xlink:href="SettingsRepository.html" xlink:show="new" xlink:title="SettingsRepository.html" xlink:type="simple"><rect fill="#FEFECE" filter="url(#fdl4n3q3rpxb6)" height="61.8359" id="app.repository.SettingsRepository" style="stroke: #A80036; stroke-width: 1.5;" width="215" x="1357.5" y="345.5"/><ellipse cx="1409.25" cy="361.5" fill="#B4A7E5" rx="11" ry="11" style="stroke: #A80036; stroke-width: 1.0;"/><path d="M1410.4219,366.2188 L1411.1563,366.2188 L1411.1563,368.3594 L1407.4688,368.3594 L1407.4688,366.2188 L1408.2031,366.2188 L1408.2031,356.875 L1407.4688,356.875 L1407.4688,354.7344 L1411.1563,354.7344 L1411.1563,356.875 L1410.4219,356.875 L1410.4219,366.2188 Z "/><text fill="#000000" font-family="sans-serif" font-size="12" font-style="italic" lengthAdjust="spacingAndGlyphs" textLength="103" x="1429.75" y="366.4102">SettingsRepository</text><line style="stroke: #A80036; stroke-width: 1.5;" x1="1358.5" x2="1571.5" y1="377.5" y2="377.5"/><line style="stroke: #A80036; stroke-width: 1.5;" x1="1358.5" x2="1571.5" y1="385.5" y2="385.5"/><ellipse cx="1368.5" cy="396.5" fill="#84BE84" rx="3" ry="3" style="stroke: #038048; stroke-width: 1.0;"/><text fill="#000000" font-family="sans-serif" font-size="11" font-style="italic" lengthAdjust="spacingAndGlyphs" textLength="189" x="1377.5" y="400.9189">findFirstByUid(int): Optional&lt;Settings&gt;</text></a><!--MD5=[f95db56b69a6e45c8d0399b71cdb09da]
class app.repository.TagRepository--><a href="TagRepository.html" target="_top" title="TagRepository.html" xlink:actuate="onRequest" xlink:href="TagRepository.html" xlink:show="new" xlink:title="TagRepository.html" xlink:type="simple"><rect fill="#FEFECE" filter="url(#fdl4n3q3rpxb6)" height="61.8359" id="app.repository.TagRepository" style="stroke: #A80036; stroke-width: 1.5;" width="181" x="1141.5" y="345.5"/><ellipse cx="1187.75" cy="361.5" fill="#B4A7E5" rx="11" ry="11" style="stroke: #A80036; stroke-width: 1.0;"/><path d="M1188.9219,366.2188 L1189.6563,366.2188 L1189.6563,368.3594 L1185.9688,368.3594 L1185.9688,366.2188 L1186.7031,366.2188 L1186.7031,356.875 L1185.9688,356.875 L1185.9688,354.7344 L1189.6563,354.7344 L1189.6563,356.875 L1188.9219,356.875 L1188.9219,366.2188 Z "/><text fill="#000000" font-family="sans-serif" font-size="12" font-style="italic" lengthAdjust="spacingAndGlyphs" textLength="80" x="1208.25" y="366.4102">TagRepository</text><line style="stroke: #A80036; stroke-width: 1.5;" x1="1142.5" x2="1321.5" y1="377.5" y2="377.5"/><line style="stroke: #A80036; stroke-width: 1.5;" x1="1142.5" x2="1321.5" y1="385.5" y2="385.5"/><ellipse cx="1152.5" cy="396.5" fill="#84BE84" rx="3" ry="3" style="stroke: #038048; stroke-width: 1.0;"/><text fill="#000000" font-family="sans-serif" font-size="11" font-style="italic" lengthAdjust="spacingAndGlyphs" textLength="155" x="1161.5" y="400.9189">findFirstByTname(String): Tags</text></a><!--MD5=[ae3502cb88235760185e0cffcf0bf17f]
class app.repository.UserAppRepository--><a href="UserAppRepository.html" target="_top" title="UserAppRepository.html" xlink:actuate="onRequest" xlink:href="UserAppRepository.html" xlink:show="new" xlink:title="UserAppRepository.html" xlink:type="simple"><rect fill="#FEFECE" filter="url(#fdl4n3q3rpxb6)" height="89.5078" id="app.repository.UserAppRepository" style="stroke: #A80036; stroke-width: 1.5;" width="380" x="726" y="331.5"/><ellipse cx="858.25" cy="347.5" fill="#B4A7E5" rx="11" ry="11" style="stroke: #A80036; stroke-width: 1.0;"/><path d="M859.4219,352.2188 L860.1563,352.2188 L860.1563,354.3594 L856.4688,354.3594 L856.4688,352.2188 L857.2031,352.2188 L857.2031,342.875 L856.4688,342.875 L856.4688,340.7344 L860.1563,340.7344 L860.1563,342.875 L859.4219,342.875 L859.4219,352.2188 Z "/><text fill="#000000" font-family="sans-serif" font-size="12" font-style="italic" lengthAdjust="spacingAndGlyphs" textLength="107" x="878.75" y="352.4102">UserAppRepository</text><line style="stroke: #A80036; stroke-width: 1.5;" x1="727" x2="1105" y1="363.5" y2="363.5"/><line style="stroke: #A80036; stroke-width: 1.5;" x1="727" x2="1105" y1="371.5" y2="371.5"/><ellipse cx="737" cy="382.5" fill="#84BE84" rx="3" ry="3" style="stroke: #038048; stroke-width: 1.0;"/><text fill="#000000" font-family="sans-serif" font-size="11" font-style="italic" lengthAdjust="spacingAndGlyphs" textLength="354" x="746" y="386.9189">findFirstByUserAppKeyUidAndUserAppKeyAid(Integer, Integer): UserTag</text><ellipse cx="737" cy="396.3359" fill="#84BE84" rx="3" ry="3" style="stroke: #038048; stroke-width: 1.0;"/><text fill="#000000" font-family="sans-serif" font-size="11" font-style="italic" lengthAdjust="spacingAndGlyphs" textLength="251" x="746" y="400.7549">insertUserAppByUidIsAndAidIs(Integer, Integer): int</text><ellipse cx="737" cy="410.1719" fill="#84BE84" rx="3" ry="3" style="stroke: #038048; stroke-width: 1.0;"/><text fill="#000000" font-family="sans-serif" font-size="11" font-style="italic" lengthAdjust="spacingAndGlyphs" textLength="253" x="746" y="414.5908">deleteUserAppByUidIsAndAidIs(Integer, Integer): int</text></a><!--MD5=[59507d4d5088636adac899c3ba62d478]
class app.repository.UserRepository--><a href="UserRepository.html" target="_top" title="UserRepository.html" xlink:actuate="onRequest" xlink:href="UserRepository.html" xlink:show="new" xlink:title="UserRepository.html" xlink:type="simple"><rect fill="#FEFECE" filter="url(#fdl4n3q3rpxb6)" height="117.1797" id="app.repository.UserRepository" style="stroke: #A80036; stroke-width: 1.5;" width="244" x="447" y="318"/><ellipse cx="522.25" cy="334" fill="#B4A7E5" rx="11" ry="11" style="stroke: #A80036; stroke-width: 1.0;"/><path d="M523.4219,338.7188 L524.1563,338.7188 L524.1563,340.8594 L520.4688,340.8594 L520.4688,338.7188 L521.2031,338.7188 L521.2031,329.375 L520.4688,329.375 L520.4688,327.2344 L524.1563,327.2344 L524.1563,329.375 L523.4219,329.375 L523.4219,338.7188 Z "/><text fill="#000000" font-family="sans-serif" font-size="12" font-style="italic" lengthAdjust="spacingAndGlyphs" textLength="85" x="542.75" y="338.9102">UserRepository</text><line style="stroke: #A80036; stroke-width: 1.5;" x1="448" x2="690" y1="350" y2="350"/><line style="stroke: #A80036; stroke-width: 1.5;" x1="448" x2="690" y1="358" y2="358"/><ellipse cx="458" cy="369" fill="#84BE84" rx="3" ry="3" style="stroke: #038048; stroke-width: 1.0;"/><text fill="#000000" font-family="sans-serif" font-size="11" font-style="italic" lengthAdjust="spacingAndGlyphs" textLength="146" x="467" y="373.4189">findFirstByUid(Integer): Users</text><ellipse cx="458" cy="382.8359" fill="#84BE84" rx="3" ry="3" style="stroke: #038048; stroke-width: 1.0;"/><text fill="#000000" font-family="sans-serif" font-size="11" font-style="italic" lengthAdjust="spacingAndGlyphs" textLength="157" x="467" y="387.2549">findFirstByUserid(String): Users</text><ellipse cx="458" cy="396.6719" fill="#84BE84" rx="3" ry="3" style="stroke: #038048; stroke-width: 1.0;"/><text fill="#000000" font-family="sans-serif" font-size="11" font-style="italic" lengthAdjust="spacingAndGlyphs" textLength="218" x="467" y="401.0908">getFollowCount(Integer): List&lt;List&lt;Integer&gt;&gt;</text><ellipse cx="458" cy="410.5078" fill="#84BE84" rx="3" ry="3" style="stroke: #038048; stroke-width: 1.0;"/><text fill="#000000" font-family="sans-serif" font-size="11" font-style="italic" lengthAdjust="spacingAndGlyphs" textLength="154" x="467" y="414.9268">getFollow(Integer): List&lt;Users&gt;</text><ellipse cx="458" cy="424.3438" fill="#84BE84" rx="3" ry="3" style="stroke: #038048; stroke-width: 1.0;"/><text fill="#000000" font-family="sans-serif" font-size="11" font-style="italic" lengthAdjust="spacingAndGlyphs" textLength="164" x="467" y="428.7627">getFollower(Integer): List&lt;Users&gt;</text></a><!--MD5=[0e261581a1c07328ff33d4feb64aeb47]
class app.repository.UserTagRepository--><a href="UserTagRepository.html" target="_top" title="UserTagRepository.html" xlink:actuate="onRequest" xlink:href="UserTagRepository.html" xlink:show="new" xlink:title="UserTagRepository.html" xlink:type="simple"><rect fill="#FEFECE" filter="url(#fdl4n3q3rpxb6)" height="89.5078" id="app.repository.UserTagRepository" style="stroke: #A80036; stroke-width: 1.5;" width="380" x="32" y="331.5"/><ellipse cx="164.75" cy="347.5" fill="#B4A7E5" rx="11" ry="11" style="stroke: #A80036; stroke-width: 1.0;"/><path d="M165.9219,352.2188 L166.6563,352.2188 L166.6563,354.3594 L162.9688,354.3594 L162.9688,352.2188 L163.7031,352.2188 L163.7031,342.875 L162.9688,342.875 L162.9688,340.7344 L166.6563,340.7344 L166.6563,342.875 L165.9219,342.875 L165.9219,352.2188 Z "/><text fill="#000000" font-family="sans-serif" font-size="12" font-style="italic" lengthAdjust="spacingAndGlyphs" textLength="106" x="185.25" y="352.4102">UserTagRepository</text><line style="stroke: #A80036; stroke-width: 1.5;" x1="33" x2="411" y1="363.5" y2="363.5"/><line style="stroke: #A80036; stroke-width: 1.5;" x1="33" x2="411" y1="371.5" y2="371.5"/><ellipse cx="43" cy="382.5" fill="#84BE84" rx="3" ry="3" style="stroke: #038048; stroke-width: 1.0;"/><text fill="#000000" font-family="sans-serif" font-size="11" font-style="italic" lengthAdjust="spacingAndGlyphs" textLength="354" x="52" y="386.9189">findFirstByUserTagKeyUidAndUserTagKeyTid(Integer, Integer): UserTag</text><ellipse cx="43" cy="396.3359" fill="#84BE84" rx="3" ry="3" style="stroke: #038048; stroke-width: 1.0;"/><text fill="#000000" font-family="sans-serif" font-size="11" font-style="italic" lengthAdjust="spacingAndGlyphs" textLength="251" x="52" y="400.7549">insertUserTagByUidIsAndTidIs(Integer, Integer): int</text><ellipse cx="43" cy="410.1719" fill="#84BE84" rx="3" ry="3" style="stroke: #038048; stroke-width: 1.0;"/><text fill="#000000" font-family="sans-serif" font-size="11" font-style="italic" lengthAdjust="spacingAndGlyphs" textLength="253" x="52" y="414.5908">deleteUserTagByUidIsAndTidIs(Integer, Integer): int</text></a><!--MD5=[9066e956ebe5b62a90d194ed6cf4a894]
class org.springframework.data.jpa.repository.JpaRepository--><rect fill="#FEFECE" filter="url(#fdl4n3q3rpxb6)" height="200.1953" id="org.springframework.data.jpa.repository.JpaRepository" style="stroke: #A80036; stroke-width: 1.5;" width="300" x="1198" y="42"/><ellipse cx="1289.25" cy="58" fill="#B4A7E5" rx="11" ry="11" style="stroke: #A80036; stroke-width: 1.0;"/><path d="M1290.4219,62.7188 L1291.1563,62.7188 L1291.1563,64.8594 L1287.4688,64.8594 L1287.4688,62.7188 L1288.2031,62.7188 L1288.2031,53.375 L1287.4688,53.375 L1287.4688,51.2344 L1291.1563,51.2344 L1291.1563,53.375 L1290.4219,53.375 L1290.4219,62.7188 Z "/><text fill="#000000" font-family="sans-serif" font-size="12" font-style="italic" lengthAdjust="spacingAndGlyphs" textLength="79" x="1309.75" y="62.9102">JpaRepository</text><rect fill="#FFFFFF" height="17.0938" style="stroke: #000000; stroke-width: 1.0; stroke-dasharray: 2.0,2.0;" width="28" x="1473" y="39"/><text fill="#000000" font-family="sans-serif" font-size="12" font-style="italic" lengthAdjust="spacingAndGlyphs" textLength="26" x="1474" y="52.457">T, ID</text><line style="stroke: #A80036; stroke-width: 1.5;" x1="1199" x2="1497" y1="74" y2="74"/><line style="stroke: #A80036; stroke-width: 1.5;" x1="1199" x2="1497" y1="82" y2="82"/><ellipse cx="1209" cy="93" fill="#84BE84" rx="3" ry="3" style="stroke: #038048; stroke-width: 1.0;"/><text fill="#000000" font-family="sans-serif" font-size="11" font-style="italic" lengthAdjust="spacingAndGlyphs" textLength="82" x="1218" y="97.4189">findAll(): List&lt;T&gt;</text><ellipse cx="1209" cy="106.8359" fill="#84BE84" rx="3" ry="3" style="stroke: #038048; stroke-width: 1.0;"/><text fill="#000000" font-family="sans-serif" font-size="11" font-style="italic" lengthAdjust="spacingAndGlyphs" textLength="102" x="1218" y="111.2549">findAll(Sort): List&lt;T&gt;</text><ellipse cx="1209" cy="120.6719" fill="#84BE84" rx="3" ry="3" style="stroke: #038048; stroke-width: 1.0;"/><text fill="#000000" font-family="sans-serif" font-size="11" font-style="italic" lengthAdjust="spacingAndGlyphs" textLength="164" x="1218" y="125.0908">findAllById(Iterable&lt;ID&gt;): List&lt;T&gt;</text><ellipse cx="1209" cy="134.5078" fill="#84BE84" rx="3" ry="3" style="stroke: #038048; stroke-width: 1.0;"/><text fill="#000000" font-family="sans-serif" font-size="11" font-style="italic" lengthAdjust="spacingAndGlyphs" textLength="248" x="1218" y="138.9268">saveAll(Iterable&lt;S extends T&gt;): List&lt;S extends T&gt;</text><ellipse cx="1209" cy="148.3438" fill="#84BE84" rx="3" ry="3" style="stroke: #038048; stroke-width: 1.0;"/><text fill="#000000" font-family="sans-serif" font-size="11" font-style="italic" lengthAdjust="spacingAndGlyphs" textLength="58" x="1218" y="152.7627">flush(): void</text><ellipse cx="1209" cy="162.1797" fill="#84BE84" rx="3" ry="3" style="stroke: #038048; stroke-width: 1.0;"/><text fill="#000000" font-family="sans-serif" font-size="11" font-style="italic" lengthAdjust="spacingAndGlyphs" textLength="202" x="1218" y="166.5986">saveAndFlush(S extends T): S extends T</text><ellipse cx="1209" cy="176.0156" fill="#84BE84" rx="3" ry="3" style="stroke: #038048; stroke-width: 1.0;"/><text fill="#000000" font-family="sans-serif" font-size="11" font-style="italic" lengthAdjust="spacingAndGlyphs" textLength="158" x="1218" y="180.4346">deleteInBatch(Iterable&lt;T&gt;): void</text><ellipse cx="1209" cy="189.8516" fill="#84BE84" rx="3" ry="3" style="stroke: #038048; stroke-width: 1.0;"/><text fill="#000000" font-family="sans-serif" font-size="11" font-style="italic" lengthAdjust="spacingAndGlyphs" textLength="114" x="1218" y="194.2705">deleteAllInBatch(): void</text><ellipse cx="1209" cy="203.6875" fill="#84BE84" rx="3" ry="3" style="stroke: #038048; stroke-width: 1.0;"/><text fill="#000000" font-family="sans-serif" font-size="11" font-style="italic" lengthAdjust="spacingAndGlyphs" textLength="68" x="1218" y="208.1064">getOne(ID): T</text><ellipse cx="1209" cy="217.5234" fill="#84BE84" rx="3" ry="3" style="stroke: #038048; stroke-width: 1.0;"/><text fill="#000000" font-family="sans-serif" font-size="11" font-style="italic" lengthAdjust="spacingAndGlyphs" textLength="248" x="1218" y="221.9424">findAll(Example&lt;S extends T&gt;): List&lt;S extends T&gt;</text><ellipse cx="1209" cy="231.3594" fill="#84BE84" rx="3" ry="3" style="stroke: #038048; stroke-width: 1.0;"/><text fill="#000000" font-family="sans-serif" font-size="11" font-style="italic" lengthAdjust="spacingAndGlyphs" textLength="274" x="1218" y="235.7783">findAll(Example&lt;S extends T&gt;, Sort): List&lt;S extends T&gt;</text><!--MD5=[db5a7fe341ae70030ab0137c91d42f1e]
reverse link org.springframework.data.jpa.repository.JpaRepository to app.repository.AppRepository--><path d="M1518.42,149.494 C1661.59,160.936 1868.01,191.772 2029,274 C2062.69,291.205 2093.3,322.118 2113.26,345.324 " fill="none" id="org.springframework.data.jpa.repository.JpaRepository&lt;-app.repository.AppRepository" style="stroke: #A80036; stroke-width: 1.0;"/><polygon fill="none" points="1517.63,156.454,1498.21,147.974,1518.68,142.494,1517.63,156.454" style="stroke: #A80036; stroke-width: 1.0;"/><!--MD5=[cce60c0276ed4eb0b0ef021c920ee8bc]
reverse link org.springframework.data.jpa.repository.JpaRepository to app.repository.FollowRepository--><path d="M1518.1,157.624 C1625.48,173.376 1763.21,206.085 1868,274 C1898.5,293.769 1922.44,329.163 1935.9,352.491 " fill="none" id="org.springframework.data.jpa.repository.JpaRepository&lt;-app.repository.FollowRepository" style="stroke: #A80036; stroke-width: 1.0;"/><polygon fill="none" points="1516.91,164.527,1498.07,154.83,1518.85,150.661,1516.91,164.527" style="stroke: #A80036; stroke-width: 1.0;"/><!--MD5=[d541839d19c8782e51b681b26fdd5ab4]
reverse link org.springframework.data.jpa.repository.JpaRepository to app.repository.NortificationRepository--><path d="M1516.04,230.156 C1541.15,244.271 1566.49,259.145 1590,274 C1621.45,293.869 1655.19,318.419 1681.55,338.397 " fill="none" id="org.springframework.data.jpa.repository.JpaRepository&lt;-app.repository.NortificationRepository" style="stroke: #A80036; stroke-width: 1.0;"/><polygon fill="none" points="1512.34,236.111,1498.27,220.269,1519.15,223.877,1512.34,236.111" style="stroke: #A80036; stroke-width: 1.0;"/><!--MD5=[4463be03521c840a58680294d1300540]
reverse link org.springframework.data.jpa.repository.JpaRepository to app.repository.SettingsRepository--><path d="M1407.03,260.303 C1422.93,291.907 1438.79,323.408 1449.88,345.46 " fill="none" id="org.springframework.data.jpa.repository.JpaRepository&lt;-app.repository.SettingsRepository" style="stroke: #A80036; stroke-width: 1.0;"/><polygon fill="none" points="1400.7,263.287,1397.96,242.275,1413.2,256.994,1400.7,263.287" style="stroke: #A80036; stroke-width: 1.0;"/><!--MD5=[2ee69c8ce9501ca7f1fad07df95db754]
reverse link org.springframework.data.jpa.repository.JpaRepository to app.repository.TagRepository--><path d="M1289.47,260.303 C1273.71,291.907 1257.99,323.408 1246.99,345.46 " fill="none" id="org.springframework.data.jpa.repository.JpaRepository&lt;-app.repository.TagRepository" style="stroke: #A80036; stroke-width: 1.0;"/><polygon fill="none" points="1283.28,257.046,1298.47,242.275,1295.8,263.297,1283.28,257.046" style="stroke: #A80036; stroke-width: 1.0;"/><!--MD5=[6d16fab5e3ddc8af5630c5a39b3b3418]
reverse link org.springframework.data.jpa.repository.JpaRepository to app.repository.UserAppRepository--><path d="M1179.92,233.457 C1117.42,267.099 1049.27,303.775 997.882,331.432 " fill="none" id="org.springframework.data.jpa.repository.JpaRepository&lt;-app.repository.UserAppRepository" style="stroke: #A80036; stroke-width: 1.0;"/><polygon fill="none" points="1176.89,227.142,1197.82,223.828,1183.52,239.47,1176.89,227.142" style="stroke: #A80036; stroke-width: 1.0;"/><!--MD5=[7c6686ed6b60cd4d8048fe08fbfb530f]
reverse link org.springframework.data.jpa.repository.JpaRepository to app.repository.UserRepository--><path d="M1177.98,158.029 C1045.68,174.35 859.831,207.589 709,274 C683.585,285.19 658.258,301.545 636.274,317.872 " fill="none" id="org.springframework.data.jpa.repository.JpaRepository&lt;-app.repository.UserRepository" style="stroke: #A80036; stroke-width: 1.0;"/><polygon fill="none" points="1177.23,151.069,1197.92,155.647,1178.89,164.97,1177.23,151.069" style="stroke: #A80036; stroke-width: 1.0;"/><!--MD5=[98690cf00d06c4389131f3ef667485f0]
reverse link org.springframework.data.jpa.repository.JpaRepository to app.repository.UserTagRepository--><path d="M1177.59,151.417 C990.633,164.287 683.418,196.201 430,274 C384.29,288.033 336.131,310.952 297.678,331.463 " fill="none" id="org.springframework.data.jpa.repository.JpaRepository&lt;-app.repository.UserTagRepository" style="stroke: #A80036; stroke-width: 1.0;"/><polygon fill="none" points="1177.4,144.415,1197.82,150.067,1178.33,158.384,1177.4,144.415" style="stroke: #A80036; stroke-width: 1.0;"/><text fill="#888888" font-family="sans-serif" font-size="10" lengthAdjust="spacingAndGlyphs" textLength="190" x="1029" y="467.3809">UMLDoclet 2.0.11, PlantUML 1.2020.15</text><!--MD5=[58923d4f0f994f77382b50e6e2018060]
@startuml
    namespace app.repository {

        interface AppRepository [[AppRepository.html]] {
            {abstract} +findFirstByAname(String): Apps
        }

        interface FollowRepository [[FollowRepository.html]]

        interface NortificationRepository [[NortificationRepository.html]] {
            {abstract} +findByUid(int): List<Nortifications>
            {abstract} +findFirstByNid(int): Optional<Nortifications>
        }

        interface SettingsRepository [[SettingsRepository.html]] {
            {abstract} +findFirstByUid(int): Optional<Settings>
        }

        interface TagRepository [[TagRepository.html]] {
            {abstract} +findFirstByTname(String): Tags
        }

        interface UserAppRepository [[UserAppRepository.html]] {
            {abstract} +findFirstByUserAppKeyUidAndUserAppKeyAid(Integer, Integer): UserTag
            {abstract} +insertUserAppByUidIsAndAidIs(Integer, Integer): int
            {abstract} +deleteUserAppByUidIsAndAidIs(Integer, Integer): int
        }

        interface UserRepository [[UserRepository.html]] {
            {abstract} +findFirstByUid(Integer): Users
            {abstract} +findFirstByUserid(String): Users
            {abstract} +getFollowCount(Integer): List<List<Integer>>
            {abstract} +getFollow(Integer): List<Users>
            {abstract} +getFollower(Integer): List<Users>
        }

        interface UserTagRepository [[UserTagRepository.html]] {
            {abstract} +findFirstByUserTagKeyUidAndUserTagKeyTid(Integer, Integer): UserTag
            {abstract} +insertUserTagByUidIsAndTidIs(Integer, Integer): int
            {abstract} +deleteUserTagByUidIsAndTidIs(Integer, Integer): int
        }

        org.springframework.data.jpa.repository.JpaRepository <|- - AppRepository
        org.springframework.data.jpa.repository.JpaRepository <|- - FollowRepository
        org.springframework.data.jpa.repository.JpaRepository <|- - NortificationRepository
        org.springframework.data.jpa.repository.JpaRepository <|- - SettingsRepository
        org.springframework.data.jpa.repository.JpaRepository <|- - TagRepository
        org.springframework.data.jpa.repository.JpaRepository <|- - UserAppRepository
        org.springframework.data.jpa.repository.JpaRepository <|- - UserRepository
        org.springframework.data.jpa.repository.JpaRepository <|- - UserTagRepository
    }

    namespace org.springframework.data.jpa.repository {
        interface JpaRepository<T, ID> {
            {abstract} +findAll(): List<T>
            {abstract} +findAll(Sort): List<T>
            {abstract} +findAllById(Iterable<ID>): List<T>
            {abstract} +saveAll(Iterable<S extends T>): List<S extends T>
            {abstract} +flush(): void
            {abstract} +saveAndFlush(S extends T): S extends T
            {abstract} +deleteInBatch(Iterable<T>): void
            {abstract} +deleteAllInBatch(): void
            {abstract} +getOne(ID): T
            {abstract} +findAll(Example<S extends T>): List<S extends T>
            {abstract} +findAll(Example<S extends T>, Sort): List<S extends T>
        }
    }

    center footer UMLDoclet 2.0.11, PlantUML 1.2020.15
@enduml

PlantUML version 1.2020.15(Sun Jun 28 20:39:45 JST 2020)
(APACHE source distribution)
Java Runtime: OpenJDK Runtime Environment
JVM: OpenJDK 64-Bit Server VM
Default Encoding: MS932
Language: ja
Country: JP
--></g></svg>