<?xml version="1.0" encoding="UTF-8" standalone="no"?><svg xmlns="http://www.w3.org/2000/svg" xmlns:xlink="http://www.w3.org/1999/xlink" contentScriptType="application/ecmascript" contentStyleType="text/css" height="558px" preserveAspectRatio="none" style="width:642px;height:558px;" version="1.1" viewBox="0 0 642 558" width="642px" zoomAndPan="magnify"><defs><filter height="300%" id="fs790yqqm9u4j" width="300%" x="-1" y="-1"><feGaussianBlur result="blurOut" stdDeviation="2.0"/><feColorMatrix in="blurOut" result="blurOut2" type="matrix" values="0 0 0 0 0 0 0 0 0 0 0 0 0 0 0 0 0 0 .4 0"/><feOffset dx="4.0" dy="4.0" in="blurOut2" result="blurOut3"/><feBlend in="SourceGraphic" in2="blurOut3" mode="normal"/></filter></defs><g><!--MD5=[b5db6588d22d4cf3809d93cc306a3083]
cluster app.model--><polygon fill="#FFFFFF" filter="url(#fs790yqqm9u4j)" points="16,130,95,130,102,153.6094,620,153.6094,620,529,16,529,16,130" style="stroke: #000000; stroke-width: 1.5;"/><line style="stroke: #000000; stroke-width: 1.5;" x1="16" x2="102" y1="153.6094" y2="153.6094"/><text fill="#000000" font-family="sans-serif" font-size="14" font-weight="bold" lengthAdjust="spacingAndGlyphs" textLength="73" x="20" y="146.5332">app.model</text><!--MD5=[0d852700fdad35b7061d461d6907a324]
cluster java.io--><polygon fill="#FFFFFF" filter="url(#fs790yqqm9u4j)" points="50,6,102,6,109,29.6094,182,29.6094,182,106,50,106,50,6" style="stroke: #000000; stroke-width: 1.5;"/><line style="stroke: #000000; stroke-width: 1.5;" x1="50" x2="109" y1="29.6094" y2="29.6094"/><text fill="#000000" font-family="sans-serif" font-size="14" font-weight="bold" lengthAdjust="spacingAndGlyphs" textLength="46" x="54" y="22.5332">java.io</text><!--MD5=[50fb476846a166515f9b09e58d646a2d]
class app.model.Apps--><a href="Apps.html" target="_top" title="Apps.html" xlink:actuate="onRequest" xlink:href="Apps.html" xlink:show="new" xlink:title="Apps.html" xlink:type="simple"><rect fill="#FEFECE" filter="url(#fs790yqqm9u4j)" height="48" id="app.model.Apps" style="stroke: #A80036; stroke-width: 1.5;" width="60" x="302" y="166"/><ellipse cx="317" cy="182" fill="#ADD1B2" rx="11" ry="11" style="stroke: #A80036; stroke-width: 1.0;"/><path d="M320.6875,183.2031 Q320.4375,186.6875 319.2969,187.8438 Q318.2656,188.8594 316.8594,188.8594 Q315.4531,188.8594 314.4219,187.8438 Q312.6719,186.0781 312.6719,182.4063 Q312.6719,178.1563 314.5469,176.25 Q315.5938,175.2344 316.9219,175.2344 Q318.3281,175.2344 319.1719,176.0469 Q320.6563,177.5625 320.5781,180.4375 L318.4531,180.4375 Q318.375,178.1094 317.7344,177.4688 Q317.4531,177.1719 316.9219,177.1719 Q316.4688,177.1719 316.1094,177.5469 Q314.875,178.7656 314.875,182.2813 Q314.875,185.3281 315.9219,186.3438 Q316.3438,186.7813 316.8594,186.7813 Q317.3125,186.7813 317.75,186.3438 Q318.3125,185.7969 318.3906,183.2031 L320.6875,183.2031 Z "/><text fill="#000000" font-family="sans-serif" font-size="12" lengthAdjust="spacingAndGlyphs" textLength="28" x="331" y="186.9102">Apps</text><line style="stroke: #A80036; stroke-width: 1.5;" x1="303" x2="361" y1="198" y2="198"/><line style="stroke: #A80036; stroke-width: 1.5;" x1="303" x2="361" y1="206" y2="206"/></a><!--MD5=[40f5e85b21722778958354049df66feb]
class app.model.Follow--><a href="Follow.html" target="_top" title="Follow.html" xlink:actuate="onRequest" xlink:href="Follow.html" xlink:show="new" xlink:title="Follow.html" xlink:type="simple"><rect fill="#FEFECE" filter="url(#fs790yqqm9u4j)" height="48" id="app.model.Follow" style="stroke: #A80036; stroke-width: 1.5;" width="68" x="397" y="166"/><ellipse cx="412" cy="182" fill="#ADD1B2" rx="11" ry="11" style="stroke: #A80036; stroke-width: 1.0;"/><path d="M415.6875,183.2031 Q415.4375,186.6875 414.2969,187.8438 Q413.2656,188.8594 411.8594,188.8594 Q410.4531,188.8594 409.4219,187.8438 Q407.6719,186.0781 407.6719,182.4063 Q407.6719,178.1563 409.5469,176.25 Q410.5938,175.2344 411.9219,175.2344 Q413.3281,175.2344 414.1719,176.0469 Q415.6563,177.5625 415.5781,180.4375 L413.4531,180.4375 Q413.375,178.1094 412.7344,177.4688 Q412.4531,177.1719 411.9219,177.1719 Q411.4688,177.1719 411.1094,177.5469 Q409.875,178.7656 409.875,182.2813 Q409.875,185.3281 410.9219,186.3438 Q411.3438,186.7813 411.8594,186.7813 Q412.3125,186.7813 412.75,186.3438 Q413.3125,185.7969 413.3906,183.2031 L415.6875,183.2031 Z "/><text fill="#000000" font-family="sans-serif" font-size="12" lengthAdjust="spacingAndGlyphs" textLength="36" x="426" y="186.9102">Follow</text><line style="stroke: #A80036; stroke-width: 1.5;" x1="398" x2="464" y1="198" y2="198"/><line style="stroke: #A80036; stroke-width: 1.5;" x1="398" x2="464" y1="206" y2="206"/></a><!--MD5=[7d84d8d93250c40dc159d4c581ed742a]
class app.model.Nortifications--><a href="Nortifications.html" target="_top" title="Nortifications.html" xlink:actuate="onRequest" xlink:href="Nortifications.html" xlink:show="new" xlink:title="Nortifications.html" xlink:type="simple"><rect fill="#FEFECE" filter="url(#fs790yqqm9u4j)" height="48" id="app.model.Nortifications" style="stroke: #A80036; stroke-width: 1.5;" width="104" x="500" y="166"/><ellipse cx="515" cy="182" fill="#ADD1B2" rx="11" ry="11" style="stroke: #A80036; stroke-width: 1.0;"/><path d="M518.6875,183.2031 Q518.4375,186.6875 517.2969,187.8438 Q516.2656,188.8594 514.8594,188.8594 Q513.4531,188.8594 512.4219,187.8438 Q510.6719,186.0781 510.6719,182.4063 Q510.6719,178.1563 512.5469,176.25 Q513.5938,175.2344 514.9219,175.2344 Q516.3281,175.2344 517.1719,176.0469 Q518.6563,177.5625 518.5781,180.4375 L516.4531,180.4375 Q516.375,178.1094 515.7344,177.4688 Q515.4531,177.1719 514.9219,177.1719 Q514.4688,177.1719 514.1094,177.5469 Q512.875,178.7656 512.875,182.2813 Q512.875,185.3281 513.9219,186.3438 Q514.3438,186.7813 514.8594,186.7813 Q515.3125,186.7813 515.75,186.3438 Q516.3125,185.7969 516.3906,183.2031 L518.6875,183.2031 Z "/><text fill="#000000" font-family="sans-serif" font-size="12" lengthAdjust="spacingAndGlyphs" textLength="72" x="529" y="186.9102">Nortifications</text><line style="stroke: #A80036; stroke-width: 1.5;" x1="501" x2="603" y1="198" y2="198"/><line style="stroke: #A80036; stroke-width: 1.5;" x1="501" x2="603" y1="206" y2="206"/></a><!--MD5=[d6c70cbfd74c57e90f2c2f6e3e933804]
class app.model.Response--><a href="Response.html" target="_top" title="Response.html" xlink:actuate="onRequest" xlink:href="Response.html" xlink:show="new" xlink:title="Response.html" xlink:type="simple"><rect fill="#FEFECE" filter="url(#fs790yqqm9u4j)" height="48" id="app.model.Response" style="stroke: #A80036; stroke-width: 1.5;" width="90" x="240" y="281"/><ellipse cx="255" cy="297" fill="#ADD1B2" rx="11" ry="11" style="stroke: #A80036; stroke-width: 1.0;"/><path d="M258.6875,298.2031 Q258.4375,301.6875 257.2969,302.8438 Q256.2656,303.8594 254.8594,303.8594 Q253.4531,303.8594 252.4219,302.8438 Q250.6719,301.0781 250.6719,297.4063 Q250.6719,293.1563 252.5469,291.25 Q253.5938,290.2344 254.9219,290.2344 Q256.3281,290.2344 257.1719,291.0469 Q258.6563,292.5625 258.5781,295.4375 L256.4531,295.4375 Q256.375,293.1094 255.7344,292.4688 Q255.4531,292.1719 254.9219,292.1719 Q254.4688,292.1719 254.1094,292.5469 Q252.875,293.7656 252.875,297.2813 Q252.875,300.3281 253.9219,301.3438 Q254.3438,301.7813 254.8594,301.7813 Q255.3125,301.7813 255.75,301.3438 Q256.3125,300.7969 256.3906,298.2031 L258.6875,298.2031 Z "/><text fill="#000000" font-family="sans-serif" font-size="12" lengthAdjust="spacingAndGlyphs" textLength="58" x="269" y="301.9102">Response</text><line style="stroke: #A80036; stroke-width: 1.5;" x1="241" x2="329" y1="313" y2="313"/><line style="stroke: #A80036; stroke-width: 1.5;" x1="241" x2="329" y1="321" y2="321"/></a><!--MD5=[043b31fe1fb5975cab73af64adbbfed3]
class app.model.Settings--><a href="Settings.html" target="_top" title="Settings.html" xlink:actuate="onRequest" xlink:href="Settings.html" xlink:show="new" xlink:title="Settings.html" xlink:type="simple"><rect fill="#FEFECE" filter="url(#fs790yqqm9u4j)" height="48" id="app.model.Settings" style="stroke: #A80036; stroke-width: 1.5;" width="77" x="365.5" y="281"/><ellipse cx="380.5" cy="297" fill="#ADD1B2" rx="11" ry="11" style="stroke: #A80036; stroke-width: 1.0;"/><path d="M384.1875,298.2031 Q383.9375,301.6875 382.7969,302.8438 Q381.7656,303.8594 380.3594,303.8594 Q378.9531,303.8594 377.9219,302.8438 Q376.1719,301.0781 376.1719,297.4063 Q376.1719,293.1563 378.0469,291.25 Q379.0938,290.2344 380.4219,290.2344 Q381.8281,290.2344 382.6719,291.0469 Q384.1563,292.5625 384.0781,295.4375 L381.9531,295.4375 Q381.875,293.1094 381.2344,292.4688 Q380.9531,292.1719 380.4219,292.1719 Q379.9688,292.1719 379.6094,292.5469 Q378.375,293.7656 378.375,297.2813 Q378.375,300.3281 379.4219,301.3438 Q379.8438,301.7813 380.3594,301.7813 Q380.8125,301.7813 381.25,301.3438 Q381.8125,300.7969 381.8906,298.2031 L384.1875,298.2031 Z "/><text fill="#000000" font-family="sans-serif" font-size="12" lengthAdjust="spacingAndGlyphs" textLength="45" x="394.5" y="301.9102">Settings</text><line style="stroke: #A80036; stroke-width: 1.5;" x1="366.5" x2="441.5" y1="313" y2="313"/><line style="stroke: #A80036; stroke-width: 1.5;" x1="366.5" x2="441.5" y1="321" y2="321"/></a><!--MD5=[bf9780d2018fec33646dac939ee4d1b7]
class app.model.Tags--><a href="Tags.html" target="_top" title="Tags.html" xlink:actuate="onRequest" xlink:href="Tags.html" xlink:show="new" xlink:title="Tags.html" xlink:type="simple"><rect fill="#FEFECE" filter="url(#fs790yqqm9u4j)" height="61.8359" id="app.model.Tags" style="stroke: #A80036; stroke-width: 1.5;" width="86" x="478" y="274"/><ellipse cx="504.7" cy="290" fill="#ADD1B2" rx="11" ry="11" style="stroke: #A80036; stroke-width: 1.0;"/><path d="M508.3875,291.2031 Q508.1375,294.6875 506.9969,295.8438 Q505.9656,296.8594 504.5594,296.8594 Q503.1531,296.8594 502.1219,295.8438 Q500.3719,294.0781 500.3719,290.4063 Q500.3719,286.1563 502.2469,284.25 Q503.2938,283.2344 504.6219,283.2344 Q506.0281,283.2344 506.8719,284.0469 Q508.3563,285.5625 508.2781,288.4375 L506.1531,288.4375 Q506.075,286.1094 505.4344,285.4688 Q505.1531,285.1719 504.6219,285.1719 Q504.1688,285.1719 503.8094,285.5469 Q502.575,286.7656 502.575,290.2813 Q502.575,293.3281 503.6219,294.3438 Q504.0438,294.7813 504.5594,294.7813 Q505.0125,294.7813 505.45,294.3438 Q506.0125,293.7969 506.0906,291.2031 L508.3875,291.2031 Z "/><text fill="#000000" font-family="sans-serif" font-size="12" lengthAdjust="spacingAndGlyphs" textLength="28" x="521.3" y="294.9102">Tags</text><line style="stroke: #A80036; stroke-width: 1.5;" x1="479" x2="563" y1="306" y2="306"/><line style="stroke: #A80036; stroke-width: 1.5;" x1="479" x2="563" y1="314" y2="314"/><ellipse cx="489" cy="325" fill="#84BE84" rx="3" ry="3" style="stroke: #038048; stroke-width: 1.0;"/><text fill="#000000" font-family="sans-serif" font-size="11" lengthAdjust="spacingAndGlyphs" textLength="60" x="498" y="329.4189">Tags(String)</text></a><!--MD5=[acc4f91fef787ecc44ed3ed6cea7a6e1]
class app.model.UserApp--><a href="UserApp.html" target="_top" title="UserApp.html" xlink:actuate="onRequest" xlink:href="UserApp.html" xlink:show="new" xlink:title="UserApp.html" xlink:type="simple"><rect fill="#FEFECE" filter="url(#fs790yqqm9u4j)" height="117.1797" id="app.model.UserApp" style="stroke: #A80036; stroke-width: 1.5;" width="149" x="170.5" y="396"/><ellipse cx="216.75" cy="412" fill="#ADD1B2" rx="11" ry="11" style="stroke: #A80036; stroke-width: 1.0;"/><path d="M220.4375,413.2031 Q220.1875,416.6875 219.0469,417.8438 Q218.0156,418.8594 216.6094,418.8594 Q215.2031,418.8594 214.1719,417.8438 Q212.4219,416.0781 212.4219,412.4063 Q212.4219,408.1563 214.2969,406.25 Q215.3438,405.2344 216.6719,405.2344 Q218.0781,405.2344 218.9219,406.0469 Q220.4063,407.5625 220.3281,410.4375 L218.2031,410.4375 Q218.125,408.1094 217.4844,407.4688 Q217.2031,407.1719 216.6719,407.1719 Q216.2188,407.1719 215.8594,407.5469 Q214.625,408.7656 214.625,412.2813 Q214.625,415.3281 215.6719,416.3438 Q216.0938,416.7813 216.6094,416.7813 Q217.0625,416.7813 217.5,416.3438 Q218.0625,415.7969 218.1406,413.2031 L220.4375,413.2031 Z "/><text fill="#000000" font-family="sans-serif" font-size="12" lengthAdjust="spacingAndGlyphs" textLength="48" x="237.25" y="416.9102">UserApp</text><line style="stroke: #A80036; stroke-width: 1.5;" x1="171.5" x2="318.5" y1="428" y2="428"/><line style="stroke: #A80036; stroke-width: 1.5;" x1="171.5" x2="318.5" y1="436" y2="436"/><ellipse cx="181.5" cy="447" fill="#84BE84" rx="3" ry="3" style="stroke: #038048; stroke-width: 1.0;"/><text fill="#000000" font-family="sans-serif" font-size="11" lengthAdjust="spacingAndGlyphs" textLength="123" x="190.5" y="451.4189">UserApp(Integer, Integer)</text><ellipse cx="181.5" cy="460.8359" fill="#84BE84" rx="3" ry="3" style="stroke: #038048; stroke-width: 1.0;"/><text fill="#000000" font-family="sans-serif" font-size="11" lengthAdjust="spacingAndGlyphs" textLength="77" x="190.5" y="465.2549">getUid(): Integer</text><ellipse cx="181.5" cy="474.6719" fill="#84BE84" rx="3" ry="3" style="stroke: #038048; stroke-width: 1.0;"/><text fill="#000000" font-family="sans-serif" font-size="11" lengthAdjust="spacingAndGlyphs" textLength="78" x="190.5" y="479.0908">getAid(): Integer</text><ellipse cx="181.5" cy="488.5078" fill="#84BE84" rx="3" ry="3" style="stroke: #038048; stroke-width: 1.0;"/><text fill="#000000" font-family="sans-serif" font-size="11" lengthAdjust="spacingAndGlyphs" textLength="97" x="190.5" y="492.9268">setUid(Integer): void</text><ellipse cx="181.5" cy="502.3438" fill="#84BE84" rx="3" ry="3" style="stroke: #038048; stroke-width: 1.0;"/><text fill="#000000" font-family="sans-serif" font-size="11" lengthAdjust="spacingAndGlyphs" textLength="98" x="190.5" y="506.7627">setAid(Integer): void</text></a><!--MD5=[73eb6d890031b73fbcea75c3ab090968]
class app.model.UserAppKey--><a href="UserAppKey.html" target="_top" title="UserAppKey.html" xlink:actuate="onRequest" xlink:href="UserAppKey.html" xlink:show="new" xlink:title="UserAppKey.html" xlink:type="simple"><rect fill="#FEFECE" filter="url(#fs790yqqm9u4j)" height="48" id="app.model.UserAppKey" style="stroke: #A80036; stroke-width: 1.5;" width="100" x="167" y="166"/><ellipse cx="182" cy="182" fill="#ADD1B2" rx="11" ry="11" style="stroke: #A80036; stroke-width: 1.0;"/><path d="M185.6875,183.2031 Q185.4375,186.6875 184.2969,187.8438 Q183.2656,188.8594 181.8594,188.8594 Q180.4531,188.8594 179.4219,187.8438 Q177.6719,186.0781 177.6719,182.4063 Q177.6719,178.1563 179.5469,176.25 Q180.5938,175.2344 181.9219,175.2344 Q183.3281,175.2344 184.1719,176.0469 Q185.6563,177.5625 185.5781,180.4375 L183.4531,180.4375 Q183.375,178.1094 182.7344,177.4688 Q182.4531,177.1719 181.9219,177.1719 Q181.4688,177.1719 181.1094,177.5469 Q179.875,178.7656 179.875,182.2813 Q179.875,185.3281 180.9219,186.3438 Q181.3438,186.7813 181.8594,186.7813 Q182.3125,186.7813 182.75,186.3438 Q183.3125,185.7969 183.3906,183.2031 L185.6875,183.2031 Z "/><text fill="#000000" font-family="sans-serif" font-size="12" lengthAdjust="spacingAndGlyphs" textLength="68" x="196" y="186.9102">UserAppKey</text><line style="stroke: #A80036; stroke-width: 1.5;" x1="168" x2="266" y1="198" y2="198"/><line style="stroke: #A80036; stroke-width: 1.5;" x1="168" x2="266" y1="206" y2="206"/></a><!--MD5=[208ec323a50a1bcda4f020fca6310762]
class app.model.Users--><a href="Users.html" target="_top" title="Users.html" xlink:actuate="onRequest" xlink:href="Users.html" xlink:show="new" xlink:title="Users.html" xlink:type="simple"><rect fill="#FEFECE" filter="url(#fs790yqqm9u4j)" height="48" id="app.model.Users" style="stroke: #A80036; stroke-width: 1.5;" width="66" x="355" y="430.5"/><ellipse cx="370" cy="446.5" fill="#ADD1B2" rx="11" ry="11" style="stroke: #A80036; stroke-width: 1.0;"/><path d="M373.6875,447.7031 Q373.4375,451.1875 372.2969,452.3438 Q371.2656,453.3594 369.8594,453.3594 Q368.4531,453.3594 367.4219,452.3438 Q365.6719,450.5781 365.6719,446.9063 Q365.6719,442.6563 367.5469,440.75 Q368.5938,439.7344 369.9219,439.7344 Q371.3281,439.7344 372.1719,440.5469 Q373.6563,442.0625 373.5781,444.9375 L371.4531,444.9375 Q371.375,442.6094 370.7344,441.9688 Q370.4531,441.6719 369.9219,441.6719 Q369.4688,441.6719 369.1094,442.0469 Q367.875,443.2656 367.875,446.7813 Q367.875,449.8281 368.9219,450.8438 Q369.3438,451.2813 369.8594,451.2813 Q370.3125,451.2813 370.75,450.8438 Q371.3125,450.2969 371.3906,447.7031 L373.6875,447.7031 Z "/><text fill="#000000" font-family="sans-serif" font-size="12" lengthAdjust="spacingAndGlyphs" textLength="34" x="384" y="451.4102">Users</text><line style="stroke: #A80036; stroke-width: 1.5;" x1="356" x2="420" y1="462.5" y2="462.5"/><line style="stroke: #A80036; stroke-width: 1.5;" x1="356" x2="420" y1="470.5" y2="470.5"/></a><!--MD5=[52830bc59342317c66073c50fe2e64e9]
class app.model.UserTag--><a href="UserTag.html" target="_top" title="UserTag.html" xlink:actuate="onRequest" xlink:href="UserTag.html" xlink:show="new" xlink:title="UserTag.html" xlink:type="simple"><rect fill="#FEFECE" filter="url(#fs790yqqm9u4j)" height="117.1797" id="app.model.UserTag" style="stroke: #A80036; stroke-width: 1.5;" width="147" x="456.5" y="396"/><ellipse cx="501.75" cy="412" fill="#ADD1B2" rx="11" ry="11" style="stroke: #A80036; stroke-width: 1.0;"/><path d="M505.4375,413.2031 Q505.1875,416.6875 504.0469,417.8438 Q503.0156,418.8594 501.6094,418.8594 Q500.2031,418.8594 499.1719,417.8438 Q497.4219,416.0781 497.4219,412.4063 Q497.4219,408.1563 499.2969,406.25 Q500.3438,405.2344 501.6719,405.2344 Q503.0781,405.2344 503.9219,406.0469 Q505.4063,407.5625 505.3281,410.4375 L503.2031,410.4375 Q503.125,408.1094 502.4844,407.4688 Q502.2031,407.1719 501.6719,407.1719 Q501.2188,407.1719 500.8594,407.5469 Q499.625,408.7656 499.625,412.2813 Q499.625,415.3281 500.6719,416.3438 Q501.0938,416.7813 501.6094,416.7813 Q502.0625,416.7813 502.5,416.3438 Q503.0625,415.7969 503.1406,413.2031 L505.4375,413.2031 Z "/><text fill="#000000" font-family="sans-serif" font-size="12" lengthAdjust="spacingAndGlyphs" textLength="48" x="522.25" y="416.9102">UserTag</text><line style="stroke: #A80036; stroke-width: 1.5;" x1="457.5" x2="602.5" y1="428" y2="428"/><line style="stroke: #A80036; stroke-width: 1.5;" x1="457.5" x2="602.5" y1="436" y2="436"/><ellipse cx="467.5" cy="447" fill="#84BE84" rx="3" ry="3" style="stroke: #038048; stroke-width: 1.0;"/><text fill="#000000" font-family="sans-serif" font-size="11" lengthAdjust="spacingAndGlyphs" textLength="121" x="476.5" y="451.4189">UserTag(Integer, Integer)</text><ellipse cx="467.5" cy="460.8359" fill="#84BE84" rx="3" ry="3" style="stroke: #038048; stroke-width: 1.0;"/><text fill="#000000" font-family="sans-serif" font-size="11" lengthAdjust="spacingAndGlyphs" textLength="77" x="476.5" y="465.2549">getUid(): Integer</text><ellipse cx="467.5" cy="474.6719" fill="#84BE84" rx="3" ry="3" style="stroke: #038048; stroke-width: 1.0;"/><text fill="#000000" font-family="sans-serif" font-size="11" lengthAdjust="spacingAndGlyphs" textLength="76" x="476.5" y="479.0908">getTid(): Integer</text><ellipse cx="467.5" cy="488.5078" fill="#84BE84" rx="3" ry="3" style="stroke: #038048; stroke-width: 1.0;"/><text fill="#000000" font-family="sans-serif" font-size="11" lengthAdjust="spacingAndGlyphs" textLength="97" x="476.5" y="492.9268">setUid(Integer): void</text><ellipse cx="467.5" cy="502.3438" fill="#84BE84" rx="3" ry="3" style="stroke: #038048; stroke-width: 1.0;"/><text fill="#000000" font-family="sans-serif" font-size="11" lengthAdjust="spacingAndGlyphs" textLength="96" x="476.5" y="506.7627">setTid(Integer): void</text></a><!--MD5=[640838cf6f0a0c6da5533acbe90cbb65]
class app.model.UserTagKey--><a href="UserTagKey.html" target="_top" title="UserTagKey.html" xlink:actuate="onRequest" xlink:href="UserTagKey.html" xlink:show="new" xlink:title="UserTagKey.html" xlink:type="simple"><rect fill="#FEFECE" filter="url(#fs790yqqm9u4j)" height="48" id="app.model.UserTagKey" style="stroke: #A80036; stroke-width: 1.5;" width="100" x="32" y="166"/><ellipse cx="47" cy="182" fill="#ADD1B2" rx="11" ry="11" style="stroke: #A80036; stroke-width: 1.0;"/><path d="M50.6875,183.2031 Q50.4375,186.6875 49.2969,187.8438 Q48.2656,188.8594 46.8594,188.8594 Q45.4531,188.8594 44.4219,187.8438 Q42.6719,186.0781 42.6719,182.4063 Q42.6719,178.1563 44.5469,176.25 Q45.5938,175.2344 46.9219,175.2344 Q48.3281,175.2344 49.1719,176.0469 Q50.6563,177.5625 50.5781,180.4375 L48.4531,180.4375 Q48.375,178.1094 47.7344,177.4688 Q47.4531,177.1719 46.9219,177.1719 Q46.4688,177.1719 46.1094,177.5469 Q44.875,178.7656 44.875,182.2813 Q44.875,185.3281 45.9219,186.3438 Q46.3438,186.7813 46.8594,186.7813 Q47.3125,186.7813 47.75,186.3438 Q48.3125,185.7969 48.3906,183.2031 L50.6875,183.2031 Z "/><text fill="#000000" font-family="sans-serif" font-size="12" lengthAdjust="spacingAndGlyphs" textLength="68" x="61" y="186.9102">UserTagKey</text><line style="stroke: #A80036; stroke-width: 1.5;" x1="33" x2="131" y1="198" y2="198"/><line style="stroke: #A80036; stroke-width: 1.5;" x1="33" x2="131" y1="206" y2="206"/></a><!--MD5=[5a5af9b0547913863cbe0ddf55a9ab5e]
class java.io.Serializable--><rect fill="#FEFECE" filter="url(#fs790yqqm9u4j)" height="48" id="java.io.Serializable" style="stroke: #A80036; stroke-width: 1.5;" width="99" x="66.5" y="42"/><ellipse cx="81.5" cy="58" fill="#B4A7E5" rx="11" ry="11" style="stroke: #A80036; stroke-width: 1.0;"/><path d="M82.6719,62.7188 L83.4063,62.7188 L83.4063,64.8594 L79.7188,64.8594 L79.7188,62.7188 L80.4531,62.7188 L80.4531,53.375 L79.7188,53.375 L79.7188,51.2344 L83.4063,51.2344 L83.4063,53.375 L82.6719,53.375 L82.6719,62.7188 Z "/><text fill="#000000" font-family="sans-serif" font-size="12" font-style="italic" lengthAdjust="spacingAndGlyphs" textLength="67" x="95.5" y="62.9102">Serializable</text><line style="stroke: #A80036; stroke-width: 1.5;" x1="67.5" x2="164.5" y1="74" y2="74"/><line style="stroke: #A80036; stroke-width: 1.5;" x1="67.5" x2="164.5" y1="82" y2="82"/><!--MD5=[f66ca5733b77802ff3369d33d0a98eab]
reverse link java.io.Serializable to app.model.UserAppKey--><path d="M148.097,105.77 C164.462,125.538 183.814,148.914 197.837,165.852 " fill="none" id="java.io.Serializable&lt;-app.model.UserAppKey" style="stroke: #A80036; stroke-width: 1.0; stroke-dasharray: 7.0,7.0;"/><polygon fill="none" points="142.597,110.104,135.235,90.234,153.381,101.176,142.597,110.104" style="stroke: #A80036; stroke-width: 1.0;"/><!--MD5=[05ca6d672a5b74c906a9b8728ae39458]
reverse link java.io.Serializable to app.model.UserTagKey--><path d="M104.109,109.668 C98.8468,128.55 92.8646,150.015 88.4511,165.852 " fill="none" id="java.io.Serializable&lt;-app.model.UserTagKey" style="stroke: #A80036; stroke-width: 1.0; stroke-dasharray: 7.0,7.0;"/><polygon fill="none" points="97.4126,107.621,109.525,90.234,110.899,111.379,97.4126,107.621" style="stroke: #A80036; stroke-width: 1.0;"/><!--MD5=[c9e16bb9687a4e8cd2b70fa2e91866cb]
link app.model.Apps to app.model.Follow--><!--MD5=[c91c44d28beb3e50ab4c632313103b68]
link app.model.Follow to app.model.Nortifications--><!--MD5=[ad0d8ec0d7408731ecd4746a6a21e23c]
link app.model.Apps to app.model.Response--><!--MD5=[143b7aca555899dceddde37c0c534220]
link app.model.Response to app.model.Settings--><!--MD5=[d2d045b2b665afc5db5790b31a188622]
link app.model.Settings to app.model.Tags--><!--MD5=[8b43d1e9f37e9ee275511ffaef3ecb92]
link app.model.Response to app.model.UserApp--><!--MD5=[52c7f154e2b1a7af4c2d02a751ebae11]
link app.model.UserApp to app.model.Users--><!--MD5=[6106f141aeeb06686e6da0b02cc4d7f8]
link app.model.Users to app.model.UserTag--><text fill="#888888" font-family="sans-serif" font-size="10" lengthAdjust="spacingAndGlyphs" textLength="190" x="217" y="545.3809">UMLDoclet 2.0.11, PlantUML 1.2020.15</text><!--MD5=[eb9abb72644418b91f7a74b01a55e9e3]
@startuml
    namespace app.model {

        class Apps [[Apps.html]] {
        }

        class Follow [[Follow.html]] {
        }

        class Nortifications [[Nortifications.html]] {
        }

        class Response [[Response.html]] {
        }

        class Settings [[Settings.html]] {
        }

        class Tags [[Tags.html]] {
            +Tags(String)
        }

        class UserApp [[UserApp.html]] {
            +UserApp(Integer, Integer)
            +getUid(): Integer
            +getAid(): Integer
            +setUid(Integer): void
            +setAid(Integer): void
        }

        class UserAppKey [[UserAppKey.html]] {
        }

        class Users [[Users.html]] {
        }

        class UserTag [[UserTag.html]] {
            +UserTag(Integer, Integer)
            +getUid(): Integer
            +getTid(): Integer
            +setUid(Integer): void
            +setTid(Integer): void
        }

        class UserTagKey [[UserTagKey.html]] {
        }

        java.io.Serializable <|.. UserAppKey
        java.io.Serializable <|.. UserTagKey
    }

    namespace java.io {
        interface Serializable
    }

    center footer UMLDoclet 2.0.11, PlantUML 1.2020.15
@enduml

PlantUML version 1.2020.15(Sun Jun 28 20:39:45 JST 2020)
(APACHE source distribution)
Java Runtime: OpenJDK Runtime Environment
JVM: OpenJDK 64-Bit Server VM
Default Encoding: MS932
Language: ja
Country: JP
--></g></svg>