<?xml version="1.0" encoding="UTF-8" standalone="no"?><svg xmlns="http://www.w3.org/2000/svg" xmlns:xlink="http://www.w3.org/1999/xlink" contentScriptType="application/ecmascript" contentStyleType="text/css" height="184px" preserveAspectRatio="none" style="width:202px;height:184px;" version="1.1" viewBox="0 0 202 184" width="202px" zoomAndPan="magnify"><defs><filter height="300%" id="f1pz2hcjyexl4h" width="300%" x="-1" y="-1"><feGaussianBlur result="blurOut" stdDeviation="2.0"/><feColorMatrix in="blurOut" result="blurOut2" type="matrix" values="0 0 0 0 0 0 0 0 0 0 0 0 0 0 0 0 0 0 .4 0"/><feOffset dx="4.0" dy="4.0" in="blurOut2" result="blurOut3"/><feBlend in="SourceGraphic" in2="blurOut3" mode="normal"/></filter></defs><g><!--MD5=[73eb6d890031b73fbcea75c3ab090968]
class app.model.UserAppKey--><a href="UserAppKey.html" target="_top" title="UserAppKey.html" xlink:actuate="onRequest" xlink:href="UserAppKey.html" xlink:show="new" xlink:title="UserAppKey.html" xlink:type="simple"><rect fill="#FEFECE" filter="url(#f1pz2hcjyexl4h)" height="40.1875" id="app.model.UserAppKey" style="stroke: #A80036; stroke-width: 1.5;" width="110" x="43" y="107"/><ellipse cx="58" cy="127.0938" fill="#ADD1B2" rx="11" ry="11" style="stroke: #A80036; stroke-width: 1.0;"/><path d="M61.6875,128.2969 Q61.4375,131.7813 60.2969,132.9375 Q59.2656,133.9531 57.8594,133.9531 Q56.4531,133.9531 55.4219,132.9375 Q53.6719,131.1719 53.6719,127.5 Q53.6719,123.25 55.5469,121.3438 Q56.5938,120.3281 57.9219,120.3281 Q59.3281,120.3281 60.1719,121.1406 Q61.6563,122.6563 61.5781,125.5313 L59.4531,125.5313 Q59.375,123.2031 58.7344,122.5625 Q58.4531,122.2656 57.9219,122.2656 Q57.4688,122.2656 57.1094,122.6406 Q55.875,123.8594 55.875,127.375 Q55.875,130.4219 56.9219,131.4375 Q57.3438,131.875 57.8594,131.875 Q58.3125,131.875 58.75,131.4375 Q59.3125,130.8906 59.3906,128.2969 L61.6875,128.2969 Z "/><text fill="#000000" font-family="sans-serif" font-size="14" lengthAdjust="spacingAndGlyphs" textLength="78" x="72" y="126.5332">UserAppKey</text><text fill="#000000" font-family="sans-serif" font-size="10" lengthAdjust="spacingAndGlyphs" textLength="51" x="85.5" y="139.9902">app.model</text></a><!--MD5=[5a5af9b0547913863cbe0ddf55a9ab5e]
class java.io.Serializable--><rect fill="#FEFECE" filter="url(#f1pz2hcjyexl4h)" height="40.1875" id="java.io.Serializable" style="stroke: #A80036; stroke-width: 1.5;" width="105" x="45.5" y="7"/><ellipse cx="60.5" cy="27.0938" fill="#B4A7E5" rx="11" ry="11" style="stroke: #A80036; stroke-width: 1.0;"/><path d="M61.6719,31.8125 L62.4063,31.8125 L62.4063,33.9531 L58.7188,33.9531 L58.7188,31.8125 L59.4531,31.8125 L59.4531,22.4688 L58.7188,22.4688 L58.7188,20.3281 L62.4063,20.3281 L62.4063,22.4688 L61.6719,22.4688 L61.6719,31.8125 Z "/><text fill="#000000" font-family="sans-serif" font-size="14" font-style="italic" lengthAdjust="spacingAndGlyphs" textLength="73" x="74.5" y="26.5332">Serializable</text><text fill="#000000" font-family="sans-serif" font-size="10" font-style="italic" lengthAdjust="spacingAndGlyphs" textLength="31" x="95.5" y="39.9902">java.io</text><!--MD5=[f66ca5733b77802ff3369d33d0a98eab]
reverse link java.io.Serializable to app.model.UserAppKey--><path d="M98,67.692 C98,81.1338 98,95.5458 98,106.6786 " fill="none" id="java.io.Serializable&lt;-app.model.UserAppKey" style="stroke: #A80036; stroke-width: 1.0; stroke-dasharray: 7.0,7.0;"/><polygon fill="none" points="91.0001,67.3617,98,47.3616,105.0001,67.3616,91.0001,67.3617" style="stroke: #A80036; stroke-width: 1.0;"/><text fill="#888888" font-family="sans-serif" font-size="10" lengthAdjust="spacingAndGlyphs" textLength="190" x="0" y="170.5684">UMLDoclet 2.0.11, PlantUML 1.2020.15</text><!--MD5=[f8e6cadefaf5fa1034c5d778fa2b03a7]
@startuml
    set namespaceSeparator none
    hide empty fields
    hide empty methods

    class "<size:14>UserAppKey\n<size:10>app.model" as app.model.UserAppKey [[UserAppKey.html]] {
    }

    interface "<size:14>Serializable\n<size:10>java.io" as java.io.Serializable

    java.io.Serializable <|.. app.model.UserAppKey

    center footer UMLDoclet 2.0.11, PlantUML 1.2020.15
@enduml

PlantUML version 1.2020.15(Sun Jun 28 20:39:45 JST 2020)
(APACHE source distribution)
Java Runtime: OpenJDK Runtime Environment
JVM: OpenJDK 64-Bit Server VM
Default Encoding: MS932
Language: ja
Country: JP
--></g></svg>