<?xml version="1.0" encoding="UTF-8" standalone="no"?><svg xmlns="http://www.w3.org/2000/svg" xmlns:xlink="http://www.w3.org/1999/xlink" contentScriptType="application/ecmascript" contentStyleType="text/css" height="395px" preserveAspectRatio="none" style="width:742px;height:395px;" version="1.1" viewBox="0 0 742 395" width="742px" zoomAndPan="magnify"><defs><filter height="300%" id="f16ne9ok436p4l" width="300%" x="-1" y="-1"><feGaussianBlur result="blurOut" stdDeviation="2.0"/><feColorMatrix in="blurOut" result="blurOut2" type="matrix" values="0 0 0 0 0 0 0 0 0 0 0 0 0 0 0 0 0 0 .4 0"/><feOffset dx="4.0" dy="4.0" in="blurOut2" result="blurOut3"/><feBlend in="SourceGraphic" in2="blurOut3" mode="normal"/></filter></defs><g><!--MD5=[87a61f247abe88e8ed79d01b0c78c580]
cluster app.service--><polygon fill="#FFFFFF" filter="url(#f16ne9ok436p4l)" points="16,6,105,6,112,29.6094,720,29.6094,720,366,16,366,16,6" style="stroke: #000000; stroke-width: 1.5;"/><line style="stroke: #000000; stroke-width: 1.5;" x1="16" x2="112" y1="29.6094" y2="29.6094"/><text fill="#000000" font-family="sans-serif" font-size="14" font-weight="bold" lengthAdjust="spacingAndGlyphs" textLength="83" x="20" y="22.5332">app.service</text><!--MD5=[29f5b28f784b41bea755bddff3c9cbb4]
class app.service.AppService--><a href="AppService.html" target="_top" title="AppService.html" xlink:actuate="onRequest" xlink:href="AppService.html" xlink:show="new" xlink:title="AppService.html" xlink:type="simple"><rect fill="#FEFECE" filter="url(#f16ne9ok436p4l)" height="117.1797" id="app.service.AppService" style="stroke: #A80036; stroke-width: 1.5;" width="234" x="32" y="42"/><ellipse cx="114.25" cy="58" fill="#ADD1B2" rx="11" ry="11" style="stroke: #A80036; stroke-width: 1.0;"/><path d="M117.9375,59.2031 Q117.6875,62.6875 116.5469,63.8438 Q115.5156,64.8594 114.1094,64.8594 Q112.7031,64.8594 111.6719,63.8438 Q109.9219,62.0781 109.9219,58.4063 Q109.9219,54.1563 111.7969,52.25 Q112.8438,51.2344 114.1719,51.2344 Q115.5781,51.2344 116.4219,52.0469 Q117.9063,53.5625 117.8281,56.4375 L115.7031,56.4375 Q115.625,54.1094 114.9844,53.4688 Q114.7031,53.1719 114.1719,53.1719 Q113.7188,53.1719 113.3594,53.5469 Q112.125,54.7656 112.125,58.2813 Q112.125,61.3281 113.1719,62.3438 Q113.5938,62.7813 114.1094,62.7813 Q114.5625,62.7813 115,62.3438 Q115.5625,61.7969 115.6406,59.2031 L117.9375,59.2031 Z "/><text fill="#000000" font-family="sans-serif" font-size="12" lengthAdjust="spacingAndGlyphs" textLength="61" x="134.75" y="62.9102">AppService</text><line style="stroke: #A80036; stroke-width: 1.5;" x1="33" x2="265" y1="74" y2="74"/><line style="stroke: #A80036; stroke-width: 1.5;" x1="33" x2="265" y1="82" y2="82"/><ellipse cx="43" cy="93" fill="#84BE84" rx="3" ry="3" style="stroke: #038048; stroke-width: 1.0;"/><text fill="#000000" font-family="sans-serif" font-size="11" lengthAdjust="spacingAndGlyphs" textLength="135" x="52" y="97.4189">selectAppList(): List&lt;Apps&gt;</text><ellipse cx="43" cy="106.8359" fill="#84BE84" rx="3" ry="3" style="stroke: #038048; stroke-width: 1.0;"/><text fill="#000000" font-family="sans-serif" font-size="11" lengthAdjust="spacingAndGlyphs" textLength="208" x="52" y="111.2549">selectUserListByApps(String): List&lt;Users&gt;</text><ellipse cx="43" cy="120.6719" fill="#84BE84" rx="3" ry="3" style="stroke: #038048; stroke-width: 1.0;"/><text fill="#000000" font-family="sans-serif" font-size="11" lengthAdjust="spacingAndGlyphs" textLength="107" x="52" y="125.0908">insertApp(Apps): void</text><ellipse cx="43" cy="134.5078" fill="#84BE84" rx="3" ry="3" style="stroke: #038048; stroke-width: 1.0;"/><text fill="#000000" font-family="sans-serif" font-size="11" lengthAdjust="spacingAndGlyphs" textLength="176" x="52" y="138.9268">insertUserApp(Integer, Integer): void</text><ellipse cx="43" cy="148.3438" fill="#84BE84" rx="3" ry="3" style="stroke: #038048; stroke-width: 1.0;"/><text fill="#000000" font-family="sans-serif" font-size="11" lengthAdjust="spacingAndGlyphs" textLength="176" x="52" y="152.7627">deleteUserapp(Integer, Integer): void</text></a><!--MD5=[95bcf5eaea6d10a4599473819f25a6ff]
class app.service.MainService--><a href="MainService.html" target="_top" title="MainService.html" xlink:actuate="onRequest" xlink:href="MainService.html" xlink:show="new" xlink:title="MainService.html" xlink:type="simple"><rect fill="#FEFECE" filter="url(#f16ne9ok436p4l)" height="48" id="app.service.MainService" style="stroke: #A80036; stroke-width: 1.5;" width="98" x="301" y="76.5"/><ellipse cx="316" cy="92.5" fill="#ADD1B2" rx="11" ry="11" style="stroke: #A80036; stroke-width: 1.0;"/><path d="M319.6875,93.7031 Q319.4375,97.1875 318.2969,98.3438 Q317.2656,99.3594 315.8594,99.3594 Q314.4531,99.3594 313.4219,98.3438 Q311.6719,96.5781 311.6719,92.9063 Q311.6719,88.6563 313.5469,86.75 Q314.5938,85.7344 315.9219,85.7344 Q317.3281,85.7344 318.1719,86.5469 Q319.6563,88.0625 319.5781,90.9375 L317.4531,90.9375 Q317.375,88.6094 316.7344,87.9688 Q316.4531,87.6719 315.9219,87.6719 Q315.4688,87.6719 315.1094,88.0469 Q313.875,89.2656 313.875,92.7813 Q313.875,95.8281 314.9219,96.8438 Q315.3438,97.2813 315.8594,97.2813 Q316.3125,97.2813 316.75,96.8438 Q317.3125,96.2969 317.3906,93.7031 L319.6875,93.7031 Z "/><text fill="#000000" font-family="sans-serif" font-size="12" lengthAdjust="spacingAndGlyphs" textLength="66" x="330" y="97.4102">MainService</text><line style="stroke: #A80036; stroke-width: 1.5;" x1="302" x2="398" y1="108.5" y2="108.5"/><line style="stroke: #A80036; stroke-width: 1.5;" x1="302" x2="398" y1="116.5" y2="116.5"/></a><!--MD5=[e34a0b7e9ccf835f18db855463bf91c9]
class app.service.NortificationService--><a href="NortificationService.html" target="_top" title="NortificationService.html" xlink:actuate="onRequest" xlink:href="NortificationService.html" xlink:show="new" xlink:title="NortificationService.html" xlink:type="simple"><rect fill="#FEFECE" filter="url(#f16ne9ok436p4l)" height="89.5078" id="app.service.NortificationService" style="stroke: #A80036; stroke-width: 1.5;" width="206" x="434" y="55.5"/><ellipse cx="480.25" cy="71.5" fill="#ADD1B2" rx="11" ry="11" style="stroke: #A80036; stroke-width: 1.0;"/><path d="M483.9375,72.7031 Q483.6875,76.1875 482.5469,77.3438 Q481.5156,78.3594 480.1094,78.3594 Q478.7031,78.3594 477.6719,77.3438 Q475.9219,75.5781 475.9219,71.9063 Q475.9219,67.6563 477.7969,65.75 Q478.8438,64.7344 480.1719,64.7344 Q481.5781,64.7344 482.4219,65.5469 Q483.9063,67.0625 483.8281,69.9375 L481.7031,69.9375 Q481.625,67.6094 480.9844,66.9688 Q480.7031,66.6719 480.1719,66.6719 Q479.7188,66.6719 479.3594,67.0469 Q478.125,68.2656 478.125,71.7813 Q478.125,74.8281 479.1719,75.8438 Q479.5938,76.2813 480.1094,76.2813 Q480.5625,76.2813 481,75.8438 Q481.5625,75.2969 481.6406,72.7031 L483.9375,72.7031 Z "/><text fill="#000000" font-family="sans-serif" font-size="12" lengthAdjust="spacingAndGlyphs" textLength="105" x="500.75" y="76.4102">NortificationService</text><line style="stroke: #A80036; stroke-width: 1.5;" x1="435" x2="639" y1="87.5" y2="87.5"/><line style="stroke: #A80036; stroke-width: 1.5;" x1="435" x2="639" y1="95.5" y2="95.5"/><ellipse cx="445" cy="106.5" fill="#84BE84" rx="3" ry="3" style="stroke: #038048; stroke-width: 1.0;"/><text fill="#000000" font-family="sans-serif" font-size="11" lengthAdjust="spacingAndGlyphs" textLength="180" x="454" y="110.9189">selectNorList(int): List&lt;Nortifications&gt;</text><ellipse cx="445" cy="120.3359" fill="#84BE84" rx="3" ry="3" style="stroke: #038048; stroke-width: 1.0;"/><text fill="#000000" font-family="sans-serif" font-size="11" lengthAdjust="spacingAndGlyphs" textLength="163" x="454" y="124.7549">updateNorList(List&lt;Integer&gt;): void</text><ellipse cx="445" cy="134.1719" fill="#84BE84" rx="3" ry="3" style="stroke: #038048; stroke-width: 1.0;"/><text fill="#000000" font-family="sans-serif" font-size="11" lengthAdjust="spacingAndGlyphs" textLength="117" x="454" y="138.5908">updateNor(Integer): void</text></a><!--MD5=[c0ad7d295a196878d0d884369bf94bcc]
class app.service.SettingsService--><a href="SettingsService.html" target="_top" title="SettingsService.html" xlink:actuate="onRequest" xlink:href="SettingsService.html" xlink:show="new" xlink:title="SettingsService.html" xlink:type="simple"><rect fill="#FEFECE" filter="url(#f16ne9ok436p4l)" height="75.6719" id="app.service.SettingsService" style="stroke: #A80036; stroke-width: 1.5;" width="176" x="32" y="246.5"/><ellipse cx="73.55" cy="262.5" fill="#ADD1B2" rx="11" ry="11" style="stroke: #A80036; stroke-width: 1.0;"/><path d="M77.2375,263.7031 Q76.9875,267.1875 75.8469,268.3438 Q74.8156,269.3594 73.4094,269.3594 Q72.0031,269.3594 70.9719,268.3438 Q69.2219,266.5781 69.2219,262.9063 Q69.2219,258.6563 71.0969,256.75 Q72.1438,255.7344 73.4719,255.7344 Q74.8781,255.7344 75.7219,256.5469 Q77.2063,258.0625 77.1281,260.9375 L75.0031,260.9375 Q74.925,258.6094 74.2844,257.9688 Q74.0031,257.6719 73.4719,257.6719 Q73.0188,257.6719 72.6594,258.0469 Q71.425,259.2656 71.425,262.7813 Q71.425,265.8281 72.4719,266.8438 Q72.8938,267.2813 73.4094,267.2813 Q73.8625,267.2813 74.3,266.8438 Q74.8625,266.2969 74.9406,263.7031 L77.2375,263.7031 Z "/><text fill="#000000" font-family="sans-serif" font-size="12" lengthAdjust="spacingAndGlyphs" textLength="85" x="93.45" y="267.4102">SettingsService</text><line style="stroke: #A80036; stroke-width: 1.5;" x1="33" x2="207" y1="278.5" y2="278.5"/><line style="stroke: #A80036; stroke-width: 1.5;" x1="33" x2="207" y1="286.5" y2="286.5"/><ellipse cx="43" cy="297.5" fill="#84BE84" rx="3" ry="3" style="stroke: #038048; stroke-width: 1.0;"/><text fill="#000000" font-family="sans-serif" font-size="11" lengthAdjust="spacingAndGlyphs" textLength="118" x="52" y="301.9189">getSettings(int): Settings</text><ellipse cx="43" cy="311.3359" fill="#84BE84" rx="3" ry="3" style="stroke: #038048; stroke-width: 1.0;"/><text fill="#000000" font-family="sans-serif" font-size="11" lengthAdjust="spacingAndGlyphs" textLength="150" x="52" y="315.7549">postSettings(int, Settings): void</text></a><!--MD5=[f4db9f4d9245a03dd98c8bf2b0646556]
class app.service.TagService--><a href="TagService.html" target="_top" title="TagService.html" xlink:actuate="onRequest" xlink:href="TagService.html" xlink:show="new" xlink:title="TagService.html" xlink:type="simple"><rect fill="#FEFECE" filter="url(#f16ne9ok436p4l)" height="103.3438" id="app.service.TagService" style="stroke: #A80036; stroke-width: 1.5;" width="232" x="243" y="233"/><ellipse cx="324.25" cy="249" fill="#ADD1B2" rx="11" ry="11" style="stroke: #A80036; stroke-width: 1.0;"/><path d="M327.9375,250.2031 Q327.6875,253.6875 326.5469,254.8438 Q325.5156,255.8594 324.1094,255.8594 Q322.7031,255.8594 321.6719,254.8438 Q319.9219,253.0781 319.9219,249.4063 Q319.9219,245.1563 321.7969,243.25 Q322.8438,242.2344 324.1719,242.2344 Q325.5781,242.2344 326.4219,243.0469 Q327.9063,244.5625 327.8281,247.4375 L325.7031,247.4375 Q325.625,245.1094 324.9844,244.4688 Q324.7031,244.1719 324.1719,244.1719 Q323.7188,244.1719 323.3594,244.5469 Q322.125,245.7656 322.125,249.2813 Q322.125,252.3281 323.1719,253.3438 Q323.5938,253.7813 324.1094,253.7813 Q324.5625,253.7813 325,253.3438 Q325.5625,252.7969 325.6406,250.2031 L327.9375,250.2031 Z "/><text fill="#000000" font-family="sans-serif" font-size="12" lengthAdjust="spacingAndGlyphs" textLength="61" x="344.75" y="253.9102">TagService</text><line style="stroke: #A80036; stroke-width: 1.5;" x1="244" x2="474" y1="265" y2="265"/><line style="stroke: #A80036; stroke-width: 1.5;" x1="244" x2="474" y1="273" y2="273"/><ellipse cx="254" cy="284" fill="#84BE84" rx="3" ry="3" style="stroke: #038048; stroke-width: 1.0;"/><text fill="#000000" font-family="sans-serif" font-size="11" lengthAdjust="spacingAndGlyphs" textLength="131" x="263" y="288.4189">selectTagList(): List&lt;Tags&gt;</text><ellipse cx="254" cy="297.8359" fill="#84BE84" rx="3" ry="3" style="stroke: #038048; stroke-width: 1.0;"/><text fill="#000000" font-family="sans-serif" font-size="11" lengthAdjust="spacingAndGlyphs" textLength="206" x="263" y="302.2549">selectUserListByTags(String): List&lt;Users&gt;</text><ellipse cx="254" cy="311.6719" fill="#84BE84" rx="3" ry="3" style="stroke: #038048; stroke-width: 1.0;"/><text fill="#000000" font-family="sans-serif" font-size="11" lengthAdjust="spacingAndGlyphs" textLength="169" x="263" y="316.0908">insertUserTag(String, Integer): void</text><ellipse cx="254" cy="325.5078" fill="#84BE84" rx="3" ry="3" style="stroke: #038048; stroke-width: 1.0;"/><text fill="#000000" font-family="sans-serif" font-size="11" lengthAdjust="spacingAndGlyphs" textLength="168" x="263" y="329.9268">deleteUsertag(String, Integer): void</text></a><!--MD5=[a112527a20e01f9f2ddd546ea2fa0551]
class app.service.UserService--><a href="UserService.html" target="_top" title="UserService.html" xlink:actuate="onRequest" xlink:href="UserService.html" xlink:show="new" xlink:title="UserService.html" xlink:type="simple"><rect fill="#FEFECE" filter="url(#f16ne9ok436p4l)" height="131.0156" id="app.service.UserService" style="stroke: #A80036; stroke-width: 1.5;" width="193" x="510.5" y="219"/><ellipse cx="569.25" cy="235" fill="#ADD1B2" rx="11" ry="11" style="stroke: #A80036; stroke-width: 1.0;"/><path d="M572.9375,236.2031 Q572.6875,239.6875 571.5469,240.8438 Q570.5156,241.8594 569.1094,241.8594 Q567.7031,241.8594 566.6719,240.8438 Q564.9219,239.0781 564.9219,235.4063 Q564.9219,231.1563 566.7969,229.25 Q567.8438,228.2344 569.1719,228.2344 Q570.5781,228.2344 571.4219,229.0469 Q572.9063,230.5625 572.8281,233.4375 L570.7031,233.4375 Q570.625,231.1094 569.9844,230.4688 Q569.7031,230.1719 569.1719,230.1719 Q568.7188,230.1719 568.3594,230.5469 Q567.125,231.7656 567.125,235.2813 Q567.125,238.3281 568.1719,239.3438 Q568.5938,239.7813 569.1094,239.7813 Q569.5625,239.7813 570,239.3438 Q570.5625,238.7969 570.6406,236.2031 L572.9375,236.2031 Z "/><text fill="#000000" font-family="sans-serif" font-size="12" lengthAdjust="spacingAndGlyphs" textLength="67" x="589.75" y="239.9102">UserService</text><line style="stroke: #A80036; stroke-width: 1.5;" x1="511.5" x2="702.5" y1="251" y2="251"/><line style="stroke: #A80036; stroke-width: 1.5;" x1="511.5" x2="702.5" y1="259" y2="259"/><ellipse cx="521.5" cy="270" fill="#84BE84" rx="3" ry="3" style="stroke: #038048; stroke-width: 1.0;"/><text fill="#000000" font-family="sans-serif" font-size="11" lengthAdjust="spacingAndGlyphs" textLength="154" x="530.5" y="274.4189">getUser(String, Boolean): Users</text><ellipse cx="521.5" cy="283.8359" fill="#84BE84" rx="3" ry="3" style="stroke: #038048; stroke-width: 1.0;"/><text fill="#000000" font-family="sans-serif" font-size="11" lengthAdjust="spacingAndGlyphs" textLength="146" x="530.5" y="288.2549">postUser(Users, Integer): void</text><ellipse cx="521.5" cy="297.6719" fill="#84BE84" rx="3" ry="3" style="stroke: #038048; stroke-width: 1.0;"/><text fill="#000000" font-family="sans-serif" font-size="11" lengthAdjust="spacingAndGlyphs" textLength="147" x="530.5" y="302.0908">getFollow(String): List&lt;Users&gt;</text><ellipse cx="521.5" cy="311.5078" fill="#84BE84" rx="3" ry="3" style="stroke: #038048; stroke-width: 1.0;"/><text fill="#000000" font-family="sans-serif" font-size="11" lengthAdjust="spacingAndGlyphs" textLength="165" x="530.5" y="315.9268">insertFollow(Integer, Integer): void</text><ellipse cx="521.5" cy="325.3438" fill="#84BE84" rx="3" ry="3" style="stroke: #038048; stroke-width: 1.0;"/><text fill="#000000" font-family="sans-serif" font-size="11" lengthAdjust="spacingAndGlyphs" textLength="167" x="530.5" y="329.7627">deleteFollow(Integer, Integer): void</text><ellipse cx="521.5" cy="339.1797" fill="#84BE84" rx="3" ry="3" style="stroke: #038048; stroke-width: 1.0;"/><text fill="#000000" font-family="sans-serif" font-size="11" lengthAdjust="spacingAndGlyphs" textLength="157" x="530.5" y="343.5986">getFollower(String): List&lt;Users&gt;</text></a><!--MD5=[6b9412cfe1bcf8939714300a788c15db]
link app.service.AppService to app.service.MainService--><!--MD5=[f7758b35a496c6fe03c7b5cf37fd6681]
link app.service.MainService to app.service.NortificationService--><!--MD5=[c6d544e544e2e95a1011a941eeaa6d82]
link app.service.AppService to app.service.SettingsService--><!--MD5=[8faf90032bcf116e2beb573745465a0c]
link app.service.SettingsService to app.service.TagService--><!--MD5=[ca4960126965021bf76355b1b9f02b9e]
link app.service.TagService to app.service.UserService--><text fill="#888888" font-family="sans-serif" font-size="10" lengthAdjust="spacingAndGlyphs" textLength="190" x="267" y="382.3809">UMLDoclet 2.0.11, PlantUML 1.2020.15</text><!--MD5=[371d4b0c0fc7b5c4334d9439fe74b6d6]
@startuml
    namespace app.service {

        class AppService [[AppService.html]] {
            +selectAppList(): List<Apps>
            +selectUserListByApps(String): List<Users>
            +insertApp(Apps): void
            +insertUserApp(Integer, Integer): void
            +deleteUserapp(Integer, Integer): void
        }

        class MainService [[MainService.html]]

        class NortificationService [[NortificationService.html]] {
            +selectNorList(int): List<Nortifications>
            +updateNorList(List<Integer>): void
            +updateNor(Integer): void
        }

        class SettingsService [[SettingsService.html]] {
            +getSettings(int): Settings
            +postSettings(int, Settings): void
        }

        class TagService [[TagService.html]] {
            +selectTagList(): List<Tags>
            +selectUserListByTags(String): List<Users>
            +insertUserTag(String, Integer): void
            +deleteUsertag(String, Integer): void
        }

        class UserService [[UserService.html]] {
            +getUser(String, Boolean): Users
            +postUser(Users, Integer): void
            +getFollow(String): List<Users>
            +insertFollow(Integer, Integer): void
            +deleteFollow(Integer, Integer): void
            +getFollower(String): List<Users>
        }

    }

    center footer UMLDoclet 2.0.11, PlantUML 1.2020.15
@enduml

PlantUML version 1.2020.15(Sun Jun 28 20:39:45 JST 2020)
(APACHE source distribution)
Java Runtime: OpenJDK Runtime Environment
JVM: OpenJDK 64-Bit Server VM
Default Encoding: MS932
Language: ja
Country: JP
--></g></svg>