<?xml version="1.0" encoding="UTF-8" standalone="no"?><svg xmlns="http://www.w3.org/2000/svg" xmlns:xlink="http://www.w3.org/1999/xlink" contentScriptType="application/ecmascript" contentStyleType="text/css" height="113px" preserveAspectRatio="none" style="width:202px;height:113px;" version="1.1" viewBox="0 0 202 113" width="202px" zoomAndPan="magnify"><defs><filter height="300%" id="ffzkjvqzz5q0v" width="300%" x="-1" y="-1"><feGaussianBlur result="blurOut" stdDeviation="2.0"/><feColorMatrix in="blurOut" result="blurOut2" type="matrix" values="0 0 0 0 0 0 0 0 0 0 0 0 0 0 0 0 0 0 .4 0"/><feOffset dx="4.0" dy="4.0" in="blurOut2" result="blurOut3"/><feBlend in="SourceGraphic" in2="blurOut3" mode="normal"/></filter></defs><g><!--MD5=[c0ad7d295a196878d0d884369bf94bcc]
class app.service.SettingsService--><a href="SettingsService.html" target="_top" title="SettingsService.html" xlink:actuate="onRequest" xlink:href="SettingsService.html" xlink:show="new" xlink:title="SettingsService.html" xlink:type="simple"><rect fill="#FEFECE" filter="url(#ffzkjvqzz5q0v)" height="75.8594" id="app.service.SettingsService" style="stroke: #A80036; stroke-width: 1.5;" width="176" x="7" y="7"/><ellipse cx="42.7" cy="27.0938" fill="#ADD1B2" rx="11" ry="11" style="stroke: #A80036; stroke-width: 1.0;"/><path d="M46.3875,28.2969 Q46.1375,31.7813 44.9969,32.9375 Q43.9656,33.9531 42.5594,33.9531 Q41.1531,33.9531 40.1219,32.9375 Q38.3719,31.1719 38.3719,27.5 Q38.3719,23.25 40.2469,21.3438 Q41.2938,20.3281 42.6219,20.3281 Q44.0281,20.3281 44.8719,21.1406 Q46.3563,22.6563 46.2781,25.5313 L44.1531,25.5313 Q44.075,23.2031 43.4344,22.5625 Q43.1531,22.2656 42.6219,22.2656 Q42.1688,22.2656 41.8094,22.6406 Q40.575,23.8594 40.575,27.375 Q40.575,30.4219 41.6219,31.4375 Q42.0438,31.875 42.5594,31.875 Q43.0125,31.875 43.45,31.4375 Q44.0125,30.8906 44.0906,28.2969 L46.3875,28.2969 Z "/><text fill="#000000" font-family="sans-serif" font-size="14" lengthAdjust="spacingAndGlyphs" textLength="98" x="61.3" y="26.5332">SettingsService</text><text fill="#000000" font-family="sans-serif" font-size="10" lengthAdjust="spacingAndGlyphs" textLength="54" x="83.3" y="39.9902">app.service</text><line style="stroke: #A80036; stroke-width: 1.5;" x1="8" x2="182" y1="47.1875" y2="47.1875"/><ellipse cx="18" cy="58.1875" fill="#84BE84" rx="3" ry="3" style="stroke: #038048; stroke-width: 1.0;"/><text fill="#000000" font-family="sans-serif" font-size="11" lengthAdjust="spacingAndGlyphs" textLength="118" x="27" y="62.6064">getSettings(int): Settings</text><ellipse cx="18" cy="72.0234" fill="#84BE84" rx="3" ry="3" style="stroke: #038048; stroke-width: 1.0;"/><text fill="#000000" font-family="sans-serif" font-size="11" lengthAdjust="spacingAndGlyphs" textLength="150" x="27" y="76.4424">postSettings(int, Settings): void</text></a><text fill="#888888" font-family="sans-serif" font-size="10" lengthAdjust="spacingAndGlyphs" textLength="190" x="0" y="100.2402">UMLDoclet 2.0.11, PlantUML 1.2020.15</text><!--MD5=[f669cfdd869233696753313283f302b3]
@startuml
    set namespaceSeparator none
    hide empty fields
    hide empty methods

    class "<size:14>SettingsService\n<size:10>app.service" as app.service.SettingsService [[SettingsService.html]] {
        +getSettings(int): Settings
        +postSettings(int, Settings): void
    }

    center footer UMLDoclet 2.0.11, PlantUML 1.2020.15
@enduml

PlantUML version 1.2020.15(Sun Jun 28 20:39:45 JST 2020)
(APACHE source distribution)
Java Runtime: OpenJDK Runtime Environment
JVM: OpenJDK 64-Bit Server VM
Default Encoding: MS932
Language: ja
Country: JP
--></g></svg>