<?xml version="1.0" encoding="UTF-8" standalone="no"?><svg xmlns="http://www.w3.org/2000/svg" xmlns:xlink="http://www.w3.org/1999/xlink" contentScriptType="application/ecmascript" contentStyleType="text/css" height="99px" preserveAspectRatio="none" style="width:202px;height:99px;" version="1.1" viewBox="0 0 202 99" width="202px" zoomAndPan="magnify"><defs><filter height="300%" id="f1qc7fqbrtrbgp" width="300%" x="-1" y="-1"><feGaussianBlur result="blurOut" stdDeviation="2.0"/><feColorMatrix in="blurOut" result="blurOut2" type="matrix" values="0 0 0 0 0 0 0 0 0 0 0 0 0 0 0 0 0 0 .4 0"/><feOffset dx="4.0" dy="4.0" in="blurOut2" result="blurOut3"/><feBlend in="SourceGraphic" in2="blurOut3" mode="normal"/></filter></defs><g><!--MD5=[3e31c966f53f2e5a942d9130f4cf4f37]
class app.MinesOApplication--><a href="MinesOApplication.html" target="_top" title="MinesOApplication.html" xlink:actuate="onRequest" xlink:href="MinesOApplication.html" xlink:show="new" xlink:title="MinesOApplication.html" xlink:type="simple"><rect fill="#FEFECE" filter="url(#f1qc7fqbrtrbgp)" height="62.0234" id="app.MinesOApplication" style="stroke: #A80036; stroke-width: 1.5;" width="149" x="20.5" y="7"/><ellipse cx="35.5" cy="27.0938" fill="#ADD1B2" rx="11" ry="11" style="stroke: #A80036; stroke-width: 1.0;"/><path d="M39.1875,28.2969 Q38.9375,31.7813 37.7969,32.9375 Q36.7656,33.9531 35.3594,33.9531 Q33.9531,33.9531 32.9219,32.9375 Q31.1719,31.1719 31.1719,27.5 Q31.1719,23.25 33.0469,21.3438 Q34.0938,20.3281 35.4219,20.3281 Q36.8281,20.3281 37.6719,21.1406 Q39.1563,22.6563 39.0781,25.5313 L36.9531,25.5313 Q36.875,23.2031 36.2344,22.5625 Q35.9531,22.2656 35.4219,22.2656 Q34.9688,22.2656 34.6094,22.6406 Q33.375,23.8594 33.375,27.375 Q33.375,30.4219 34.4219,31.4375 Q34.8438,31.875 35.3594,31.875 Q35.8125,31.875 36.25,31.4375 Q36.8125,30.8906 36.8906,28.2969 L39.1875,28.2969 Z "/><text fill="#000000" font-family="sans-serif" font-size="14" lengthAdjust="spacingAndGlyphs" textLength="117" x="49.5" y="26.5332">MinesOApplication</text><text fill="#000000" font-family="sans-serif" font-size="10" lengthAdjust="spacingAndGlyphs" textLength="18" x="99" y="39.9902">app</text><line style="stroke: #A80036; stroke-width: 1.5;" x1="21.5" x2="168.5" y1="47.1875" y2="47.1875"/><ellipse cx="31.5" cy="58.1875" fill="#84BE84" rx="3" ry="3" style="stroke: #038048; stroke-width: 1.0;"/><text fill="#000000" font-family="sans-serif" font-size="11" lengthAdjust="spacingAndGlyphs" text-decoration="underline" textLength="90" x="40.5" y="62.6064">main(String[]): void</text></a><text fill="#888888" font-family="sans-serif" font-size="10" lengthAdjust="spacingAndGlyphs" textLength="190" x="0" y="86.4043">UMLDoclet 2.0.11, PlantUML 1.2020.15</text><!--MD5=[39215b7c6568ab6cdeb5636a8674978c]
@startuml
    set namespaceSeparator none
    hide empty fields
    hide empty methods

    class "<size:14>MinesOApplication\n<size:10>app" as app.MinesOApplication [[MinesOApplication.html]] {
        {static} +main(String[]): void
    }

    center footer UMLDoclet 2.0.11, PlantUML 1.2020.15
@enduml

PlantUML version 1.2020.15(Sun Jun 28 20:39:45 JST 2020)
(APACHE source distribution)
Java Runtime: OpenJDK Runtime Environment
JVM: OpenJDK 64-Bit Server VM
Default Encoding: MS932
Language: ja
Country: JP
--></g></svg>