<?xml version="1.0" encoding="UTF-8" standalone="no"?><svg xmlns="http://www.w3.org/2000/svg" xmlns:xlink="http://www.w3.org/1999/xlink" contentScriptType="application/ecmascript" contentStyleType="text/css" height="78px" preserveAspectRatio="none" style="width:202px;height:78px;" version="1.1" viewBox="0 0 202 78" width="202px" zoomAndPan="magnify"><defs><filter height="300%" id="f105ahaiahfcrf" width="300%" x="-1" y="-1"><feGaussianBlur result="blurOut" stdDeviation="2.0"/><feColorMatrix in="blurOut" result="blurOut2" type="matrix" values="0 0 0 0 0 0 0 0 0 0 0 0 0 0 0 0 0 0 .4 0"/><feOffset dx="4.0" dy="4.0" in="blurOut2" result="blurOut3"/><feBlend in="SourceGraphic" in2="blurOut3" mode="normal"/></filter></defs><g><!--MD5=[7d84d8d93250c40dc159d4c581ed742a]
class app.model.Nortifications--><a href="Nortifications.html" target="_top" title="Nortifications.html" xlink:actuate="onRequest" xlink:href="Nortifications.html" xlink:show="new" xlink:title="Nortifications.html" xlink:type="simple"><rect fill="#FEFECE" filter="url(#f105ahaiahfcrf)" height="40.1875" id="app.model.Nortifications" style="stroke: #A80036; stroke-width: 1.5;" width="113" x="38.5" y="7"/><ellipse cx="53.5" cy="27.0938" fill="#ADD1B2" rx="11" ry="11" style="stroke: #A80036; stroke-width: 1.0;"/><path d="M57.1875,28.2969 Q56.9375,31.7813 55.7969,32.9375 Q54.7656,33.9531 53.3594,33.9531 Q51.9531,33.9531 50.9219,32.9375 Q49.1719,31.1719 49.1719,27.5 Q49.1719,23.25 51.0469,21.3438 Q52.0938,20.3281 53.4219,20.3281 Q54.8281,20.3281 55.6719,21.1406 Q57.1563,22.6563 57.0781,25.5313 L54.9531,25.5313 Q54.875,23.2031 54.2344,22.5625 Q53.9531,22.2656 53.4219,22.2656 Q52.9688,22.2656 52.6094,22.6406 Q51.375,23.8594 51.375,27.375 Q51.375,30.4219 52.4219,31.4375 Q52.8438,31.875 53.3594,31.875 Q53.8125,31.875 54.25,31.4375 Q54.8125,30.8906 54.8906,28.2969 L57.1875,28.2969 Z "/><text fill="#000000" font-family="sans-serif" font-size="14" lengthAdjust="spacingAndGlyphs" textLength="81" x="67.5" y="26.5332">Nortifications</text><text fill="#000000" font-family="sans-serif" font-size="10" lengthAdjust="spacingAndGlyphs" textLength="51" x="82.5" y="39.9902">app.model</text></a><text fill="#888888" font-family="sans-serif" font-size="10" lengthAdjust="spacingAndGlyphs" textLength="190" x="0" y="64.5684">UMLDoclet 2.0.11, PlantUML 1.2020.15</text><!--MD5=[8f6135882ed8c61dd8d7937a465d2589]
@startuml
    set namespaceSeparator none
    hide empty fields
    hide empty methods

    class "<size:14>Nortifications\n<size:10>app.model" as app.model.Nortifications [[Nortifications.html]] {
    }

    center footer UMLDoclet 2.0.11, PlantUML 1.2020.15
@enduml

PlantUML version 1.2020.15(Sun Jun 28 20:39:45 JST 2020)
(APACHE source distribution)
Java Runtime: OpenJDK Runtime Environment
JVM: OpenJDK 64-Bit Server VM
Default Encoding: MS932
Language: ja
Country: JP
--></g></svg>