<?xml version="1.0" encoding="UTF-8" standalone="no"?><svg xmlns="http://www.w3.org/2000/svg" xmlns:xlink="http://www.w3.org/1999/xlink" contentScriptType="application/ecmascript" contentStyleType="text/css" height="78px" preserveAspectRatio="none" style="width:202px;height:78px;" version="1.1" viewBox="0 0 202 78" width="202px" zoomAndPan="magnify"><defs><filter height="300%" id="f16y55ity20jwu" width="300%" x="-1" y="-1"><feGaussianBlur result="blurOut" stdDeviation="2.0"/><feColorMatrix in="blurOut" result="blurOut2" type="matrix" values="0 0 0 0 0 0 0 0 0 0 0 0 0 0 0 0 0 0 .4 0"/><feOffset dx="4.0" dy="4.0" in="blurOut2" result="blurOut3"/><feBlend in="SourceGraphic" in2="blurOut3" mode="normal"/></filter></defs><g><!--MD5=[d6c70cbfd74c57e90f2c2f6e3e933804]
class app.model.Response--><a href="Response.html" target="_top" title="Response.html" xlink:actuate="onRequest" xlink:href="Response.html" xlink:show="new" xlink:title="Response.html" xlink:type="simple"><rect fill="#FEFECE" filter="url(#f16y55ity20jwu)" height="40.1875" id="app.model.Response" style="stroke: #A80036; stroke-width: 1.5;" width="96" x="47" y="7"/><ellipse cx="62" cy="27.0938" fill="#ADD1B2" rx="11" ry="11" style="stroke: #A80036; stroke-width: 1.0;"/><path d="M65.6875,28.2969 Q65.4375,31.7813 64.2969,32.9375 Q63.2656,33.9531 61.8594,33.9531 Q60.4531,33.9531 59.4219,32.9375 Q57.6719,31.1719 57.6719,27.5 Q57.6719,23.25 59.5469,21.3438 Q60.5938,20.3281 61.9219,20.3281 Q63.3281,20.3281 64.1719,21.1406 Q65.6563,22.6563 65.5781,25.5313 L63.4531,25.5313 Q63.375,23.2031 62.7344,22.5625 Q62.4531,22.2656 61.9219,22.2656 Q61.4688,22.2656 61.1094,22.6406 Q59.875,23.8594 59.875,27.375 Q59.875,30.4219 60.9219,31.4375 Q61.3438,31.875 61.8594,31.875 Q62.3125,31.875 62.75,31.4375 Q63.3125,30.8906 63.3906,28.2969 L65.6875,28.2969 Z "/><text fill="#000000" font-family="sans-serif" font-size="14" lengthAdjust="spacingAndGlyphs" textLength="64" x="76" y="26.5332">Response</text><text fill="#000000" font-family="sans-serif" font-size="10" lengthAdjust="spacingAndGlyphs" textLength="51" x="82.5" y="39.9902">app.model</text></a><text fill="#888888" font-family="sans-serif" font-size="10" lengthAdjust="spacingAndGlyphs" textLength="190" x="0" y="64.5684">UMLDoclet 2.0.11, PlantUML 1.2020.15</text><!--MD5=[ee673ff67d5d5ab1c0b280ac133e7a41]
@startuml
    set namespaceSeparator none
    hide empty fields
    hide empty methods

    class "<size:14>Response\n<size:10>app.model" as app.model.Response [[Response.html]] {
    }

    center footer UMLDoclet 2.0.11, PlantUML 1.2020.15
@enduml

PlantUML version 1.2020.15(Sun Jun 28 20:39:45 JST 2020)
(APACHE source distribution)
Java Runtime: OpenJDK Runtime Environment
JVM: OpenJDK 64-Bit Server VM
Default Encoding: MS932
Language: ja
Country: JP
--></g></svg>