<?xml version="1.0" encoding="UTF-8" standalone="no"?><svg xmlns="http://www.w3.org/2000/svg" xmlns:xlink="http://www.w3.org/1999/xlink" contentScriptType="application/ecmascript" contentStyleType="text/css" height="99px" preserveAspectRatio="none" style="width:202px;height:99px;" version="1.1" viewBox="0 0 202 99" width="202px" zoomAndPan="magnify"><defs><filter height="300%" id="f1svcm1jw2keqd" width="300%" x="-1" y="-1"><feGaussianBlur result="blurOut" stdDeviation="2.0"/><feColorMatrix in="blurOut" result="blurOut2" type="matrix" values="0 0 0 0 0 0 0 0 0 0 0 0 0 0 0 0 0 0 .4 0"/><feOffset dx="4.0" dy="4.0" in="blurOut2" result="blurOut3"/><feBlend in="SourceGraphic" in2="blurOut3" mode="normal"/></filter></defs><g><!--MD5=[bf9780d2018fec33646dac939ee4d1b7]
class app.model.Tags--><a href="Tags.html" target="_top" title="Tags.html" xlink:actuate="onRequest" xlink:href="Tags.html" xlink:show="new" xlink:title="Tags.html" xlink:type="simple"><rect fill="#FEFECE" filter="url(#f1svcm1jw2keqd)" height="62.0234" id="app.model.Tags" style="stroke: #A80036; stroke-width: 1.5;" width="86" x="52" y="7"/><ellipse cx="68.35" cy="27.0938" fill="#ADD1B2" rx="11" ry="11" style="stroke: #A80036; stroke-width: 1.0;"/><path d="M72.0375,28.2969 Q71.7875,31.7813 70.6469,32.9375 Q69.6156,33.9531 68.2094,33.9531 Q66.8031,33.9531 65.7719,32.9375 Q64.0219,31.1719 64.0219,27.5 Q64.0219,23.25 65.8969,21.3438 Q66.9438,20.3281 68.2719,20.3281 Q69.6781,20.3281 70.5219,21.1406 Q72.0063,22.6563 71.9281,25.5313 L69.8031,25.5313 Q69.725,23.2031 69.0844,22.5625 Q68.8031,22.2656 68.2719,22.2656 Q67.8188,22.2656 67.4594,22.6406 Q66.225,23.8594 66.225,27.375 Q66.225,30.4219 67.2719,31.4375 Q67.6938,31.875 68.2094,31.875 Q68.6625,31.875 69.1,31.4375 Q69.6625,30.8906 69.7406,28.2969 L72.0375,28.2969 Z "/><text fill="#000000" font-family="sans-serif" font-size="14" lengthAdjust="spacingAndGlyphs" textLength="32" x="92.15" y="26.5332">Tags</text><text fill="#000000" font-family="sans-serif" font-size="10" lengthAdjust="spacingAndGlyphs" textLength="51" x="82.65" y="39.9902">app.model</text><line style="stroke: #A80036; stroke-width: 1.5;" x1="53" x2="137" y1="47.1875" y2="47.1875"/><ellipse cx="63" cy="58.1875" fill="#84BE84" rx="3" ry="3" style="stroke: #038048; stroke-width: 1.0;"/><text fill="#000000" font-family="sans-serif" font-size="11" lengthAdjust="spacingAndGlyphs" textLength="60" x="72" y="62.6064">Tags(String)</text></a><text fill="#888888" font-family="sans-serif" font-size="10" lengthAdjust="spacingAndGlyphs" textLength="190" x="0" y="86.4043">UMLDoclet 2.0.11, PlantUML 1.2020.15</text><!--MD5=[df15dc613db73916988308c6b55ee1f6]
@startuml
    set namespaceSeparator none
    hide empty fields
    hide empty methods

    class "<size:14>Tags\n<size:10>app.model" as app.model.Tags [[Tags.html]] {
        +Tags(String)
    }

    center footer UMLDoclet 2.0.11, PlantUML 1.2020.15
@enduml

PlantUML version 1.2020.15(Sun Jun 28 20:39:45 JST 2020)
(APACHE source distribution)
Java Runtime: OpenJDK Runtime Environment
JVM: OpenJDK 64-Bit Server VM
Default Encoding: MS932
Language: ja
Country: JP
--></g></svg>