<?xml version="1.0" encoding="UTF-8" standalone="no"?><svg xmlns="http://www.w3.org/2000/svg" xmlns:xlink="http://www.w3.org/1999/xlink" contentScriptType="application/ecmascript" contentStyleType="text/css" height="99px" preserveAspectRatio="none" style="width:202px;height:99px;" version="1.1" viewBox="0 0 202 99" width="202px" zoomAndPan="magnify"><defs><filter height="300%" id="fec7j1zg3kvna" width="300%" x="-1" y="-1"><feGaussianBlur result="blurOut" stdDeviation="2.0"/><feColorMatrix in="blurOut" result="blurOut2" type="matrix" values="0 0 0 0 0 0 0 0 0 0 0 0 0 0 0 0 0 0 .4 0"/><feOffset dx="4.0" dy="4.0" in="blurOut2" result="blurOut3"/><feBlend in="SourceGraphic" in2="blurOut3" mode="normal"/></filter></defs><g><!--MD5=[125618d8c8893a4fb298c8dafa68cee3]
class app.controller.MainController--><a href="MainController.html" target="_top" title="MainController.html" xlink:actuate="onRequest" xlink:href="MainController.html" xlink:show="new" xlink:title="MainController.html" xlink:type="simple"><rect fill="#FEFECE" filter="url(#fec7j1zg3kvna)" height="62.0234" id="app.controller.MainController" style="stroke: #A80036; stroke-width: 1.5;" width="125" x="32.5" y="7"/><ellipse cx="47.95" cy="27.0938" fill="#ADD1B2" rx="11" ry="11" style="stroke: #A80036; stroke-width: 1.0;"/><path d="M51.6375,28.2969 Q51.3875,31.7813 50.2469,32.9375 Q49.2156,33.9531 47.8094,33.9531 Q46.4031,33.9531 45.3719,32.9375 Q43.6219,31.1719 43.6219,27.5 Q43.6219,23.25 45.4969,21.3438 Q46.5438,20.3281 47.8719,20.3281 Q49.2781,20.3281 50.1219,21.1406 Q51.6063,22.6563 51.5281,25.5313 L49.4031,25.5313 Q49.325,23.2031 48.6844,22.5625 Q48.4031,22.2656 47.8719,22.2656 Q47.4188,22.2656 47.0594,22.6406 Q45.825,23.8594 45.825,27.375 Q45.825,30.4219 46.8719,31.4375 Q47.2938,31.875 47.8094,31.875 Q48.2625,31.875 48.7,31.4375 Q49.2625,30.8906 49.3406,28.2969 L51.6375,28.2969 Z "/><text fill="#000000" font-family="sans-serif" font-size="14" lengthAdjust="spacingAndGlyphs" textLength="92" x="62.05" y="26.5332">MainController</text><text fill="#000000" font-family="sans-serif" font-size="10" lengthAdjust="spacingAndGlyphs" textLength="66" x="75.05" y="39.9902">app.controller</text><line style="stroke: #A80036; stroke-width: 1.5;" x1="33.5" x2="156.5" y1="47.1875" y2="47.1875"/><ellipse cx="43.5" cy="58.1875" fill="#84BE84" rx="3" ry="3" style="stroke: #038048; stroke-width: 1.0;"/><text fill="#000000" font-family="sans-serif" font-size="11" lengthAdjust="spacingAndGlyphs" textLength="99" x="52.5" y="62.6064">getTopPage(): String</text></a><text fill="#888888" font-family="sans-serif" font-size="10" lengthAdjust="spacingAndGlyphs" textLength="190" x="0" y="86.4043">UMLDoclet 2.0.11, PlantUML 1.2020.15</text><!--MD5=[07370add3e440821aef7df1cda843417]
@startuml
    set namespaceSeparator none
    hide empty fields
    hide empty methods

    class "<size:14>MainController\n<size:10>app.controller" as app.controller.MainController [[MainController.html]] {
        +getTopPage(): String
    }

    center footer UMLDoclet 2.0.11, PlantUML 1.2020.15
@enduml

PlantUML version 1.2020.15(Sun Jun 28 20:39:45 JST 2020)
(APACHE source distribution)
Java Runtime: OpenJDK Runtime Environment
JVM: OpenJDK 64-Bit Server VM
Default Encoding: MS932
Language: ja
Country: JP
--></g></svg>