<?xml version="1.0" encoding="UTF-8" standalone="no"?><svg xmlns="http://www.w3.org/2000/svg" xmlns:xlink="http://www.w3.org/1999/xlink" contentScriptType="application/ecmascript" contentStyleType="text/css" height="437px" preserveAspectRatio="none" style="width:779px;height:437px;" version="1.1" viewBox="0 0 779 437" width="779px" zoomAndPan="magnify"><defs><filter height="300%" id="fn7evp4xq08bl" width="300%" x="-1" y="-1"><feGaussianBlur result="blurOut" stdDeviation="2.0"/><feColorMatrix in="blurOut" result="blurOut2" type="matrix" values="0 0 0 0 0 0 0 0 0 0 0 0 0 0 0 0 0 0 .4 0"/><feOffset dx="4.0" dy="4.0" in="blurOut2" result="blurOut3"/><feBlend in="SourceGraphic" in2="blurOut3" mode="normal"/></filter></defs><g><!--MD5=[061d866d4ee9386b6f0ad1e5ce66b8f6]
cluster app.controller--><polygon fill="#FFFFFF" filter="url(#fn7evp4xq08bl)" points="16,6,121,6,128,29.6094,757,29.6094,757,408,16,408,16,6" style="stroke: #000000; stroke-width: 1.5;"/><line style="stroke: #000000; stroke-width: 1.5;" x1="16" x2="128" y1="29.6094" y2="29.6094"/><text fill="#000000" font-family="sans-serif" font-size="14" font-weight="bold" lengthAdjust="spacingAndGlyphs" textLength="99" x="20" y="22.5332">app.controller</text><!--MD5=[736143e21a88907e466cf6d93d0a2120]
class app.controller.AppRestController--><a href="AppRestController.html" target="_top" title="AppRestController.html" xlink:actuate="onRequest" xlink:href="AppRestController.html" xlink:show="new" xlink:title="AppRestController.html" xlink:type="simple"><rect fill="#FEFECE" filter="url(#fn7evp4xq08bl)" height="117.1797" id="app.controller.AppRestController" style="stroke: #A80036; stroke-width: 1.5;" width="171" x="64.5" y="42"/><ellipse cx="96.6" cy="58" fill="#ADD1B2" rx="11" ry="11" style="stroke: #A80036; stroke-width: 1.0;"/><path d="M100.2875,59.2031 Q100.0375,62.6875 98.8969,63.8438 Q97.8656,64.8594 96.4594,64.8594 Q95.0531,64.8594 94.0219,63.8438 Q92.2719,62.0781 92.2719,58.4063 Q92.2719,54.1563 94.1469,52.25 Q95.1938,51.2344 96.5219,51.2344 Q97.9281,51.2344 98.7719,52.0469 Q100.2563,53.5625 100.1781,56.4375 L98.0531,56.4375 Q97.975,54.1094 97.3344,53.4688 Q97.0531,53.1719 96.5219,53.1719 Q96.0688,53.1719 95.7094,53.5469 Q94.475,54.7656 94.475,58.2813 Q94.475,61.3281 95.5219,62.3438 Q95.9438,62.7813 96.4594,62.7813 Q96.9125,62.7813 97.35,62.3438 Q97.9125,61.7969 97.9906,59.2031 L100.2875,59.2031 Z "/><text fill="#000000" font-family="sans-serif" font-size="12" lengthAdjust="spacingAndGlyphs" textLength="101" x="114.4" y="62.9102">AppRestController</text><line style="stroke: #A80036; stroke-width: 1.5;" x1="65.5" x2="234.5" y1="74" y2="74"/><line style="stroke: #A80036; stroke-width: 1.5;" x1="65.5" x2="234.5" y1="82" y2="82"/><ellipse cx="75.5" cy="93" fill="#84BE84" rx="3" ry="3" style="stroke: #038048; stroke-width: 1.0;"/><text fill="#000000" font-family="sans-serif" font-size="11" lengthAdjust="spacingAndGlyphs" textLength="94" x="84.5" y="97.4189">getAppList(): String</text><ellipse cx="75.5" cy="106.8359" fill="#84BE84" rx="3" ry="3" style="stroke: #038048; stroke-width: 1.0;"/><text fill="#000000" font-family="sans-serif" font-size="11" lengthAdjust="spacingAndGlyphs" textLength="115" x="84.5" y="111.2549">registApp(Apps): String</text><ellipse cx="75.5" cy="120.6719" fill="#84BE84" rx="3" ry="3" style="stroke: #038048; stroke-width: 1.0;"/><text fill="#000000" font-family="sans-serif" font-size="11" lengthAdjust="spacingAndGlyphs" textLength="145" x="84.5" y="125.0908">getAppUserList(String): String</text><ellipse cx="75.5" cy="134.5078" fill="#84BE84" rx="3" ry="3" style="stroke: #038048; stroke-width: 1.0;"/><text fill="#000000" font-family="sans-serif" font-size="11" lengthAdjust="spacingAndGlyphs" textLength="145" x="84.5" y="138.9268">registUserApp(Integer): String</text><ellipse cx="75.5" cy="148.3438" fill="#84BE84" rx="3" ry="3" style="stroke: #038048; stroke-width: 1.0;"/><text fill="#000000" font-family="sans-serif" font-size="11" lengthAdjust="spacingAndGlyphs" textLength="131" x="84.5" y="152.7627">removeApp(Integer): String</text></a><!--MD5=[125618d8c8893a4fb298c8dafa68cee3]
class app.controller.MainController--><a href="MainController.html" target="_top" title="MainController.html" xlink:actuate="onRequest" xlink:href="MainController.html" xlink:show="new" xlink:title="MainController.html" xlink:type="simple"><rect fill="#FEFECE" filter="url(#fn7evp4xq08bl)" height="61.8359" id="app.controller.MainController" style="stroke: #A80036; stroke-width: 1.5;" width="125" x="270.5" y="69.5"/><ellipse cx="291.35" cy="85.5" fill="#ADD1B2" rx="11" ry="11" style="stroke: #A80036; stroke-width: 1.0;"/><path d="M295.0375,86.7031 Q294.7875,90.1875 293.6469,91.3438 Q292.6156,92.3594 291.2094,92.3594 Q289.8031,92.3594 288.7719,91.3438 Q287.0219,89.5781 287.0219,85.9063 Q287.0219,81.6563 288.8969,79.75 Q289.9438,78.7344 291.2719,78.7344 Q292.6781,78.7344 293.5219,79.5469 Q295.0063,81.0625 294.9281,83.9375 L292.8031,83.9375 Q292.725,81.6094 292.0844,80.9688 Q291.8031,80.6719 291.2719,80.6719 Q290.8188,80.6719 290.4594,81.0469 Q289.225,82.2656 289.225,85.7813 Q289.225,88.8281 290.2719,89.8438 Q290.6938,90.2813 291.2094,90.2813 Q291.6625,90.2813 292.1,89.8438 Q292.6625,89.2969 292.7406,86.7031 L295.0375,86.7031 Z "/><text fill="#000000" font-family="sans-serif" font-size="12" lengthAdjust="spacingAndGlyphs" textLength="80" x="306.65" y="90.4102">MainController</text><line style="stroke: #A80036; stroke-width: 1.5;" x1="271.5" x2="394.5" y1="101.5" y2="101.5"/><line style="stroke: #A80036; stroke-width: 1.5;" x1="271.5" x2="394.5" y1="109.5" y2="109.5"/><ellipse cx="281.5" cy="120.5" fill="#84BE84" rx="3" ry="3" style="stroke: #038048; stroke-width: 1.0;"/><text fill="#000000" font-family="sans-serif" font-size="11" lengthAdjust="spacingAndGlyphs" textLength="99" x="290.5" y="124.9189">getTopPage(): String</text></a><!--MD5=[9d063a46a0e53336fbee81d26253bb75]
class app.controller.NortificationRestController--><a href="NortificationRestController.html" target="_top" title="NortificationRestController.html" xlink:actuate="onRequest" xlink:href="NortificationRestController.html" xlink:show="new" xlink:title="NortificationRestController.html" xlink:type="simple"><rect fill="#FEFECE" filter="url(#fn7evp4xq08bl)" height="75.6719" id="app.controller.NortificationRestController" style="stroke: #A80036; stroke-width: 1.5;" width="225" x="430.5" y="62.5"/><ellipse cx="467.1" cy="78.5" fill="#ADD1B2" rx="11" ry="11" style="stroke: #A80036; stroke-width: 1.0;"/><path d="M470.7875,79.7031 Q470.5375,83.1875 469.3969,84.3438 Q468.3656,85.3594 466.9594,85.3594 Q465.5531,85.3594 464.5219,84.3438 Q462.7719,82.5781 462.7719,78.9063 Q462.7719,74.6563 464.6469,72.75 Q465.6938,71.7344 467.0219,71.7344 Q468.4281,71.7344 469.2719,72.5469 Q470.7563,74.0625 470.6781,76.9375 L468.5531,76.9375 Q468.475,74.6094 467.8344,73.9688 Q467.5531,73.6719 467.0219,73.6719 Q466.5688,73.6719 466.2094,74.0469 Q464.975,75.2656 464.975,78.7813 Q464.975,81.8281 466.0219,82.8438 Q466.4438,83.2813 466.9594,83.2813 Q467.4125,83.2813 467.85,82.8438 Q468.4125,82.2969 468.4906,79.7031 L470.7875,79.7031 Z "/><text fill="#000000" font-family="sans-serif" font-size="12" lengthAdjust="spacingAndGlyphs" textLength="145" x="485.9" y="83.4102">NortificationRestController</text><line style="stroke: #A80036; stroke-width: 1.5;" x1="431.5" x2="654.5" y1="94.5" y2="94.5"/><line style="stroke: #A80036; stroke-width: 1.5;" x1="431.5" x2="654.5" y1="102.5" y2="102.5"/><ellipse cx="441.5" cy="113.5" fill="#84BE84" rx="3" ry="3" style="stroke: #038048; stroke-width: 1.0;"/><text fill="#000000" font-family="sans-serif" font-size="11" lengthAdjust="spacingAndGlyphs" textLength="142" x="450.5" y="117.9189">getNortificationList(int): String</text><ellipse cx="441.5" cy="127.3359" fill="#84BE84" rx="3" ry="3" style="stroke: #038048; stroke-width: 1.0;"/><text fill="#000000" font-family="sans-serif" font-size="11" lengthAdjust="spacingAndGlyphs" textLength="199" x="450.5" y="131.7549">postNortification(int, List&lt;Integer&gt;): String</text></a><!--MD5=[77318a3f3122c45b34b9d9c018b3900c]
class app.controller.SettingRestController--><a href="SettingRestController.html" target="_top" title="SettingRestController.html" xlink:actuate="onRequest" xlink:href="SettingRestController.html" xlink:show="new" xlink:title="SettingRestController.html" xlink:type="simple"><rect fill="#FEFECE" filter="url(#fn7evp4xq08bl)" height="172.5234" id="app.controller.SettingRestController" style="stroke: #A80036; stroke-width: 1.5;" width="235" x="32.5" y="219"/><ellipse cx="86.75" cy="235" fill="#ADD1B2" rx="11" ry="11" style="stroke: #A80036; stroke-width: 1.0;"/><path d="M90.4375,236.2031 Q90.1875,239.6875 89.0469,240.8438 Q88.0156,241.8594 86.6094,241.8594 Q85.2031,241.8594 84.1719,240.8438 Q82.4219,239.0781 82.4219,235.4063 Q82.4219,231.1563 84.2969,229.25 Q85.3438,228.2344 86.6719,228.2344 Q88.0781,228.2344 88.9219,229.0469 Q90.4063,230.5625 90.3281,233.4375 L88.2031,233.4375 Q88.125,231.1094 87.4844,230.4688 Q87.2031,230.1719 86.6719,230.1719 Q86.2188,230.1719 85.8594,230.5469 Q84.625,231.7656 84.625,235.2813 Q84.625,238.3281 85.6719,239.3438 Q86.0938,239.7813 86.6094,239.7813 Q87.0625,239.7813 87.5,239.3438 Q88.0625,238.7969 88.1406,236.2031 L90.4375,236.2031 Z "/><text fill="#000000" font-family="sans-serif" font-size="12" lengthAdjust="spacingAndGlyphs" textLength="118" x="107.25" y="239.9102">SettingRestController</text><line style="stroke: #A80036; stroke-width: 1.5;" x1="33.5" x2="266.5" y1="251" y2="251"/><line style="stroke: #A80036; stroke-width: 1.5;" x1="33.5" x2="266.5" y1="259" y2="259"/><ellipse cx="43.5" cy="270" fill="#84BE84" rx="3" ry="3" style="stroke: #038048; stroke-width: 1.0;"/><text fill="#000000" font-family="sans-serif" font-size="11" lengthAdjust="spacingAndGlyphs" textLength="114" x="52.5" y="274.4189">postAuth(String): String</text><ellipse cx="43.5" cy="283.8359" fill="#84BE84" rx="3" ry="3" style="stroke: #038048; stroke-width: 1.0;"/><text fill="#000000" font-family="sans-serif" font-size="11" lengthAdjust="spacingAndGlyphs" textLength="131" x="52.5" y="288.2549">getProfileSetting(int): String</text><ellipse cx="43.5" cy="297.6719" fill="#84BE84" rx="3" ry="3" style="stroke: #038048; stroke-width: 1.0;"/><text fill="#000000" font-family="sans-serif" font-size="11" lengthAdjust="spacingAndGlyphs" textLength="182" x="52.5" y="302.0908">postProfileSetting(int, Settings): String</text><ellipse cx="43.5" cy="311.5078" fill="#84BE84" rx="3" ry="3" style="stroke: #038048; stroke-width: 1.0;"/><text fill="#000000" font-family="sans-serif" font-size="11" lengthAdjust="spacingAndGlyphs" textLength="142" x="52.5" y="315.9268">getAccountSetting(int): String</text><ellipse cx="43.5" cy="325.3438" fill="#84BE84" rx="3" ry="3" style="stroke: #038048; stroke-width: 1.0;"/><text fill="#000000" font-family="sans-serif" font-size="11" lengthAdjust="spacingAndGlyphs" textLength="193" x="52.5" y="329.7627">postAccountSetting(int, Settings): String</text><ellipse cx="43.5" cy="339.1797" fill="#84BE84" rx="3" ry="3" style="stroke: #038048; stroke-width: 1.0;"/><text fill="#000000" font-family="sans-serif" font-size="11" lengthAdjust="spacingAndGlyphs" textLength="158" x="52.5" y="343.5986">getNortificationSetting(int): String</text><ellipse cx="43.5" cy="353.0156" fill="#84BE84" rx="3" ry="3" style="stroke: #038048; stroke-width: 1.0;"/><text fill="#000000" font-family="sans-serif" font-size="11" lengthAdjust="spacingAndGlyphs" textLength="209" x="52.5" y="357.4346">postNortificationSetting(int, Settings): String</text><ellipse cx="43.5" cy="366.8516" fill="#84BE84" rx="3" ry="3" style="stroke: #038048; stroke-width: 1.0;"/><text fill="#000000" font-family="sans-serif" font-size="11" lengthAdjust="spacingAndGlyphs" textLength="151" x="52.5" y="371.2705">getCustomizeSetting(int): String</text><ellipse cx="43.5" cy="380.6875" fill="#84BE84" rx="3" ry="3" style="stroke: #038048; stroke-width: 1.0;"/><text fill="#000000" font-family="sans-serif" font-size="11" lengthAdjust="spacingAndGlyphs" textLength="202" x="52.5" y="385.1064">postCustomizeSetting(int, Settings): String</text></a><!--MD5=[dabe619700839e220356180327558f1a]
class app.controller.TagRestController--><a href="TagRestController.html" target="_top" title="TagRestController.html" xlink:actuate="onRequest" xlink:href="TagRestController.html" xlink:show="new" xlink:title="TagRestController.html" xlink:type="simple"><rect fill="#FEFECE" filter="url(#fn7evp4xq08bl)" height="103.3438" id="app.controller.TagRestController" style="stroke: #A80036; stroke-width: 1.5;" width="173" x="302.5" y="254"/><ellipse cx="335.5" cy="270" fill="#ADD1B2" rx="11" ry="11" style="stroke: #A80036; stroke-width: 1.0;"/><path d="M339.1875,271.2031 Q338.9375,274.6875 337.7969,275.8438 Q336.7656,276.8594 335.3594,276.8594 Q333.9531,276.8594 332.9219,275.8438 Q331.1719,274.0781 331.1719,270.4063 Q331.1719,266.1563 333.0469,264.25 Q334.0938,263.2344 335.4219,263.2344 Q336.8281,263.2344 337.6719,264.0469 Q339.1563,265.5625 339.0781,268.4375 L336.9531,268.4375 Q336.875,266.1094 336.2344,265.4688 Q335.9531,265.1719 335.4219,265.1719 Q334.9688,265.1719 334.6094,265.5469 Q333.375,266.7656 333.375,270.2813 Q333.375,273.3281 334.4219,274.3438 Q334.8438,274.7813 335.3594,274.7813 Q335.8125,274.7813 336.25,274.3438 Q336.8125,273.7969 336.8906,271.2031 L339.1875,271.2031 Z "/><text fill="#000000" font-family="sans-serif" font-size="12" lengthAdjust="spacingAndGlyphs" textLength="101" x="353.5" y="274.9102">TagRestController</text><line style="stroke: #A80036; stroke-width: 1.5;" x1="303.5" x2="474.5" y1="286" y2="286"/><line style="stroke: #A80036; stroke-width: 1.5;" x1="303.5" x2="474.5" y1="294" y2="294"/><ellipse cx="313.5" cy="305" fill="#84BE84" rx="3" ry="3" style="stroke: #038048; stroke-width: 1.0;"/><text fill="#000000" font-family="sans-serif" font-size="11" lengthAdjust="spacingAndGlyphs" textLength="92" x="322.5" y="309.4189">getTagList(): String</text><ellipse cx="313.5" cy="318.8359" fill="#84BE84" rx="3" ry="3" style="stroke: #038048; stroke-width: 1.0;"/><text fill="#000000" font-family="sans-serif" font-size="11" lengthAdjust="spacingAndGlyphs" textLength="143" x="322.5" y="323.2549">getTagUserList(String): String</text><ellipse cx="313.5" cy="332.6719" fill="#84BE84" rx="3" ry="3" style="stroke: #038048; stroke-width: 1.0;"/><text fill="#000000" font-family="sans-serif" font-size="11" lengthAdjust="spacingAndGlyphs" textLength="138" x="322.5" y="337.0908">registUserTag(String): String</text><ellipse cx="313.5" cy="346.5078" fill="#84BE84" rx="3" ry="3" style="stroke: #038048; stroke-width: 1.0;"/><text fill="#000000" font-family="sans-serif" font-size="11" lengthAdjust="spacingAndGlyphs" textLength="147" x="322.5" y="350.9268">removeUserTag(String): String</text></a><!--MD5=[ad1ab14734226e3952b5c9c555c1577c]
class app.controller.UserRestController--><a href="UserRestController.html" target="_top" title="UserRestController.html" xlink:actuate="onRequest" xlink:href="UserRestController.html" xlink:show="new" xlink:title="UserRestController.html" xlink:type="simple"><rect fill="#FEFECE" filter="url(#fn7evp4xq08bl)" height="144.8516" id="app.controller.UserRestController" style="stroke: #A80036; stroke-width: 1.5;" width="230" x="511" y="233"/><ellipse cx="568.25" cy="249" fill="#ADD1B2" rx="11" ry="11" style="stroke: #A80036; stroke-width: 1.0;"/><path d="M571.9375,250.2031 Q571.6875,253.6875 570.5469,254.8438 Q569.5156,255.8594 568.1094,255.8594 Q566.7031,255.8594 565.6719,254.8438 Q563.9219,253.0781 563.9219,249.4063 Q563.9219,245.1563 565.7969,243.25 Q566.8438,242.2344 568.1719,242.2344 Q569.5781,242.2344 570.4219,243.0469 Q571.9063,244.5625 571.8281,247.4375 L569.7031,247.4375 Q569.625,245.1094 568.9844,244.4688 Q568.7031,244.1719 568.1719,244.1719 Q567.7188,244.1719 567.3594,244.5469 Q566.125,245.7656 566.125,249.2813 Q566.125,252.3281 567.1719,253.3438 Q567.5938,253.7813 568.1094,253.7813 Q568.5625,253.7813 569,253.3438 Q569.5625,252.7969 569.6406,250.2031 L571.9375,250.2031 Z "/><text fill="#000000" font-family="sans-serif" font-size="12" lengthAdjust="spacingAndGlyphs" textLength="107" x="588.75" y="253.9102">UserRestController</text><line style="stroke: #A80036; stroke-width: 1.5;" x1="512" x2="740" y1="265" y2="265"/><line style="stroke: #A80036; stroke-width: 1.5;" x1="512" x2="740" y1="273" y2="273"/><ellipse cx="522" cy="284" fill="#84BE84" rx="3" ry="3" style="stroke: #038048; stroke-width: 1.0;"/><text fill="#000000" font-family="sans-serif" font-size="11" lengthAdjust="spacingAndGlyphs" textLength="126" x="531" y="288.4189">getUserInfo(String): String</text><ellipse cx="522" cy="297.8359" fill="#84BE84" rx="3" ry="3" style="stroke: #038048; stroke-width: 1.0;"/><text fill="#000000" font-family="sans-serif" font-size="11" lengthAdjust="spacingAndGlyphs" textLength="204" x="531" y="302.2549">postUserInfo(Users, BindingResult): String</text><ellipse cx="522" cy="311.6719" fill="#84BE84" rx="3" ry="3" style="stroke: #038048; stroke-width: 1.0;"/><text fill="#000000" font-family="sans-serif" font-size="11" lengthAdjust="spacingAndGlyphs" textLength="97" x="531" y="316.0908">delUserInfo(): String</text><ellipse cx="522" cy="325.5078" fill="#84BE84" rx="3" ry="3" style="stroke: #038048; stroke-width: 1.0;"/><text fill="#000000" font-family="sans-serif" font-size="11" lengthAdjust="spacingAndGlyphs" textLength="134" x="531" y="329.9268">getFollowList(String): String</text><ellipse cx="522" cy="339.3438" fill="#84BE84" rx="3" ry="3" style="stroke: #038048; stroke-width: 1.0;"/><text fill="#000000" font-family="sans-serif" font-size="11" lengthAdjust="spacingAndGlyphs" textLength="125" x="531" y="343.7627">addFollow(Integer): String</text><ellipse cx="522" cy="353.1797" fill="#84BE84" rx="3" ry="3" style="stroke: #038048; stroke-width: 1.0;"/><text fill="#000000" font-family="sans-serif" font-size="11" lengthAdjust="spacingAndGlyphs" textLength="121" x="531" y="357.5986">delFollow(Integer): String</text><ellipse cx="522" cy="367.0156" fill="#84BE84" rx="3" ry="3" style="stroke: #038048; stroke-width: 1.0;"/><text fill="#000000" font-family="sans-serif" font-size="11" lengthAdjust="spacingAndGlyphs" textLength="144" x="531" y="371.4346">getFollowerList(String): String</text></a><!--MD5=[ca34b3f4a074d12d827d4b9e4a2ab676]
link app.controller.AppRestController to app.controller.MainController--><!--MD5=[8d547d9126c4380106174ac83ddd5274]
link app.controller.MainController to app.controller.NortificationRestController--><!--MD5=[cb879bdf70bba0f5de3eba21b2e59877]
link app.controller.AppRestController to app.controller.SettingRestController--><!--MD5=[f6df07d88387e7b5e74401f11afa340f]
link app.controller.SettingRestController to app.controller.TagRestController--><!--MD5=[85aadc86ea1ecd920e5230335b26eccc]
link app.controller.TagRestController to app.controller.UserRestController--><text fill="#888888" font-family="sans-serif" font-size="10" lengthAdjust="spacingAndGlyphs" textLength="190" x="285.5" y="424.3809">UMLDoclet 2.0.11, PlantUML 1.2020.15</text><!--MD5=[6fd14797d12732151e6762c38ce86e23]
@startuml
    namespace app.controller {

        class AppRestController [[AppRestController.html]] {
            +getAppList(): String
            +registApp(Apps): String
            +getAppUserList(String): String
            +registUserApp(Integer): String
            +removeApp(Integer): String
        }

        class MainController [[MainController.html]] {
            +getTopPage(): String
        }

        class NortificationRestController [[NortificationRestController.html]] {
            +getNortificationList(int): String
            +postNortification(int, List<Integer>): String
        }

        class SettingRestController [[SettingRestController.html]] {
            +postAuth(String): String
            +getProfileSetting(int): String
            +postProfileSetting(int, Settings): String
            +getAccountSetting(int): String
            +postAccountSetting(int, Settings): String
            +getNortificationSetting(int): String
            +postNortificationSetting(int, Settings): String
            +getCustomizeSetting(int): String
            +postCustomizeSetting(int, Settings): String
        }

        class TagRestController [[TagRestController.html]] {
            +getTagList(): String
            +getTagUserList(String): String
            +registUserTag(String): String
            +removeUserTag(String): String
        }

        class UserRestController [[UserRestController.html]] {
            +getUserInfo(String): String
            +postUserInfo(Users, BindingResult): String
            +delUserInfo(): String
            +getFollowList(String): String
            +addFollow(Integer): String
            +delFollow(Integer): String
            +getFollowerList(String): String
        }

    }

    center footer UMLDoclet 2.0.11, PlantUML 1.2020.15
@enduml

PlantUML version 1.2020.15(Sun Jun 28 20:39:45 JST 2020)
(APACHE source distribution)
Java Runtime: OpenJDK Runtime Environment
JVM: OpenJDK 64-Bit Server VM
Default Encoding: MS932
Language: ja
Country: JP
--></g></svg>