<?xml version="1.0" encoding="UTF-8" standalone="no"?><svg xmlns="http://www.w3.org/2000/svg" xmlns:xlink="http://www.w3.org/1999/xlink" contentScriptType="application/ecmascript" contentStyleType="text/css" height="184px" preserveAspectRatio="none" style="width:254px;height:184px;" version="1.1" viewBox="0 0 254 184" width="254px" zoomAndPan="magnify"><defs><filter height="300%" id="fn7m05q1th6dh" width="300%" x="-1" y="-1"><feGaussianBlur result="blurOut" stdDeviation="2.0"/><feColorMatrix in="blurOut" result="blurOut2" type="matrix" values="0 0 0 0 0 0 0 0 0 0 0 0 0 0 0 0 0 0 .4 0"/><feOffset dx="4.0" dy="4.0" in="blurOut2" result="blurOut3"/><feBlend in="SourceGraphic" in2="blurOut3" mode="normal"/></filter></defs><g><!--MD5=[7723a07115b8204e73fea2e2b3f84d47]
class app.config.JView.follow--><a href="JView.follow.html" target="_top" title="JView.follow.html" xlink:actuate="onRequest" xlink:href="JView.follow.html" xlink:show="new" xlink:title="JView.follow.html" xlink:type="simple"><rect fill="#FEFECE" filter="url(#fn7m05q1th6dh)" height="40.1875" id="app.config.JView.follow" style="stroke: #A80036; stroke-width: 1.5;" width="107" x="74.5" y="107"/><ellipse cx="89.5" cy="127.0938" fill="#B4A7E5" rx="11" ry="11" style="stroke: #A80036; stroke-width: 1.0;"/><path d="M90.6719,131.8125 L91.4063,131.8125 L91.4063,133.9531 L87.7188,133.9531 L87.7188,131.8125 L88.4531,131.8125 L88.4531,122.4688 L87.7188,122.4688 L87.7188,120.3281 L91.4063,120.3281 L91.4063,122.4688 L90.6719,122.4688 L90.6719,131.8125 Z "/><text fill="#000000" font-family="sans-serif" font-size="14" font-style="italic" lengthAdjust="spacingAndGlyphs" textLength="75" x="103.5" y="126.5332">JView.follow</text><text fill="#000000" font-family="sans-serif" font-size="10" font-style="italic" lengthAdjust="spacingAndGlyphs" textLength="50" x="116" y="139.9902">app.config</text></a><!--MD5=[04005d5ff6f2c7a1cf06c6022dc7dcbc]
class app.config.JView.Public--><a href="JView.Public.html" target="_top" title="JView.Public.html" xlink:actuate="onRequest" xlink:href="JView.Public.html" xlink:show="new" xlink:title="JView.Public.html" xlink:type="simple"><rect fill="#FEFECE" filter="url(#fn7m05q1th6dh)" height="40.1875" id="app.config.JView.Public" style="stroke: #A80036; stroke-width: 1.5;" width="110" x="7" y="7"/><ellipse cx="22" cy="27.0938" fill="#B4A7E5" rx="11" ry="11" style="stroke: #A80036; stroke-width: 1.0;"/><path d="M23.1719,31.8125 L23.9063,31.8125 L23.9063,33.9531 L20.2188,33.9531 L20.2188,31.8125 L20.9531,31.8125 L20.9531,22.4688 L20.2188,22.4688 L20.2188,20.3281 L23.9063,20.3281 L23.9063,22.4688 L23.1719,22.4688 L23.1719,31.8125 Z "/><text fill="#000000" font-family="sans-serif" font-size="14" font-style="italic" lengthAdjust="spacingAndGlyphs" textLength="78" x="36" y="26.5332">JView.Public</text><text fill="#000000" font-family="sans-serif" font-size="10" font-style="italic" lengthAdjust="spacingAndGlyphs" textLength="50" x="50" y="39.9902">app.config</text></a><!--MD5=[c4589ec187783cdae14d7e455754229d]
class app.config.JView--><a href="JView.html" target="_top" title="JView.html" xlink:actuate="onRequest" xlink:href="JView.html" xlink:show="new" xlink:title="JView.html" xlink:type="simple"><rect fill="#FEFECE" filter="url(#fn7m05q1th6dh)" height="40.1875" id="app.config.JView" style="stroke: #A80036; stroke-width: 1.5;" width="83" x="152.5" y="7"/><ellipse cx="167.5" cy="27.0938" fill="#ADD1B2" rx="11" ry="11" style="stroke: #A80036; stroke-width: 1.0;"/><path d="M171.1875,28.2969 Q170.9375,31.7813 169.7969,32.9375 Q168.7656,33.9531 167.3594,33.9531 Q165.9531,33.9531 164.9219,32.9375 Q163.1719,31.1719 163.1719,27.5 Q163.1719,23.25 165.0469,21.3438 Q166.0938,20.3281 167.4219,20.3281 Q168.8281,20.3281 169.6719,21.1406 Q171.1563,22.6563 171.0781,25.5313 L168.9531,25.5313 Q168.875,23.2031 168.2344,22.5625 Q167.9531,22.2656 167.4219,22.2656 Q166.9688,22.2656 166.6094,22.6406 Q165.375,23.8594 165.375,27.375 Q165.375,30.4219 166.4219,31.4375 Q166.8438,31.875 167.3594,31.875 Q167.8125,31.875 168.25,31.4375 Q168.8125,30.8906 168.8906,28.2969 L171.1875,28.2969 Z "/><text fill="#000000" font-family="sans-serif" font-size="14" lengthAdjust="spacingAndGlyphs" textLength="35" x="189.5" y="26.5332">JView</text><text fill="#000000" font-family="sans-serif" font-size="10" lengthAdjust="spacingAndGlyphs" textLength="51" x="181.5" y="39.9902">app.config</text></a><!--MD5=[792bbd1a5fbe56b6f9f397f26e74014b]
reverse link app.config.JView.Public to app.config.JView.follow--><path d="M86.4566,64.3143 C96.1311,78.6795 106.8577,94.6069 114.988,106.6786 " fill="none" id="app.config.JView.Public&lt;-app.config.JView.follow" style="stroke: #A80036; stroke-width: 1.0;"/><polygon fill="none" points="80.4055,67.8606,75.0395,47.3616,92.0176,60.0402,80.4055,67.8606" style="stroke: #A80036; stroke-width: 1.0;"/><!--MD5=[4f26d35d58dff0d81af8f77f8193f32a]
reverse link app.config.JView to app.config.JView.follow--><path d="M172.411,60.057 C162.04,75.4555 149.955,93.3998 141.012,106.6786 " fill="none" id="app.config.JView&lt;-app.config.JView.follow" style="stroke: #A80036; stroke-width: 1.0;"/><ellipse cx="176.4921" cy="53.997" fill="#FFFFFF" rx="8" ry="8" style="stroke: #A80036; stroke-width: 1.0;"/><line style="stroke: #A80036; stroke-width: 1.0;" x1="172.0232" x2="180.961" y1="60.6325" y2="47.3616"/><line style="stroke: #A80036; stroke-width: 1.0;" x1="169.8567" x2="183.1276" y1="49.5282" y2="58.4659"/><text fill="#888888" font-family="sans-serif" font-size="10" lengthAdjust="spacingAndGlyphs" textLength="190" x="23.25" y="170.5684">UMLDoclet 2.0.11, PlantUML 1.2020.15</text><!--MD5=[8e719381eafd66ac11d51d876e1c7aa9]
@startuml
    set namespaceSeparator none
    hide empty fields
    hide empty methods

    interface "<size:14>JView.follow\n<size:10>app.config" as app.config.JView.follow [[JView.follow.html]]

    interface "<size:14>JView.Public\n<size:10>app.config" as app.config.JView.Public [[JView.Public.html]]
    class "<size:14>JView\n<size:10>app.config" as app.config.JView [[JView.html]]

    app.config.JView.Public <|- - app.config.JView.follow
    app.config.JView +- - app.config.JView.follow

    center footer UMLDoclet 2.0.11, PlantUML 1.2020.15
@enduml

PlantUML version 1.2020.15(Sun Jun 28 20:39:45 JST 2020)
(APACHE source distribution)
Java Runtime: OpenJDK Runtime Environment
JVM: OpenJDK 64-Bit Server VM
Default Encoding: MS932
Language: ja
Country: JP
--></g></svg>