<?xml version="1.0" encoding="UTF-8" standalone="no"?><svg xmlns="http://www.w3.org/2000/svg" xmlns:xlink="http://www.w3.org/1999/xlink" contentScriptType="application/ecmascript" contentStyleType="text/css" height="184px" preserveAspectRatio="none" style="width:202px;height:184px;" version="1.1" viewBox="0 0 202 184" width="202px" zoomAndPan="magnify"><defs><filter height="300%" id="f1jpppbxsh4aaj" width="300%" x="-1" y="-1"><feGaussianBlur result="blurOut" stdDeviation="2.0"/><feColorMatrix in="blurOut" result="blurOut2" type="matrix" values="0 0 0 0 0 0 0 0 0 0 0 0 0 0 0 0 0 0 .4 0"/><feOffset dx="4.0" dy="4.0" in="blurOut2" result="blurOut3"/><feBlend in="SourceGraphic" in2="blurOut3" mode="normal"/></filter></defs><g><!--MD5=[455c2d54274498fdae346d715a3db0e7]
class app.config.JView.Ignore--><a href="JView.Ignore.html" target="_top" title="JView.Ignore.html" xlink:actuate="onRequest" xlink:href="JView.Ignore.html" xlink:show="new" xlink:title="JView.Ignore.html" xlink:type="simple"><rect fill="#FEFECE" filter="url(#f1jpppbxsh4aaj)" height="40.1875" id="app.config.JView.Ignore" style="stroke: #A80036; stroke-width: 1.5;" width="113" x="41.5" y="107"/><ellipse cx="56.5" cy="127.0938" fill="#B4A7E5" rx="11" ry="11" style="stroke: #A80036; stroke-width: 1.0;"/><path d="M57.6719,131.8125 L58.4063,131.8125 L58.4063,133.9531 L54.7188,133.9531 L54.7188,131.8125 L55.4531,131.8125 L55.4531,122.4688 L54.7188,122.4688 L54.7188,120.3281 L58.4063,120.3281 L58.4063,122.4688 L57.6719,122.4688 L57.6719,131.8125 Z "/><text fill="#000000" font-family="sans-serif" font-size="14" font-style="italic" lengthAdjust="spacingAndGlyphs" textLength="81" x="70.5" y="126.5332">JView.Ignore</text><text fill="#000000" font-family="sans-serif" font-size="10" font-style="italic" lengthAdjust="spacingAndGlyphs" textLength="50" x="86" y="139.9902">app.config</text></a><!--MD5=[c4589ec187783cdae14d7e455754229d]
class app.config.JView--><a href="JView.html" target="_top" title="JView.html" xlink:actuate="onRequest" xlink:href="JView.html" xlink:show="new" xlink:title="JView.html" xlink:type="simple"><rect fill="#FEFECE" filter="url(#f1jpppbxsh4aaj)" height="40.1875" id="app.config.JView" style="stroke: #A80036; stroke-width: 1.5;" width="83" x="56.5" y="7"/><ellipse cx="71.5" cy="27.0938" fill="#ADD1B2" rx="11" ry="11" style="stroke: #A80036; stroke-width: 1.0;"/><path d="M75.1875,28.2969 Q74.9375,31.7813 73.7969,32.9375 Q72.7656,33.9531 71.3594,33.9531 Q69.9531,33.9531 68.9219,32.9375 Q67.1719,31.1719 67.1719,27.5 Q67.1719,23.25 69.0469,21.3438 Q70.0938,20.3281 71.4219,20.3281 Q72.8281,20.3281 73.6719,21.1406 Q75.1563,22.6563 75.0781,25.5313 L72.9531,25.5313 Q72.875,23.2031 72.2344,22.5625 Q71.9531,22.2656 71.4219,22.2656 Q70.9688,22.2656 70.6094,22.6406 Q69.375,23.8594 69.375,27.375 Q69.375,30.4219 70.4219,31.4375 Q70.8438,31.875 71.3594,31.875 Q71.8125,31.875 72.25,31.4375 Q72.8125,30.8906 72.8906,28.2969 L75.1875,28.2969 Z "/><text fill="#000000" font-family="sans-serif" font-size="14" lengthAdjust="spacingAndGlyphs" textLength="35" x="93.5" y="26.5332">JView</text><text fill="#000000" font-family="sans-serif" font-size="10" lengthAdjust="spacingAndGlyphs" textLength="51" x="85.5" y="39.9902">app.config</text></a><!--MD5=[4dfc2cc8a66fd13ce752bacf6d9f9494]
reverse link app.config.JView to app.config.JView.Ignore--><path d="M98,62.4087 C98,77.2562 98,94.0704 98,106.6786 " fill="none" id="app.config.JView&lt;-app.config.JView.Ignore" style="stroke: #A80036; stroke-width: 1.0;"/><ellipse cx="98.0001" cy="55.3616" fill="#FFFFFF" rx="8" ry="8" style="stroke: #A80036; stroke-width: 1.0;"/><line style="stroke: #A80036; stroke-width: 1.0;" x1="98.0002" x2="98" y1="63.3616" y2="47.3616"/><line style="stroke: #A80036; stroke-width: 1.0;" x1="90.0001" x2="106.0001" y1="55.3617" y2="55.3615"/><text fill="#888888" font-family="sans-serif" font-size="10" lengthAdjust="spacingAndGlyphs" textLength="190" x="0" y="170.5684">UMLDoclet 2.0.11, PlantUML 1.2020.15</text><!--MD5=[3db8ab5c7573f777619ece7dfecf839c]
@startuml
    set namespaceSeparator none
    hide empty fields
    hide empty methods

    interface "<size:14>JView.Ignore\n<size:10>app.config" as app.config.JView.Ignore [[JView.Ignore.html]]

    class "<size:14>JView\n<size:10>app.config" as app.config.JView [[JView.html]]

    app.config.JView +- - app.config.JView.Ignore

    center footer UMLDoclet 2.0.11, PlantUML 1.2020.15
@enduml

PlantUML version 1.2020.15(Sun Jun 28 20:39:45 JST 2020)
(APACHE source distribution)
Java Runtime: OpenJDK Runtime Environment
JVM: OpenJDK 64-Bit Server VM
Default Encoding: MS932
Language: ja
Country: JP
--></g></svg>