<?xml version="1.0" encoding="UTF-8" standalone="no"?><svg xmlns="http://www.w3.org/2000/svg" xmlns:xlink="http://www.w3.org/1999/xlink" contentScriptType="application/ecmascript" contentStyleType="text/css" height="205px" preserveAspectRatio="none" style="width:365px;height:205px;" version="1.1" viewBox="0 0 365 205" width="365px" zoomAndPan="magnify"><defs><filter height="300%" id="f1w92ucngbzj6y" width="300%" x="-1" y="-1"><feGaussianBlur result="blurOut" stdDeviation="2.0"/><feColorMatrix in="blurOut" result="blurOut2" type="matrix" values="0 0 0 0 0 0 0 0 0 0 0 0 0 0 0 0 0 0 .4 0"/><feOffset dx="4.0" dy="4.0" in="blurOut2" result="blurOut3"/><feBlend in="SourceGraphic" in2="blurOut3" mode="normal"/></filter></defs><g><!--MD5=[3998b302aaee26451c72f22318dca73c]
class app.config.SecurityConfig--><a href="SecurityConfig.html" target="_top" title="SecurityConfig.html" xlink:actuate="onRequest" xlink:href="SecurityConfig.html" xlink:show="new" xlink:title="SecurityConfig.html" xlink:type="simple"><rect fill="#FEFECE" filter="url(#f1w92ucngbzj6y)" height="62.0234" id="app.config.SecurityConfig" style="stroke: #A80036; stroke-width: 1.5;" width="165" x="94" y="107"/><ellipse cx="127.45" cy="127.0938" fill="#ADD1B2" rx="11" ry="11" style="stroke: #A80036; stroke-width: 1.0;"/><path d="M131.1375,128.2969 Q130.8875,131.7813 129.7469,132.9375 Q128.7156,133.9531 127.3094,133.9531 Q125.9031,133.9531 124.8719,132.9375 Q123.1219,131.1719 123.1219,127.5 Q123.1219,123.25 124.9969,121.3438 Q126.0438,120.3281 127.3719,120.3281 Q128.7781,120.3281 129.6219,121.1406 Q131.1063,122.6563 131.0281,125.5313 L128.9031,125.5313 Q128.825,123.2031 128.1844,122.5625 Q127.9031,122.2656 127.3719,122.2656 Q126.9188,122.2656 126.5594,122.6406 Q125.325,123.8594 125.325,127.375 Q125.325,130.4219 126.3719,131.4375 Q126.7938,131.875 127.3094,131.875 Q127.7625,131.875 128.2,131.4375 Q128.7625,130.8906 128.8406,128.2969 L131.1375,128.2969 Z "/><text fill="#000000" font-family="sans-serif" font-size="14" lengthAdjust="spacingAndGlyphs" textLength="92" x="145.55" y="126.5332">SecurityConfig</text><text fill="#000000" font-family="sans-serif" font-size="10" lengthAdjust="spacingAndGlyphs" textLength="51" x="166.05" y="139.9902">app.config</text><line style="stroke: #A80036; stroke-width: 1.5;" x1="95" x2="258" y1="147.1875" y2="147.1875"/><polygon fill="#FFFF44" points="105,153.1875,109,157.1875,105,161.1875,101,157.1875" style="stroke: #B38D22; stroke-width: 1.0;"/><text fill="#000000" font-family="sans-serif" font-size="11" lengthAdjust="spacingAndGlyphs" textLength="139" x="114" y="162.6064">configure(HttpSecurity): void</text></a><!--MD5=[9680484a63875b7e420b5b2819522cbc]
class org.springframework.security.config.annotation.web.configuration.WebSecurityConfigurerAdapter--><rect fill="#FEFECE" filter="url(#f1w92ucngbzj6y)" height="40.1875" id="org.springframework.security.config.annotation.web.configuration.WebSecurityConfigurerAdapter" style="stroke: #A80036; stroke-width: 1.5;" width="339" x="7" y="7"/><ellipse cx="22" cy="27.0938" fill="#A9DCDF" rx="11" ry="11" style="stroke: #A80036; stroke-width: 1.0;"/><path d="M19.9688,33.4531 L17.6719,33.4531 L21.1719,19.8281 L23.0313,19.8281 L26.5156,33.4531 L24.2188,33.4531 L23.2969,29.6719 L20.9063,29.6719 L19.9688,33.4531 Z M22.0313,23.8438 L22.1563,23.8438 L21.4063,27.7188 L22.7813,27.7188 L22.0313,23.8438 Z "/><text fill="#000000" font-family="sans-serif" font-size="14" font-style="italic" lengthAdjust="spacingAndGlyphs" textLength="198" x="90.5" y="26.5332">WebSecurityConfigurerAdapter</text><text fill="#000000" font-family="sans-serif" font-size="10" font-style="italic" lengthAdjust="spacingAndGlyphs" textLength="307" x="36" y="39.9902">org.springframework.security.config.annotation.web.configuration</text><!--MD5=[9473eb5ab64003e372d8ea7d538c48e4]
reverse link org.springframework.security.config.annotation.web.configuration.WebSecurityConfigurerAdapter to app.config.SecurityConfig--><path d="M176.5,67.372 C176.5,80.3848 176.5,94.6467 176.5,106.8556 " fill="none" id="org.springframework.security.config.annotation.web.configuration.WebSecurityConfigurerAdapter&lt;-app.config.SecurityConfig" style="stroke: #A80036; stroke-width: 1.0;"/><polygon fill="none" points="169.5,67.236,176.5,47.236,183.5,67.236,169.5,67.236" style="stroke: #A80036; stroke-width: 1.0;"/><text fill="#888888" font-family="sans-serif" font-size="10" lengthAdjust="spacingAndGlyphs" textLength="190" x="78.5" y="192.4043">UMLDoclet 2.0.11, PlantUML 1.2020.15</text><!--MD5=[bef3e07b8b7b75a3eefaf8ff8f2ba05c]
@startuml
    set namespaceSeparator none
    hide empty fields
    hide empty methods

    class "<size:14>SecurityConfig\n<size:10>app.config" as app.config.SecurityConfig [[SecurityConfig.html]] {
        #configure(HttpSecurity): void
    }

    abstract class "<size:14>WebSecurityConfigurerAdapter\n<size:10>org.springframework.security.config.annotation.web.configuration" as org.springframework.security.config.annotation.web.configuration.WebSecurityConfigurerAdapter

    org.springframework.security.config.annotation.web.configuration.WebSecurityConfigurerAdapter <|- - app.config.SecurityConfig

    center footer UMLDoclet 2.0.11, PlantUML 1.2020.15
@enduml

PlantUML version 1.2020.15(Sun Jun 28 20:39:45 JST 2020)
(APACHE source distribution)
Java Runtime: OpenJDK Runtime Environment
JVM: OpenJDK 64-Bit Server VM
Default Encoding: MS932
Language: ja
Country: JP
--></g></svg>