<?xml version="1.0" encoding="UTF-8" standalone="no"?><svg xmlns="http://www.w3.org/2000/svg" xmlns:xlink="http://www.w3.org/1999/xlink" contentScriptType="application/ecmascript" contentStyleType="text/css" height="127px" preserveAspectRatio="none" style="width:232px;height:127px;" version="1.1" viewBox="0 0 232 127" width="232px" zoomAndPan="magnify"><defs><filter height="300%" id="f19d4ovccrpl34" width="300%" x="-1" y="-1"><feGaussianBlur result="blurOut" stdDeviation="2.0"/><feColorMatrix in="blurOut" result="blurOut2" type="matrix" values="0 0 0 0 0 0 0 0 0 0 0 0 0 0 0 0 0 0 .4 0"/><feOffset dx="4.0" dy="4.0" in="blurOut2" result="blurOut3"/><feBlend in="SourceGraphic" in2="blurOut3" mode="normal"/></filter></defs><g><!--MD5=[e34a0b7e9ccf835f18db855463bf91c9]
class app.service.NortificationService--><a href="NortificationService.html" target="_top" title="NortificationService.html" xlink:actuate="onRequest" xlink:href="NortificationService.html" xlink:show="new" xlink:title="NortificationService.html" xlink:type="simple"><rect fill="#FEFECE" filter="url(#f19d4ovccrpl34)" height="89.6953" id="app.service.NortificationService" style="stroke: #A80036; stroke-width: 1.5;" width="206" x="7" y="7"/><ellipse cx="45.85" cy="27.0938" fill="#ADD1B2" rx="11" ry="11" style="stroke: #A80036; stroke-width: 1.0;"/><path d="M49.5375,28.2969 Q49.2875,31.7813 48.1469,32.9375 Q47.1156,33.9531 45.7094,33.9531 Q44.3031,33.9531 43.2719,32.9375 Q41.5219,31.1719 41.5219,27.5 Q41.5219,23.25 43.3969,21.3438 Q44.4438,20.3281 45.7719,20.3281 Q47.1781,20.3281 48.0219,21.1406 Q49.5063,22.6563 49.4281,25.5313 L47.3031,25.5313 Q47.225,23.2031 46.5844,22.5625 Q46.3031,22.2656 45.7719,22.2656 Q45.3188,22.2656 44.9594,22.6406 Q43.725,23.8594 43.725,27.375 Q43.725,30.4219 44.7719,31.4375 Q45.1938,31.875 45.7094,31.875 Q46.1625,31.875 46.6,31.4375 Q47.1625,30.8906 47.2406,28.2969 L49.5375,28.2969 Z "/><text fill="#000000" font-family="sans-serif" font-size="14" lengthAdjust="spacingAndGlyphs" textLength="121" x="65.15" y="26.5332">NortificationService</text><text fill="#000000" font-family="sans-serif" font-size="10" lengthAdjust="spacingAndGlyphs" textLength="54" x="98.65" y="39.9902">app.service</text><line style="stroke: #A80036; stroke-width: 1.5;" x1="8" x2="212" y1="47.1875" y2="47.1875"/><ellipse cx="18" cy="58.1875" fill="#84BE84" rx="3" ry="3" style="stroke: #038048; stroke-width: 1.0;"/><text fill="#000000" font-family="sans-serif" font-size="11" lengthAdjust="spacingAndGlyphs" textLength="180" x="27" y="62.6064">selectNorList(int): List&lt;Nortifications&gt;</text><ellipse cx="18" cy="72.0234" fill="#84BE84" rx="3" ry="3" style="stroke: #038048; stroke-width: 1.0;"/><text fill="#000000" font-family="sans-serif" font-size="11" lengthAdjust="spacingAndGlyphs" textLength="163" x="27" y="76.4424">updateNorList(List&lt;Integer&gt;): void</text><ellipse cx="18" cy="85.8594" fill="#84BE84" rx="3" ry="3" style="stroke: #038048; stroke-width: 1.0;"/><text fill="#000000" font-family="sans-serif" font-size="11" lengthAdjust="spacingAndGlyphs" textLength="117" x="27" y="90.2783">updateNor(Integer): void</text></a><text fill="#888888" font-family="sans-serif" font-size="10" lengthAdjust="spacingAndGlyphs" textLength="190" x="15" y="114.0762">UMLDoclet 2.0.11, PlantUML 1.2020.15</text><!--MD5=[afe132cb0dccb076624f89e5206d7fbd]
@startuml
    set namespaceSeparator none
    hide empty fields
    hide empty methods

    class "<size:14>NortificationService\n<size:10>app.service" as app.service.NortificationService [[NortificationService.html]] {
        +selectNorList(int): List<Nortifications>
        +updateNorList(List<Integer>): void
        +updateNor(Integer): void
    }

    center footer UMLDoclet 2.0.11, PlantUML 1.2020.15
@enduml

PlantUML version 1.2020.15(Sun Jun 28 20:39:45 JST 2020)
(APACHE source distribution)
Java Runtime: OpenJDK Runtime Environment
JVM: OpenJDK 64-Bit Server VM
Default Encoding: MS932
Language: ja
Country: JP
--></g></svg>