<?xml version="1.0" encoding="UTF-8" standalone="no"?><svg xmlns="http://www.w3.org/2000/svg" xmlns:xlink="http://www.w3.org/1999/xlink" contentScriptType="application/ecmascript" contentStyleType="text/css" height="141px" preserveAspectRatio="none" style="width:258px;height:141px;" version="1.1" viewBox="0 0 258 141" width="258px" zoomAndPan="magnify"><defs><filter height="300%" id="f1u007ukc6enx3" width="300%" x="-1" y="-1"><feGaussianBlur result="blurOut" stdDeviation="2.0"/><feColorMatrix in="blurOut" result="blurOut2" type="matrix" values="0 0 0 0 0 0 0 0 0 0 0 0 0 0 0 0 0 0 .4 0"/><feOffset dx="4.0" dy="4.0" in="blurOut2" result="blurOut3"/><feBlend in="SourceGraphic" in2="blurOut3" mode="normal"/></filter></defs><g><!--MD5=[f4db9f4d9245a03dd98c8bf2b0646556]
class app.service.TagService--><a href="TagService.html" target="_top" title="TagService.html" xlink:actuate="onRequest" xlink:href="TagService.html" xlink:show="new" xlink:title="TagService.html" xlink:type="simple"><rect fill="#FEFECE" filter="url(#f1u007ukc6enx3)" height="103.5313" id="app.service.TagService" style="stroke: #A80036; stroke-width: 1.5;" width="232" x="7" y="7"/><ellipse cx="82.75" cy="27.0938" fill="#ADD1B2" rx="11" ry="11" style="stroke: #A80036; stroke-width: 1.0;"/><path d="M86.4375,28.2969 Q86.1875,31.7813 85.0469,32.9375 Q84.0156,33.9531 82.6094,33.9531 Q81.2031,33.9531 80.1719,32.9375 Q78.4219,31.1719 78.4219,27.5 Q78.4219,23.25 80.2969,21.3438 Q81.3438,20.3281 82.6719,20.3281 Q84.0781,20.3281 84.9219,21.1406 Q86.4063,22.6563 86.3281,25.5313 L84.2031,25.5313 Q84.125,23.2031 83.4844,22.5625 Q83.2031,22.2656 82.6719,22.2656 Q82.2188,22.2656 81.8594,22.6406 Q80.625,23.8594 80.625,27.375 Q80.625,30.4219 81.6719,31.4375 Q82.0938,31.875 82.6094,31.875 Q83.0625,31.875 83.5,31.4375 Q84.0625,30.8906 84.1406,28.2969 L86.4375,28.2969 Z "/><text fill="#000000" font-family="sans-serif" font-size="14" lengthAdjust="spacingAndGlyphs" textLength="72" x="103.25" y="26.5332">TagService</text><text fill="#000000" font-family="sans-serif" font-size="10" lengthAdjust="spacingAndGlyphs" textLength="54" x="112.25" y="39.9902">app.service</text><line style="stroke: #A80036; stroke-width: 1.5;" x1="8" x2="238" y1="47.1875" y2="47.1875"/><ellipse cx="18" cy="58.1875" fill="#84BE84" rx="3" ry="3" style="stroke: #038048; stroke-width: 1.0;"/><text fill="#000000" font-family="sans-serif" font-size="11" lengthAdjust="spacingAndGlyphs" textLength="131" x="27" y="62.6064">selectTagList(): List&lt;Tags&gt;</text><ellipse cx="18" cy="72.0234" fill="#84BE84" rx="3" ry="3" style="stroke: #038048; stroke-width: 1.0;"/><text fill="#000000" font-family="sans-serif" font-size="11" lengthAdjust="spacingAndGlyphs" textLength="206" x="27" y="76.4424">selectUserListByTags(String): List&lt;Users&gt;</text><ellipse cx="18" cy="85.8594" fill="#84BE84" rx="3" ry="3" style="stroke: #038048; stroke-width: 1.0;"/><text fill="#000000" font-family="sans-serif" font-size="11" lengthAdjust="spacingAndGlyphs" textLength="169" x="27" y="90.2783">insertUserTag(String, Integer): void</text><ellipse cx="18" cy="99.6953" fill="#84BE84" rx="3" ry="3" style="stroke: #038048; stroke-width: 1.0;"/><text fill="#000000" font-family="sans-serif" font-size="11" lengthAdjust="spacingAndGlyphs" textLength="168" x="27" y="104.1143">deleteUsertag(String, Integer): void</text></a><text fill="#888888" font-family="sans-serif" font-size="10" lengthAdjust="spacingAndGlyphs" textLength="190" x="28" y="127.9121">UMLDoclet 2.0.11, PlantUML 1.2020.15</text><!--MD5=[4a43286c0bd133b50d756b0ff2e3b8f2]
@startuml
    set namespaceSeparator none
    hide empty fields
    hide empty methods

    class "<size:14>TagService\n<size:10>app.service" as app.service.TagService [[TagService.html]] {
        +selectTagList(): List<Tags>
        +selectUserListByTags(String): List<Users>
        +insertUserTag(String, Integer): void
        +deleteUsertag(String, Integer): void
    }

    center footer UMLDoclet 2.0.11, PlantUML 1.2020.15
@enduml

PlantUML version 1.2020.15(Sun Jun 28 20:39:45 JST 2020)
(APACHE source distribution)
Java Runtime: OpenJDK Runtime Environment
JVM: OpenJDK 64-Bit Server VM
Default Encoding: MS932
Language: ja
Country: JP
--></g></svg>