<?xml version="1.0" encoding="UTF-8" standalone="no"?><svg xmlns="http://www.w3.org/2000/svg" xmlns:xlink="http://www.w3.org/1999/xlink" contentScriptType="application/ecmascript" contentStyleType="text/css" height="169px" preserveAspectRatio="none" style="width:219px;height:169px;" version="1.1" viewBox="0 0 219 169" width="219px" zoomAndPan="magnify"><defs><filter height="300%" id="f1b79cgicm0cyn" width="300%" x="-1" y="-1"><feGaussianBlur result="blurOut" stdDeviation="2.0"/><feColorMatrix in="blurOut" result="blurOut2" type="matrix" values="0 0 0 0 0 0 0 0 0 0 0 0 0 0 0 0 0 0 .4 0"/><feOffset dx="4.0" dy="4.0" in="blurOut2" result="blurOut3"/><feBlend in="SourceGraphic" in2="blurOut3" mode="normal"/></filter></defs><g><!--MD5=[a112527a20e01f9f2ddd546ea2fa0551]
class app.service.UserService--><a href="UserService.html" target="_top" title="UserService.html" xlink:actuate="onRequest" xlink:href="UserService.html" xlink:show="new" xlink:title="UserService.html" xlink:type="simple"><rect fill="#FEFECE" filter="url(#f1b79cgicm0cyn)" height="131.2031" id="app.service.UserService" style="stroke: #A80036; stroke-width: 1.5;" width="193" x="7" y="7"/><ellipse cx="61.25" cy="27.0938" fill="#ADD1B2" rx="11" ry="11" style="stroke: #A80036; stroke-width: 1.0;"/><path d="M64.9375,28.2969 Q64.6875,31.7813 63.5469,32.9375 Q62.5156,33.9531 61.1094,33.9531 Q59.7031,33.9531 58.6719,32.9375 Q56.9219,31.1719 56.9219,27.5 Q56.9219,23.25 58.7969,21.3438 Q59.8438,20.3281 61.1719,20.3281 Q62.5781,20.3281 63.4219,21.1406 Q64.9063,22.6563 64.8281,25.5313 L62.7031,25.5313 Q62.625,23.2031 61.9844,22.5625 Q61.7031,22.2656 61.1719,22.2656 Q60.7188,22.2656 60.3594,22.6406 Q59.125,23.8594 59.125,27.375 Q59.125,30.4219 60.1719,31.4375 Q60.5938,31.875 61.1094,31.875 Q61.5625,31.875 62,31.4375 Q62.5625,30.8906 62.6406,28.2969 L64.9375,28.2969 Z "/><text fill="#000000" font-family="sans-serif" font-size="14" lengthAdjust="spacingAndGlyphs" textLength="76" x="81.75" y="26.5332">UserService</text><text fill="#000000" font-family="sans-serif" font-size="10" lengthAdjust="spacingAndGlyphs" textLength="54" x="92.75" y="39.9902">app.service</text><line style="stroke: #A80036; stroke-width: 1.5;" x1="8" x2="199" y1="47.1875" y2="47.1875"/><ellipse cx="18" cy="58.1875" fill="#84BE84" rx="3" ry="3" style="stroke: #038048; stroke-width: 1.0;"/><text fill="#000000" font-family="sans-serif" font-size="11" lengthAdjust="spacingAndGlyphs" textLength="154" x="27" y="62.6064">getUser(String, Boolean): Users</text><ellipse cx="18" cy="72.0234" fill="#84BE84" rx="3" ry="3" style="stroke: #038048; stroke-width: 1.0;"/><text fill="#000000" font-family="sans-serif" font-size="11" lengthAdjust="spacingAndGlyphs" textLength="146" x="27" y="76.4424">postUser(Users, Integer): void</text><ellipse cx="18" cy="85.8594" fill="#84BE84" rx="3" ry="3" style="stroke: #038048; stroke-width: 1.0;"/><text fill="#000000" font-family="sans-serif" font-size="11" lengthAdjust="spacingAndGlyphs" textLength="147" x="27" y="90.2783">getFollow(String): List&lt;Users&gt;</text><ellipse cx="18" cy="99.6953" fill="#84BE84" rx="3" ry="3" style="stroke: #038048; stroke-width: 1.0;"/><text fill="#000000" font-family="sans-serif" font-size="11" lengthAdjust="spacingAndGlyphs" textLength="165" x="27" y="104.1143">insertFollow(Integer, Integer): void</text><ellipse cx="18" cy="113.5313" fill="#84BE84" rx="3" ry="3" style="stroke: #038048; stroke-width: 1.0;"/><text fill="#000000" font-family="sans-serif" font-size="11" lengthAdjust="spacingAndGlyphs" textLength="167" x="27" y="117.9502">deleteFollow(Integer, Integer): void</text><ellipse cx="18" cy="127.3672" fill="#84BE84" rx="3" ry="3" style="stroke: #038048; stroke-width: 1.0;"/><text fill="#000000" font-family="sans-serif" font-size="11" lengthAdjust="spacingAndGlyphs" textLength="157" x="27" y="131.7861">getFollower(String): List&lt;Users&gt;</text></a><text fill="#888888" font-family="sans-serif" font-size="10" lengthAdjust="spacingAndGlyphs" textLength="190" x="8.5" y="155.584">UMLDoclet 2.0.11, PlantUML 1.2020.15</text><!--MD5=[fb0ce5272dddf1ae7bd03c6201f6147a]
@startuml
    set namespaceSeparator none
    hide empty fields
    hide empty methods

    class "<size:14>UserService\n<size:10>app.service" as app.service.UserService [[UserService.html]] {
        +getUser(String, Boolean): Users
        +postUser(Users, Integer): void
        +getFollow(String): List<Users>
        +insertFollow(Integer, Integer): void
        +deleteFollow(Integer, Integer): void
        +getFollower(String): List<Users>
    }

    center footer UMLDoclet 2.0.11, PlantUML 1.2020.15
@enduml

PlantUML version 1.2020.15(Sun Jun 28 20:39:45 JST 2020)
(APACHE source distribution)
Java Runtime: OpenJDK Runtime Environment
JVM: OpenJDK 64-Bit Server VM
Default Encoding: MS932
Language: ja
Country: JP
--></g></svg>