<?xml version="1.0" encoding="UTF-8" standalone="no"?><svg xmlns="http://www.w3.org/2000/svg" xmlns:xlink="http://www.w3.org/1999/xlink" contentScriptType="application/ecmascript" contentStyleType="text/css" height="596px" preserveAspectRatio="none" style="width:646px;height:596px;" version="1.1" viewBox="0 0 646 596" width="646px" zoomAndPan="magnify"><defs><filter height="300%" id="f161xqd812glcf" width="300%" x="-1" y="-1"><feGaussianBlur result="blurOut" stdDeviation="2.0"/><feColorMatrix in="blurOut" result="blurOut2" type="matrix" values="0 0 0 0 0 0 0 0 0 0 0 0 0 0 0 0 0 0 .4 0"/><feOffset dx="4.0" dy="4.0" in="blurOut2" result="blurOut3"/><feBlend in="SourceGraphic" in2="blurOut3" mode="normal"/></filter></defs><g><!--cluster Edit--><polygon fill="#FFFFFF" filter="url(#f161xqd812glcf)" points="22,60,55,60,62,83.6094,624,83.6094,624,584,22,584,22,60" style="stroke: #000000; stroke-width: 1.5;"/><line style="stroke: #000000; stroke-width: 1.5;" x1="22" x2="62" y1="83.6094" y2="83.6094"/><text fill="#000000" font-family="sans-serif" font-size="14" font-weight="bold" lengthAdjust="spacingAndGlyphs" textLength="27" x="26" y="76.5332">Edit</text><!--cluster UILayer--><rect fill="#FFFFFF" filter="url(#f161xqd812glcf)" height="100" style="stroke: #000000; stroke-width: 1.5;" width="144" x="456" y="104"/><text fill="#000000" font-family="sans-serif" font-size="14" font-weight="bold" lengthAdjust="spacingAndGlyphs" textLength="52" x="502" y="120.5332">UILayer</text><!--cluster AppLayer--><rect fill="#FFFFFF" filter="url(#f161xqd812glcf)" height="100" style="stroke: #000000; stroke-width: 1.5;" width="265" x="167" y="104"/><text fill="#000000" font-family="sans-serif" font-size="14" font-weight="bold" lengthAdjust="spacingAndGlyphs" textLength="65" x="267" y="120.5332">AppLayer</text><!--cluster DomainLayer--><rect fill="#FFFFFF" filter="url(#f161xqd812glcf)" height="208" style="stroke: #000000; stroke-width: 1.5;" width="290" x="204" y="228"/><text fill="#000000" font-family="sans-serif" font-size="14" font-weight="bold" lengthAdjust="spacingAndGlyphs" textLength="90" x="304" y="244.5332">DomainLayer</text><!--cluster InfrastructureLayer--><rect fill="#FFFFFF" filter="url(#f161xqd812glcf)" height="100" style="stroke: #000000; stroke-width: 1.5;" width="327" x="252" y="460"/><text fill="#000000" font-family="sans-serif" font-size="14" font-weight="bold" lengthAdjust="spacingAndGlyphs" textLength="135" x="348" y="476.5332">InfrastructureLayer</text><!--class EditAppConfig--><rect fill="#FEFECE" filter="url(#f161xqd812glcf)" height="48" id="EditAppConfig" style="stroke: #A80036; stroke-width: 1.5;" width="110" x="38" y="140"/><ellipse cx="53" cy="156" fill="#ADD1B2" rx="11" ry="11" style="stroke: #A80036; stroke-width: 1.0;"/><path d="M55.7031,161.4375 Q54.7813,162.3594 52.5156,162.3594 Q51.25,162.3594 50.3281,161.4375 Q48.6719,159.7813 48.6719,156.25 Q48.6719,152.1406 50.4531,150.3438 Q51.3906,149.4219 52.5781,149.4219 Q54.8438,149.4219 55.5781,150.1406 Q56.9688,151.5469 56.9063,153.9375 L54.4375,153.9375 Q54.375,151.8125 53.6406,151.0781 Q53.25,150.6719 52.5781,150.6719 Q52.5781,150.6719 52.5156,151.1406 Q51.1875,152.4688 51.1875,156.125 Q51.1875,159.3125 52.3281,160.4375 Q52.8594,160.9688 52.8594,160.9688 Q53.1094,160.9688 53.6406,160.4375 Q54.3125,159.7813 54.375,157.3906 L56.9688,157.3906 Q56.7656,160.375 55.7031,161.4375 Z "/><text fill="#000000" font-family="sans-serif" font-size="12" lengthAdjust="spacingAndGlyphs" textLength="78" x="67" y="160.9102">EditAppConfig</text><line style="stroke: #A80036; stroke-width: 1.5;" x1="39" x2="147" y1="172" y2="172"/><line style="stroke: #A80036; stroke-width: 1.5;" x1="39" x2="147" y1="180" y2="180"/><!--class EditViewModel--><rect fill="#FEFECE" filter="url(#f161xqd812glcf)" height="48" id="EditViewModel" style="stroke: #A80036; stroke-width: 1.5;" width="112" x="472" y="140"/><ellipse cx="487" cy="156" fill="#ADD1B2" rx="11" ry="11" style="stroke: #A80036; stroke-width: 1.0;"/><path d="M489.7031,161.4375 Q488.7813,162.3594 486.5156,162.3594 Q485.25,162.3594 484.3281,161.4375 Q482.6719,159.7813 482.6719,156.25 Q482.6719,152.1406 484.4531,150.3438 Q485.3906,149.4219 486.5781,149.4219 Q488.8438,149.4219 489.5781,150.1406 Q490.9688,151.5469 490.9063,153.9375 L488.4375,153.9375 Q488.375,151.8125 487.6406,151.0781 Q487.25,150.6719 486.5781,150.6719 Q486.5781,150.6719 486.5156,151.1406 Q485.1875,152.4688 485.1875,156.125 Q485.1875,159.3125 486.3281,160.4375 Q486.8594,160.9688 486.8594,160.9688 Q487.1094,160.9688 487.6406,160.4375 Q488.3125,159.7813 488.375,157.3906 L490.9688,157.3906 Q490.7656,160.375 489.7031,161.4375 Z "/><text fill="#000000" font-family="sans-serif" font-size="12" lengthAdjust="spacingAndGlyphs" textLength="80" x="501" y="160.9102">EditViewModel</text><line style="stroke: #A80036; stroke-width: 1.5;" x1="473" x2="583" y1="172" y2="172"/><line style="stroke: #A80036; stroke-width: 1.5;" x1="473" x2="583" y1="180" y2="180"/><!--class EditController--><rect fill="#FEFECE" filter="url(#f161xqd812glcf)" height="48" id="EditController" style="stroke: #A80036; stroke-width: 1.5;" width="107" x="183.5" y="140"/><ellipse cx="198.5" cy="156" fill="#ADD1B2" rx="11" ry="11" style="stroke: #A80036; stroke-width: 1.0;"/><path d="M201.2031,161.4375 Q200.2813,162.3594 198.0156,162.3594 Q196.75,162.3594 195.8281,161.4375 Q194.1719,159.7813 194.1719,156.25 Q194.1719,152.1406 195.9531,150.3438 Q196.8906,149.4219 198.0781,149.4219 Q200.3438,149.4219 201.0781,150.1406 Q202.4688,151.5469 202.4063,153.9375 L199.9375,153.9375 Q199.875,151.8125 199.1406,151.0781 Q198.75,150.6719 198.0781,150.6719 Q198.0781,150.6719 198.0156,151.1406 Q196.6875,152.4688 196.6875,156.125 Q196.6875,159.3125 197.8281,160.4375 Q198.3594,160.9688 198.3594,160.9688 Q198.6094,160.9688 199.1406,160.4375 Q199.8125,159.7813 199.875,157.3906 L202.4688,157.3906 Q202.2656,160.375 201.2031,161.4375 Z "/><text fill="#000000" font-family="sans-serif" font-size="12" lengthAdjust="spacingAndGlyphs" textLength="75" x="212.5" y="160.9102">EditController</text><line style="stroke: #A80036; stroke-width: 1.5;" x1="184.5" x2="289.5" y1="172" y2="172"/><line style="stroke: #A80036; stroke-width: 1.5;" x1="184.5" x2="289.5" y1="180" y2="180"/><!--class EditHelper--><rect fill="#FEFECE" filter="url(#f161xqd812glcf)" height="48" id="EditHelper" style="stroke: #A80036; stroke-width: 1.5;" width="90" x="326" y="140"/><ellipse cx="341" cy="156" fill="#ADD1B2" rx="11" ry="11" style="stroke: #A80036; stroke-width: 1.0;"/><path d="M343.7031,161.4375 Q342.7813,162.3594 340.5156,162.3594 Q339.25,162.3594 338.3281,161.4375 Q336.6719,159.7813 336.6719,156.25 Q336.6719,152.1406 338.4531,150.3438 Q339.3906,149.4219 340.5781,149.4219 Q342.8438,149.4219 343.5781,150.1406 Q344.9688,151.5469 344.9063,153.9375 L342.4375,153.9375 Q342.375,151.8125 341.6406,151.0781 Q341.25,150.6719 340.5781,150.6719 Q340.5781,150.6719 340.5156,151.1406 Q339.1875,152.4688 339.1875,156.125 Q339.1875,159.3125 340.3281,160.4375 Q340.8594,160.9688 340.8594,160.9688 Q341.1094,160.9688 341.6406,160.4375 Q342.3125,159.7813 342.375,157.3906 L344.9688,157.3906 Q344.7656,160.375 343.7031,161.4375 Z "/><text fill="#000000" font-family="sans-serif" font-size="12" lengthAdjust="spacingAndGlyphs" textLength="58" x="355" y="160.9102">EditHelper</text><line style="stroke: #A80036; stroke-width: 1.5;" x1="327" x2="415" y1="172" y2="172"/><line style="stroke: #A80036; stroke-width: 1.5;" x1="327" x2="415" y1="180" y2="180"/><!--class EditServiceIF--><rect fill="#FEFECE" filter="url(#f161xqd812glcf)" height="48" id="EditServiceIF" style="stroke: #A80036; stroke-width: 1.5;" width="105" x="220.5" y="264"/><ellipse cx="235.5" cy="280" fill="#B4A7E5" rx="11" ry="11" style="stroke: #A80036; stroke-width: 1.0;"/><path d="M236.4844,284.9063 L237.2188,284.9063 L237.2188,286.3594 L233.2188,286.3594 L233.2188,284.9063 L233.9531,284.9063 L233.9531,274.875 L233.2188,274.875 L233.2188,273.4219 L237.2188,273.4219 L237.2188,274.875 L236.4844,274.875 L236.4844,284.9063 Z "/><text fill="#000000" font-family="sans-serif" font-size="12" font-style="italic" lengthAdjust="spacingAndGlyphs" textLength="73" x="249.5" y="284.9102">EditServiceIF</text><line style="stroke: #A80036; stroke-width: 1.5;" x1="221.5" x2="324.5" y1="296" y2="296"/><line style="stroke: #A80036; stroke-width: 1.5;" x1="221.5" x2="324.5" y1="304" y2="304"/><!--class EditServiceImpl--><rect fill="#FEFECE" filter="url(#f161xqd812glcf)" height="48" id="EditServiceImpl" style="stroke: #A80036; stroke-width: 1.5;" width="117" x="360.5" y="264"/><ellipse cx="375.5" cy="280" fill="#ADD1B2" rx="11" ry="11" style="stroke: #A80036; stroke-width: 1.0;"/><path d="M378.2031,285.4375 Q377.2813,286.3594 375.0156,286.3594 Q373.75,286.3594 372.8281,285.4375 Q371.1719,283.7813 371.1719,280.25 Q371.1719,276.1406 372.9531,274.3438 Q373.8906,273.4219 375.0781,273.4219 Q377.3438,273.4219 378.0781,274.1406 Q379.4688,275.5469 379.4063,277.9375 L376.9375,277.9375 Q376.875,275.8125 376.1406,275.0781 Q375.75,274.6719 375.0781,274.6719 Q375.0781,274.6719 375.0156,275.1406 Q373.6875,276.4688 373.6875,280.125 Q373.6875,283.3125 374.8281,284.4375 Q375.3594,284.9688 375.3594,284.9688 Q375.6094,284.9688 376.1406,284.4375 Q376.8125,283.7813 376.875,281.3906 L379.4688,281.3906 Q379.2656,284.375 378.2031,285.4375 Z "/><text fill="#000000" font-family="sans-serif" font-size="12" lengthAdjust="spacingAndGlyphs" textLength="85" x="389.5" y="284.9102">EditServiceImpl</text><line style="stroke: #A80036; stroke-width: 1.5;" x1="361.5" x2="476.5" y1="296" y2="296"/><line style="stroke: #A80036; stroke-width: 1.5;" x1="361.5" x2="476.5" y1="304" y2="304"/><!--class EditDomain--><rect fill="#FEFECE" filter="url(#f161xqd812glcf)" height="48" id="EditDomain" style="stroke: #A80036; stroke-width: 1.5;" width="97" x="239.5" y="372"/><ellipse cx="254.5" cy="388" fill="#ADD1B2" rx="11" ry="11" style="stroke: #A80036; stroke-width: 1.0;"/><path d="M257.2031,393.4375 Q256.2813,394.3594 254.0156,394.3594 Q252.75,394.3594 251.8281,393.4375 Q250.1719,391.7813 250.1719,388.25 Q250.1719,384.1406 251.9531,382.3438 Q252.8906,381.4219 254.0781,381.4219 Q256.3438,381.4219 257.0781,382.1406 Q258.4688,383.5469 258.4063,385.9375 L255.9375,385.9375 Q255.875,383.8125 255.1406,383.0781 Q254.75,382.6719 254.0781,382.6719 Q254.0781,382.6719 254.0156,383.1406 Q252.6875,384.4688 252.6875,388.125 Q252.6875,391.3125 253.8281,392.4375 Q254.3594,392.9688 254.3594,392.9688 Q254.6094,392.9688 255.1406,392.4375 Q255.8125,391.7813 255.875,389.3906 L258.4688,389.3906 Q258.2656,392.375 257.2031,393.4375 Z "/><text fill="#000000" font-family="sans-serif" font-size="12" lengthAdjust="spacingAndGlyphs" textLength="65" x="268.5" y="392.9102">EditDomain</text><line style="stroke: #A80036; stroke-width: 1.5;" x1="240.5" x2="335.5" y1="404" y2="404"/><line style="stroke: #A80036; stroke-width: 1.5;" x1="240.5" x2="335.5" y1="412" y2="412"/><!--class EditRepositoryIF--><rect fill="#FEFECE" filter="url(#f161xqd812glcf)" height="48" id="EditRepositoryIF" style="stroke: #A80036; stroke-width: 1.5;" width="123" x="268.5" y="496"/><ellipse cx="283.5" cy="512" fill="#B4A7E5" rx="11" ry="11" style="stroke: #A80036; stroke-width: 1.0;"/><path d="M284.4844,516.9063 L285.2188,516.9063 L285.2188,518.3594 L281.2188,518.3594 L281.2188,516.9063 L281.9531,516.9063 L281.9531,506.875 L281.2188,506.875 L281.2188,505.4219 L285.2188,505.4219 L285.2188,506.875 L284.4844,506.875 L284.4844,516.9063 Z "/><text fill="#000000" font-family="sans-serif" font-size="12" font-style="italic" lengthAdjust="spacingAndGlyphs" textLength="91" x="297.5" y="516.9102">EditRepositoryIF</text><line style="stroke: #A80036; stroke-width: 1.5;" x1="269.5" x2="390.5" y1="528" y2="528"/><line style="stroke: #A80036; stroke-width: 1.5;" x1="269.5" x2="390.5" y1="536" y2="536"/><!--class EditRepositoryImpl--><rect fill="#FEFECE" filter="url(#f161xqd812glcf)" height="48" id="EditRepositoryImpl" style="stroke: #A80036; stroke-width: 1.5;" width="136" x="427" y="496"/><ellipse cx="442" cy="512" fill="#ADD1B2" rx="11" ry="11" style="stroke: #A80036; stroke-width: 1.0;"/><path d="M444.7031,517.4375 Q443.7813,518.3594 441.5156,518.3594 Q440.25,518.3594 439.3281,517.4375 Q437.6719,515.7813 437.6719,512.25 Q437.6719,508.1406 439.4531,506.3438 Q440.3906,505.4219 441.5781,505.4219 Q443.8438,505.4219 444.5781,506.1406 Q445.9688,507.5469 445.9063,509.9375 L443.4375,509.9375 Q443.375,507.8125 442.6406,507.0781 Q442.25,506.6719 441.5781,506.6719 Q441.5781,506.6719 441.5156,507.1406 Q440.1875,508.4688 440.1875,512.125 Q440.1875,515.3125 441.3281,516.4375 Q441.8594,516.9688 441.8594,516.9688 Q442.1094,516.9688 442.6406,516.4375 Q443.3125,515.7813 443.375,513.3906 L445.9688,513.3906 Q445.7656,516.375 444.7031,517.4375 Z "/><text fill="#000000" font-family="sans-serif" font-size="12" lengthAdjust="spacingAndGlyphs" textLength="104" x="456" y="516.9102">EditRepositoryImpl</text><line style="stroke: #A80036; stroke-width: 1.5;" x1="428" x2="562" y1="528" y2="528"/><line style="stroke: #A80036; stroke-width: 1.5;" x1="428" x2="562" y1="536" y2="536"/><!--link EditViewModel to EditController--><path d="M517.19,139.833 C500.618,106.153 465.412,46.483 414.5,22 C379.253,5.05 360.744,3.105 326.5,22 C283.091,45.952 257.85,100.785 245.802,134.874 " fill="none" id="EditViewModel-EditController" style="stroke: #A80036; stroke-width: 1.0;"/><polygon fill="#A80036" points="244.119,139.747,250.8389,132.5468,245.7519,135.0212,243.2775,129.9342,244.119,139.747" style="stroke: #A80036; stroke-width: 1.0;"/><!--link EditController to EditHelper--><path d="M290.652,164 C300.63,164 310.608,164 320.587,164 " fill="none" id="EditController-EditHelper" style="stroke: #A80036; stroke-width: 1.0;"/><polygon fill="#A80036" points="325.804,164,316.804,160,320.804,164,316.804,168,325.804,164" style="stroke: #A80036; stroke-width: 1.0;"/><!--link EditHelper to EditServiceIF--><path d="M352.336,188.234 C335.92,208.671 312.014,238.431 294.739,259.937 " fill="none" id="EditHelper-EditServiceIF" style="stroke: #A80036; stroke-width: 1.0;"/><polygon fill="#A80036" points="291.594,263.852,300.3486,259.3401,294.7251,259.9538,294.1115,254.3303,291.594,263.852" style="stroke: #A80036; stroke-width: 1.0;"/><!--link EditController to EditServiceIF--><path d="M243.856,188.234 C249.786,208.332 258.377,237.446 264.696,258.859 " fill="none" id="EditController-EditServiceIF" style="stroke: #A80036; stroke-width: 1.0;"/><polygon fill="#A80036" points="266.169,263.852,267.4572,254.0878,264.7534,259.0566,259.7845,256.3528,266.169,263.852" style="stroke: #A80036; stroke-width: 1.0;"/><!--link EditServiceIF to EditDomain--><path d="M276.255,312 C278.754,329.658 282.19,353.941 284.7,371.678 " fill="none" id="EditServiceIF-EditDomain" style="stroke: #A80036; stroke-width: 1.0; stroke-dasharray: 7.0,7.0;"/><!--link EditServiceIF to EditServiceImpl--><path d="M345.759,288 C350.625,288 355.491,288 360.357,288 " fill="none" id="EditServiceIF-EditServiceImpl" style="stroke: #A80036; stroke-width: 1.0;"/><polygon fill="none" points="345.754,295,325.754,288,345.754,281,345.754,295" style="stroke: #A80036; stroke-width: 1.0;"/><!--link EditDomain to EditRepositoryIF--><path d="M295.999,420.234 C303.472,441.943 314.567,474.172 322.031,495.852 " fill="none" id="EditDomain-EditRepositoryIF" style="stroke: #A80036; stroke-width: 1.0; stroke-dasharray: 7.0,7.0;"/><!--link EditServiceImpl to EditRepositoryIF--><path d="M409.976,312.319 C393.475,354.963 358.506,445.332 340.782,491.136 " fill="none" id="EditServiceImpl-EditRepositoryIF" style="stroke: #A80036; stroke-width: 1.0;"/><polygon fill="#A80036" points="338.915,495.961,345.8933,489.011,340.7194,491.2979,338.4324,486.124,338.915,495.961" style="stroke: #A80036; stroke-width: 1.0;"/><!--link EditRepositoryIF to EditRepositoryImpl--><path d="M411.603,520 C416.638,520 421.673,520 426.709,520 " fill="none" id="EditRepositoryIF-EditRepositoryImpl" style="stroke: #A80036; stroke-width: 1.0;"/><polygon fill="none" points="411.553,526.9999,391.553,520,411.553,512.9999,411.553,526.9999" style="stroke: #A80036; stroke-width: 1.0;"/><!--
@startuml
Package Edit {
    package UILayer <<Rectangle>>{
        class EditViewModel
    }
    package AppLayer <<Rectangle>>{
        class EditController
        class EditHelper
        EditController <-right- EditViewModel
        EditController -right-> EditHelper
    }
    package DomainLayer <<Rectangle>>{
        interface EditServiceIF
        class EditServiceImpl
        class EditDomain
        EditHelper -down-> EditServiceIF
        EditController -down-> EditServiceIF
        EditServiceIF .down. EditDomain
        EditServiceIF <|-right- EditServiceImpl
    }
	class EditAppConfig
    package InfrastructureLayer <<Rectangle>>{
        interface EditRepositoryIF
        class EditRepositoryImpl
        EditDomain .down. EditRepositoryIF
        EditServiceImpl -down-> EditRepositoryIF
        EditRepositoryIF <|-right- EditRepositoryImpl
    }
}
@enduml

PlantUML version 1.2019.06(Sat May 25 02:10:25 JST 2019)
(GPL source distribution)
Java Runtime: Java(TM) SE Runtime Environment
JVM: Java HotSpot(TM) 64-Bit Server VM
Java Version: 1.8.0_231-b11
Operating System: Windows 10
OS Version: 10.0
Default Encoding: MS932
Language: ja
Country: JP
--></g></svg>