<?xml version="1.0" encoding="UTF-8" standalone="no"?><svg xmlns="http://www.w3.org/2000/svg" xmlns:xlink="http://www.w3.org/1999/xlink" contentScriptType="application/ecmascript" contentStyleType="text/css" height="248px" preserveAspectRatio="none" style="width:1151px;height:248px;" version="1.1" viewBox="0 0 1151 248" width="1151px" zoomAndPan="magnify"><defs><filter height="300%" id="fu0hpofva2045" width="300%" x="-1" y="-1"><feGaussianBlur result="blurOut" stdDeviation="2.0"/><feColorMatrix in="blurOut" result="blurOut2" type="matrix" values="0 0 0 0 0 0 0 0 0 0 0 0 0 0 0 0 0 0 .4 0"/><feOffset dx="4.0" dy="4.0" in="blurOut2" result="blurOut3"/><feBlend in="SourceGraphic" in2="blurOut3" mode="normal"/></filter></defs><g><!--cluster common--><polygon fill="#FFFFFF" filter="url(#fu0hpofva2045)" points="112,24.5,146,24.5,153,48.1094,1129,48.1094,1129,236,112,236,112,24.5" style="stroke: #000000; stroke-width: 1.5;"/><line style="stroke: #000000; stroke-width: 1.5;" x1="112" x2="153" y1="48.1094" y2="48.1094"/><text fill="#000000" font-family="sans-serif" font-size="14" font-weight="bold" lengthAdjust="spacingAndGlyphs" textLength="28" x="116" y="41.0332">共通</text><!--class ヘッダー--><rect fill="#FEFECE" filter="url(#fu0hpofva2045)" height="48" id="ヘッダー" style="stroke: #A80036; stroke-width: 1.5;" width="80" x="757" y="60.5"/><ellipse cx="772" cy="76.5" fill="#ADD1B2" rx="11" ry="11" style="stroke: #A80036; stroke-width: 1.0;"/><path d="M775.6875,77.7031 Q775.4375,81.1875 774.2969,82.3438 Q773.2656,83.3594 771.8594,83.3594 Q770.4531,83.3594 769.4219,82.3438 Q767.6719,80.5781 767.6719,76.9063 Q767.6719,72.6563 769.5469,70.75 Q770.5938,69.7344 771.9219,69.7344 Q773.3281,69.7344 774.1719,70.5469 Q775.6563,72.0625 775.5781,74.9375 L773.4531,74.9375 Q773.375,72.6094 772.7344,71.9688 Q772.4531,71.6719 771.9219,71.6719 Q771.4688,71.6719 771.1094,72.0469 Q769.875,73.2656 769.875,76.7813 Q769.875,79.8281 770.9219,80.8438 Q771.3438,81.2813 771.8594,81.2813 Q772.3125,81.2813 772.75,80.8438 Q773.3125,80.2969 773.3906,77.7031 L775.6875,77.7031 Z "/><text fill="#000000" font-family="sans-serif" font-size="12" lengthAdjust="spacingAndGlyphs" textLength="48" x="786" y="81.4102">ヘッダー</text><line style="stroke: #A80036; stroke-width: 1.5;" x1="758" x2="836" y1="92.5" y2="92.5"/><line style="stroke: #A80036; stroke-width: 1.5;" x1="758" x2="836" y1="100.5" y2="100.5"/><!--class About--><rect fill="#FEFECE" filter="url(#fu0hpofva2045)" height="48" id="About" style="stroke: #A80036; stroke-width: 1.5;" width="63" x="612.5" y="172"/><ellipse cx="627.5" cy="188" fill="#ADD1B2" rx="11" ry="11" style="stroke: #A80036; stroke-width: 1.0;"/><path d="M631.1875,189.2031 Q630.9375,192.6875 629.7969,193.8438 Q628.7656,194.8594 627.3594,194.8594 Q625.9531,194.8594 624.9219,193.8438 Q623.1719,192.0781 623.1719,188.4063 Q623.1719,184.1563 625.0469,182.25 Q626.0938,181.2344 627.4219,181.2344 Q628.8281,181.2344 629.6719,182.0469 Q631.1563,183.5625 631.0781,186.4375 L628.9531,186.4375 Q628.875,184.1094 628.2344,183.4688 Q627.9531,183.1719 627.4219,183.1719 Q626.9688,183.1719 626.6094,183.5469 Q625.375,184.7656 625.375,188.2813 Q625.375,191.3281 626.4219,192.3438 Q626.8438,192.7813 627.3594,192.7813 Q627.8125,192.7813 628.25,192.3438 Q628.8125,191.7969 628.8906,189.2031 L631.1875,189.2031 Z "/><text fill="#000000" font-family="sans-serif" font-size="12" lengthAdjust="spacingAndGlyphs" textLength="31" x="641.5" y="192.9102">About</text><line style="stroke: #A80036; stroke-width: 1.5;" x1="613.5" x2="674.5" y1="204" y2="204"/><line style="stroke: #A80036; stroke-width: 1.5;" x1="613.5" x2="674.5" y1="212" y2="212"/><!--class ユーザー詳細(マイページ)--><rect fill="#FEFECE" filter="url(#fu0hpofva2045)" height="48" id="ユーザー詳細(マイページ)" style="stroke: #A80036; stroke-width: 1.5;" width="172" x="711" y="172"/><ellipse cx="726" cy="188" fill="#ADD1B2" rx="11" ry="11" style="stroke: #A80036; stroke-width: 1.0;"/><path d="M729.6875,189.2031 Q729.4375,192.6875 728.2969,193.8438 Q727.2656,194.8594 725.8594,194.8594 Q724.4531,194.8594 723.4219,193.8438 Q721.6719,192.0781 721.6719,188.4063 Q721.6719,184.1563 723.5469,182.25 Q724.5938,181.2344 725.9219,181.2344 Q727.3281,181.2344 728.1719,182.0469 Q729.6563,183.5625 729.5781,186.4375 L727.4531,186.4375 Q727.375,184.1094 726.7344,183.4688 Q726.4531,183.1719 725.9219,183.1719 Q725.4688,183.1719 725.1094,183.5469 Q723.875,184.7656 723.875,188.2813 Q723.875,191.3281 724.9219,192.3438 Q725.3438,192.7813 725.8594,192.7813 Q726.3125,192.7813 726.75,192.3438 Q727.3125,191.7969 727.3906,189.2031 L729.6875,189.2031 Z "/><text fill="#000000" font-family="sans-serif" font-size="12" lengthAdjust="spacingAndGlyphs" textLength="140" x="740" y="192.9102">ユーザー詳細(マイページ)</text><line style="stroke: #A80036; stroke-width: 1.5;" x1="712" x2="882" y1="204" y2="204"/><line style="stroke: #A80036; stroke-width: 1.5;" x1="712" x2="882" y1="212" y2="212"/><!--class 通知詳細--><rect fill="#FEFECE" filter="url(#fu0hpofva2045)" height="48" id="通知詳細" style="stroke: #A80036; stroke-width: 1.5;" width="80" x="918" y="172"/><ellipse cx="933" cy="188" fill="#ADD1B2" rx="11" ry="11" style="stroke: #A80036; stroke-width: 1.0;"/><path d="M936.6875,189.2031 Q936.4375,192.6875 935.2969,193.8438 Q934.2656,194.8594 932.8594,194.8594 Q931.4531,194.8594 930.4219,193.8438 Q928.6719,192.0781 928.6719,188.4063 Q928.6719,184.1563 930.5469,182.25 Q931.5938,181.2344 932.9219,181.2344 Q934.3281,181.2344 935.1719,182.0469 Q936.6563,183.5625 936.5781,186.4375 L934.4531,186.4375 Q934.375,184.1094 933.7344,183.4688 Q933.4531,183.1719 932.9219,183.1719 Q932.4688,183.1719 932.1094,183.5469 Q930.875,184.7656 930.875,188.2813 Q930.875,191.3281 931.9219,192.3438 Q932.3438,192.7813 932.8594,192.7813 Q933.3125,192.7813 933.75,192.3438 Q934.3125,191.7969 934.3906,189.2031 L936.6875,189.2031 Z "/><text fill="#000000" font-family="sans-serif" font-size="12" lengthAdjust="spacingAndGlyphs" textLength="48" x="947" y="192.9102">通知詳細</text><line style="stroke: #A80036; stroke-width: 1.5;" x1="919" x2="997" y1="204" y2="204"/><line style="stroke: #A80036; stroke-width: 1.5;" x1="919" x2="997" y1="212" y2="212"/><!--class 設定一覧--><rect fill="#FEFECE" filter="url(#fu0hpofva2045)" height="48" id="設定一覧" style="stroke: #A80036; stroke-width: 1.5;" width="80" x="1033" y="172"/><ellipse cx="1048" cy="188" fill="#ADD1B2" rx="11" ry="11" style="stroke: #A80036; stroke-width: 1.0;"/><path d="M1051.6875,189.2031 Q1051.4375,192.6875 1050.2969,193.8438 Q1049.2656,194.8594 1047.8594,194.8594 Q1046.4531,194.8594 1045.4219,193.8438 Q1043.6719,192.0781 1043.6719,188.4063 Q1043.6719,184.1563 1045.5469,182.25 Q1046.5938,181.2344 1047.9219,181.2344 Q1049.3281,181.2344 1050.1719,182.0469 Q1051.6563,183.5625 1051.5781,186.4375 L1049.4531,186.4375 Q1049.375,184.1094 1048.7344,183.4688 Q1048.4531,183.1719 1047.9219,183.1719 Q1047.4688,183.1719 1047.1094,183.5469 Q1045.875,184.7656 1045.875,188.2813 Q1045.875,191.3281 1046.9219,192.3438 Q1047.3438,192.7813 1047.8594,192.7813 Q1048.3125,192.7813 1048.75,192.3438 Q1049.3125,191.7969 1049.3906,189.2031 L1051.6875,189.2031 Z "/><text fill="#000000" font-family="sans-serif" font-size="12" lengthAdjust="spacingAndGlyphs" textLength="48" x="1062" y="192.9102">設定一覧</text><line style="stroke: #A80036; stroke-width: 1.5;" x1="1034" x2="1112" y1="204" y2="204"/><line style="stroke: #A80036; stroke-width: 1.5;" x1="1034" x2="1112" y1="212" y2="212"/><!--class ヘルプ--><rect fill="#FEFECE" filter="url(#fu0hpofva2045)" height="48" id="ヘルプ" style="stroke: #A80036; stroke-width: 1.5;" width="68" x="509" y="172"/><ellipse cx="524" cy="188" fill="#ADD1B2" rx="11" ry="11" style="stroke: #A80036; stroke-width: 1.0;"/><path d="M527.6875,189.2031 Q527.4375,192.6875 526.2969,193.8438 Q525.2656,194.8594 523.8594,194.8594 Q522.4531,194.8594 521.4219,193.8438 Q519.6719,192.0781 519.6719,188.4063 Q519.6719,184.1563 521.5469,182.25 Q522.5938,181.2344 523.9219,181.2344 Q525.3281,181.2344 526.1719,182.0469 Q527.6563,183.5625 527.5781,186.4375 L525.4531,186.4375 Q525.375,184.1094 524.7344,183.4688 Q524.4531,183.1719 523.9219,183.1719 Q523.4688,183.1719 523.1094,183.5469 Q521.875,184.7656 521.875,188.2813 Q521.875,191.3281 522.9219,192.3438 Q523.3438,192.7813 523.8594,192.7813 Q524.3125,192.7813 524.75,192.3438 Q525.3125,191.7969 525.3906,189.2031 L527.6875,189.2031 Z "/><text fill="#000000" font-family="sans-serif" font-size="12" lengthAdjust="spacingAndGlyphs" textLength="36" x="538" y="192.9102">ヘルプ</text><line style="stroke: #A80036; stroke-width: 1.5;" x1="510" x2="576" y1="204" y2="204"/><line style="stroke: #A80036; stroke-width: 1.5;" x1="510" x2="576" y1="212" y2="212"/><!--class フッター--><rect fill="#FEFECE" filter="url(#fu0hpofva2045)" height="48" id="フッター" style="stroke: #A80036; stroke-width: 1.5;" width="80" x="333" y="60.5"/><ellipse cx="348" cy="76.5" fill="#ADD1B2" rx="11" ry="11" style="stroke: #A80036; stroke-width: 1.0;"/><path d="M351.6875,77.7031 Q351.4375,81.1875 350.2969,82.3438 Q349.2656,83.3594 347.8594,83.3594 Q346.4531,83.3594 345.4219,82.3438 Q343.6719,80.5781 343.6719,76.9063 Q343.6719,72.6563 345.5469,70.75 Q346.5938,69.7344 347.9219,69.7344 Q349.3281,69.7344 350.1719,70.5469 Q351.6563,72.0625 351.5781,74.9375 L349.4531,74.9375 Q349.375,72.6094 348.7344,71.9688 Q348.4531,71.6719 347.9219,71.6719 Q347.4688,71.6719 347.1094,72.0469 Q345.875,73.2656 345.875,76.7813 Q345.875,79.8281 346.9219,80.8438 Q347.3438,81.2813 347.8594,81.2813 Q348.3125,81.2813 348.75,80.8438 Q349.3125,80.2969 349.3906,77.7031 L351.6875,77.7031 Z "/><text fill="#000000" font-family="sans-serif" font-size="12" lengthAdjust="spacingAndGlyphs" textLength="48" x="362" y="81.4102">フッター</text><line style="stroke: #A80036; stroke-width: 1.5;" x1="334" x2="412" y1="92.5" y2="92.5"/><line style="stroke: #A80036; stroke-width: 1.5;" x1="334" x2="412" y1="100.5" y2="100.5"/><!--class 利用規約--><rect fill="#FEFECE" filter="url(#fu0hpofva2045)" height="48" id="利用規約" style="stroke: #A80036; stroke-width: 1.5;" width="80" x="394" y="172"/><ellipse cx="409" cy="188" fill="#ADD1B2" rx="11" ry="11" style="stroke: #A80036; stroke-width: 1.0;"/><path d="M412.6875,189.2031 Q412.4375,192.6875 411.2969,193.8438 Q410.2656,194.8594 408.8594,194.8594 Q407.4531,194.8594 406.4219,193.8438 Q404.6719,192.0781 404.6719,188.4063 Q404.6719,184.1563 406.5469,182.25 Q407.5938,181.2344 408.9219,181.2344 Q410.3281,181.2344 411.1719,182.0469 Q412.6563,183.5625 412.5781,186.4375 L410.4531,186.4375 Q410.375,184.1094 409.7344,183.4688 Q409.4531,183.1719 408.9219,183.1719 Q408.4688,183.1719 408.1094,183.5469 Q406.875,184.7656 406.875,188.2813 Q406.875,191.3281 407.9219,192.3438 Q408.3438,192.7813 408.8594,192.7813 Q409.3125,192.7813 409.75,192.3438 Q410.3125,191.7969 410.3906,189.2031 L412.6875,189.2031 Z "/><text fill="#000000" font-family="sans-serif" font-size="12" lengthAdjust="spacingAndGlyphs" textLength="48" x="423" y="192.9102">利用規約</text><line style="stroke: #A80036; stroke-width: 1.5;" x1="395" x2="473" y1="204" y2="204"/><line style="stroke: #A80036; stroke-width: 1.5;" x1="395" x2="473" y1="212" y2="212"/><!--class プライバシー--><rect fill="#FEFECE" filter="url(#fu0hpofva2045)" height="48" id="プライバシー" style="stroke: #A80036; stroke-width: 1.5;" width="104" x="128" y="172"/><ellipse cx="143" cy="188" fill="#ADD1B2" rx="11" ry="11" style="stroke: #A80036; stroke-width: 1.0;"/><path d="M146.6875,189.2031 Q146.4375,192.6875 145.2969,193.8438 Q144.2656,194.8594 142.8594,194.8594 Q141.4531,194.8594 140.4219,193.8438 Q138.6719,192.0781 138.6719,188.4063 Q138.6719,184.1563 140.5469,182.25 Q141.5938,181.2344 142.9219,181.2344 Q144.3281,181.2344 145.1719,182.0469 Q146.6563,183.5625 146.5781,186.4375 L144.4531,186.4375 Q144.375,184.1094 143.7344,183.4688 Q143.4531,183.1719 142.9219,183.1719 Q142.4688,183.1719 142.1094,183.5469 Q140.875,184.7656 140.875,188.2813 Q140.875,191.3281 141.9219,192.3438 Q142.3438,192.7813 142.8594,192.7813 Q143.3125,192.7813 143.75,192.3438 Q144.3125,191.7969 144.3906,189.2031 L146.6875,189.2031 Z "/><text fill="#000000" font-family="sans-serif" font-size="12" lengthAdjust="spacingAndGlyphs" textLength="72" x="157" y="192.9102">プライバシー</text><line style="stroke: #A80036; stroke-width: 1.5;" x1="129" x2="231" y1="204" y2="204"/><line style="stroke: #A80036; stroke-width: 1.5;" x1="129" x2="231" y1="212" y2="212"/><!--class 意見ページ--><rect fill="#FEFECE" filter="url(#fu0hpofva2045)" height="48" id="意見ページ" style="stroke: #A80036; stroke-width: 1.5;" width="92" x="267" y="172"/><ellipse cx="282" cy="188" fill="#ADD1B2" rx="11" ry="11" style="stroke: #A80036; stroke-width: 1.0;"/><path d="M285.6875,189.2031 Q285.4375,192.6875 284.2969,193.8438 Q283.2656,194.8594 281.8594,194.8594 Q280.4531,194.8594 279.4219,193.8438 Q277.6719,192.0781 277.6719,188.4063 Q277.6719,184.1563 279.5469,182.25 Q280.5938,181.2344 281.9219,181.2344 Q283.3281,181.2344 284.1719,182.0469 Q285.6563,183.5625 285.5781,186.4375 L283.4531,186.4375 Q283.375,184.1094 282.7344,183.4688 Q282.4531,183.1719 281.9219,183.1719 Q281.4688,183.1719 281.1094,183.5469 Q279.875,184.7656 279.875,188.2813 Q279.875,191.3281 280.9219,192.3438 Q281.3438,192.7813 281.8594,192.7813 Q282.3125,192.7813 282.75,192.3438 Q283.3125,191.7969 283.3906,189.2031 L285.6875,189.2031 Z "/><text fill="#000000" font-family="sans-serif" font-size="12" lengthAdjust="spacingAndGlyphs" textLength="60" x="296" y="192.9102">意見ページ</text><line style="stroke: #A80036; stroke-width: 1.5;" x1="268" x2="358" y1="204" y2="204"/><line style="stroke: #A80036; stroke-width: 1.5;" x1="268" x2="358" y1="212" y2="212"/><polygon fill="#FFFFFF" filter="url(#fu0hpofva2045)" points="6,57,82,57,89,80.6094,96,80.6094,96,112.2188,6,112.2188,6,57" style="stroke: #000000; stroke-width: 1.5;"/><line style="stroke: #000000; stroke-width: 1.5;" x1="6" x2="89" y1="80.6094" y2="80.6094"/><text fill="#000000" font-family="sans-serif" font-size="14" font-weight="bold" lengthAdjust="spacingAndGlyphs" textLength="70" x="10" y="73.5332">コンテンツ</text><!--link ヘッダー to About--><path d="M764.553,108.722 C739.759,126.466 705.601,150.913 679.973,169.2544 " fill="none" id="ヘッダー-About" style="stroke: #A80036; stroke-width: 1.0;"/><polygon fill="#A80036" points="675.615,172.3738,685.2617,170.3886,679.681,169.4638,680.6058,163.8831,675.615,172.3738" style="stroke: #A80036; stroke-width: 1.0;"/><!--link ヘッダー to ユーザー詳細(マイページ)--><path d="M797,108.722 C797,125.563 797,148.44 797,166.4056 " fill="none" id="ヘッダー-ユーザー詳細(マイページ)" style="stroke: #A80036; stroke-width: 1.0;"/><polygon fill="#A80036" points="797,171.8113,801,162.8113,797,166.8113,793,162.8113,797,171.8113" style="stroke: #A80036; stroke-width: 1.0;"/><!--link ヘッダー to 通知詳細--><path d="M831.144,108.722 C857.166,126.421 892.992,150.787 919.936,169.1121 " fill="none" id="ヘッダー-通知詳細" style="stroke: #A80036; stroke-width: 1.0;"/><polygon fill="#A80036" points="924.182,171.9993,918.9889,163.6308,920.0474,169.1877,914.4904,170.2462,924.182,171.9993" style="stroke: #A80036; stroke-width: 1.0;"/><!--link ヘッダー to 設定一覧--><path d="M837.399,101.354 C881.371,118.634 953.737,147.142 1016,172 C1019.92,173.5641 1023.98,175.1936 1028.06,176.831 " fill="none" id="ヘッダー-設定一覧" style="stroke: #A80036; stroke-width: 1.0;"/><polygon fill="#A80036" points="1032.84,178.7533,1025.9899,171.6769,1028.2031,176.8828,1022.9971,179.096,1032.84,178.7533" style="stroke: #A80036; stroke-width: 1.0;"/><!--link ヘッダー to ヘルプ--><path d="M756.697,102.592 C715.882,119.941 650.968,147.64 595,172 C590.746,173.8516 586.301,175.7985 581.879,177.7434 " fill="none" id="ヘッダー-ヘルプ" style="stroke: #A80036; stroke-width: 1.0;"/><polygon fill="#A80036" points="577.1,179.8484,586.9488,179.8808,581.6757,177.8327,583.7238,172.5597,577.1,179.8484" style="stroke: #A80036; stroke-width: 1.0;"/><!--link フッター to ヘルプ--><path d="M409.053,108.722 C436.992,126.719 475.635,151.609 504.237,170.0324 " fill="none" id="フッター-ヘルプ" style="stroke: #A80036; stroke-width: 1.0;"/><polygon fill="#A80036" points="508.739,172.9316,503.3401,164.6944,504.536,170.2234,499.007,171.4192,508.739,172.9316" style="stroke: #A80036; stroke-width: 1.0;"/><!--link フッター to 利用規約--><path d="M385.937,108.722 C395.48,125.853 408.503,149.23 418.586,167.3304 " fill="none" id="フッター-利用規約" style="stroke: #A80036; stroke-width: 1.0;"/><polygon fill="#A80036" points="421.082,171.8113,420.197,162.0023,418.649,167.4432,413.2081,165.8951,421.082,171.8113" style="stroke: #A80036; stroke-width: 1.0;"/><!--link フッター to プライバシー--><path d="M332.541,108.455 C301.251,126.207 257.931,150.785 225.449,169.2142 " fill="none" id="フッター-プライバシー" style="stroke: #A80036; stroke-width: 1.0;"/><polygon fill="#A80036" points="220.738,171.8871,230.5398,170.9253,225.0869,169.4199,226.5923,163.9671,220.738,171.8871" style="stroke: #A80036; stroke-width: 1.0;"/><!--link フッター to 意見ページ--><path d="M360.276,108.722 C350.889,125.853 338.079,149.23 328.161,167.3304 " fill="none" id="フッター-意見ページ" style="stroke: #A80036; stroke-width: 1.0;"/><polygon fill="#A80036" points="325.706,171.8113,333.5383,165.8401,328.1084,167.4262,326.5222,161.9963,325.706,171.8113" style="stroke: #A80036; stroke-width: 1.0;"/><!--
@startuml
	package "共通" as common {
		
		"ヘッダー" - -> "About"
		"ヘッダー" - -> "ユーザー詳細(マイページ)"
		"ヘッダー" - -> "通知詳細"
		"ヘッダー" - -> "設定一覧"
		"ヘッダー" - -> "ヘルプ"
		"フッター" - -> "ヘルプ"
		"フッター" - -> "利用規約"
		"フッター" - -> "プライバシー"
		"フッター" - -> "意見ページ"
	}
	package "コンテンツ" as content {
	
	}
@enduml

PlantUML version 1.2019.06(Sat May 25 02:10:25 JST 2019)
(GPL source distribution)
Java Runtime: OpenJDK Runtime Environment
JVM: OpenJDK 64-Bit Server VM
Java Version: 14.0.2+12-46
Operating System: Windows 10
OS Version: 10.0
Default Encoding: MS932
Language: ja
Country: JP
--></g></svg>