<?xml version="1.0" encoding="UTF-8" standalone="no"?><svg xmlns="http://www.w3.org/2000/svg" xmlns:xlink="http://www.w3.org/1999/xlink" contentScriptType="application/ecmascript" contentStyleType="text/css" height="335px" preserveAspectRatio="none" style="width:762px;height:335px;" version="1.1" viewBox="0 0 762 335" width="762px" zoomAndPan="magnify"><defs><filter height="300%" id="f1o2l655u4faju" width="300%" x="-1" y="-1"><feGaussianBlur result="blurOut" stdDeviation="2.0"/><feColorMatrix in="blurOut" result="blurOut2" type="matrix" values="0 0 0 0 0 0 0 0 0 0 0 0 0 0 0 0 0 0 .4 0"/><feOffset dx="4.0" dy="4.0" in="blurOut2" result="blurOut3"/><feBlend in="SourceGraphic" in2="blurOut3" mode="normal"/></filter></defs><g><rect fill="#FEFECE" filter="url(#f1o2l655u4faju)" height="316.6094" rx="12.5" ry="12.5" style="stroke: #A80036; stroke-width: 1.5;" width="744" x="6" y="8"/><rect fill="#FFFFFF" height="283" rx="12.5" ry="12.5" style="stroke: #FFFFFF; stroke-width: 1.0;" width="738" x="9" y="38.6094"/><line style="stroke: #A80036; stroke-width: 1.5;" x1="6" x2="750" y1="35.6094" y2="35.6094"/><text fill="#000000" font-family="sans-serif" font-size="14" lengthAdjust="spacingAndGlyphs" textLength="70" x="343" y="27.5332">コンテンツ</text><rect fill="#FEFECE" filter="url(#f1o2l655u4faju)" height="50" rx="12.5" ry="12.5" style="stroke: #A80036; stroke-width: 1.5;" width="99" x="44.5" y="69.6094"/><line style="stroke: #A80036; stroke-width: 1.5;" x1="44.5" x2="143.5" y1="97.2188" y2="97.2188"/><text fill="#000000" font-family="sans-serif" font-size="14" lengthAdjust="spacingAndGlyphs" textLength="79" x="54.5" y="89.1426">Aboutページ</text><rect fill="#FEFECE" filter="url(#f1o2l655u4faju)" height="52.7031" rx="12.5" ry="12.5" style="stroke: #A80036; stroke-width: 1.5;" width="104" x="320" y="68.1094"/><line style="stroke: #A80036; stroke-width: 1.5;" x1="320" x2="424" y1="95.7188" y2="95.7188"/><text fill="#000000" font-family="sans-serif" font-size="14" lengthAdjust="spacingAndGlyphs" textLength="84" x="330" y="87.6426">ユーザー詳細</text><text fill="#000000" font-family="sans-serif" font-size="12" lengthAdjust="spacingAndGlyphs" textLength="84" x="325" y="113.1758">任意のユーザー</text><rect fill="#FEFECE" filter="url(#f1o2l655u4faju)" height="50" rx="12.5" ry="12.5" style="stroke: #A80036; stroke-width: 1.5;" width="104" x="17" y="240.1094"/><line style="stroke: #A80036; stroke-width: 1.5;" x1="17" x2="121" y1="267.7188" y2="267.7188"/><text fill="#000000" font-family="sans-serif" font-size="14" lengthAdjust="spacingAndGlyphs" textLength="84" x="27" y="259.6426">フォロー一覧</text><rect fill="#FEFECE" filter="url(#f1o2l655u4faju)" height="50" rx="12.5" ry="12.5" style="stroke: #A80036; stroke-width: 1.5;" width="118" x="204" y="240.1094"/><line style="stroke: #A80036; stroke-width: 1.5;" x1="204" x2="322" y1="267.7188" y2="267.7188"/><text fill="#000000" font-family="sans-serif" font-size="14" lengthAdjust="spacingAndGlyphs" textLength="98" x="214" y="259.6426">フォロワー一覧</text><rect fill="#FEFECE" filter="url(#f1o2l655u4faju)" height="50" rx="12.5" ry="12.5" style="stroke: #A80036; stroke-width: 1.5;" width="76" x="405" y="240.1094"/><line style="stroke: #A80036; stroke-width: 1.5;" x1="405" x2="481" y1="267.7188" y2="267.7188"/><text fill="#000000" font-family="sans-serif" font-size="14" lengthAdjust="spacingAndGlyphs" textLength="56" x="415" y="259.6426">タグ詳細</text><rect fill="#FEFECE" filter="url(#f1o2l655u4faju)" height="50" rx="12.5" ry="12.5" style="stroke: #A80036; stroke-width: 1.5;" width="90" x="571" y="240.1094"/><line style="stroke: #A80036; stroke-width: 1.5;" x1="571" x2="661" y1="267.7188" y2="267.7188"/><text fill="#000000" font-family="sans-serif" font-size="14" lengthAdjust="spacingAndGlyphs" textLength="70" x="581" y="259.6426">アプリ詳細</text><ellipse cx="225" cy="94.6094" fill="#000000" filter="url(#f1o2l655u4faju)" rx="10" ry="10" style="stroke: none; stroke-width: 1.0;"/><!--link sc1 to *start*content--><path d="M148.794,94.6094 C173.657,94.6094 200.635,94.6094 214.872,94.6094 " fill="none" id="sc1-*start*content" style="stroke: #A80036; stroke-width: 1.0;"/><polygon fill="#A80036" points="143.525,94.6094,152.525,98.6094,148.525,94.6094,152.525,90.6094,143.525,94.6094" style="stroke: #A80036; stroke-width: 1.0;"/><text fill="#000000" font-family="sans-serif" font-size="13" lengthAdjust="spacingAndGlyphs" textLength="27" x="165.75" y="72.1045">"/"に</text><text fill="#000000" font-family="sans-serif" font-size="13" lengthAdjust="spacingAndGlyphs" textLength="52" x="153.25" y="88.4561">アクセス</text><!--link *start*content to sc2.1--><path d="M235.104,94.6094 C251.476,94.6094 284.974,94.6094 314.735,94.6094 " fill="none" id="*start*content-sc2.1" style="stroke: #A80036; stroke-width: 1.0;"/><polygon fill="#A80036" points="319.858,94.6094,310.858,90.6094,314.858,94.6094,310.858,98.6094,319.858,94.6094" style="stroke: #A80036; stroke-width: 1.0;"/><text fill="#000000" font-family="sans-serif" font-size="13" lengthAdjust="spacingAndGlyphs" textLength="65" x="245" y="55.1045">ユーザーの</text><text fill="#000000" font-family="sans-serif" font-size="13" lengthAdjust="spacingAndGlyphs" textLength="38" x="258.5" y="71.4561">URLに</text><text fill="#000000" font-family="sans-serif" font-size="13" lengthAdjust="spacingAndGlyphs" textLength="52" x="251.5" y="87.8076">アクセス</text><!--link sc2.1 to sc3--><path d="M319.904,107.2944 C296.757,112.1474 269.117,117.4824 244,121.1094 C222.027,124.2824 59.975,122.7184 45,139.1094 C21.3289,165.0184 36.2634,206.8874 51.0145,234.9436 " fill="none" id="sc2.1-sc3" style="stroke: #A80036; stroke-width: 1.0;"/><polygon fill="#A80036" points="53.5652,239.6684,52.8094,229.8486,51.1899,235.2686,45.7698,233.6491,53.5652,239.6684" style="stroke: #A80036; stroke-width: 1.0;"/><text fill="#000000" font-family="sans-serif" font-size="13" lengthAdjust="spacingAndGlyphs" textLength="65" x="46" y="178.1045">フォローを</text><text fill="#000000" font-family="sans-serif" font-size="13" lengthAdjust="spacingAndGlyphs" textLength="26" x="65.5" y="194.4561">押下</text><!--link sc3 to sc2.1--><path d="M97.4583,240.0319 C102.8007,234.5443 107.9667,228.4486 112,222.1094 C132.976,189.1414 111.21,164.3974 141,139.1094 C176.428,109.0354 198.32,129.6494 244,121.1094 C267.192,116.7734 292.693,111.7464 314.789,107.3074 " fill="none" id="sc3-sc2.1" style="stroke: #A80036; stroke-width: 1.0;"/><polygon fill="#A80036" points="319.741,106.3104,310.1284,104.166,314.8394,107.2975,311.7079,112.0086,319.741,106.3104" style="stroke: #A80036; stroke-width: 1.0;"/><text fill="#000000" font-family="sans-serif" font-size="13" lengthAdjust="spacingAndGlyphs" textLength="52" x="148.5" y="161.6045">アプリか</text><text fill="#000000" font-family="sans-serif" font-size="13" lengthAdjust="spacingAndGlyphs" textLength="39" x="155" y="177.9561">任意の</text><text fill="#000000" font-family="sans-serif" font-size="13" lengthAdjust="spacingAndGlyphs" textLength="65" x="142" y="194.3076">ユーザーを</text><text fill="#000000" font-family="sans-serif" font-size="13" lengthAdjust="spacingAndGlyphs" textLength="26" x="161.5" y="210.6592">押下</text><!--link sc2.1 to sc4--><path d="M319.956,104.2564 C282.489,111.6654 236.587,123.5964 225,139.1094 C202.924,168.6634 211.739,187.6864 225,222.1094 C226.856,226.9267 229.549,231.5346 232.657,235.8163 " fill="none" id="sc2.1-sc4" style="stroke: #A80036; stroke-width: 1.0;"/><polygon fill="#A80036" points="235.889,239.985,233.5361,230.4213,232.8256,236.0333,227.2135,235.3228,235.889,239.985" style="stroke: #A80036; stroke-width: 1.0;"/><text fill="#000000" font-family="sans-serif" font-size="13" lengthAdjust="spacingAndGlyphs" textLength="78" x="226" y="178.1045">フォロワーを</text><text fill="#000000" font-family="sans-serif" font-size="13" lengthAdjust="spacingAndGlyphs" textLength="26" x="252" y="194.4561">押下</text><!--link sc4 to sc2.1--><path d="M291.764,239.8163 C296.783,234.4284 301.506,228.426 305,222.1094 C323.316,188.9944 304.876,171.7644 324,139.1094 C326.93,134.1054 330.628,129.3524 334.664,124.9524 " fill="none" id="sc4-sc2.1" style="stroke: #A80036; stroke-width: 1.0;"/><polygon fill="#A80036" points="338.125,121.3414,329.0089,125.0693,334.6645,124.9504,334.7834,130.606,338.125,121.3414" style="stroke: #A80036; stroke-width: 1.0;"/><text fill="#000000" font-family="sans-serif" font-size="13" lengthAdjust="spacingAndGlyphs" textLength="39" x="338" y="169.6045">任意の</text><text fill="#000000" font-family="sans-serif" font-size="13" lengthAdjust="spacingAndGlyphs" textLength="65" x="325" y="185.9561">ユーザーを</text><text fill="#000000" font-family="sans-serif" font-size="13" lengthAdjust="spacingAndGlyphs" textLength="26" x="344.5" y="202.3076">押下</text><!--link sc2.1 to sc5--><path d="M386.805,121.3994 C389.758,127.1214 392.665,133.2344 395,139.1094 C409.14,174.6814 402.966,186.9064 418,222.1094 C419.86,226.4649 422.097,230.9176 424.459,235.218 " fill="none" id="sc2.1-sc5" style="stroke: #A80036; stroke-width: 1.0;"/><polygon fill="#A80036" points="427.058,239.8129,426.1089,230.0099,424.5964,235.4608,419.1455,233.9484,427.058,239.8129" style="stroke: #A80036; stroke-width: 1.0;"/><text fill="#000000" font-family="sans-serif" font-size="13" lengthAdjust="spacingAndGlyphs" textLength="39" x="419" y="169.6045">任意の</text><text fill="#000000" font-family="sans-serif" font-size="13" lengthAdjust="spacingAndGlyphs" textLength="39" x="419" y="185.9561">タグを</text><text fill="#000000" font-family="sans-serif" font-size="13" lengthAdjust="spacingAndGlyphs" textLength="26" x="425.5" y="202.3076">押下</text><!--link sc5 to sc2.1--><path d="M454.622,240.079 C465.698,213.3907 478.094,170.0034 459,139.1094 C451.946,127.6964 440.89,119.1774 428.997,112.8554 " fill="none" id="sc5-sc2.1" style="stroke: #A80036; stroke-width: 1.0;"/><polygon fill="#A80036" points="424.223,110.4524,430.4626,118.0726,428.6888,112.701,434.0604,110.9272,424.223,110.4524" style="stroke: #A80036; stroke-width: 1.0;"/><text fill="#000000" font-family="sans-serif" font-size="13" lengthAdjust="spacingAndGlyphs" textLength="52" x="476.5" y="161.6045">アプリか</text><text fill="#000000" font-family="sans-serif" font-size="13" lengthAdjust="spacingAndGlyphs" textLength="39" x="483" y="177.9561">任意の</text><text fill="#000000" font-family="sans-serif" font-size="13" lengthAdjust="spacingAndGlyphs" textLength="65" x="470" y="194.3076">ユーザーを</text><text fill="#000000" font-family="sans-serif" font-size="13" lengthAdjust="spacingAndGlyphs" textLength="26" x="489.5" y="210.6592">押下</text><!--link sc2.1 to sc6.1--><path d="M424.05,96.9434 C460.546,100.5154 508.29,110.8404 540,139.1094 C569.511,165.4184 550.059,189.2204 572,222.1094 C575.297,227.0509 579.269,231.8486 583.461,236.3271 " fill="none" id="sc2.1-sc6.1" style="stroke: #A80036; stroke-width: 1.0;"/><polygon fill="#A80036" points="587.023,240.0101,583.6412,230.76,583.5469,236.4161,577.8908,236.3218,587.023,240.0101" style="stroke: #A80036; stroke-width: 1.0;"/><text fill="#000000" font-family="sans-serif" font-size="13" lengthAdjust="spacingAndGlyphs" textLength="39" x="586" y="153.6045">任意の</text><text fill="#000000" font-family="sans-serif" font-size="13" lengthAdjust="spacingAndGlyphs" textLength="39" x="586" y="169.9561">アプリ</text><text fill="#000000" font-family="sans-serif" font-size="13" lengthAdjust="spacingAndGlyphs" textLength="65" x="573" y="186.3076">アイコンか</text><text fill="#000000" font-family="sans-serif" font-size="13" lengthAdjust="spacingAndGlyphs" textLength="65" x="573" y="202.6592">アプリ名を</text><text fill="#000000" font-family="sans-serif" font-size="13" lengthAdjust="spacingAndGlyphs" textLength="26" x="592.5" y="219.0107">押下</text><!--link sc6.1 to sc2.1--><path d="M630.797,239.9641 C645.604,212.3586 663.013,167.3514 639,139.1094 C612.649,108.1174 499.694,99.1504 429.413,96.5914 " fill="none" id="sc6.1-sc2.1" style="stroke: #A80036; stroke-width: 1.0;"/><polygon fill="#A80036" points="424.009,96.4044,432.8653,100.7131,429.006,96.5772,433.1419,92.7179,424.009,96.4044" style="stroke: #A80036; stroke-width: 1.0;"/><text fill="#000000" font-family="sans-serif" font-size="13" lengthAdjust="spacingAndGlyphs" textLength="39" x="664" y="169.6045">任意の</text><text fill="#000000" font-family="sans-serif" font-size="13" lengthAdjust="spacingAndGlyphs" textLength="65" x="651" y="185.9561">ユーザーを</text><text fill="#000000" font-family="sans-serif" font-size="13" lengthAdjust="spacingAndGlyphs" textLength="26" x="670.5" y="202.3076">押下</text><!--
@startuml
	state "コンテンツ" as content {
		state "Aboutページ" as sc1
		state "ユーザー詳細" as sc2.1 : 任意のユーザー
		state "フォロー一覧" as sc3
		state "フォロワー一覧" as sc4
		state "タグ詳細" as sc5
		state "アプリ詳細" as sc6.1
		[*] -left-> sc1 : "/"に\nアクセス
		[*] -right-> sc2.1 : ユーザーの\nURLに\nアクセス
		sc2.1 - -> sc3 : フォローを\n押下
		sc3 - -> sc2.1 : アプリか\n任意の\nユーザーを\n押下
		sc2.1 - -> sc4 : フォロワーを\n押下
		sc4 - -> sc2.1 : 任意の\nユーザーを\n押下
		sc2.1 - -> sc5 : 任意の\nタグを\n押下
		sc5 - -> sc2.1 : アプリか\n任意の\nユーザーを\n押下
		sc2.1 - -> sc6.1 : 任意の\nアプリ\nアイコンか\nアプリ名を\n押下
		sc6.1 - -> sc2.1 : 任意の\nユーザーを\n押下
	}
@enduml

PlantUML version 1.2019.06(Sat May 25 02:10:25 JST 2019)
(GPL source distribution)
Java Runtime: OpenJDK Runtime Environment
JVM: OpenJDK 64-Bit Server VM
Java Version: 14.0.2+12-46
Operating System: Windows 10
OS Version: 10.0
Default Encoding: MS932
Language: ja
Country: JP
--></g></svg>