<?xml version="1.0" encoding="UTF-8" standalone="no"?><svg xmlns="http://www.w3.org/2000/svg" xmlns:xlink="http://www.w3.org/1999/xlink" contentScriptType="application/ecmascript" contentStyleType="text/css" height="248px" preserveAspectRatio="none" style="width:857px;height:248px;" version="1.1" viewBox="0 0 857 248" width="857px" zoomAndPan="magnify"><defs><filter height="300%" id="f12yojitq9pln0" width="300%" x="-1" y="-1"><feGaussianBlur result="blurOut" stdDeviation="2.0"/><feColorMatrix in="blurOut" result="blurOut2" type="matrix" values="0 0 0 0 0 0 0 0 0 0 0 0 0 0 0 0 0 0 .4 0"/><feOffset dx="4.0" dy="4.0" in="blurOut2" result="blurOut3"/><feBlend in="SourceGraphic" in2="blurOut3" mode="normal"/></filter></defs><g><!--cluster common--><polygon fill="#FFFFFF" filter="url(#f12yojitq9pln0)" points="112,24.5,146,24.5,153,48.1094,835,48.1094,835,236,112,236,112,24.5" style="stroke: #000000; stroke-width: 1.5;"/><line style="stroke: #000000; stroke-width: 1.5;" x1="112" x2="153" y1="48.1094" y2="48.1094"/><text fill="#000000" font-family="sans-serif" font-size="14" font-weight="bold" lengthAdjust="spacingAndGlyphs" textLength="28" x="116" y="41.0332">共通</text><!--class header--><rect fill="#FEFECE" filter="url(#f12yojitq9pln0)" height="48" id="header" style="stroke: #A80036; stroke-width: 1.5;" width="71" x="583.5" y="60.5"/><ellipse cx="598.5" cy="76.5" fill="#ADD1B2" rx="11" ry="11" style="stroke: #A80036; stroke-width: 1.0;"/><path d="M602.1875,77.7031 Q601.9375,81.1875 600.7969,82.3438 Q599.7656,83.3594 598.3594,83.3594 Q596.9531,83.3594 595.9219,82.3438 Q594.1719,80.5781 594.1719,76.9063 Q594.1719,72.6563 596.0469,70.75 Q597.0938,69.7344 598.4219,69.7344 Q599.8281,69.7344 600.6719,70.5469 Q602.1563,72.0625 602.0781,74.9375 L599.9531,74.9375 Q599.875,72.6094 599.2344,71.9688 Q598.9531,71.6719 598.4219,71.6719 Q597.9688,71.6719 597.6094,72.0469 Q596.375,73.2656 596.375,76.7813 Q596.375,79.8281 597.4219,80.8438 Q597.8438,81.2813 598.3594,81.2813 Q598.8125,81.2813 599.25,80.8438 Q599.8125,80.2969 599.8906,77.7031 L602.1875,77.7031 Z "/><text fill="#000000" font-family="sans-serif" font-size="12" lengthAdjust="spacingAndGlyphs" textLength="39" x="612.5" y="81.4102">header</text><line style="stroke: #A80036; stroke-width: 1.5;" x1="584.5" x2="653.5" y1="92.5" y2="92.5"/><line style="stroke: #A80036; stroke-width: 1.5;" x1="584.5" x2="653.5" y1="100.5" y2="100.5"/><!--class sc21--><rect fill="#FEFECE" filter="url(#f12yojitq9pln0)" height="48" id="sc21" style="stroke: #A80036; stroke-width: 1.5;" width="59" x="498.5" y="172"/><ellipse cx="513.5" cy="188" fill="#ADD1B2" rx="11" ry="11" style="stroke: #A80036; stroke-width: 1.0;"/><path d="M517.1875,189.2031 Q516.9375,192.6875 515.7969,193.8438 Q514.7656,194.8594 513.3594,194.8594 Q511.9531,194.8594 510.9219,193.8438 Q509.1719,192.0781 509.1719,188.4063 Q509.1719,184.1563 511.0469,182.25 Q512.0938,181.2344 513.4219,181.2344 Q514.8281,181.2344 515.6719,182.0469 Q517.1563,183.5625 517.0781,186.4375 L514.9531,186.4375 Q514.875,184.1094 514.2344,183.4688 Q513.9531,183.1719 513.4219,183.1719 Q512.9688,183.1719 512.6094,183.5469 Q511.375,184.7656 511.375,188.2813 Q511.375,191.3281 512.4219,192.3438 Q512.8438,192.7813 513.3594,192.7813 Q513.8125,192.7813 514.25,192.3438 Q514.8125,191.7969 514.8906,189.2031 L517.1875,189.2031 Z "/><text fill="#000000" font-family="sans-serif" font-size="12" lengthAdjust="spacingAndGlyphs" textLength="27" x="527.5" y="192.9102">sc21</text><line style="stroke: #A80036; stroke-width: 1.5;" x1="499.5" x2="556.5" y1="204" y2="204"/><line style="stroke: #A80036; stroke-width: 1.5;" x1="499.5" x2="556.5" y1="212" y2="212"/><!--class sc7--><rect fill="#FEFECE" filter="url(#f12yojitq9pln0)" height="48" id="sc7" style="stroke: #A80036; stroke-width: 1.5;" width="52" x="593" y="172"/><ellipse cx="608" cy="188" fill="#ADD1B2" rx="11" ry="11" style="stroke: #A80036; stroke-width: 1.0;"/><path d="M611.6875,189.2031 Q611.4375,192.6875 610.2969,193.8438 Q609.2656,194.8594 607.8594,194.8594 Q606.4531,194.8594 605.4219,193.8438 Q603.6719,192.0781 603.6719,188.4063 Q603.6719,184.1563 605.5469,182.25 Q606.5938,181.2344 607.9219,181.2344 Q609.3281,181.2344 610.1719,182.0469 Q611.6563,183.5625 611.5781,186.4375 L609.4531,186.4375 Q609.375,184.1094 608.7344,183.4688 Q608.4531,183.1719 607.9219,183.1719 Q607.4688,183.1719 607.1094,183.5469 Q605.875,184.7656 605.875,188.2813 Q605.875,191.3281 606.9219,192.3438 Q607.3438,192.7813 607.8594,192.7813 Q608.3125,192.7813 608.75,192.3438 Q609.3125,191.7969 609.3906,189.2031 L611.6875,189.2031 Z "/><text fill="#000000" font-family="sans-serif" font-size="12" lengthAdjust="spacingAndGlyphs" textLength="20" x="622" y="192.9102">sc7</text><line style="stroke: #A80036; stroke-width: 1.5;" x1="594" x2="644" y1="204" y2="204"/><line style="stroke: #A80036; stroke-width: 1.5;" x1="594" x2="644" y1="212" y2="212"/><!--class sc8--><rect fill="#FEFECE" filter="url(#f12yojitq9pln0)" height="48" id="sc8" style="stroke: #A80036; stroke-width: 1.5;" width="52" x="680" y="172"/><ellipse cx="695" cy="188" fill="#ADD1B2" rx="11" ry="11" style="stroke: #A80036; stroke-width: 1.0;"/><path d="M698.6875,189.2031 Q698.4375,192.6875 697.2969,193.8438 Q696.2656,194.8594 694.8594,194.8594 Q693.4531,194.8594 692.4219,193.8438 Q690.6719,192.0781 690.6719,188.4063 Q690.6719,184.1563 692.5469,182.25 Q693.5938,181.2344 694.9219,181.2344 Q696.3281,181.2344 697.1719,182.0469 Q698.6563,183.5625 698.5781,186.4375 L696.4531,186.4375 Q696.375,184.1094 695.7344,183.4688 Q695.4531,183.1719 694.9219,183.1719 Q694.4688,183.1719 694.1094,183.5469 Q692.875,184.7656 692.875,188.2813 Q692.875,191.3281 693.9219,192.3438 Q694.3438,192.7813 694.8594,192.7813 Q695.3125,192.7813 695.75,192.3438 Q696.3125,191.7969 696.3906,189.2031 L698.6875,189.2031 Z "/><text fill="#000000" font-family="sans-serif" font-size="12" lengthAdjust="spacingAndGlyphs" textLength="20" x="709" y="192.9102">sc8</text><line style="stroke: #A80036; stroke-width: 1.5;" x1="681" x2="731" y1="204" y2="204"/><line style="stroke: #A80036; stroke-width: 1.5;" x1="681" x2="731" y1="212" y2="212"/><!--class sc9--><rect fill="#FEFECE" filter="url(#f12yojitq9pln0)" height="48" id="sc9" style="stroke: #A80036; stroke-width: 1.5;" width="52" x="411" y="172"/><ellipse cx="426" cy="188" fill="#ADD1B2" rx="11" ry="11" style="stroke: #A80036; stroke-width: 1.0;"/><path d="M429.6875,189.2031 Q429.4375,192.6875 428.2969,193.8438 Q427.2656,194.8594 425.8594,194.8594 Q424.4531,194.8594 423.4219,193.8438 Q421.6719,192.0781 421.6719,188.4063 Q421.6719,184.1563 423.5469,182.25 Q424.5938,181.2344 425.9219,181.2344 Q427.3281,181.2344 428.1719,182.0469 Q429.6563,183.5625 429.5781,186.4375 L427.4531,186.4375 Q427.375,184.1094 426.7344,183.4688 Q426.4531,183.1719 425.9219,183.1719 Q425.4688,183.1719 425.1094,183.5469 Q423.875,184.7656 423.875,188.2813 Q423.875,191.3281 424.9219,192.3438 Q425.3438,192.7813 425.8594,192.7813 Q426.3125,192.7813 426.75,192.3438 Q427.3125,191.7969 427.3906,189.2031 L429.6875,189.2031 Z "/><text fill="#000000" font-family="sans-serif" font-size="12" lengthAdjust="spacingAndGlyphs" textLength="20" x="440" y="192.9102">sc9</text><line style="stroke: #A80036; stroke-width: 1.5;" x1="412" x2="462" y1="204" y2="204"/><line style="stroke: #A80036; stroke-width: 1.5;" x1="412" x2="462" y1="212" y2="212"/><!--class sc1--><rect fill="#FEFECE" filter="url(#f12yojitq9pln0)" height="48" id="sc1" style="stroke: #A80036; stroke-width: 1.5;" width="52" x="767" y="172"/><ellipse cx="782" cy="188" fill="#ADD1B2" rx="11" ry="11" style="stroke: #A80036; stroke-width: 1.0;"/><path d="M785.6875,189.2031 Q785.4375,192.6875 784.2969,193.8438 Q783.2656,194.8594 781.8594,194.8594 Q780.4531,194.8594 779.4219,193.8438 Q777.6719,192.0781 777.6719,188.4063 Q777.6719,184.1563 779.5469,182.25 Q780.5938,181.2344 781.9219,181.2344 Q783.3281,181.2344 784.1719,182.0469 Q785.6563,183.5625 785.5781,186.4375 L783.4531,186.4375 Q783.375,184.1094 782.7344,183.4688 Q782.4531,183.1719 781.9219,183.1719 Q781.4688,183.1719 781.1094,183.5469 Q779.875,184.7656 779.875,188.2813 Q779.875,191.3281 780.9219,192.3438 Q781.3438,192.7813 781.8594,192.7813 Q782.3125,192.7813 782.75,192.3438 Q783.3125,191.7969 783.3906,189.2031 L785.6875,189.2031 Z "/><text fill="#000000" font-family="sans-serif" font-size="12" lengthAdjust="spacingAndGlyphs" textLength="20" x="796" y="192.9102">sc1</text><line style="stroke: #A80036; stroke-width: 1.5;" x1="768" x2="818" y1="204" y2="204"/><line style="stroke: #A80036; stroke-width: 1.5;" x1="768" x2="818" y1="212" y2="212"/><!--class footer--><rect fill="#FEFECE" filter="url(#f12yojitq9pln0)" height="48" id="footer" style="stroke: #A80036; stroke-width: 1.5;" width="63" x="267.5" y="60.5"/><ellipse cx="282.5" cy="76.5" fill="#ADD1B2" rx="11" ry="11" style="stroke: #A80036; stroke-width: 1.0;"/><path d="M286.1875,77.7031 Q285.9375,81.1875 284.7969,82.3438 Q283.7656,83.3594 282.3594,83.3594 Q280.9531,83.3594 279.9219,82.3438 Q278.1719,80.5781 278.1719,76.9063 Q278.1719,72.6563 280.0469,70.75 Q281.0938,69.7344 282.4219,69.7344 Q283.8281,69.7344 284.6719,70.5469 Q286.1563,72.0625 286.0781,74.9375 L283.9531,74.9375 Q283.875,72.6094 283.2344,71.9688 Q282.9531,71.6719 282.4219,71.6719 Q281.9688,71.6719 281.6094,72.0469 Q280.375,73.2656 280.375,76.7813 Q280.375,79.8281 281.4219,80.8438 Q281.8438,81.2813 282.3594,81.2813 Q282.8125,81.2813 283.25,80.8438 Q283.8125,80.2969 283.8906,77.7031 L286.1875,77.7031 Z "/><text fill="#000000" font-family="sans-serif" font-size="12" lengthAdjust="spacingAndGlyphs" textLength="31" x="296.5" y="81.4102">footer</text><line style="stroke: #A80036; stroke-width: 1.5;" x1="268.5" x2="329.5" y1="92.5" y2="92.5"/><line style="stroke: #A80036; stroke-width: 1.5;" x1="268.5" x2="329.5" y1="100.5" y2="100.5"/><!--class sc10--><rect fill="#FEFECE" filter="url(#f12yojitq9pln0)" height="48" id="sc10" style="stroke: #A80036; stroke-width: 1.5;" width="59" x="316.5" y="172"/><ellipse cx="331.5" cy="188" fill="#ADD1B2" rx="11" ry="11" style="stroke: #A80036; stroke-width: 1.0;"/><path d="M335.1875,189.2031 Q334.9375,192.6875 333.7969,193.8438 Q332.7656,194.8594 331.3594,194.8594 Q329.9531,194.8594 328.9219,193.8438 Q327.1719,192.0781 327.1719,188.4063 Q327.1719,184.1563 329.0469,182.25 Q330.0938,181.2344 331.4219,181.2344 Q332.8281,181.2344 333.6719,182.0469 Q335.1563,183.5625 335.0781,186.4375 L332.9531,186.4375 Q332.875,184.1094 332.2344,183.4688 Q331.9531,183.1719 331.4219,183.1719 Q330.9688,183.1719 330.6094,183.5469 Q329.375,184.7656 329.375,188.2813 Q329.375,191.3281 330.4219,192.3438 Q330.8438,192.7813 331.3594,192.7813 Q331.8125,192.7813 332.25,192.3438 Q332.8125,191.7969 332.8906,189.2031 L335.1875,189.2031 Z "/><text fill="#000000" font-family="sans-serif" font-size="12" lengthAdjust="spacingAndGlyphs" textLength="27" x="345.5" y="192.9102">sc10</text><line style="stroke: #A80036; stroke-width: 1.5;" x1="317.5" x2="374.5" y1="204" y2="204"/><line style="stroke: #A80036; stroke-width: 1.5;" x1="317.5" x2="374.5" y1="212" y2="212"/><!--class sc11--><rect fill="#FEFECE" filter="url(#f12yojitq9pln0)" height="48" id="sc11" style="stroke: #A80036; stroke-width: 1.5;" width="59" x="128.5" y="172"/><ellipse cx="143.5" cy="188" fill="#ADD1B2" rx="11" ry="11" style="stroke: #A80036; stroke-width: 1.0;"/><path d="M147.1875,189.2031 Q146.9375,192.6875 145.7969,193.8438 Q144.7656,194.8594 143.3594,194.8594 Q141.9531,194.8594 140.9219,193.8438 Q139.1719,192.0781 139.1719,188.4063 Q139.1719,184.1563 141.0469,182.25 Q142.0938,181.2344 143.4219,181.2344 Q144.8281,181.2344 145.6719,182.0469 Q147.1563,183.5625 147.0781,186.4375 L144.9531,186.4375 Q144.875,184.1094 144.2344,183.4688 Q143.9531,183.1719 143.4219,183.1719 Q142.9688,183.1719 142.6094,183.5469 Q141.375,184.7656 141.375,188.2813 Q141.375,191.3281 142.4219,192.3438 Q142.8438,192.7813 143.3594,192.7813 Q143.8125,192.7813 144.25,192.3438 Q144.8125,191.7969 144.8906,189.2031 L147.1875,189.2031 Z "/><text fill="#000000" font-family="sans-serif" font-size="12" lengthAdjust="spacingAndGlyphs" textLength="27" x="157.5" y="192.9102">sc11</text><line style="stroke: #A80036; stroke-width: 1.5;" x1="129.5" x2="186.5" y1="204" y2="204"/><line style="stroke: #A80036; stroke-width: 1.5;" x1="129.5" x2="186.5" y1="212" y2="212"/><!--class sc12--><rect fill="#FEFECE" filter="url(#f12yojitq9pln0)" height="48" id="sc12" style="stroke: #A80036; stroke-width: 1.5;" width="59" x="222.5" y="172"/><ellipse cx="237.5" cy="188" fill="#ADD1B2" rx="11" ry="11" style="stroke: #A80036; stroke-width: 1.0;"/><path d="M241.1875,189.2031 Q240.9375,192.6875 239.7969,193.8438 Q238.7656,194.8594 237.3594,194.8594 Q235.9531,194.8594 234.9219,193.8438 Q233.1719,192.0781 233.1719,188.4063 Q233.1719,184.1563 235.0469,182.25 Q236.0938,181.2344 237.4219,181.2344 Q238.8281,181.2344 239.6719,182.0469 Q241.1563,183.5625 241.0781,186.4375 L238.9531,186.4375 Q238.875,184.1094 238.2344,183.4688 Q237.9531,183.1719 237.4219,183.1719 Q236.9688,183.1719 236.6094,183.5469 Q235.375,184.7656 235.375,188.2813 Q235.375,191.3281 236.4219,192.3438 Q236.8438,192.7813 237.3594,192.7813 Q237.8125,192.7813 238.25,192.3438 Q238.8125,191.7969 238.8906,189.2031 L241.1875,189.2031 Z "/><text fill="#000000" font-family="sans-serif" font-size="12" lengthAdjust="spacingAndGlyphs" textLength="27" x="251.5" y="192.9102">sc12</text><line style="stroke: #A80036; stroke-width: 1.5;" x1="223.5" x2="280.5" y1="204" y2="204"/><line style="stroke: #A80036; stroke-width: 1.5;" x1="223.5" x2="280.5" y1="212" y2="212"/><polygon fill="#FFFFFF" filter="url(#f12yojitq9pln0)" points="6,57,82,57,89,80.6094,96,80.6094,96,112.2188,6,112.2188,6,57" style="stroke: #000000; stroke-width: 1.5;"/><line style="stroke: #000000; stroke-width: 1.5;" x1="6" x2="89" y1="80.6094" y2="80.6094"/><text fill="#000000" font-family="sans-serif" font-size="14" font-weight="bold" lengthAdjust="spacingAndGlyphs" textLength="70" x="10" y="73.5332">コンテンツ</text><!--link header to sc21--><path d="M599.701,108.722 C584.258,127.305 562.707,153.2377 547.271,171.8113 " fill="none" id="header-sc21" style="stroke: #A80036; stroke-width: 1.0;"/><!--link header to sc7--><path d="M619,108.722 C619,127.305 619,153.2377 619,171.8113 " fill="none" id="header-sc7" style="stroke: #A80036; stroke-width: 1.0;"/><!--link header to sc8--><path d="M637.45,108.722 C652.215,127.305 672.819,153.2377 687.576,171.8113 " fill="none" id="header-sc8" style="stroke: #A80036; stroke-width: 1.0;"/><!--link header to sc9--><path d="M583.477,106.873 C548.097,128.158 494.627,160.3286 463.02,179.345 " fill="none" id="header-sc9" style="stroke: #A80036; stroke-width: 1.0;"/><!--link header to sc1--><path d="M654.631,107.923 C687.939,128.884 736.897,159.6936 766.766,178.4905 " fill="none" id="header-sc1" style="stroke: #A80036; stroke-width: 1.0;"/><!--link footer to sc9--><path d="M328.266,108.722 C352.635,128.058 387.033,155.3524 410.576,174.033 " fill="none" id="footer-sc9" style="stroke: #A80036; stroke-width: 1.0;"/><!--link footer to sc10--><path d="M308.967,108.722 C316.944,127.305 328.075,153.2377 336.047,171.8113 " fill="none" id="footer-sc10" style="stroke: #A80036; stroke-width: 1.0;"/><!--link footer to sc11--><path d="M269.098,108.722 C245.169,127.305 211.776,153.2377 187.859,171.8113 " fill="none" id="footer-sc11" style="stroke: #A80036; stroke-width: 1.0;"/><!--link footer to sc12--><path d="M289.033,108.722 C281.056,127.305 269.925,153.2377 261.953,171.8113 " fill="none" id="footer-sc12" style="stroke: #A80036; stroke-width: 1.0;"/><!--
@startuml
	package "共通" as common {
		
		header - - sc21
		header - - sc7
		header - - sc8
		header - - sc9
		header - - sc1
		footer - - sc9
		footer - - sc10
		footer - - sc11
		footer - - sc12
	}
	package "コンテンツ" as content {
	
	}
@enduml

PlantUML version 1.2019.06(Sat May 25 02:10:25 JST 2019)
(GPL source distribution)
Java Runtime: OpenJDK Runtime Environment
JVM: OpenJDK 64-Bit Server VM
Java Version: 14.0.2+12-46
Operating System: Windows 10
OS Version: 10.0
Default Encoding: MS932
Language: ja
Country: JP
--></g></svg>