<?xml version="1.0" encoding="UTF-8" standalone="no"?><svg xmlns="http://www.w3.org/2000/svg" xmlns:xlink="http://www.w3.org/1999/xlink" contentScriptType="application/ecmascript" contentStyleType="text/css" height="335px" preserveAspectRatio="none" style="width:702px;height:335px;" version="1.1" viewBox="0 0 702 335" width="702px" zoomAndPan="magnify"><defs><filter height="300%" id="f1mzix9a812rfv" width="300%" x="-1" y="-1"><feGaussianBlur result="blurOut" stdDeviation="2.0"/><feColorMatrix in="blurOut" result="blurOut2" type="matrix" values="0 0 0 0 0 0 0 0 0 0 0 0 0 0 0 0 0 0 .4 0"/><feOffset dx="4.0" dy="4.0" in="blurOut2" result="blurOut3"/><feBlend in="SourceGraphic" in2="blurOut3" mode="normal"/></filter></defs><g><rect fill="#FEFECE" filter="url(#f1mzix9a812rfv)" height="316.6094" rx="12.5" ry="12.5" style="stroke: #A80036; stroke-width: 1.5;" width="684" x="6" y="8"/><rect fill="#FFFFFF" height="283" rx="12.5" ry="12.5" style="stroke: #FFFFFF; stroke-width: 1.0;" width="678" x="9" y="38.6094"/><line style="stroke: #A80036; stroke-width: 1.5;" x1="6" x2="690" y1="35.6094" y2="35.6094"/><text fill="#000000" font-family="sans-serif" font-size="14" lengthAdjust="spacingAndGlyphs" textLength="47" x="324.5" y="27.5332">content</text><rect fill="#FEFECE" filter="url(#f1mzix9a812rfv)" height="50" rx="12.5" ry="12.5" style="stroke: #A80036; stroke-width: 1.5;" width="99" x="17" y="69.6094"/><line style="stroke: #A80036; stroke-width: 1.5;" x1="17" x2="116" y1="97.2188" y2="97.2188"/><text fill="#000000" font-family="sans-serif" font-size="14" lengthAdjust="spacingAndGlyphs" textLength="79" x="27" y="89.1426">Aboutページ</text><rect fill="#FEFECE" filter="url(#f1mzix9a812rfv)" height="52.7031" rx="12.5" ry="12.5" style="stroke: #A80036; stroke-width: 1.5;" width="104" x="292.5" y="68.1094"/><line style="stroke: #A80036; stroke-width: 1.5;" x1="292.5" x2="396.5" y1="95.7188" y2="95.7188"/><text fill="#000000" font-family="sans-serif" font-size="14" lengthAdjust="spacingAndGlyphs" textLength="84" x="302.5" y="87.6426">ユーザー詳細</text><text fill="#000000" font-family="sans-serif" font-size="12" lengthAdjust="spacingAndGlyphs" textLength="84" x="297.5" y="113.1758">任意のユーザー</text><rect fill="#FEFECE" filter="url(#f1mzix9a812rfv)" height="50" rx="12.5" ry="12.5" style="stroke: #A80036; stroke-width: 1.5;" width="104" x="34.5" y="240.1094"/><line style="stroke: #A80036; stroke-width: 1.5;" x1="34.5" x2="138.5" y1="267.7188" y2="267.7188"/><text fill="#000000" font-family="sans-serif" font-size="14" lengthAdjust="spacingAndGlyphs" textLength="84" x="44.5" y="259.6426">フォロー一覧</text><rect fill="#FEFECE" filter="url(#f1mzix9a812rfv)" height="50" rx="12.5" ry="12.5" style="stroke: #A80036; stroke-width: 1.5;" width="118" x="221.5" y="240.1094"/><line style="stroke: #A80036; stroke-width: 1.5;" x1="221.5" x2="339.5" y1="267.7188" y2="267.7188"/><text fill="#000000" font-family="sans-serif" font-size="14" lengthAdjust="spacingAndGlyphs" textLength="98" x="231.5" y="259.6426">フォロワー一覧</text><rect fill="#FEFECE" filter="url(#f1mzix9a812rfv)" height="50" rx="12.5" ry="12.5" style="stroke: #A80036; stroke-width: 1.5;" width="76" x="422.5" y="240.1094"/><line style="stroke: #A80036; stroke-width: 1.5;" x1="422.5" x2="498.5" y1="267.7188" y2="267.7188"/><text fill="#000000" font-family="sans-serif" font-size="14" lengthAdjust="spacingAndGlyphs" textLength="56" x="432.5" y="259.6426">タグ詳細</text><rect fill="#FEFECE" filter="url(#f1mzix9a812rfv)" height="50" rx="12.5" ry="12.5" style="stroke: #A80036; stroke-width: 1.5;" width="90" x="543.5" y="240.1094"/><line style="stroke: #A80036; stroke-width: 1.5;" x1="543.5" x2="633.5" y1="267.7188" y2="267.7188"/><text fill="#000000" font-family="sans-serif" font-size="14" lengthAdjust="spacingAndGlyphs" textLength="70" x="553.5" y="259.6426">アプリ詳細</text><ellipse cx="197.5" cy="94.6094" fill="#000000" filter="url(#f1mzix9a812rfv)" rx="10" ry="10" style="stroke: none; stroke-width: 1.0;"/><!--link sc1 to *start*content--><path d="M121.294,94.6094 C146.157,94.6094 173.135,94.6094 187.372,94.6094 " fill="none" id="sc1-*start*content" style="stroke: #A80036; stroke-width: 1.0;"/><polygon fill="#A80036" points="116.0255,94.6094,125.0255,98.6094,121.0255,94.6094,125.0255,90.6094,116.0255,94.6094" style="stroke: #A80036; stroke-width: 1.0;"/><text fill="#000000" font-family="sans-serif" font-size="13" lengthAdjust="spacingAndGlyphs" textLength="27" x="138.25" y="72.1045">"/"に</text><text fill="#000000" font-family="sans-serif" font-size="13" lengthAdjust="spacingAndGlyphs" textLength="52" x="125.75" y="88.4561">アクセス</text><!--link *start*content to sc2.1--><path d="M207.604,94.6094 C223.976,94.6094 257.474,94.6094 287.235,94.6094 " fill="none" id="*start*content-sc2.1" style="stroke: #A80036; stroke-width: 1.0;"/><polygon fill="#A80036" points="292.358,94.6094,283.358,90.6094,287.358,94.6094,283.358,98.6094,292.358,94.6094" style="stroke: #A80036; stroke-width: 1.0;"/><text fill="#000000" font-family="sans-serif" font-size="13" lengthAdjust="spacingAndGlyphs" textLength="65" x="217.5" y="55.1045">ユーザーの</text><text fill="#000000" font-family="sans-serif" font-size="13" lengthAdjust="spacingAndGlyphs" textLength="38" x="231" y="71.4561">URLに</text><text fill="#000000" font-family="sans-serif" font-size="13" lengthAdjust="spacingAndGlyphs" textLength="52" x="224" y="87.8076">アクセス</text><!--link sc2.1 to sc3--><path d="M292.357,106.9834 C269.201,111.7784 241.568,117.1544 216.5,121.1094 C182.466,126.4794 85.4057,113.3704 62.5,139.1094 C39.1696,165.3254 54.0221,207.1207 68.6618,235.0765 " fill="none" id="sc2.1-sc3" style="stroke: #A80036; stroke-width: 1.0;"/><polygon fill="#A80036" points="71.193,239.7836,70.4533,229.9625,68.8249,235.3799,63.4075,233.7515,71.193,239.7836" style="stroke: #A80036; stroke-width: 1.0;"/><text fill="#000000" font-family="sans-serif" font-size="13" lengthAdjust="spacingAndGlyphs" textLength="65" x="63.5" y="178.1045">フォローを</text><text fill="#000000" font-family="sans-serif" font-size="13" lengthAdjust="spacingAndGlyphs" textLength="26" x="83" y="194.4561">押下</text><!--link sc3 to sc2.1--><path d="M114.9058,239.9984 C120.252,234.5131 125.433,228.4269 129.5,222.1094 C150.733,189.1284 130.204,165.1924 159.5,139.1094 C169.179,130.4924 236.652,116.0684 287.338,106.2114 " fill="none" id="sc3-sc2.1" style="stroke: #A80036; stroke-width: 1.0;"/><polygon fill="#A80036" points="292.498,105.2124,282.9019,102.9954,287.5891,106.1624,284.422,110.8496,292.498,105.2124" style="stroke: #A80036; stroke-width: 1.0;"/><text fill="#000000" font-family="sans-serif" font-size="13" lengthAdjust="spacingAndGlyphs" textLength="52" x="167" y="161.6045">アプリか</text><text fill="#000000" font-family="sans-serif" font-size="13" lengthAdjust="spacingAndGlyphs" textLength="39" x="173.5" y="177.9561">任意の</text><text fill="#000000" font-family="sans-serif" font-size="13" lengthAdjust="spacingAndGlyphs" textLength="65" x="160.5" y="194.3076">ユーザーを</text><text fill="#000000" font-family="sans-serif" font-size="13" lengthAdjust="spacingAndGlyphs" textLength="26" x="180" y="210.6592">押下</text><!--link sc2.1 to sc4--><path d="M292.334,105.2854 C273.353,111.6014 253.802,122.0024 242.5,139.1094 C222.166,169.8874 229.239,187.6864 242.5,222.1094 C244.356,226.9267 247.049,231.5346 250.157,235.8163 " fill="none" id="sc2.1-sc4" style="stroke: #A80036; stroke-width: 1.0;"/><polygon fill="#A80036" points="253.389,239.985,251.0361,230.4213,250.3256,236.0333,244.7135,235.3228,253.389,239.985" style="stroke: #A80036; stroke-width: 1.0;"/><text fill="#000000" font-family="sans-serif" font-size="13" lengthAdjust="spacingAndGlyphs" textLength="78" x="243.5" y="178.1045">フォロワーを</text><text fill="#000000" font-family="sans-serif" font-size="13" lengthAdjust="spacingAndGlyphs" textLength="26" x="269.5" y="194.4561">押下</text><!--link sc4 to sc2.1--><path d="M309.53,239.959 C314.527,234.5594 319.174,228.5161 322.5,222.1094 C338.097,192.0612 342.931,153.1434 344.283,126.4554 " fill="none" id="sc4-sc2.1" style="stroke: #A80036; stroke-width: 1.0;"/><polygon fill="#A80036" points="344.509,121.2864,340.1194,130.1029,344.2905,126.2816,348.1118,130.4526,344.509,121.2864" style="stroke: #A80036; stroke-width: 1.0;"/><text fill="#000000" font-family="sans-serif" font-size="13" lengthAdjust="spacingAndGlyphs" textLength="39" x="357.5" y="169.6045">任意の</text><text fill="#000000" font-family="sans-serif" font-size="13" lengthAdjust="spacingAndGlyphs" textLength="65" x="344.5" y="185.9561">ユーザーを</text><text fill="#000000" font-family="sans-serif" font-size="13" lengthAdjust="spacingAndGlyphs" textLength="26" x="364" y="202.3076">押下</text><!--link sc2.1 to sc5--><path d="M394.262,121.1654 C401.117,126.3614 407.505,132.3444 412.5,139.1094 C435.237,169.9034 420.466,186.9064 435.5,222.1094 C437.36,226.4649 439.597,230.9176 441.959,235.218 " fill="none" id="sc2.1-sc5" style="stroke: #A80036; stroke-width: 1.0;"/><polygon fill="#A80036" points="444.558,239.8129,443.6089,230.0099,442.0964,235.4608,436.6455,233.9484,444.558,239.8129" style="stroke: #A80036; stroke-width: 1.0;"/><text fill="#000000" font-family="sans-serif" font-size="13" lengthAdjust="spacingAndGlyphs" textLength="39" x="436.5" y="169.6045">任意の</text><text fill="#000000" font-family="sans-serif" font-size="13" lengthAdjust="spacingAndGlyphs" textLength="39" x="436.5" y="185.9561">タグを</text><text fill="#000000" font-family="sans-serif" font-size="13" lengthAdjust="spacingAndGlyphs" textLength="26" x="443" y="202.3076">押下</text><!--link sc2.1 to sc6.1--><path d="M396.626,99.7394 C452.658,105.2574 536.767,117.0114 559.5,139.1094 C584.99,163.8874 589.971,206.3413 590.106,234.8093 " fill="none" id="sc2.1-sc6.1" style="stroke: #A80036; stroke-width: 1.0;"/><polygon fill="#A80036" points="590.079,239.9547,594.1268,230.9761,590.1056,234.9547,586.1269,230.9335,590.079,239.9547" style="stroke: #A80036; stroke-width: 1.0;"/><text fill="#000000" font-family="sans-serif" font-size="13" lengthAdjust="spacingAndGlyphs" textLength="39" x="603.5" y="153.6045">任意の</text><text fill="#000000" font-family="sans-serif" font-size="13" lengthAdjust="spacingAndGlyphs" textLength="39" x="603.5" y="169.9561">アプリ</text><text fill="#000000" font-family="sans-serif" font-size="13" lengthAdjust="spacingAndGlyphs" textLength="65" x="590.5" y="186.3076">アイコンか</text><text fill="#000000" font-family="sans-serif" font-size="13" lengthAdjust="spacingAndGlyphs" textLength="65" x="590.5" y="202.6592">アプリ名を</text><text fill="#000000" font-family="sans-serif" font-size="13" lengthAdjust="spacingAndGlyphs" textLength="26" x="610" y="219.0107">押下</text><!--link sc5 to sc2.1--><path d="M472.722,240.0241 C484.581,212.8874 497.914,168.7134 476.5,139.1094 C459.393,115.4594 428.978,104.4474 401.653,99.4104 " fill="none" id="sc5-sc2.1" style="stroke: #A80036; stroke-width: 1.0;"/><polygon fill="#A80036" points="396.59,98.5374,404.779,104.0092,401.5172,99.3874,406.139,96.1256,396.59,98.5374" style="stroke: #A80036; stroke-width: 1.0;"/><text fill="#000000" font-family="sans-serif" font-size="13" lengthAdjust="spacingAndGlyphs" textLength="52" x="496" y="161.6045">アプリか</text><text fill="#000000" font-family="sans-serif" font-size="13" lengthAdjust="spacingAndGlyphs" textLength="39" x="502.5" y="177.9561">任意の</text><text fill="#000000" font-family="sans-serif" font-size="13" lengthAdjust="spacingAndGlyphs" textLength="65" x="489.5" y="194.3076">ユーザーを</text><text fill="#000000" font-family="sans-serif" font-size="13" lengthAdjust="spacingAndGlyphs" textLength="26" x="509" y="210.6592">押下</text><!--
@startuml
	state content {
		state "Aboutページ" as sc1
		state "ユーザー詳細" as sc2.1 : 任意のユーザー
		state "フォロー一覧" as sc3
		state "フォロワー一覧" as sc4
		state "タグ詳細" as sc5
		state "アプリ詳細" as sc6.1
		[*] -left-> sc1 : "/"に\nアクセス
		[*] -right-> sc2.1 : ユーザーの\nURLに\nアクセス
		sc2.1 - -> sc3 : フォローを\n押下
		sc3 - -> sc2.1 : アプリか\n任意の\nユーザーを\n押下
		sc2.1 - -> sc4 : フォロワーを\n押下
		sc4 - -> sc2.1 : 任意の\nユーザーを\n押下
		sc2.1 - -> sc5 : 任意の\nタグを\n押下
		sc2.1 - -> sc6.1 : 任意の\nアプリ\nアイコンか\nアプリ名を\n押下
		sc5 - -> sc2.1 : アプリか\n任意の\nユーザーを\n押下
	}
@enduml

PlantUML version 1.2019.06(Sat May 25 02:10:25 JST 2019)
(GPL source distribution)
Java Runtime: OpenJDK Runtime Environment
JVM: OpenJDK 64-Bit Server VM
Java Version: 14.0.2+12-46
Operating System: Windows 10
OS Version: 10.0
Default Encoding: MS932
Language: ja
Country: JP
--></g></svg>