<?xml version="1.0" encoding="UTF-8" standalone="no"?><svg xmlns="http://www.w3.org/2000/svg" xmlns:xlink="http://www.w3.org/1999/xlink" contentScriptType="application/ecmascript" contentStyleType="text/css" height="470px" preserveAspectRatio="none" style="width:587px;height:470px;" version="1.1" viewBox="0 0 587 470" width="587px" zoomAndPan="magnify"><defs><filter height="300%" id="f1dbv0ld248b60" width="300%" x="-1" y="-1"><feGaussianBlur result="blurOut" stdDeviation="2.0"/><feColorMatrix in="blurOut" result="blurOut2" type="matrix" values="0 0 0 0 0 0 0 0 0 0 0 0 0 0 0 0 0 0 .4 0"/><feOffset dx="4.0" dy="4.0" in="blurOut2" result="blurOut3"/><feBlend in="SourceGraphic" in2="blurOut3" mode="normal"/></filter></defs><g><!--class apps--><rect fill="#FEFECE" filter="url(#f1dbv0ld248b60)" height="141.1797" id="apps" style="stroke: #A80036; stroke-width: 1.5;" width="128" x="6" y="41"/><ellipse cx="51.75" cy="57" fill="#ADD1B2" rx="11" ry="11" style="stroke: #A80036; stroke-width: 1.0;"/><path d="M50.4688,55.6719 L54.9844,55.6719 L54.9844,57.625 L50.4688,57.625 L50.4688,61.9219 L55.7031,61.9219 L55.7031,63.8594 L48.25,63.8594 L48.25,50.2344 L55.375,50.2344 L55.375,52.1719 L50.4688,52.1719 L50.4688,55.6719 Z "/><text fill="#000000" font-family="sans-serif" font-size="12" lengthAdjust="spacingAndGlyphs" textLength="28" x="72.25" y="61.9102">apps</text><line style="stroke: #A80036; stroke-width: 1.5;" x1="7" x2="133" y1="73" y2="73"/><text fill="#000000" font-family="sans-serif" font-size="11" lengthAdjust="spacingAndGlyphs" textLength="34" x="12" y="88.4189">aid : int</text><line style="stroke: #A80036; stroke-width: 1.0;" x1="7" x2="133" y1="94.8359" y2="94.8359"/><text fill="#000000" font-family="sans-serif" font-size="11" lengthAdjust="spacingAndGlyphs" textLength="80" x="12" y="110.2549">adisabled : bit(1)</text><line style="stroke: #A80036; stroke-width: 1.0;" x1="7" x2="133" y1="116.6719" y2="116.6719"/><text fill="#000000" font-family="sans-serif" font-size="11" lengthAdjust="spacingAndGlyphs" textLength="116" x="12" y="132.0908">aimgpath : varchar(255)</text><line style="stroke: #A80036; stroke-width: 1.0;" x1="7" x2="133" y1="138.5078" y2="138.5078"/><text fill="#000000" font-family="sans-serif" font-size="11" lengthAdjust="spacingAndGlyphs" textLength="105" x="12" y="153.9268">aname : varchar(255)</text><line style="stroke: #A80036; stroke-width: 1.0;" x1="7" x2="133" y1="160.3438" y2="160.3438"/><text fill="#000000" font-family="sans-serif" font-size="11" lengthAdjust="spacingAndGlyphs" textLength="91" x="12" y="175.7627">aurl : varchar(255)</text><!--class users--><rect fill="#FEFECE" filter="url(#f1dbv0ld248b60)" height="206.6875" id="users" style="stroke: #A80036; stroke-width: 1.5;" width="128" x="243" y="8"/><ellipse cx="286.8" cy="24" fill="#ADD1B2" rx="11" ry="11" style="stroke: #A80036; stroke-width: 1.0;"/><path d="M285.5188,22.6719 L290.0344,22.6719 L290.0344,24.625 L285.5188,24.625 L285.5188,28.9219 L290.7531,28.9219 L290.7531,30.8594 L283.3,30.8594 L283.3,17.2344 L290.425,17.2344 L290.425,19.1719 L285.5188,19.1719 L285.5188,22.6719 Z "/><text fill="#000000" font-family="sans-serif" font-size="12" lengthAdjust="spacingAndGlyphs" textLength="32" x="307.2" y="28.9102">users</text><line style="stroke: #A80036; stroke-width: 1.5;" x1="244" x2="370" y1="40" y2="40"/><text fill="#000000" font-family="sans-serif" font-size="11" lengthAdjust="spacingAndGlyphs" textLength="34" x="249" y="55.4189">uid : int</text><line style="stroke: #A80036; stroke-width: 1.0;" x1="244" x2="370" y1="61.8359" y2="61.8359"/><text fill="#000000" font-family="sans-serif" font-size="11" lengthAdjust="spacingAndGlyphs" textLength="103" x="249" y="77.2549">udesc : varchar(255)</text><line style="stroke: #A80036; stroke-width: 1.0;" x1="244" x2="370" y1="83.6719" y2="83.6719"/><text fill="#000000" font-family="sans-serif" font-size="11" lengthAdjust="spacingAndGlyphs" textLength="80" x="249" y="99.0908">udisabled : bit(1)</text><line style="stroke: #A80036; stroke-width: 1.0;" x1="244" x2="370" y1="105.5078" y2="105.5078"/><text fill="#000000" font-family="sans-serif" font-size="11" lengthAdjust="spacingAndGlyphs" textLength="116" x="249" y="120.9268">uimgpath : varchar(255)</text><line style="stroke: #A80036; stroke-width: 1.0;" x1="244" x2="370" y1="127.3438" y2="127.3438"/><text fill="#000000" font-family="sans-serif" font-size="11" lengthAdjust="spacingAndGlyphs" textLength="97" x="249" y="142.7627">umail : varchar(255)</text><line style="stroke: #A80036; stroke-width: 1.0;" x1="244" x2="370" y1="149.1797" y2="149.1797"/><text fill="#000000" font-family="sans-serif" font-size="11" lengthAdjust="spacingAndGlyphs" textLength="105" x="249" y="164.5986">uname : varchar(255)</text><line style="stroke: #A80036; stroke-width: 1.0;" x1="244" x2="370" y1="171.0156" y2="171.0156"/><text fill="#000000" font-family="sans-serif" font-size="11" lengthAdjust="spacingAndGlyphs" textLength="103" x="249" y="186.4346">userid : varchar(255)</text><line style="stroke: #A80036; stroke-width: 1.0;" x1="244" x2="370" y1="192.8516" y2="192.8516"/><text fill="#000000" font-family="sans-serif" font-size="11" lengthAdjust="spacingAndGlyphs" textLength="0" x="252" y="208.2705"/><!--class tags--><rect fill="#FEFECE" filter="url(#f1dbv0ld248b60)" height="75.6719" id="tags" style="stroke: #A80036; stroke-width: 1.5;" width="73" x="502.5" y="73.5"/><ellipse cx="525.15" cy="89.5" fill="#ADD1B2" rx="11" ry="11" style="stroke: #A80036; stroke-width: 1.0;"/><path d="M523.8688,88.1719 L528.3844,88.1719 L528.3844,90.125 L523.8688,90.125 L523.8688,94.4219 L529.1031,94.4219 L529.1031,96.3594 L521.65,96.3594 L521.65,82.7344 L528.775,82.7344 L528.775,84.6719 L523.8688,84.6719 L523.8688,88.1719 Z "/><text fill="#000000" font-family="sans-serif" font-size="12" lengthAdjust="spacingAndGlyphs" textLength="24" x="540.85" y="94.4102">tags</text><line style="stroke: #A80036; stroke-width: 1.5;" x1="503.5" x2="574.5" y1="105.5" y2="105.5"/><text fill="#000000" font-family="sans-serif" font-size="11" lengthAdjust="spacingAndGlyphs" textLength="31" x="508.5" y="120.9189">tid : int</text><line style="stroke: #A80036; stroke-width: 1.0;" x1="503.5" x2="574.5" y1="127.3359" y2="127.3359"/><text fill="#000000" font-family="sans-serif" font-size="11" lengthAdjust="spacingAndGlyphs" textLength="61" x="508.5" y="142.7549">tname : int</text><!--class nortifications--><rect fill="#FEFECE" filter="url(#f1dbv0ld248b60)" height="163.0156" id="nortifications" style="stroke: #A80036; stroke-width: 1.5;" width="116" x="144" y="286"/><ellipse cx="165.3" cy="302" fill="#ADD1B2" rx="11" ry="11" style="stroke: #A80036; stroke-width: 1.0;"/><path d="M164.0188,300.6719 L168.5344,300.6719 L168.5344,302.625 L164.0188,302.625 L164.0188,306.9219 L169.2531,306.9219 L169.2531,308.8594 L161.8,308.8594 L161.8,295.2344 L168.925,295.2344 L168.925,297.1719 L164.0188,297.1719 L164.0188,300.6719 Z "/><text fill="#000000" font-family="sans-serif" font-size="12" lengthAdjust="spacingAndGlyphs" textLength="70" x="180.7" y="306.9102">nortifications</text><line style="stroke: #A80036; stroke-width: 1.5;" x1="145" x2="259" y1="318" y2="318"/><text fill="#000000" font-family="sans-serif" font-size="11" lengthAdjust="spacingAndGlyphs" textLength="34" x="150" y="333.4189">nid : int</text><line style="stroke: #A80036; stroke-width: 1.0;" x1="145" x2="259" y1="339.8359" y2="339.8359"/><text fill="#000000" font-family="sans-serif" font-size="11" lengthAdjust="spacingAndGlyphs" textLength="76" x="150" y="355.2549">ndate : datetime</text><line style="stroke: #A80036; stroke-width: 1.0;" x1="145" x2="259" y1="361.6719" y2="361.6719"/><text fill="#000000" font-family="sans-serif" font-size="11" lengthAdjust="spacingAndGlyphs" textLength="104" x="150" y="377.0908">ndetail : varchar(255)</text><line style="stroke: #A80036; stroke-width: 1.0;" x1="145" x2="259" y1="383.5078" y2="383.5078"/><text fill="#000000" font-family="sans-serif" font-size="11" lengthAdjust="spacingAndGlyphs" textLength="95" x="150" y="398.9268">ntitle : varchar(255)</text><line style="stroke: #A80036; stroke-width: 1.0;" x1="145" x2="259" y1="405.3438" y2="405.3438"/><text fill="#000000" font-family="sans-serif" font-size="11" lengthAdjust="spacingAndGlyphs" textLength="100" x="150" y="420.7627">ntype : varchar(255)</text><line style="stroke: #A80036; stroke-width: 1.0;" x1="145" x2="259" y1="427.1797" y2="427.1797"/><text fill="#000000" font-family="sans-serif" font-size="11" lengthAdjust="spacingAndGlyphs" textLength="34" x="150" y="442.5986">uid : int</text><!--class settings--><rect fill="#FEFECE" filter="url(#f1dbv0ld248b60)" height="184.8516" id="settings" style="stroke: #A80036; stroke-width: 1.5;" width="172" x="295" y="275"/><ellipse cx="354.75" cy="291" fill="#ADD1B2" rx="11" ry="11" style="stroke: #A80036; stroke-width: 1.0;"/><path d="M353.4688,289.6719 L357.9844,289.6719 L357.9844,291.625 L353.4688,291.625 L353.4688,295.9219 L358.7031,295.9219 L358.7031,297.8594 L351.25,297.8594 L351.25,284.2344 L358.375,284.2344 L358.375,286.1719 L353.4688,286.1719 L353.4688,289.6719 Z "/><text fill="#000000" font-family="sans-serif" font-size="12" lengthAdjust="spacingAndGlyphs" textLength="44" x="375.25" y="295.9102">settings</text><line style="stroke: #A80036; stroke-width: 1.5;" x1="296" x2="466" y1="307" y2="307"/><text fill="#000000" font-family="sans-serif" font-size="11" lengthAdjust="spacingAndGlyphs" textLength="34" x="301" y="322.4189">sid : int</text><line style="stroke: #A80036; stroke-width: 1.0;" x1="296" x2="466" y1="328.8359" y2="328.8359"/><text fill="#000000" font-family="sans-serif" font-size="11" lengthAdjust="spacingAndGlyphs" textLength="144" x="301" y="344.2549">accountsetting : varchar(255)</text><line style="stroke: #A80036; stroke-width: 1.0;" x1="296" x2="466" y1="350.6719" y2="350.6719"/><text fill="#000000" font-family="sans-serif" font-size="11" lengthAdjust="spacingAndGlyphs" textLength="160" x="301" y="366.0908">customizesetting1 : varchar(255)</text><line style="stroke: #A80036; stroke-width: 1.0;" x1="296" x2="466" y1="372.5078" y2="372.5078"/><text fill="#000000" font-family="sans-serif" font-size="11" lengthAdjust="spacingAndGlyphs" textLength="127" x="301" y="387.9268">norsetting1 : varchar(255)</text><line style="stroke: #A80036; stroke-width: 1.0;" x1="296" x2="466" y1="394.3438" y2="394.3438"/><text fill="#000000" font-family="sans-serif" font-size="11" lengthAdjust="spacingAndGlyphs" textLength="141" x="301" y="409.7627">profilesetting1 : varchar(255)</text><line style="stroke: #A80036; stroke-width: 1.0;" x1="296" x2="466" y1="416.1797" y2="416.1797"/><text fill="#000000" font-family="sans-serif" font-size="11" lengthAdjust="spacingAndGlyphs" textLength="34" x="301" y="431.5986">uid : int</text><line style="stroke: #A80036; stroke-width: 1.0;" x1="296" x2="466" y1="438.0156" y2="438.0156"/><text fill="#000000" font-family="sans-serif" font-size="11" lengthAdjust="spacingAndGlyphs" textLength="92" x="301" y="453.4346">uservisibled : bit(1)</text><!--class userapp--><rect fill="#FEFECE" filter="url(#f1dbv0ld248b60)" height="75.6719" id="userapp" style="stroke: #A80036; stroke-width: 1.5;" width="78" x="31" y="329.5"/><ellipse cx="46" cy="345.5" fill="#ADD1B2" rx="11" ry="11" style="stroke: #A80036; stroke-width: 1.0;"/><path d="M44.7188,344.1719 L49.2344,344.1719 L49.2344,346.125 L44.7188,346.125 L44.7188,350.4219 L49.9531,350.4219 L49.9531,352.3594 L42.5,352.3594 L42.5,338.7344 L49.625,338.7344 L49.625,340.6719 L44.7188,340.6719 L44.7188,344.1719 Z "/><text fill="#000000" font-family="sans-serif" font-size="12" lengthAdjust="spacingAndGlyphs" textLength="46" x="60" y="350.4102">userapp</text><line style="stroke: #A80036; stroke-width: 1.5;" x1="32" x2="108" y1="361.5" y2="361.5"/><text fill="#000000" font-family="sans-serif" font-size="11" lengthAdjust="spacingAndGlyphs" textLength="34" x="37" y="376.9189">uid : int</text><line style="stroke: #A80036; stroke-width: 1.0;" x1="32" x2="108" y1="383.3359" y2="383.3359"/><text fill="#000000" font-family="sans-serif" font-size="11" lengthAdjust="spacingAndGlyphs" textLength="34" x="37" y="398.7549">aid : int</text><!--class usertag--><rect fill="#FEFECE" filter="url(#f1dbv0ld248b60)" height="75.6719" id="usertag" style="stroke: #A80036; stroke-width: 1.5;" width="74" x="502" y="329.5"/><ellipse cx="517" cy="345.5" fill="#ADD1B2" rx="11" ry="11" style="stroke: #A80036; stroke-width: 1.0;"/><path d="M515.7188,344.1719 L520.2344,344.1719 L520.2344,346.125 L515.7188,346.125 L515.7188,350.4219 L520.9531,350.4219 L520.9531,352.3594 L513.5,352.3594 L513.5,338.7344 L520.625,338.7344 L520.625,340.6719 L515.7188,340.6719 L515.7188,344.1719 Z "/><text fill="#000000" font-family="sans-serif" font-size="12" lengthAdjust="spacingAndGlyphs" textLength="42" x="531" y="350.4102">usertag</text><line style="stroke: #A80036; stroke-width: 1.5;" x1="503" x2="575" y1="361.5" y2="361.5"/><text fill="#000000" font-family="sans-serif" font-size="11" lengthAdjust="spacingAndGlyphs" textLength="34" x="508" y="376.9189">uid : int</text><line style="stroke: #A80036; stroke-width: 1.0;" x1="503" x2="575" y1="383.3359" y2="383.3359"/><text fill="#000000" font-family="sans-serif" font-size="11" lengthAdjust="spacingAndGlyphs" textLength="31" x="508" y="398.7549">tid : int</text><!--link apps to userapp--><path d="M70,190.452 C70,233.249 70,284.827 70,321.057 " fill="none" id="apps-userapp" style="stroke: #A80036; stroke-width: 1.0;"/><line style="stroke: #A80036; stroke-width: 1.0;" x1="70" x2="76" y1="321.462" y2="329.462"/><line style="stroke: #A80036; stroke-width: 1.0;" x1="70" x2="64" y1="321.462" y2="329.462"/><line style="stroke: #A80036; stroke-width: 1.0;" x1="70" x2="70" y1="321.462" y2="329.462"/><ellipse cx="70" cy="315.462" fill="none" rx="4" ry="4" style="stroke: #A80036; stroke-width: 1.0;"/><line style="stroke: #A80036; stroke-width: 1.0;" x1="66" x2="74" y1="186.243" y2="186.243"/><line style="stroke: #A80036; stroke-width: 1.0;" x1="66" x2="74" y1="189.243" y2="189.243"/><line style="stroke: #A80036; stroke-width: 1.0;" x1="70" x2="70" y1="190.243" y2="182.243"/><!--link users to userapp--><path d="M236.331,167.666 C200.895,197.296 158.683,235.738 126,275 C114.014,289.399 102.8007,306.61 93.6039,322.2 " fill="none" id="users-userapp" style="stroke: #A80036; stroke-width: 1.0;"/><line style="stroke: #A80036; stroke-width: 1.0;" x1="93.5378" x2="94.7152" y1="322.3124" y2="332.2428"/><line style="stroke: #A80036; stroke-width: 1.0;" x1="93.5378" x2="84.3342" y1="322.3124" y2="326.2232"/><line style="stroke: #A80036; stroke-width: 1.0;" x1="93.5378" x2="89.5247" y1="322.3124" y2="329.233"/><ellipse cx="96.5476" cy="317.1219" fill="none" rx="4" ry="4" style="stroke: #A80036; stroke-width: 1.0;"/><line style="stroke: #A80036; stroke-width: 1.0;" x1="237.2322" x2="242.3442" y1="161.7172" y2="167.8708"/><line style="stroke: #A80036; stroke-width: 1.0;" x1="234.9246" x2="240.0366" y1="163.6342" y2="169.7879"/><line style="stroke: #A80036; stroke-width: 1.0;" x1="236.7114" x2="242.865" y1="167.3501" y2="162.238"/><!--link tags to usertag--><path d="M539,157.9 C539,204.028 539,275.068 539,321.171 " fill="none" id="tags-usertag" style="stroke: #A80036; stroke-width: 1.0;"/><line style="stroke: #A80036; stroke-width: 1.0;" x1="539" x2="545" y1="321.195" y2="329.195"/><line style="stroke: #A80036; stroke-width: 1.0;" x1="539" x2="533" y1="321.195" y2="329.195"/><line style="stroke: #A80036; stroke-width: 1.0;" x1="539" x2="539" y1="321.195" y2="329.195"/><ellipse cx="539" cy="315.195" fill="none" rx="4" ry="4" style="stroke: #A80036; stroke-width: 1.0;"/><line style="stroke: #A80036; stroke-width: 1.0;" x1="535" x2="543" y1="153.706" y2="153.706"/><line style="stroke: #A80036; stroke-width: 1.0;" x1="535" x2="543" y1="156.706" y2="156.706"/><line style="stroke: #A80036; stroke-width: 1.0;" x1="539" x2="539" y1="157.706" y2="149.706"/><!--link users to usertag--><path d="M377.363,168.852 C411.773,198.374 452.459,236.365 484,275 C495.791,289.443 506.808,306.663 515.838,322.248 " fill="none" id="users-usertag" style="stroke: #A80036; stroke-width: 1.0;"/><line style="stroke: #A80036; stroke-width: 1.0;" x1="515.8831" x2="525.0564" y1="322.3268" y2="326.3081"/><line style="stroke: #A80036; stroke-width: 1.0;" x1="515.8831" x2="514.6296" y1="322.3268" y2="332.2479"/><line style="stroke: #A80036; stroke-width: 1.0;" x1="515.8831" x2="519.843" y1="322.3268" y2="329.278"/><ellipse cx="512.9132" cy="317.1134" fill="none" rx="4" ry="4" style="stroke: #A80036; stroke-width: 1.0;"/><line style="stroke: #A80036; stroke-width: 1.0;" x1="371.4643" x2="376.654" y1="169.079" y2="162.9907"/><line style="stroke: #A80036; stroke-width: 1.0;" x1="373.7474" x2="378.9371" y1="171.0251" y2="164.9369"/><line style="stroke: #A80036; stroke-width: 1.0;" x1="377.1032" x2="371.015" y1="168.6297" y2="163.44"/><!--link users to nortifications--><path d="M261.501,222.564 C253.816,241.154 245.927,260.238 238.509,278.183 " fill="none" id="users-nortifications" style="stroke: #A80036; stroke-width: 1.0;"/><line style="stroke: #A80036; stroke-width: 1.0;" x1="238.4164" x2="240.9062" y1="278.4055" y2="288.0906"/><line style="stroke: #A80036; stroke-width: 1.0;" x1="238.4164" x2="229.8158" y1="278.4055" y2="283.5074"/><line style="stroke: #A80036; stroke-width: 1.0;" x1="238.4164" x2="235.361" y1="278.4055" y2="285.799"/><ellipse cx="240.708" cy="272.8603" fill="none" rx="4" ry="4" style="stroke: #A80036; stroke-width: 1.0;"/><line style="stroke: #A80036; stroke-width: 1.0;" x1="259.3704" x2="266.7637" y1="217.2477" y2="220.3036"/><line style="stroke: #A80036; stroke-width: 1.0;" x1="258.2244" x2="265.6177" y1="220.0202" y2="223.0761"/><line style="stroke: #A80036; stroke-width: 1.0;" x1="261.5391" x2="264.595" y1="222.4723" y2="215.079"/><!--link users to settings--><path d="M339.182,222.963 C343.418,237.501 347.739,252.334 351.919,266.681 " fill="none" id="users-settings" style="stroke: #A80036; stroke-width: 1.0;"/><line style="stroke: #A80036; stroke-width: 1.0;" x1="351.988" x2="359.9857" y1="266.9161" y2="272.9193"/><line style="stroke: #A80036; stroke-width: 1.0;" x1="351.988" x2="348.4643" y1="266.9161" y2="276.2747"/><line style="stroke: #A80036; stroke-width: 1.0;" x1="351.988" x2="354.225" y1="266.9161" y2="274.597"/><ellipse cx="350.3103" cy="261.1555" fill="none" rx="4" ry="4" style="stroke: #A80036; stroke-width: 1.0;"/><line style="stroke: #A80036; stroke-width: 1.0;" x1="334.1633" x2="341.8441" y1="220.0381" y2="217.8007"/><line style="stroke: #A80036; stroke-width: 1.0;" x1="335.0023" x2="342.6831" y1="222.9184" y2="220.681"/><line style="stroke: #A80036; stroke-width: 1.0;" x1="339.1224" x2="336.885" y1="222.7598" y2="215.079"/><!--
@startuml
entity apps {
	aid : int
	- - -
	adisabled : bit(1)
	- - -
	aimgpath : varchar(255) 
	- - -
	aname : varchar(255)
	- - -
	aurl : varchar(255)
}
entity users{
	uid : int
	- - -
	udesc : varchar(255)
	- - -
	udisabled : bit(1)
	- - -
	uimgpath : varchar(255)
	- - -
	umail : varchar(255)
	- - -
	uname : varchar(255)
	- - -
	userid : varchar(255)
	- - -
	
}
entity tags{
	tid : int
	- - -
	tname : int
}
entity nortifications{
	nid : int
	- - -
	ndate : datetime
	- - -
	ndetail : varchar(255)
	- - -
	ntitle : varchar(255)
	- - -
	ntype : varchar(255)
	- - -
	uid : int
}
entity settings{
	sid : int
	- - -
	accountsetting : varchar(255)
	- - -
	customizesetting1 : varchar(255)
	- - -
	norsetting1 : varchar(255)
	- - -
	profilesetting1 : varchar(255)
	- - -
	uid : int
	- - -
	uservisibled : bit(1)
}
entity userapp{
	uid : int 
	- - -
	aid : int
}
entity usertag{
	uid : int
	- - -
	tid : int 
}
apps ||- -o{ userapp
users ||- -o{ userapp
tags  ||- -o{ usertag
users  ||- -o{ usertag
users  ||- -o{ nortifications
users  ||- -o{ settings
@enduml

PlantUML version 1.2019.06(Sat May 25 02:10:25 JST 2019)
(GPL source distribution)
Java Runtime: OpenJDK Runtime Environment
JVM: OpenJDK 64-Bit Server VM
Java Version: 14.0.1+7
Operating System: Windows 10
OS Version: 10.0
Default Encoding: MS932
Language: ja
Country: JP
--></g></svg>