<?xml version="1.0" encoding="UTF-8" standalone="no"?><svg xmlns="http://www.w3.org/2000/svg" xmlns:xlink="http://www.w3.org/1999/xlink" contentScriptType="application/ecmascript" contentStyleType="text/css" height="628px" preserveAspectRatio="none" style="width:571px;height:628px;" version="1.1" viewBox="0 0 571 628" width="571px" zoomAndPan="magnify"><defs><filter height="300%" id="f6lnnmis5vw9b" width="300%" x="-1" y="-1"><feGaussianBlur result="blurOut" stdDeviation="2.0"/><feColorMatrix in="blurOut" result="blurOut2" type="matrix" values="0 0 0 0 0 0 0 0 0 0 0 0 0 0 0 0 0 0 .4 0"/><feOffset dx="4.0" dy="4.0" in="blurOut2" result="blurOut3"/><feBlend in="SourceGraphic" in2="blurOut3" mode="normal"/></filter></defs><g><!--cluster User--><polygon fill="#FFFFFF" filter="url(#f6lnnmis5vw9b)" points="22,60,61,60,68,83.6094,549,83.6094,549,616,22,616,22,60" style="stroke: #000000; stroke-width: 1.5;"/><line style="stroke: #000000; stroke-width: 1.5;" x1="22" x2="68" y1="83.6094" y2="83.6094"/><text fill="#000000" font-family="sans-serif" font-size="14" font-weight="bold" lengthAdjust="spacingAndGlyphs" textLength="33" x="26" y="76.5332">User</text><!--cluster UILayer--><rect fill="#FFFFFF" filter="url(#f6lnnmis5vw9b)" height="100" style="stroke: #000000; stroke-width: 1.5;" width="150" x="371" y="104"/><text fill="#000000" font-family="sans-serif" font-size="14" font-weight="bold" lengthAdjust="spacingAndGlyphs" textLength="52" x="420" y="120.5332">UILayer</text><!--cluster AppLayer--><rect fill="#FFFFFF" filter="url(#f6lnnmis5vw9b)" height="100" style="stroke: #000000; stroke-width: 1.5;" width="277" x="70" y="104"/><text fill="#000000" font-family="sans-serif" font-size="14" font-weight="bold" lengthAdjust="spacingAndGlyphs" textLength="65" x="176" y="120.5332">AppLayer</text><!--cluster DomainLayer--><rect fill="#FFFFFF" filter="url(#f6lnnmis5vw9b)" height="224" style="stroke: #000000; stroke-width: 1.5;" width="336" x="181" y="236"/><text fill="#000000" font-family="sans-serif" font-size="14" font-weight="bold" lengthAdjust="spacingAndGlyphs" textLength="90" x="304" y="252.5332">DomainLayer</text><!--cluster InfrastructureLayer--><rect fill="#FFFFFF" filter="url(#f6lnnmis5vw9b)" height="100" style="stroke: #000000; stroke-width: 1.5;" width="337" x="188" y="492"/><text fill="#000000" font-family="sans-serif" font-size="14" font-weight="bold" lengthAdjust="spacingAndGlyphs" textLength="135" x="289" y="508.5332">InfrastructureLayer</text><!--class UserAppConfig--><rect fill="#FEFECE" filter="url(#f6lnnmis5vw9b)" height="48" id="UserAppConfig" style="stroke: #A80036; stroke-width: 1.5;" width="116" x="38" y="280"/><ellipse cx="53" cy="296" fill="#ADD1B2" rx="11" ry="11" style="stroke: #A80036; stroke-width: 1.0;"/><path d="M55.7031,301.4375 Q54.7813,302.3594 52.5156,302.3594 Q51.25,302.3594 50.3281,301.4375 Q48.6719,299.7813 48.6719,296.25 Q48.6719,292.1406 50.4531,290.3438 Q51.3906,289.4219 52.5781,289.4219 Q54.8438,289.4219 55.5781,290.1406 Q56.9688,291.5469 56.9063,293.9375 L54.4375,293.9375 Q54.375,291.8125 53.6406,291.0781 Q53.25,290.6719 52.5781,290.6719 Q52.5781,290.6719 52.5156,291.1406 Q51.1875,292.4688 51.1875,296.125 Q51.1875,299.3125 52.3281,300.4375 Q52.8594,300.9688 52.8594,300.9688 Q53.1094,300.9688 53.6406,300.4375 Q54.3125,299.7813 54.375,297.3906 L56.9688,297.3906 Q56.7656,300.375 55.7031,301.4375 Z "/><text fill="#000000" font-family="sans-serif" font-size="12" lengthAdjust="spacingAndGlyphs" textLength="84" x="67" y="300.9102">UserAppConfig</text><line style="stroke: #A80036; stroke-width: 1.5;" x1="39" x2="153" y1="312" y2="312"/><line style="stroke: #A80036; stroke-width: 1.5;" x1="39" x2="153" y1="320" y2="320"/><!--class UserViewModel--><rect fill="#FEFECE" filter="url(#f6lnnmis5vw9b)" height="48" id="UserViewModel" style="stroke: #A80036; stroke-width: 1.5;" width="118" x="387" y="140"/><ellipse cx="402" cy="156" fill="#ADD1B2" rx="11" ry="11" style="stroke: #A80036; stroke-width: 1.0;"/><path d="M404.7031,161.4375 Q403.7813,162.3594 401.5156,162.3594 Q400.25,162.3594 399.3281,161.4375 Q397.6719,159.7813 397.6719,156.25 Q397.6719,152.1406 399.4531,150.3438 Q400.3906,149.4219 401.5781,149.4219 Q403.8438,149.4219 404.5781,150.1406 Q405.9688,151.5469 405.9063,153.9375 L403.4375,153.9375 Q403.375,151.8125 402.6406,151.0781 Q402.25,150.6719 401.5781,150.6719 Q401.5781,150.6719 401.5156,151.1406 Q400.1875,152.4688 400.1875,156.125 Q400.1875,159.3125 401.3281,160.4375 Q401.8594,160.9688 401.8594,160.9688 Q402.1094,160.9688 402.6406,160.4375 Q403.3125,159.7813 403.375,157.3906 L405.9688,157.3906 Q405.7656,160.375 404.7031,161.4375 Z "/><text fill="#000000" font-family="sans-serif" font-size="12" lengthAdjust="spacingAndGlyphs" textLength="86" x="416" y="160.9102">UserViewModel</text><line style="stroke: #A80036; stroke-width: 1.5;" x1="388" x2="504" y1="172" y2="172"/><line style="stroke: #A80036; stroke-width: 1.5;" x1="388" x2="504" y1="180" y2="180"/><!--class UserController--><rect fill="#FEFECE" filter="url(#f6lnnmis5vw9b)" height="48" id="UserController" style="stroke: #A80036; stroke-width: 1.5;" width="113" x="86.5" y="140"/><ellipse cx="101.5" cy="156" fill="#ADD1B2" rx="11" ry="11" style="stroke: #A80036; stroke-width: 1.0;"/><path d="M104.2031,161.4375 Q103.2813,162.3594 101.0156,162.3594 Q99.75,162.3594 98.8281,161.4375 Q97.1719,159.7813 97.1719,156.25 Q97.1719,152.1406 98.9531,150.3438 Q99.8906,149.4219 101.0781,149.4219 Q103.3438,149.4219 104.0781,150.1406 Q105.4688,151.5469 105.4063,153.9375 L102.9375,153.9375 Q102.875,151.8125 102.1406,151.0781 Q101.75,150.6719 101.0781,150.6719 Q101.0781,150.6719 101.0156,151.1406 Q99.6875,152.4688 99.6875,156.125 Q99.6875,159.3125 100.8281,160.4375 Q101.3594,160.9688 101.3594,160.9688 Q101.6094,160.9688 102.1406,160.4375 Q102.8125,159.7813 102.875,157.3906 L105.4688,157.3906 Q105.2656,160.375 104.2031,161.4375 Z "/><text fill="#000000" font-family="sans-serif" font-size="12" lengthAdjust="spacingAndGlyphs" textLength="81" x="115.5" y="160.9102">UserController</text><line style="stroke: #A80036; stroke-width: 1.5;" x1="87.5" x2="198.5" y1="172" y2="172"/><line style="stroke: #A80036; stroke-width: 1.5;" x1="87.5" x2="198.5" y1="180" y2="180"/><!--class UserHelper--><rect fill="#FEFECE" filter="url(#f6lnnmis5vw9b)" height="48" id="UserHelper" style="stroke: #A80036; stroke-width: 1.5;" width="96" x="235" y="140"/><ellipse cx="250" cy="156" fill="#ADD1B2" rx="11" ry="11" style="stroke: #A80036; stroke-width: 1.0;"/><path d="M252.7031,161.4375 Q251.7813,162.3594 249.5156,162.3594 Q248.25,162.3594 247.3281,161.4375 Q245.6719,159.7813 245.6719,156.25 Q245.6719,152.1406 247.4531,150.3438 Q248.3906,149.4219 249.5781,149.4219 Q251.8438,149.4219 252.5781,150.1406 Q253.9688,151.5469 253.9063,153.9375 L251.4375,153.9375 Q251.375,151.8125 250.6406,151.0781 Q250.25,150.6719 249.5781,150.6719 Q249.5781,150.6719 249.5156,151.1406 Q248.1875,152.4688 248.1875,156.125 Q248.1875,159.3125 249.3281,160.4375 Q249.8594,160.9688 249.8594,160.9688 Q250.1094,160.9688 250.6406,160.4375 Q251.3125,159.7813 251.375,157.3906 L253.9688,157.3906 Q253.7656,160.375 252.7031,161.4375 Z "/><text fill="#000000" font-family="sans-serif" font-size="12" lengthAdjust="spacingAndGlyphs" textLength="64" x="264" y="160.9102">UserHelper</text><line style="stroke: #A80036; stroke-width: 1.5;" x1="236" x2="330" y1="172" y2="172"/><line style="stroke: #A80036; stroke-width: 1.5;" x1="236" x2="330" y1="180" y2="180"/><!--class UserServiceIF--><rect fill="#FEFECE" filter="url(#f6lnnmis5vw9b)" height="48" id="UserServiceIF" style="stroke: #A80036; stroke-width: 1.5;" width="110" x="224" y="280"/><ellipse cx="239" cy="296" fill="#B4A7E5" rx="11" ry="11" style="stroke: #A80036; stroke-width: 1.0;"/><path d="M239.9844,300.9063 L240.7188,300.9063 L240.7188,302.3594 L236.7188,302.3594 L236.7188,300.9063 L237.4531,300.9063 L237.4531,290.875 L236.7188,290.875 L236.7188,289.4219 L240.7188,289.4219 L240.7188,290.875 L239.9844,290.875 L239.9844,300.9063 Z "/><text fill="#000000" font-family="sans-serif" font-size="12" font-style="italic" lengthAdjust="spacingAndGlyphs" textLength="78" x="253" y="300.9102">UserServiceIF</text><line style="stroke: #A80036; stroke-width: 1.5;" x1="225" x2="333" y1="312" y2="312"/><line style="stroke: #A80036; stroke-width: 1.5;" x1="225" x2="333" y1="320" y2="320"/><!--class UserServiceImpl--><rect fill="#FEFECE" filter="url(#f6lnnmis5vw9b)" height="48" id="UserServiceImpl" style="stroke: #A80036; stroke-width: 1.5;" width="123" x="369.5" y="280"/><ellipse cx="384.5" cy="296" fill="#ADD1B2" rx="11" ry="11" style="stroke: #A80036; stroke-width: 1.0;"/><path d="M387.2031,301.4375 Q386.2813,302.3594 384.0156,302.3594 Q382.75,302.3594 381.8281,301.4375 Q380.1719,299.7813 380.1719,296.25 Q380.1719,292.1406 381.9531,290.3438 Q382.8906,289.4219 384.0781,289.4219 Q386.3438,289.4219 387.0781,290.1406 Q388.4688,291.5469 388.4063,293.9375 L385.9375,293.9375 Q385.875,291.8125 385.1406,291.0781 Q384.75,290.6719 384.0781,290.6719 Q384.0781,290.6719 384.0156,291.1406 Q382.6875,292.4688 382.6875,296.125 Q382.6875,299.3125 383.8281,300.4375 Q384.3594,300.9688 384.3594,300.9688 Q384.6094,300.9688 385.1406,300.4375 Q385.8125,299.7813 385.875,297.3906 L388.4688,297.3906 Q388.2656,300.375 387.2031,301.4375 Z "/><text fill="#000000" font-family="sans-serif" font-size="12" lengthAdjust="spacingAndGlyphs" textLength="91" x="398.5" y="300.9102">UserServiceImpl</text><line style="stroke: #A80036; stroke-width: 1.5;" x1="370.5" x2="491.5" y1="312" y2="312"/><line style="stroke: #A80036; stroke-width: 1.5;" x1="370.5" x2="491.5" y1="320" y2="320"/><!--class UserDomain--><rect fill="#FEFECE" filter="url(#f6lnnmis5vw9b)" height="48" id="UserDomain" style="stroke: #A80036; stroke-width: 1.5;" width="103" x="225.5" y="388"/><ellipse cx="240.5" cy="404" fill="#ADD1B2" rx="11" ry="11" style="stroke: #A80036; stroke-width: 1.0;"/><path d="M243.2031,409.4375 Q242.2813,410.3594 240.0156,410.3594 Q238.75,410.3594 237.8281,409.4375 Q236.1719,407.7813 236.1719,404.25 Q236.1719,400.1406 237.9531,398.3438 Q238.8906,397.4219 240.0781,397.4219 Q242.3438,397.4219 243.0781,398.1406 Q244.4688,399.5469 244.4063,401.9375 L241.9375,401.9375 Q241.875,399.8125 241.1406,399.0781 Q240.75,398.6719 240.0781,398.6719 Q240.0781,398.6719 240.0156,399.1406 Q238.6875,400.4688 238.6875,404.125 Q238.6875,407.3125 239.8281,408.4375 Q240.3594,408.9688 240.3594,408.9688 Q240.6094,408.9688 241.1406,408.4375 Q241.8125,407.7813 241.875,405.3906 L244.4688,405.3906 Q244.2656,408.375 243.2031,409.4375 Z "/><text fill="#000000" font-family="sans-serif" font-size="12" lengthAdjust="spacingAndGlyphs" textLength="71" x="254.5" y="408.9102">UserDomain</text><line style="stroke: #A80036; stroke-width: 1.5;" x1="226.5" x2="327.5" y1="420" y2="420"/><line style="stroke: #A80036; stroke-width: 1.5;" x1="226.5" x2="327.5" y1="428" y2="428"/><!--class UserRepositoryIF--><rect fill="#FEFECE" filter="url(#f6lnnmis5vw9b)" height="48" id="UserRepositoryIF" style="stroke: #A80036; stroke-width: 1.5;" width="128" x="204" y="528"/><ellipse cx="219" cy="544" fill="#B4A7E5" rx="11" ry="11" style="stroke: #A80036; stroke-width: 1.0;"/><path d="M219.9844,548.9063 L220.7188,548.9063 L220.7188,550.3594 L216.7188,550.3594 L216.7188,548.9063 L217.4531,548.9063 L217.4531,538.875 L216.7188,538.875 L216.7188,537.4219 L220.7188,537.4219 L220.7188,538.875 L219.9844,538.875 L219.9844,548.9063 Z "/><text fill="#000000" font-family="sans-serif" font-size="12" font-style="italic" lengthAdjust="spacingAndGlyphs" textLength="96" x="233" y="548.9102">UserRepositoryIF</text><line style="stroke: #A80036; stroke-width: 1.5;" x1="205" x2="331" y1="560" y2="560"/><line style="stroke: #A80036; stroke-width: 1.5;" x1="205" x2="331" y1="568" y2="568"/><!--class UserRepositoryImpl--><rect fill="#FEFECE" filter="url(#f6lnnmis5vw9b)" height="48" id="UserRepositoryImpl" style="stroke: #A80036; stroke-width: 1.5;" width="142" x="367" y="528"/><ellipse cx="382" cy="544" fill="#ADD1B2" rx="11" ry="11" style="stroke: #A80036; stroke-width: 1.0;"/><path d="M384.7031,549.4375 Q383.7813,550.3594 381.5156,550.3594 Q380.25,550.3594 379.3281,549.4375 Q377.6719,547.7813 377.6719,544.25 Q377.6719,540.1406 379.4531,538.3438 Q380.3906,537.4219 381.5781,537.4219 Q383.8438,537.4219 384.5781,538.1406 Q385.9688,539.5469 385.9063,541.9375 L383.4375,541.9375 Q383.375,539.8125 382.6406,539.0781 Q382.25,538.6719 381.5781,538.6719 Q381.5781,538.6719 381.5156,539.1406 Q380.1875,540.4688 380.1875,544.125 Q380.1875,547.3125 381.3281,548.4375 Q381.8594,548.9688 381.8594,548.9688 Q382.1094,548.9688 382.6406,548.4375 Q383.3125,547.7813 383.375,545.3906 L385.9688,545.3906 Q385.7656,548.375 384.7031,549.4375 Z "/><text fill="#000000" font-family="sans-serif" font-size="12" lengthAdjust="spacingAndGlyphs" textLength="110" x="396" y="548.9102">UserRepositoryImpl</text><line style="stroke: #A80036; stroke-width: 1.5;" x1="368" x2="508" y1="560" y2="560"/><line style="stroke: #A80036; stroke-width: 1.5;" x1="368" x2="508" y1="568" y2="568"/><!--link UserViewModel to UserController--><path d="M434.725,139.813 C417.497,106.108 381.097,46.409 329.5,22 C291.333,3.945 271.57,1.787 234.5,22 C190.693,45.886 164.7,100.741 152.191,134.852 " fill="none" id="UserViewModel-UserController" style="stroke: #A80036; stroke-width: 1.0;"/><polygon fill="#A80036" points="150.443,139.728,157.2451,132.6054,152.13,135.0212,149.7142,129.9061,150.443,139.728" style="stroke: #A80036; stroke-width: 1.0;"/><!--link UserController to UserHelper--><path d="M199.602,164 C209.589,164 219.576,164 229.563,164 " fill="none" id="UserController-UserHelper" style="stroke: #A80036; stroke-width: 1.0;"/><polygon fill="#A80036" points="234.785,164,225.785,160,229.785,164,225.785,168,234.785,164" style="stroke: #A80036; stroke-width: 1.0;"/><!--link UserHelper to UserServiceIF--><path d="M282.33,188.098 C281.641,211.88 280.566,248.978 279.825,274.553 " fill="none" id="UserHelper-UserServiceIF" style="stroke: #A80036; stroke-width: 1.0;"/><polygon fill="#A80036" points="279.672,279.827,283.93,270.9462,279.8163,274.8291,275.9333,270.7153,279.672,279.827" style="stroke: #A80036; stroke-width: 1.0;"/><!--link UserController to UserServiceIF--><path d="M180.613,188.154 C193.823,197.215 208.281,208.254 220,220 C236.692,236.73 252.038,258.618 262.893,275.716 " fill="none" id="UserController-UserServiceIF" style="stroke: #A80036; stroke-width: 1.0;"/><polygon fill="#A80036" points="265.554,279.954,264.1536,270.2052,262.8943,275.7201,257.3794,274.4608,265.554,279.954" style="stroke: #A80036; stroke-width: 1.0;"/><!--link UserServiceIF to UserDomain--><path d="M278.566,328 C278.233,345.658 277.775,369.941 277.44,387.678 " fill="none" id="UserServiceIF-UserDomain" style="stroke: #A80036; stroke-width: 1.0; stroke-dasharray: 7.0,7.0;"/><!--link UserServiceIF to UserServiceImpl--><path d="M354.27,304 C359.306,304 364.342,304 369.378,304 " fill="none" id="UserServiceIF-UserServiceImpl" style="stroke: #A80036; stroke-width: 1.0;"/><polygon fill="none" points="354.219,311,334.219,304,354.219,297,354.219,311" style="stroke: #A80036; stroke-width: 1.0;"/><!--link DomainLayer to UserAppConfig--><!--link UserDomain to UserRepositoryIF--><path d="M275.494,436.098 C273.832,461.572 271.175,502.322 269.511,527.827 " fill="none" id="UserDomain-UserRepositoryIF" style="stroke: #A80036; stroke-width: 1.0; stroke-dasharray: 7.0,7.0;"/><!--link UserServiceImpl to UserRepositoryIF--><path d="M422.42,328.259 C409.141,362.535 381.407,427.758 346,476 C332.986,493.731 315.561,510.931 300.482,524.377 " fill="none" id="UserServiceImpl-UserRepositoryIF" style="stroke: #A80036; stroke-width: 1.0;"/><polygon fill="#A80036" points="296.703,527.712,306.0976,524.7553,300.4517,524.4033,300.8037,518.7574,296.703,527.712" style="stroke: #A80036; stroke-width: 1.0;"/><!--link UserRepositoryIF to UserRepositoryImpl--><path d="M352.174,552 C357.062,552 361.949,552 366.836,552 " fill="none" id="UserRepositoryIF-UserRepositoryImpl" style="stroke: #A80036; stroke-width: 1.0;"/><polygon fill="none" points="352.082,558.9999,332.082,552,352.082,544.9999,352.082,558.9999" style="stroke: #A80036; stroke-width: 1.0;"/><!--
@startuml
Package User {
    package UILayer <<Rectangle>>{
        class UserViewModel
    }
    package AppLayer <<Rectangle>>{
        class UserController
        class UserHelper
        UserController <-right- UserViewModel
        UserController -right-> UserHelper
    }
    package DomainLayer <<Rectangle>>{
        interface UserServiceIF
        class UserServiceImpl
        class UserDomain
        UserHelper -down-> UserServiceIF
        UserController -down-> UserServiceIF
        UserServiceIF .down. UserDomain
        UserServiceIF <|-right- UserServiceImpl
    }
	class UserAppConfig
	DomainLayer -[hidden]> UserAppConfig
    package InfrastructureLayer <<Rectangle>>{
        interface UserRepositoryIF
        class UserRepositoryImpl
        UserDomain .down. UserRepositoryIF
        UserServiceImpl -down-> UserRepositoryIF
        UserRepositoryIF <|-right- UserRepositoryImpl
    }
}
@enduml

PlantUML version 1.2019.06(Sat May 25 02:10:25 JST 2019)
(GPL source distribution)
Java Runtime: Java(TM) SE Runtime Environment
JVM: Java HotSpot(TM) 64-Bit Server VM
Java Version: 1.8.0_231-b11
Operating System: Windows 10
OS Version: 10.0
Default Encoding: MS932
Language: ja
Country: JP
--></g></svg>