<?xml version="1.0" encoding="UTF-8" standalone="no"?><svg xmlns="http://www.w3.org/2000/svg" xmlns:xlink="http://www.w3.org/1999/xlink" contentScriptType="application/ecmascript" contentStyleType="text/css" height="925px" preserveAspectRatio="none" style="width:681px;height:925px;" version="1.1" viewBox="0 0 681 925" width="681px" zoomAndPan="magnify"><defs><filter height="300%" id="fog0u6a1f8z13" width="300%" x="-1" y="-1"><feGaussianBlur result="blurOut" stdDeviation="2.0"/><feColorMatrix in="blurOut" result="blurOut2" type="matrix" values="0 0 0 0 0 0 0 0 0 0 0 0 0 0 0 0 0 0 .4 0"/><feOffset dx="4.0" dy="4.0" in="blurOut2" result="blurOut3"/><feBlend in="SourceGraphic" in2="blurOut3" mode="normal"/></filter></defs><g><!--cluster User--><polygon fill="#FFFFFF" filter="url(#fog0u6a1f8z13)" points="22,24,61,24,68,47.6094,659,47.6094,659,913,22,913,22,24" style="stroke: #000000; stroke-width: 1.5;"/><line style="stroke: #000000; stroke-width: 1.5;" x1="22" x2="68" y1="47.6094" y2="47.6094"/><text fill="#000000" font-family="sans-serif" font-size="14" font-weight="bold" lengthAdjust="spacingAndGlyphs" textLength="33" x="26" y="40.5332">User</text><!--cluster AppLayer--><rect fill="#FFFFFF" filter="url(#fog0u6a1f8z13)" height="128" style="stroke: #000000; stroke-width: 1.5;" width="337" x="123" y="68"/><text fill="#000000" font-family="sans-serif" font-size="14" font-weight="bold" lengthAdjust="spacingAndGlyphs" textLength="65" x="259" y="84.5332">AppLayer</text><!--cluster DomainLayer--><rect fill="#FFFFFF" filter="url(#fog0u6a1f8z13)" height="515" style="stroke: #000000; stroke-width: 1.5;" width="446" x="181" y="228"/><text fill="#000000" font-family="sans-serif" font-size="14" font-weight="bold" lengthAdjust="spacingAndGlyphs" textLength="90" x="359" y="244.5332">DomainLayer</text><!--cluster InfrastructureLayer--><rect fill="#FFFFFF" filter="url(#fog0u6a1f8z13)" height="114" style="stroke: #000000; stroke-width: 1.5;" width="362" x="256" y="775"/><text fill="#000000" font-family="sans-serif" font-size="14" font-weight="bold" lengthAdjust="spacingAndGlyphs" textLength="135" x="369.5" y="791.5332">InfrastructureLayer</text><!--class UserAppConfig--><rect fill="#FEFECE" filter="url(#fog0u6a1f8z13)" height="48" id="UserAppConfig" style="stroke: #A80036; stroke-width: 1.5;" width="116" x="38" y="334.5"/><ellipse cx="53" cy="350.5" fill="#ADD1B2" rx="11" ry="11" style="stroke: #A80036; stroke-width: 1.0;"/><path d="M55.7031,355.9375 Q54.7813,356.8594 52.5156,356.8594 Q51.25,356.8594 50.3281,355.9375 Q48.6719,354.2813 48.6719,350.75 Q48.6719,346.6406 50.4531,344.8438 Q51.3906,343.9219 52.5781,343.9219 Q54.8438,343.9219 55.5781,344.6406 Q56.9688,346.0469 56.9063,348.4375 L54.4375,348.4375 Q54.375,346.3125 53.6406,345.5781 Q53.25,345.1719 52.5781,345.1719 Q52.5781,345.1719 52.5156,345.6406 Q51.1875,346.9688 51.1875,350.625 Q51.1875,353.8125 52.3281,354.9375 Q52.8594,355.4688 52.8594,355.4688 Q53.1094,355.4688 53.6406,354.9375 Q54.3125,354.2813 54.375,351.8906 L56.9688,351.8906 Q56.7656,354.875 55.7031,355.9375 Z "/><text fill="#000000" font-family="sans-serif" font-size="12" lengthAdjust="spacingAndGlyphs" textLength="84" x="67" y="355.4102">UserAppConfig</text><line style="stroke: #A80036; stroke-width: 1.5;" x1="39" x2="153" y1="366.5" y2="366.5"/><line style="stroke: #A80036; stroke-width: 1.5;" x1="39" x2="153" y1="374.5" y2="374.5"/><!--class UserController--><rect fill="#FEFECE" filter="url(#fog0u6a1f8z13)" height="75.6719" id="UserController" style="stroke: #A80036; stroke-width: 1.5;" width="173" x="139.5" y="104"/><ellipse cx="181.5" cy="120" fill="#ADD1B2" rx="11" ry="11" style="stroke: #A80036; stroke-width: 1.0;"/><path d="M184.2031,125.4375 Q183.2813,126.3594 181.0156,126.3594 Q179.75,126.3594 178.8281,125.4375 Q177.1719,123.7813 177.1719,120.25 Q177.1719,116.1406 178.9531,114.3438 Q179.8906,113.4219 181.0781,113.4219 Q183.3438,113.4219 184.0781,114.1406 Q185.4688,115.5469 185.4063,117.9375 L182.9375,117.9375 Q182.875,115.8125 182.1406,115.0781 Q181.75,114.6719 181.0781,114.6719 Q181.0781,114.6719 181.0156,115.1406 Q179.6875,116.4688 179.6875,120.125 Q179.6875,123.3125 180.8281,124.4375 Q181.3594,124.9688 181.3594,124.9688 Q181.6094,124.9688 182.1406,124.4375 Q182.8125,123.7813 182.875,121.3906 L185.4688,121.3906 Q185.2656,124.375 184.2031,125.4375 Z "/><text fill="#000000" font-family="sans-serif" font-size="12" lengthAdjust="spacingAndGlyphs" textLength="81" x="201.5" y="124.9102">UserController</text><line style="stroke: #A80036; stroke-width: 1.5;" x1="140.5" x2="311.5" y1="136" y2="136"/><rect fill="none" height="6" style="stroke: #C82930; stroke-width: 1.0;" width="6" x="147.5" y="145.418"/><text fill="#000000" font-family="sans-serif" font-size="11" lengthAdjust="spacingAndGlyphs" textLength="129" x="159.5" y="151.4189">UserServiceIF userservice</text><line style="stroke: #A80036; stroke-width: 1.5;" x1="140.5" x2="311.5" y1="157.8359" y2="157.8359"/><ellipse cx="150.5" cy="170.2539" fill="#84BE84" rx="3" ry="3" style="stroke: #038048; stroke-width: 1.0;"/><text fill="#000000" font-family="sans-serif" font-size="11" lengthAdjust="spacingAndGlyphs" textLength="147" x="159.5" y="173.2549">ModelAndView getUserPage()</text><!--class UserHelper--><rect fill="#FEFECE" filter="url(#fog0u6a1f8z13)" height="48" id="UserHelper" style="stroke: #A80036; stroke-width: 1.5;" width="96" x="348" y="118"/><ellipse cx="363" cy="134" fill="#ADD1B2" rx="11" ry="11" style="stroke: #A80036; stroke-width: 1.0;"/><path d="M365.7031,139.4375 Q364.7813,140.3594 362.5156,140.3594 Q361.25,140.3594 360.3281,139.4375 Q358.6719,137.7813 358.6719,134.25 Q358.6719,130.1406 360.4531,128.3438 Q361.3906,127.4219 362.5781,127.4219 Q364.8438,127.4219 365.5781,128.1406 Q366.9688,129.5469 366.9063,131.9375 L364.4375,131.9375 Q364.375,129.8125 363.6406,129.0781 Q363.25,128.6719 362.5781,128.6719 Q362.5781,128.6719 362.5156,129.1406 Q361.1875,130.4688 361.1875,134.125 Q361.1875,137.3125 362.3281,138.4375 Q362.8594,138.9688 362.8594,138.9688 Q363.1094,138.9688 363.6406,138.4375 Q364.3125,137.7813 364.375,135.3906 L366.9688,135.3906 Q366.7656,138.375 365.7031,139.4375 Z "/><text fill="#000000" font-family="sans-serif" font-size="12" lengthAdjust="spacingAndGlyphs" textLength="64" x="377" y="138.9102">UserHelper</text><line style="stroke: #A80036; stroke-width: 1.5;" x1="349" x2="443" y1="150" y2="150"/><line style="stroke: #A80036; stroke-width: 1.5;" x1="349" x2="443" y1="158" y2="158"/><!--class UserServiceIF--><rect fill="#FEFECE" filter="url(#fog0u6a1f8z13)" height="144.8516" id="UserServiceIF" style="stroke: #A80036; stroke-width: 1.5;" width="157" x="224.5" y="286"/><ellipse cx="260.65" cy="302" fill="#B4A7E5" rx="11" ry="11" style="stroke: #A80036; stroke-width: 1.0;"/><path d="M261.6344,306.9063 L262.3688,306.9063 L262.3688,308.3594 L258.3688,308.3594 L258.3688,306.9063 L259.1031,306.9063 L259.1031,296.875 L258.3688,296.875 L258.3688,295.4219 L262.3688,295.4219 L262.3688,296.875 L261.6344,296.875 L261.6344,306.9063 Z "/><text fill="#000000" font-family="sans-serif" font-size="12" font-style="italic" lengthAdjust="spacingAndGlyphs" textLength="78" x="279.35" y="306.9102">UserServiceIF</text><line style="stroke: #A80036; stroke-width: 1.5;" x1="225.5" x2="380.5" y1="318" y2="318"/><line style="stroke: #A80036; stroke-width: 1.5;" x1="225.5" x2="380.5" y1="326" y2="326"/><ellipse cx="235.5" cy="338.418" fill="#84BE84" rx="3" ry="3" style="stroke: #038048; stroke-width: 1.0;"/><text fill="#000000" font-family="sans-serif" font-size="11" lengthAdjust="spacingAndGlyphs" textLength="69" x="244.5" y="341.4189">void getUser()</text><ellipse cx="235.5" cy="352.2539" fill="#84BE84" rx="3" ry="3" style="stroke: #038048; stroke-width: 1.0;"/><text fill="#000000" font-family="sans-serif" font-size="11" lengthAdjust="spacingAndGlyphs" textLength="104" x="244.5" y="355.2549">String getUserName()</text><ellipse cx="235.5" cy="366.0898" fill="#84BE84" rx="3" ry="3" style="stroke: #038048; stroke-width: 1.0;"/><text fill="#000000" font-family="sans-serif" font-size="11" lengthAdjust="spacingAndGlyphs" textLength="125" x="244.5" y="369.0908">boolean getUserEnabled()</text><ellipse cx="235.5" cy="379.9258" fill="#84BE84" rx="3" ry="3" style="stroke: #038048; stroke-width: 1.0;"/><text fill="#000000" font-family="sans-serif" font-size="11" lengthAdjust="spacingAndGlyphs" textLength="131" x="244.5" y="382.9268">String getUserMailAddres()</text><ellipse cx="235.5" cy="393.7617" fill="#84BE84" rx="3" ry="3" style="stroke: #038048; stroke-width: 1.0;"/><text fill="#000000" font-family="sans-serif" font-size="11" lengthAdjust="spacingAndGlyphs" textLength="131" x="244.5" y="396.7627">String getUserDescription()</text><ellipse cx="235.5" cy="407.5977" fill="#84BE84" rx="3" ry="3" style="stroke: #038048; stroke-width: 1.0;"/><text fill="#000000" font-family="sans-serif" font-size="11" lengthAdjust="spacingAndGlyphs" textLength="105" x="244.5" y="410.5986">String getUserImage()</text><ellipse cx="235.5" cy="421.4336" fill="#84BE84" rx="3" ry="3" style="stroke: #038048; stroke-width: 1.0;"/><text fill="#000000" font-family="sans-serif" font-size="11" lengthAdjust="spacingAndGlyphs" textLength="96" x="244.5" y="424.4346">boolean getVisible()</text><!--class UserServiceImpl--><rect fill="#FEFECE" filter="url(#fog0u6a1f8z13)" height="172.5234" id="UserServiceImpl" style="stroke: #A80036; stroke-width: 1.5;" width="186" x="417" y="272"/><ellipse cx="460.35" cy="288" fill="#ADD1B2" rx="11" ry="11" style="stroke: #A80036; stroke-width: 1.0;"/><path d="M463.0531,293.4375 Q462.1313,294.3594 459.8656,294.3594 Q458.6,294.3594 457.6781,293.4375 Q456.0219,291.7813 456.0219,288.25 Q456.0219,284.1406 457.8031,282.3438 Q458.7406,281.4219 459.9281,281.4219 Q462.1938,281.4219 462.9281,282.1406 Q464.3188,283.5469 464.2563,285.9375 L461.7875,285.9375 Q461.725,283.8125 460.9906,283.0781 Q460.6,282.6719 459.9281,282.6719 Q459.9281,282.6719 459.8656,283.1406 Q458.5375,284.4688 458.5375,288.125 Q458.5375,291.3125 459.6781,292.4375 Q460.2094,292.9688 460.2094,292.9688 Q460.4594,292.9688 460.9906,292.4375 Q461.6625,291.7813 461.725,289.3906 L464.3188,289.3906 Q464.1156,292.375 463.0531,293.4375 Z "/><text fill="#000000" font-family="sans-serif" font-size="12" lengthAdjust="spacingAndGlyphs" textLength="91" x="480.65" y="292.9102">UserServiceImpl</text><line style="stroke: #A80036; stroke-width: 1.5;" x1="418" x2="602" y1="304" y2="304"/><rect fill="none" height="6" style="stroke: #C82930; stroke-width: 1.0;" width="6" x="425" y="313.418"/><text fill="#000000" font-family="sans-serif" font-size="11" lengthAdjust="spacingAndGlyphs" textLength="83" x="437" y="319.4189">UserDomain user</text><rect fill="none" height="6" style="stroke: #C82930; stroke-width: 1.0;" width="6" x="425" y="327.2539"/><text fill="#000000" font-family="sans-serif" font-size="11" lengthAdjust="spacingAndGlyphs" textLength="160" x="437" y="333.2549">UserRepositoryIF userRepository</text><line style="stroke: #A80036; stroke-width: 1.5;" x1="418" x2="602" y1="339.6719" y2="339.6719"/><ellipse cx="428" cy="352.0898" fill="#84BE84" rx="3" ry="3" style="stroke: #038048; stroke-width: 1.0;"/><text fill="#000000" font-family="sans-serif" font-size="11" lengthAdjust="spacingAndGlyphs" textLength="69" x="437" y="355.0908">void getUser()</text><ellipse cx="428" cy="365.9258" fill="#84BE84" rx="3" ry="3" style="stroke: #038048; stroke-width: 1.0;"/><text fill="#000000" font-family="sans-serif" font-size="11" lengthAdjust="spacingAndGlyphs" textLength="104" x="437" y="368.9268">String getUserName()</text><ellipse cx="428" cy="379.7617" fill="#84BE84" rx="3" ry="3" style="stroke: #038048; stroke-width: 1.0;"/><text fill="#000000" font-family="sans-serif" font-size="11" lengthAdjust="spacingAndGlyphs" textLength="125" x="437" y="382.7627">boolean getUserEnabled()</text><ellipse cx="428" cy="393.5977" fill="#84BE84" rx="3" ry="3" style="stroke: #038048; stroke-width: 1.0;"/><text fill="#000000" font-family="sans-serif" font-size="11" lengthAdjust="spacingAndGlyphs" textLength="131" x="437" y="396.5986">String getUserMailAddres()</text><ellipse cx="428" cy="407.4336" fill="#84BE84" rx="3" ry="3" style="stroke: #038048; stroke-width: 1.0;"/><text fill="#000000" font-family="sans-serif" font-size="11" lengthAdjust="spacingAndGlyphs" textLength="131" x="437" y="410.4346">String getUserDescription()</text><ellipse cx="428" cy="421.2695" fill="#84BE84" rx="3" ry="3" style="stroke: #038048; stroke-width: 1.0;"/><text fill="#000000" font-family="sans-serif" font-size="11" lengthAdjust="spacingAndGlyphs" textLength="105" x="437" y="424.2705">String getUserImage()</text><ellipse cx="428" cy="435.1055" fill="#84BE84" rx="3" ry="3" style="stroke: #038048; stroke-width: 1.0;"/><text fill="#000000" font-family="sans-serif" font-size="11" lengthAdjust="spacingAndGlyphs" textLength="96" x="437" y="438.1064">boolean getVisible()</text><!--class UserDomain--><rect fill="#FEFECE" filter="url(#fog0u6a1f8z13)" height="214.0313" id="UserDomain" style="stroke: #A80036; stroke-width: 1.5;" width="133" x="262.5" y="505"/><ellipse cx="291" cy="521" fill="#ADD1B2" rx="11" ry="11" style="stroke: #A80036; stroke-width: 1.0;"/><path d="M293.7031,526.4375 Q292.7813,527.3594 290.5156,527.3594 Q289.25,527.3594 288.3281,526.4375 Q286.6719,524.7813 286.6719,521.25 Q286.6719,517.1406 288.4531,515.3438 Q289.3906,514.4219 290.5781,514.4219 Q292.8438,514.4219 293.5781,515.1406 Q294.9688,516.5469 294.9063,518.9375 L292.4375,518.9375 Q292.375,516.8125 291.6406,516.0781 Q291.25,515.6719 290.5781,515.6719 Q290.5781,515.6719 290.5156,516.1406 Q289.1875,517.4688 289.1875,521.125 Q289.1875,524.3125 290.3281,525.4375 Q290.8594,525.9688 290.8594,525.9688 Q291.1094,525.9688 291.6406,525.4375 Q292.3125,524.7813 292.375,522.3906 L294.9688,522.3906 Q294.7656,525.375 293.7031,526.4375 Z "/><text fill="#000000" font-family="sans-serif" font-size="12" lengthAdjust="spacingAndGlyphs" textLength="71" x="308" y="525.9102">UserDomain</text><line style="stroke: #A80036; stroke-width: 1.5;" x1="263.5" x2="394.5" y1="537" y2="537"/><rect fill="none" height="6" style="stroke: #C82930; stroke-width: 1.0;" width="6" x="270.5" y="546.418"/><text fill="#000000" font-family="sans-serif" font-size="11" lengthAdjust="spacingAndGlyphs" textLength="28" x="282.5" y="552.4189">int uId</text><rect fill="none" height="6" style="stroke: #C82930; stroke-width: 1.0;" width="6" x="270.5" y="560.2539"/><text fill="#000000" font-family="sans-serif" font-size="11" lengthAdjust="spacingAndGlyphs" textLength="101" x="282.5" y="566.2549">boolean userEnabled</text><rect fill="none" height="6" style="stroke: #C82930; stroke-width: 1.0;" width="6" x="270.5" y="574.0898"/><text fill="#000000" font-family="sans-serif" font-size="11" lengthAdjust="spacingAndGlyphs" textLength="61" x="282.5" y="580.0908">String userId</text><rect fill="none" height="6" style="stroke: #C82930; stroke-width: 1.0;" width="6" x="270.5" y="587.9258"/><text fill="#000000" font-family="sans-serif" font-size="11" lengthAdjust="spacingAndGlyphs" textLength="80" x="282.5" y="593.9268">String userName</text><rect fill="none" height="6" style="stroke: #C82930; stroke-width: 1.0;" width="6" x="270.5" y="601.7617"/><text fill="#000000" font-family="sans-serif" font-size="11" lengthAdjust="spacingAndGlyphs" textLength="107" x="282.5" y="607.7627">String userMailAddres</text><rect fill="none" height="6" style="stroke: #C82930; stroke-width: 1.0;" width="6" x="270.5" y="615.5977"/><text fill="#000000" font-family="sans-serif" font-size="11" lengthAdjust="spacingAndGlyphs" textLength="107" x="282.5" y="621.5986">String userDescription</text><rect fill="none" height="6" style="stroke: #C82930; stroke-width: 1.0;" width="6" x="270.5" y="629.4336"/><text fill="#000000" font-family="sans-serif" font-size="11" lengthAdjust="spacingAndGlyphs" textLength="81" x="282.5" y="635.4346">String userImage</text><rect fill="none" height="6" style="stroke: #C82930; stroke-width: 1.0;" width="6" x="270.5" y="643.2695"/><text fill="#000000" font-family="sans-serif" font-size="11" lengthAdjust="spacingAndGlyphs" textLength="52" x="282.5" y="649.2705">int[] tagList</text><rect fill="none" height="6" style="stroke: #C82930; stroke-width: 1.0;" width="6" x="270.5" y="657.1055"/><text fill="#000000" font-family="sans-serif" font-size="11" lengthAdjust="spacingAndGlyphs" textLength="67" x="282.5" y="663.1064">int[] followList</text><rect fill="none" height="6" style="stroke: #C82930; stroke-width: 1.0;" width="6" x="270.5" y="670.9414"/><text fill="#000000" font-family="sans-serif" font-size="11" lengthAdjust="spacingAndGlyphs" textLength="77" x="282.5" y="676.9424">int[] followerList</text><rect fill="none" height="6" style="stroke: #C82930; stroke-width: 1.0;" width="6" x="270.5" y="684.7773"/><text fill="#000000" font-family="sans-serif" font-size="11" lengthAdjust="spacingAndGlyphs" textLength="71" x="282.5" y="690.7783">boolean visible</text><rect fill="none" height="6" style="stroke: #C82930; stroke-width: 1.0;" width="6" x="270.5" y="698.6133"/><text fill="#000000" font-family="sans-serif" font-size="11" lengthAdjust="spacingAndGlyphs" textLength="102" x="282.5" y="704.6143">String designSettings</text><line style="stroke: #A80036; stroke-width: 1.5;" x1="263.5" x2="394.5" y1="711.0313" y2="711.0313"/><!--class UserRepositoryIF--><rect fill="#FEFECE" filter="url(#fog0u6a1f8z13)" height="61.8359" id="UserRepositoryIF" style="stroke: #A80036; stroke-width: 1.5;" width="147" x="272.5" y="811"/><ellipse cx="296.05" cy="827" fill="#B4A7E5" rx="11" ry="11" style="stroke: #A80036; stroke-width: 1.0;"/><path d="M297.0344,831.9063 L297.7688,831.9063 L297.7688,833.3594 L293.7688,833.3594 L293.7688,831.9063 L294.5031,831.9063 L294.5031,821.875 L293.7688,821.875 L293.7688,820.4219 L297.7688,820.4219 L297.7688,821.875 L297.0344,821.875 L297.0344,831.9063 Z "/><text fill="#000000" font-family="sans-serif" font-size="12" font-style="italic" lengthAdjust="spacingAndGlyphs" textLength="96" x="311.95" y="831.9102">UserRepositoryIF</text><line style="stroke: #A80036; stroke-width: 1.5;" x1="273.5" x2="418.5" y1="843" y2="843"/><line style="stroke: #A80036; stroke-width: 1.5;" x1="273.5" x2="418.5" y1="851" y2="851"/><ellipse cx="283.5" cy="863.418" fill="#84BE84" rx="3" ry="3" style="stroke: #038048; stroke-width: 1.0;"/><text fill="#000000" font-family="sans-serif" font-size="11" lengthAdjust="spacingAndGlyphs" textLength="121" x="292.5" y="866.4189">UserDomain selectUser()</text><!--class UserRepositoryImpl--><rect fill="#FEFECE" filter="url(#fog0u6a1f8z13)" height="61.8359" id="UserRepositoryImpl" style="stroke: #A80036; stroke-width: 1.5;" width="147" x="454.5" y="811"/><ellipse cx="471.75" cy="827" fill="#ADD1B2" rx="11" ry="11" style="stroke: #A80036; stroke-width: 1.0;"/><path d="M474.4531,832.4375 Q473.5313,833.3594 471.2656,833.3594 Q470,833.3594 469.0781,832.4375 Q467.4219,830.7813 467.4219,827.25 Q467.4219,823.1406 469.2031,821.3438 Q470.1406,820.4219 471.3281,820.4219 Q473.5938,820.4219 474.3281,821.1406 Q475.7188,822.5469 475.6563,824.9375 L473.1875,824.9375 Q473.125,822.8125 472.3906,822.0781 Q472,821.6719 471.3281,821.6719 Q471.3281,821.6719 471.2656,822.1406 Q469.9375,823.4688 469.9375,827.125 Q469.9375,830.3125 471.0781,831.4375 Q471.6094,831.9688 471.6094,831.9688 Q471.8594,831.9688 472.3906,831.4375 Q473.0625,830.7813 473.125,828.3906 L475.7188,828.3906 Q475.5156,831.375 474.4531,832.4375 Z "/><text fill="#000000" font-family="sans-serif" font-size="12" lengthAdjust="spacingAndGlyphs" textLength="110" x="486.25" y="831.9102">UserRepositoryImpl</text><line style="stroke: #A80036; stroke-width: 1.5;" x1="455.5" x2="600.5" y1="843" y2="843"/><line style="stroke: #A80036; stroke-width: 1.5;" x1="455.5" x2="600.5" y1="851" y2="851"/><ellipse cx="465.5" cy="863.418" fill="#84BE84" rx="3" ry="3" style="stroke: #038048; stroke-width: 1.0;"/><text fill="#000000" font-family="sans-serif" font-size="11" lengthAdjust="spacingAndGlyphs" textLength="121" x="474.5" y="866.4189">UserDomain selectUser()</text><!--link UserController to UserHelper--><path d="M312.66,142 C322.64,142 332.62,142 342.6,142 " fill="none" id="UserController-UserHelper" style="stroke: #A80036; stroke-width: 1.0;"/><polygon fill="#A80036" points="347.819,142,338.819,138,342.819,142,338.819,146,347.819,142" style="stroke: #A80036; stroke-width: 1.0;"/><!--link UserHelper to UserServiceIF--><path d="M385.87,166.364 C374.018,193.701 353.784,240.369 336.277,280.748 " fill="none" id="UserHelper-UserServiceIF" style="stroke: #A80036; stroke-width: 1.0;"/><polygon fill="#A80036" points="334.157,285.639,341.4084,278.9744,336.1469,281.052,334.0693,275.7905,334.157,285.639" style="stroke: #A80036; stroke-width: 1.0;"/><!--link UserController to UserServiceIF--><path d="M239.412,180.363 C249.351,208.049 263.24,246.74 275.503,280.901 " fill="none" id="UserController-UserServiceIF" style="stroke: #A80036; stroke-width: 1.0;"/><polygon fill="#A80036" points="277.3,285.907,278.0262,276.0849,275.6117,281.2007,270.496,278.7862,277.3,285.907" style="stroke: #A80036; stroke-width: 1.0;"/><!--link UserServiceIF to UserDomain--><path d="M310.416,431.233 C312.787,454.173 315.465,480.074 318.034,504.924 " fill="none" id="UserServiceIF-UserDomain" style="stroke: #A80036; stroke-width: 1.0; stroke-dasharray: 7.0,7.0;"/><!--link UserServiceIF to UserServiceImpl--><path d="M402.098,358.5 C407.026,358.5 411.954,358.5 416.882,358.5 " fill="none" id="UserServiceIF-UserServiceImpl" style="stroke: #A80036; stroke-width: 1.0;"/><polygon fill="none" points="401.838,365.5,381.838,358.5,401.838,351.5,401.838,365.5" style="stroke: #A80036; stroke-width: 1.0;"/><!--link DomainLayer to UserAppConfig--><!--link UserDomain to UserRepositoryIF--><path d="M336.928,719.324 C339.421,752.759 341.98,787.079 343.741,810.709 " fill="none" id="UserDomain-UserRepositoryIF" style="stroke: #A80036; stroke-width: 1.0; stroke-dasharray: 7.0,7.0;"/><!--link UserServiceImpl to UserRepositoryIF--><path d="M500.433,445.131 C488.564,528.707 463.387,657.715 413,759 C404.467,776.151 391.78,792.926 379.734,806.789 " fill="none" id="UserServiceImpl-UserRepositoryIF" style="stroke: #A80036; stroke-width: 1.0;"/><polygon fill="#A80036" points="376.358,810.62,385.3093,806.5121,379.6637,806.8686,379.3071,801.223,376.358,810.62" style="stroke: #A80036; stroke-width: 1.0;"/><!--link UserRepositoryIF to UserRepositoryImpl--><path d="M439.659,842 C444.543,842 449.426,842 454.31,842 " fill="none" id="UserRepositoryIF-UserRepositoryImpl" style="stroke: #A80036; stroke-width: 1.0;"/><polygon fill="none" points="439.582,848.9999,419.582,842,439.582,834.9999,439.582,848.9999" style="stroke: #A80036; stroke-width: 1.0;"/><!--
@startuml
Package User {
    package AppLayer <<Rectangle>>{
        class UserController {
        	-UserServiceIF userservice
        	+ModelAndView getUserPage()
        }
        class UserHelper
        UserController -right-> UserHelper
    }
    package DomainLayer <<Rectangle>>{
        interface UserServiceIF{
        	+void getUser()
        	+String getUserName()
        	+boolean getUserEnabled()
        	+String getUserMailAddres()
        	+String getUserDescription()
        	+String getUserImage()
        	+boolean getVisible()
        }
        class UserServiceImpl{
        	-UserDomain user
        	-UserRepositoryIF userRepository
        	+void getUser()
        	+String getUserName()
        	+boolean getUserEnabled()
        	+String getUserMailAddres()
        	+String getUserDescription()
        	+String getUserImage()
        	+boolean getVisible()
        }
        class UserDomain{
        	-int uId
        	-boolean userEnabled
        	-String userId
        	-String userName
        	-String userMailAddres
        	-String userDescription
        	-String userImage
        	-int[] tagList
        	-int[] followList
        	-int[] followerList
        	-boolean visible
        	-String designSettings
        }
        UserHelper -down-> UserServiceIF
        UserController -down-> UserServiceIF
        UserServiceIF .down. UserDomain
        UserServiceIF <|-right- UserServiceImpl
    }
    
	class UserAppConfig
	DomainLayer -[hidden]> UserAppConfig
	
    package InfrastructureLayer <<Rectangle>>{
        interface UserRepositoryIF{
        	+UserDomain selectUser()
        }
        class UserRepositoryImpl{
        	+UserDomain selectUser()
        }
        UserDomain .down. UserRepositoryIF
        UserServiceImpl -down-> UserRepositoryIF
        UserRepositoryIF <|-right- UserRepositoryImpl
    }
}
@enduml

PlantUML version 1.2019.06(Sat May 25 02:10:25 JST 2019)
(GPL source distribution)
Java Runtime: Java(TM) SE Runtime Environment
JVM: Java HotSpot(TM) 64-Bit Server VM
Java Version: 1.8.0_231-b11
Operating System: Windows 10
OS Version: 10.0
Default Encoding: MS932
Language: ja
Country: JP
--></g></svg>