<?xml version="1.0" encoding="UTF-8" standalone="no"?><svg xmlns="http://www.w3.org/2000/svg" xmlns:xlink="http://www.w3.org/1999/xlink" contentScriptType="application/ecmascript" contentStyleType="text/css" height="592px" preserveAspectRatio="none" style="width:569px;height:592px;" version="1.1" viewBox="0 0 569 592" width="569px" zoomAndPan="magnify"><defs><filter height="300%" id="frhf1q82lrbdf" width="300%" x="-1" y="-1"><feGaussianBlur result="blurOut" stdDeviation="2.0"/><feColorMatrix in="blurOut" result="blurOut2" type="matrix" values="0 0 0 0 0 0 0 0 0 0 0 0 0 0 0 0 0 0 .4 0"/><feOffset dx="4.0" dy="4.0" in="blurOut2" result="blurOut3"/><feBlend in="SourceGraphic" in2="blurOut3" mode="normal"/></filter></defs><g><!--cluster Main--><polygon fill="#FFFFFF" filter="url(#frhf1q82lrbdf)" points="22,24,62,24,69,47.6094,547,47.6094,547,580,22,580,22,24" style="stroke: #000000; stroke-width: 1.5;"/><line style="stroke: #000000; stroke-width: 1.5;" x1="22" x2="69" y1="47.6094" y2="47.6094"/><text fill="#000000" font-family="sans-serif" font-size="14" font-weight="bold" lengthAdjust="spacingAndGlyphs" textLength="34" x="26" y="40.5332">Main</text><!--cluster UILayer--><rect fill="#FFFFFF" filter="url(#frhf1q82lrbdf)" height="100" style="stroke: #000000; stroke-width: 1.5;" width="150" x="46" y="68"/><text fill="#000000" font-family="sans-serif" font-size="14" font-weight="bold" lengthAdjust="spacingAndGlyphs" textLength="52" x="95" y="84.5332">UILayer</text><!--cluster AppLayer--><rect fill="#FFFFFF" filter="url(#frhf1q82lrbdf)" height="100" style="stroke: #000000; stroke-width: 1.5;" width="275" x="220" y="68"/><text fill="#000000" font-family="sans-serif" font-size="14" font-weight="bold" lengthAdjust="spacingAndGlyphs" textLength="65" x="325" y="84.5332">AppLayer</text><!--cluster DomainLayer--><rect fill="#FFFFFF" filter="url(#frhf1q82lrbdf)" height="224" style="stroke: #000000; stroke-width: 1.5;" width="334" x="181" y="200"/><text fill="#000000" font-family="sans-serif" font-size="14" font-weight="bold" lengthAdjust="spacingAndGlyphs" textLength="90" x="303" y="216.5332">DomainLayer</text><!--cluster InfrastructureLayer--><rect fill="#FFFFFF" filter="url(#frhf1q82lrbdf)" height="100" style="stroke: #000000; stroke-width: 1.5;" width="337" x="186" y="456"/><text fill="#000000" font-family="sans-serif" font-size="14" font-weight="bold" lengthAdjust="spacingAndGlyphs" textLength="135" x="287" y="472.5332">InfrastructureLayer</text><!--class MainAppConfig--><rect fill="#FEFECE" filter="url(#frhf1q82lrbdf)" height="48" id="MainAppConfig" style="stroke: #A80036; stroke-width: 1.5;" width="115" x="38.5" y="244"/><ellipse cx="53.5" cy="260" fill="#ADD1B2" rx="11" ry="11" style="stroke: #A80036; stroke-width: 1.0;"/><path d="M56.2031,265.4375 Q55.2813,266.3594 53.0156,266.3594 Q51.75,266.3594 50.8281,265.4375 Q49.1719,263.7813 49.1719,260.25 Q49.1719,256.1406 50.9531,254.3438 Q51.8906,253.4219 53.0781,253.4219 Q55.3438,253.4219 56.0781,254.1406 Q57.4688,255.5469 57.4063,257.9375 L54.9375,257.9375 Q54.875,255.8125 54.1406,255.0781 Q53.75,254.6719 53.0781,254.6719 Q53.0781,254.6719 53.0156,255.1406 Q51.6875,256.4688 51.6875,260.125 Q51.6875,263.3125 52.8281,264.4375 Q53.3594,264.9688 53.3594,264.9688 Q53.6094,264.9688 54.1406,264.4375 Q54.8125,263.7813 54.875,261.3906 L57.4688,261.3906 Q57.2656,264.375 56.2031,265.4375 Z "/><text fill="#000000" font-family="sans-serif" font-size="12" lengthAdjust="spacingAndGlyphs" textLength="83" x="67.5" y="264.9102">MainAppConfig</text><line style="stroke: #A80036; stroke-width: 1.5;" x1="39.5" x2="152.5" y1="276" y2="276"/><line style="stroke: #A80036; stroke-width: 1.5;" x1="39.5" x2="152.5" y1="284" y2="284"/><!--class MainViewModel--><rect fill="#FEFECE" filter="url(#frhf1q82lrbdf)" height="48" id="MainViewModel" style="stroke: #A80036; stroke-width: 1.5;" width="117" x="62.5" y="104"/><ellipse cx="77.5" cy="120" fill="#ADD1B2" rx="11" ry="11" style="stroke: #A80036; stroke-width: 1.0;"/><path d="M80.2031,125.4375 Q79.2813,126.3594 77.0156,126.3594 Q75.75,126.3594 74.8281,125.4375 Q73.1719,123.7813 73.1719,120.25 Q73.1719,116.1406 74.9531,114.3438 Q75.8906,113.4219 77.0781,113.4219 Q79.3438,113.4219 80.0781,114.1406 Q81.4688,115.5469 81.4063,117.9375 L78.9375,117.9375 Q78.875,115.8125 78.1406,115.0781 Q77.75,114.6719 77.0781,114.6719 Q77.0781,114.6719 77.0156,115.1406 Q75.6875,116.4688 75.6875,120.125 Q75.6875,123.3125 76.8281,124.4375 Q77.3594,124.9688 77.3594,124.9688 Q77.6094,124.9688 78.1406,124.4375 Q78.8125,123.7813 78.875,121.3906 L81.4688,121.3906 Q81.2656,124.375 80.2031,125.4375 Z "/><text fill="#000000" font-family="sans-serif" font-size="12" lengthAdjust="spacingAndGlyphs" textLength="85" x="91.5" y="124.9102">MainViewModel</text><line style="stroke: #A80036; stroke-width: 1.5;" x1="63.5" x2="178.5" y1="136" y2="136"/><line style="stroke: #A80036; stroke-width: 1.5;" x1="63.5" x2="178.5" y1="144" y2="144"/><!--class MainController--><rect fill="#FEFECE" filter="url(#frhf1q82lrbdf)" height="48" id="MainController" style="stroke: #A80036; stroke-width: 1.5;" width="112" x="236" y="104"/><ellipse cx="251" cy="120" fill="#ADD1B2" rx="11" ry="11" style="stroke: #A80036; stroke-width: 1.0;"/><path d="M253.7031,125.4375 Q252.7813,126.3594 250.5156,126.3594 Q249.25,126.3594 248.3281,125.4375 Q246.6719,123.7813 246.6719,120.25 Q246.6719,116.1406 248.4531,114.3438 Q249.3906,113.4219 250.5781,113.4219 Q252.8438,113.4219 253.5781,114.1406 Q254.9688,115.5469 254.9063,117.9375 L252.4375,117.9375 Q252.375,115.8125 251.6406,115.0781 Q251.25,114.6719 250.5781,114.6719 Q250.5781,114.6719 250.5156,115.1406 Q249.1875,116.4688 249.1875,120.125 Q249.1875,123.3125 250.3281,124.4375 Q250.8594,124.9688 250.8594,124.9688 Q251.1094,124.9688 251.6406,124.4375 Q252.3125,123.7813 252.375,121.3906 L254.9688,121.3906 Q254.7656,124.375 253.7031,125.4375 Z "/><text fill="#000000" font-family="sans-serif" font-size="12" lengthAdjust="spacingAndGlyphs" textLength="80" x="265" y="124.9102">MainController</text><line style="stroke: #A80036; stroke-width: 1.5;" x1="237" x2="347" y1="136" y2="136"/><line style="stroke: #A80036; stroke-width: 1.5;" x1="237" x2="347" y1="144" y2="144"/><!--class MainHelper--><rect fill="#FEFECE" filter="url(#frhf1q82lrbdf)" height="48" id="MainHelper" style="stroke: #A80036; stroke-width: 1.5;" width="95" x="383.5" y="104"/><ellipse cx="398.5" cy="120" fill="#ADD1B2" rx="11" ry="11" style="stroke: #A80036; stroke-width: 1.0;"/><path d="M401.2031,125.4375 Q400.2813,126.3594 398.0156,126.3594 Q396.75,126.3594 395.8281,125.4375 Q394.1719,123.7813 394.1719,120.25 Q394.1719,116.1406 395.9531,114.3438 Q396.8906,113.4219 398.0781,113.4219 Q400.3438,113.4219 401.0781,114.1406 Q402.4688,115.5469 402.4063,117.9375 L399.9375,117.9375 Q399.875,115.8125 399.1406,115.0781 Q398.75,114.6719 398.0781,114.6719 Q398.0781,114.6719 398.0156,115.1406 Q396.6875,116.4688 396.6875,120.125 Q396.6875,123.3125 397.8281,124.4375 Q398.3594,124.9688 398.3594,124.9688 Q398.6094,124.9688 399.1406,124.4375 Q399.8125,123.7813 399.875,121.3906 L402.4688,121.3906 Q402.2656,124.375 401.2031,125.4375 Z "/><text fill="#000000" font-family="sans-serif" font-size="12" lengthAdjust="spacingAndGlyphs" textLength="63" x="412.5" y="124.9102">MainHelper</text><line style="stroke: #A80036; stroke-width: 1.5;" x1="384.5" x2="477.5" y1="136" y2="136"/><line style="stroke: #A80036; stroke-width: 1.5;" x1="384.5" x2="477.5" y1="144" y2="144"/><!--class MainServiceIF--><rect fill="#FEFECE" filter="url(#frhf1q82lrbdf)" height="48" id="MainServiceIF" style="stroke: #A80036; stroke-width: 1.5;" width="110" x="224" y="244"/><ellipse cx="239" cy="260" fill="#B4A7E5" rx="11" ry="11" style="stroke: #A80036; stroke-width: 1.0;"/><path d="M239.9844,264.9063 L240.7188,264.9063 L240.7188,266.3594 L236.7188,266.3594 L236.7188,264.9063 L237.4531,264.9063 L237.4531,254.875 L236.7188,254.875 L236.7188,253.4219 L240.7188,253.4219 L240.7188,254.875 L239.9844,254.875 L239.9844,264.9063 Z "/><text fill="#000000" font-family="sans-serif" font-size="12" font-style="italic" lengthAdjust="spacingAndGlyphs" textLength="78" x="253" y="264.9102">MainServiceIF</text><line style="stroke: #A80036; stroke-width: 1.5;" x1="225" x2="333" y1="276" y2="276"/><line style="stroke: #A80036; stroke-width: 1.5;" x1="225" x2="333" y1="284" y2="284"/><!--class MainServiceImpl--><rect fill="#FEFECE" filter="url(#frhf1q82lrbdf)" height="48" id="MainServiceImpl" style="stroke: #A80036; stroke-width: 1.5;" width="122" x="369" y="244"/><ellipse cx="384" cy="260" fill="#ADD1B2" rx="11" ry="11" style="stroke: #A80036; stroke-width: 1.0;"/><path d="M386.7031,265.4375 Q385.7813,266.3594 383.5156,266.3594 Q382.25,266.3594 381.3281,265.4375 Q379.6719,263.7813 379.6719,260.25 Q379.6719,256.1406 381.4531,254.3438 Q382.3906,253.4219 383.5781,253.4219 Q385.8438,253.4219 386.5781,254.1406 Q387.9688,255.5469 387.9063,257.9375 L385.4375,257.9375 Q385.375,255.8125 384.6406,255.0781 Q384.25,254.6719 383.5781,254.6719 Q383.5781,254.6719 383.5156,255.1406 Q382.1875,256.4688 382.1875,260.125 Q382.1875,263.3125 383.3281,264.4375 Q383.8594,264.9688 383.8594,264.9688 Q384.1094,264.9688 384.6406,264.4375 Q385.3125,263.7813 385.375,261.3906 L387.9688,261.3906 Q387.7656,264.375 386.7031,265.4375 Z "/><text fill="#000000" font-family="sans-serif" font-size="12" lengthAdjust="spacingAndGlyphs" textLength="90" x="398" y="264.9102">MainServiceImpl</text><line style="stroke: #A80036; stroke-width: 1.5;" x1="370" x2="490" y1="276" y2="276"/><line style="stroke: #A80036; stroke-width: 1.5;" x1="370" x2="490" y1="284" y2="284"/><!--class MainDomain--><rect fill="#FEFECE" filter="url(#frhf1q82lrbdf)" height="48" id="MainDomain" style="stroke: #A80036; stroke-width: 1.5;" width="102" x="226" y="352"/><ellipse cx="241" cy="368" fill="#ADD1B2" rx="11" ry="11" style="stroke: #A80036; stroke-width: 1.0;"/><path d="M243.7031,373.4375 Q242.7813,374.3594 240.5156,374.3594 Q239.25,374.3594 238.3281,373.4375 Q236.6719,371.7813 236.6719,368.25 Q236.6719,364.1406 238.4531,362.3438 Q239.3906,361.4219 240.5781,361.4219 Q242.8438,361.4219 243.5781,362.1406 Q244.9688,363.5469 244.9063,365.9375 L242.4375,365.9375 Q242.375,363.8125 241.6406,363.0781 Q241.25,362.6719 240.5781,362.6719 Q240.5781,362.6719 240.5156,363.1406 Q239.1875,364.4688 239.1875,368.125 Q239.1875,371.3125 240.3281,372.4375 Q240.8594,372.9688 240.8594,372.9688 Q241.1094,372.9688 241.6406,372.4375 Q242.3125,371.7813 242.375,369.3906 L244.9688,369.3906 Q244.7656,372.375 243.7031,373.4375 Z "/><text fill="#000000" font-family="sans-serif" font-size="12" lengthAdjust="spacingAndGlyphs" textLength="70" x="255" y="372.9102">MainDomain</text><line style="stroke: #A80036; stroke-width: 1.5;" x1="227" x2="327" y1="384" y2="384"/><line style="stroke: #A80036; stroke-width: 1.5;" x1="227" x2="327" y1="392" y2="392"/><!--class MainRepositoryIF--><rect fill="#FEFECE" filter="url(#frhf1q82lrbdf)" height="48" id="MainRepositoryIF" style="stroke: #A80036; stroke-width: 1.5;" width="128" x="202" y="492"/><ellipse cx="217" cy="508" fill="#B4A7E5" rx="11" ry="11" style="stroke: #A80036; stroke-width: 1.0;"/><path d="M217.9844,512.9063 L218.7188,512.9063 L218.7188,514.3594 L214.7188,514.3594 L214.7188,512.9063 L215.4531,512.9063 L215.4531,502.875 L214.7188,502.875 L214.7188,501.4219 L218.7188,501.4219 L218.7188,502.875 L217.9844,502.875 L217.9844,512.9063 Z "/><text fill="#000000" font-family="sans-serif" font-size="12" font-style="italic" lengthAdjust="spacingAndGlyphs" textLength="96" x="231" y="512.9102">MainRepositoryIF</text><line style="stroke: #A80036; stroke-width: 1.5;" x1="203" x2="329" y1="524" y2="524"/><line style="stroke: #A80036; stroke-width: 1.5;" x1="203" x2="329" y1="532" y2="532"/><!--class MainRepositoryImpl--><rect fill="#FEFECE" filter="url(#frhf1q82lrbdf)" height="48" id="MainRepositoryImpl" style="stroke: #A80036; stroke-width: 1.5;" width="141" x="365.5" y="492"/><ellipse cx="380.5" cy="508" fill="#ADD1B2" rx="11" ry="11" style="stroke: #A80036; stroke-width: 1.0;"/><path d="M383.2031,513.4375 Q382.2813,514.3594 380.0156,514.3594 Q378.75,514.3594 377.8281,513.4375 Q376.1719,511.7813 376.1719,508.25 Q376.1719,504.1406 377.9531,502.3438 Q378.8906,501.4219 380.0781,501.4219 Q382.3438,501.4219 383.0781,502.1406 Q384.4688,503.5469 384.4063,505.9375 L381.9375,505.9375 Q381.875,503.8125 381.1406,503.0781 Q380.75,502.6719 380.0781,502.6719 Q380.0781,502.6719 380.0156,503.1406 Q378.6875,504.4688 378.6875,508.125 Q378.6875,511.3125 379.8281,512.4375 Q380.3594,512.9688 380.3594,512.9688 Q380.6094,512.9688 381.1406,512.4375 Q381.8125,511.7813 381.875,509.3906 L384.4688,509.3906 Q384.2656,512.375 383.2031,513.4375 Z "/><text fill="#000000" font-family="sans-serif" font-size="12" lengthAdjust="spacingAndGlyphs" textLength="109" x="394.5" y="512.9102">MainRepositoryImpl</text><line style="stroke: #A80036; stroke-width: 1.5;" x1="366.5" x2="505.5" y1="524" y2="524"/><line style="stroke: #A80036; stroke-width: 1.5;" x1="366.5" x2="505.5" y1="532" y2="532"/><!--link MainViewModel to MainController--><path d="M179.781,128 C196.731,128 213.681,128 230.63,128 " fill="none" id="MainViewModel-MainController" style="stroke: #A80036; stroke-width: 1.0;"/><polygon fill="#A80036" points="235.891,128,226.891,124,230.891,128,226.891,132,235.891,128" style="stroke: #A80036; stroke-width: 1.0;"/><!--link MainController to MainHelper--><path d="M348.197,128 C358.205,128 368.212,128 378.22,128 " fill="none" id="MainController-MainHelper" style="stroke: #A80036; stroke-width: 1.0;"/><polygon fill="#A80036" points="383.453,128,374.453,124,378.453,128,374.453,132,383.453,128" style="stroke: #A80036; stroke-width: 1.0;"/><!--link MainHelper to MainServiceIF--><path d="M400.391,152.161 C389.684,159.985 377.47,168.606 366,176 C359.977,179.883 357.553,179.47 352,184 C332.123,200.215 313.101,222.126 299.46,239.364 " fill="none" id="MainHelper-MainServiceIF" style="stroke: #A80036; stroke-width: 1.0;"/><polygon fill="#A80036" points="296.11,243.639,304.8088,239.0204,299.1932,239.7028,298.5109,234.0873,296.11,243.639" style="stroke: #A80036; stroke-width: 1.0;"/><!--link MainController to MainServiceIF--><path d="M289.824,152.098 C287.584,175.88 284.089,212.978 281.68,238.553 " fill="none" id="MainController-MainServiceIF" style="stroke: #A80036; stroke-width: 1.0;"/><polygon fill="#A80036" points="281.183,243.827,286.0114,235.2429,281.6531,238.8491,278.0468,234.4908,281.183,243.827" style="stroke: #A80036; stroke-width: 1.0;"/><!--link MainServiceIF to MainDomain--><path d="M278.566,292 C278.233,309.658 277.775,333.941 277.44,351.678 " fill="none" id="MainServiceIF-MainDomain" style="stroke: #A80036; stroke-width: 1.0; stroke-dasharray: 7.0,7.0;"/><!--link MainServiceIF to MainServiceImpl--><path d="M354.281,268 C359.178,268 364.074,268 368.971,268 " fill="none" id="MainServiceIF-MainServiceImpl" style="stroke: #A80036; stroke-width: 1.0;"/><polygon fill="none" points="354.15,275,334.15,268,354.15,261,354.15,275" style="stroke: #A80036; stroke-width: 1.0;"/><!--link DomainLayer to MainAppConfig--><!--link MainDomain to MainRepositoryIF--><path d="M275.159,400.098 C273.128,425.572 269.88,466.322 267.847,491.827 " fill="none" id="MainDomain-MainRepositoryIF" style="stroke: #A80036; stroke-width: 1.0; stroke-dasharray: 7.0,7.0;"/><!--link MainServiceImpl to MainRepositoryIF--><path d="M421.57,292.004 C408.385,326.24 380.659,391.738 345,440 C331.842,457.808 314.196,475.014 298.919,488.444 " fill="none" id="MainServiceImpl-MainRepositoryIF" style="stroke: #A80036; stroke-width: 1.0;"/><polygon fill="#A80036" points="295.09,491.776,304.5059,488.8878,298.8627,488.4947,299.2558,482.8515,295.09,491.776" style="stroke: #A80036; stroke-width: 1.0;"/><!--link MainRepositoryIF to MainRepositoryImpl--><path d="M350.139,516 C355.176,516 360.213,516 365.25,516 " fill="none" id="MainRepositoryIF-MainRepositoryImpl" style="stroke: #A80036; stroke-width: 1.0;"/><polygon fill="none" points="350.082,522.9999,330.082,516,350.082,508.9999,350.082,522.9999" style="stroke: #A80036; stroke-width: 1.0;"/><!--
@startuml
Package Main {
    package UILayer <<Rectangle>>{
        class MainViewModel
    }
    package AppLayer <<Rectangle>>{
        class MainController
        class MainHelper
        MainController <-right- MainViewModel
        MainController -right-> MainHelper
    }
    package DomainLayer <<Rectangle>>{
        interface MainServiceIF
        class MainServiceImpl
        class MainDomain
        MainHelper -down-> MainServiceIF
        MainController -down-> MainServiceIF
        MainServiceIF .down. MainDomain
        MainServiceIF <|-right- MainServiceImpl
    }
	class MainAppConfig
	DomainLayer -[hidden]> MainAppConfig
	
    package InfrastructureLayer <<Rectangle>>{
        interface MainRepositoryIF
        class MainRepositoryImpl
        MainDomain .down. MainRepositoryIF
        MainServiceImpl -down-> MainRepositoryIF
        MainRepositoryIF <|-right- MainRepositoryImpl
    }
}
@enduml

PlantUML version 1.2019.06(Sat May 25 02:10:25 JST 2019)
(GPL source distribution)
Java Runtime: Java(TM) SE Runtime Environment
JVM: Java HotSpot(TM) 64-Bit Server VM
Java Version: 1.8.0_231-b11
Operating System: Windows 10
OS Version: 10.0
Default Encoding: MS932
Language: ja
Country: JP
--></g></svg>