<?xml version="1.0" encoding="UTF-8" standalone="no"?><svg xmlns="http://www.w3.org/2000/svg" xmlns:xlink="http://www.w3.org/1999/xlink" contentScriptType="application/ecmascript" contentStyleType="text/css" height="790px" preserveAspectRatio="none" style="width:881px;height:790px;" version="1.1" viewBox="0 0 881 790" width="881px" zoomAndPan="magnify"><defs><filter height="300%" id="f33ug9jqithrf" width="300%" x="-1" y="-1"><feGaussianBlur result="blurOut" stdDeviation="2.0"/><feColorMatrix in="blurOut" result="blurOut2" type="matrix" values="0 0 0 0 0 0 0 0 0 0 0 0 0 0 0 0 0 0 .4 0"/><feOffset dx="4.0" dy="4.0" in="blurOut2" result="blurOut3"/><feBlend in="SourceGraphic" in2="blurOut3" mode="normal"/></filter></defs><g><rect fill="#FEFECE" filter="url(#f33ug9jqithrf)" height="771.6094" rx="12.5" ry="12.5" style="stroke: #A80036; stroke-width: 1.5;" width="863" x="6" y="8"/><rect fill="#FFFFFF" height="738" rx="12.5" ry="12.5" style="stroke: #FFFFFF; stroke-width: 1.0;" width="857" x="9" y="38.6094"/><line style="stroke: #A80036; stroke-width: 1.5;" x1="6" x2="869" y1="35.6094" y2="35.6094"/><text fill="#000000" font-family="sans-serif" font-size="14" lengthAdjust="spacingAndGlyphs" textLength="70" x="402.5" y="27.5332">コンテンツ</text><polygon fill="#FEFECE" filter="url(#f33ug9jqithrf)" points="547,275.6094,559,287.6094,547,299.6094,535,287.6094,547,275.6094" style="stroke: #A80036; stroke-width: 1.5;"/><rect fill="#FEFECE" filter="url(#f33ug9jqithrf)" height="50" rx="12.5" ry="12.5" style="stroke: #A80036; stroke-width: 1.5;" width="99" x="497.5" y="138.6094"/><line style="stroke: #A80036; stroke-width: 1.5;" x1="497.5" x2="596.5" y1="166.2188" y2="166.2188"/><text fill="#000000" font-family="sans-serif" font-size="14" lengthAdjust="spacingAndGlyphs" textLength="79" x="507.5" y="158.1426">Aboutページ</text><rect fill="#FEFECE" filter="url(#f33ug9jqithrf)" height="52.7031" rx="12.5" ry="12.5" style="stroke: #A80036; stroke-width: 1.5;" width="104" x="517" y="386.6094"/><line style="stroke: #A80036; stroke-width: 1.5;" x1="517" x2="621" y1="414.2188" y2="414.2188"/><text fill="#000000" font-family="sans-serif" font-size="14" lengthAdjust="spacingAndGlyphs" textLength="84" x="527" y="406.1426">ユーザー詳細</text><text fill="#000000" font-family="sans-serif" font-size="12" lengthAdjust="spacingAndGlyphs" textLength="60" x="522" y="431.6758">マイページ</text><rect fill="#FEFECE" filter="url(#f33ug9jqithrf)" height="52.7031" rx="12.5" ry="12.5" style="stroke: #A80036; stroke-width: 1.5;" width="104" x="391" y="711.6094"/><line style="stroke: #A80036; stroke-width: 1.5;" x1="391" x2="495" y1="739.2188" y2="739.2188"/><text fill="#000000" font-family="sans-serif" font-size="14" lengthAdjust="spacingAndGlyphs" textLength="84" x="401" y="731.1426">ユーザー詳細</text><text fill="#000000" font-family="sans-serif" font-size="12" lengthAdjust="spacingAndGlyphs" textLength="84" x="396" y="756.6758">任意のユーザー</text><rect fill="#FEFECE" filter="url(#f33ug9jqithrf)" height="52.7031" rx="12.5" ry="12.5" style="stroke: #A80036; stroke-width: 1.5;" width="104" x="289" y="386.6094"/><line style="stroke: #A80036; stroke-width: 1.5;" x1="289" x2="393" y1="414.2188" y2="414.2188"/><text fill="#000000" font-family="sans-serif" font-size="14" lengthAdjust="spacingAndGlyphs" textLength="84" x="299" y="406.1426">ユーザー編集</text><text fill="#000000" font-family="sans-serif" font-size="12" lengthAdjust="spacingAndGlyphs" textLength="60" x="294" y="431.6758">マイページ</text><rect fill="#FEFECE" filter="url(#f33ug9jqithrf)" height="52.7031" rx="12.5" ry="12.5" style="stroke: #A80036; stroke-width: 1.5;" width="146" x="125" y="386.6094"/><line style="stroke: #A80036; stroke-width: 1.5;" x1="125" x2="271" y1="414.2188" y2="414.2188"/><text fill="#000000" font-family="sans-serif" font-size="14" lengthAdjust="spacingAndGlyphs" textLength="126" x="135" y="406.1426">ユーザーアプリ編集</text><text fill="#000000" font-family="sans-serif" font-size="12" lengthAdjust="spacingAndGlyphs" textLength="60" x="130" y="431.6758">マイページ</text><rect fill="#FEFECE" filter="url(#f33ug9jqithrf)" height="50" rx="12.5" ry="12.5" style="stroke: #A80036; stroke-width: 1.5;" width="104" x="297" y="558.6094"/><line style="stroke: #A80036; stroke-width: 1.5;" x1="297" x2="401" y1="586.2188" y2="586.2188"/><text fill="#000000" font-family="sans-serif" font-size="14" lengthAdjust="spacingAndGlyphs" textLength="84" x="307" y="578.1426">フォロー一覧</text><rect fill="#FEFECE" filter="url(#f33ug9jqithrf)" height="50" rx="12.5" ry="12.5" style="stroke: #A80036; stroke-width: 1.5;" width="118" x="464" y="558.6094"/><line style="stroke: #A80036; stroke-width: 1.5;" x1="464" x2="582" y1="586.2188" y2="586.2188"/><text fill="#000000" font-family="sans-serif" font-size="14" lengthAdjust="spacingAndGlyphs" textLength="98" x="474" y="578.1426">フォロワー一覧</text><rect fill="#FEFECE" filter="url(#f33ug9jqithrf)" height="50" rx="12.5" ry="12.5" style="stroke: #A80036; stroke-width: 1.5;" width="76" x="649" y="558.6094"/><line style="stroke: #A80036; stroke-width: 1.5;" x1="649" x2="725" y1="586.2188" y2="586.2188"/><text fill="#000000" font-family="sans-serif" font-size="14" lengthAdjust="spacingAndGlyphs" textLength="56" x="659" y="578.1426">タグ詳細</text><rect fill="#FEFECE" filter="url(#f33ug9jqithrf)" height="50" rx="12.5" ry="12.5" style="stroke: #A80036; stroke-width: 1.5;" width="90" x="81" y="558.6094"/><line style="stroke: #A80036; stroke-width: 1.5;" x1="81" x2="171" y1="586.2188" y2="586.2188"/><text fill="#000000" font-family="sans-serif" font-size="14" lengthAdjust="spacingAndGlyphs" textLength="70" x="91" y="578.1426">アプリ詳細</text><rect fill="#FEFECE" filter="url(#f33ug9jqithrf)" height="50" rx="12.5" ry="12.5" style="stroke: #A80036; stroke-width: 1.5;" width="90" x="17" y="388.1094"/><line style="stroke: #A80036; stroke-width: 1.5;" x1="17" x2="107" y1="415.7188" y2="415.7188"/><text fill="#000000" font-family="sans-serif" font-size="14" lengthAdjust="spacingAndGlyphs" textLength="70" x="27" y="407.6426">アプリ編集</text><ellipse cx="655" cy="58.6094" fill="#000000" filter="url(#f33ug9jqithrf)" rx="10" ry="10" style="stroke: none; stroke-width: 1.0;"/><!--link *start*content to sc1--><path d="M645.048,60.6004 C620.866,63.2334 560.111,71.2724 548,86.6094 C537.788,99.5424 537.301,117.9434 539.481,133.3994 " fill="none" id="*start*content-sc1" style="stroke: #A80036; stroke-width: 1.0;"/><polygon fill="#A80036" points="540.313,138.5164,542.8188,128.9916,539.5116,133.581,534.9222,130.2738,540.313,138.5164" style="stroke: #A80036; stroke-width: 1.0;"/><text fill="#000000" font-family="sans-serif" font-size="13" lengthAdjust="spacingAndGlyphs" textLength="91" x="549" y="101.1045">非ログイン時、</text><text fill="#000000" font-family="sans-serif" font-size="13" lengthAdjust="spacingAndGlyphs" textLength="79" x="555" y="117.4561">"/"にアクセス</text><!--link *start*content to sc2.1--><path d="M656.192,68.6384 C660.868,107.3714 675.066,262.3204 619,368.6094 C616.37,373.5964 612.914,378.2674 609.046,382.5614 " fill="none" id="*start*content-sc2.1" style="stroke: #A80036; stroke-width: 1.0;"/><polygon fill="#A80036" points="605.39,386.3974,614.4947,382.6419,608.8395,382.7779,608.7035,377.1227,605.39,386.3974" style="stroke: #A80036; stroke-width: 1.0;"/><text fill="#000000" font-family="sans-serif" font-size="13" lengthAdjust="spacingAndGlyphs" textLength="78" x="660.5" y="229.6045">ログイン時、</text><text fill="#000000" font-family="sans-serif" font-size="13" lengthAdjust="spacingAndGlyphs" textLength="79" x="660" y="245.9561">"/"にアクセス</text><!--link *start*content to sc2.1.2--><path d="M664.329,62.8214 C691.556,72.8514 769,106.3284 769,162.6094 C769,162.6094 769,162.6094 769,584.6094 C769,633.5104 788.54,658.9934 754,693.6094 C719.428,728.2579 580.355,735.7018 500.382,737.058 " fill="none" id="*start*content-sc2.1.2" style="stroke: #A80036; stroke-width: 1.0;"/><polygon fill="#A80036" points="495.201,737.1388,504.2627,740.9968,500.2004,737.0602,504.137,732.9978,495.201,737.1388" style="stroke: #A80036; stroke-width: 1.0;"/><text fill="#000000" font-family="sans-serif" font-size="13" lengthAdjust="spacingAndGlyphs" textLength="65" x="770" y="332.1045">ユーザーの</text><text fill="#000000" font-family="sans-serif" font-size="13" lengthAdjust="spacingAndGlyphs" textLength="38" x="783.5" y="348.4561">URLに</text><text fill="#000000" font-family="sans-serif" font-size="13" lengthAdjust="spacingAndGlyphs" textLength="52" x="776.5" y="364.8076">アクセス</text><!--link sc1 to choice--><path d="M547,188.7124 C547,212.8084 547,249.2084 547,270.1674 " fill="none" id="sc1-choice" style="stroke: #A80036; stroke-width: 1.0;"/><polygon fill="#A80036" points="547,275.3964,551,266.3964,547,270.3964,543,266.3964,547,275.3964" style="stroke: #A80036; stroke-width: 1.0;"/><text fill="#000000" font-family="sans-serif" font-size="13" lengthAdjust="spacingAndGlyphs" textLength="52" x="548" y="221.1045">ログイン</text><text fill="#000000" font-family="sans-serif" font-size="13" lengthAdjust="spacingAndGlyphs" textLength="52" x="548" y="237.4561">ボタンを</text><text fill="#000000" font-family="sans-serif" font-size="13" lengthAdjust="spacingAndGlyphs" textLength="26" x="561" y="253.8076">押下</text><!--link choice to sc2.1--><path d="M548.726,298.3004 C551.873,315.9654 558.665,354.0944 563.52,381.3494 " fill="none" id="choice-sc2.1" style="stroke: #A80036; stroke-width: 1.0;"/><polygon fill="#A80036" points="564.403,386.3044,566.7649,376.7429,563.5273,381.3817,558.8886,378.144,564.403,386.3044" style="stroke: #A80036; stroke-width: 1.0;"/><text fill="#000000" font-family="sans-serif" font-size="13" lengthAdjust="spacingAndGlyphs" textLength="26" x="575" y="340.6045">既存</text><text fill="#000000" font-family="sans-serif" font-size="13" lengthAdjust="spacingAndGlyphs" textLength="52" x="562" y="356.9561">ユーザー</text><!--link choice to sc2.2--><path d="M538.724,291.5824 C527.652,295.8954 507.918,304.7984 495,317.6094 C476.486,335.9704 486.038,351.9244 466,368.6094 C446.712,384.6694 421.126,394.9434 398.129,401.4464 " fill="none" id="choice-sc2.2" style="stroke: #A80036; stroke-width: 1.0;"/><polygon fill="#A80036" points="393.264,402.7774,403.0007,404.2596,398.0866,401.4574,400.8888,396.5434,393.264,402.7774" style="stroke: #A80036; stroke-width: 1.0;"/><text fill="#000000" font-family="sans-serif" font-size="13" lengthAdjust="spacingAndGlyphs" textLength="26" x="509" y="340.6045">新規</text><text fill="#000000" font-family="sans-serif" font-size="13" lengthAdjust="spacingAndGlyphs" textLength="52" x="496" y="356.9561">ユーザー</text><!--link sc2.2 to sc2.1--><path d="M381.991,441.9994 C388.435,445.3324 395.216,448.2124 402,450.1094 C424.686,456.4514 485.314,456.4514 508,450.1094 C516.35,447.7754 524.695,443.9504 532.412,439.6264 " fill="none" id="sc2.2-sc2.1" style="stroke: #A80036; stroke-width: 1.0;"/><polygon fill="#A80036" points="377.588,439.6264,383.6128,447.4175,381.9894,441.9986,387.4084,440.3752,377.588,439.6264" style="stroke: #A80036; stroke-width: 1.0;"/><text fill="#000000" font-family="sans-serif" font-size="13" lengthAdjust="spacingAndGlyphs" textLength="104" x="403" y="430.6045">ユーザーの編集を</text><text fill="#000000" font-family="sans-serif" font-size="13" lengthAdjust="spacingAndGlyphs" textLength="26" x="442" y="446.9561">押下</text><!--link sc2.2 to sc2.1--><path d="M393.022,413.1094 C428.348,413.1094 475.081,413.1094 511.51,413.1094 " fill="none" id="sc2.2-sc2.1-1" style="stroke: #A80036; stroke-width: 1.0;"/><polygon fill="#A80036" points="516.807,413.1094,507.807,409.1094,511.807,413.1094,507.807,417.1094,516.807,413.1094" style="stroke: #A80036; stroke-width: 1.0;"/><text fill="#000000" font-family="sans-serif" font-size="13" lengthAdjust="spacingAndGlyphs" textLength="104" x="403" y="390.6045">ユーザーの更新を</text><text fill="#000000" font-family="sans-serif" font-size="13" lengthAdjust="spacingAndGlyphs" textLength="26" x="442" y="406.9561">押下</text><!--link sc2.3 to sc2.1--><path d="M242.923,383.8124 C295.745,353.1404 385.934,312.5914 462.5,337.1094 C492.786,346.8074 521.798,368.6274 541.871,386.4114 " fill="none" id="sc2.3-sc2.1" style="stroke: #A80036; stroke-width: 1.0;"/><polygon fill="#A80036" points="238.558,386.3734,248.3446,385.2673,242.8701,383.8424,244.295,378.3679,238.558,386.3734" style="stroke: #A80036; stroke-width: 1.0;"/><text fill="#000000" font-family="sans-serif" font-size="13" lengthAdjust="spacingAndGlyphs" textLength="91" x="370.5" y="340.6045">アプリの編集を</text><text fill="#000000" font-family="sans-serif" font-size="13" lengthAdjust="spacingAndGlyphs" textLength="26" x="403" y="356.9561">押下</text><!--link sc2.3 to sc2.1--><path d="M238.558,386.3734 C290.664,355.4714 383.781,311.9024 462.5,337.1094 C490.893,346.2014 518.166,365.9474 538.005,383.0334 " fill="none" id="sc2.3-sc2.1-1" style="stroke: #A80036; stroke-width: 1.0;"/><polygon fill="#A80036" points="541.871,386.4114,537.7251,377.4776,538.1056,383.1217,532.4616,383.5022,541.871,386.4114" style="stroke: #A80036; stroke-width: 1.0;"/><text fill="#000000" font-family="sans-serif" font-size="13" lengthAdjust="spacingAndGlyphs" textLength="91" x="370.5" y="340.6045">アプリの更新を</text><text fill="#000000" font-family="sans-serif" font-size="13" lengthAdjust="spacingAndGlyphs" textLength="26" x="403" y="356.9561">押下</text><!--link sc2.1 to sc3--><path d="M516.923,420.3564 C489.627,426.0434 457.323,436.8984 435,457.6094 C405.776,484.7224 424.809,508.6364 401,540.6094 C397.189,545.7274 392.616,550.5834 387.785,555.0554 " fill="none" id="sc2.1-sc3" style="stroke: #A80036; stroke-width: 1.0;"/><polygon fill="#A80036" points="384.048,558.3984,393.4232,555.3809,387.7752,555.0655,388.0906,549.4174,384.048,558.3984" style="stroke: #A80036; stroke-width: 1.0;"/><text fill="#000000" font-family="sans-serif" font-size="13" lengthAdjust="spacingAndGlyphs" textLength="65" x="436" y="496.6045">フォローを</text><text fill="#000000" font-family="sans-serif" font-size="13" lengthAdjust="spacingAndGlyphs" textLength="26" x="455.5" y="512.9561">押下</text><!--link sc2.1 to sc3--><path d="M511.811,423.2634 C446.655,433.9654 348.417,451.0504 343,457.6094 C319.757,485.7524 329.605,530.7904 339.121,558.4294 " fill="none" id="sc2.1-sc3-1" style="stroke: #A80036; stroke-width: 1.0;"/><polygon fill="#A80036" points="516.834,422.4394,507.3056,419.9474,511.8998,423.2479,508.5993,427.8421,516.834,422.4394" style="stroke: #A80036; stroke-width: 1.0;"/><text fill="#000000" font-family="sans-serif" font-size="13" lengthAdjust="spacingAndGlyphs" textLength="52" x="344" y="496.6045">アプリを</text><text fill="#000000" font-family="sans-serif" font-size="13" lengthAdjust="spacingAndGlyphs" textLength="26" x="357" y="512.9561">押下</text><!--link sc2.1 to sc4--><path d="M527.512,439.7414 C522.052,444.9564 517.236,450.9254 514,457.6094 C499.425,487.7194 505.603,526.7504 512.864,553.1254 " fill="none" id="sc2.1-sc4" style="stroke: #A80036; stroke-width: 1.0;"/><polygon fill="#A80036" points="514.325,558.2254,515.6909,548.4717,512.9476,553.4188,508.0005,550.6755,514.325,558.2254" style="stroke: #A80036; stroke-width: 1.0;"/><text fill="#000000" font-family="sans-serif" font-size="13" lengthAdjust="spacingAndGlyphs" textLength="78" x="515" y="496.6045">フォロワーを</text><text fill="#000000" font-family="sans-serif" font-size="13" lengthAdjust="spacingAndGlyphs" textLength="26" x="541" y="512.9561">押下</text><!--link sc2.1 to sc4--><path d="M588.998,444.4044 C591.049,448.6924 592.812,453.1594 594,457.6094 C603.512,493.2504 612.275,508.5654 594,540.6094 C590.027,547.5764 584.394,553.5044 578.019,558.5154 " fill="none" id="sc2.1-sc4-1" style="stroke: #A80036; stroke-width: 1.0;"/><polygon fill="#A80036" points="586.673,439.8314,587.1856,449.6669,588.9387,444.2886,594.3171,446.0417,586.673,439.8314" style="stroke: #A80036; stroke-width: 1.0;"/><text fill="#000000" font-family="sans-serif" font-size="13" lengthAdjust="spacingAndGlyphs" textLength="52" x="606" y="496.6045">アプリを</text><text fill="#000000" font-family="sans-serif" font-size="13" lengthAdjust="spacingAndGlyphs" textLength="26" x="619" y="512.9561">押下</text><!--link sc2.1 to sc5--><path d="M621.289,428.1144 C636.821,434.6904 652.478,444.1514 663,457.6094 C684.308,484.8654 688.53,525.5364 688.595,553.0184 " fill="none" id="sc2.1-sc5" style="stroke: #A80036; stroke-width: 1.0;"/><polygon fill="#A80036" points="688.556,558.3314,692.6202,549.3602,688.5917,553.3315,684.6204,549.303,688.556,558.3314" style="stroke: #A80036; stroke-width: 1.0;"/><text fill="#000000" font-family="sans-serif" font-size="13" lengthAdjust="spacingAndGlyphs" textLength="39" x="689" y="488.1045">任意の</text><text fill="#000000" font-family="sans-serif" font-size="13" lengthAdjust="spacingAndGlyphs" textLength="39" x="689" y="504.4561">タグを</text><text fill="#000000" font-family="sans-serif" font-size="13" lengthAdjust="spacingAndGlyphs" textLength="26" x="695.5" y="520.8076">押下</text><!--link sc5 to sc2.1.2--><path d="M685.206,608.8304 C682.589,637.2474 676.704,681.971 665,693.6094 C642.258,716.2233 558.177,727.688 500.279,733.0252 " fill="none" id="sc5-sc2.1.2" style="stroke: #A80036; stroke-width: 1.0;"/><polygon fill="#A80036" points="495.111,733.4918,504.4345,736.6655,500.0907,733.0418,503.7145,728.698,495.111,733.4918" style="stroke: #A80036; stroke-width: 1.0;"/><text fill="#000000" font-family="sans-serif" font-size="13" lengthAdjust="spacingAndGlyphs" textLength="39" x="697" y="649.1045">任意の</text><text fill="#000000" font-family="sans-serif" font-size="13" lengthAdjust="spacingAndGlyphs" textLength="65" x="684" y="665.4561">ユーザーを</text><text fill="#000000" font-family="sans-serif" font-size="13" lengthAdjust="spacingAndGlyphs" textLength="26" x="703.5" y="681.8076">押下</text><!--link sc2.1 to sc6.1--><path d="M516.776,422.4564 C483.876,427.6224 440.492,434.2664 402,439.6094 C338.115,448.4784 316.32,430.0634 258,457.6094 C256.415,458.3584 193.382,518.3404 155.005,554.9324 " fill="none" id="sc2.1-sc6.1" style="stroke: #A80036; stroke-width: 1.0;"/><polygon fill="#A80036" points="151.371,558.3974,160.6444,555.0801,154.9891,554.9464,155.1228,549.2911,151.371,558.3974" style="stroke: #A80036; stroke-width: 1.0;"/><text fill="#000000" font-family="sans-serif" font-size="13" lengthAdjust="spacingAndGlyphs" textLength="39" x="272" y="472.1045">任意の</text><text fill="#000000" font-family="sans-serif" font-size="13" lengthAdjust="spacingAndGlyphs" textLength="39" x="272" y="488.4561">アプリ</text><text fill="#000000" font-family="sans-serif" font-size="13" lengthAdjust="spacingAndGlyphs" textLength="65" x="259" y="504.8076">アイコンか</text><text fill="#000000" font-family="sans-serif" font-size="13" lengthAdjust="spacingAndGlyphs" textLength="65" x="259" y="521.1592">アプリ名を</text><text fill="#000000" font-family="sans-serif" font-size="13" lengthAdjust="spacingAndGlyphs" textLength="26" x="278.5" y="537.5107">押下</text><!--link sc3 to sc2.1.2--><path d="M344.955,608.9004 C342.361,632.5644 342.134,668.5401 359,693.6094 C365.738,703.6245 375.531,711.4745 386.07,717.5771 " fill="none" id="sc3-sc2.1.2" style="stroke: #A80036; stroke-width: 1.0;"/><polygon fill="#A80036" points="390.625,720.0868,384.6725,712.2403,386.2457,717.674,380.812,719.2472,390.625,720.0868" style="stroke: #A80036; stroke-width: 1.0;"/><text fill="#000000" font-family="sans-serif" font-size="13" lengthAdjust="spacingAndGlyphs" textLength="52" x="366.5" y="641.1045">アプリか</text><text fill="#000000" font-family="sans-serif" font-size="13" lengthAdjust="spacingAndGlyphs" textLength="39" x="373" y="657.4561">任意の</text><text fill="#000000" font-family="sans-serif" font-size="13" lengthAdjust="spacingAndGlyphs" textLength="65" x="360" y="673.8076">ユーザーを</text><text fill="#000000" font-family="sans-serif" font-size="13" lengthAdjust="spacingAndGlyphs" textLength="26" x="379.5" y="690.1592">押下</text><!--link sc4 to sc2.1.2--><path d="M526.015,608.6214 C527.73,632.0734 526.968,667.8933 511,693.6094 C507.708,698.9113 503.504,703.6849 498.804,707.9535 " fill="none" id="sc4-sc2.1.2" style="stroke: #A80036; stroke-width: 1.0;"/><polygon fill="#A80036" points="494.749,711.421,504.1892,708.6133,498.5496,708.172,498.9909,702.5324,494.749,711.421" style="stroke: #A80036; stroke-width: 1.0;"/><text fill="#000000" font-family="sans-serif" font-size="13" lengthAdjust="spacingAndGlyphs" textLength="52" x="534.5" y="641.1045">アプリか</text><text fill="#000000" font-family="sans-serif" font-size="13" lengthAdjust="spacingAndGlyphs" textLength="39" x="541" y="657.4561">任意の</text><text fill="#000000" font-family="sans-serif" font-size="13" lengthAdjust="spacingAndGlyphs" textLength="65" x="528" y="673.8076">ユーザーを</text><text fill="#000000" font-family="sans-serif" font-size="13" lengthAdjust="spacingAndGlyphs" textLength="26" x="547.5" y="690.1592">押下</text><!--link sc3 to sc2.1.2--><path d="M297.158,612.2404 C292.731,616.4874 288.859,621.2674 286,626.6094 C271.949,652.8634 267.973,669.9084 286,693.6094 C298.799,710.4371 350.192,722.4457 390.738,729.5249 " fill="none" id="sc3-sc2.1.2-1" style="stroke: #A80036; stroke-width: 1.0;"/><polygon fill="#A80036" points="300.998,608.7974,291.6271,611.8282,297.2756,612.1356,296.9682,617.7841,300.998,608.7974" style="stroke: #A80036; stroke-width: 1.0;"/><text fill="#000000" font-family="sans-serif" font-size="13" lengthAdjust="spacingAndGlyphs" textLength="52" x="287" y="657.6045">フォロー</text><text fill="#000000" font-family="sans-serif" font-size="13" lengthAdjust="spacingAndGlyphs" textLength="39" x="293.5" y="673.9561">を押下</text><!--link sc4 to sc2.1.2--><path d="M459.402,606.9704 C451.699,612.2504 444.852,618.7154 440,626.6094 C424.322,652.1144 428.865,687.5677 434.807,711.3742 " fill="none" id="sc4-sc2.1.2-1" style="stroke: #A80036; stroke-width: 1.0;"/><polygon fill="#A80036" points="463.762,604.1574,454.0307,605.6744,459.5602,606.8676,458.367,612.3972,463.762,604.1574" style="stroke: #A80036; stroke-width: 1.0;"/><text fill="#000000" font-family="sans-serif" font-size="13" lengthAdjust="spacingAndGlyphs" textLength="65" x="441" y="657.6045">フォロワー</text><text fill="#000000" font-family="sans-serif" font-size="13" lengthAdjust="spacingAndGlyphs" textLength="39" x="454" y="673.9561">を押下</text><!--link sc5 to sc2.1.2--><path d="M644.512,605.0114 C635.443,610.9464 626.617,618.1544 620,626.6094 C600.683,651.2914 620.641,671.9363 598,693.6094 C570.542,719.8942 528.513,730.5283 495.144,734.7222 " fill="none" id="sc5-sc2.1.2-1" style="stroke: #A80036; stroke-width: 1.0;"/><polygon fill="#A80036" points="648.975,602.2004,639.2277,603.6109,644.7439,604.8645,643.4902,610.3807,648.975,602.2004" style="stroke: #A80036; stroke-width: 1.0;"/><text fill="#000000" font-family="sans-serif" font-size="13" lengthAdjust="spacingAndGlyphs" textLength="39" x="621" y="649.1045">任意の</text><text fill="#000000" font-family="sans-serif" font-size="13" lengthAdjust="spacingAndGlyphs" textLength="39" x="621" y="665.4561">タグを</text><text fill="#000000" font-family="sans-serif" font-size="13" lengthAdjust="spacingAndGlyphs" textLength="26" x="627.5" y="681.8076">押下</text><!--link sc6.1 to sc2.1.2--><path d="M162.766,612.1704 C167.824,616.7184 172.738,621.5954 177,626.6094 C199.315,652.8614 187.888,673.6882 216,693.6094 C243.542,713.1267 332.934,725.7791 390.979,732.1598 " fill="none" id="sc6.1-sc2.1.2" style="stroke: #A80036; stroke-width: 1.0;"/><polygon fill="#A80036" points="158.877,608.7594,163.0049,617.7014,162.6357,612.0566,168.2805,611.6875,158.877,608.7594" style="stroke: #A80036; stroke-width: 1.0;"/><text fill="#000000" font-family="sans-serif" font-size="13" lengthAdjust="spacingAndGlyphs" textLength="39" x="223.5" y="649.1045">任意の</text><text fill="#000000" font-family="sans-serif" font-size="13" lengthAdjust="spacingAndGlyphs" textLength="52" x="217" y="665.4561">アプリを</text><text fill="#000000" font-family="sans-serif" font-size="13" lengthAdjust="spacingAndGlyphs" textLength="26" x="230" y="681.8076">押下</text><!--link sc6.1 to sc2.1.2--><path d="M111.3317,608.8894 C98.7304,633.2324 85.5469,670.3465 106,693.6094 C124.135,714.2359 294.224,727.8726 385.59,733.7736 " fill="none" id="sc6.1-sc2.1.2-1" style="stroke: #A80036; stroke-width: 1.0;"/><polygon fill="#A80036" points="390.686,734.1,381.9605,729.5322,385.6963,733.78,381.4484,737.5158,390.686,734.1" style="stroke: #A80036; stroke-width: 1.0;"/><text fill="#000000" font-family="sans-serif" font-size="13" lengthAdjust="spacingAndGlyphs" textLength="39" x="120" y="649.1045">任意の</text><text fill="#000000" font-family="sans-serif" font-size="13" lengthAdjust="spacingAndGlyphs" textLength="65" x="107" y="665.4561">ユーザーを</text><text fill="#000000" font-family="sans-serif" font-size="13" lengthAdjust="spacingAndGlyphs" textLength="26" x="126.5" y="681.8076">押下</text><!--link sc6.2 to sc6.1--><path d="M93.5895,442.2324 C97.5936,447.0174 101.2458,452.2014 104,457.6094 C120.399,489.8114 124.816,532.0544 125.872,558.2584 " fill="none" id="sc6.2-sc6.1" style="stroke: #A80036; stroke-width: 1.0;"/><polygon fill="#A80036" points="90.1552,438.3104,93.0735,447.7169,93.4486,442.0725,99.093,442.4476,90.1552,438.3104" style="stroke: #A80036; stroke-width: 1.0;"/><text fill="#000000" font-family="sans-serif" font-size="13" lengthAdjust="spacingAndGlyphs" textLength="39" x="126" y="496.6045">編集を</text><text fill="#000000" font-family="sans-serif" font-size="13" lengthAdjust="spacingAndGlyphs" textLength="26" x="132.5" y="512.9561">押下</text><!--link sc6.2 to sc6.1--><path d="M54.6015,438.1904 C47.8466,464.9854 41.3434,508.7024 59,540.6094 C63.1835,548.1694 69.3596,554.5504 76.2957,559.8764 " fill="none" id="sc6.2-sc6.1-1" style="stroke: #A80036; stroke-width: 1.0;"/><polygon fill="#A80036" points="80.7015,563.0564,75.7467,554.5446,76.6479,560.1292,71.0633,561.0304,80.7015,563.0564" style="stroke: #A80036; stroke-width: 1.0;"/><text fill="#000000" font-family="sans-serif" font-size="13" lengthAdjust="spacingAndGlyphs" textLength="39" x="60" y="496.6045">更新を</text><text fill="#000000" font-family="sans-serif" font-size="13" lengthAdjust="spacingAndGlyphs" textLength="26" x="66.5" y="512.9561">押下</text><!--
@startuml
	state "コンテンツ" as content {
		state choice <<choice>>
		state "Aboutページ" as sc1
		state "ユーザー詳細" as sc2.1 : マイページ
		state "ユーザー詳細" as sc2.1.2 : 任意のユーザー
		state "ユーザー編集" as sc2.2 : マイページ
		state "ユーザーアプリ編集" as sc2.3 : マイページ
		state "フォロー一覧" as sc3
		state "フォロワー一覧" as sc4
		state "タグ詳細" as sc5
		state "アプリ詳細" as sc6.1
		state "アプリ編集" as sc6.2
		[*] -down-> sc1 : 非ログイン時、\n"/"にアクセス
		[*] -down-> sc2.1 : ログイン時、\n"/"にアクセス
		[*] -down-> sc2.1.2 : ユーザーの\nURLに\nアクセス
		sc1 -down-> choice : ログイン\nボタンを\n押下
		choice -down-> sc2.1 : 既存\nユーザー
		choice -down-> sc2.2 : 新規\nユーザー
		sc2.1 -left-> sc2.2 : ユーザーの編集を\n押下
		sc2.2 -right-> sc2.1 : ユーザーの更新を\n押下
		sc2.1 -left-> sc2.3 : アプリの編集を\n押下
		sc2.3 -right-> sc2.1 : アプリの更新を\n押下
		sc2.1 -down-> sc3 : フォローを\n押下
		sc3 -up-> sc2.1 : アプリを\n押下
		sc2.1 -down-> sc4 : フォロワーを\n押下
		sc4 -up-> sc2.1 : アプリを\n押下
		sc2.1 -down-> sc5 : 任意の\nタグを\n押下
		sc5 -down-> sc2.1.2 : 任意の\nユーザーを\n押下
		sc2.1 -down-> sc6.1 : 任意の\nアプリ\nアイコンか\nアプリ名を\n押下
		sc3 -down-> sc2.1.2 : アプリか\n任意の\nユーザーを\n押下
		sc4 -down-> sc2.1.2 : アプリか\n任意の\nユーザーを\n押下
		sc2.1.2 -up-> sc3 : フォロー\nを押下
		sc2.1.2 -up-> sc4 : フォロワー\nを押下
		sc2.1.2 -up-> sc5 : 任意の\nタグを\n押下
		sc2.1.2 -up-> sc6.1 : 任意の\nアプリを\n押下
		sc6.1 -down-> sc2.1.2 : 任意の\nユーザーを\n押下
		sc6.1 -up-> sc6.2 : 編集を\n押下
		sc6.2 -down-> sc6.1 : 更新を\n押下
	}
@enduml

PlantUML version 1.2019.06(Sat May 25 02:10:25 JST 2019)
(GPL source distribution)
Java Runtime: OpenJDK Runtime Environment
JVM: OpenJDK 64-Bit Server VM
Java Version: 14.0.2+12-46
Operating System: Windows 10
OS Version: 10.0
Default Encoding: MS932
Language: ja
Country: JP
--></g></svg>