<?xml version="1.0" encoding="UTF-8" standalone="no"?><svg xmlns="http://www.w3.org/2000/svg" xmlns:xlink="http://www.w3.org/1999/xlink" contentScriptType="application/ecmascript" contentStyleType="text/css" height="184px" preserveAspectRatio="none" style="width:770px;height:184px;" version="1.1" viewBox="0 0 770 184" width="770px" zoomAndPan="magnify"><defs><filter height="300%" id="f3fvohhzwx9h3" width="300%" x="-1" y="-1"><feGaussianBlur result="blurOut" stdDeviation="2.0"/><feColorMatrix in="blurOut" result="blurOut2" type="matrix" values="0 0 0 0 0 0 0 0 0 0 0 0 0 0 0 0 0 0 .4 0"/><feOffset dx="4.0" dy="4.0" in="blurOut2" result="blurOut3"/><feBlend in="SourceGraphic" in2="blurOut3" mode="normal"/></filter></defs><g><!--MD5=[62fbc3c3e70ec7c66a81223c05cf24b3]
class app.config.JView.commonSetting--><a href="JView.commonSetting.html" target="_top" title="JView.commonSetting.html" xlink:actuate="onRequest" xlink:href="JView.commonSetting.html" xlink:show="new" xlink:title="JView.commonSetting.html" xlink:type="simple"><rect fill="#FEFECE" filter="url(#f3fvohhzwx9h3)" height="40.1875" id="app.config.JView.commonSetting" style="stroke: #A80036; stroke-width: 1.5;" width="169" x="301.5" y="107"/><ellipse cx="316.5" cy="127.0938" fill="#B4A7E5" rx="11" ry="11" style="stroke: #A80036; stroke-width: 1.0;"/><path d="M317.6719,131.8125 L318.4063,131.8125 L318.4063,133.9531 L314.7188,133.9531 L314.7188,131.8125 L315.4531,131.8125 L315.4531,122.4688 L314.7188,122.4688 L314.7188,120.3281 L318.4063,120.3281 L318.4063,122.4688 L317.6719,122.4688 L317.6719,131.8125 Z "/><text fill="#000000" font-family="sans-serif" font-size="14" font-style="italic" lengthAdjust="spacingAndGlyphs" textLength="137" x="330.5" y="126.5332">JView.commonSetting</text><text fill="#000000" font-family="sans-serif" font-size="10" font-style="italic" lengthAdjust="spacingAndGlyphs" textLength="50" x="374" y="139.9902">app.config</text></a><!--MD5=[c39b90e7b7764ebc27b5162447043928]
class app.config.JView.Profile--><a href="JView.Profile.html" target="_top" title="JView.Profile.html" xlink:actuate="onRequest" xlink:href="JView.Profile.html" xlink:show="new" xlink:title="JView.Profile.html" xlink:type="simple"><rect fill="#FEFECE" filter="url(#f3fvohhzwx9h3)" height="40.1875" id="app.config.JView.Profile" style="stroke: #A80036; stroke-width: 1.5;" width="112" x="7" y="7"/><ellipse cx="22" cy="27.0938" fill="#B4A7E5" rx="11" ry="11" style="stroke: #A80036; stroke-width: 1.0;"/><path d="M23.1719,31.8125 L23.9063,31.8125 L23.9063,33.9531 L20.2188,33.9531 L20.2188,31.8125 L20.9531,31.8125 L20.9531,22.4688 L20.2188,22.4688 L20.2188,20.3281 L23.9063,20.3281 L23.9063,22.4688 L23.1719,22.4688 L23.1719,31.8125 Z "/><text fill="#000000" font-family="sans-serif" font-size="14" font-style="italic" lengthAdjust="spacingAndGlyphs" textLength="80" x="36" y="26.5332">JView.Profile</text><text fill="#000000" font-family="sans-serif" font-size="10" font-style="italic" lengthAdjust="spacingAndGlyphs" textLength="50" x="51" y="39.9902">app.config</text></a><!--MD5=[467fd3ac555fb020109664954e840d16]
class app.config.JView.Account--><a href="JView.Account.html" target="_top" title="JView.Account.html" xlink:actuate="onRequest" xlink:href="JView.Account.html" xlink:show="new" xlink:title="JView.Account.html" xlink:type="simple"><rect fill="#FEFECE" filter="url(#f3fvohhzwx9h3)" height="40.1875" id="app.config.JView.Account" style="stroke: #A80036; stroke-width: 1.5;" width="123" x="154.5" y="7"/><ellipse cx="169.5" cy="27.0938" fill="#B4A7E5" rx="11" ry="11" style="stroke: #A80036; stroke-width: 1.0;"/><path d="M170.6719,31.8125 L171.4063,31.8125 L171.4063,33.9531 L167.7188,33.9531 L167.7188,31.8125 L168.4531,31.8125 L168.4531,22.4688 L167.7188,22.4688 L167.7188,20.3281 L171.4063,20.3281 L171.4063,22.4688 L170.6719,22.4688 L170.6719,31.8125 Z "/><text fill="#000000" font-family="sans-serif" font-size="14" font-style="italic" lengthAdjust="spacingAndGlyphs" textLength="91" x="183.5" y="26.5332">JView.Account</text><text fill="#000000" font-family="sans-serif" font-size="10" font-style="italic" lengthAdjust="spacingAndGlyphs" textLength="50" x="204" y="39.9902">app.config</text></a><!--MD5=[dcd3703062a23b6e33b555a646ddb871]
class app.config.JView.Nortification--><a href="JView.Nortification.html" target="_top" title="JView.Nortification.html" xlink:actuate="onRequest" xlink:href="JView.Nortification.html" xlink:show="new" xlink:title="JView.Nortification.html" xlink:type="simple"><rect fill="#FEFECE" filter="url(#f3fvohhzwx9h3)" height="40.1875" id="app.config.JView.Nortification" style="stroke: #A80036; stroke-width: 1.5;" width="147" x="312.5" y="7"/><ellipse cx="327.5" cy="27.0938" fill="#B4A7E5" rx="11" ry="11" style="stroke: #A80036; stroke-width: 1.0;"/><path d="M328.6719,31.8125 L329.4063,31.8125 L329.4063,33.9531 L325.7188,33.9531 L325.7188,31.8125 L326.4531,31.8125 L326.4531,22.4688 L325.7188,22.4688 L325.7188,20.3281 L329.4063,20.3281 L329.4063,22.4688 L328.6719,22.4688 L328.6719,31.8125 Z "/><text fill="#000000" font-family="sans-serif" font-size="14" font-style="italic" lengthAdjust="spacingAndGlyphs" textLength="115" x="341.5" y="26.5332">JView.Nortification</text><text fill="#000000" font-family="sans-serif" font-size="10" font-style="italic" lengthAdjust="spacingAndGlyphs" textLength="50" x="374" y="39.9902">app.config</text></a><!--MD5=[50336af1bedd8273bd2ff5df7af931e1]
class app.config.JView.Customize--><a href="JView.Customize.html" target="_top" title="JView.Customize.html" xlink:actuate="onRequest" xlink:href="JView.Customize.html" xlink:show="new" xlink:title="JView.Customize.html" xlink:type="simple"><rect fill="#FEFECE" filter="url(#f3fvohhzwx9h3)" height="40.1875" id="app.config.JView.Customize" style="stroke: #A80036; stroke-width: 1.5;" width="138" x="495" y="7"/><ellipse cx="510" cy="27.0938" fill="#B4A7E5" rx="11" ry="11" style="stroke: #A80036; stroke-width: 1.0;"/><path d="M511.1719,31.8125 L511.9063,31.8125 L511.9063,33.9531 L508.2188,33.9531 L508.2188,31.8125 L508.9531,31.8125 L508.9531,22.4688 L508.2188,22.4688 L508.2188,20.3281 L511.9063,20.3281 L511.9063,22.4688 L511.1719,22.4688 L511.1719,31.8125 Z "/><text fill="#000000" font-family="sans-serif" font-size="14" font-style="italic" lengthAdjust="spacingAndGlyphs" textLength="106" x="524" y="26.5332">JView.Customize</text><text fill="#000000" font-family="sans-serif" font-size="10" font-style="italic" lengthAdjust="spacingAndGlyphs" textLength="50" x="552" y="39.9902">app.config</text></a><!--MD5=[c4589ec187783cdae14d7e455754229d]
class app.config.JView--><a href="JView.html" target="_top" title="JView.html" xlink:actuate="onRequest" xlink:href="JView.html" xlink:show="new" xlink:title="JView.html" xlink:type="simple"><rect fill="#FEFECE" filter="url(#f3fvohhzwx9h3)" height="40.1875" id="app.config.JView" style="stroke: #A80036; stroke-width: 1.5;" width="83" x="668.5" y="7"/><ellipse cx="683.5" cy="27.0938" fill="#ADD1B2" rx="11" ry="11" style="stroke: #A80036; stroke-width: 1.0;"/><path d="M687.1875,28.2969 Q686.9375,31.7813 685.7969,32.9375 Q684.7656,33.9531 683.3594,33.9531 Q681.9531,33.9531 680.9219,32.9375 Q679.1719,31.1719 679.1719,27.5 Q679.1719,23.25 681.0469,21.3438 Q682.0938,20.3281 683.4219,20.3281 Q684.8281,20.3281 685.6719,21.1406 Q687.1563,22.6563 687.0781,25.5313 L684.9531,25.5313 Q684.875,23.2031 684.2344,22.5625 Q683.9531,22.2656 683.4219,22.2656 Q682.9688,22.2656 682.6094,22.6406 Q681.375,23.8594 681.375,27.375 Q681.375,30.4219 682.4219,31.4375 Q682.8438,31.875 683.3594,31.875 Q683.8125,31.875 684.25,31.4375 Q684.8125,30.8906 684.8906,28.2969 L687.1875,28.2969 Z "/><text fill="#000000" font-family="sans-serif" font-size="14" lengthAdjust="spacingAndGlyphs" textLength="35" x="705.5" y="26.5332">JView</text><text fill="#000000" font-family="sans-serif" font-size="10" lengthAdjust="spacingAndGlyphs" textLength="51" x="697.5" y="39.9902">app.config</text></a><!--MD5=[d08e97e61920280aa31357be52aa1679]
reverse link app.config.JView.Profile to app.config.JView.commonSetting--><path d="M138.607,50.9394 C194.739,67.9702 270.395,90.9248 323.208,106.9484 " fill="none" id="app.config.JView.Profile&lt;-app.config.JView.commonSetting" style="stroke: #A80036; stroke-width: 1.0;"/><polygon fill="none" points="136.368,57.5756,119.262,45.07,140.433,44.179,136.368,57.5756" style="stroke: #A80036; stroke-width: 1.0;"/><!--MD5=[8ac56062907d3da3e128b991c4a280c3]
reverse link app.config.JView.Account to app.config.JView.commonSetting--><path d="M266.512,57.1188 C294.441,73.2189 328.352,92.7674 352.902,106.9202 " fill="none" id="app.config.JView.Account&lt;-app.config.JView.commonSetting" style="stroke: #A80036; stroke-width: 1.0;"/><polygon fill="none" points="263.012,63.1811,249.181,47.128,270.004,51.0522,263.012,63.1811" style="stroke: #A80036; stroke-width: 1.0;"/><!--MD5=[1cb0c3ac8a5c9365dfd15bf1184f5159]
reverse link app.config.JView.Nortification to app.config.JView.commonSetting--><path d="M386,67.692 C386,81.1338 386,95.5458 386,106.6786 " fill="none" id="app.config.JView.Nortification&lt;-app.config.JView.commonSetting" style="stroke: #A80036; stroke-width: 1.0;"/><polygon fill="none" points="379,67.3617,386,47.3616,393,67.3616,379,67.3617" style="stroke: #A80036; stroke-width: 1.0;"/><!--MD5=[ddefa909b96facec7d6e766fa0ed0c94]
reverse link app.config.JView.Customize to app.config.JView.commonSetting--><path d="M511.528,56.889 C482.206,73.0326 446.484,92.7 420.655,106.9202 " fill="none" id="app.config.JView.Customize&lt;-app.config.JView.commonSetting" style="stroke: #A80036; stroke-width: 1.0;"/><polygon fill="none" points="508.361,50.642,529.257,47.128,515.113,62.9061,508.361,50.642" style="stroke: #A80036; stroke-width: 1.0;"/><!--MD5=[ea6310865f2bb10e45816ac416d29996]
reverse link app.config.JView to app.config.JView.commonSetting--><path d="M653.939,46.086 C652.952,46.394 651.972,46.699 651,47 C583.021,68.0759 504.905,91.2349 451.191,106.9964 " fill="none" id="app.config.JView&lt;-app.config.JView.commonSetting" style="stroke: #A80036; stroke-width: 1.0;"/><ellipse cx="660.8261" cy="43.9124" fill="#FFFFFF" rx="8" ry="8" style="stroke: #A80036; stroke-width: 1.0;"/><line style="stroke: #A80036; stroke-width: 1.0;" x1="653.1973" x2="668.455" y1="46.3208" y2="41.504"/><line style="stroke: #A80036; stroke-width: 1.0;" x1="658.4177" x2="663.2345" y1="36.2835" y2="51.5413"/><text fill="#888888" font-family="sans-serif" font-size="10" lengthAdjust="spacingAndGlyphs" textLength="190" x="281.25" y="170.5684">UMLDoclet 2.0.11, PlantUML 1.2020.15</text><!--MD5=[152c3d931e1aa3f85ec1c4c7972a22a7]
@startuml
    set namespaceSeparator none
    hide empty fields
    hide empty methods

    interface "<size:14>JView.commonSetting\n<size:10>app.config" as app.config.JView.commonSetting [[JView.commonSetting.html]]

    interface "<size:14>JView.Profile\n<size:10>app.config" as app.config.JView.Profile [[JView.Profile.html]]
    interface "<size:14>JView.Account\n<size:10>app.config" as app.config.JView.Account [[JView.Account.html]]
    interface "<size:14>JView.Nortification\n<size:10>app.config" as app.config.JView.Nortification [[JView.Nortification.html]]
    interface "<size:14>JView.Customize\n<size:10>app.config" as app.config.JView.Customize [[JView.Customize.html]]
    class "<size:14>JView\n<size:10>app.config" as app.config.JView [[JView.html]]

    app.config.JView.Profile <|- - app.config.JView.commonSetting
    app.config.JView.Account <|- - app.config.JView.commonSetting
    app.config.JView.Nortification <|- - app.config.JView.commonSetting
    app.config.JView.Customize <|- - app.config.JView.commonSetting
    app.config.JView +- - app.config.JView.commonSetting

    center footer UMLDoclet 2.0.11, PlantUML 1.2020.15
@enduml

PlantUML version 1.2020.15(Sun Jun 28 20:39:45 JST 2020)
(APACHE source distribution)
Java Runtime: OpenJDK Runtime Environment
JVM: OpenJDK 64-Bit Server VM
Default Encoding: MS932
Language: ja
Country: JP
--></g></svg>