<?xml version="1.0" encoding="UTF-8" standalone="no"?><svg xmlns="http://www.w3.org/2000/svg" xmlns:xlink="http://www.w3.org/1999/xlink" contentScriptType="application/ecmascript" contentStyleType="text/css" height="155px" preserveAspectRatio="none" style="width:260px;height:155px;" version="1.1" viewBox="0 0 260 155" width="260px" zoomAndPan="magnify"><defs><filter height="300%" id="fwn5t6w4yncm8" width="300%" x="-1" y="-1"><feGaussianBlur result="blurOut" stdDeviation="2.0"/><feColorMatrix in="blurOut" result="blurOut2" type="matrix" values="0 0 0 0 0 0 0 0 0 0 0 0 0 0 0 0 0 0 .4 0"/><feOffset dx="4.0" dy="4.0" in="blurOut2" result="blurOut3"/><feBlend in="SourceGraphic" in2="blurOut3" mode="normal"/></filter></defs><g><!--MD5=[29f5b28f784b41bea755bddff3c9cbb4]
class app.service.AppService--><a href="AppService.html" target="_top" title="AppService.html" xlink:actuate="onRequest" xlink:href="AppService.html" xlink:show="new" xlink:title="AppService.html" xlink:type="simple"><rect fill="#FEFECE" filter="url(#fwn5t6w4yncm8)" height="117.3672" id="app.service.AppService" style="stroke: #A80036; stroke-width: 1.5;" width="234" x="7" y="7"/><ellipse cx="83.75" cy="27.0938" fill="#ADD1B2" rx="11" ry="11" style="stroke: #A80036; stroke-width: 1.0;"/><path d="M87.4375,28.2969 Q87.1875,31.7813 86.0469,32.9375 Q85.0156,33.9531 83.6094,33.9531 Q82.2031,33.9531 81.1719,32.9375 Q79.4219,31.1719 79.4219,27.5 Q79.4219,23.25 81.2969,21.3438 Q82.3438,20.3281 83.6719,20.3281 Q85.0781,20.3281 85.9219,21.1406 Q87.4063,22.6563 87.3281,25.5313 L85.2031,25.5313 Q85.125,23.2031 84.4844,22.5625 Q84.2031,22.2656 83.6719,22.2656 Q83.2188,22.2656 82.8594,22.6406 Q81.625,23.8594 81.625,27.375 Q81.625,30.4219 82.6719,31.4375 Q83.0938,31.875 83.6094,31.875 Q84.0625,31.875 84.5,31.4375 Q85.0625,30.8906 85.1406,28.2969 L87.4375,28.2969 Z "/><text fill="#000000" font-family="sans-serif" font-size="14" lengthAdjust="spacingAndGlyphs" textLength="72" x="104.25" y="26.5332">AppService</text><text fill="#000000" font-family="sans-serif" font-size="10" lengthAdjust="spacingAndGlyphs" textLength="54" x="113.25" y="39.9902">app.service</text><line style="stroke: #A80036; stroke-width: 1.5;" x1="8" x2="240" y1="47.1875" y2="47.1875"/><ellipse cx="18" cy="58.1875" fill="#84BE84" rx="3" ry="3" style="stroke: #038048; stroke-width: 1.0;"/><text fill="#000000" font-family="sans-serif" font-size="11" lengthAdjust="spacingAndGlyphs" textLength="135" x="27" y="62.6064">selectAppList(): List&lt;Apps&gt;</text><ellipse cx="18" cy="72.0234" fill="#84BE84" rx="3" ry="3" style="stroke: #038048; stroke-width: 1.0;"/><text fill="#000000" font-family="sans-serif" font-size="11" lengthAdjust="spacingAndGlyphs" textLength="208" x="27" y="76.4424">selectUserListByApps(String): List&lt;Users&gt;</text><ellipse cx="18" cy="85.8594" fill="#84BE84" rx="3" ry="3" style="stroke: #038048; stroke-width: 1.0;"/><text fill="#000000" font-family="sans-serif" font-size="11" lengthAdjust="spacingAndGlyphs" textLength="107" x="27" y="90.2783">insertApp(Apps): void</text><ellipse cx="18" cy="99.6953" fill="#84BE84" rx="3" ry="3" style="stroke: #038048; stroke-width: 1.0;"/><text fill="#000000" font-family="sans-serif" font-size="11" lengthAdjust="spacingAndGlyphs" textLength="176" x="27" y="104.1143">insertUserApp(Integer, Integer): void</text><ellipse cx="18" cy="113.5313" fill="#84BE84" rx="3" ry="3" style="stroke: #038048; stroke-width: 1.0;"/><text fill="#000000" font-family="sans-serif" font-size="11" lengthAdjust="spacingAndGlyphs" textLength="176" x="27" y="117.9502">deleteUserapp(Integer, Integer): void</text></a><text fill="#888888" font-family="sans-serif" font-size="10" lengthAdjust="spacingAndGlyphs" textLength="190" x="29" y="141.748">UMLDoclet 2.0.11, PlantUML 1.2020.15</text><!--MD5=[e7e90042b64b7a02f15d4d9e54b5653d]
@startuml
    set namespaceSeparator none
    hide empty fields
    hide empty methods

    class "<size:14>AppService\n<size:10>app.service" as app.service.AppService [[AppService.html]] {
        +selectAppList(): List<Apps>
        +selectUserListByApps(String): List<Users>
        +insertApp(Apps): void
        +insertUserApp(Integer, Integer): void
        +deleteUserapp(Integer, Integer): void
    }

    center footer UMLDoclet 2.0.11, PlantUML 1.2020.15
@enduml

PlantUML version 1.2020.15(Sun Jun 28 20:39:45 JST 2020)
(APACHE source distribution)
Java Runtime: OpenJDK Runtime Environment
JVM: OpenJDK 64-Bit Server VM
Default Encoding: MS932
Language: ja
Country: JP
--></g></svg>