<?xml version="1.0" encoding="UTF-8" standalone="no"?><svg xmlns="http://www.w3.org/2000/svg" xmlns:xlink="http://www.w3.org/1999/xlink" contentScriptType="application/ecmascript" contentStyleType="text/css" height="78px" preserveAspectRatio="none" style="width:202px;height:78px;" version="1.1" viewBox="0 0 202 78" width="202px" zoomAndPan="magnify"><defs><filter height="300%" id="f1254ukaojfqcm" width="300%" x="-1" y="-1"><feGaussianBlur result="blurOut" stdDeviation="2.0"/><feColorMatrix in="blurOut" result="blurOut2" type="matrix" values="0 0 0 0 0 0 0 0 0 0 0 0 0 0 0 0 0 0 .4 0"/><feOffset dx="4.0" dy="4.0" in="blurOut2" result="blurOut3"/><feBlend in="SourceGraphic" in2="blurOut3" mode="normal"/></filter></defs><g><!--MD5=[95bcf5eaea6d10a4599473819f25a6ff]
class app.service.MainService--><a href="MainService.html" target="_top" title="MainService.html" xlink:actuate="onRequest" xlink:href="MainService.html" xlink:show="new" xlink:title="MainService.html" xlink:type="simple"><rect fill="#FEFECE" filter="url(#f1254ukaojfqcm)" height="40.1875" id="app.service.MainService" style="stroke: #A80036; stroke-width: 1.5;" width="109" x="40.5" y="7"/><ellipse cx="55.5" cy="27.0938" fill="#ADD1B2" rx="11" ry="11" style="stroke: #A80036; stroke-width: 1.0;"/><path d="M59.1875,28.2969 Q58.9375,31.7813 57.7969,32.9375 Q56.7656,33.9531 55.3594,33.9531 Q53.9531,33.9531 52.9219,32.9375 Q51.1719,31.1719 51.1719,27.5 Q51.1719,23.25 53.0469,21.3438 Q54.0938,20.3281 55.4219,20.3281 Q56.8281,20.3281 57.6719,21.1406 Q59.1563,22.6563 59.0781,25.5313 L56.9531,25.5313 Q56.875,23.2031 56.2344,22.5625 Q55.9531,22.2656 55.4219,22.2656 Q54.9688,22.2656 54.6094,22.6406 Q53.375,23.8594 53.375,27.375 Q53.375,30.4219 54.4219,31.4375 Q54.8438,31.875 55.3594,31.875 Q55.8125,31.875 56.25,31.4375 Q56.8125,30.8906 56.8906,28.2969 L59.1875,28.2969 Z "/><text fill="#000000" font-family="sans-serif" font-size="14" lengthAdjust="spacingAndGlyphs" textLength="77" x="69.5" y="26.5332">MainService</text><text fill="#000000" font-family="sans-serif" font-size="10" lengthAdjust="spacingAndGlyphs" textLength="54" x="81" y="39.9902">app.service</text></a><text fill="#888888" font-family="sans-serif" font-size="10" lengthAdjust="spacingAndGlyphs" textLength="190" x="0" y="64.5684">UMLDoclet 2.0.11, PlantUML 1.2020.15</text><!--MD5=[e4e51f6b1807f2860ed5e7ff5569dcde]
@startuml
    set namespaceSeparator none
    hide empty fields
    hide empty methods

    class "<size:14>MainService\n<size:10>app.service" as app.service.MainService [[MainService.html]]

    center footer UMLDoclet 2.0.11, PlantUML 1.2020.15
@enduml

PlantUML version 1.2020.15(Sun Jun 28 20:39:45 JST 2020)
(APACHE source distribution)
Java Runtime: OpenJDK Runtime Environment
JVM: OpenJDK 64-Bit Server VM
Default Encoding: MS932
Language: ja
Country: JP
--></g></svg>